<svg width="754" height="1024" viewBox="0 0 754 1024" fill="none" xmlns="http://www.w3.org/2000/svg">
<mask id="path-3-inside-1_5286_121753" fill="white">
<path d="M0 10C0 5.58172 3.58172 2 8 2H152V62H0V10Z"/>
</mask>
<path d="M0 10C0 5.58172 3.58172 2 8 2H152V62H0V10Z" fill="#F5F5F5"/>
<path d="M0 2H152H0ZM153 63H0V61H151L153 63ZM0 62V2V62ZM153 2V63L151 61V2H153Z" fill="#E3E3E3" mask="url(#path-3-inside-1_5286_121753)"/>
<path d="M73.7188 26.2812V27.5C73.7188 28.8203 73.7188 30.25 73.3281 32.25H75.3906V33.2656H69.6562V39.2969H68.4219V33.2656H62.7344V32.25H72.0781C72.5 30.25 72.5 28.7891 72.5 27.5V27.2969H64.3281V26.2812H73.7188ZM89.2656 32.7344V33.7344H83.6094V36.4531H82.3906V33.7344H76.5469V32.7344H89.2656ZM87.8438 37.9375V38.9688H78.1719V35.1719H79.3906V37.9375H87.8438ZM79.4688 25.8281V27.6094H86.3438V25.8281H87.5625V31.375H78.25V25.8281H79.4688ZM79.4688 30.375H86.3438V28.5469H79.4688V30.375Z" fill="black"/>
<mask id="path-6-inside-2_5286_121753" fill="white">
<path d="M0 62H152V122H0V62Z"/>
</mask>
<path d="M0 62H152V122H0V62Z" fill="#F5F5F5"/>
<path d="M152 122V123H153V122H152ZM151 62V122H153V62H151ZM152 121H0V123H152V121Z" fill="#E3E3E3" mask="url(#path-6-inside-2_5286_121753)"/>
<path d="M53.5078 85.3906V95.6562H52.2734V90.7031H49.1953V89.6719H52.2734V85.3906H53.5078ZM49.2578 86.4531C49.2422 90.0156 46.6953 92.7344 42.7422 94.0312L42.2109 93.0469C45.4141 91.9922 47.6406 90 47.9141 87.4844H42.9141V86.4531H49.2578ZM53.8672 97.9375V98.9688H44.6641V94.6094H45.9141V97.9375H53.8672ZM68.4766 92.375V93.375H62.7422V94.9688H66.9141V99.2188H65.6797V95.9688H57.2266V94.9688H61.5391V93.375H55.8203V92.375H68.4766ZM62.7422 85.3125V86.75H67.1953V87.7344H62.8203C62.9062 89.3125 65.1016 90.3984 67.7266 90.6562L67.3203 91.5938C65.0312 91.3438 62.9844 90.5078 62.1484 89.0938C61.3047 90.5078 59.2578 91.3438 56.9766 91.5938L56.5703 90.6562C59.1797 90.3984 61.375 89.3125 61.4766 87.7344H57.1328V86.75H61.5391V85.3125H62.7422ZM82.3047 91.25V92.25H76.5703V93.625H80.6797V96.7344H72.4297V98.1406H81.1016V99.1094H71.2109V95.8125H79.4766V94.5781H71.1797V93.625H75.3516V92.25H69.6484V91.25H82.3047ZM80.6641 85.8438V90.0781H71.2891V85.8438H80.6641ZM72.5078 86.8281V89.0938H79.4453V86.8281H72.5078ZM96.1328 92.25V93.2656H83.4766V92.25H86.6172V90.2969C85.5078 89.8672 84.8828 89.1562 84.8828 88.2188C84.8828 86.5781 86.7578 85.6406 89.8047 85.6406C92.8203 85.6406 94.7109 86.5781 94.7109 88.2188C94.7109 89.1484 94.0938 89.8594 92.9922 90.2812V92.25H96.1328ZM89.8047 94.3281C92.7891 94.3281 94.5703 95.1875 94.5859 96.7812C94.5703 98.3594 92.7891 99.2344 89.8047 99.2344C86.7891 99.2344 85.0078 98.3594 85.0078 96.7812C85.0078 95.1875 86.7891 94.3281 89.8047 94.3281ZM89.8047 95.2656C87.5703 95.2812 86.2422 95.8281 86.2578 96.7812C86.2422 97.7188 87.5703 98.2812 89.8047 98.2812C92.0078 98.2812 93.3516 97.7188 93.3516 96.7812C93.3516 95.8281 92.0078 95.2812 89.8047 95.2656ZM89.8047 86.6094C87.5391 86.6094 86.1328 87.2188 86.1484 88.2188C86.1328 89.2344 87.5391 89.8281 89.8047 89.8281C92.0547 89.8281 93.4609 89.2344 93.4609 88.2188C93.4609 87.2188 92.0547 86.6094 89.8047 86.6094ZM87.8359 92.25H91.7734V90.625C91.1875 90.7266 90.5312 90.7812 89.8047 90.7812C89.0781 90.7812 88.4219 90.7266 87.8359 90.625V92.25ZM108.523 91.8906V92.8906H104.227V96.4844H110.023V97.5156H97.3047V96.4844H103.023V92.8906H98.9297V86.5156H108.383V87.5156H100.164V91.8906H108.523Z" fill="black"/>
<mask id="path-9-inside-3_5286_121753" fill="white">
<path d="M0 122H152V182H0V122Z"/>
</mask>
<path d="M0 122H152V182H0V122Z" fill="#F5F5F5"/>
<path d="M152 182V183H153V182H152ZM151 122V182H153V122H151ZM152 181H0V183H152V181Z" fill="#E3E3E3" mask="url(#path-9-inside-3_5286_121753)"/>
<path d="M67.3359 145.391V155.656H66.1016V151.906H62.5078C61.8672 152.727 60.8359 153.219 59.6484 153.219C57.5703 153.219 56.0391 151.781 56.0391 149.75C56.0391 147.719 57.5703 146.281 59.6484 146.266C60.8281 146.273 61.8359 146.758 62.4922 147.562H66.1016V145.391H67.3359ZM67.7266 157.938V158.969H58.4141V154.578H59.6484V157.938H67.7266ZM59.6484 147.359C58.2266 147.375 57.2109 148.359 57.2109 149.75C57.2109 151.141 58.2266 152.125 59.6484 152.125C61.0078 152.125 62.0547 151.141 62.0547 149.75C62.0547 148.359 61.0078 147.375 59.6484 147.359ZM63.0547 148.578C63.1719 148.938 63.2422 149.328 63.2422 149.75C63.2422 150.156 63.1719 150.539 63.0547 150.891H66.1016V148.578H63.0547ZM76.6797 146.594V147.828H79.9297V145.391H81.1641V155.531H79.9297V151.828H76.6797V153.078H70.3047V146.594H76.6797ZM71.5234 147.609V152.094H75.4766V147.609H71.5234ZM81.4766 157.938V158.969H72.1797V154.625H73.4141V157.938H81.4766ZM76.6797 150.812H79.9297V148.859H76.6797V150.812ZM88.3047 147.938C88.3047 149.75 89.6953 151.469 91.7266 152.172L91.0859 153.141C89.5156 152.578 88.3047 151.414 87.7109 149.984C87.1094 151.586 85.8281 152.867 84.1797 153.469L83.5391 152.5C85.5859 151.766 87.0703 149.906 87.0703 147.953V147.344H83.9297V146.344H91.4141V147.344H88.3047V147.938ZM94.9922 154.438V159.266H93.7578V155.453H85.6484V154.438H94.9922ZM94.9922 145.375V153.703H93.7578V150.047H90.9766V149.016H93.7578V145.375H94.9922Z" fill="black"/>
<mask id="path-12-inside-4_5286_121753" fill="white">
<path d="M0 182H152V242H0V182Z"/>
</mask>
<path d="M0 182H152V242H0V182Z" fill="#F5F5F5"/>
<path d="M152 242V243H153V242H152ZM151 182V242H153V182H151ZM152 241H0V243H152V241Z" fill="#E3E3E3" mask="url(#path-12-inside-4_5286_121753)"/>
<path d="M60.7812 205.375V219.266H59.6094V211.984H57.5625V218.547H56.4375V205.688H57.5625V210.969H59.6094V205.375H60.7812ZM54.625 207.078V208.094H50.6406V214.781C52.5547 214.773 53.8828 214.703 55.4219 214.391L55.5312 215.422C53.8594 215.766 52.4375 215.828 50.3125 215.828H49.4219V207.078H54.625ZM67.7031 209.641C67.7031 212 69.4219 214.391 71.4688 215.281L70.7812 216.25C69.1562 215.508 67.75 213.906 67.1094 211.984C66.4531 214.023 65.0547 215.797 63.4688 216.594L62.7344 215.625C64.7188 214.672 66.4531 212.047 66.4688 209.641V207.828H63.1875V206.812H71.0156V207.828H67.7031V209.641ZM74.1875 205.375V219.266H72.9531V205.375H74.1875ZM83.5938 206.594V207.828H86.8438V205.391H88.0781V215.531H86.8438V211.828H83.5938V213.078H77.2188V206.594H83.5938ZM78.4375 207.609V212.094H82.3906V207.609H78.4375ZM88.3906 217.938V218.969H79.0938V214.625H80.3281V217.938H88.3906ZM83.5938 210.812H86.8438V208.859H83.5938V210.812ZM95.2188 207.938C95.2188 209.75 96.6094 211.469 98.6406 212.172L98 213.141C96.4297 212.578 95.2188 211.414 94.625 209.984C94.0234 211.586 92.7422 212.867 91.0938 213.469L90.4531 212.5C92.5 211.766 93.9844 209.906 93.9844 207.953V207.344H90.8438V206.344H98.3281V207.344H95.2188V207.938ZM101.906 214.438V219.266H100.672V215.453H92.5625V214.438H101.906ZM101.906 205.375V213.703H100.672V210.047H97.8906V209.016H100.672V205.375H101.906Z" fill="black"/>
<mask id="path-15-inside-5_5286_121753" fill="white">
<path d="M0 242H152V302H0V242Z"/>
</mask>
<path d="M0 242H152V302H0V242Z" fill="#F5F5F5"/>
<path d="M152 302V303H153V302H152ZM151 242V302H153V242H151ZM152 301H0V303H152V301Z" fill="#E3E3E3" mask="url(#path-15-inside-5_5286_121753)"/>
<path d="M60.4219 265.391V275.656H59.1875V270.703H56.1094V269.672H59.1875V265.391H60.4219ZM56.1719 266.453C56.1562 270.016 53.6094 272.734 49.6562 274.031L49.125 273.047C52.3281 271.992 54.5547 270 54.8281 267.484H49.8281V266.453H56.1719ZM60.7812 277.938V278.969H51.5781V274.609H52.8281V277.938H60.7812ZM75.3906 272.375V273.375H69.6562V274.969H73.8281V279.219H72.5938V275.969H64.1406V274.969H68.4531V273.375H62.7344V272.375H75.3906ZM69.6562 265.312V266.75H74.1094V267.734H69.7344C69.8203 269.312 72.0156 270.398 74.6406 270.656L74.2344 271.594C71.9453 271.344 69.8984 270.508 69.0625 269.094C68.2188 270.508 66.1719 271.344 63.8906 271.594L63.4844 270.656C66.0938 270.398 68.2891 269.312 68.3906 267.734H64.0469V266.75H68.4531V265.312H69.6562ZM83.5938 266.594V267.828H86.8438V265.391H88.0781V275.531H86.8438V271.828H83.5938V273.078H77.2188V266.594H83.5938ZM78.4375 267.609V272.094H82.3906V267.609H78.4375ZM88.3906 277.938V278.969H79.0938V274.625H80.3281V277.938H88.3906ZM83.5938 270.812H86.8438V268.859H83.5938V270.812ZM95.2188 267.938C95.2188 269.75 96.6094 271.469 98.6406 272.172L98 273.141C96.4297 272.578 95.2188 271.414 94.625 269.984C94.0234 271.586 92.7422 272.867 91.0938 273.469L90.4531 272.5C92.5 271.766 93.9844 269.906 93.9844 267.953V267.344H90.8438V266.344H98.3281V267.344H95.2188V267.938ZM101.906 274.438V279.266H100.672V275.453H92.5625V274.438H101.906ZM101.906 265.375V273.703H100.672V270.047H97.8906V269.016H100.672V265.375H101.906Z" fill="black"/>
<mask id="path-18-inside-6_5286_121753" fill="white">
<path d="M0 302H152V362H0V302Z"/>
</mask>
<path d="M0 302H152V362H0V302Z" fill="#F5F5F5"/>
<path d="M152 362V363H153V362H152ZM151 302V362H153V302H151ZM152 361H0V363H152V361Z" fill="#E3E3E3" mask="url(#path-18-inside-6_5286_121753)"/>
<path d="M55.1875 334.156C58.1719 334.156 60.0625 335.094 60.0625 336.703C60.0625 338.297 58.1719 339.234 55.1875 339.234C52.2188 339.234 50.3281 338.297 50.3281 336.703C50.3281 335.094 52.2188 334.156 55.1875 334.156ZM55.1875 335.094C52.9688 335.109 51.5312 335.719 51.5469 336.703C51.5312 337.672 52.9688 338.266 55.1875 338.266C57.4062 338.266 58.8281 337.672 58.8438 336.703C58.8281 335.719 57.4062 335.109 55.1875 335.094ZM59.9531 326.094V327.266C59.9531 328.391 59.9531 329.516 59.5625 330.953L58.3594 330.812C58.7344 329.375 58.7344 328.359 58.7344 327.266V327.094H50.4219V326.094H59.9531ZM61.5625 331.859V332.859H48.9219V331.859H54.1562V329.172H55.3594V331.859H61.5625ZM65.6094 333.328V335.172H72.5625V333.328H73.7812V339.078H64.3906V333.328H65.6094ZM65.6094 338.078H72.5625V336.141H65.6094V338.078ZM73.7812 326.016V327.031C73.7812 328.094 73.7812 329.328 73.4062 331.062H75.4531V332.078H62.7344V331.062H72.2031C72.5625 329.336 72.5625 328.094 72.5625 327.031H64.3438V326.016H73.7812ZM83.5938 326.594V327.828H86.8438V325.391H88.0781V335.531H86.8438V331.828H83.5938V333.078H77.2188V326.594H83.5938ZM78.4375 327.609V332.094H82.3906V327.609H78.4375ZM88.3906 337.938V338.969H79.0938V334.625H80.3281V337.938H88.3906ZM83.5938 330.812H86.8438V328.859H83.5938V330.812ZM95.2188 327.938C95.2188 329.75 96.6094 331.469 98.6406 332.172L98 333.141C96.4297 332.578 95.2188 331.414 94.625 329.984C94.0234 331.586 92.7422 332.867 91.0938 333.469L90.4531 332.5C92.5 331.766 93.9844 329.906 93.9844 327.953V327.344H90.8438V326.344H98.3281V327.344H95.2188V327.938ZM101.906 334.438V339.266H100.672V335.453H92.5625V334.438H101.906ZM101.906 325.375V333.703H100.672V330.047H97.8906V329.016H100.672V325.375H101.906Z" fill="black"/>
<mask id="path-21-inside-7_5286_121753" fill="white">
<path d="M0 362H152V422H0V362Z"/>
</mask>
<path d="M0 362H152V422H0V362Z" fill="#F5F5F5"/>
<path d="M152 422V423H153V422H152ZM151 362V422H153V362H151ZM152 421H0V423H152V421Z" fill="#E3E3E3" mask="url(#path-21-inside-7_5286_121753)"/>
<path d="M60.7969 385.375V399.266H59.625V385.375H60.7969ZM57.9844 385.75V398.562H56.8125V393.75H54.2344V392.734H56.8125V390.266H54.4688C53.7891 392.617 52.2656 394.695 49.6406 396.266L48.8906 395.375C51.9141 393.586 53.4297 391.078 53.6719 388.172H49.5156V387.156H54.8906C54.8906 387.867 54.8281 388.57 54.7031 389.25H56.8125V385.75H57.9844ZM75.6562 387.531V388.531H73.5938V390.484H75.6562V391.531H73.5938V393.641H72.375V385.375H73.5938V387.531H75.6562ZM73.5938 394.281V399.266H72.375V395.297H64.5V394.281H73.5938ZM66.6406 386.219C68.75 386.203 70.2812 387.562 70.2969 389.484C70.2812 391.438 68.75 392.781 66.6406 392.781C64.5312 392.781 62.9844 391.438 63 389.484C62.9844 387.562 64.5312 386.203 66.6406 386.219ZM66.6406 387.266C65.2344 387.266 64.1875 388.172 64.2031 389.484C64.1875 390.812 65.2344 391.734 66.6406 391.719C68.0625 391.734 69.0938 390.812 69.0938 389.484C69.0938 388.172 68.0625 387.266 66.6406 387.266ZM83.5938 386.594V387.828H86.8438V385.391H88.0781V395.531H86.8438V391.828H83.5938V393.078H77.2188V386.594H83.5938ZM78.4375 387.609V392.094H82.3906V387.609H78.4375ZM88.3906 397.938V398.969H79.0938V394.625H80.3281V397.938H88.3906ZM83.5938 390.812H86.8438V388.859H83.5938V390.812ZM95.2188 387.938C95.2188 389.75 96.6094 391.469 98.6406 392.172L98 393.141C96.4297 392.578 95.2188 391.414 94.625 389.984C94.0234 391.586 92.7422 392.867 91.0938 393.469L90.4531 392.5C92.5 391.766 93.9844 389.906 93.9844 387.953V387.344H90.8438V386.344H98.3281V387.344H95.2188V387.938ZM101.906 394.438V399.266H100.672V395.453H92.5625V394.438H101.906ZM101.906 385.375V393.703H100.672V390.047H97.8906V389.016H100.672V385.375H101.906Z" fill="black"/>
<mask id="path-24-inside-8_5286_121753" fill="white">
<path d="M0 422H152V482H0V422Z"/>
</mask>
<path d="M0 422H152V482H0V422Z" fill="#F5F5F5"/>
<path d="M152 482V483H153V482H152ZM151 422V482H153V422H151ZM152 481H0V483H152V481Z" fill="#E3E3E3" mask="url(#path-24-inside-8_5286_121753)"/>
<path d="M60.4219 445.391V455.578H59.1875V450.25H56.3281V449.234H59.1875V445.391H60.4219ZM60.8125 457.938V458.969H51.5V454.656H52.7344V457.938H60.8125ZM53.7344 448.25C53.7344 450.047 55.125 451.797 57.1562 452.484L56.5156 453.469C54.9453 452.906 53.7344 451.734 53.1406 450.297C52.5391 451.898 51.2578 453.18 49.6094 453.797L48.9688 452.797C51.0156 452.078 52.5 450.25 52.5 448.25V447.531H49.3594V446.516H56.8438V447.531H53.7344V448.25ZM75.3906 452.25V453.266H62.7344V452.25H65.875V450.297C64.7656 449.867 64.1406 449.156 64.1406 448.219C64.1406 446.578 66.0156 445.641 69.0625 445.641C72.0781 445.641 73.9688 446.578 73.9688 448.219C73.9688 449.148 73.3516 449.859 72.25 450.281V452.25H75.3906ZM69.0625 454.328C72.0469 454.328 73.8281 455.188 73.8438 456.781C73.8281 458.359 72.0469 459.234 69.0625 459.234C66.0469 459.234 64.2656 458.359 64.2656 456.781C64.2656 455.188 66.0469 454.328 69.0625 454.328ZM69.0625 455.266C66.8281 455.281 65.5 455.828 65.5156 456.781C65.5 457.719 66.8281 458.281 69.0625 458.281C71.2656 458.281 72.6094 457.719 72.6094 456.781C72.6094 455.828 71.2656 455.281 69.0625 455.266ZM69.0625 446.609C66.7969 446.609 65.3906 447.219 65.4062 448.219C65.3906 449.234 66.7969 449.828 69.0625 449.828C71.3125 449.828 72.7188 449.234 72.7188 448.219C72.7188 447.219 71.3125 446.609 69.0625 446.609ZM67.0938 452.25H71.0312V450.625C70.4453 450.727 69.7891 450.781 69.0625 450.781C68.3359 450.781 67.6797 450.727 67.0938 450.625V452.25ZM83.5938 446.594V447.828H86.8438V445.391H88.0781V455.531H86.8438V451.828H83.5938V453.078H77.2188V446.594H83.5938ZM78.4375 447.609V452.094H82.3906V447.609H78.4375ZM88.3906 457.938V458.969H79.0938V454.625H80.3281V457.938H88.3906ZM83.5938 450.812H86.8438V448.859H83.5938V450.812ZM95.2188 447.938C95.2188 449.75 96.6094 451.469 98.6406 452.172L98 453.141C96.4297 452.578 95.2188 451.414 94.625 449.984C94.0234 451.586 92.7422 452.867 91.0938 453.469L90.4531 452.5C92.5 451.766 93.9844 449.906 93.9844 447.953V447.344H90.8438V446.344H98.3281V447.344H95.2188V447.938ZM101.906 454.438V459.266H100.672V455.453H92.5625V454.438H101.906ZM101.906 445.375V453.703H100.672V450.047H97.8906V449.016H100.672V445.375H101.906Z" fill="black"/>
<mask id="path-27-inside-9_5286_121753" fill="white">
<path d="M0 482H152V542H0V482Z"/>
</mask>
<path d="M0 482H152V542H0V482Z" fill="#F5F5F5"/>
<path d="M152 542V543H153V542H152ZM151 482V542H153V482H151ZM152 541H0V543H152V541Z" fill="#E3E3E3" mask="url(#path-27-inside-9_5286_121753)"/>
<path d="M75.3906 512.578V513.594H62.7344V512.578H68.4531V510.844H69.6562V512.578H75.3906ZM69.6562 505.344V506.734H74.1094V507.734H69.7344C69.8359 509.273 72.0391 510.336 74.6406 510.578L74.2656 511.531C71.9609 511.289 69.9062 510.461 69.0625 509.062C68.2109 510.461 66.1484 511.289 63.8594 511.531L63.4688 510.578C66.0703 510.336 68.2734 509.273 68.3906 507.734H64.0469V506.734H68.4531V505.344H69.6562ZM69.0625 514.641C72.0781 514.641 73.8281 515.453 73.8438 516.938C73.8281 518.438 72.0781 519.234 69.0625 519.234C66.0469 519.234 64.2656 518.438 64.2656 516.938C64.2656 515.453 66.0469 514.641 69.0625 514.641ZM69.0625 515.562C66.8125 515.562 65.5 516.062 65.5156 516.938C65.5 517.812 66.8125 518.297 69.0625 518.281C71.2812 518.297 72.6094 517.812 72.6094 516.938C72.6094 516.062 71.2812 515.562 69.0625 515.562ZM89.2188 512.438V513.453H76.5625V512.438H89.2188ZM83.4844 505.344V506.734H87.9375V507.734H83.5625C83.6641 509.273 85.8672 510.336 88.4688 510.578L88.0938 511.531C85.7891 511.289 83.7344 510.461 82.8906 509.062C82.0391 510.461 79.9766 511.289 77.6875 511.531L77.2969 510.578C79.8984 510.336 82.1016 509.273 82.2188 507.734H77.875V506.734H82.2812V505.344H83.4844ZM82.8906 514.641C85.9062 514.641 87.6562 515.453 87.6719 516.938C87.6562 518.438 85.9062 519.234 82.8906 519.234C79.875 519.234 78.0938 518.438 78.0938 516.938C78.0938 515.453 79.875 514.641 82.8906 514.641ZM82.8906 515.562C80.6406 515.562 79.3281 516.062 79.3438 516.938C79.3281 517.812 80.6406 518.297 82.8906 518.281C85.1094 518.297 86.4375 517.812 86.4375 516.938C86.4375 516.062 85.1094 515.562 82.8906 515.562Z" fill="black"/>
<mask id="path-30-inside-10_5286_121753" fill="white">
<path d="M0 542H152V602H0V542Z"/>
</mask>
<path d="M0 542H152V602H0V542Z" fill="#F5F5F5"/>
<path d="M152 602V603H153V602H152ZM151 542V602H153V542H151ZM152 601H0V603H152V601Z" fill="#E3E3E3" mask="url(#path-30-inside-10_5286_121753)"/>
<path d="M60.7891 569.641C60.7891 572 62.5078 574.391 64.5547 575.281L63.8672 576.25C62.2422 575.508 60.8359 573.906 60.1953 571.984C59.5391 574.023 58.1406 575.797 56.5547 576.594L55.8203 575.625C57.8047 574.672 59.5391 572.047 59.5547 569.641V567.828H56.2734V566.812H64.1016V567.828H60.7891V569.641ZM67.2734 565.375V579.266H66.0391V565.375H67.2734ZM80.3984 565.375V571.109H82.7266V572.125H80.3984V579.266H79.1797V565.375H80.3984ZM77.8359 567.609V568.625H69.5703V567.609H73.1484V565.547H74.3672V567.609H77.8359ZM73.7734 569.781C75.7422 569.781 77.1641 571.094 77.1797 572.969C77.1641 574.844 75.7422 576.156 73.7734 576.156C71.7891 576.156 70.3516 574.844 70.3672 572.969C70.3516 571.094 71.7891 569.781 73.7734 569.781ZM73.7734 570.812C72.4766 570.812 71.5234 571.719 71.5391 572.969C71.5234 574.234 72.4766 575.125 73.7734 575.109C75.0547 575.125 75.9922 574.234 76.0078 572.969C75.9922 571.719 75.0547 570.812 73.7734 570.812ZM96.1328 572.438V573.453H83.4766V572.438H96.1328ZM90.3984 565.344V566.734H94.8516V567.734H90.4766C90.5781 569.273 92.7812 570.336 95.3828 570.578L95.0078 571.531C92.7031 571.289 90.6484 570.461 89.8047 569.062C88.9531 570.461 86.8906 571.289 84.6016 571.531L84.2109 570.578C86.8125 570.336 89.0156 569.273 89.1328 567.734H84.7891V566.734H89.1953V565.344H90.3984ZM89.8047 574.641C92.8203 574.641 94.5703 575.453 94.5859 576.938C94.5703 578.438 92.8203 579.234 89.8047 579.234C86.7891 579.234 85.0078 578.438 85.0078 576.938C85.0078 575.453 86.7891 574.641 89.8047 574.641ZM89.8047 575.562C87.5547 575.562 86.2422 576.062 86.2578 576.938C86.2422 577.812 87.5547 578.297 89.8047 578.281C92.0234 578.297 93.3516 577.812 93.3516 576.938C93.3516 576.062 92.0234 575.562 89.8047 575.562Z" fill="black"/>
<mask id="path-33-inside-11_5286_121753" fill="white">
<path d="M0 602H152V662H0V602Z"/>
</mask>
<path d="M0 602H152V662H0V602Z" fill="#F5F5F5"/>
<path d="M152 662V663H153V662H152ZM151 602V662H153V602H151ZM152 661H0V663H152V661Z" fill="#E3E3E3" mask="url(#path-33-inside-11_5286_121753)"/>
<path d="M42.0938 627.344C42.0781 629.203 44.5625 630.781 46.9844 631.141L46.5312 632.109C44.3594 631.742 42.25 630.586 41.4062 628.906C40.5625 630.586 38.4453 631.742 36.3125 632.109L35.8281 631.141C38.2344 630.781 40.7188 629.203 40.7188 627.344V627.25H36.2656V626.25H46.5312V627.25H42.0938V627.344ZM47.7344 633.297V634.312H41.9844V639.266H40.7812V634.312H35.0781V633.297H47.7344ZM53.5312 629.906C53.5312 632.125 54.9844 634.406 57 635.375L56.2812 636.328C54.75 635.578 53.5391 634.062 52.9688 632.266C52.3594 634.195 51.0703 635.812 49.4844 636.578L48.7812 635.625C50.8125 634.672 52.3281 632.297 52.3438 629.906V628.797H49.1562V627.797H52.3281V625.641H53.5625V627.797H56.6875V628.797H53.5312V629.906ZM59.6562 625.375V631.078H61.9844V632.125H59.6562V639.266H58.4375V625.375H59.6562ZM73.4844 625.375V631.031H75.7344V632.062H73.4844V639.266H72.2656V625.375H73.4844ZM69.8906 626.875C69.8906 630.812 68.0469 634.391 63.5156 636.625L62.8281 635.656C66.4219 633.867 68.375 631.195 68.6562 627.906H63.4688V626.875H69.8906ZM87.7812 629.266V630.281H78.2969V625.656H79.5156V629.266H87.7812ZM89.2344 631.906V632.922H76.5625V631.906H89.2344ZM82.8906 634.172C85.875 634.172 87.6562 635.078 87.6719 636.688C87.6562 638.297 85.875 639.203 82.8906 639.203C79.8906 639.203 78.0938 638.297 78.0938 636.688C78.0938 635.078 79.8906 634.172 82.8906 634.172ZM82.8906 635.141C80.6562 635.156 79.3281 635.703 79.3438 636.688C79.3281 637.656 80.6562 638.25 82.8906 638.25C85.0938 638.25 86.4375 637.656 86.4375 636.688C86.4375 635.703 85.0938 635.156 82.8906 635.141ZM94.125 626.453C95.3984 626.461 96.4297 627.203 97.0312 628.484H100.688V625.375H101.906V639.297H100.688V633.906H97.125C96.5391 635.312 95.4688 636.125 94.125 636.125C92.0781 636.125 90.6406 634.25 90.6406 631.297C90.6406 628.344 92.0781 626.469 94.125 626.453ZM94.125 627.547C92.75 627.562 91.8125 629.031 91.8125 631.297C91.8125 633.562 92.75 635.031 94.125 635.031C95.4844 635.031 96.4375 633.562 96.4375 631.297C96.4375 629.031 95.4844 627.562 94.125 627.547ZM97.3906 629.516C97.5156 630.055 97.5938 630.648 97.5938 631.297C97.5938 631.867 97.5312 632.406 97.4375 632.891H100.688V629.516H97.3906ZM116.922 633.625V634.625H111.125V639.266H109.922V634.625H104.203V633.625H116.922ZM107.047 625.953V627.875H114.047V625.953H115.281V631.938H105.828V625.953H107.047ZM107.047 630.938H114.047V628.875H107.047V630.938Z" fill="black"/>
<mask id="path-36-inside-12_5286_121753" fill="white">
<path d="M0 662H152V722H0V662Z"/>
</mask>
<path d="M0 662H152V722H0V662Z" fill="#F5F5F5"/>
<path d="M152 722V723H153V722H152ZM151 662V722H153V662H151ZM152 721H0V723H152V721Z" fill="#E3E3E3" mask="url(#path-36-inside-12_5286_121753)"/>
<path d="M52.6406 692.578V693.594H39.9844V692.578H45.7031V690.844H46.9062V692.578H52.6406ZM46.9062 685.344V686.734H51.3594V687.734H46.9844C47.0859 689.273 49.2891 690.336 51.8906 690.578L51.5156 691.531C49.2109 691.289 47.1562 690.461 46.3125 689.062C45.4609 690.461 43.3984 691.289 41.1094 691.531L40.7188 690.578C43.3203 690.336 45.5234 689.273 45.6406 687.734H41.2969V686.734H45.7031V685.344H46.9062ZM46.3125 694.641C49.3281 694.641 51.0781 695.453 51.0938 696.938C51.0781 698.438 49.3281 699.234 46.3125 699.234C43.2969 699.234 41.5156 698.438 41.5156 696.938C41.5156 695.453 43.2969 694.641 46.3125 694.641ZM46.3125 695.562C44.0625 695.562 42.75 696.062 42.7656 696.938C42.75 697.812 44.0625 698.297 46.3125 698.281C48.5312 698.297 49.8594 697.812 49.8594 696.938C49.8594 696.062 48.5312 695.562 46.3125 695.562ZM64.8438 687.344C64.8281 689.203 67.3125 690.781 69.7344 691.141L69.2812 692.109C67.1094 691.742 65 690.586 64.1562 688.906C63.3125 690.586 61.1953 691.742 59.0625 692.109L58.5781 691.141C60.9844 690.781 63.4688 689.203 63.4688 687.344V687.25H59.0156V686.25H69.2812V687.25H64.8438V687.344ZM70.4844 693.297V694.312H64.7344V699.266H63.5312V694.312H57.8281V693.297H70.4844ZM76.2812 689.906C76.2812 692.125 77.7344 694.406 79.75 695.375L79.0312 696.328C77.5 695.578 76.2891 694.062 75.7188 692.266C75.1094 694.195 73.8203 695.812 72.2344 696.578L71.5312 695.625C73.5625 694.672 75.0781 692.297 75.0938 689.906V688.797H71.9062V687.797H75.0781V685.641H76.3125V687.797H79.4375V688.797H76.2812V689.906ZM82.4062 685.375V691.078H84.7344V692.125H82.4062V699.266H81.1875V685.375H82.4062ZM97.3594 685.375V699.266H96.1875V691.984H94.1406V698.547H93.0156V685.688H94.1406V690.969H96.1875V685.375H97.3594ZM91.2031 687.078V688.094H87.2188V694.781C89.1328 694.773 90.4609 694.703 92 694.391L92.1094 695.422C90.4375 695.766 89.0156 695.828 86.8906 695.828H86V687.078H91.2031ZM106.281 686.672C106.281 688.625 108.844 690.328 111.344 690.672L110.844 691.672C108.688 691.312 106.555 690.117 105.656 688.406C104.766 690.125 102.625 691.312 100.469 691.672L99.9688 690.672C102.469 690.328 105.016 688.656 105.016 686.672V685.875H106.281V686.672ZM111.969 693.203V694.234H106.219V699.266H105.016V694.234H99.3125V693.203H111.969Z" fill="black"/>
<mask id="path-39-inside-13_5286_121753" fill="white">
<path d="M0 722H152V782H0V722Z"/>
</mask>
<path d="M0 722H152V782H0V722Z" fill="#F5F5F5"/>
<path d="M152 782V783H153V782H152ZM151 722V782H153V722H151ZM152 781H0V783H152V781Z" fill="#E3E3E3" mask="url(#path-39-inside-13_5286_121753)"/>
<path d="M53.5078 745.391V755.656H52.2734V750.703H49.1953V749.672H52.2734V745.391H53.5078ZM49.2578 746.453C49.2422 750.016 46.6953 752.734 42.7422 754.031L42.2109 753.047C45.4141 751.992 47.6406 750 47.9141 747.484H42.9141V746.453H49.2578ZM53.8672 757.938V758.969H44.6641V754.609H45.9141V757.938H53.8672ZM68.4766 752.375V753.375H62.7422V754.969H66.9141V759.219H65.6797V755.969H57.2266V754.969H61.5391V753.375H55.8203V752.375H68.4766ZM62.7422 745.312V746.75H67.1953V747.734H62.8203C62.9062 749.312 65.1016 750.398 67.7266 750.656L67.3203 751.594C65.0312 751.344 62.9844 750.508 62.1484 749.094C61.3047 750.508 59.2578 751.344 56.9766 751.594L56.5703 750.656C59.1797 750.398 61.375 749.312 61.4766 747.734H57.1328V746.75H61.5391V745.312H62.7422ZM82.3047 751.25V752.25H76.5703V753.625H80.6797V756.734H72.4297V758.141H81.1016V759.109H71.2109V755.812H79.4766V754.578H71.1797V753.625H75.3516V752.25H69.6484V751.25H82.3047ZM80.6641 745.844V750.078H71.2891V745.844H80.6641ZM72.5078 746.828V749.094H79.4453V746.828H72.5078ZM87.4141 745.891C89.4922 745.906 91.0078 747.156 91.0078 748.969C91.0078 750.781 89.4922 752.031 87.4141 752.031C85.3047 752.031 83.8047 750.781 83.8047 748.969C83.8047 747.156 85.3047 745.906 87.4141 745.891ZM87.4141 746.922C86.0234 746.922 84.9922 747.766 85.0078 748.969C84.9922 750.188 86.0234 751.031 87.4141 751.031C88.7891 751.031 89.8203 750.188 89.8203 748.969C89.8203 747.766 88.7891 746.922 87.4141 746.922ZM94.9453 745.375V752.516H93.7266V745.375H94.9453ZM94.9453 753.188V756.531H87.1484V758.094H95.4453V759.078H85.9453V755.609H93.7266V754.172H85.9141V753.188H94.9453ZM102.008 749.641C101.992 751.875 103.602 754.328 105.617 755.281L104.914 756.25C103.352 755.492 102.031 753.836 101.414 751.953C100.773 754 99.375 755.797 97.8203 756.594L97.0703 755.625C99.0703 754.656 100.789 752.016 100.805 749.641V747.828H97.5703V746.812H105.133V747.828H102.008V749.641ZM108.055 745.375V751H110.383V752.047H108.055V759.266H106.836V745.375H108.055Z" fill="black"/>
<mask id="path-42-inside-14_5286_121753" fill="white">
<path d="M0 782H152V842H0V782Z"/>
</mask>
<path d="M0 782H152V842H0V782Z" fill="#F5F5F5"/>
<path d="M152 842V843H153V842H152ZM151 782V842H153V782H151ZM152 841H0V843H152V841Z" fill="#E3E3E3" mask="url(#path-42-inside-14_5286_121753)"/>
<path d="M67.3359 805.391V815.656H66.1016V810.703H63.0234V809.672H66.1016V805.391H67.3359ZM63.0859 806.453C63.0703 810.016 60.5234 812.734 56.5703 814.031L56.0391 813.047C59.2422 811.992 61.4688 810 61.7422 807.484H56.7422V806.453H63.0859ZM67.6953 817.938V818.969H58.4922V814.609H59.7422V817.938H67.6953ZM82.3047 811.25V812.25H76.5703V813.625H80.6797V816.734H72.4297V818.141H81.1016V819.109H71.2109V815.812H79.4766V814.578H71.1797V813.625H75.3516V812.25H69.6484V811.25H82.3047ZM80.6641 805.844V810.078H71.2891V805.844H80.6641ZM72.5078 806.828V809.094H79.4453V806.828H72.5078ZM94.9922 805.375V813.609H93.7578V811.422H90.5078V812.609H84.1328V806.438H90.5078V807.641H93.7578V805.375H94.9922ZM85.3516 807.438V811.609H89.3047V807.438H85.3516ZM90.3828 814.016C93.2734 814.016 95.0391 814.969 95.0391 816.641C95.0391 818.297 93.2734 819.234 90.3828 819.234C87.4922 819.234 85.7266 818.297 85.7266 816.641C85.7266 814.969 87.4922 814.016 90.3828 814.016ZM90.3828 814.969C88.2578 814.984 86.9297 815.594 86.9453 816.641C86.9297 817.641 88.2578 818.266 90.3828 818.266C92.5078 818.266 93.8203 817.641 93.8203 816.641C93.8203 815.594 92.5078 814.984 90.3828 814.969ZM90.5078 810.391H93.7578V808.656H90.5078V810.391Z" fill="black"/>
<mask id="path-45-inside-15_5286_121753" fill="white">
<path d="M0 842H152V902H0V842Z"/>
</mask>
<path d="M0 842H152V902H0V842Z" fill="#F5F5F5"/>
<path d="M152 902V903H153V902H152ZM151 842V902H153V842H151ZM152 901H0V903H152V901Z" fill="#E3E3E3" mask="url(#path-45-inside-15_5286_121753)"/>
<path d="M51.5 865.391V875.656H50.2656V870.703H47.1875V869.672H50.2656V865.391H51.5ZM47.25 866.453C47.2344 870.016 44.6875 872.734 40.7344 874.031L40.2031 873.047C43.4062 871.992 45.6328 870 45.9062 867.484H40.9062V866.453H47.25ZM51.8594 877.938V878.969H42.6562V874.609H43.9062V877.938H51.8594ZM66.4688 871.25V872.25H60.7344V873.625H64.8438V876.734H56.5938V878.141H65.2656V879.109H55.375V875.812H63.6406V874.578H55.3438V873.625H59.5156V872.25H53.8125V871.25H66.4688ZM64.8281 865.844V870.078H55.4531V865.844H64.8281ZM56.6719 866.828V869.094H63.6094V866.828H56.6719ZM72.1875 866.391C74.375 866.391 75.9219 867.719 75.9219 869.656C75.9219 871.594 74.375 872.922 72.1875 872.922C70 872.922 68.4219 871.594 68.4375 869.656C68.4219 867.719 70 866.391 72.1875 866.391ZM72.1875 867.469C70.7031 867.469 69.625 868.359 69.6406 869.656C69.625 870.953 70.7031 871.844 72.1875 871.844C73.6562 871.844 74.7188 870.953 74.7188 869.656C74.7188 868.359 73.6562 867.469 72.1875 867.469ZM79.0312 865.375V879.297H77.8125V865.375H79.0312ZM67.7188 875.188C70.2812 875.188 73.8125 875.172 76.8906 874.719L76.9844 875.625C73.8125 876.219 70.3906 876.234 67.8906 876.234L67.7188 875.188ZM98.1562 872.25V873.234H85.4844V872.25H91.2188V870.625H87.0938V866.031H96.5781V867.016H88.2969V869.625H96.6719V870.625H92.4062V872.25H98.1562ZM91.8125 874.25C94.7969 874.25 96.5781 875.156 96.5938 876.75C96.5781 878.359 94.7969 879.25 91.8125 879.266C88.8125 879.25 87.0156 878.359 87.0156 876.75C87.0156 875.156 88.8125 874.25 91.8125 874.25ZM91.8125 875.219C89.5781 875.219 88.25 875.797 88.2656 876.75C88.25 877.719 89.5781 878.281 91.8125 878.281C94.0156 878.281 95.3594 877.719 95.3594 876.75C95.3594 875.797 94.0156 875.219 91.8125 875.219ZM110.828 865.375V873.609H109.594V871.422H106.344V872.609H99.9688V866.438H106.344V867.641H109.594V865.375H110.828ZM101.188 867.438V871.609H105.141V867.438H101.188ZM106.219 874.016C109.109 874.016 110.875 874.969 110.875 876.641C110.875 878.297 109.109 879.234 106.219 879.234C103.328 879.234 101.562 878.297 101.562 876.641C101.562 874.969 103.328 874.016 106.219 874.016ZM106.219 874.969C104.094 874.984 102.766 875.594 102.781 876.641C102.766 877.641 104.094 878.266 106.219 878.266C108.344 878.266 109.656 877.641 109.656 876.641C109.656 875.594 108.344 874.984 106.219 874.969ZM106.344 870.391H109.594V868.656H106.344V870.391Z" fill="black"/>
<mask id="path-48-inside-16_5286_121753" fill="white">
<path d="M0 902H152V962H0V902Z"/>
</mask>
<path d="M0 902H152V962H0V902Z" fill="#F5F5F5"/>
<path d="M152 962V963H153V962H152ZM151 902V962H153V902H151ZM152 961H0V963H152V961Z" fill="#E3E3E3" mask="url(#path-48-inside-16_5286_121753)"/>
<path d="M60.4219 925.391V935.656H59.1875V930.703H56.1094V929.672H59.1875V925.391H60.4219ZM56.1719 926.453C56.1562 930.016 53.6094 932.734 49.6562 934.031L49.125 933.047C52.3281 931.992 54.5547 930 54.8281 927.484H49.8281V926.453H56.1719ZM60.7812 937.938V938.969H51.5781V934.609H52.8281V937.938H60.7812ZM75.3906 932.375V933.375H69.6562V934.969H73.8281V939.219H72.5938V935.969H64.1406V934.969H68.4531V933.375H62.7344V932.375H75.3906ZM69.6562 925.312V926.75H74.1094V927.734H69.7344C69.8203 929.312 72.0156 930.398 74.6406 930.656L74.2344 931.594C71.9453 931.344 69.8984 930.508 69.0625 929.094C68.2188 930.508 66.1719 931.344 63.8906 931.594L63.4844 930.656C66.0938 930.398 68.2891 929.312 68.3906 927.734H64.0469V926.75H68.4531V925.312H69.6562ZM87.5469 926.281V927.5C87.5469 928.82 87.5469 930.25 87.1562 932.25H89.2188V933.266H83.4844V939.297H82.25V933.266H76.5625V932.25H85.9062C86.3281 930.25 86.3281 928.789 86.3281 927.5V927.297H78.1562V926.281H87.5469ZM103.109 936.453V937.484H90.3906V936.453H96.125V933.078H97.3594V936.453H103.109ZM97.3594 928.016C97.3594 930.234 100.109 932.141 102.5 932.531L102 933.5C99.875 933.086 97.6328 931.734 96.75 929.797C95.8516 931.742 93.6172 933.125 91.5312 933.562L91.0156 932.578C93.3594 932.172 96.0938 930.234 96.0938 928.016V927.672H91.4375V926.641H102.016V927.672H97.3594V928.016Z" fill="black"/>
<mask id="path-51-inside-17_5286_121753" fill="white">
<path d="M0 962H152V1022H0V962Z"/>
</mask>
<path d="M0 962H152V1022H0V962Z" fill="#F5F5F5"/>
<path d="M152 1022V1023H153V1022H152ZM151 962V1022H153V962H151ZM152 1021H0V1023H152V1021Z" fill="#E3E3E3" mask="url(#path-51-inside-17_5286_121753)"/>
<path d="M59.5547 992.578V993.594H46.8984V992.578H52.6172V990.844H53.8203V992.578H59.5547ZM53.8203 985.344V986.734H58.2734V987.734H53.8984C54 989.273 56.2031 990.336 58.8047 990.578L58.4297 991.531C56.125 991.289 54.0703 990.461 53.2266 989.062C52.375 990.461 50.3125 991.289 48.0234 991.531L47.6328 990.578C50.2344 990.336 52.4375 989.273 52.5547 987.734H48.2109V986.734H52.6172V985.344H53.8203ZM53.2266 994.641C56.2422 994.641 57.9922 995.453 58.0078 996.938C57.9922 998.438 56.2422 999.234 53.2266 999.234C50.2109 999.234 48.4297 998.438 48.4297 996.938C48.4297 995.453 50.2109 994.641 53.2266 994.641ZM53.2266 995.562C50.9766 995.562 49.6641 996.062 49.6797 996.938C49.6641 997.812 50.9766 998.297 53.2266 998.281C55.4453 998.297 56.7734 997.812 56.7734 996.938C56.7734 996.062 55.4453 995.562 53.2266 995.562ZM68.8672 989.328C68.8672 991.531 69.9453 993.922 71.7891 995.016L71.0859 995.969C69.75 995.156 68.7891 993.672 68.3047 991.984C67.7891 993.828 66.7578 995.414 65.3672 996.266L64.5859 995.344C66.5078 994.219 67.6797 991.75 67.6797 989.375V986.688H68.8672V989.328ZM76.6484 985.375V999.266H75.4609V985.375H76.6484ZM73.7734 985.672V998.562H72.6172V991.406H70.2578V990.359H72.6172V985.672H73.7734ZM90.4453 985.375V999.266H89.2734V991.984H87.2266V998.547H86.1016V985.688H87.2266V990.969H89.2734V985.375H90.4453ZM84.2891 987.078V988.094H80.3047V994.781C82.2188 994.773 83.5469 994.703 85.0859 994.391L85.1953 995.422C83.5234 995.766 82.1016 995.828 79.9766 995.828H79.0859V987.078H84.2891ZM99.3672 986.672C99.3672 988.625 101.93 990.328 104.43 990.672L103.93 991.672C101.773 991.312 99.6406 990.117 98.7422 988.406C97.8516 990.125 95.7109 991.312 93.5547 991.672L93.0547 990.672C95.5547 990.328 98.1016 988.656 98.1016 986.672V985.875H99.3672V986.672ZM105.055 993.203V994.234H99.3047V999.266H98.1016V994.234H92.3984V993.203H105.055Z" fill="black"/>
<mask id="path-54-inside-18_5286_121753" fill="white">
<path d="M152 2H352V62H152V2Z"/>
</mask>
<path d="M152 2H352V62H152V2Z" fill="#F5F5F5"/>
<path d="M352 62V63H353V62H352ZM351 2V62H353V2H351ZM352 61H152V63H352V61Z" fill="#E3E3E3" mask="url(#path-54-inside-18_5286_121753)"/>
<path d="M241.672 38H240.203L244.344 26.6875H245.828L249.969 38H248.484L247.359 34.8125H242.812L241.672 38ZM243.234 33.5781H246.922L245.125 28.5156H245.031L243.234 33.5781ZM255.469 29.1094C255.469 31.5625 257.094 34.0781 259.062 35.0469L258.312 36.0312C256.781 35.2266 255.5 33.5859 254.891 31.6562C254.266 33.7109 252.953 35.4609 251.391 36.2969L250.609 35.3125C252.641 34.3125 254.25 31.6406 254.266 29.1094V26.5781H255.469V29.1094ZM261.562 25.375V31.0156H263.891V32.0781H261.562V39.2656H260.344V25.375H261.562Z" fill="black"/>
<mask id="path-57-inside-19_5286_121753" fill="white">
<path d="M152 62H352V122H152V62Z"/>
</mask>
<path d="M152 62H352V122H152V62Z" fill="#FFF1F0"/>
<path d="M352 122V123H353V122H352ZM351 62V122H353V62H351ZM352 121H152V123H352V121Z" fill="#E3E3E3" mask="url(#path-57-inside-19_5286_121753)"/>
<rect x="259.615" y="83" width="1.95814" height="23.4977" rx="0.979071" transform="rotate(45 259.615 83)" fill="#FD1202"/>
<rect width="1.95814" height="23.4977" rx="0.979071" transform="matrix(-0.707107 0.707107 0.707107 0.707107 244.385 83)" fill="#FD1202"/>
<mask id="path-61-inside-20_5286_121753" fill="white">
<path d="M152 122H352V182H152V122Z"/>
</mask>
<path d="M152 122H352V182H152V122Z" fill="white"/>
<path d="M352 182V183H353V182H352ZM351 122V182H353V122H351ZM352 181H152V183H352V181Z" fill="#E3E3E3" mask="url(#path-61-inside-20_5286_121753)"/>
<circle cx="252" cy="152" r="8" stroke="#4D4D4D" stroke-width="2"/>
<mask id="path-64-inside-21_5286_121753" fill="white">
<path d="M152 182H352V242H152V182Z"/>
</mask>
<path d="M152 182H352V242H152V182Z" fill="white"/>
<path d="M352 242V243H353V242H352ZM351 182V242H353V182H351ZM352 241H152V243H352V241Z" fill="#E3E3E3" mask="url(#path-64-inside-21_5286_121753)"/>
<circle cx="252" cy="212" r="8" stroke="#4D4D4D" stroke-width="2"/>
<mask id="path-67-inside-22_5286_121753" fill="white">
<path d="M152 242H352V302H152V242Z"/>
</mask>
<path d="M152 242H352V302H152V242Z" fill="white"/>
<path d="M352 302V303H353V302H352ZM351 242V302H353V242H351ZM352 301H152V303H352V301Z" fill="#E3E3E3" mask="url(#path-67-inside-22_5286_121753)"/>
<circle cx="252" cy="272" r="8" stroke="#4D4D4D" stroke-width="2"/>
<mask id="path-70-inside-23_5286_121753" fill="white">
<path d="M152 302H352V362H152V302Z"/>
</mask>
<path d="M152 302H352V362H152V302Z" fill="white"/>
<path d="M352 362V363H353V362H352ZM351 302V362H353V302H351ZM352 361H152V363H352V361Z" fill="#E3E3E3" mask="url(#path-70-inside-23_5286_121753)"/>
<circle cx="252" cy="332" r="8" stroke="#4D4D4D" stroke-width="2"/>
<mask id="path-73-inside-24_5286_121753" fill="white">
<path d="M152 362H352V422H152V362Z"/>
</mask>
<path d="M152 362H352V422H152V362Z" fill="white"/>
<path d="M352 422V423H353V422H352ZM351 362V422H353V362H351ZM352 421H152V423H352V421Z" fill="#E3E3E3" mask="url(#path-73-inside-24_5286_121753)"/>
<circle cx="252" cy="392" r="8" stroke="#4D4D4D" stroke-width="2"/>
<mask id="path-76-inside-25_5286_121753" fill="white">
<path d="M152 422H352V482H152V422Z"/>
</mask>
<path d="M152 422H352V482H152V422Z" fill="#FFF1F0"/>
<path d="M352 482V483H353V482H352ZM351 422V482H353V422H351ZM352 481H152V483H352V481Z" fill="#E3E3E3" mask="url(#path-76-inside-25_5286_121753)"/>
<rect x="259.615" y="443" width="1.95814" height="23.4977" rx="0.979071" transform="rotate(45 259.615 443)" fill="#FD1202"/>
<rect width="1.95814" height="23.4977" rx="0.979071" transform="matrix(-0.707107 0.707107 0.707107 0.707107 244.385 443)" fill="#FD1202"/>
<mask id="path-80-inside-26_5286_121753" fill="white">
<path d="M152 482H352V542H152V482Z"/>
</mask>
<path d="M152 482H352V542H152V482Z" fill="#FFF1F0"/>
<path d="M352 542V543H353V542H352ZM351 482V542H353V482H351ZM352 541H152V543H352V541Z" fill="#E3E3E3" mask="url(#path-80-inside-26_5286_121753)"/>
<rect x="259.615" y="503" width="1.95814" height="23.4977" rx="0.979071" transform="rotate(45 259.615 503)" fill="#FD1202"/>
<rect width="1.95814" height="23.4977" rx="0.979071" transform="matrix(-0.707107 0.707107 0.707107 0.707107 244.385 503)" fill="#FD1202"/>
<mask id="path-84-inside-27_5286_121753" fill="white">
<path d="M152 542H352V602H152V542Z"/>
</mask>
<path d="M152 542H352V602H152V542Z" fill="#FFF1F0"/>
<path d="M352 602V603H353V602H352ZM351 542V602H353V542H351ZM352 601H152V603H352V601Z" fill="#E3E3E3" mask="url(#path-84-inside-27_5286_121753)"/>
<rect x="259.615" y="563" width="1.95814" height="23.4977" rx="0.979071" transform="rotate(45 259.615 563)" fill="#FD1202"/>
<rect width="1.95814" height="23.4977" rx="0.979071" transform="matrix(-0.707107 0.707107 0.707107 0.707107 244.385 563)" fill="#FD1202"/>
<mask id="path-88-inside-28_5286_121753" fill="white">
<path d="M152 602H352V662H152V602Z"/>
</mask>
<path d="M152 602H352V662H152V602Z" fill="#FFF1F0"/>
<path d="M352 662V663H353V662H352ZM351 602V662H353V602H351ZM352 661H152V663H352V661Z" fill="#E3E3E3" mask="url(#path-88-inside-28_5286_121753)"/>
<rect x="259.615" y="623" width="1.95814" height="23.4977" rx="0.979071" transform="rotate(45 259.615 623)" fill="#FD1202"/>
<rect width="1.95814" height="23.4977" rx="0.979071" transform="matrix(-0.707107 0.707107 0.707107 0.707107 244.385 623)" fill="#FD1202"/>
<mask id="path-92-inside-29_5286_121753" fill="white">
<path d="M152 662H352V722H152V662Z"/>
</mask>
<path d="M152 662H352V722H152V662Z" fill="white"/>
<path d="M352 722V723H353V722H352ZM351 662V722H353V662H351ZM352 721H152V723H352V721Z" fill="#E3E3E3" mask="url(#path-92-inside-29_5286_121753)"/>
<circle cx="252" cy="692" r="8" stroke="#4D4D4D" stroke-width="2"/>
<mask id="path-95-inside-30_5286_121753" fill="white">
<path d="M152 722H352V782H152V722Z"/>
</mask>
<path d="M152 722H352V782H152V722Z" fill="white"/>
<path d="M352 782V783H353V782H352ZM351 722V782H353V722H351ZM352 781H152V783H352V781Z" fill="#E3E3E3" mask="url(#path-95-inside-30_5286_121753)"/>
<circle cx="252" cy="752" r="8" stroke="#4D4D4D" stroke-width="2"/>
<mask id="path-98-inside-31_5286_121753" fill="white">
<path d="M152 782H352V842H152V782Z"/>
</mask>
<path d="M152 782H352V842H152V782Z" fill="#FFF1F0"/>
<path d="M352 842V843H353V842H352ZM351 782V842H353V782H351ZM352 841H152V843H352V841Z" fill="#E3E3E3" mask="url(#path-98-inside-31_5286_121753)"/>
<rect x="259.615" y="803" width="1.95814" height="23.4977" rx="0.979071" transform="rotate(45 259.615 803)" fill="#FD1202"/>
<rect width="1.95814" height="23.4977" rx="0.979071" transform="matrix(-0.707107 0.707107 0.707107 0.707107 244.385 803)" fill="#FD1202"/>
<mask id="path-102-inside-32_5286_121753" fill="white">
<path d="M152 842H352V902H152V842Z"/>
</mask>
<path d="M152 842H352V902H152V842Z" fill="#FFF1F0"/>
<path d="M352 902V903H353V902H352ZM351 842V902H353V842H351ZM352 901H152V903H352V901Z" fill="#E3E3E3" mask="url(#path-102-inside-32_5286_121753)"/>
<rect x="259.615" y="863" width="1.95814" height="23.4977" rx="0.979071" transform="rotate(45 259.615 863)" fill="#FD1202"/>
<rect width="1.95814" height="23.4977" rx="0.979071" transform="matrix(-0.707107 0.707107 0.707107 0.707107 244.385 863)" fill="#FD1202"/>
<mask id="path-106-inside-33_5286_121753" fill="white">
<path d="M152 902H352V962H152V902Z"/>
</mask>
<path d="M152 902H352V962H152V902Z" fill="#FFF1F0"/>
<path d="M352 962V963H353V962H352ZM351 902V962H353V902H351ZM352 961H152V963H352V961Z" fill="#E3E3E3" mask="url(#path-106-inside-33_5286_121753)"/>
<rect x="259.615" y="923" width="1.95814" height="23.4977" rx="0.979071" transform="rotate(45 259.615 923)" fill="#FD1202"/>
<rect width="1.95814" height="23.4977" rx="0.979071" transform="matrix(-0.707107 0.707107 0.707107 0.707107 244.385 923)" fill="#FD1202"/>
<mask id="path-110-inside-34_5286_121753" fill="white">
<path d="M152 962H352V1022H152V962Z"/>
</mask>
<path d="M152 962H352V1022H152V962Z" fill="#FFF1F0"/>
<path d="M352 1022V1023H353V1022H352ZM351 962V1022H353V962H351ZM352 1021H152V1023H352V1021Z" fill="#E3E3E3" mask="url(#path-110-inside-34_5286_121753)"/>
<rect x="259.615" y="983" width="1.95814" height="23.4977" rx="0.979071" transform="rotate(45 259.615 983)" fill="#FD1202"/>
<rect width="1.95814" height="23.4977" rx="0.979071" transform="matrix(-0.707107 0.707107 0.707107 0.707107 244.385 983)" fill="#FD1202"/>
<mask id="path-114-inside-35_5286_121753" fill="white">
<path d="M352 2H552V62H352V2Z"/>
</mask>
<path d="M352 2H552V62H352V2Z" fill="#F5F5F5"/>
<path d="M552 62V63H553V62H552ZM551 2V62H553V2H551ZM552 61H352V63H552V61Z" fill="#E3E3E3" mask="url(#path-114-inside-35_5286_121753)"/>
<path d="M441.383 38V26.6875H445.352C447.727 26.6875 448.836 28.0156 448.836 29.6875C448.836 31.1406 447.977 31.7969 446.992 32.0625V32.1719C448.039 32.2344 449.289 33.2031 449.289 35C449.289 36.7031 448.164 38 445.492 38H441.383ZM445.477 36.75C447.242 36.75 447.93 35.9688 447.93 34.9844C447.93 33.8281 447.008 32.8594 445.555 32.8594H442.789V36.75H445.477ZM445.305 31.6406C446.523 31.6406 447.492 30.8906 447.492 29.7031C447.492 28.7188 446.836 27.9375 445.352 27.9375H442.789V31.6406H445.305ZM455.258 29.1094C455.258 31.5625 456.883 34.0781 458.852 35.0469L458.102 36.0312C456.57 35.2266 455.289 33.5859 454.68 31.6562C454.055 33.7109 452.742 35.4609 451.18 36.2969L450.398 35.3125C452.43 34.3125 454.039 31.6406 454.055 29.1094V26.5781H455.258V29.1094ZM461.352 25.375V31.0156H463.68V32.0781H461.352V39.2656H460.133V25.375H461.352Z" fill="black"/>
<mask id="path-117-inside-36_5286_121753" fill="white">
<path d="M352 62H552V122H352V62Z"/>
</mask>
<path d="M352 62H552V122H352V62Z" fill="#FFF1F0"/>
<path d="M552 122V123H553V122H552ZM551 62V122H553V62H551ZM552 121H352V123H552V121Z" fill="#E3E3E3" mask="url(#path-117-inside-36_5286_121753)"/>
<rect x="459.615" y="83" width="1.95814" height="23.4977" rx="0.979071" transform="rotate(45 459.615 83)" fill="#FD1202"/>
<rect width="1.95814" height="23.4977" rx="0.979071" transform="matrix(-0.707107 0.707107 0.707107 0.707107 444.385 83)" fill="#FD1202"/>
<mask id="path-121-inside-37_5286_121753" fill="white">
<path d="M352 122H552V182H352V122Z"/>
</mask>
<path d="M352 122H552V182H352V122Z" fill="white"/>
<path d="M552 182V183H553V182H552ZM551 122V182H553V122H551ZM552 181H352V183H552V181Z" fill="#E3E3E3" mask="url(#path-121-inside-37_5286_121753)"/>
<circle cx="452" cy="152" r="8" stroke="#4D4D4D" stroke-width="2"/>
<mask id="path-124-inside-38_5286_121753" fill="white">
<path d="M352 182H552V242H352V182Z"/>
</mask>
<path d="M352 182H552V242H352V182Z" fill="white"/>
<path d="M552 242V243H553V242H552ZM551 182V242H553V182H551ZM552 241H352V243H552V241Z" fill="#E3E3E3" mask="url(#path-124-inside-38_5286_121753)"/>
<circle cx="452" cy="212" r="8" stroke="#4D4D4D" stroke-width="2"/>
<mask id="path-127-inside-39_5286_121753" fill="white">
<path d="M352 242H552V302H352V242Z"/>
</mask>
<path d="M352 242H552V302H352V242Z" fill="white"/>
<path d="M552 302V303H553V302H552ZM551 242V302H553V242H551ZM552 301H352V303H552V301Z" fill="#E3E3E3" mask="url(#path-127-inside-39_5286_121753)"/>
<circle cx="452" cy="272" r="8" stroke="#4D4D4D" stroke-width="2"/>
<mask id="path-130-inside-40_5286_121753" fill="white">
<path d="M352 302H552V362H352V302Z"/>
</mask>
<path d="M352 302H552V362H352V302Z" fill="white"/>
<path d="M552 362V363H553V362H552ZM551 302V362H553V302H551ZM552 361H352V363H552V361Z" fill="#E3E3E3" mask="url(#path-130-inside-40_5286_121753)"/>
<circle cx="452" cy="332" r="8" stroke="#4D4D4D" stroke-width="2"/>
<mask id="path-133-inside-41_5286_121753" fill="white">
<path d="M352 362H552V422H352V362Z"/>
</mask>
<path d="M352 362H552V422H352V362Z" fill="white"/>
<path d="M552 422V423H553V422H552ZM551 362V422H553V362H551ZM552 421H352V423H552V421Z" fill="#E3E3E3" mask="url(#path-133-inside-41_5286_121753)"/>
<circle cx="452" cy="392" r="8" stroke="#4D4D4D" stroke-width="2"/>
<mask id="path-136-inside-42_5286_121753" fill="white">
<path d="M352 422H552V482H352V422Z"/>
</mask>
<path d="M352 422H552V482H352V422Z" fill="white"/>
<path d="M552 482V483H553V482H552ZM551 422V482H553V422H551ZM552 481H352V483H552V481Z" fill="#E3E3E3" mask="url(#path-136-inside-42_5286_121753)"/>
<circle cx="452" cy="452" r="8" stroke="#4D4D4D" stroke-width="2"/>
<mask id="path-139-inside-43_5286_121753" fill="white">
<path d="M352 482H552V542H352V482Z"/>
</mask>
<path d="M352 482H552V542H352V482Z" fill="white"/>
<path d="M552 542V543H553V542H552ZM551 482V542H553V482H551ZM552 541H352V543H552V541Z" fill="#E3E3E3" mask="url(#path-139-inside-43_5286_121753)"/>
<circle cx="452" cy="512" r="8" stroke="#4D4D4D" stroke-width="2"/>
<mask id="path-142-inside-44_5286_121753" fill="white">
<path d="M352 542H552V602H352V542Z"/>
</mask>
<path d="M352 542H552V602H352V542Z" fill="white"/>
<path d="M552 602V603H553V602H552ZM551 542V602H553V542H551ZM552 601H352V603H552V601Z" fill="#E3E3E3" mask="url(#path-142-inside-44_5286_121753)"/>
<circle cx="452" cy="572" r="8" stroke="#4D4D4D" stroke-width="2"/>
<mask id="path-145-inside-45_5286_121753" fill="white">
<path d="M352 602H552V662H352V602Z"/>
</mask>
<path d="M352 602H552V662H352V602Z" fill="white"/>
<path d="M552 662V663H553V662H552ZM551 602V662H553V602H551ZM552 661H352V663H552V661Z" fill="#E3E3E3" mask="url(#path-145-inside-45_5286_121753)"/>
<circle cx="452" cy="632" r="8" stroke="#4D4D4D" stroke-width="2"/>
<mask id="path-148-inside-46_5286_121753" fill="white">
<path d="M352 662H552V722H352V662Z"/>
</mask>
<path d="M352 662H552V722H352V662Z" fill="white"/>
<path d="M552 722V723H553V722H552ZM551 662V722H553V662H551ZM552 721H352V723H552V721Z" fill="#E3E3E3" mask="url(#path-148-inside-46_5286_121753)"/>
<circle cx="452" cy="692" r="8" stroke="#4D4D4D" stroke-width="2"/>
<mask id="path-151-inside-47_5286_121753" fill="white">
<path d="M352 722H552V782H352V722Z"/>
</mask>
<path d="M352 722H552V782H352V722Z" fill="white"/>
<path d="M552 782V783H553V782H552ZM551 722V782H553V722H551ZM552 781H352V783H552V781Z" fill="#E3E3E3" mask="url(#path-151-inside-47_5286_121753)"/>
<circle cx="452" cy="752" r="8" stroke="#4D4D4D" stroke-width="2"/>
<mask id="path-154-inside-48_5286_121753" fill="white">
<path d="M352 782H552V842H352V782Z"/>
</mask>
<path d="M352 782H552V842H352V782Z" fill="#FFF1F0"/>
<path d="M552 842V843H553V842H552ZM551 782V842H553V782H551ZM552 841H352V843H552V841Z" fill="#E3E3E3" mask="url(#path-154-inside-48_5286_121753)"/>
<rect x="459.615" y="803" width="1.95814" height="23.4977" rx="0.979071" transform="rotate(45 459.615 803)" fill="#FD1202"/>
<rect width="1.95814" height="23.4977" rx="0.979071" transform="matrix(-0.707107 0.707107 0.707107 0.707107 444.385 803)" fill="#FD1202"/>
<mask id="path-158-inside-49_5286_121753" fill="white">
<path d="M352 842H552V902H352V842Z"/>
</mask>
<path d="M352 842H552V902H352V842Z" fill="#FFF1F0"/>
<path d="M552 902V903H553V902H552ZM551 842V902H553V842H551ZM552 901H352V903H552V901Z" fill="#E3E3E3" mask="url(#path-158-inside-49_5286_121753)"/>
<rect x="459.615" y="863" width="1.95814" height="23.4977" rx="0.979071" transform="rotate(45 459.615 863)" fill="#FD1202"/>
<rect width="1.95814" height="23.4977" rx="0.979071" transform="matrix(-0.707107 0.707107 0.707107 0.707107 444.385 863)" fill="#FD1202"/>
<mask id="path-162-inside-50_5286_121753" fill="white">
<path d="M352 902H552V962H352V902Z"/>
</mask>
<path d="M352 902H552V962H352V902Z" fill="#FFF1F0"/>
<path d="M552 962V963H553V962H552ZM551 902V962H553V902H551ZM552 961H352V963H552V961Z" fill="#E3E3E3" mask="url(#path-162-inside-50_5286_121753)"/>
<rect x="459.615" y="923" width="1.95814" height="23.4977" rx="0.979071" transform="rotate(45 459.615 923)" fill="#FD1202"/>
<rect width="1.95814" height="23.4977" rx="0.979071" transform="matrix(-0.707107 0.707107 0.707107 0.707107 444.385 923)" fill="#FD1202"/>
<mask id="path-166-inside-51_5286_121753" fill="white">
<path d="M352 962H552V1022H352V962Z"/>
</mask>
<path d="M352 962H552V1022H352V962Z" fill="#FFF1F0"/>
<path d="M552 1022V1023H553V1022H552ZM551 962V1022H553V962H551ZM552 1021H352V1023H552V1021Z" fill="#E3E3E3" mask="url(#path-166-inside-51_5286_121753)"/>
<rect x="459.615" y="983" width="1.95814" height="23.4977" rx="0.979071" transform="rotate(45 459.615 983)" fill="#FD1202"/>
<rect width="1.95814" height="23.4977" rx="0.979071" transform="matrix(-0.707107 0.707107 0.707107 0.707107 444.385 983)" fill="#FD1202"/>
<path d="M560 1C555.029 1 551 5.02944 551 10V1014C551 1018.97 555.029 1023 560 1023H744C748.971 1023 753 1018.97 753 1014V10C753 5.02944 748.971 1 744 1H560Z" stroke="#FF7B00" stroke-width="2"/>
<mask id="path-171-inside-52_5286_121753" fill="white">
<path d="M552 10C552 5.58172 555.582 2 560 2H744C748.418 2 752 5.58172 752 10V62H552V10Z"/>
</mask>
<path d="M552 10C552 5.58172 555.582 2 560 2H744C748.418 2 752 5.58172 752 10V62H552V10Z" fill="#FFF7F0"/>
<path d="M552 2H752H552ZM752 63H552V61H752V63ZM552 62V2V62ZM752 2V62V2Z" fill="#E3E3E3" mask="url(#path-171-inside-52_5286_121753)"/>
<path fill-rule="evenodd" clip-rule="evenodd" d="M644.251 24H642.649C642.492 24.0012 642.336 24.0312 642.192 24.0882C642.047 24.1451 641.916 24.228 641.805 24.332C641.695 24.436 641.608 24.5591 641.549 24.6943C641.49 24.8295 641.461 24.9742 641.462 25.12V38.8279C641.46 39.1222 641.583 39.4053 641.806 39.6151C642.028 39.8249 642.332 39.9442 642.649 39.9467H644.251C644.568 39.9438 644.871 39.8245 645.093 39.6147C645.315 39.405 645.439 39.122 645.436 38.8279V25.12C645.439 24.8257 645.316 24.5424 645.093 24.3324C644.871 24.1224 644.568 24.0028 644.251 24ZM628.239 25.344L621.32 36.6566C620.411 38.1428 621.547 40 623.364 40H633.922L631.977 36.8178H625.727L630.028 29.7825L634.33 36.8178L636.275 40H640.782L631.818 25.344C631.642 25.047 631.382 24.7994 631.068 24.627C630.753 24.4546 630.394 24.3636 630.028 24.3636C629.663 24.3636 629.304 24.4546 628.989 24.627C628.674 24.7994 628.415 25.047 628.239 25.344Z" fill="#FF7B00"/>
<path d="M663.405 24H660.136V31.7333H663.405V24ZM653.424 29.1982L657.895 31.5484L659.404 29.2966L654.855 26.9973C655.231 26.1269 655.422 25.1972 655.417 24.2596L652.148 24.0735C652.148 24.9162 651.943 25.7482 651.547 26.5067C651.183 27.2056 650.634 27.8074 649.95 28.2556C649.267 28.7038 648.472 28.9837 647.641 29.069V31.795C648.756 31.753 649.85 31.4946 650.851 31.0364C651.831 30.5879 652.706 29.9631 653.424 29.1982ZM651.877 37.0062H663.405V32.288H648.608V34.4533H660.174V35.0827H648.646V39.7997H663.579V37.6356H651.877V37.0062ZM679.19 33.7588C677.836 33.1986 676.03 32.9181 673.773 32.9173C671.516 32.9165 669.711 33.197 668.357 33.7588C667.002 34.3206 666.325 35.2182 666.325 36.4516C666.325 37.6849 667.002 38.5821 668.357 39.1431C669.711 39.7041 671.516 39.9846 673.773 39.9846C676.03 39.9846 677.836 39.7041 679.19 39.1431C680.544 38.5813 681.221 37.6841 681.221 36.4516C681.221 35.219 680.544 34.3214 679.19 33.7588ZM676.627 37.2373C675.911 37.4048 674.96 37.4882 673.773 37.4874C672.587 37.4866 671.636 37.4033 670.921 37.2373C670.204 37.0714 669.846 36.8095 669.846 36.4516C669.846 36.0936 670.207 35.8345 670.929 35.6741C671.652 35.501 672.6 35.4145 673.773 35.4145C674.947 35.4145 675.895 35.501 676.617 35.6741C677.339 35.8471 677.7 36.1063 677.7 36.4516C677.7 36.8095 677.343 37.0714 676.627 37.2373ZM671.433 29.9947L675.55 32.2702L677.083 29.9567L672.751 27.6634C672.834 27.3722 672.892 27.0754 672.925 26.7757H676.502V24.1849H665.978V26.7757H669.615C669.495 27.301 669.261 27.7981 668.928 28.237C668.578 28.6998 668.122 29.0851 667.593 29.3653C667.028 29.6656 666.395 29.8367 665.745 29.8643V32.6033C666.861 32.5859 667.956 32.3296 668.947 31.8542C669.905 31.4002 670.751 30.7671 671.433 29.9947ZM681.066 26.4237V24H677.797V32.6957H681.066V29.4021H683.001V26.4237H681.066Z" fill="#1A1A1A"/>
<mask id="path-175-inside-53_5286_121753" fill="white">
<path d="M552 62H752V122H552V62Z"/>
</mask>
<path d="M552 62H752V122H552V62Z" fill="#F0F6FF"/>
<path d="M752 121H552V123H752V121Z" fill="#E3E3E3" mask="url(#path-175-inside-53_5286_121753)"/>
<circle cx="652" cy="92" r="7.5" fill="white" stroke="#006FFF" stroke-width="3"/>
<mask id="path-178-inside-54_5286_121753" fill="white">
<path d="M552 122H752V182H552V122Z"/>
</mask>
<path d="M552 122H752V182H552V122Z" fill="white"/>
<path d="M752 181H552V183H752V181Z" fill="#E3E3E3" mask="url(#path-178-inside-54_5286_121753)"/>
<circle cx="652" cy="152" r="8" stroke="#4D4D4D" stroke-width="2"/>
<mask id="path-181-inside-55_5286_121753" fill="white">
<path d="M552 182H752V242H552V182Z"/>
</mask>
<path d="M552 182H752V242H552V182Z" fill="white"/>
<path d="M752 241H552V243H752V241Z" fill="#E3E3E3" mask="url(#path-181-inside-55_5286_121753)"/>
<circle cx="652" cy="212" r="8" stroke="#4D4D4D" stroke-width="2"/>
<mask id="path-184-inside-56_5286_121753" fill="white">
<path d="M552 242H752V302H552V242Z"/>
</mask>
<path d="M552 242H752V302H552V242Z" fill="white"/>
<path d="M752 301H552V303H752V301Z" fill="#E3E3E3" mask="url(#path-184-inside-56_5286_121753)"/>
<circle cx="652" cy="272" r="8" stroke="#4D4D4D" stroke-width="2"/>
<mask id="path-187-inside-57_5286_121753" fill="white">
<path d="M552 302H752V362H552V302Z"/>
</mask>
<path d="M552 302H752V362H552V302Z" fill="white"/>
<path d="M752 361H552V363H752V361Z" fill="#E3E3E3" mask="url(#path-187-inside-57_5286_121753)"/>
<circle cx="652" cy="332" r="8" stroke="#4D4D4D" stroke-width="2"/>
<mask id="path-190-inside-58_5286_121753" fill="white">
<path d="M552 362H752V422H552V362Z"/>
</mask>
<path d="M552 362H752V422H552V362Z" fill="white"/>
<path d="M752 421H552V423H752V421Z" fill="#E3E3E3" mask="url(#path-190-inside-58_5286_121753)"/>
<circle cx="652" cy="392" r="8" stroke="#4D4D4D" stroke-width="2"/>
<mask id="path-193-inside-59_5286_121753" fill="white">
<path d="M552 422H752V482H552V422Z"/>
</mask>
<path d="M552 422H752V482H552V422Z" fill="#F0F6FF"/>
<path d="M752 481H552V483H752V481Z" fill="#E3E3E3" mask="url(#path-193-inside-59_5286_121753)"/>
<circle cx="652" cy="452" r="7.5" fill="white" stroke="#006FFF" stroke-width="3"/>
<mask id="path-196-inside-60_5286_121753" fill="white">
<path d="M552 482H752V542H552V482Z"/>
</mask>
<path d="M552 482H752V542H552V482Z" fill="#F0F6FF"/>
<path d="M752 541H552V543H752V541Z" fill="#E3E3E3" mask="url(#path-196-inside-60_5286_121753)"/>
<circle cx="652" cy="512" r="7.5" fill="white" stroke="#006FFF" stroke-width="3"/>
<mask id="path-199-inside-61_5286_121753" fill="white">
<path d="M552 542H752V602H552V542Z"/>
</mask>
<path d="M552 542H752V602H552V542Z" fill="#F0F6FF"/>
<path d="M752 601H552V603H752V601Z" fill="#E3E3E3" mask="url(#path-199-inside-61_5286_121753)"/>
<circle cx="652" cy="572" r="7.5" fill="white" stroke="#006FFF" stroke-width="3"/>
<mask id="path-202-inside-62_5286_121753" fill="white">
<path d="M552 602H752V662H552V602Z"/>
</mask>
<path d="M552 602H752V662H552V602Z" fill="#F0F6FF"/>
<path d="M752 661H552V663H752V661Z" fill="#E3E3E3" mask="url(#path-202-inside-62_5286_121753)"/>
<circle cx="652" cy="632" r="7.5" fill="white" stroke="#006FFF" stroke-width="3"/>
<mask id="path-205-inside-63_5286_121753" fill="white">
<path d="M552 662H752V722H552V662Z"/>
</mask>
<path d="M552 662H752V722H552V662Z" fill="white"/>
<path d="M752 721H552V723H752V721Z" fill="#E3E3E3" mask="url(#path-205-inside-63_5286_121753)"/>
<circle cx="652" cy="692" r="8" stroke="#4D4D4D" stroke-width="2"/>
<mask id="path-208-inside-64_5286_121753" fill="white">
<path d="M552 722H752V782H552V722Z"/>
</mask>
<path d="M552 722H752V782H552V722Z" fill="white"/>
<path d="M752 781H552V783H752V781Z" fill="#E3E3E3" mask="url(#path-208-inside-64_5286_121753)"/>
<circle cx="652" cy="752" r="8" stroke="#4D4D4D" stroke-width="2"/>
<mask id="path-211-inside-65_5286_121753" fill="white">
<path d="M552 782H752V842H552V782Z"/>
</mask>
<path d="M552 782H752V842H552V782Z" fill="#F0F6FF"/>
<path d="M752 841H552V843H752V841Z" fill="#E3E3E3" mask="url(#path-211-inside-65_5286_121753)"/>
<circle cx="652" cy="812" r="7.5" fill="white" stroke="#006FFF" stroke-width="3"/>
<mask id="path-214-inside-66_5286_121753" fill="white">
<path d="M552 842H752V902H552V842Z"/>
</mask>
<path d="M552 842H752V902H552V842Z" fill="#F0F6FF"/>
<path d="M752 901H552V903H752V901Z" fill="#E3E3E3" mask="url(#path-214-inside-66_5286_121753)"/>
<circle cx="652" cy="872" r="7.5" fill="white" stroke="#006FFF" stroke-width="3"/>
<mask id="path-217-inside-67_5286_121753" fill="white">
<path d="M552 902H752V962H552V902Z"/>
</mask>
<path d="M552 902H752V962H552V902Z" fill="#F0F6FF"/>
<path d="M752 961H552V963H752V961Z" fill="#E3E3E3" mask="url(#path-217-inside-67_5286_121753)"/>
<circle cx="652" cy="932" r="7.5" fill="white" stroke="#006FFF" stroke-width="3"/>
<mask id="path-220-inside-68_5286_121753" fill="white">
<path d="M552 962H752V1014C752 1018.42 748.418 1022 744 1022H560C555.582 1022 552 1018.42 552 1014V962Z"/>
</mask>
<path d="M552 962H752V1014C752 1018.42 748.418 1022 744 1022H560C555.582 1022 552 1018.42 552 1014V962Z" fill="#F0F6FF"/>
<path d="M552 962H752H552ZM752 1014C752 1018.97 747.971 1023 743 1023H561C556.029 1023 552 1018.97 552 1014C552 1017.87 555.582 1021 560 1021H744C748.418 1021 752 1017.87 752 1014ZM552 1022V962V1022ZM752 962V1022V962Z" fill="#E3E3E3" mask="url(#path-220-inside-68_5286_121753)"/>
<circle cx="652" cy="992" r="7.5" fill="white" stroke="#006FFF" stroke-width="3"/>
</svg>
