<svg width="129" height="129" viewBox="0 0 129 129" fill="none" xmlns="http://www.w3.org/2000/svg">
<path d="M55.2842 22.9567C55.2842 17.8852 59.4096 13.7739 64.4985 13.7739C69.5874 13.7739 73.7128 17.8852 73.7128 22.9567L73.7128 36.731C73.7128 41.8026 69.5874 45.9139 64.4985 45.9139C59.4096 45.9139 55.2842 41.8026 55.2842 36.731L55.2842 22.9567Z" fill="#F5C417"/>
<path d="M64.5009 128.997C54.323 128.997 46.0723 120.775 46.0723 110.632C46.0723 100.489 54.323 92.2659 64.5008 92.2659C74.6787 92.2659 82.9294 100.489 82.9294 110.632C82.9294 120.775 74.6787 128.997 64.5009 128.997Z" fill="#DBAD07"/>
<path d="M23.0342 71.3024L23.0342 110.195H105.963V71.3024C105.963 47.1379 87.3986 27.5488 64.4985 27.5488C41.5984 27.5488 23.0342 47.1379 23.0342 71.3024Z" fill="#FFD335"/>
<path d="M9.21484 108.644C9.21484 104.84 12.3089 101.756 16.1256 101.756L112.876 101.756C116.692 101.756 119.786 104.84 119.786 108.644C119.786 112.447 116.692 115.531 112.876 115.531L16.1256 115.531C12.3089 115.531 9.21484 112.447 9.21484 108.644Z" fill="#F5C417"/>
<path fill-rule="evenodd" clip-rule="evenodd" d="M33.7776 15.4805C24.1269 15.4805 16.3022 23.5674 16.3022 33.5424C16.3022 35.3028 14.9216 36.73 13.2185 36.73C11.5154 36.73 10.1348 35.3028 10.1348 33.5424C10.1348 20.0458 20.7215 9.10532 33.7776 9.10532C35.4807 9.10532 36.8613 10.5324 36.8613 12.2929C36.8613 14.0533 35.4807 15.4805 33.7776 15.4805Z" fill="#FFD335"/>
<path fill-rule="evenodd" clip-rule="evenodd" d="M23.6428 6.37515C13.9921 6.37515 6.16744 14.4621 6.16744 24.4371C6.16744 26.1975 4.78682 27.6246 3.08372 27.6246C1.38063 27.6246 0 26.1975 0 24.4371C0 10.9405 10.5867 0 23.6428 0C25.3459 0 26.7266 1.42713 26.7266 3.18757C26.7266 4.94802 25.3459 6.37515 23.6428 6.37515Z" fill="#FFD335"/>
<path fill-rule="evenodd" clip-rule="evenodd" d="M95.2227 15.4834C104.873 15.4834 112.698 23.5703 112.698 33.5453C112.698 35.3057 114.078 36.7329 115.782 36.7329C117.485 36.7329 118.865 35.3057 118.865 33.5453C118.865 20.0487 108.279 9.10822 95.2227 9.10822C93.5196 9.10822 92.139 10.5353 92.139 12.2958C92.139 14.0562 93.5196 15.4834 95.2227 15.4834Z" fill="#FFD335"/>
<path fill-rule="evenodd" clip-rule="evenodd" d="M105.357 6.37805C115.008 6.37805 122.833 14.465 122.833 24.44C122.833 26.2004 124.213 27.6275 125.916 27.6275C127.619 27.6275 129 26.2004 129 24.44C129 10.9434 118.413 0.00289917 105.357 0.00289917C103.654 0.00289917 102.274 1.43002 102.274 3.19047C102.274 4.95092 103.654 6.37805 105.357 6.37805Z" fill="#FFD335"/>
</svg>
