<svg width="752" height="340" viewBox="0 0 752 340" fill="none" xmlns="http://www.w3.org/2000/svg">
<path d="M0 8C0 3.58172 3.58172 0 8 0H744C748.418 0 752 3.58172 752 8V332C752 336.418 748.418 340 744 340H8C3.58172 340 0 336.418 0 332V8Z" fill="#F5F5F5"/>
<rect x="40.2109" y="25.1592" width="671.58" height="289.681" rx="7.14447" fill="white"/>
<path d="M61.916 40.652V38.4015H62.9983V44.0171H61.916V41.5415H60.137V40.652H61.916ZM55.8074 43.8242L55.0037 43.1276C55.5681 42.7061 56.0146 42.3239 56.3433 41.9809C56.6719 41.638 56.9113 41.2986 57.0613 40.9628C57.2185 40.627 57.2971 40.2591 57.2971 39.859H55.3252V38.9588H60.3299V39.859H58.3794V39.9233C58.3794 40.5092 58.2473 41.0486 57.9829 41.5415L58.0472 41.5844L58.2723 41.4236C58.3723 41.3451 58.4723 41.3058 58.5723 41.3058C58.6795 41.3058 58.7831 41.3451 58.8831 41.4236L60.6943 42.9347L59.8905 43.642L58.0151 42.0023C57.9651 41.9595 57.9043 41.938 57.8329 41.938C57.7829 41.938 57.7329 41.9559 57.6829 41.9916C57.4828 42.2631 57.2363 42.5418 56.9434 42.8275C56.6505 43.1062 56.2718 43.4384 55.8074 43.8242ZM63.0305 46.2462C63.0305 46.6463 62.9126 46.9999 62.6768 47.3071C62.4411 47.6215 62.091 47.868 61.6266 48.0466C61.1622 48.2252 60.6049 48.3145 59.9548 48.3145C59.2975 48.3145 58.7367 48.2252 58.2723 48.0466C57.8079 47.868 57.4578 47.6215 57.222 47.3071C56.9863 46.9999 56.8684 46.6463 56.8684 46.2462C56.8684 45.8461 56.9863 45.4924 57.222 45.1852C57.4578 44.8709 57.8079 44.6279 58.2723 44.4565C58.7367 44.2779 59.2975 44.1886 59.9548 44.1886C60.6121 44.1886 61.1694 44.2779 61.6266 44.4565C62.091 44.6279 62.4411 44.8709 62.6768 45.1852C62.9126 45.4924 63.0305 45.8461 63.0305 46.2462ZM61.8945 46.1711C61.8945 45.8496 61.7338 45.5817 61.4123 45.3674C61.0908 45.1459 60.6049 45.0352 59.9548 45.0352C59.3047 45.0352 58.8153 45.1459 58.4866 45.3674C58.1651 45.5817 58.0044 45.8496 58.0044 46.1711V46.3319C58.0044 46.6534 58.1651 46.9213 58.4866 47.1356C58.8153 47.35 59.3047 47.4571 59.9548 47.4571C60.6049 47.4571 61.0908 47.35 61.4123 47.1356C61.7338 46.9213 61.8945 46.6534 61.8945 46.3319V46.1711ZM72.6927 45.8389V46.7498H63.905V45.8389H67.763V43.8563H65.0731V38.8945H66.1448V40.5127H70.4207V38.8945H71.4924V43.8563H68.8454V45.8389H72.6927ZM66.1448 42.9561H70.4207V41.4022H66.1448V42.9561ZM83.0335 38.4015V43.642H81.9512V38.4015H83.0335ZM75.1889 41.0486C75.1889 40.577 75.2961 40.1662 75.5104 39.8161C75.7248 39.4589 76.0213 39.1874 76.3999 39.0017C76.7857 38.8088 77.2215 38.7123 77.7073 38.7123C78.1932 38.7123 78.6254 38.8088 79.0041 39.0017C79.3899 39.1874 79.6899 39.4589 79.9043 39.8161C80.1186 40.1662 80.2258 40.577 80.2258 41.0486C80.2258 41.513 80.1186 41.9238 79.9043 42.281C79.6899 42.6311 79.3899 42.9026 79.0041 43.0955C78.6254 43.2812 78.1932 43.3741 77.7073 43.3741C77.2215 43.3741 76.7857 43.2812 76.3999 43.0955C76.0213 42.9026 75.7248 42.6311 75.5104 42.281C75.2961 41.9238 75.1889 41.513 75.1889 41.0486ZM79.0791 41.2307V40.8557C79.0791 40.4699 78.9541 40.1662 78.704 39.9447C78.4539 39.7161 78.1217 39.6018 77.7073 39.6018C77.293 39.6018 76.9607 39.7161 76.7107 39.9447C76.4606 40.1662 76.3356 40.4699 76.3356 40.8557V41.2307C76.3356 41.6165 76.4606 41.9238 76.7107 42.1524C76.9607 42.381 77.293 42.4953 77.7073 42.4953C78.1217 42.4953 78.4539 42.381 78.704 42.1524C78.9541 41.9238 79.0791 41.6165 79.0791 41.2307ZM77 47.4679V44.1886H78.0717V45.2495H81.9619V44.1886H83.0335V48.1752H77.6966C77.468 48.1752 77.293 48.1144 77.1715 47.993C77.0572 47.8715 77 47.6965 77 47.4679ZM81.9619 46.1604H78.0717V47.2535H81.9619V46.1604ZM92.0527 38.4015V44.2529H90.9703V42.6132H89.2557V41.7451H90.9703V40.5877H89.2557V39.7304H90.9703V38.4015H92.0527ZM89.1914 43.642C88.1483 43.8635 86.8944 43.9742 85.4298 43.9742H84.4975V40.9628H87.4446V39.8054H84.4653V38.9267H88.4948V41.8202H85.5477V43.0955H85.6334C86.9123 43.0955 88.0518 42.9954 89.0521 42.7954L89.1914 43.642ZM85.8156 44.7887H92.0527V48.2716H90.9918V45.6996H85.8156V44.7887Z" fill="#41414F"/>
<path d="M686.189 43.6158L690.357 39.4482L694.525 43.6158" stroke="#7A7A89" stroke-width="0.893058" stroke-linecap="round" stroke-linejoin="round"/>
<rect x="54.7977" y="61.5096" width="642.407" height="224.456" rx="4.46529" fill="white"/>
<rect x="54.7977" y="61.5096" width="642.407" height="224.456" rx="4.46529" stroke="#DEDFE5" stroke-width="0.595372"/>
<path d="M75.0281 76.5066V79.8824H76.3284V76.5066H75.0281ZM74.2279 80.5658V75.8231H77.1285V80.5658H74.2279ZM79.5874 74.9979H80.4043V82.5163H79.5874V78.6321H78.7289V82.1662H77.9204V75.1396H78.7289V77.9319H79.5874V74.9979ZM86.3133 76.8817V75.8981H82.9375V76.8817H86.3133ZM87.1551 75.2313V77.5568H82.0873V75.2313H87.1551ZM88.0387 78.7654H85.0547V79.3906H87.1802V81.1827H82.8959V81.7995H87.3969V82.4579H82.0457V80.5742H86.3383V80.0407H82.029V79.3906H84.1878V78.7654H81.2205V78.082H88.0387V78.7654ZM89.1133 78.0736L88.8132 77.4068C90.2052 77.2651 91.1637 76.6816 91.2888 76.0148H89.1049V75.323H94.6645V76.0148H92.464C92.5807 76.6816 93.5476 77.2651 94.9479 77.4068L94.6395 78.0736C93.3142 77.9319 92.2806 77.3985 91.8806 76.6233C91.4721 77.3985 90.4386 77.9319 89.1133 78.0736ZM91.8639 81.8661C92.9725 81.8661 93.5893 81.6494 93.5893 81.2077C93.5893 80.7742 92.9725 80.5492 91.8639 80.5492C90.7553 80.5492 90.1468 80.7742 90.1468 81.2077C90.1468 81.6494 90.7553 81.8661 91.8639 81.8661ZM91.8639 79.8907C93.4893 79.8907 94.4561 80.3658 94.4561 81.2077C94.4561 82.0495 93.4893 82.5246 91.8639 82.5246C90.2469 82.5246 89.2716 82.0495 89.2716 81.2077C89.2716 80.3658 90.2469 79.8907 91.8639 79.8907ZM92.2973 78.6821H95.2813V79.3739H88.4715V78.6821H91.4388V77.6735H92.2973V78.6821ZM100.865 76.665V75.9481H96.531V75.2563H101.74V77.3068H97.4145V78.0903H101.907V78.7821H96.5476V76.665H100.865ZM102.549 79.4489L102.557 80.1408H100.865V82.533H100.007V80.1408H98.2647V82.533H97.4062V80.1408H95.7224V79.4489H102.549Z" fill="#4D4C61"/>
<path d="M104.176 74.78C104.224 74.636 104.327 74.5168 104.462 74.4482C104.598 74.3797 104.755 74.3673 104.899 74.4139L105.959 74.761V73.6438C105.959 73.4924 106.019 73.3473 106.126 73.2403C106.233 73.1333 106.378 73.0732 106.53 73.0732C106.681 73.0732 106.826 73.1333 106.933 73.2403C107.04 73.3473 107.1 73.4924 107.1 73.6438V74.761L108.16 74.4139C108.232 74.3905 108.307 74.3814 108.382 74.3872C108.457 74.3929 108.53 74.4133 108.597 74.4473C108.665 74.4813 108.724 74.5282 108.773 74.5853C108.822 74.6424 108.86 74.7085 108.883 74.78C108.906 74.8515 108.915 74.9269 108.91 75.0019C108.904 75.0769 108.884 75.1501 108.85 75.2172C108.816 75.2843 108.769 75.344 108.712 75.393C108.655 75.442 108.588 75.4793 108.517 75.5027L107.452 75.845L108.108 76.7483C108.197 76.8709 108.233 77.0235 108.21 77.173C108.187 77.3225 108.106 77.4569 107.984 77.547C107.886 77.617 107.768 77.6551 107.647 77.6563C107.557 77.6552 107.468 77.6332 107.388 77.5919C107.308 77.5507 107.239 77.4913 107.186 77.4186L106.53 76.5153L105.874 77.4186C105.82 77.4913 105.751 77.5507 105.671 77.5919C105.591 77.6332 105.502 77.6552 105.412 77.6563C105.291 77.6551 105.174 77.617 105.075 77.547C104.953 77.4569 104.872 77.3225 104.849 77.173C104.826 77.0235 104.863 76.8709 104.951 76.7483L105.607 75.845L104.542 75.5027C104.398 75.4548 104.279 75.352 104.211 75.2167C104.142 75.0814 104.13 74.9244 104.176 74.78Z" fill="#FF5959"/>
<path d="M157.333 74.0048V78.4725H156.342V74.0048H157.333ZM153.799 77.3675V76.2339H151.655V77.3675H153.799ZM154.78 74.3668V78.1486H150.684V74.3668H151.655V75.4909H153.799V74.3668H154.78ZM152.675 81.778H157.59V82.5401H151.713V80.3206H156.361V79.6442H151.694V78.8917H157.333V81.035H152.675V81.778ZM160.038 77.9772V79.7776C161.447 79.7681 162.524 79.7109 163.734 79.4918L163.838 80.292C162.514 80.5301 161.362 80.5873 159.771 80.5873H159.066V77.1865H162.009V75.5766H159.047V74.7765H162.981V77.9772H160.038ZM166.725 77.358V78.1772H165.401V82.6258H164.41V73.9953H165.401V77.358H166.725ZM166.829 83.5975L169.477 74.2716H170.239L167.591 83.5975H166.829ZM171.674 76.7293C171.674 77.5295 172.236 78.0629 172.989 78.0629C173.722 78.0629 174.284 77.5295 174.284 76.7293C174.284 75.9481 173.722 75.4147 172.989 75.4147C172.236 75.4147 171.674 75.9481 171.674 76.7293ZM176.771 76.091H175.123C175.189 76.2911 175.218 76.5006 175.218 76.7293C175.218 76.9579 175.189 77.1675 175.123 77.3675H176.771V76.091ZM176.771 78.1677H174.703C174.303 78.6345 173.694 78.9202 172.989 78.9107C171.712 78.9107 170.741 77.9962 170.741 76.7293C170.741 75.4623 171.712 74.5478 172.989 74.5478C173.694 74.5478 174.303 74.8336 174.703 75.2909H176.771V74.0239H177.752V80.3491H176.771V78.1677ZM173.16 81.6542H177.971V82.4544H172.179V79.7109H173.16V81.6542ZM184.314 77.5485L184.429 78.3487C183.076 78.5678 181.914 78.6059 180.266 78.6059H179.542V76.1101H182.495V75.2146H179.523V74.4145H183.457V76.8531H180.513V77.8057C181.99 77.8057 183.066 77.7581 184.314 77.5485ZM185.219 81.7209V80.8254H181.533V81.7209H185.219ZM185.219 80.0538V79.1679H186.191V82.5115H180.552V79.1679H181.533V80.0538H185.219ZM185.21 74.0144H186.191V78.7678H185.21V74.0144Z" fill="#41414F"/>
<line x1="68.7891" y1="94.255" x2="683.213" y2="94.2551" stroke="#DEDFE5" stroke-width="0.595372"/>
<path d="M80.5043 113.088L80.1459 113.805C78.9123 113.563 77.8454 112.813 77.3619 111.813C76.8618 112.813 75.7949 113.563 74.5696 113.805L74.2029 113.088C75.6949 112.838 76.9035 111.713 76.9035 110.554V109.988H77.812V110.554C77.812 111.721 79.0206 112.838 80.5043 113.088ZM77.7787 115.414H80.796V116.122H73.9778V115.414H76.9202V113.655H77.7787V115.414ZM83.521 111.063V111.48C83.521 112.838 83.9961 114.072 85.088 114.639L84.5879 115.297C83.8711 114.905 83.4043 114.222 83.1292 113.388C82.8708 114.347 82.3874 115.114 81.6456 115.556L81.1205 114.914C82.2124 114.28 82.6875 112.972 82.6875 111.48V111.063H81.3288V110.354H84.7796V111.063H83.521ZM86.8717 109.521H87.6886V117.056H86.8717V113.205H86.0466V116.706H85.238V109.663H86.0466V112.497H86.8717V109.521ZM91.2554 110.988V111.705C91.2554 112.955 92.0306 114.255 93.2059 114.755L92.7308 115.431C91.8556 115.047 91.1804 114.23 90.8303 113.255C90.4969 114.305 89.8218 115.197 88.9382 115.622L88.4465 114.939C89.6134 114.397 90.3886 112.997 90.3886 111.705V110.988H88.7132V110.279H92.9308V110.988H91.2554ZM93.806 109.529H94.6729V117.056H93.806V109.529Z" fill="#4D4C61"/>
<g clip-path="url(#clip0_5308_157631)">
<path d="M97.1763 109.311C97.2241 109.167 97.3269 109.048 97.4622 108.979C97.5976 108.911 97.7545 108.899 97.8989 108.945L98.9591 109.292V108.175C98.9591 108.024 99.0192 107.879 99.1262 107.772C99.2332 107.665 99.3783 107.604 99.5296 107.604C99.6809 107.604 99.826 107.665 99.933 107.772C100.04 107.879 100.1 108.024 100.1 108.175V109.292L101.16 108.945C101.232 108.922 101.307 108.913 101.382 108.918C101.457 108.924 101.53 108.945 101.597 108.979C101.665 109.013 101.724 109.059 101.773 109.117C101.822 109.174 101.86 109.24 101.883 109.311C101.906 109.383 101.915 109.458 101.91 109.533C101.904 109.608 101.884 109.681 101.85 109.748C101.816 109.816 101.769 109.875 101.712 109.924C101.655 109.973 101.588 110.011 101.517 110.034L100.452 110.376L101.108 111.28C101.197 111.402 101.233 111.555 101.21 111.704C101.187 111.854 101.106 111.988 100.984 112.078C100.886 112.148 100.768 112.186 100.647 112.188C100.557 112.186 100.468 112.164 100.388 112.123C100.308 112.082 100.239 112.023 100.186 111.95L99.5296 111.047L98.8735 111.95C98.8204 112.023 98.751 112.082 98.671 112.123C98.591 112.164 98.5024 112.186 98.4124 112.188C98.2913 112.186 98.1736 112.148 98.0748 112.078C97.9533 111.988 97.8722 111.854 97.8491 111.704C97.826 111.555 97.8626 111.402 97.9512 111.28L98.6073 110.376L97.5423 110.034C97.3983 109.986 97.2791 109.883 97.2105 109.748C97.142 109.613 97.1296 109.456 97.1763 109.311Z" fill="#FF5959"/>
</g>
<rect x="150.057" y="101.995" width="70.8493" height="20.838" rx="3.27455" fill="white"/>
<rect x="150.057" y="101.995" width="70.8493" height="20.838" rx="3.27455" stroke="#DEDFE5" stroke-width="0.595372"/>
<path d="M157.582 110.196V111.538C157.582 112.897 158.433 114.255 159.516 114.772L159.116 115.314C158.266 114.889 157.582 113.997 157.241 112.947C156.916 114.055 156.224 114.997 155.382 115.447L154.965 114.905C156.049 114.364 156.899 112.922 156.899 111.538V110.196H157.582ZM160.441 109.554H161.125V117.039H160.441V112.647H158.708V112.088H160.441V109.554ZM165.592 110.154C164.367 110.154 163.667 110.438 163.667 110.938C163.667 111.438 164.367 111.721 165.592 111.721C166.817 111.721 167.517 111.438 167.517 110.938C167.517 110.438 166.817 110.154 165.592 110.154ZM165.592 112.23C163.95 112.23 162.966 111.78 162.966 110.938C162.966 110.096 163.95 109.638 165.592 109.638C167.242 109.638 168.218 110.096 168.218 110.938C168.218 111.78 167.242 112.23 165.592 112.23ZM168.968 113.272H165.934V113.972H168.109V115.656H163.717V116.414H168.334V116.948H163.05V115.155H167.434V114.489H163.033V113.972H165.25V113.272H162.216V112.722H168.968V113.272ZM172.118 110.204V111.546C172.118 112.913 173.01 114.289 174.118 114.789L173.71 115.339C172.86 114.922 172.143 114.039 171.784 112.972C171.443 114.097 170.726 115.03 169.851 115.481L169.434 114.922C170.534 114.397 171.443 112.963 171.443 111.546V110.204H172.118ZM174.902 109.554H175.585V117.048H174.902V109.554Z" fill="#4D4C61"/>
<path d="M209.297 111.521L211.678 113.903L214.06 111.521" stroke="#9393A3" stroke-width="0.595372" stroke-linecap="round" stroke-linejoin="round"/>
<rect x="226.264" y="101.995" width="70.8493" height="20.838" rx="3.27455" fill="white"/>
<rect x="226.264" y="101.995" width="70.8493" height="20.838" rx="3.27455" stroke="#DEDFE5" stroke-width="0.595372"/>
<path d="M231.506 110.113H234.956C234.956 112.013 233.631 113.405 231.464 114.047L231.189 113.497C232.964 112.972 234.09 111.955 234.215 110.663H231.506V110.113ZM234.631 116.481C235.707 116.481 236.39 116.139 236.39 115.572C236.39 114.997 235.707 114.655 234.631 114.655C233.556 114.655 232.873 114.997 232.873 115.572C232.873 116.139 233.556 116.481 234.631 116.481ZM234.631 114.122C236.107 114.122 237.065 114.664 237.065 115.572C237.065 116.472 236.107 117.023 234.631 117.023C233.156 117.023 232.197 116.472 232.197 115.572C232.197 114.664 233.156 114.122 234.631 114.122ZM236.974 111.488H238.082V112.055H236.974V114.022H236.29V109.554H236.974V111.488ZM242.783 112.321L242.866 112.88C241.607 113.13 240.49 113.213 239.373 113.213H238.79V109.929H239.465V112.638C240.524 112.63 241.591 112.555 242.783 112.321ZM240.182 114.739V116.372H243.558V114.739H240.182ZM239.515 116.923V114.189H244.225V116.923H239.515ZM245.333 111.271V111.838H244.225V113.78H243.541V109.554H244.225V111.271H245.333ZM252.442 113.255V113.813H249.392V117.039H248.7V113.813H245.683V113.255H250.642C250.875 112.18 250.875 111.388 250.875 110.688V110.588H246.524V110.038H251.542V110.688C251.542 111.388 251.542 112.18 251.334 113.255H252.442Z" fill="#4D4C61"/>
<path d="M285.504 111.521L287.885 113.903L290.267 111.521" stroke="#9393A3" stroke-width="0.595372" stroke-linecap="round" stroke-linejoin="round"/>
<rect x="302.473" y="101.995" width="70.8493" height="20.838" rx="3.27455" fill="white"/>
<rect x="302.473" y="101.995" width="70.8493" height="20.838" rx="3.27455" stroke="#DEDFE5" stroke-width="0.595372"/>
<path d="M307.665 110.521H310.582C310.582 112.447 309.907 114.23 307.781 115.431L307.381 114.939C309.098 113.98 309.807 112.63 309.907 111.08H307.665V110.521ZM313.066 109.554H313.724V117.031H313.066V113.122H312.049V116.656H311.407V109.754H312.049V112.563H313.066V109.554ZM317.074 110.821V113.272H318.933V110.821H317.074ZM318.35 115.539H321.409V116.097H314.632V115.539H317.658V113.822H315.249V113.272H316.391V110.821H315.232V110.271H320.775V110.821H319.617V113.272H320.759V113.822H318.35V115.539ZM325.267 116.497C326.434 116.497 327.126 116.206 327.126 115.681C327.126 115.155 326.434 114.864 325.267 114.864C324.084 114.864 323.392 115.155 323.392 115.681C323.392 116.206 324.084 116.497 325.267 116.497ZM325.267 114.33C326.851 114.33 327.818 114.814 327.818 115.681C327.818 116.547 326.851 117.031 325.267 117.031C323.667 117.031 322.7 116.547 322.7 115.681C322.7 114.814 323.667 114.33 325.267 114.33ZM325.609 113.247H328.651V113.797H321.883V113.247H324.926V112.38H322.733V109.896H327.81V110.446H323.417V111.83H327.86V112.38H325.609V113.247Z" fill="#4D4C61"/>
<path d="M361.713 111.521L364.094 113.903L366.476 111.521" stroke="#9393A3" stroke-width="0.595372" stroke-linecap="round" stroke-linejoin="round"/>
<line x1="68.7891" y1="129.978" x2="683.213" y2="129.978" stroke="#DEDFE5" stroke-width="0.595372"/>
<path d="M80.7877 148.928V149.636H77.787V152.779H76.9202V149.636H73.9778V148.928H78.8706C79.0873 147.877 79.0873 147.094 79.0873 146.402H74.7947V145.71H79.9292V146.369C79.9292 147.077 79.9292 147.861 79.7375 148.928H80.7877ZM82.3874 150.77V150.078H87.4635V152.787H86.605V150.77H82.3874ZM85.1797 147.977H86.605V147.011H85.188C85.2214 147.161 85.2464 147.319 85.2464 147.494C85.2464 147.661 85.2214 147.827 85.1797 147.977ZM83.2876 148.594C83.9378 148.594 84.4295 148.152 84.4295 147.494C84.4295 146.836 83.9378 146.385 83.2876 146.385C82.6375 146.385 82.1457 146.836 82.1457 147.494C82.1457 148.152 82.6375 148.594 83.2876 148.594ZM86.605 145.252L87.4635 145.244V149.703H86.605V148.678H84.8213C84.4712 149.086 83.9211 149.336 83.2876 149.328C82.1707 149.328 81.3288 148.561 81.3288 147.494C81.3288 146.419 82.1707 145.66 83.2876 145.66C83.9211 145.66 84.4712 145.91 84.8213 146.31H86.605V145.252ZM91.4555 148.519V146.494H89.6467V148.519H91.4555ZM93.856 147.111H92.289V147.902H93.856V147.111ZM92.289 148.603V149.203H88.8049V145.81H92.289V146.41H93.856V145.252H94.7145V149.686H93.856V148.603H92.289ZM92.2056 152.112C93.2725 152.112 93.8893 151.837 93.8893 151.337C93.8893 150.845 93.2725 150.57 92.2056 150.57C91.1387 150.57 90.5303 150.845 90.5303 151.337C90.5303 151.837 91.1387 152.112 92.2056 152.112ZM92.2056 149.895C93.781 149.895 94.7479 150.428 94.7479 151.337C94.7479 152.245 93.781 152.779 92.2056 152.779C90.6386 152.779 89.6717 152.245 89.6717 151.337C89.6717 150.428 90.6386 149.895 92.2056 149.895Z" fill="#4D4C61"/>
<path d="M97.1763 145.034C97.2241 144.89 97.3269 144.771 97.4622 144.702C97.5976 144.634 97.7545 144.621 97.8989 144.668L98.9591 145.015V143.898C98.9591 143.746 99.0192 143.601 99.1262 143.494C99.2332 143.387 99.3783 143.327 99.5296 143.327C99.6809 143.327 99.826 143.387 99.933 143.494C100.04 143.601 100.1 143.746 100.1 143.898V145.015L101.16 144.668C101.232 144.644 101.307 144.635 101.382 144.641C101.457 144.647 101.53 144.667 101.597 144.701C101.665 144.735 101.724 144.782 101.773 144.839C101.822 144.896 101.86 144.962 101.883 145.034C101.906 145.105 101.915 145.181 101.91 145.256C101.904 145.331 101.884 145.404 101.85 145.471C101.816 145.538 101.769 145.598 101.712 145.647C101.655 145.696 101.588 145.733 101.517 145.757L100.452 146.099L101.108 147.002C101.197 147.125 101.233 147.277 101.21 147.427C101.187 147.576 101.106 147.711 100.984 147.801C100.886 147.871 100.768 147.909 100.647 147.91C100.557 147.909 100.468 147.887 100.388 147.846C100.308 147.805 100.239 147.745 100.186 147.673L99.5296 146.769L98.8735 147.673C98.8204 147.745 98.751 147.805 98.671 147.846C98.591 147.887 98.5024 147.909 98.4124 147.91C98.2913 147.909 98.1736 147.871 98.0748 147.801C97.9533 147.711 97.8722 147.576 97.8491 147.427C97.826 147.277 97.8626 147.125 97.9512 147.002L98.6073 146.099L97.5423 145.757C97.3983 145.709 97.2791 145.606 97.2105 145.471C97.142 145.335 97.1296 145.178 97.1763 145.034Z" fill="#FF5959"/>
<rect x="150.057" y="137.718" width="147.057" height="20.838" rx="3.27455" fill="white"/>
<rect x="150.057" y="137.718" width="147.057" height="20.838" rx="3.27455" stroke="#DEDFE5" stroke-width="0.595372"/>
<path d="M159.533 148.928L159.199 149.469C158.341 149.169 157.657 148.553 157.316 147.769C156.999 148.619 156.307 149.286 155.424 149.611L155.065 149.078C156.199 148.678 156.957 147.702 156.957 146.652V146.352H155.249V145.802H159.35V146.352H157.657V146.652C157.657 147.652 158.433 148.561 159.533 148.928ZM156.099 150.745V150.195H161.1V152.754H160.416V150.745H156.099ZM160.416 145.277H161.1V149.803H160.416V145.277ZM166.626 148.753L166.284 149.294C165.45 148.986 164.808 148.369 164.475 147.602C164.158 148.461 163.475 149.136 162.6 149.469L162.241 148.928C163.35 148.536 164.125 147.544 164.125 146.477V146.285H162.458V145.727H166.45V146.285H164.808V146.477C164.808 147.436 165.542 148.369 166.626 148.753ZM167.692 152.095V151.153H164.258V152.095H167.692ZM167.692 150.62V149.695H168.368V152.654H163.583V149.695H164.258V150.62H167.692ZM167.684 145.285H168.368V149.336H167.684V147.652H166.209V147.094H167.684V145.285ZM175.444 147.569V148.119H170.317V145.577H175.394V146.127H171.001V147.569H175.444ZM172.843 152.212C174.01 152.212 174.71 151.92 174.71 151.395C174.71 150.87 174.018 150.578 172.843 150.578C171.668 150.578 170.976 150.87 170.976 151.395C170.976 151.92 171.668 152.212 172.843 152.212ZM172.843 150.045C174.435 150.045 175.402 150.528 175.402 151.395C175.402 152.262 174.435 152.745 172.843 152.745C171.251 152.745 170.284 152.262 170.284 151.395C170.284 150.528 171.251 150.045 172.843 150.045ZM169.467 148.836H176.235V149.403H169.467V148.836ZM177.468 151.078V150.52H182.669V152.687H181.986V151.078H177.468ZM180.452 149.386H183.495V149.945H176.71V149.386H179.76V148.603H177.585V146.777H181.953V146.002H177.568V145.469H182.628V147.286H178.26V148.069H182.786V148.603H180.452V149.386Z" fill="#417BE6"/>
<path d="M285.504 147.244L287.885 149.626L290.267 147.244" stroke="#9393A3" stroke-width="0.595372" stroke-linecap="round" stroke-linejoin="round"/>
<line x1="68.7891" y1="165.7" x2="683.213" y2="165.7" stroke="#DEDFE5" stroke-width="0.595372"/>
<path d="M74.6613 184.705L74.3529 184.029C75.7866 183.838 76.8451 183.013 76.8952 182.137H74.603V181.445H80.1459V182.137H77.8704C77.9204 183.013 78.979 183.838 80.4126 184.029L80.1042 184.705C78.8623 184.521 77.837 183.904 77.3786 183.071C76.9202 183.904 75.9033 184.521 74.6613 184.705ZM80.7877 185.255L80.7794 185.946H77.787V188.555H76.9285V185.946H73.9778V185.255H80.7877ZM87.7553 184.58L87.3969 185.296C86.1633 185.055 85.0963 184.304 84.6129 183.304C84.1128 184.304 83.0459 185.055 81.8206 185.296L81.4539 184.58C82.9459 184.329 84.1545 183.204 84.1545 182.046V181.479H85.063V182.046C85.063 183.213 86.2716 184.329 87.7553 184.58ZM85.0297 186.905H88.047V187.614H81.2288V186.905H84.1711V185.146H85.0297V186.905Z" fill="#4D4C61"/>
<path d="M89.1763 180.803C89.2241 180.659 89.3269 180.54 89.4622 180.472C89.5976 180.403 89.7545 180.391 89.8989 180.437L90.9591 180.784V179.667C90.9591 179.516 91.0192 179.371 91.1262 179.264C91.2332 179.157 91.3783 179.097 91.5296 179.097C91.6809 179.097 91.826 179.157 91.933 179.264C92.04 179.371 92.1001 179.516 92.1001 179.667V180.784L93.1603 180.437C93.2318 180.414 93.3072 180.405 93.3822 180.411C93.4572 180.416 93.5304 180.437 93.5975 180.471C93.6646 180.505 93.7243 180.552 93.7733 180.609C93.8223 180.666 93.8596 180.732 93.883 180.803C93.9064 180.875 93.9155 180.95 93.9098 181.025C93.904 181.1 93.8836 181.173 93.8496 181.241C93.8156 181.308 93.7687 181.367 93.7116 181.416C93.6545 181.465 93.5884 181.503 93.5169 181.526L92.4519 181.868L93.108 182.772C93.1966 182.894 93.2332 183.047 93.2101 183.196C93.187 183.346 93.1059 183.48 92.9844 183.57C92.8857 183.64 92.7679 183.679 92.6469 183.68C92.5568 183.679 92.4683 183.657 92.3882 183.615C92.3082 183.574 92.2388 183.515 92.1857 183.442L91.5296 182.539L90.8735 183.442C90.8204 183.515 90.751 183.574 90.671 183.615C90.591 183.657 90.5024 183.679 90.4124 183.68C90.2913 183.679 90.1736 183.64 90.0748 183.57C89.9533 183.48 89.8722 183.346 89.8491 183.196C89.826 183.047 89.8626 182.894 89.9512 182.772L90.6073 181.868L89.5423 181.526C89.3983 181.478 89.2791 181.375 89.2105 181.24C89.142 181.105 89.1296 180.948 89.1763 180.803Z" fill="#FF5959"/>
<path d="M150.057 176.715C150.057 174.906 151.524 173.44 153.332 173.44H170.895V194.278H153.332C151.524 194.278 150.057 192.812 150.057 191.004V176.715Z" fill="#FFF4E5"/>
<path d="M150.057 176.715C150.057 174.906 151.524 173.44 153.332 173.44H170.895V194.278H153.332C151.524 194.278 150.057 192.812 150.057 191.004V176.715Z" stroke="#FF951A" stroke-width="0.595372"/>
<path d="M159.553 180.999V184.834H158.87V180.999H159.553ZM154.252 182.933C154.252 183.575 154.794 184.034 155.519 184.034C156.252 184.034 156.786 183.575 156.786 182.933C156.786 182.283 156.252 181.825 155.519 181.825C154.794 181.825 154.252 182.283 154.252 182.933ZM157.453 182.933C157.453 183.917 156.636 184.584 155.519 184.584C154.402 184.584 153.593 183.917 153.593 182.933C153.593 181.941 154.402 181.266 155.519 181.266C156.636 181.266 157.453 181.941 157.453 182.933ZM155.402 187.834H159.803V188.376H154.727V186.501H158.878V185.742H154.71V185.2H159.553V187.009H155.402V187.834ZM163.77 184.692V183.325H161.653V184.692H163.77ZM164.437 181.541V185.242H160.978V181.541H161.653V182.792H163.77V181.541H164.437ZM162.503 185.967V187.751H166.804V188.309H161.82V185.967H162.503ZM166.471 183.267H167.571V183.842H166.471V186.492H165.787V181.008H166.471V183.267Z" fill="#FF7F0F"/>
<mask id="path-32-inside-1_5308_157631" fill="white">
<path d="M171.193 173.143H189.055C191.027 173.143 192.627 174.742 192.627 176.715V191.004C192.627 192.977 191.027 194.576 189.055 194.576H171.193V173.143Z"/>
</mask>
<path d="M171.193 173.143H189.055C191.027 173.143 192.627 174.742 192.627 176.715V191.004C192.627 192.977 191.027 194.576 189.055 194.576H171.193V173.143Z" fill="white"/>
<path d="M171.193 172.547H189.055C191.356 172.547 193.222 174.413 193.222 176.715H192.031C192.031 175.071 190.699 173.738 189.055 173.738H171.193V172.547ZM193.222 191.004C193.222 193.305 191.356 195.171 189.055 195.171H171.193V193.981H189.055C190.699 193.981 192.031 192.648 192.031 191.004H193.222ZM171.193 194.576V173.143V194.576ZM189.055 172.547C191.356 172.547 193.222 174.413 193.222 176.715V191.004C193.222 193.305 191.356 195.171 189.055 195.171V193.981C190.699 193.981 192.031 192.648 192.031 191.004V176.715C192.031 175.071 190.699 173.738 189.055 173.738V172.547Z" fill="#DEDFE5" mask="url(#path-32-inside-1_5308_157631)"/>
<path d="M182.711 184.759L182.369 185.3C181.528 184.992 180.877 184.367 180.544 183.583C180.236 184.467 179.569 185.15 178.677 185.484L178.319 184.942C179.461 184.534 180.186 183.533 180.186 182.375V181.45H180.869V182.391C180.869 183.417 181.611 184.367 182.711 184.759ZM180.202 185.992V187.751H184.478V188.309H179.519V185.992H180.202ZM184.153 183.292H185.253V183.858H184.153V186.517H183.47V180.991H184.153V183.292Z" fill="#7A7A89"/>
<rect x="197.688" y="173.44" width="47.0344" height="20.838" rx="3.27455" fill="white"/>
<rect x="197.688" y="173.44" width="47.0344" height="20.838" rx="3.27455" stroke="#DEDFE5" stroke-width="0.595372"/>
<rect x="252.462" y="173.44" width="47.0344" height="20.838" rx="3.27455" fill="white"/>
<rect x="252.462" y="173.44" width="47.0344" height="20.838" rx="3.27455" stroke="#DEDFE5" stroke-width="0.595372"/>
<path d="M306.876 185.35V184H304.859V185.35H306.876ZM307.551 184.308V185.9H304.184V182.141H304.859V183.458H306.876V182.141H307.551V183.75H309.277V181.641H309.969V187.176H309.277V184.308H307.551ZM305.843 188.393H310.144V188.951H305.159V186.634H305.843V188.393ZM313.727 182.975V183.925C313.727 185.192 314.627 186.484 315.728 186.951L315.344 187.501C314.477 187.101 313.744 186.242 313.385 185.217C313.044 186.309 312.31 187.251 311.46 187.684L311.06 187.134C312.135 186.626 313.044 185.217 313.044 183.925V182.975H311.31V182.408H315.486V182.975H313.727ZM316.494 181.649H317.178V189.118H316.494V181.649Z" fill="#5E5E70"/>
<path d="M247.786 185.268V184.685H249.92V185.268H247.786Z" fill="black"/>
<rect x="332.952" y="178.799" width="10.1213" height="10.1213" rx="2.0838" fill="white"/>
<rect x="332.952" y="178.799" width="10.1213" height="10.1213" rx="2.0838" stroke="#C8CAD0" stroke-width="0.595372"/>
<path d="M351.703 184.017L351.344 184.55C350.536 184.25 349.894 183.634 349.561 182.867C349.252 183.742 348.585 184.425 347.71 184.759L347.352 184.217C348.485 183.809 349.211 182.792 349.211 181.65V180.883H349.894V181.708C349.894 182.717 350.628 183.65 351.703 184.017ZM350.811 187.434C351.911 187.434 352.586 187.126 352.586 186.609C352.586 186.084 351.911 185.776 350.811 185.776C349.702 185.776 349.027 186.084 349.027 186.609C349.027 187.126 349.702 187.434 350.811 187.434ZM350.811 185.242C352.328 185.242 353.27 185.734 353.27 186.609C353.27 187.476 352.328 187.968 350.811 187.968C349.286 187.968 348.344 187.476 348.344 186.609C348.344 185.734 349.286 185.242 350.811 185.242ZM353.186 182.433H354.295V183H353.186V185.034H352.503V180.508H353.186V182.433ZM357.27 181.208V182.608C357.27 183.809 357.828 185.076 358.812 185.676L358.42 186.209C357.712 185.776 357.212 184.984 356.945 184.075C356.678 185.067 356.136 185.909 355.395 186.367L354.97 185.859C355.995 185.259 356.612 183.917 356.612 182.633V181.208H357.27ZM359.237 183.183V180.666H359.879V187.609H359.237V183.75H358.004V183.183H359.237ZM360.754 180.499H361.404V187.976H360.754V180.499ZM363.387 184.134L363.129 183.592C364.429 183.4 365.721 182.542 365.721 181.558V181.516H363.362V180.966H368.822V181.516H366.48V181.558C366.48 182.542 367.772 183.4 369.089 183.592L368.822 184.134C367.663 183.934 366.555 183.308 366.105 182.425C365.646 183.308 364.546 183.934 363.387 184.134ZM369.48 184.759L369.489 185.317H366.43V187.976H365.746V185.317H362.729V184.759H369.48ZM376.84 184.15L376.548 184.717C375.406 184.475 374.231 183.7 373.747 182.633C373.264 183.7 372.097 184.475 370.947 184.717L370.663 184.15C371.972 183.917 373.389 182.817 373.389 181.575V181H374.106V181.575C374.106 182.817 375.531 183.917 376.84 184.15ZM374.089 186.443H377.173V187.001H370.388V186.443H373.406V184.625H374.089V186.443ZM382.729 187.343V186.334H381.412V187.343H382.729ZM382.729 185.826V184.884H383.363V187.876H380.77V184.884H381.412V185.826H382.729ZM381.962 183.709C382.704 183.709 383.238 183.225 383.238 182.55C383.238 181.875 382.704 181.4 381.962 181.4C381.22 181.4 380.687 181.875 380.687 182.55C380.687 183.225 381.22 183.709 381.962 183.709ZM385.388 182.817H383.871C383.738 183.692 382.987 184.275 381.962 184.275C380.845 184.275 380.037 183.575 380.037 182.55C380.037 181.525 380.845 180.833 381.962 180.833C382.971 180.833 383.721 181.4 383.863 182.258H385.388V180.508H386.08V184.459H385.388V182.817ZM385.48 184.834V185.467C385.48 186.259 385.946 187.076 386.838 187.426L386.497 187.943C385.821 187.659 385.371 187.151 385.146 186.534C384.905 187.143 384.454 187.659 383.804 187.943L383.454 187.426C384.346 187.043 384.813 186.234 384.813 185.467V184.834H385.48ZM390.964 180.666C392.581 180.666 393.589 181.191 393.589 182.083C393.589 182.967 392.581 183.492 390.964 183.492C389.347 183.492 388.338 182.967 388.338 182.083C388.338 181.191 389.347 180.666 390.964 180.666ZM390.964 181.208C389.78 181.208 389.038 181.533 389.038 182.083C389.038 182.633 389.78 182.958 390.964 182.958C392.147 182.958 392.889 182.633 392.889 182.083C392.889 181.533 392.147 181.208 390.964 181.208ZM388.421 185.417H393.523V187.876H388.421V185.417ZM392.856 185.959H389.088V187.326H392.856V185.959ZM387.588 184.134H394.348V184.684H387.588V184.134Z" fill="#4D4C61"/>
<rect x="409.53" y="178.799" width="10.1213" height="10.1213" rx="2.0838" fill="white"/>
<rect x="409.53" y="178.799" width="10.1213" height="10.1213" rx="2.0838" stroke="#C8CAD0" stroke-width="0.595372"/>
<path d="M424.363 181.3H427.781C427.781 183.425 426.806 185.351 424.388 186.559L424.013 186.026C425.922 185.067 426.947 183.634 427.106 181.866H424.363V181.3ZM430.915 183.534V184.1H429.715V187.976H429.031V180.499H429.715V183.534H430.915ZM433.181 189.001C432.415 187.751 431.956 186.409 431.956 184.767C431.956 183.133 432.415 181.783 433.181 180.541L433.656 180.758C432.931 181.95 432.59 183.35 432.59 184.767C432.59 186.184 432.931 187.593 433.656 188.776L433.181 189.001ZM439.899 180.508H440.582V184.784H439.899V180.508ZM435.748 185.184H440.582V187.876H435.748V185.184ZM439.915 185.726H436.414V187.326H439.915V185.726ZM436.565 180.9C437.698 180.9 438.523 181.608 438.523 182.642C438.523 183.675 437.698 184.384 436.565 184.384C435.439 184.384 434.622 183.675 434.622 182.642C434.622 181.608 435.439 180.9 436.565 180.9ZM436.565 181.466C435.823 181.466 435.289 181.958 435.289 182.642C435.289 183.333 435.823 183.817 436.565 183.817C437.315 183.817 437.856 183.333 437.856 182.642C437.856 181.958 437.315 181.466 436.565 181.466ZM444.766 181.15V182.492C444.766 183.859 445.658 185.234 446.766 185.734L446.358 186.284C445.508 185.867 444.791 184.984 444.432 183.917C444.091 185.042 443.374 185.976 442.499 186.426L442.082 185.867C443.182 185.342 444.091 183.909 444.091 182.492V181.15H444.766ZM447.55 180.499H448.233V187.993H447.55V180.499ZM450.166 189.001L449.7 188.776C450.416 187.593 450.766 186.184 450.766 184.767C450.766 183.35 450.416 181.95 449.7 180.758L450.166 180.541C450.941 181.783 451.4 183.133 451.4 184.767C451.4 186.409 450.941 187.751 450.166 189.001ZM455.13 184.134L454.872 183.592C456.172 183.4 457.464 182.542 457.464 181.558V181.516H455.105V180.966H460.565V181.516H458.222V181.558C458.222 182.542 459.514 183.4 460.831 183.592L460.565 184.134C459.406 183.934 458.297 183.308 457.847 182.425C457.389 183.308 456.289 183.934 455.13 184.134ZM461.223 184.759L461.231 185.317H458.172V187.976H457.489V185.317H454.472V184.759H461.223ZM468.582 184.15L468.291 184.717C467.149 184.475 465.974 183.7 465.49 182.633C465.007 183.7 463.84 184.475 462.689 184.717L462.406 184.15C463.715 183.917 465.132 182.817 465.132 181.575V181H465.849V181.575C465.849 182.817 467.274 183.917 468.582 184.15ZM465.832 186.443H468.916V187.001H462.131V186.443H465.148V184.625H465.832V186.443Z" fill="#4D4C61"/>
<g clip-path="url(#clip1_5308_157631)">
<circle cx="479.046" cy="183.856" r="3.86992" stroke="#9393A3" stroke-width="0.595372"/>
<path d="M479.049 182.669V182.67" stroke="#9393A3" stroke-width="1.19074" stroke-linecap="round"/>
<path d="M479.051 184.157L479.051 185.943" stroke="#9393A3" stroke-width="0.595372" stroke-linecap="round"/>
</g>
<path fill-rule="evenodd" clip-rule="evenodd" d="M683.213 204.697L149.76 204.697L149.76 204.102L683.213 204.102L683.213 204.697Z" fill="#EAEBF0"/>
<path d="M154.519 225.397L154.161 225.93C153.352 225.63 152.71 225.013 152.377 224.247C152.069 225.122 151.402 225.805 150.527 226.139L150.168 225.597C151.302 225.188 152.027 224.172 152.027 223.03V222.263H152.71V223.088C152.71 224.097 153.444 225.03 154.519 225.397ZM153.627 228.814C154.728 228.814 155.403 228.506 155.403 227.989C155.403 227.464 154.728 227.156 153.627 227.156C152.519 227.156 151.844 227.464 151.844 227.989C151.844 228.506 152.519 228.814 153.627 228.814ZM153.627 226.622C155.144 226.622 156.086 227.114 156.086 227.989C156.086 228.856 155.144 229.348 153.627 229.348C152.102 229.348 151.16 228.856 151.16 227.989C151.16 227.114 152.102 226.622 153.627 226.622ZM156.003 223.813H157.111V224.38H156.003V226.414H155.319V221.888H156.003V223.813ZM159.67 222.588V223.988C159.67 225.188 160.228 226.455 161.212 227.056L160.82 227.589C160.111 227.156 159.611 226.364 159.345 225.455C159.078 226.447 158.536 227.289 157.794 227.747L157.369 227.239C158.394 226.639 159.011 225.297 159.011 224.013V222.588H159.67ZM161.637 224.563V222.046H162.279V228.989H161.637V225.13H160.403V224.563H161.637ZM163.154 221.879H163.804V229.356H163.154V221.879ZM165.37 225.514L165.112 224.972C166.412 224.78 167.704 223.922 167.704 222.938V222.896H165.345V222.346H170.805V222.896H168.463V222.938C168.463 223.922 169.755 224.78 171.072 224.972L170.805 225.514C169.646 225.313 168.538 224.688 168.088 223.805C167.629 224.688 166.529 225.313 165.37 225.514ZM171.463 226.139L171.472 226.697H168.413V229.356H167.729V226.697H164.712V226.139H171.463ZM178.406 225.53L178.114 226.097C176.972 225.855 175.797 225.08 175.314 224.013C174.83 225.08 173.663 225.855 172.513 226.097L172.23 225.53C173.538 225.297 174.955 224.197 174.955 222.955V222.379H175.672V222.955C175.672 224.197 177.097 225.297 178.406 225.53ZM175.655 227.822H178.739V228.381H171.954V227.822H174.972V226.005H175.655V227.822Z" fill="#5E5E70"/>
<rect x="192.925" y="215.117" width="342.339" height="20.838" rx="3.27455" fill="white"/>
<rect x="192.925" y="215.117" width="342.339" height="20.838" rx="3.27455" stroke="#DEDFE5" stroke-width="0.595372"/>
<path d="M201.216 229.619C202.383 229.619 203.075 229.328 203.075 228.803C203.075 228.278 202.383 227.986 201.216 227.986C200.033 227.986 199.341 228.278 199.341 228.803C199.341 229.328 200.033 229.619 201.216 229.619ZM201.216 227.452C202.8 227.452 203.767 227.936 203.767 228.803C203.767 229.669 202.8 230.153 201.216 230.153C199.616 230.153 198.649 229.669 198.649 228.803C198.649 227.936 199.616 227.452 201.216 227.452ZM201.558 226.369H204.601V226.919H197.832V226.369H200.875V225.502H198.683V223.018H203.759V223.568H199.366V224.952H203.809V225.502H201.558V226.369ZM205.267 231.12L205.083 230.67C205.608 230.436 205.917 230.028 205.917 229.536C205.884 229.544 205.859 229.544 205.825 229.544C205.533 229.544 205.267 229.361 205.267 229.011C205.267 228.686 205.533 228.478 205.842 228.478C206.242 228.478 206.484 228.819 206.484 229.378C206.484 230.178 206.017 230.803 205.267 231.12ZM207.595 225.985L207.387 225.46C208.779 225.327 209.929 224.768 209.995 223.952H207.687V223.41H210.029V222.651H210.712V223.41H213.055V223.952H210.737C210.804 224.768 211.946 225.327 213.355 225.46L213.146 225.985C211.913 225.86 210.821 225.419 210.371 224.685C209.912 225.419 208.829 225.86 207.595 225.985ZM210.362 229.628C211.546 229.628 212.229 229.369 212.229 228.903C212.229 228.436 211.546 228.169 210.362 228.169C209.179 228.169 208.495 228.436 208.495 228.903C208.495 229.369 209.179 229.628 210.362 229.628ZM210.362 227.661C211.971 227.661 212.921 228.094 212.921 228.903C212.921 229.711 211.971 230.145 210.362 230.145C208.754 230.145 207.803 229.711 207.803 228.903C207.803 228.094 208.754 227.661 210.362 227.661ZM206.986 226.477H213.746V227.027H206.986V226.477ZM214.421 231.12L214.237 230.67C214.763 230.436 215.071 230.028 215.071 229.536C215.038 229.544 215.013 229.544 214.979 229.544C214.688 229.544 214.421 229.361 214.421 229.011C214.421 228.686 214.688 228.478 214.996 228.478C215.396 228.478 215.638 228.819 215.638 229.378C215.638 230.178 215.171 230.803 214.421 231.12ZM222.542 223.768V224.327H216.474V223.768H219.183V222.793H219.866V223.768H222.542ZM217.758 226.252C217.758 226.811 218.433 227.144 219.525 227.144C220.6 227.144 221.267 226.811 221.267 226.252C221.267 225.702 220.6 225.369 219.525 225.369C218.433 225.369 217.758 225.702 217.758 226.252ZM219.866 228.719H222.917V229.278H216.141V228.719H219.183V227.669C217.866 227.594 217.066 227.086 217.066 226.252C217.066 225.352 218.008 224.835 219.525 224.835C221.017 224.835 221.959 225.352 221.959 226.252C221.959 227.086 221.167 227.586 219.866 227.669V228.719ZM224.942 231.178C224.175 229.928 223.717 228.586 223.717 226.944C223.717 225.31 224.175 223.96 224.942 222.718L225.417 222.935C224.692 224.127 224.35 225.527 224.35 226.944C224.35 228.361 224.692 229.77 225.417 230.953L224.942 231.178ZM231.926 222.676V226.51H231.242V222.676H231.926ZM226.625 224.61C226.625 225.252 227.166 225.71 227.892 225.71C228.625 225.71 229.159 225.252 229.159 224.61C229.159 223.96 228.625 223.501 227.892 223.501C227.166 223.501 226.625 223.96 226.625 224.61ZM229.825 224.61C229.825 225.594 229.009 226.26 227.892 226.26C226.775 226.26 225.966 225.594 225.966 224.61C225.966 223.618 226.775 222.943 227.892 222.943C229.009 222.943 229.825 223.618 229.825 224.61ZM227.775 229.511H232.176V230.053H227.1V228.177H231.251V227.419H227.083V226.877H231.926V228.686H227.775V229.511ZM238.277 225.652V224.552H234.567V225.652H238.277ZM238.96 222.976V226.21H233.892V222.976H234.567V224.002H238.277V222.976H238.96ZM239.819 227.111V227.661H236.751V230.161H236.068V227.661H233.034V227.111H239.819ZM240.476 231.12L240.293 230.67C240.818 230.436 241.127 230.028 241.127 229.536C241.093 229.544 241.068 229.544 241.035 229.544C240.743 229.544 240.476 229.361 240.476 229.011C240.476 228.686 240.743 228.478 241.052 228.478C241.452 228.478 241.693 228.819 241.693 229.378C241.693 230.178 241.227 230.803 240.476 231.12ZM247.494 224.985H249.111V222.685H249.803V228.202H249.111V225.544H247.494V224.985ZM244.135 223.26H247.528C247.528 225.185 246.169 226.644 244.052 227.344L243.76 226.794C245.469 226.227 246.644 225.16 246.794 223.818H244.135V223.26ZM245.761 229.428H249.995V229.986H245.077V227.644H245.761V229.428ZM256.104 224.66V223.468H252.436V224.66H256.104ZM256.779 222.926V225.202H251.77V222.926H256.779ZM257.654 226.377H254.612V227.111H256.787V228.794H252.395V229.536H257.013V230.07H251.728V228.294H256.112V227.627H251.703V227.111H253.928V226.377H250.886V225.827H257.654V226.377ZM263.56 224.743H265.061V222.685H265.752V228.161H265.061V225.302H263.56V224.743ZM264.002 226.502L263.66 227.036C262.827 226.736 262.185 226.11 261.86 225.344C261.535 226.194 260.851 226.886 259.976 227.202L259.618 226.669C260.726 226.269 261.501 225.277 261.501 224.218V223.843H259.834V223.285H263.827V223.843H262.185V224.21C262.185 225.185 262.918 226.119 264.002 226.502ZM261.66 229.428H265.961V229.986H260.968V227.677H261.66V229.428ZM269.019 224.618V224.977C269.019 226.169 269.619 227.402 270.628 227.944L270.236 228.461C269.511 228.052 268.978 227.294 268.702 226.394C268.444 227.344 267.919 228.177 267.185 228.619L266.785 228.111C267.794 227.511 268.369 226.202 268.369 224.977V224.618H266.985V224.052H268.369V222.943H269.028V224.052H270.403V224.618H269.019ZM271.036 225.627V222.851H271.686V229.761H271.036V226.194H269.894V225.627H271.036ZM272.537 222.676H273.195V230.145H272.537V222.676ZM274.478 231.178L274.011 230.953C274.728 229.77 275.078 228.361 275.078 226.944C275.078 225.527 274.728 224.127 274.011 222.935L274.478 222.718C275.253 223.96 275.712 225.31 275.712 226.944C275.712 228.586 275.253 229.928 274.478 231.178ZM279.57 226.26V223.893H277.47V226.26H279.57ZM280.237 223.343V226.802H276.803V223.343H280.237ZM278.328 227.636V229.428H282.629V229.986H277.645V227.636H278.328ZM282.296 224.952H283.396V225.527H282.296V228.144H281.612V222.668H282.296V224.952ZM290.644 222.685H291.327V226.694H290.644V222.685ZM286.51 227.061H287.185V227.977H290.652V227.061H291.327V230.053H286.51V227.061ZM287.185 228.511V229.503H290.652V228.511H287.185ZM287.31 223.035C288.443 223.035 289.268 223.735 289.268 224.752C289.268 225.785 288.443 226.477 287.31 226.477C286.184 226.477 285.368 225.785 285.368 224.752C285.368 223.735 286.184 223.035 287.31 223.035ZM287.31 223.601C286.568 223.601 286.034 224.077 286.034 224.752C286.034 225.435 286.568 225.91 287.31 225.91C288.068 225.91 288.602 225.435 288.602 224.752C288.602 224.077 288.068 223.601 287.31 223.601ZM296.394 226.202L296.461 226.752C295.544 226.911 294.786 226.936 293.294 226.936H292.76V224.718H295.294V223.685H292.735V223.126H295.961V225.243H293.427V226.377C294.811 226.377 295.528 226.344 296.394 226.202ZM293.594 228.236V227.677H298.603V230.161H297.911V228.236H293.594ZM297.911 222.685H298.603V227.277H297.911V225.894H296.453V225.344H297.911V224.343H296.453V223.785H297.911V222.685ZM301.545 227.852C302.12 227.852 302.537 227.377 302.537 226.71C302.537 226.06 302.12 225.585 301.545 225.585C300.961 225.585 300.553 226.06 300.553 226.71C300.553 227.377 300.961 227.852 301.545 227.852ZM301.545 225.01C302.47 225.01 303.145 225.71 303.145 226.71C303.145 227.727 302.47 228.419 301.545 228.419C300.62 228.419 299.945 227.727 299.945 226.71C299.945 225.71 300.62 225.01 301.545 225.01ZM301.878 222.893V223.952H303.395V224.51H299.686V223.952H301.203V222.893H301.878ZM305.371 222.668H306.029V230.145H305.371V226.385H304.412V229.786H303.77V222.843H304.412V225.827H305.371V222.668ZM307.612 226.31L307.354 225.769C308.654 225.577 309.946 224.718 309.946 223.735V223.693H307.587V223.143H313.047V223.693H310.705V223.735C310.705 224.718 311.997 225.577 313.314 225.769L313.047 226.31C311.888 226.11 310.78 225.485 310.33 224.602C309.871 225.485 308.771 226.11 307.612 226.31ZM313.705 226.936L313.714 227.494H310.655V230.153H309.971V227.494H306.954V226.936H313.705ZM316.414 223.385V224.785C316.414 225.985 316.972 227.252 317.956 227.852L317.564 228.386C316.855 227.952 316.355 227.161 316.089 226.252C315.822 227.244 315.28 228.086 314.538 228.544L314.113 228.036C315.138 227.436 315.755 226.094 315.755 224.81V223.385H316.414ZM318.381 225.36V222.843H319.023V229.786H318.381V225.927H317.147V225.36H318.381ZM319.898 222.676H320.548V230.153H319.898V222.676ZM323.79 226.869V228.628H325.873V226.869C325.557 226.944 325.198 226.986 324.823 226.986C324.456 226.986 324.098 226.944 323.79 226.869ZM324.823 223.685C323.623 223.685 322.764 224.235 322.764 225.068C322.764 225.902 323.623 226.452 324.823 226.452C326.023 226.452 326.89 225.902 326.89 225.068C326.89 224.235 326.023 223.685 324.823 223.685ZM326.557 228.628H328.232V229.194H321.439V228.628H323.106V226.61C322.481 226.285 322.106 225.744 322.106 225.068C322.106 223.902 323.24 223.151 324.823 223.151C326.415 223.151 327.54 223.902 327.54 225.068C327.54 225.744 327.174 226.277 326.557 226.602V228.628ZM329.415 229.644C329.115 229.644 328.865 229.411 328.865 229.069C328.865 228.719 329.115 228.478 329.415 228.478C329.715 228.478 329.965 228.719 329.965 229.069C329.965 229.411 329.715 229.644 329.415 229.644Z" fill="#B6B6C2"/>
<g clip-path="url(#clip2_5308_157631)">
<circle cx="545.085" cy="225.533" r="3.86992" stroke="#9393A3" stroke-width="0.595372"/>
<path d="M545.086 224.345V224.346" stroke="#9393A3" stroke-width="1.19074" stroke-linecap="round"/>
<path d="M545.088 225.834L545.088 227.62" stroke="#9393A3" stroke-width="0.595372" stroke-linecap="round"/>
</g>
<path d="M150.643 253.647H154.144C154.144 255.806 153.152 257.706 150.668 258.923L150.302 258.365C152.31 257.406 153.311 255.972 153.452 254.197H150.643V253.647ZM155.653 252.838H156.336V260.315H155.653V252.838ZM158.461 256.164V257.956C159.786 257.956 160.72 257.898 161.82 257.714L161.887 258.265C160.737 258.465 159.77 258.515 158.361 258.515H157.778V253.514H161.262V254.072H158.461V255.614H161.095V256.164H158.461ZM164.437 255.839V256.414H163.204V260.307H162.52V252.838H163.204V255.839H164.437ZM170.527 256.448L170.202 256.973C169.351 256.706 168.701 256.156 168.368 255.447C168.043 256.231 167.368 256.831 166.484 257.114L166.151 256.581C167.259 256.239 168.018 255.372 168.018 254.38V254.264H166.359V253.714H168.018V252.797H168.701V253.714H170.352V254.264H168.701V254.38C168.701 255.289 169.426 256.114 170.527 256.448ZM167.926 258.156V259.665H171.277V258.156H167.926ZM167.259 260.215V257.614H171.952V260.215H167.259ZM173.061 254.73V255.297H171.952V257.264H171.269V252.838H171.952V254.73H173.061ZM178.678 254.33V254.147H174.119V253.589H179.361V254.33C179.361 255.256 179.361 256.281 179.078 257.789L178.395 257.714C178.678 256.281 178.678 255.231 178.678 254.33ZM176.719 258.706H180.17V259.265H173.41V258.706H176.036V256.031H176.719V258.706Z" fill="#5E5E70"/>
<rect x="192.925" y="246.076" width="342.339" height="20.838" rx="3.27455" fill="white"/>
<rect x="192.925" y="246.076" width="342.339" height="20.838" rx="3.27455" stroke="#DEDFE5" stroke-width="0.595372"/>
<path d="M202.15 257.153L201.792 257.686C200.983 257.386 200.341 256.769 200.008 256.002C199.699 256.878 199.033 257.561 198.157 257.895L197.799 257.353C198.933 256.944 199.658 255.927 199.658 254.785V254.019H200.341V254.844C200.341 255.852 201.075 256.786 202.15 257.153ZM201.258 260.57C202.358 260.57 203.034 260.262 203.034 259.745C203.034 259.22 202.358 258.911 201.258 258.911C200.15 258.911 199.474 259.22 199.474 259.745C199.474 260.262 200.15 260.57 201.258 260.57ZM201.258 258.378C202.775 258.378 203.717 258.87 203.717 259.745C203.717 260.612 202.775 261.104 201.258 261.104C199.733 261.104 198.791 260.612 198.791 259.745C198.791 258.87 199.733 258.378 201.258 258.378ZM203.634 255.569H204.742V256.136H203.634V258.17H202.95V253.644H203.634V255.569ZM207.301 254.344V255.744C207.301 256.944 207.859 258.211 208.843 258.811L208.451 259.345C207.742 258.911 207.242 258.12 206.975 257.211C206.709 258.203 206.167 259.045 205.425 259.503L205 258.995C206.025 258.395 206.642 257.053 206.642 255.769V254.344H207.301ZM209.268 256.319V253.802H209.909V260.745H209.268V256.886H208.034V256.319H209.268ZM210.785 253.635H211.435V261.112H210.785V253.635ZM214.448 257.269L214.19 256.728C215.49 256.536 216.782 255.677 216.782 254.694V254.652H214.423V254.102H219.883V254.652H217.541V254.694C217.541 255.677 218.833 256.536 220.15 256.728L219.883 257.269C218.724 257.069 217.616 256.444 217.166 255.561C216.707 256.444 215.607 257.069 214.448 257.269ZM220.541 257.895L220.55 258.453H217.491V261.112H216.807V258.453H213.79V257.895H220.541ZM227.484 257.286L227.192 257.853C226.05 257.611 224.875 256.836 224.392 255.769C223.908 256.836 222.741 257.611 221.591 257.853L221.308 257.286C222.616 257.053 224.033 255.952 224.033 254.71V254.135H224.75V254.71C224.75 255.952 226.175 257.053 227.484 257.286ZM224.733 259.578H227.817V260.137H221.033V259.578H224.05V257.761H224.733V259.578ZM233.518 254.944V254.335H229.134V253.852H234.193V255.411H229.826V256.052H234.327V256.544H229.15V254.944H233.518ZM229.784 259.828V260.52H234.452V261.012H229.109V259.353H233.543V258.728H229.092V258.236H234.218V259.828H229.784ZM228.284 257.111H235.06V257.628H228.284V257.111ZM239.174 255.069V255.744C239.174 257.044 239.732 258.345 240.766 258.928L240.349 259.428C239.624 258.995 239.107 258.195 238.849 257.244C238.591 258.27 238.049 259.145 237.307 259.612L236.89 259.103C237.932 258.478 238.516 257.119 238.516 255.744V255.069H237.099V254.51H240.508V255.069H239.174ZM241.174 256.319V253.802H241.825V260.72H241.174V256.878H239.941V256.319H241.174ZM242.675 253.627H243.333V261.104H242.675V253.627ZM245.325 255.869C245.325 256.569 245.892 257.053 246.65 257.053C247.434 257.053 247.992 256.569 247.992 255.869C247.992 255.177 247.434 254.702 246.65 254.702C245.892 254.702 245.325 255.177 245.325 255.869ZM246.992 257.611V258.878C247.717 258.836 248.459 258.778 249.151 258.67L249.209 259.178C247.525 259.487 245.716 259.503 244.366 259.503L244.283 258.928C244.883 258.928 245.575 258.928 246.308 258.903V257.611C245.341 257.486 244.658 256.811 244.658 255.869C244.658 254.827 245.5 254.119 246.65 254.119C247.825 254.119 248.659 254.827 248.659 255.869C248.659 256.811 247.984 257.494 246.992 257.611ZM249.642 253.627H250.326V261.129H249.642V253.627ZM255.918 254.552V255.102H251.509V254.552H253.368V253.635H254.051V254.552H255.918ZM252.576 256.903C252.576 257.428 253.034 257.761 253.709 257.761C254.384 257.761 254.851 257.428 254.851 256.903C254.851 256.386 254.384 256.052 253.709 256.052C253.034 256.052 252.576 256.386 252.576 256.903ZM255.501 256.903C255.501 257.744 254.768 258.295 253.709 258.295C252.651 258.295 251.926 257.744 251.926 256.903C251.926 256.069 252.651 255.519 253.709 255.519C254.768 255.519 255.501 256.069 255.501 256.903ZM253.318 258.803V260.387H257.619V260.945H252.634V258.803H253.318ZM257.285 256.102H258.385V256.678H257.285V259.245H256.602V253.635H257.285V256.102ZM260.624 254.444H264.125C264.125 256.603 263.133 258.503 260.649 259.72L260.282 259.161C262.291 258.203 263.291 256.769 263.433 254.994H260.624V254.444ZM265.633 253.635H266.317V261.112H265.633V253.635ZM268.442 256.961V258.753C269.767 258.753 270.7 258.695 271.801 258.511L271.867 259.061C270.717 259.262 269.75 259.312 268.342 259.312H267.758V254.31H271.242V254.869H268.442V256.411H271.076V256.961H268.442ZM274.418 256.636V257.211H273.184V261.104H272.501V253.635H273.184V256.636H274.418ZM277.182 254.544V258.578C277.898 258.57 278.69 258.52 279.582 258.345L279.649 258.936C278.64 259.128 277.782 259.17 276.973 259.17H276.498V254.544H277.182ZM281.816 253.635H282.474V261.104H281.816V257.244H280.757V260.729H280.115V253.802H280.757V256.678H281.816V253.635ZM286.758 260.578C287.925 260.578 288.625 260.287 288.625 259.778C288.625 259.27 287.925 258.978 286.758 258.978C285.583 258.978 284.891 259.27 284.891 259.778C284.891 260.287 285.583 260.578 286.758 260.578ZM286.758 258.445C288.367 258.445 289.317 258.92 289.317 259.778C289.317 260.637 288.367 261.104 286.758 261.104C285.158 261.104 284.199 260.637 284.199 259.778C284.199 258.92 285.158 258.445 286.758 258.445ZM285.724 256.461V257.336H287.8V256.461C287.492 256.511 287.141 256.544 286.758 256.544C286.383 256.544 286.033 256.511 285.724 256.461ZM284.833 255.161C284.833 255.694 285.566 256.019 286.758 256.019C287.95 256.019 288.683 255.694 288.683 255.161C288.683 254.619 287.95 254.302 286.758 254.302C285.566 254.302 284.833 254.619 284.833 255.161ZM288.475 257.336H290.142V257.886H283.374V257.336H285.049V256.286C284.457 256.044 284.132 255.669 284.132 255.161C284.132 254.285 285.141 253.769 286.758 253.769C288.383 253.769 289.384 254.285 289.384 255.161C289.384 255.661 289.05 256.044 288.475 256.278V257.336ZM294.009 254.277C292.784 254.277 292.084 254.56 292.084 255.061C292.084 255.561 292.784 255.844 294.009 255.844C295.234 255.844 295.934 255.561 295.934 255.061C295.934 254.56 295.234 254.277 294.009 254.277ZM294.009 256.353C292.367 256.353 291.383 255.902 291.383 255.061C291.383 254.219 292.367 253.76 294.009 253.76C295.651 253.76 296.635 254.219 296.635 255.061C296.635 255.902 295.651 256.353 294.009 256.353ZM292.134 259.737V260.495H296.751V261.029H291.467V259.237H295.851V258.57H291.442V258.053H296.526V259.737H292.134ZM290.625 256.861H297.393V257.411H290.625V256.861ZM304.783 253.644H305.466V257.653H304.783V253.644ZM300.648 258.02H301.324V258.936H304.791V258.02H305.466V261.012H300.648V258.02ZM301.324 259.47V260.462H304.791V259.47H301.324ZM301.449 253.994C302.582 253.994 303.407 254.694 303.407 255.711C303.407 256.744 302.582 257.436 301.449 257.436C300.323 257.436 299.507 256.744 299.507 255.711C299.507 254.694 300.323 253.994 301.449 253.994ZM301.449 254.56C300.707 254.56 300.173 255.036 300.173 255.711C300.173 256.394 300.707 256.869 301.449 256.869C302.207 256.869 302.741 256.394 302.741 255.711C302.741 255.036 302.207 254.56 301.449 254.56ZM310.533 257.161L310.6 257.711C309.683 257.87 308.925 257.895 307.433 257.895H306.899V255.677H309.433V254.644H306.874V254.085H310.1V256.202H307.566V257.336C308.95 257.336 309.666 257.303 310.533 257.161ZM307.733 259.195V258.636H312.742V261.12H312.05V259.195H307.733ZM312.05 253.644H312.742V258.236H312.05V256.853H310.592V256.303H312.05V255.302H310.592V254.744H312.05V253.644ZM315.684 258.811C316.259 258.811 316.676 258.336 316.676 257.669C316.676 257.019 316.259 256.544 315.684 256.544C315.1 256.544 314.692 257.019 314.692 257.669C314.692 258.336 315.1 258.811 315.684 258.811ZM315.684 255.969C316.609 255.969 317.284 256.669 317.284 257.669C317.284 258.686 316.609 259.378 315.684 259.378C314.759 259.378 314.083 258.686 314.083 257.669C314.083 256.669 314.759 255.969 315.684 255.969ZM316.017 253.852V254.911H317.534V255.469H313.825V254.911H315.342V253.852H316.017ZM319.51 253.627H320.168V261.104H319.51V257.344H318.551V260.745H317.909V253.802H318.551V256.786H319.51V253.627ZM321.751 257.269L321.493 256.728C322.793 256.536 324.085 255.677 324.085 254.694V254.652H321.726V254.102H327.186V254.652H324.844V254.694C324.844 255.677 326.136 256.536 327.453 256.728L327.186 257.269C326.027 257.069 324.919 256.444 324.469 255.561C324.01 256.444 322.91 257.069 321.751 257.269ZM327.844 257.895L327.853 258.453H324.794V261.112H324.11V258.453H321.093V257.895H327.844ZM330.553 254.344V255.744C330.553 256.944 331.111 258.211 332.095 258.811L331.703 259.345C330.994 258.911 330.494 258.12 330.227 257.211C329.961 258.203 329.419 259.045 328.677 259.503L328.252 258.995C329.277 258.395 329.894 257.053 329.894 255.769V254.344H330.553ZM332.52 256.319V253.802H333.161V260.745H332.52V256.886H331.286V256.319H332.52ZM334.037 253.635H334.687V261.112H334.037V253.635ZM337.929 257.828V259.587H340.012V257.828C339.696 257.903 339.337 257.945 338.962 257.945C338.595 257.945 338.237 257.903 337.929 257.828ZM338.962 254.644C337.762 254.644 336.903 255.194 336.903 256.027C336.903 256.861 337.762 257.411 338.962 257.411C340.162 257.411 341.029 256.861 341.029 256.027C341.029 255.194 340.162 254.644 338.962 254.644ZM340.696 259.587H342.371V260.153H335.578V259.587H337.245V257.569C336.62 257.244 336.245 256.703 336.245 256.027C336.245 254.861 337.378 254.11 338.962 254.11C340.554 254.11 341.679 254.861 341.679 256.027C341.679 256.703 341.313 257.236 340.696 257.561V259.587ZM344.388 262.137C343.621 260.887 343.162 259.545 343.162 257.903C343.162 256.269 343.621 254.919 344.388 253.677L344.863 253.894C344.138 255.086 343.796 256.486 343.796 257.903C343.796 259.32 344.138 260.729 344.863 261.912L344.388 262.137ZM348.454 257.719H349.471V256.002H348.454C348.496 256.269 348.521 256.544 348.521 256.861C348.521 257.178 348.496 257.453 348.454 257.719ZM346.921 258.836C347.521 258.836 347.896 258.078 347.896 256.861C347.896 255.652 347.521 254.894 346.921 254.894C346.329 254.894 345.945 255.652 345.945 256.861C345.945 258.078 346.329 258.836 346.921 258.836ZM349.471 255.444V253.802H350.121V260.745H349.471V258.286H348.313C348.046 259.036 347.571 259.47 346.921 259.47C345.954 259.47 345.329 258.47 345.329 256.861C345.329 255.261 345.954 254.26 346.921 254.26C347.571 254.26 348.054 254.694 348.313 255.444H349.471ZM350.938 253.635H351.588V261.112H350.938V253.635ZM353.205 257.244C352.905 257.244 352.655 257.003 352.655 256.669C352.655 256.319 352.905 256.077 353.205 256.077C353.505 256.077 353.755 256.319 353.755 256.669C353.755 257.003 353.505 257.244 353.205 257.244ZM353.205 260.603C352.905 260.603 352.655 260.37 352.655 260.028C352.655 259.678 352.905 259.437 353.205 259.437C353.505 259.437 353.755 259.678 353.755 260.028C353.755 260.37 353.505 260.603 353.205 260.603ZM354.825 254.369H358.259V259.228H354.825V254.369ZM357.592 254.919H355.491V258.686H357.592V254.919ZM359.826 253.635H360.509V261.129H359.826V253.635ZM367.618 255.927V256.478H362.492V253.935H367.568V254.485H363.176V255.927H367.618ZM365.018 260.57C366.185 260.57 366.885 260.278 366.885 259.753C366.885 259.228 366.193 258.936 365.018 258.936C363.843 258.936 363.151 259.228 363.151 259.753C363.151 260.278 363.843 260.57 365.018 260.57ZM365.018 258.403C366.61 258.403 367.577 258.886 367.577 259.753C367.577 260.62 366.61 261.104 365.018 261.104C363.426 261.104 362.459 260.62 362.459 259.753C362.459 258.886 363.426 258.403 365.018 258.403ZM361.642 257.194H368.41V257.761H361.642V257.194ZM369.335 254.444H372.836C372.836 256.603 371.844 258.503 369.36 259.72L368.993 259.161C371.002 258.203 372.002 256.769 372.144 254.994H369.335V254.444ZM374.344 253.635H375.028V261.112H374.344V253.635ZM376.327 262.079L376.144 261.629C376.669 261.395 376.978 260.987 376.978 260.495C376.944 260.503 376.919 260.503 376.886 260.503C376.594 260.503 376.327 260.32 376.327 259.97C376.327 259.645 376.594 259.437 376.903 259.437C377.303 259.437 377.544 259.778 377.544 260.337C377.544 261.137 377.078 261.762 376.327 262.079ZM381.898 255.944H383.515V253.644H384.207V259.161H383.515V256.503H381.898V255.944ZM378.539 254.219H381.931C381.931 256.144 380.573 257.603 378.456 258.303L378.164 257.753C379.873 257.186 381.048 256.119 381.198 254.777H378.539V254.219ZM380.164 260.387H384.399V260.945H379.481V258.603H380.164V260.387ZM390.508 255.619V254.427H386.84V255.619H390.508ZM391.183 253.885V256.161H386.173V253.885H391.183ZM392.058 257.336H389.016V258.07H391.191V259.753H386.798V260.495H391.416V261.029H386.132V259.253H390.516V258.586H386.107V258.07H388.332V257.336H385.29V256.786H392.058V257.336ZM393.599 254.544V258.578C394.316 258.57 395.108 258.52 396 258.345L396.067 258.936C395.058 259.128 394.199 259.17 393.391 259.17H392.916V254.544H393.599ZM398.234 253.635H398.892V261.104H398.234V257.244H397.175V260.729H396.533V253.802H397.175V256.678H398.234V253.635ZM403.698 254.552C402.964 254.552 402.448 254.944 402.448 255.527C402.448 256.111 402.964 256.503 403.698 256.503C404.423 256.503 404.94 256.111 404.94 255.527C404.94 254.944 404.423 254.552 403.698 254.552ZM403.698 257.061C402.581 257.061 401.789 256.436 401.789 255.527C401.789 254.61 402.581 253.985 403.698 253.985C404.806 253.985 405.598 254.61 405.598 255.527C405.598 256.436 404.806 257.061 403.698 257.061ZM406.157 257.428L406.215 257.936C405.507 258.061 404.781 258.145 404.073 258.186V260.879H403.389V258.228C402.648 258.261 401.939 258.27 401.322 258.27L401.231 257.694C402.623 257.694 404.515 257.678 406.157 257.428ZM406.699 253.644H407.382V261.12H406.699V253.644ZM411.249 255.477V256.052C411.249 257.303 412.099 258.52 413.208 259.003L412.833 259.537C411.974 259.145 411.266 258.336 410.924 257.353C410.59 258.395 409.882 259.245 409.023 259.662L408.64 259.145C409.749 258.62 410.574 257.361 410.574 256.052V255.477H408.84V254.927H410.565V253.769H411.257V254.927H412.958V255.477H411.249ZM413.933 253.627H414.625V261.104H413.933V253.627ZM423.173 255.927V256.478H418.047V253.935H423.123V254.485H418.73V255.927H423.173ZM420.572 260.57C421.739 260.57 422.439 260.278 422.439 259.753C422.439 259.228 421.748 258.936 420.572 258.936C419.397 258.936 418.705 259.228 418.705 259.753C418.705 260.278 419.397 260.57 420.572 260.57ZM420.572 258.403C422.164 258.403 423.131 258.886 423.131 259.753C423.131 260.62 422.164 261.104 420.572 261.104C418.98 261.104 418.013 260.62 418.013 259.753C418.013 258.886 418.98 258.403 420.572 258.403ZM417.197 257.194H423.965V257.761H417.197V257.194ZM424.831 262.137L424.364 261.912C425.081 260.729 425.431 259.32 425.431 257.903C425.431 256.486 425.081 255.086 424.364 253.894L424.831 253.677C425.606 254.919 426.065 256.269 426.065 257.903C426.065 259.545 425.606 260.887 424.831 262.137Z" fill="#B6B6C2"/>
<line x1="68.7891" y1="285.966" x2="683.213" y2="285.966" stroke="#DEDFE5" stroke-width="0.595372"/>
<defs>
<clipPath id="clip0_5308_157631">
<rect width="5.95372" height="6.36921" fill="white" transform="translate(96.5527 106.414)"/>
</clipPath>
<clipPath id="clip1_5308_157631">
<rect width="9.52595" height="9.52595" fill="white" transform="translate(474.285 179.097)"/>
</clipPath>
<clipPath id="clip2_5308_157631">
<rect width="9.52595" height="9.52595" fill="white" transform="translate(540.324 220.773)"/>
</clipPath>
</defs>
</svg>
