<?xml version="1.0" standalone="no"?>
<!DOCTYPE svg PUBLIC "-//W3C//DTD SVG 1.1//EN" "http://www.w3.org/Graphics/SVG/1.1/DTD/svg11.dtd" >
<svg xmlns="http://www.w3.org/2000/svg" xmlns:xlink="http://www.w3.org/1999/xlink" version="1.1">
<metadata>
Created by FontForge 20190801 at Sun Dec 27 13:15:52 2020
 By Jimmy Wärting
</metadata>
<defs>
<font id="NanumSquareOTFEB00" horiz-adv-x="910" vert-adv-y="1000" >
  <font-face 
    font-family="NanumSquareOTFEB00"
    font-weight="700"
    font-stretch="normal"
    units-per-em="1000"
    panose-1="2 0 8 3 0 0 0 0 0 0"
    ascent="800"
    descent="-200"
    x-height="525"
    cap-height="695"
    bbox="-56 -255 1245 864"
    underline-thickness="50"
    underline-position="-100"
    unicode-range="U+0001-FFE6"
  />
<missing-glyph vert-adv-y="1105" 
d="M855 757v-900h-800v900h800zM790 -107l-335 385l-335 -385h670zM95 692v-768l334 384zM121 721l333 -384l334 384h-667zM815 -77v770l-334 -386z" />
    <glyph glyph-name=".notdef" vert-adv-y="1105" 
d="M855 757v-900h-800v900h800zM790 -107l-335 385l-335 -385h670zM95 692v-768l334 384zM121 721l333 -384l334 384h-667zM815 -77v770l-334 -386z" />
    <glyph glyph-name="Korea1.1" horiz-adv-x="250" vert-adv-y="1105" 
 />
    <glyph glyph-name="Korea1.2" unicode="!" horiz-adv-x="320" vert-adv-y="1105" 
d="M94 -72v130h132v-130h-132zM212 155h-104l-19 588h142z" />
    <glyph glyph-name="Korea1.3" unicode="&#x22;" horiz-adv-x="401" vert-adv-y="1105" 
d="M161 488h-104l-13 250h130zM344 488h-104l-13 250h130z" />
    <glyph glyph-name="Korea1.4" unicode="#" horiz-adv-x="643" vert-adv-y="1105" 
d="M471 269h91v-109h-105l-25 -186h-102l24 186h-120l-24 -186h-103l24 186h-89v109h104l18 136h-91v109h106l24 181h103l-24 -181h120l24 181h102l-24 -181h89v-109h-103zM371 269l18 136h-123l-19 -136h124z" />
    <glyph glyph-name="Korea1.5" unicode="$" horiz-adv-x="652" vert-adv-y="1105" 
d="M295 -93v69c-84 6 -180 37 -230 80l61 93c52 -37 102 -58 169 -68v210c-95 23 -210 60 -210 204v18c0 78 50 167 210 181v57h74v-56c72 -4 148 -26 195 -67l-59 -85c-46 32 -92 45 -136 48v-203c176 -47 219 -103 219 -205v-8c0 -146 -97 -191 -219 -199v-69h-74z
M463 164v10c0 46 -9 75 -94 99v-193c71 8 94 46 94 84zM208 517v-17c0 -58 25 -75 87 -94v183c-81 -9 -87 -52 -87 -72z" />
    <glyph glyph-name="Korea1.6" unicode="%" horiz-adv-x="917" vert-adv-y="1105" 
d="M301 -25h-116l431 720h115zM229 709c105 0 171 -67 171 -172v-39c0 -105 -66 -172 -171 -172s-171 67 -171 172v39c0 105 66 172 171 172zM229 411c56 0 72 35 72 89v35c0 53 -16 89 -72 89s-72 -36 -72 -89v-35c0 -54 16 -89 72 -89zM688 349c105 0 171 -67 171 -172
v-39c0 -105 -66 -172 -171 -172s-171 67 -171 172v39c0 105 66 172 171 172zM688 51c56 0 72 35 72 89v35c0 53 -16 89 -72 89s-72 -36 -72 -89v-35c0 -54 16 -89 72 -89z" />
    <glyph glyph-name="Korea1.7" unicode="&#x26;" horiz-adv-x="690" vert-adv-y="1105" 
d="M514 371h117c0 -104 -17 -184 -56 -249l122 -147h-153l-48 60c-58 -49 -128 -72 -197 -72h-8c-121 0 -251 53 -251 195v19c0 97 66 157 162 203l-24 27c-39 44 -55 82 -55 130v12c0 92 70 157 191 157c126 0 189 -75 189 -161v-11c0 -64 -29 -124 -127 -184l118 -135
c14 33 20 66 20 156zM296 75c51 0 94 15 126 46l-150 177c-81 -41 -106 -79 -106 -123v-14c0 -48 50 -86 130 -86zM244 545v-10c0 -25 32 -65 64 -101c63 41 76 64 76 99v7c0 32 -25 61 -70 61c-51 0 -70 -28 -70 -56z" />
    <glyph glyph-name="Korea1.8" unicode="'" horiz-adv-x="218" vert-adv-y="1105" 
d="M161 488h-104l-13 250h130z" />
    <glyph glyph-name="Korea1.9" unicode="(" horiz-adv-x="361" vert-adv-y="1105" 
d="M190 324v-50c0 -152 34 -303 137 -444h-120c-99 118 -147 274 -147 449v40c0 175 48 329 147 447h120c-98 -132 -137 -282 -137 -442z" />
    <glyph glyph-name="Korea1.10" unicode=")" horiz-adv-x="361" vert-adv-y="1105" 
d="M171 274v50c0 160 -39 310 -137 442h120c99 -118 147 -272 147 -447v-40c0 -175 -48 -331 -147 -449h-120c103 141 137 292 137 444z" />
    <glyph glyph-name="Korea1.11" unicode="*" horiz-adv-x="479" vert-adv-y="1105" 
d="M204 475l-112 -83l-51 97l136 49l-136 48l51 97l111 -83l-16 133h106l-17 -133l112 83l50 -97l-136 -48l136 -49l-50 -97l-112 83l17 -132h-106z" />
    <glyph glyph-name="Korea1.12" unicode="+" horiz-adv-x="600" vert-adv-y="1105" 
d="M244 574h112v-205h202v-104h-202v-219h-112v219h-202v104h202v205z" />
    <glyph glyph-name="Korea1.13" unicode="," horiz-adv-x="343" vert-adv-y="1105" 
d="M69 -175l42 232h142l-82 -232h-102z" />
    <glyph glyph-name="Korea1.14" unicode="-" horiz-adv-x="428" vert-adv-y="1105" 
d="M44 282v104h340v-104h-340z" />
    <glyph glyph-name="Korea1.15" unicode="." horiz-adv-x="343" vert-adv-y="1105" 
d="M108 -72v130h127v-130h-127z" />
    <glyph glyph-name="Korea1.16" unicode="/" horiz-adv-x="485" vert-adv-y="1105" 
d="M335 777h124l-310 -908h-123z" />
    <glyph glyph-name="Korea1.17" unicode="0" horiz-adv-x="620" vert-adv-y="1105" 
d="M575 391v-112c0 -204 -88 -316 -261 -316c-171 0 -269 114 -269 316v112c0 202 98 315 266 315c170 0 264 -113 264 -315zM446 278v114c0 165 -65 193 -135 193c-66 0 -137 -29 -137 -193v-114c0 -166 74 -194 140 -194c70 0 132 27 132 194z" />
    <glyph glyph-name="Korea1.18" unicode="1" horiz-adv-x="620" vert-adv-y="1105" 
d="M466 -26h-128v577l-164 -94l-62 104l241 134h113v-721z" />
    <glyph glyph-name="Korea1.19" unicode="2" horiz-adv-x="620" vert-adv-y="1105" 
d="M51 70l265 273c84 86 89 124 89 165v8c0 39 -29 76 -103 76c-52 0 -105 -17 -152 -101l-96 63c34 62 101 152 247 152c163 0 233 -86 233 -185v-10c0 -78 -37 -150 -104 -217l-212 -214h343v-106h-510v96z" />
    <glyph glyph-name="Korea1.20" unicode="3" horiz-adv-x="620" vert-adv-y="1105" 
d="M153 534l-87 68c48 62 110 104 214 104c135 0 223 -72 223 -180v-10c0 -57 -22 -134 -104 -165c95 -17 140 -81 140 -163v-15c0 -109 -85 -210 -262 -210c-84 0 -163 26 -231 80l63 100c70 -51 111 -66 169 -66c90 0 132 39 132 102v13c0 70 -39 102 -131 102h-97v110h86
c90 0 110 42 110 104v8c0 54 -38 78 -98 78c-61 0 -95 -25 -127 -60z" />
    <glyph glyph-name="Korea1.21" unicode="4" horiz-adv-x="620" vert-adv-y="1105" 
d="M374 443h126v-216h98v-103h-98v-150h-126v150h-359v83l328 488h138l-315 -468h208v216z" />
    <glyph glyph-name="Korea1.22" unicode="5" horiz-adv-x="620" vert-adv-y="1105" 
d="M443 204v11c0 77 -47 120 -127 120c-61 0 -105 -26 -137 -57h-86l23 417h409v-106h-294l-8 -188c33 20 74 37 134 37c139 0 215 -104 215 -220v-15c0 -115 -76 -240 -257 -240c-104 0 -184 21 -256 80l62 101c68 -54 126 -65 193 -65c88 0 129 53 129 125z" />
    <glyph glyph-name="Korea1.23" unicode="6" horiz-adv-x="620" vert-adv-y="1105" 
d="M536 656l-47 -106c-45 26 -94 40 -153 40c-74 0 -142 -48 -151 -202c35 41 100 63 162 63c140 0 225 -92 225 -232v-20c0 -134 -96 -236 -256 -236c-184 0 -258 120 -258 305v46c0 318 129 392 286 392c65 0 138 -14 192 -50zM187 218v-15c0 -78 44 -124 126 -124
c88 0 133 45 133 125v11c0 84 -40 124 -128 124c-92 0 -131 -55 -131 -121z" />
    <glyph glyph-name="Korea1.24" unicode="7" horiz-adv-x="620" vert-adv-y="1105" 
d="M567 597l-276 -623h-135l277 613h-381v108h515v-98z" />
    <glyph glyph-name="Korea1.25" unicode="8" horiz-adv-x="620" vert-adv-y="1105" 
d="M210 501v-10c0 -64 53 -93 101 -93c50 0 99 29 99 93v10c0 62 -41 94 -100 94c-56 0 -100 -32 -100 -94zM192 183v-10c0 -62 48 -98 120 -98c71 0 116 36 116 98v10c0 71 -53 103 -116 103s-120 -30 -120 -103zM60 165v17c0 79 58 145 118 163c-69 34 -99 104 -99 151v12
c0 103 72 198 230 198c154 0 232 -95 232 -198v-12c0 -47 -28 -111 -98 -151c62 -19 117 -84 117 -163v-17c0 -115 -87 -202 -247 -202c-166 0 -253 87 -253 202z" />
    <glyph glyph-name="Korea1.26" unicode="9" horiz-adv-x="620" vert-adv-y="1105" 
d="M84 13l47 106c45 -26 94 -40 153 -40c93 0 144 48 151 202c-35 -41 -100 -63 -162 -63c-140 0 -225 91 -225 231v20c0 134 96 237 256 237c184 0 258 -120 258 -305v-46c0 -318 -115 -392 -286 -392c-65 0 -138 14 -192 50zM433 451v15c0 78 -44 124 -126 124
c-88 0 -133 -45 -133 -125v-11c0 -84 40 -124 128 -124c92 0 131 55 131 121z" />
    <glyph glyph-name="Korea1.27" unicode=":" horiz-adv-x="403" vert-adv-y="1105" 
d="M138 1v130h127v-130h-127zM138 451v130h127v-130h-127z" />
    <glyph glyph-name="Korea1.28" unicode=";" horiz-adv-x="403" vert-adv-y="1105" 
d="M138 451v130h127v-130h-127zM99 -95l42 231h142l-82 -231h-102z" />
    <glyph glyph-name="Korea1.29" unicode="&#x3c;" horiz-adv-x="620" vert-adv-y="1105" 
d="M203 325v-6l344 -171v-127l-484 250v99l484 250v-126z" />
    <glyph glyph-name="Korea1.30" unicode="=" horiz-adv-x="620" vert-adv-y="1105" 
d="M74 373v105h472v-105h-472zM74 162v105h472v-105h-472z" />
    <glyph glyph-name="Korea1.31" unicode="&#x3e;" horiz-adv-x="620" vert-adv-y="1105" 
d="M417 319v6l-344 169v126l484 -250v-99l-484 -250v127z" />
    <glyph glyph-name="Korea1.32" unicode="?" horiz-adv-x="557" vert-adv-y="1105" 
d="M319 141h-119v44c0 67 1 102 77 172c89 82 100 102 100 154v10c0 41 -29 78 -108 78c-62 0 -113 -26 -156 -67l-70 88c64 64 144 92 230 92c147 0 232 -78 232 -187v-14c0 -98 -57 -148 -119 -207c-51 -49 -67 -64 -67 -122v-41zM194 -72v130h132v-130h-132z" />
    <glyph glyph-name="Korea1.33" unicode="@" horiz-adv-x="1003" vert-adv-y="1105" 
d="M763 35c-53 0 -104 22 -122 86h-1c-25 -64 -107 -84 -154 -84c-131 0 -208 82 -208 203v80c0 122 77 203 190 203c76 0 115 -27 130 -52v44h115v-307c0 -56 16 -83 58 -83c54 0 85 42 85 173v8c0 223 -133 348 -363 348c-197 0 -346 -131 -346 -360v-14
c0 -247 144 -373 364 -373c96 0 197 21 278 63l35 -81c-83 -45 -191 -71 -310 -71c-294 0 -464 180 -464 461v16c0 258 172 447 443 447c297 0 460 -172 460 -433v-10c0 -120 -40 -264 -190 -264zM401 304v-50c0 -68 30 -107 92 -107c55 0 97 34 97 96v71
c0 63 -30 102 -97 102c-57 0 -92 -31 -92 -112z" />
    <glyph glyph-name="Korea1.34" unicode="A" horiz-adv-x="690" vert-adv-y="1105" 
d="M401 695l271 -721h-139l-70 198h-243l-71 -198h-131l268 721h115zM306 426l-49 -147h169l-49 147c-17 48 -26 76 -36 111c-11 -40 -17 -60 -35 -111z" />
    <glyph glyph-name="Korea1.35" unicode="B" horiz-adv-x="661" vert-adv-y="1105" 
d="M81 -26v721h280c153 0 227 -58 227 -176v-21c0 -63 -28 -124 -114 -145c88 -13 147 -64 147 -164v-25c0 -118 -73 -190 -229 -190h-311zM208 297v-217h116c113 0 166 13 166 98v22c0 75 -48 97 -185 97h-97zM306 589h-98v-188h94c100 0 156 3 156 93v18
c0 61 -44 77 -152 77z" />
    <glyph glyph-name="Korea1.36" unicode="C" horiz-adv-x="658" vert-adv-y="1105" 
d="M356 706c102 0 175 -21 248 -80l-69 -98c-59 50 -114 60 -179 60c-86 0 -172 -43 -172 -222v-74c0 -153 81 -210 171 -210c67 0 141 16 198 75l68 -98c-86 -84 -191 -96 -271 -96c-157 0 -295 88 -295 303v129c0 216 134 311 301 311z" />
    <glyph glyph-name="Korea1.37" unicode="D" horiz-adv-x="700" vert-adv-y="1105" 
d="M81 695h251c214 0 313 -110 313 -309v-103c0 -199 -87 -309 -311 -309h-253v721zM208 587v-505h107c129 0 201 54 201 206v93c0 152 -68 206 -201 206h-107z" />
    <glyph glyph-name="Korea1.38" unicode="E" horiz-adv-x="608" vert-adv-y="1105" 
d="M81 695h464v-106h-337v-194h316v-104h-316v-211h344v-106h-471v721z" />
    <glyph glyph-name="Korea1.39" unicode="F" horiz-adv-x="581" vert-adv-y="1105" 
d="M209 -26h-128v721h464v-108h-336v-206h315v-108h-315v-299z" />
    <glyph glyph-name="Korea1.40" unicode="G" horiz-adv-x="686" vert-adv-y="1105" 
d="M375 706c85 0 172 -21 246 -81l-69 -98c-53 47 -117 63 -177 63c-111 0 -192 -41 -192 -224v-74c0 -157 83 -213 200 -213c47 0 82 7 118 21v173h-151v107h278v-351c-64 -43 -165 -66 -251 -66c-183 0 -322 88 -322 303v129c0 216 135 311 320 311z" />
    <glyph glyph-name="Korea1.41" unicode="H" horiz-adv-x="717" vert-adv-y="1105" 
d="M508 -26v323h-299v-323h-128v721h128v-292h299v292h128v-721h-128z" />
    <glyph glyph-name="Korea1.42" unicode="I" horiz-adv-x="290" vert-adv-y="1105" 
d="M81 -26v721h128v-721h-128z" />
    <glyph glyph-name="Korea1.43" unicode="J" horiz-adv-x="491" vert-adv-y="1105" 
d="M283 210v485h128v-516c0 -160 -86 -216 -226 -216c-60 0 -126 22 -173 63l59 98c42 -32 70 -44 116 -44c63 0 96 31 96 130z" />
    <glyph glyph-name="Korea1.44" unicode="K" horiz-adv-x="666" vert-adv-y="1105" 
d="M641 695l-279 -318l294 -403h-162l-218 310l-67 -73v-237h-128v721h128v-330l284 330h148z" />
    <glyph glyph-name="Korea1.45" unicode="L" horiz-adv-x="558" vert-adv-y="1105" 
d="M81 695h128v-613h329v-108h-457v721z" />
    <glyph glyph-name="Korea1.46" unicode="M" horiz-adv-x="875" vert-adv-y="1105" 
d="M386 94l-149 380c-10 25 -20 57 -37 109v-609h-119v721h182l177 -448l170 448h184v-721h-121v609c-15 -60 -25 -83 -34 -109l-151 -380h-102z" />
    <glyph glyph-name="Korea1.47" unicode="N" horiz-adv-x="721" vert-adv-y="1105" 
d="M81 -26v721h147l246 -437c15 -27 35 -67 46 -114v551h120v-721h-147l-247 438c-18 32 -36 70 -45 111v-549h-120z" />
    <glyph glyph-name="Korea1.48" unicode="O" horiz-adv-x="720" vert-adv-y="1105" 
d="M360 706c164 0 305 -89 305 -312v-119c0 -227 -139 -312 -305 -312s-305 85 -305 312v119c0 223 142 312 305 312zM360 80c98 0 176 45 176 211v87c0 166 -78 211 -176 211c-96 0 -176 -45 -176 -211v-87c0 -166 80 -211 176 -211z" />
    <glyph glyph-name="Korea1.49" unicode="P" horiz-adv-x="636" vert-adv-y="1105" 
d="M81 -26v721h272c173 0 247 -88 247 -206v-21c0 -117 -80 -217 -247 -217h-144v-277h-128zM347 588h-138v-229h127c84 0 135 27 135 111v18c0 79 -51 100 -124 100z" />
    <glyph glyph-name="Korea1.50" unicode="Q" horiz-adv-x="714" vert-adv-y="1105" 
d="M360 706c164 0 305 -89 305 -312v-119c0 -95 -24 -164 -64 -214l83 -82l-73 -75l-93 92c-46 -23 -101 -33 -158 -33c-166 0 -305 85 -305 312v119c0 223 142 312 305 312zM360 80c23 0 45 2 65 8l-85 85l73 75l94 -94c18 32 29 76 29 137v87c0 166 -78 211 -176 211
c-96 0 -176 -45 -176 -211v-87c0 -166 80 -211 176 -211z" />
    <glyph glyph-name="Korea1.51" unicode="R" horiz-adv-x="660" vert-adv-y="1105" 
d="M477 -26l-121 289h-147v-289h-128v721h273c150 0 233 -83 233 -198v-37c0 -75 -38 -140 -112 -173c48 -105 93 -208 141 -313h-139zM338 588h-129v-218h118c99 0 133 38 133 93v30c0 56 -34 95 -122 95z" />
    <glyph glyph-name="Korea1.52" unicode="S" horiz-adv-x="626" vert-adv-y="1105" 
d="M314 78c91 0 131 37 131 86v11c0 58 -45 83 -127 101c-120 26 -255 47 -255 214v13c0 87 63 203 258 203c79 0 152 -13 225 -60l-60 -99c-58 38 -105 45 -163 45c-91 0 -133 -48 -133 -87v-12c0 -70 71 -80 156 -99c170 -38 227 -108 227 -207v-13
c0 -161 -125 -211 -265 -211c-104 0 -202 37 -258 83l62 102c44 -37 116 -70 202 -70z" />
    <glyph glyph-name="Korea1.53" unicode="T" horiz-adv-x="571" vert-adv-y="1105" 
d="M10 695h551v-108h-211v-613h-128v613h-212v108z" />
    <glyph glyph-name="Korea1.54" unicode="U" horiz-adv-x="696" vert-adv-y="1105" 
d="M348 79c105 0 152 48 152 190v426h128v-424c0 -236 -99 -308 -280 -308c-180 0 -280 72 -280 308v424h128v-426c0 -142 47 -190 152 -190z" />
    <glyph glyph-name="Korea1.55" unicode="V" horiz-adv-x="707" vert-adv-y="1105" 
d="M293 -26l-265 721h137l189 -564l196 564h130l-272 -721h-115z" />
    <glyph glyph-name="Korea1.56" unicode="W" horiz-adv-x="992" vert-adv-y="1105" 
d="M223 -26l-196 721h133l132 -535l146 535h123l145 -534l137 534h123l-199 -721h-122l-146 555l-152 -555h-124z" />
    <glyph glyph-name="Korea1.57" unicode="X" horiz-adv-x="669" vert-adv-y="1105" 
d="M634 695l-215 -351l224 -370h-148l-165 291l-160 -291h-144l223 377l-205 344h154l144 -266l149 266h143z" />
    <glyph glyph-name="Korea1.58" unicode="Y" horiz-adv-x="648" vert-adv-y="1105" 
d="M635 695l-247 -436v-285h-128v285l-247 436h143l171 -318l168 318h140z" />
    <glyph glyph-name="Korea1.59" unicode="Z" horiz-adv-x="629" vert-adv-y="1105" 
d="M578 695v-97l-395 -514h414v-110h-572v105l390 506h-366v110h529z" />
    <glyph glyph-name="Korea1.60" unicode="[" horiz-adv-x="422" vert-adv-y="1105" 
d="M380 -60v-110h-293v936h293v-110h-164v-716h164z" />
    <glyph glyph-name="Korea1.61" unicode="\" horiz-adv-x="962" vert-adv-y="1105" 
d="M32 327v71h106l-74 297h127l64 -297h105l78 297h111l70 -297h96l60 297h125l-73 -297h103v-71h-120l-84 -353h-110l-81 353h-96l-89 -353h-106l-88 353h-124zM269 327l32 -158l42 158h-74zM634 327l38 -164l29 164h-67zM491 530l-34 -132h62z" />
    <glyph glyph-name="Korea1.62" unicode="]" horiz-adv-x="422" vert-adv-y="1105" 
d="M42 -170v110h164v716h-164v110h293v-936h-293z" />
    <glyph glyph-name="Korea1.63" unicode="^" horiz-adv-x="524" vert-adv-y="1105" 
d="M482 401h-118l-102 224l-102 -224h-118l162 323h117z" />
    <glyph glyph-name="Korea1.64" unicode="_" horiz-adv-x="520" vert-adv-y="1105" 
d="M520 -75v-75h-520v75h520z" />
    <glyph glyph-name="Korea1.65" unicode="`" horiz-adv-x="620" vert-adv-y="1105" 
d="M440 562h-114l-148 155h149z" />
    <glyph glyph-name="Korea1.66" unicode="a" horiz-adv-x="573" vert-adv-y="1105" 
d="M234 -34c-118 0 -187 57 -187 154v32c0 90 53 157 208 157h126v21c0 68 -30 96 -98 96c-59 0 -110 -19 -156 -55l-62 92c56 39 125 74 219 74c129 0 222 -65 222 -176v-387h-113l-2 68c-21 -49 -99 -76 -157 -76zM381 196v15h-123c-66 0 -89 -27 -89 -70v-12
c0 -36 26 -57 75 -57c53 0 88 11 114 37c23 22 23 46 23 87z" />
    <glyph glyph-name="Korea1.67" unicode="b" horiz-adv-x="613" vert-adv-y="1105" 
d="M198 38h-3v-64h-120v756h126v-259c36 52 107 66 151 66c142 0 215 -92 215 -235v-97c0 -149 -88 -239 -221 -239c-73 0 -123 30 -148 72zM442 219v63c0 93 -34 147 -115 147c-84 0 -128 -55 -128 -130v-117c0 -51 55 -109 131 -109c73 0 112 54 112 146z" />
    <glyph glyph-name="Korea1.68" unicode="c" horiz-adv-x="527" vert-adv-y="1105" 
d="M295 537c104 0 158 -32 201 -65l-61 -92c-45 36 -88 47 -140 47c-63 0 -122 -37 -122 -139v-67c0 -112 69 -144 124 -144c69 0 111 18 150 47l60 -92c-37 -34 -111 -66 -211 -66c-162 0 -250 96 -250 253v69c0 157 95 249 249 249z" />
    <glyph glyph-name="Korea1.69" unicode="d" horiz-adv-x="612" vert-adv-y="1105" 
d="M418 -26v65h-3c-29 -53 -92 -73 -158 -73c-141 0 -211 86 -211 235v97c0 149 87 239 220 239c87 0 129 -35 145 -59v252h126v-756h-119zM170 282v-62c0 -93 39 -147 112 -147c83 0 131 60 131 135v112c0 51 -39 109 -126 109c-80 0 -117 -55 -117 -147z" />
    <glyph glyph-name="Korea1.70" unicode="e" horiz-adv-x="582" vert-adv-y="1105" 
d="M169 299h248v24c0 59 -34 110 -122 110c-84 0 -126 -51 -126 -113v-21zM472 116l52 -91c-53 -36 -123 -59 -226 -59c-127 0 -252 60 -252 257v57c0 179 111 257 251 257s241 -81 241 -242v-91h-369c0 -88 48 -133 136 -133c65 0 112 13 167 45z" />
    <glyph glyph-name="Korea1.71" unicode="f" horiz-adv-x="406" vert-adv-y="1105" 
d="M111 -26v448h-88v103h88v38c0 110 59 173 180 173c41 0 81 -8 104 -16l-20 -101c-21 7 -44 10 -72 10c-44 0 -66 -23 -66 -69v-35h139v-103h-139v-448h-126z" />
    <glyph glyph-name="Korea1.72" unicode="g" horiz-adv-x="612" vert-adv-y="1105" 
d="M413 -20v68h-2c-29 -53 -88 -72 -154 -72c-141 0 -211 86 -211 235v87c0 148 87 239 220 239c86 0 132 -36 149 -60h1v48h121v-546c0 -153 -82 -228 -262 -228c-69 0 -144 25 -189 60l57 98c22 -19 82 -47 134 -47c89 0 136 37 136 118zM170 282v-52
c0 -93 39 -147 112 -147c83 0 131 60 131 135v102c0 51 -39 109 -126 109c-80 0 -117 -55 -117 -147z" />
    <glyph glyph-name="Korea1.73" unicode="h" horiz-adv-x="621" vert-adv-y="1105" 
d="M359 537c99 0 192 -56 192 -204v-359h-126v332c0 82 -34 121 -105 121c-41 0 -119 -18 -119 -127v-326h-126v756h119v-268h2c39 55 98 75 163 75z" />
    <glyph glyph-name="Korea1.74" unicode="i" horiz-adv-x="282" vert-adv-y="1105" 
d="M78 -26v551h126v-551h-126zM75 606v136h132v-136h-132z" />
    <glyph glyph-name="Korea1.75" unicode="j" horiz-adv-x="306" vert-adv-y="1105" 
d="M99 606v136h132v-136h-132zM228 525v-601c0 -103 -47 -173 -175 -173c-41 0 -86 7 -109 15l20 102c29 -8 49 -10 72 -10c46 0 66 18 66 71v596h126z" />
    <glyph glyph-name="Korea1.76" unicode="k" horiz-adv-x="584" vert-adv-y="1105" 
d="M566 525l-214 -228l223 -323h-161l-150 234l-63 -70v-164h-126v756h126v-438l206 233h159z" />
    <glyph glyph-name="Korea1.77" unicode="l" horiz-adv-x="276" vert-adv-y="1105" 
d="M75 -26v756h126v-756h-126z" />
    <glyph glyph-name="Korea1.78" unicode="m" horiz-adv-x="925" vert-adv-y="1105" 
d="M665 537c102 0 190 -70 190 -208v-355h-126v329c0 99 -47 122 -100 122c-49 0 -101 -26 -101 -118v-333h-126v331c0 93 -44 120 -100 120c-59 0 -101 -37 -101 -113v-338h-126v551h119v-70h2c27 50 80 82 151 82c68 0 127 -34 147 -84c39 55 88 84 171 84z" />
    <glyph glyph-name="Korea1.79" unicode="n" horiz-adv-x="621" vert-adv-y="1105" 
d="M359 537c99 0 192 -56 192 -204v-359h-126v332c0 82 -34 121 -105 121c-41 0 -119 -18 -119 -127v-326h-126v551h119v-63h2c39 55 98 75 163 75z" />
    <glyph glyph-name="Korea1.80" unicode="o" horiz-adv-x="608" vert-adv-y="1105" 
d="M304 76c75 0 131 40 131 145v61c0 105 -52 145 -131 145s-131 -40 -131 -145v-61c0 -105 56 -145 131 -145zM304 -34c-156 0 -258 92 -258 253v65c0 162 102 253 258 253s258 -91 258 -253v-65c0 -161 -102 -253 -258 -253z" />
    <glyph glyph-name="Korea1.81" unicode="p" horiz-adv-x="613" vert-adv-y="1105" 
d="M345 -34c-66 0 -115 25 -144 64v-270h-126v765h121v-60c38 56 104 72 155 72c145 0 216 -94 216 -235v-97c0 -148 -87 -239 -222 -239zM442 219v63c0 93 -34 147 -115 147c-84 0 -128 -55 -128 -130v-117c0 -51 55 -109 131 -109c73 0 112 54 112 146z" />
    <glyph glyph-name="Korea1.82" unicode="q" horiz-adv-x="612" vert-adv-y="1105" 
d="M413 -240v278h-3c-29 -53 -87 -72 -153 -72c-141 0 -211 86 -211 235v97c0 149 87 239 220 239c84 0 129 -35 147 -59h2v47h122v-765h-124zM170 282v-62c0 -93 39 -147 112 -147c83 0 131 60 131 135v112c0 51 -39 109 -126 109c-80 0 -117 -55 -117 -147z" />
    <glyph glyph-name="Korea1.83" unicode="r" horiz-adv-x="442" vert-adv-y="1105" 
d="M430 526l-36 -114c-19 8 -38 12 -70 12c-70 0 -123 -52 -123 -123v-327h-126v551h121v-80h2c29 55 76 92 154 92c28 0 58 -4 78 -11z" />
    <glyph glyph-name="Korea1.84" unicode="s" horiz-adv-x="513" vert-adv-y="1105" 
d="M257 73c57 0 94 13 94 55v6c0 38 -12 47 -115 67c-134 26 -187 68 -187 172v10c0 75 59 154 213 154c63 0 139 -7 203 -50l-54 -91c-37 25 -85 35 -133 35c-78 0 -103 -20 -103 -49v-6c0 -39 17 -45 102 -62c140 -28 202 -59 202 -177v-11c0 -86 -79 -160 -219 -160
c-92 0 -179 25 -232 68l56 96c49 -33 104 -57 173 -57z" />
    <glyph glyph-name="Korea1.85" unicode="t" horiz-adv-x="413" vert-adv-y="1105" 
d="M110 130v291h-88v104h88v141h126v-141h139v-104h-139v-290c0 -47 21 -57 54 -57c25 0 49 4 78 16l20 -101c-23 -10 -64 -23 -113 -23c-126 0 -165 61 -165 164z" />
    <glyph glyph-name="Korea1.86" unicode="u" horiz-adv-x="618" vert-adv-y="1105" 
d="M261 -35c-115 0 -191 70 -191 204v356h126v-329c0 -96 45 -121 104 -121c50 0 117 30 117 129v321h126v-551h-120v66h-2c-31 -52 -100 -75 -160 -75z" />
    <glyph glyph-name="Korea1.87" unicode="v" horiz-adv-x="536" vert-adv-y="1105" 
d="M350 -26h-164l-180 551h138l125 -433h4l126 433h131z" />
    <glyph glyph-name="Korea1.88" unicode="w" horiz-adv-x="786" vert-adv-y="1105" 
d="M301 -26h-147l-137 551h135l81 -427h4l100 427h119l95 -427h4l88 427h126l-136 -551h-147l-90 388h-4z" />
    <glyph glyph-name="Korea1.89" unicode="x" horiz-adv-x="547" vert-adv-y="1105" 
d="M524 525l-169 -265l174 -286h-150l-109 201l-110 -201h-142l178 286l-171 265h151l103 -184l106 184h139z" />
    <glyph glyph-name="Korea1.90" unicode="y" horiz-adv-x="559" vert-adv-y="1105" 
d="M15 525h140l125 -407h4l126 407h134l-286 -780l-118 41l71 181z" />
    <glyph glyph-name="Korea1.91" unicode="z" horiz-adv-x="498" vert-adv-y="1105" 
d="M458 525v-100l-270 -341h286v-110h-452v86l282 355h-262v110h416z" />
    <glyph glyph-name="Korea1.92" unicode="{" horiz-adv-x="479" vert-adv-y="1105" 
d="M35 255v105c73 1 106 20 106 77v178c0 98 66 151 168 151h121v-111h-98c-57 0 -62 -24 -62 -92v-133c0 -47 -18 -107 -88 -123c68 -15 88 -73 88 -123v-159c0 -68 7 -84 62 -84h98v-111h-121c-102 0 -168 46 -168 143v203c0 58 -33 78 -106 79z" />
    <glyph glyph-name="Korea1.93" unicode="|" horiz-adv-x="307" vert-adv-y="1105" 
d="M217 765v-935h-127v935h127z" />
    <glyph glyph-name="Korea1.94" unicode="}" horiz-adv-x="479" vert-adv-y="1105" 
d="M437 360v-105c-73 -1 -106 -21 -106 -79v-203c0 -97 -66 -143 -168 -143h-121v111h98c55 0 62 16 62 84v159c0 50 20 108 88 123c-70 16 -88 76 -88 123v133c0 68 -5 92 -62 92h-98v111h121c102 0 168 -53 168 -151v-178c0 -57 33 -76 106 -77z" />
    <glyph glyph-name="Korea1.95" unicode="~" horiz-adv-x="600" vert-adv-y="1105" 
d="M393 222c-94 0 -124 90 -181 90c-33 0 -49 -41 -54 -93h-104c4 113 68 201 155 201c97 0 127 -90 182 -90c25 0 47 19 55 93h104c-6 -133 -72 -201 -157 -201z" />
    <glyph glyph-name="Korea1.96" unicode="&#x20a9;" horiz-adv-x="962" vert-adv-y="1105" 
d="M32 327v71h106l-74 297h127l64 -297h105l78 297h111l70 -297h96l60 297h125l-73 -297h103v-71h-120l-84 -353h-110l-81 353h-96l-89 -353h-106l-88 353h-124zM269 327l32 -158l42 158h-74zM634 327l38 -164l29 164h-67zM491 530l-34 -132h62z" />
    <glyph glyph-name="Korea1.97" unicode="&#x2010;" horiz-adv-x="420" vert-adv-y="1105" 
d="M394 347v-113h-368v113h368z" />
    <glyph glyph-name="Korea1.98" unicode="&#xa9;" horiz-adv-x="808" vert-adv-y="1105" 
d="M418 27c179 0 302 127 302 308c0 185 -127 308 -302 308c-172 0 -298 -123 -298 -308c0 -181 126 -308 298 -308zM418 -33c-221 0 -365 165 -365 368c0 205 144 368 365 368c228 0 369 -163 369 -368c0 -203 -143 -368 -369 -368zM427 545c64 0 105 -15 151 -51l-50 -76
c-29 23 -56 35 -101 35c-51 0 -81 -36 -81 -91v-52c0 -63 34 -96 82 -96c51 0 84 14 111 35l47 -77c-32 -28 -82 -50 -160 -50c-123 0 -186 71 -186 187v53c0 116 70 183 187 183z" />
    <glyph glyph-name="Korea1.99" horiz-adv-x="709" vert-adv-y="1105" 
d="M311 369v326h106l75 -177h2l86 177h100v-326h-87v197l-66 -134h-69l-67 148h-2v-211h-78zM102 369v258h-89v68h272v-68h-89v-258h-94z" />
    <glyph glyph-name="Korea1.100" vert-adv-y="1105" 
d="M121 -74v130h127v-130h-127zM391 -74v130h127v-130h-127zM661 -74v130h127v-130h-127z" />
    <glyph glyph-name="Korea1.101" unicode="&#x3000;" vert-adv-y="1105" 
 />
    <glyph glyph-name="Korea1.102" unicode="&#x3001;" vert-adv-y="1105" 
d="M332 -43l-86 -79c-67 91 -120 145 -200 208l79 74c85 -64 137 -115 207 -203z" />
    <glyph glyph-name="Korea1.103" unicode="&#x3002;" vert-adv-y="1105" 
d="M174 -43c49 0 80 36 80 82c0 44 -31 82 -80 82c-52 0 -79 -38 -79 -82c0 -46 27 -82 79 -82zM174 -114c-93 0 -156 67 -156 153c0 85 63 152 156 152s155 -67 155 -152c0 -86 -64 -153 -155 -153z" />
    <glyph glyph-name="Korea1.104" unicode="&#xb7;" horiz-adv-x="421" vert-adv-y="1105" 
d="M146 238v128h129v-128h-129z" />
    <glyph glyph-name="Korea1.105" unicode="&#x2025;" vert-adv-y="1105" 
d="M248 238v128h129v-128h-129zM532 238v128h129v-128h-129z" />
    <glyph glyph-name="Korea1.106" unicode="&#x2026;" vert-adv-y="1105" 
d="M390 238v128h129v-128h-129zM120 238v128h129v-128h-129zM660 238v128h129v-128h-129z" />
    <glyph glyph-name="Korea1.107" unicode="&#xa8;" horiz-adv-x="418" vert-adv-y="1105" 
d="M57 581v112h110v-112h-110zM251 581v112h110v-112h-110z" />
    <glyph glyph-name="Korea1.108" unicode="&#x3003;" vert-adv-y="1105" 
d="M343 450h138l-158 -319h-86zM535 450h138l-158 -319h-86z" />
    <glyph glyph-name="Korea1.109" unicode="&#xad;" horiz-adv-x="438" vert-adv-y="1105" 
d="M438 357v-82h-438v82h438z" />
    <glyph glyph-name="Korea1.110" unicode="&#x2014;" horiz-adv-x="876" vert-adv-y="1105" 
d="M876 357v-82h-876v82h876z" />
    <glyph glyph-name="Korea1.111" unicode="&#x2016;" vert-adv-y="1105" 
d="M571 780v-960h-57v960h57zM395 780v-960h-56v960h56z" />
    <glyph glyph-name="Korea1.112" unicode="&#xff3c;" vert-adv-y="1105" 
d="M72 758l796 -881l-31 -31l-795 879z" />
    <glyph glyph-name="Korea1.113" unicode="&#x223c;" vert-adv-y="1105" 
d="M701 366l41 -27c-30 -49 -93 -94 -151 -94c-57 0 -93 12 -136 35c-34 18 -83 41 -136 41c-49 0 -85 -26 -110 -63l-41 27c30 49 93 94 151 94c57 0 94 -12 136 -35s83 -41 136 -41c49 0 85 26 110 63z" />
    <glyph glyph-name="Korea1.114" unicode="&#x2018;" horiz-adv-x="200" vert-adv-y="1105" 
d="M188 775l-40 -231h-136l80 231h96z" />
    <glyph glyph-name="Korea1.115" unicode="&#x2019;" horiz-adv-x="200" vert-adv-y="1105" 
d="M12 528l40 231h136l-80 -231h-96z" />
    <glyph glyph-name="Korea1.116" unicode="&#x201c;" horiz-adv-x="350" vert-adv-y="1105" 
d="M186 775l-42 -231h-122l80 231h84zM336 775l-42 -231h-122l80 231h84z" />
    <glyph glyph-name="Korea1.117" unicode="&#x201d;" horiz-adv-x="350" vert-adv-y="1105" 
d="M164 528l42 231h122l-80 -231h-84zM14 528l42 231h122l-80 -231h-84z" />
    <glyph glyph-name="Korea1.118" unicode="&#x3014;" horiz-adv-x="344" vert-adv-y="1105" 
d="M34 613l245 137l36 -61l-207 -116v-542l207 -116l-36 -61l-245 137v622z" />
    <glyph glyph-name="Korea1.119" unicode="&#x3015;" horiz-adv-x="358" vert-adv-y="1105" 
d="M70 750l245 -137v-622l-245 -137l-36 61l207 116v542l-207 116z" />
    <glyph glyph-name="Korea1.120" unicode="&#x3008;" horiz-adv-x="467" vert-adv-y="1105" 
d="M118 301l312 -395l-51 -40l-341 435l340 435l52 -38z" />
    <glyph glyph-name="Korea1.121" unicode="&#x3009;" horiz-adv-x="477" vert-adv-y="1105" 
d="M93 736l341 -435l-340 -435l-54 40l312 395l-312 397z" />
    <glyph glyph-name="Korea1.122" unicode="&#x300a;" horiz-adv-x="504" vert-adv-y="1105" 
d="M234 301l243 -422l-53 -30l-263 452l263 454l53 -32zM101 301l244 -422l-55 -30l-261 452l261 454l55 -32z" />
    <glyph glyph-name="Korea1.123" unicode="&#x300b;" horiz-adv-x="506" vert-adv-y="1105" 
d="M212 755l263 -454l-263 -452l-53 30l244 422c-78 138 -166 286 -244 422zM80 755l261 -454l-261 -452l-55 30l245 422c-78 138 -165 286 -245 422z" />
    <glyph glyph-name="Korea1.124" unicode="&#x300c;" horiz-adv-x="351" vert-adv-y="1105" 
d="M328 769v-75h-220v-363h-85v438h305z" />
    <glyph glyph-name="Korea1.125" unicode="&#x300d;" horiz-adv-x="351" vert-adv-y="1105" 
d="M328 271v-438h-305v75h220v363h85z" />
    <glyph glyph-name="Korea1.126" unicode="&#x300e;" horiz-adv-x="386" vert-adv-y="1105" 
d="M123 672h168v39h-206v-324h38v285zM350 769v-153h-166v-285h-158v438h324z" />
    <glyph glyph-name="Korea1.127" unicode="&#x300f;" horiz-adv-x="376" vert-adv-y="1105" 
d="M85 -109h206v326h-40v-285h-166v-41zM350 273v-438h-324v153h166v285h158z" />
    <glyph glyph-name="Korea1.128" unicode="&#x3010;" horiz-adv-x="374" vert-adv-y="1105" 
d="M349 -131h-324v862h323c-141 -91 -233 -252 -233 -433c0 -179 92 -339 234 -429z" />
    <glyph glyph-name="Korea1.129" unicode="&#x3011;" horiz-adv-x="382" vert-adv-y="1105" 
d="M353 731v-864h-324c140 90 234 252 234 431c0 181 -94 342 -235 433h325z" />
    <glyph glyph-name="Korea1.130" unicode="&#xb1;" horiz-adv-x="620" vert-adv-y="1105" 
d="M253 652h114v-188h202v-106h-202v-190h-114v190h-202v106h202v188zM51 15v106h518v-106h-518z" />
    <glyph glyph-name="Korea1.131" unicode="&#xd7;" horiz-adv-x="620" vert-adv-y="1105" 
d="M54 118l185 197l-185 195l66 64l184 -195l186 198l63 -61l-185 -199l185 -197l-65 -63l-186 197l-185 -197z" />
    <glyph glyph-name="Korea1.132" unicode="&#xf7;" horiz-adv-x="620" vert-adv-y="1105" 
d="M52 369h516v-104h-516v104zM252 459v112h114v-112h-114zM252 63v112h114v-112h-114z" />
    <glyph glyph-name="Korea1.133" unicode="&#x2260;" horiz-adv-x="620" vert-adv-y="1105" 
d="M74 373v105h283l74 114h100l-74 -114h89v-105h-159l-68 -106h227v-105h-297l-72 -112h-100l72 112h-75v105h145l68 106h-213z" />
    <glyph glyph-name="Korea1.134" unicode="&#x2264;" horiz-adv-x="620" vert-adv-y="1105" 
d="M547 147l-480 207v118l480 207v-124l-349 -139v-1l349 -143v-125zM73 133h474v-106h-474v106z" />
    <glyph glyph-name="Korea1.135" unicode="&#x2265;" horiz-adv-x="620" vert-adv-y="1105" 
d="M547 354l-480 -207v125l349 143v1l-349 139v124l480 -207v-118zM67 133h474v-106h-474v106z" />
    <glyph glyph-name="Korea1.136" unicode="&#x221e;" horiz-adv-x="620" vert-adv-y="1105" 
d="M310 243c-42 -55 -87 -89 -162 -89c-86 0 -137 59 -137 146c0 85 50 147 145 147c81 0 118 -45 154 -90c42 55 87 90 162 90c86 0 137 -59 137 -146c0 -85 -50 -147 -145 -147c-81 0 -118 44 -154 89zM466 369c-45 0 -77 -35 -105 -69c25 -33 58 -69 104 -69
c40 0 61 28 61 70s-16 68 -60 68zM154 232c45 0 77 32 105 66c-25 33 -58 72 -104 72c-40 0 -61 -28 -61 -70s16 -68 60 -68z" />
    <glyph glyph-name="Korea1.137" unicode="&#x2234;" horiz-adv-x="620" vert-adv-y="1105" 
d="M209 145c0 -42 -34 -77 -77 -77c-40 0 -77 35 -77 77c0 39 37 76 77 76c43 0 77 -37 77 -76zM565 145c0 -42 -38 -77 -77 -77c-44 0 -77 35 -77 77c0 39 33 76 77 76c39 0 77 -37 77 -76zM376 494c0 -40 -36 -78 -76 -78s-78 38 -78 78c0 42 38 76 78 76s76 -34 76 -76z
" />
    <glyph glyph-name="Korea1.138" unicode="&#xb0;" horiz-adv-x="322" vert-adv-y="1105" 
d="M293 609c0 -72 -52 -132 -132 -132s-132 60 -132 132s52 132 132 132s132 -60 132 -132zM221 609c0 34 -23 62 -60 62s-60 -28 -60 -62s23 -62 60 -62s60 28 60 62z" />
    <glyph glyph-name="Korea1.139" unicode="&#x2032;" horiz-adv-x="399" vert-adv-y="1105" 
d="M169 740h130l-137 -268h-62z" />
    <glyph glyph-name="Korea1.140" unicode="&#x2033;" horiz-adv-x="600" vert-adv-y="1105" 
d="M169 740h131l-137 -268h-63zM369 740h131l-137 -268h-63z" />
    <glyph glyph-name="Korea1.141" unicode="&#x2103;" horiz-adv-x="866" vert-adv-y="1105" 
d="M249 628c0 -52 -42 -96 -101 -96s-101 44 -101 96s42 96 101 96s101 -44 101 -96zM188 628c0 21 -16 39 -40 39s-40 -18 -40 -39s16 -39 40 -39s40 18 40 39zM548 706c102 0 175 -21 248 -80l-69 -98c-59 50 -114 60 -179 60c-86 0 -172 -43 -172 -222v-74
c0 -153 81 -210 171 -210c67 0 141 16 198 75l68 -98c-86 -84 -191 -96 -271 -96c-157 0 -295 88 -295 303v129c0 216 134 311 301 311z" />
    <glyph glyph-name="Korea1.142" unicode="&#x212b;" horiz-adv-x="688" vert-adv-y="1105" 
d="M447 686c0 -23 -8 -44 -21 -61l245 -651h-139l-70 198h-243l-71 -198h-131l241 648c-15 17 -23 40 -23 64c0 55 44 101 106 101s106 -46 106 -101zM305 426l-49 -147h169l-49 147c-17 48 -26 76 -36 111c-11 -40 -17 -60 -35 -111zM384 686c0 22 -18 42 -43 42
s-43 -20 -43 -42s18 -42 43 -42s43 20 43 42z" />
    <glyph glyph-name="Korea1.143" unicode="&#xa2;" horiz-adv-x="520" vert-adv-y="1105" 
d="M266 -26v90c-149 6 -233 97 -233 246v54c0 148 90 236 233 241v90h55v-91c77 -7 118 -35 158 -65l-59 -89c-34 26 -68 41 -99 46v-322c46 6 78 21 109 44l62 -88c-31 -29 -90 -57 -171 -65v-91h-55zM157 364v-52c0 -102 62 -136 109 -140v325c-48 -4 -109 -36 -109 -133z
" />
    <glyph glyph-name="Korea1.144" unicode="&#xa3;" horiz-adv-x="512" vert-adv-y="1105" 
d="M44 293v84h54v84c0 167 110 258 260 258c68 0 128 -18 155 -38l-40 -106c-36 22 -70 27 -108 27c-68 0 -139 -34 -139 -142v-83h208v-84h-208v-42c0 -92 -7 -123 -46 -167v-2h325v-108h-492v85c59 35 85 85 85 184v50h-54z" />
    <glyph glyph-name="Korea1.145" unicode="&#xa5;" horiz-adv-x="558" vert-adv-y="1105" 
d="M220 -26v132h-161v92h161v34h-161v94h141l-195 362h128l150 -298h1l154 298h117l-200 -362h144v-94h-163v-34h163v-92h-163v-132h-116z" />
    <glyph glyph-name="Korea1.146" unicode="&#x2642;" vert-adv-y="1105" 
d="M220 250c0 -93 73 -173 168 -173c92 0 168 80 168 173c0 95 -76 173 -168 173c-95 0 -168 -78 -168 -173zM109 250c0 155 122 279 279 279c63 0 115 -14 161 -49c33 34 51 50 88 87h-79v96h242v-241h-97v79c-32 -33 -53 -55 -88 -88c35 -47 51 -99 51 -163
c0 -153 -124 -278 -278 -278c-157 0 -279 125 -279 278z" />
    <glyph glyph-name="Korea1.147" unicode="&#x2640;" vert-adv-y="1105" 
d="M287 458c0 -93 73 -173 168 -173c93 0 168 80 168 173c0 94 -75 173 -168 173c-95 0 -168 -79 -168 -173zM406 85v99c-132 20 -229 132 -229 274c0 153 121 278 278 278c155 0 278 -125 278 -278c0 -142 -97 -257 -229 -275v-98h132v-99h-132v-128h-98v128h-133v99h133z
" />
    <glyph glyph-name="Korea1.148" unicode="&#x2220;" vert-adv-y="1105" 
d="M760 77v-77h-612v53l470 548l61 -52l-410 -472h491z" />
    <glyph glyph-name="Korea1.149" unicode="&#x22a5;" vert-adv-y="1105" 
d="M774 77v-77h-638v77h278v499h80v-499h280z" />
    <glyph glyph-name="Korea1.150" unicode="&#x2312;" vert-adv-y="1105" 
d="M721 573h-78c-32 61 -94 107 -187 107c-94 0 -157 -46 -191 -107h-77c50 96 135 163 266 163c133 0 215 -67 267 -163z" />
    <glyph glyph-name="Korea1.151" unicode="&#x2202;" horiz-adv-x="548" vert-adv-y="1105" 
d="M243 81c79 0 134 92 147 192c-15 43 -61 87 -124 87c-71 0 -127 -67 -127 -156c0 -77 45 -123 104 -123zM88 595l-35 79c36 21 94 55 182 55c151 0 279 -132 279 -358c0 -252 -132 -382 -282 -382c-142 0 -209 110 -209 214c0 137 92 247 221 247c80 0 130 -42 156 -83h1
c11 125 -46 267 -176 267c-59 0 -103 -20 -137 -39z" />
    <glyph glyph-name="Korea1.152" unicode="&#x2207;" vert-adv-y="1105" 
d="M57 602h796l-398 -630zM455 96l273 439h-548z" />
    <glyph glyph-name="Korea1.153" unicode="&#x2261;" horiz-adv-x="620" vert-adv-y="1105" 
d="M582 277h-545v73h545v-73zM582 433h-545v71h545v-71zM582 121h-545v71h545v-71z" />
    <glyph glyph-name="Korea1.154" unicode="&#x2252;" horiz-adv-x="620" vert-adv-y="1105" 
d="M407 83c0 34 29 62 63 62s61 -28 61 -62s-27 -63 -61 -63s-63 29 -63 63zM77 541c0 34 29 63 61 63c34 0 63 -29 63 -63s-29 -61 -63 -61c-32 0 -61 27 -61 61zM37 360v68h546v-68h-546zM37 198v69h546v-69h-546z" />
    <glyph glyph-name="Korea1.155" unicode="&#xa7;" horiz-adv-x="553" vert-adv-y="1105" 
d="M306 345l-67 20l-9 2c-51 -7 -75 -33 -75 -71c0 -44 19 -64 85 -83l68 -20c2 -1 12 -4 12 -4c52 10 77 34 77 72c0 44 -19 62 -91 84zM255 -172c-80 0 -146 15 -192 42v105c49 -20 93 -38 174 -38c79 0 113 24 113 69c0 42 -14 57 -80 76l-81 22c-96 25 -168 66 -168 175
c0 72 35 114 97 136c-30 29 -50 68 -50 130c0 109 75 179 228 179c84 0 132 -16 170 -36v-104c-36 16 -88 32 -157 32c-65 0 -103 -19 -103 -64c0 -41 14 -56 69 -74l86 -23c112 -30 174 -67 174 -175c0 -76 -33 -119 -94 -140c34 -29 54 -68 54 -124
c0 -123 -83 -188 -240 -188z" />
    <glyph glyph-name="Korea1.156" unicode="&#x203b;" horiz-adv-x="920" vert-adv-y="1105" 
d="M850 619l-323 -321l325 -320c-24 -24 -49 -47 -73 -72c-107 107 -212 217 -319 325l-317 -325c-25 25 -50 48 -75 72l325 320l-323 321l68 75l320 -328l323 328c24 -24 46 -50 69 -75zM556 595c0 -50 -45 -96 -97 -96s-96 46 -96 96c0 52 42 96 95 96c52 0 98 -44 98 -96
zM261 297c0 -50 -46 -96 -97 -96c-50 0 -97 46 -97 96c0 52 46 96 96 96s98 -44 98 -96zM868 297c0 -51 -41 -94 -94 -94c-51 0 -97 43 -97 94c0 55 45 96 96 96c53 0 95 -41 95 -96zM555 -8c0 -51 -43 -95 -96 -95c-52 0 -94 44 -94 95c0 52 40 94 93 94
c52 0 97 -42 97 -94z" />
    <glyph glyph-name="Korea1.157" unicode="&#x2606;" vert-adv-y="1105" 
d="M520 366l-64 193l-64 -193h-208l167 -124l-65 -193l170 118l165 -118l-60 193l164 124h-205zM457 752l110 -325h343l-279 -207l106 -328l-280 197l-285 -197l107 328l-281 207h350z" />
    <glyph glyph-name="Korea1.158" unicode="&#x2605;" vert-adv-y="1105" 
d="M457 752l110 -325h343l-279 -207l106 -328l-280 197l-285 -197l107 328l-281 207h350z" />
    <glyph glyph-name="Korea1.159" unicode="&#x25cb;" vert-adv-y="1105" 
d="M166 324c0 -160 130 -290 290 -290c162 0 289 130 289 290s-127 289 -289 289c-160 0 -290 -129 -290 -289zM90 324c0 201 164 365 366 365c203 0 365 -164 365 -365c0 -203 -162 -367 -365 -367c-202 0 -366 164 -366 367z" />
    <glyph glyph-name="Korea1.160" unicode="&#x25cf;" vert-adv-y="1105" 
d="M90 324c0 201 164 365 366 365c203 0 365 -164 365 -365c0 -203 -162 -367 -365 -367c-202 0 -366 164 -366 367z" />
    <glyph glyph-name="Korea1.161" unicode="&#x25ce;" vert-adv-y="1105" 
d="M306 324c0 -83 67 -150 150 -150c82 0 149 67 149 150c0 80 -67 149 -149 149c-83 0 -150 -69 -150 -149zM241 324c0 118 96 215 215 215s215 -97 215 -215c0 -119 -96 -215 -215 -215s-215 96 -215 215zM168 324c0 -159 129 -288 288 -288c161 0 289 129 289 288
c0 158 -128 289 -289 289c-159 0 -288 -131 -288 -289zM90 324c0 201 164 365 366 365c203 0 365 -164 365 -365c0 -203 -162 -367 -365 -367c-202 0 -366 164 -366 367z" />
    <glyph glyph-name="Korea1.162" unicode="&#x25c7;" vert-adv-y="1105" 
d="M746 323l-291 292l-294 -291l294 -295zM58 323l397 397l396 -397l-396 -397z" />
    <glyph glyph-name="Korea1.163" unicode="&#x25c6;" vert-adv-y="1105" 
d="M456 -74l-398 398l397 396l397 -397z" />
    <glyph glyph-name="Korea1.164" unicode="&#x25a1;" vert-adv-y="1105" 
d="M731 598h-549v-548h549v548zM105 -28v701h701v-701h-701z" />
    <glyph glyph-name="Korea1.165" unicode="&#x25a0;" vert-adv-y="1105" 
d="M805 -28h-702v701h702v-701z" />
    <glyph glyph-name="Korea1.166" unicode="&#x25b3;" vert-adv-y="1105" 
d="M186 37h532l-265 531zM829 -27h-750l376 745z" />
    <glyph glyph-name="Korea1.167" unicode="&#x25b2;" vert-adv-y="1105" 
d="M828 -37h-748l375 745z" />
    <glyph glyph-name="Korea1.168" unicode="&#x25bd;" vert-adv-y="1105" 
d="M720 609h-532l267 -531zM79 674h750l-374 -745z" />
    <glyph glyph-name="Korea1.169" unicode="&#x25bc;" vert-adv-y="1105" 
d="M80 674h748l-373 -745z" />
    <glyph glyph-name="Korea1.170" unicode="&#x2192;" vert-adv-y="1105" 
d="M104 314v59h553l-75 127l15 17l208 -173l-208 -173l-15 17l75 126h-553z" />
    <glyph glyph-name="Korea1.171" unicode="&#x2190;" vert-adv-y="1105" 
d="M805 373v-59h-553l75 -126l-15 -17l-208 173l208 173l15 -17l-75 -127h553z" />
    <glyph glyph-name="Korea1.172" unicode="&#x2191;" vert-adv-y="1105" 
d="M484 0h-58v553l-127 -75l-17 15l173 208l173 -208l-17 -15l-127 75v-553z" />
    <glyph glyph-name="Korea1.173" unicode="&#x2193;" vert-adv-y="1105" 
d="M426 687h58v-552l127 74l17 -15l-173 -208l-173 208l17 15l127 -74v552z" />
    <glyph glyph-name="Korea1.174" unicode="&#x2194;" vert-adv-y="1105" 
d="M207 314l75 -126l-15 -17l-208 173l208 173l15 -17l-75 -127h496l-75 127l15 17l208 -173l-208 -173l-15 17l75 126h-496z" />
    <glyph glyph-name="Korea1.175" unicode="&#x3013;" vert-adv-y="1105" 
d="M779 429v-38h-648v38h648zM779 233v-38h-648v38h648z" />
    <glyph glyph-name="Korea1.176" unicode="&#xab;" vert-adv-y="1105" 
d="M381 303l435 -284l-32 -53l-482 314v45l474 325l39 -51zM173 302l437 -286l-36 -54l-480 318v45l473 328l37 -53z" />
    <glyph glyph-name="Korea1.177" unicode="&#xbb;" vert-adv-y="1105" 
d="M816 325v-45l-480 -318l-34 54l435 286c-98 67 -546 376 -431 298l39 53zM610 325v-45l-482 -314l-34 53l435 282c143 -97 -574 394 -432 298l39 51z" />
    <glyph glyph-name="Korea1.178" unicode="&#x221a;" horiz-adv-x="574" vert-adv-y="1105" 
d="M592 800l-229 -921h-81l-157 421l-75 -31l-23 56l154 64l136 -396h3l191 807h81z" />
    <glyph glyph-name="Korea1.179" unicode="&#x223d;" vert-adv-y="1105" 
d="M829 316c0 -102 -77 -190 -183 -190c-43 0 -83 16 -122 45l32 52c30 -22 58 -32 90 -32c68 0 116 54 116 125c0 62 -46 123 -115 123c-72 0 -115 -48 -160 -133c-32 -61 -90 -179 -225 -179c-90 0 -181 64 -181 189c0 120 88 187 180 187c46 0 88 -18 125 -42l-33 -53
c-28 17 -57 29 -85 29c-72 0 -119 -50 -119 -121c0 -73 43 -122 118 -122c96 0 145 99 174 155c40 80 103 154 204 154c107 0 184 -89 184 -187z" />
    <glyph glyph-name="Korea1.180" unicode="&#x221d;" vert-adv-y="1105" 
d="M301 192c82 0 129 66 158 123c-29 55 -79 124 -158 124c-73 0 -120 -52 -120 -123c0 -75 43 -124 120 -124zM795 460l-34 -51c-27 18 -55 32 -81 32c-72 0 -114 -46 -157 -126c43 -81 85 -126 157 -126c23 0 55 9 79 22l21 -56c-34 -19 -68 -28 -100 -28
c-86 0 -150 62 -190 127c-35 -59 -86 -126 -190 -126c-90 0 -186 63 -186 188c0 120 93 187 185 187c101 0 155 -68 191 -128c40 69 101 128 190 128c39 0 78 -16 115 -43z" />
    <glyph glyph-name="Korea1.181" unicode="&#x2235;" horiz-adv-x="586" vert-adv-y="1105" 
d="M387 507c0 38 37 73 75 73c45 0 73 -35 73 -73c0 -40 -28 -74 -73 -74c-38 0 -75 34 -75 74zM39 507c0 38 35 73 73 73c45 0 75 -35 75 -73c0 -40 -30 -74 -75 -74c-38 0 -73 34 -73 74zM215 142c0 45 33 74 73 74c43 0 75 -29 75 -74c0 -37 -32 -74 -75 -74
c-40 0 -73 37 -73 74z" />
    <glyph glyph-name="Korea1.182" unicode="&#x222b;" horiz-adv-x="345" vert-adv-y="1105" 
d="M336 773l-12 -77c-11 2 -22 4 -35 4c-18 0 -37 -10 -46 -28c-16 -22 -24 -67 -24 -150c0 -149 14 -304 14 -466c0 -91 -13 -151 -37 -187c-27 -47 -71 -66 -119 -66c-26 0 -53 4 -64 12l13 80c11 -3 24 -6 38 -6c17 0 32 7 44 21c14 21 27 57 27 143
c0 164 -14 323 -14 479c0 106 18 163 57 207c26 29 65 41 105 41c21 0 43 -3 53 -7z" />
    <glyph glyph-name="Korea1.183" unicode="&#x222c;" horiz-adv-x="615" vert-adv-y="1105" 
d="M582 768l-12 -77c-11 2 -22 4 -35 4c-18 0 -36 -10 -46 -27c-17 -23 -25 -68 -25 -150c0 -150 15 -300 15 -462c0 -91 -13 -151 -37 -187c-26 -47 -72 -66 -119 -66c-26 0 -52 4 -64 12l14 80c10 -3 24 -6 37 -6c18 0 31 7 43 21c16 21 29 57 29 143
c0 164 -15 318 -15 474c0 106 18 164 57 207c26 29 64 41 105 41c21 0 43 -3 53 -7zM337 768l-12 -77c-11 2 -22 4 -35 4c-18 0 -37 -10 -46 -27c-17 -23 -25 -68 -25 -150c0 -150 14 -300 14 -462c0 -91 -12 -151 -36 -187c-27 -47 -72 -66 -119 -66c-26 0 -54 4 -65 12
l13 80c11 -3 24 -6 38 -6c17 0 32 7 44 21c15 21 28 57 28 143c0 164 -14 318 -14 474c0 106 18 164 57 207c26 29 64 41 104 41c22 0 44 -3 54 -7z" />
    <glyph glyph-name="Korea1.184" unicode="&#x2208;" vert-adv-y="1105" 
d="M795 352v-86h-583c13 -72 66 -128 185 -128h400v-86h-397c-199 0 -288 116 -288 257c0 134 85 245 285 245h400v-86h-400c-117 0 -172 -55 -184 -116h582z" />
    <glyph glyph-name="Korea1.185" unicode="&#x220b;" vert-adv-y="1105" 
d="M114 266v86h582c-12 61 -67 116 -184 116h-400v86h400c200 0 285 -111 285 -245c0 -141 -89 -257 -288 -257h-397v86h400c119 0 172 56 185 128h-583z" />
    <glyph glyph-name="Korea1.186" unicode="&#x2286;" vert-adv-y="1105" 
d="M795 64v-88h-648v88h648zM797 600v-88h-400c-141 0 -192 -62 -192 -140c0 -86 53 -146 192 -146h400v-88h-397c-199 0 -288 103 -288 237c0 125 85 225 285 225h400z" />
    <glyph glyph-name="Korea1.187" unicode="&#x2287;" vert-adv-y="1105" 
d="M112 512v88h402c200 0 283 -100 283 -225c0 -134 -89 -237 -288 -237h-397v88h402c137 0 190 60 190 146c0 78 -49 140 -190 140h-402zM114 -24v88h648v-88h-648z" />
    <glyph glyph-name="Korea1.188" unicode="&#x2282;" vert-adv-y="1105" 
d="M797 558v-88h-400c-141 0 -192 -71 -192 -154c0 -91 53 -160 192 -160h400v-88h-397c-199 0 -288 112 -288 251c0 132 85 239 285 239h400z" />
    <glyph glyph-name="Korea1.189" unicode="&#x2283;" vert-adv-y="1105" 
d="M112 460v88h402c200 0 283 -107 283 -239c0 -139 -89 -251 -288 -251h-397v88h402c137 0 190 69 190 160c0 83 -49 154 -190 154h-402z" />
    <glyph glyph-name="Korea1.190" unicode="&#x222a;" vert-adv-y="1105" 
d="M205 637h92v-402c0 -139 71 -194 154 -194c91 0 160 57 160 194v402h92v-397c0 -199 -116 -288 -255 -288c-132 0 -243 83 -243 283v402z" />
    <glyph glyph-name="Korea1.191" unicode="&#x2229;" vert-adv-y="1105" 
d="M455 637c140 0 247 -89 247 -288v-397h-92v402c0 137 -64 197 -155 197c-93 0 -157 -60 -157 -197v-402h-92v397c0 199 107 288 249 288z" />
    <glyph glyph-name="Korea1.192" unicode="&#x2227;" vert-adv-y="1105" 
d="M482 591l294 -567l-60 -30l-261 506l-263 -506l-60 30l294 567h56z" />
    <glyph glyph-name="Korea1.193" unicode="&#x2228;" vert-adv-y="1105" 
d="M716 600l60 -29l-294 -568h-56l-294 568l60 29l263 -507z" />
    <glyph glyph-name="Korea1.194" unicode="&#xac;" vert-adv-y="1105" 
d="M881 164v-317h-65v252h-789v65h854z" />
    <glyph glyph-name="Korea1.195" unicode="&#x21d2;" vert-adv-y="1105" 
d="M643 571l272 -273l-272 -274l-43 44l109 108h-714v60h773l63 62l-63 63h-773v60h713l-108 108z" />
    <glyph glyph-name="Korea1.196" unicode="&#x21d4;" vert-adv-y="1105" 
d="M769 236l63 62l-63 63h-627l-63 -63l63 -62h627zM644 571l272 -273l-272 -274l-43 44l109 108h-509l109 -108l-43 -44l-272 274l272 273l43 -42l-108 -108h507l-108 108z" />
    <glyph glyph-name="Korea1.197" unicode="&#x2200;" vert-adv-y="1105" 
d="M399 -26l-271 721h139l70 -198h243l71 198h131l-268 -721h-115zM494 243l49 147h-169l49 -147c17 -48 26 -76 36 -111c11 40 17 60 35 111z" />
    <glyph glyph-name="Korea1.198" unicode="&#x2203;" vert-adv-y="1105" 
d="M227 695h464v-721h-471v106h344v211h-316v104h316v194h-337v106z" />
    <glyph glyph-name="Korea1.199" unicode="&#xb4;" horiz-adv-x="620" vert-adv-y="1105" 
d="M292 562h-114l113 155h149z" />
    <glyph glyph-name="Korea1.200" unicode="&#x2dc;" horiz-adv-x="620" vert-adv-y="1105" 
d="M146 568c8 92 61 128 111 128c41 0 79 -33 104 -33c18 0 28 12 33 36h78c-9 -92 -63 -128 -111 -128c-41 0 -79 33 -104 33c-20 0 -29 -9 -34 -36h-77z" />
    <glyph glyph-name="Korea1.201" unicode="&#x2c7;" horiz-adv-x="620" vert-adv-y="1105" 
d="M467 714l-108 -157h-99l-109 157h89c22 -25 47 -47 69 -72c23 25 47 47 70 72h88z" />
    <glyph glyph-name="Korea1.202" unicode="&#x2d8;" horiz-adv-x="620" vert-adv-y="1105" 
d="M310 577c-82 0 -136 47 -142 127h86c8 -33 15 -56 56 -56c42 0 50 23 56 56h86c-3 -80 -58 -127 -142 -127z" />
    <glyph glyph-name="Korea1.203" unicode="&#x2dd;" horiz-adv-x="620" vert-adv-y="1105" 
d="M316 552l45 157h122l-74 -157h-93zM134 552l47 157h124l-74 -157h-97z" />
    <glyph glyph-name="Korea1.204" unicode="&#x2da;" horiz-adv-x="310" vert-adv-y="1105" 
d="M153 592c30 0 51 16 51 47s-21 52 -51 52c-27 0 -48 -21 -48 -52s21 -47 48 -47zM153 540c-57 0 -103 46 -103 99c0 57 46 101 103 101c60 0 105 -44 105 -101c0 -53 -45 -99 -105 -99z" />
    <glyph glyph-name="Korea1.205" unicode="&#x2d9;" horiz-adv-x="620" vert-adv-y="1105" 
d="M251 581v115h117v-115h-117z" />
    <glyph glyph-name="Korea1.206" unicode="&#xb8;" horiz-adv-x="620" vert-adv-y="1105" 
d="M214 -203v64c73 6 100 24 100 42c0 22 -27 30 -78 30v107h68v-52c66 -5 100 -33 100 -79c0 -62 -46 -100 -190 -112z" />
    <glyph glyph-name="Korea1.207" unicode="&#x2db;" horiz-adv-x="620" vert-adv-y="1105" 
d="M339 -204c-73 0 -120 44 -120 102c0 57 54 106 92 123h84c-41 -33 -75 -78 -75 -110c0 -29 26 -37 50 -37c13 0 27 2 32 2v-69c-16 -6 -34 -11 -63 -11z" />
    <glyph glyph-name="Korea1.208" unicode="&#xa1;" horiz-adv-x="320" vert-adv-y="1105" 
d="M94 622v132h132v-132h-132zM108 520h104l19 -600h-142z" />
    <glyph glyph-name="Korea1.209" unicode="&#xbf;" horiz-adv-x="564" vert-adv-y="1105" 
d="M225 485h136v-45c0 -67 -15 -98 -87 -172c-97 -98 -100 -96 -100 -153v-10c0 -30 19 -73 102 -73c62 0 115 27 158 68l75 -92c-68 -67 -137 -88 -231 -88c-146 0 -232 75 -232 184v11c0 98 57 147 119 206c44 42 60 70 60 122v42zM357 706v-132h-132v132h132z" />
    <glyph glyph-name="Korea1.210" unicode="&#x2d0;" vert-adv-y="1105" 
d="M357 553h194l-97 -95zM454 167l97 -95h-194z" />
    <glyph glyph-name="Korea1.211" unicode="&#x222e;" vert-adv-y="1105" 
d="M430 410c-43 -16 -73 -56 -78 -111c-5 -58 21 -100 66 -113c3 35 4 66 5 107c1 39 4 82 7 117zM566 299c5 56 -24 104 -76 115c-3 -35 -5 -73 -6 -114s-3 -79 -7 -115c49 12 84 55 89 114zM664 649l-47 -21c-11 25 -27 40 -50 40c-29 0 -58 -82 -74 -224
c71 -8 129 -58 122 -145c-7 -84 -71 -134 -141 -144c-9 -73 -23 -133 -43 -181c-21 -51 -53 -86 -93 -86s-71 19 -92 59l44 26c12 -25 28 -41 51 -41c29 0 60 81 74 224c-66 11 -119 60 -112 143c7 80 65 128 130 142c9 74 24 137 44 185c21 51 53 86 93 86
c42 0 73 -21 94 -63z" />
    <glyph glyph-name="Korea1.212" unicode="&#x2211;" horiz-adv-x="563" vert-adv-y="1105" 
d="M57 695h474v-108h-316l195 -255l-197 -250h325v-108h-481v90l209 267l-209 277v87z" />
    <glyph glyph-name="Korea1.213" unicode="&#x220f;" horiz-adv-x="669" vert-adv-y="1105" 
d="M527 586v-644h-128v644h-129v-644h-128v644h-124v109h633v-109h-124z" />
    <glyph glyph-name="Korea1.214" unicode="&#xa4;" vert-adv-y="1105" 
d="M781 647l69 -67l-123 -108c28 -48 45 -106 45 -168c0 -65 -20 -129 -54 -181l129 -114l-63 -71l-129 117c-55 -47 -128 -76 -207 -76c-74 0 -143 24 -198 67l-124 -108l-64 71l122 107c-36 53 -60 118 -60 188c0 62 18 123 50 174l-114 102l69 67l108 -96
c55 46 131 77 211 77c85 0 159 -33 217 -84zM675 304c0 126 -101 227 -227 227s-227 -101 -227 -227s101 -227 227 -227s227 101 227 227z" />
    <glyph glyph-name="Korea1.215" unicode="&#x2109;" horiz-adv-x="770" vert-adv-y="1105" 
d="M413 -26h-128v721h464v-108h-336v-206h315v-108h-315v-299zM249 628c0 -52 -42 -96 -101 -96s-101 44 -101 96s42 96 101 96s101 -44 101 -96zM188 628c0 21 -16 39 -40 39s-40 -18 -40 -39s16 -39 40 -39s40 18 40 39z" />
    <glyph glyph-name="Korea1.216" unicode="&#x2030;" horiz-adv-x="1303" vert-adv-y="1105" 
d="M301 -25h-116l431 720h115zM229 709c105 0 171 -67 171 -172v-39c0 -105 -66 -172 -171 -172s-171 67 -171 172v39c0 105 66 172 171 172zM229 411c56 0 73 35 73 89v35c0 53 -17 89 -73 89s-73 -36 -73 -89v-35c0 -54 17 -89 73 -89zM688 349c105 0 171 -67 171 -172
v-39c0 -105 -66 -172 -171 -172s-171 67 -171 172v39c0 105 66 172 171 172zM688 51c56 0 73 35 73 89v35c0 53 -17 89 -73 89s-73 -36 -73 -89v-35c0 -54 17 -89 73 -89zM1074 349c105 0 171 -67 171 -172v-39c0 -105 -66 -172 -171 -172s-171 67 -171 172v39
c0 105 66 172 171 172zM1074 51c56 0 73 35 73 89v35c0 53 -17 89 -73 89s-73 -36 -73 -89v-35c0 -54 17 -89 73 -89z" />
    <glyph glyph-name="Korea1.217" unicode="&#x25c1;" vert-adv-y="1105" 
d="M770 698v-794l-630 396zM257 300l447 -279v560z" />
    <glyph glyph-name="Korea1.218" unicode="&#x25c0;" vert-adv-y="1105" 
d="M770 698v-794l-630 396z" />
    <glyph glyph-name="Korea1.219" unicode="&#x25b7;" vert-adv-y="1105" 
d="M140 698l630 -398l-630 -396v794zM204 21l447 279l-447 281v-560z" />
    <glyph glyph-name="Korea1.220" unicode="&#x25b6;" vert-adv-y="1105" 
d="M140 698l630 -398l-630 -396v794z" />
    <glyph glyph-name="Korea1.221" unicode="&#x2664;" vert-adv-y="1105" 
d="M788 199c0 -89 -57 -155 -141 -155c-41 0 -74 18 -127 49c3 -52 27 -141 54 -192c6 -13 1 -20 -14 -22c-27 -3 -70 -5 -105 -5c-41 0 -77 2 -105 5c-15 2 -20 9 -14 22c27 56 47 137 52 192c-51 -31 -86 -49 -125 -49c-86 0 -143 66 -143 155c0 119 179 336 335 530
c154 -194 333 -411 333 -530zM710 213c0 91 -150 279 -255 406c-105 -127 -255 -315 -255 -406c0 -44 24 -103 85 -103c53 0 98 63 120 63c23 0 45 -26 42 -57c-3 -38 -8 -83 -25 -137c-3 -10 -9 -16 5 -17c10 -1 13 -2 28 -2c13 0 16 1 28 2c14 1 10 7 7 17
c-17 54 -24 99 -27 137c-1 31 17 57 42 57c22 0 65 -63 118 -63c63 0 87 59 87 103z" />
    <glyph glyph-name="Korea1.222" unicode="&#x2660;" vert-adv-y="1105" 
d="M788 199c0 -89 -57 -155 -141 -155c-41 0 -74 18 -127 49c3 -52 27 -141 54 -192c6 -13 1 -20 -14 -22c-27 -3 -70 -5 -105 -5c-41 0 -77 2 -105 5c-15 2 -20 9 -14 22c27 56 47 137 52 192c-51 -31 -86 -49 -125 -49c-86 0 -143 66 -143 155c0 119 179 336 335 530
c154 -194 333 -411 333 -530z" />
    <glyph glyph-name="Korea1.223" unicode="&#x2661;" vert-adv-y="1105" 
d="M811 481c0 -195 -210 -442 -356 -583c-148 141 -358 388 -358 583c0 113 79 200 181 200c87 0 146 -54 177 -184c29 130 90 184 175 184c102 0 181 -87 181 -200zM728 452c0 90 -29 145 -117 145c-51 0 -79 -52 -96 -113c-7 -27 -26 -56 -60 -56c-27 0 -47 35 -54 56
c-25 75 -64 113 -102 113c-90 0 -119 -55 -119 -145c0 -141 158 -334 275 -455c115 121 273 314 273 455z" />
    <glyph glyph-name="Korea1.224" unicode="&#x2665;" vert-adv-y="1105" 
d="M811 481c0 -195 -210 -442 -356 -583c-148 141 -358 388 -358 583c0 114 81 200 181 200c87 0 146 -54 177 -184c29 130 90 184 175 184c100 0 181 -86 181 -200z" />
    <glyph glyph-name="Korea1.225" unicode="&#x2667;" vert-adv-y="1105" 
d="M862 209c0 -99 -69 -190 -174 -190c-72 0 -132 49 -164 84c21 -47 41 -132 41 -207c0 -9 -9 -15 -18 -16c-35 -3 -35 -3 -92 -3c-33 0 -59 0 -92 3c-9 1 -18 7 -18 16c0 75 18 160 39 207c-30 -35 -92 -84 -164 -84c-105 0 -172 91 -172 190c0 95 69 183 167 183
c46 0 85 -20 126 -39c11 -5 25 -4 29 3c7 11 -1 24 -8 31c-66 56 -92 97 -92 169c0 101 88 166 185 166s185 -65 185 -166c0 -72 -28 -113 -92 -169c-7 -7 -15 -20 -8 -31c4 -7 18 -8 29 -3c39 19 80 39 124 39c98 0 169 -88 169 -183zM797 216c0 69 -52 120 -127 120
c-61 0 -108 -34 -141 -34c-29 0 -50 19 -50 47c0 55 97 80 97 189c0 80 -49 122 -121 122c-70 0 -121 -42 -121 -122c0 -109 95 -134 95 -189c0 -28 -19 -47 -48 -47c-33 0 -82 34 -143 34c-75 0 -125 -51 -125 -120c0 -73 50 -129 130 -129c90 0 130 86 171 86
c13 0 15 -6 15 -19c0 -49 -29 -118 -29 -207c0 -6 4 -10 13 -11c13 -2 27 -3 42 -3s29 1 42 3c7 1 11 5 11 11c0 89 -27 158 -27 207c0 13 2 19 15 19c37 0 80 -86 169 -86c80 0 132 56 132 129z" />
    <glyph glyph-name="Korea1.226" unicode="&#x2663;" vert-adv-y="1105" 
d="M862 209c0 -99 -69 -190 -174 -190c-72 0 -132 49 -164 84c21 -47 41 -132 41 -207c0 -9 -9 -15 -18 -16c-35 -3 -35 -3 -92 -3c-33 0 -59 0 -92 3c-9 1 -18 7 -18 16c0 75 18 160 39 207c-30 -35 -92 -84 -164 -84c-105 0 -172 91 -172 190c0 95 69 183 167 183
c46 0 85 -20 126 -39c11 -5 25 -4 29 3c7 11 -1 24 -8 31c-66 56 -92 97 -92 169c0 101 88 166 185 166s185 -65 185 -166c0 -72 -28 -113 -92 -169c-7 -7 -15 -20 -8 -31c4 -7 18 -8 29 -3c39 19 80 39 124 39c98 0 169 -88 169 -183z" />
    <glyph glyph-name="Korea1.227" unicode="&#x2299;" vert-adv-y="1105" 
d="M853 299c0 -220 -178 -398 -398 -398c-217 0 -398 178 -398 398s181 398 398 398c220 0 398 -178 398 -398zM780 299c0 178 -147 325 -325 325c-180 0 -326 -147 -326 -325c0 -180 146 -326 326 -326c178 0 325 146 325 326zM610 299c0 -86 -69 -155 -155 -155
c-84 0 -155 69 -155 155s71 155 155 155c86 0 155 -69 155 -155z" />
    <glyph glyph-name="Korea1.228" unicode="&#x25c8;" vert-adv-y="1105" 
d="M455 740l442 -442l-443 -444l-443 443zM454 -79l377 377l-376 375l-377 -376zM455 559l262 -262l-262 -264l-265 264z" />
    <glyph glyph-name="Korea1.229" unicode="&#x25a3;" vert-adv-y="1105" 
d="M833 675v-757h-758v757h758zM127 -30h654v653h-654v-653zM679 521v-450h-450v450h450z" />
    <glyph glyph-name="Korea1.230" unicode="&#x25d0;" vert-adv-y="1105" 
d="M845 299c0 -216 -174 -390 -390 -390c-213 0 -390 174 -390 390s177 390 390 390c216 0 390 -174 390 -390zM806 299c0 192 -159 351 -351 351v-701c192 0 351 158 351 350z" />
    <glyph glyph-name="Korea1.231" unicode="&#x25d1;" vert-adv-y="1105" 
d="M845 299c0 -216 -177 -390 -390 -390c-216 0 -390 174 -390 390s174 390 390 390c213 0 390 -174 390 -390zM455 -51v701c-192 0 -351 -159 -351 -351s159 -350 351 -350z" />
    <glyph glyph-name="Korea1.232" unicode="&#x2592;" vert-adv-y="1105" 
d="M827 669v-743h-744v743h744zM116 -41h678v677h-678v-677zM762 581c0 -15 -11 -25 -26 -25c-17 0 -25 8 -25 25c0 15 10 26 25 26s26 -11 26 -26zM668 581c0 -17 -8 -25 -25 -25s-25 8 -25 25c0 15 10 26 25 26s25 -11 25 -26zM762 487c0 -13 -11 -24 -26 -24
s-25 11 -25 24c0 15 10 26 25 26s26 -11 26 -26zM668 487c0 -13 -10 -24 -25 -24s-25 11 -25 24c0 15 10 26 25 26s25 -11 25 -26zM575 581c0 -15 -11 -25 -26 -25s-26 10 -26 25s11 26 26 26s26 -11 26 -26zM762 394c0 -15 -11 -26 -26 -26s-25 11 -25 26s10 26 25 26
s26 -11 26 -26zM575 487c0 -13 -11 -24 -26 -24s-26 11 -26 24c0 15 11 26 26 26s26 -11 26 -26zM668 394c0 -15 -10 -26 -25 -26s-25 11 -25 26s10 26 25 26s25 -11 25 -26zM480 581c0 -17 -8 -25 -25 -25c-13 0 -25 10 -25 25s12 26 25 26c15 0 25 -11 25 -26zM762 300
c0 -13 -11 -25 -26 -25s-25 12 -25 25c0 17 8 25 25 25c15 0 26 -10 26 -25zM480 487c0 -13 -10 -24 -25 -24c-13 0 -25 11 -25 24c0 15 12 26 25 26c15 0 25 -11 25 -26zM575 394c0 -15 -11 -26 -26 -26s-26 11 -26 26s11 26 26 26s26 -11 26 -26zM668 300
c0 -13 -10 -25 -25 -25s-25 12 -25 25c0 17 8 25 25 25s25 -8 25 -25zM387 581c0 -15 -11 -25 -26 -25c-17 0 -25 8 -25 25c0 15 10 26 25 26s26 -11 26 -26zM762 206c0 -15 -11 -26 -26 -26s-25 11 -25 26s10 26 25 26s26 -11 26 -26zM387 487c0 -13 -11 -24 -26 -24
s-25 11 -25 24c0 15 10 26 25 26s26 -11 26 -26zM480 394c0 -15 -10 -26 -25 -26c-13 0 -25 11 -25 26s12 26 25 26c15 0 25 -11 25 -26zM575 300c0 -13 -11 -25 -26 -25s-26 12 -26 25c0 15 11 25 26 25s26 -10 26 -25zM668 206c0 -15 -10 -26 -25 -26s-25 11 -25 26
s10 26 25 26s25 -11 25 -26zM293 581c0 -15 -12 -25 -25 -25c-15 0 -26 10 -26 25s11 26 26 26c13 0 25 -11 25 -26zM762 113c0 -15 -11 -26 -26 -26s-25 11 -25 26c0 13 10 24 25 24s26 -11 26 -24zM199 581c0 -17 -8 -25 -24 -25c-15 0 -26 10 -26 25s11 26 26 26
s24 -11 24 -26zM293 487c0 -13 -12 -24 -25 -24c-15 0 -26 11 -26 24c0 15 11 26 26 26c13 0 25 -11 25 -26zM387 394c0 -15 -11 -26 -26 -26s-25 11 -25 26s10 26 25 26s26 -11 26 -26zM480 300c0 -13 -10 -25 -25 -25c-13 0 -25 12 -25 25c0 15 12 25 25 25
c17 0 25 -8 25 -25zM575 206c0 -15 -11 -26 -26 -26s-26 11 -26 26s11 26 26 26s26 -11 26 -26zM668 113c0 -15 -10 -26 -25 -26s-25 11 -25 26c0 13 10 24 25 24s25 -11 25 -24zM762 19c0 -15 -11 -26 -26 -26s-25 11 -25 26c0 17 8 25 25 25c15 0 26 -10 26 -25zM199 487
c0 -13 -9 -24 -24 -24s-26 11 -26 24c0 15 11 26 26 26s24 -11 24 -26zM668 19c0 -15 -10 -26 -25 -26s-25 11 -25 26c0 17 8 25 25 25s25 -8 25 -25zM293 394c0 -15 -12 -26 -25 -26c-15 0 -26 11 -26 26s11 26 26 26c13 0 25 -11 25 -26zM387 300c0 -13 -11 -25 -26 -25
s-25 12 -25 25c0 17 8 25 25 25c15 0 26 -10 26 -25zM480 206c0 -15 -10 -26 -25 -26c-13 0 -25 11 -25 26s12 26 25 26c15 0 25 -11 25 -26zM575 113c0 -15 -11 -26 -26 -26s-26 11 -26 26c0 13 11 24 26 24s26 -11 26 -24zM199 394c0 -15 -9 -26 -24 -26s-26 11 -26 26
s11 26 26 26s24 -11 24 -26zM575 19c0 -15 -11 -26 -26 -26s-26 11 -26 26s11 25 26 25s26 -10 26 -25zM293 300c0 -13 -12 -25 -25 -25c-15 0 -26 12 -26 25c0 15 11 25 26 25c13 0 25 -10 25 -25zM387 206c0 -15 -11 -26 -26 -26s-25 11 -25 26s10 26 25 26s26 -11 26 -26
zM480 113c0 -15 -10 -26 -25 -26c-13 0 -25 11 -25 26c0 13 12 24 25 24c15 0 25 -11 25 -24zM199 300c0 -13 -9 -25 -24 -25s-26 12 -26 25c0 15 11 25 26 25c16 0 24 -8 24 -25zM480 19c0 -15 -10 -26 -25 -26c-13 0 -25 11 -25 26s12 25 25 25c17 0 25 -8 25 -25z
M293 206c0 -15 -12 -26 -25 -26c-15 0 -26 11 -26 26s11 26 26 26c13 0 25 -11 25 -26zM387 113c0 -15 -11 -26 -26 -26s-25 11 -25 26c0 13 10 24 25 24s26 -11 26 -24zM199 206c0 -15 -9 -26 -24 -26s-26 11 -26 26s11 26 26 26s24 -11 24 -26zM387 19
c0 -15 -11 -26 -26 -26s-25 11 -25 26c0 17 8 25 25 25c15 0 26 -10 26 -25zM293 113c0 -15 -12 -26 -25 -26c-15 0 -26 11 -26 26c0 13 11 24 26 24c13 0 25 -11 25 -24zM199 113c0 -15 -9 -26 -24 -26s-26 11 -26 26c0 13 11 24 26 24s24 -11 24 -24zM293 19
c0 -15 -12 -26 -25 -26c-15 0 -26 11 -26 26s11 25 26 25c13 0 25 -10 25 -25zM199 19c0 -15 -9 -26 -24 -26s-26 11 -26 26s11 25 26 25c16 0 24 -8 24 -25z" />
    <glyph glyph-name="Korea1.233" unicode="&#x25a4;" vert-adv-y="1105" 
d="M827 669v-743h-744v743h744zM116 568h678v68h-678v-68zM116 463h678v73h-678v-73zM116 365h678v66h-678v-66zM116 262h678v71h-678v-71zM116 158h678v72h-678v-72zM116 58h678v68h-678v-68zM116 -41h678v67h-678v-67z" />
    <glyph glyph-name="Korea1.234" unicode="&#x25a5;" vert-adv-y="1105" 
d="M827 669v-743h-744v743h744zM726 -41h68v677h-68v-677zM626 -41h68v677h-68v-677zM522 -41h72v677h-72v-677zM419 -41h71v677h-71v-677zM321 -41h66v677h-66v-677zM216 -41h73v677h-73v-677zM116 -41h68v677h-68v-677z" />
    <glyph glyph-name="Korea1.235" unicode="&#x25a8;" vert-adv-y="1105" 
d="M827 669v-743h-744v743h744zM258 -41l536 536v118l-654 -654h118zM424 -41l370 370v118l-488 -488h118zM590 -41l204 204v118l-322 -322h118zM638 -41h156v156zM116 482l155 154h-155v-154zM116 315l322 321h-119l-203 -202v-119zM116 149l488 487h-118l-370 -369v-118z
M116 -17l653 653h-117l-536 -535v-118z" />
    <glyph glyph-name="Korea1.236" unicode="&#x25a7;" vert-adv-y="1105" 
d="M827 669v-743h-744v743h744zM639 636l155 -154v154h-155zM472 636l322 -321v119l-203 202h-119zM306 636l488 -487v118l-370 369h-118zM141 636l653 -653v118l-536 535h-117zM652 -41h118l-654 654v-118zM486 -41h118l-488 488v-118zM320 -41h118l-322 322v-118zM116 -41
h156l-156 156v-156z" />
    <glyph glyph-name="Korea1.237" unicode="&#x25a6;" vert-adv-y="1105" 
d="M827 669v-743h-744v743h744zM723 565h71v71h-71v-71zM723 464h71v71h-71v-71zM621 565h71v71h-71v-71zM723 363h71v71h-71v-71zM520 565h71v71h-71v-71zM621 464h71v71h-71v-71zM723 262h71v71h-71v-71zM419 565h71v71h-71v-71zM520 464h71v71h-71v-71zM621 363h71v71
h-71v-71zM723 161h71v71h-71v-71zM318 565h71v71h-71v-71zM419 464h71v71h-71v-71zM520 363h71v71h-71v-71zM621 262h71v71h-71v-71zM723 60h71v71h-71v-71zM217 565h71v71h-71v-71zM318 464h71v71h-71v-71zM419 363h71v71h-71v-71zM520 262h71v71h-71v-71zM621 161h71v71
h-71v-71zM723 -41h71v71h-71v-71zM116 565h71v71h-71v-71zM217 464h71v71h-71v-71zM318 363h71v71h-71v-71zM419 262h71v71h-71v-71zM520 161h71v71h-71v-71zM621 60h71v71h-71v-71zM621 -41h71v71h-71v-71zM116 464h71v71h-71v-71zM217 363h71v71h-71v-71zM318 262h71v71
h-71v-71zM419 161h71v71h-71v-71zM520 60h71v71h-71v-71zM520 -41h71v71h-71v-71zM116 363h71v71h-71v-71zM217 262h71v71h-71v-71zM318 161h71v71h-71v-71zM419 60h71v71h-71v-71zM419 -41h71v71h-71v-71zM116 262h71v71h-71v-71zM217 161h71v71h-71v-71zM318 60h71v71h-71
v-71zM318 -41h71v71h-71v-71zM116 161h71v71h-71v-71zM217 60h71v71h-71v-71zM217 -41h71v71h-71v-71zM116 60h71v71h-71v-71zM116 -41h71v71h-71v-71z" />
    <glyph glyph-name="Korea1.238" unicode="&#x25a9;" vert-adv-y="1105" 
d="M827 669v-743h-744v743h744zM727 548l67 -66v133zM703 572l65 64h-129zM710 398l60 60l-66 67l-61 -60zM620 488l59 60l-64 64l-60 -59zM532 576l60 60h-120zM734 374l60 -60v120zM448 494l60 59l-60 59l-59 -59zM537 406l59 59l-65 63l-59 -58zM627 315l59 60l-66 66
l-59 -59zM711 232l59 59l-60 59l-59 -59zM365 577l59 59h-118zM735 208l59 -59v118zM544 233l60 58l-68 67l-58 -59zM282 495l59 58l-60 60l-58 -59zM454 323l58 59l-64 64l-58 -59zM628 149l59 59l-60 59l-58 -58zM711 66l59 59l-59 59l-59 -59zM366 411l58 59l-60 59
l-58 -58zM199 578l59 58h-117zM735 42l59 -59v118zM652 -41h118l-59 59zM116 495l59 59l-59 59v-118zM461 150l60 58l-67 68l-59 -60zM199 412l59 59l-59 59l-59 -59zM282 329l59 59l-59 59l-59 -59zM371 241l58 58l-64 65l-59 -59zM545 66l59 59l-59 59l-59 -59zM628 -17
l59 59l-59 59l-59 -59zM486 -41h118l-59 59zM116 329l59 59l-59 59v-118zM199 246l59 59l-59 59l-59 -59zM287 158l59 59l-64 64l-59 -59zM378 66l60 59l-67 68l-60 -59zM462 -17l59 59l-59 59l-59 -59zM116 164l59 58l-59 59v-117zM319 -41h119l-59 59zM204 75l59 59
l-64 64l-59 -59zM296 -17l58 60l-67 67l-59 -59zM116 -13l64 64l-64 64v-128zM137 -41h135l-68 68z" />
    <glyph glyph-name="Korea1.239" unicode="&#x2668;" vert-adv-y="1105" 
d="M657 298c8 -100 -50 -154 -72 -197c-17 -33 -25 -61 -28 -73c-3 -7 -10 -12 -14 0c-8 19 -9 68 4 99c24 60 55 152 26 221c-45 101 -29 164 0 233c9 23 13 52 13 69c0 12 7 17 14 2c11 -21 23 -67 12 -143c-13 -92 34 -111 45 -211zM525 286c11 -59 -43 -151 -62 -189
c-20 -37 -29 -60 -30 -73c-1 -12 -13 -10 -17 -1c-9 21 -15 67 8 123c40 93 9 195 -1 217c-53 123 -6 188 21 244c19 39 23 72 23 93c0 15 10 13 15 2c13 -29 27 -98 3 -164c-34 -97 19 -148 40 -252zM853 101c0 -123 -183 -209 -393 -209c-211 0 -404 75 -404 182
s153 160 208 176c15 5 19 -12 2 -18c-11 -5 -137 -58 -137 -138c0 -68 172 -102 332 -102c159 0 331 47 331 123c0 55 -79 99 -115 110c-16 5 -9 19 4 16c39 -5 172 -51 172 -140zM383 261c4 -40 -22 -101 -55 -165c-17 -32 -23 -50 -24 -62c-1 -11 -10 -12 -17 0
c-8 17 -16 54 -1 97c14 38 37 141 7 214c-38 91 -18 176 22 250c11 19 19 41 23 60c3 11 11 9 14 1c7 -20 13 -70 -10 -150c-16 -58 30 -145 41 -245z" />
    <glyph glyph-name="Korea1.240" unicode="&#x260f;" vert-adv-y="1105" 
d="M393 433h124v53c-15 -5 -39 -10 -62 -10s-47 5 -62 10v-53zM838 354c17 1 18 86 -55 144c-57 44 -225 74 -328 74c-136 0 -273 -30 -330 -74c-75 -57 -70 -143 -55 -144c52 -5 109 14 134 37c16 13 -18 58 0 95c11 24 57 41 144 41c14 0 29 -4 46 -7c21 -5 38 -8 61 -8
c21 0 38 3 61 8c17 3 30 7 44 7c87 0 132 -15 146 -41c18 -37 -16 -82 -2 -95c24 -22 84 -42 134 -37zM609 204c0 -85 -71 -154 -154 -154c-85 0 -154 69 -154 154c0 83 69 154 154 154c83 0 154 -71 154 -154zM568 204c0 63 -50 113 -113 113s-113 -50 -113 -113
s50 -112 113 -112s113 49 113 112zM878 328c-16 -27 -80 -10 -131 3c-41 12 -80 30 -85 54c-6 20 15 60 12 79c-5 27 -26 25 -51 27c-4 -31 -8 -54 11 -117c19 -69 50 -96 92 -130c67 -56 70 -130 70 -169c21 -8 24 -53 21 -80c-1 -12 -14 -16 -34 -16h-656
c-20 0 -33 4 -34 16c-3 27 0 72 21 80c0 39 3 113 70 169c42 34 73 61 92 130c17 63 15 86 11 117c-25 -2 -46 0 -51 -27c-5 -19 18 -59 12 -79c-5 -24 -44 -42 -85 -54c-51 -13 -115 -30 -131 -3s-9 107 28 154c65 84 235 123 395 123s330 -39 395 -123
c37 -47 44 -127 28 -154zM146 18h618c6 0 10 49 -11 62c0 29 -11 96 -45 128c-56 53 -79 74 -96 117c-23 64 -28 122 -24 163h-35v-88h-196v88h-37c4 -41 1 -99 -22 -163c-17 -43 -42 -64 -98 -117c-34 -32 -45 -99 -45 -128c-21 -13 -17 -62 -9 -62z" />
    <glyph glyph-name="Korea1.241" unicode="&#x260e;" vert-adv-y="1105" 
d="M878 328c-16 -27 -80 -10 -131 3c-41 12 -80 30 -85 54c-6 20 19 60 16 79c-5 27 -30 33 -55 37c-4 -31 -8 -64 11 -127c19 -69 50 -96 92 -130c67 -56 70 -130 70 -169c21 -8 24 -53 21 -80c-1 -12 -14 -16 -34 -16h-656c-20 0 -33 4 -34 16c-3 27 0 72 21 80
c0 39 3 113 70 169c42 34 73 61 92 130c17 63 15 96 11 127c-25 -4 -50 -10 -55 -37c-5 -19 22 -59 16 -79c-5 -24 -44 -42 -85 -54c-51 -13 -115 -30 -131 -3s-9 109 28 156c65 84 235 121 395 121s330 -37 395 -121c37 -47 44 -129 28 -156zM377 439h156v65
c-19 -5 -49 -10 -78 -10s-59 5 -78 10v-65zM602 208c0 81 -66 147 -147 147s-147 -66 -147 -147s66 -146 147 -146s147 65 147 146z" />
    <glyph glyph-name="Korea1.242" unicode="&#x261c;" vert-adv-y="1105" 
d="M847 420v-236h-76v21h-29c-35 -21 -82 -41 -168 -55c-49 -7 -150 -6 -193 0c-24 4 -50 11 -55 33c-3 16 4 25 15 32c-18 0 -37 13 -38 33c-1 15 4 23 11 30c-18 2 -36 10 -36 33c0 29 24 40 82 40l-3 8c-63 2 -97 3 -171 7c-57 3 -124 2 -124 43c0 34 52 35 118 39
c37 3 176 5 287 5c85 0 176 4 245 -59c21 -5 44 -7 60 -6v32h75zM752 217h20v154c-10 -1 -32 0 -44 3l2 -8c2 -13 0 -13 -7 -5c-11 13 -30 30 -58 49c-41 27 -149 32 -185 27c-19 -2 -47 -12 -66 -24c-10 -6 -16 -16 -22 -27c-5 -11 -11 -19 -19 -24c-5 -7 3 -16 31 -5
c27 10 42 39 48 32c4 -4 1 -10 -4 -15c10 -4 31 -6 41 -4c27 7 40 21 42 16c2 -6 -4 -16 -14 -23c8 -12 37 -38 79 -52c53 -18 92 -10 92 -22c0 -9 -55 -4 -87 5c-55 18 -89 52 -100 67c-6 -4 -16 -4 -23 -4c-19 1 -35 5 -42 7l-15 -13c35 0 61 -9 65 -25
c5 -18 -1 -33 -11 -41c19 -5 29 -14 31 -28c2 -18 -5 -25 -15 -32c18 -4 30 -13 32 -28c5 -20 -8 -32 -13 -33c9 -2 22 -2 35 0c104 9 160 35 202 62c4 4 8 4 7 -1zM429 437c-65 0 -158 -2 -248 -4c-64 -2 -102 -4 -102 -24c0 -21 28 -22 102 -27c83 -4 132 -7 187 -8l21 32
c10 14 22 25 40 31zM787 200h44v203h-44v-203zM490 247c1 20 -8 25 -28 28c-18 2 -95 1 -119 0c-13 -1 -23 -12 -23 -25c0 -9 7 -17 25 -20c14 -3 112 -4 114 -3c13 0 30 6 31 20zM507 194c-1 14 -19 18 -31 18c-36 1 -84 1 -113 -1c-14 -1 -20 -13 -18 -24
c1 -8 7 -16 18 -18c35 -7 81 -7 114 -4c22 1 32 11 30 29zM467 316c0 8 -5 16 -20 17c-49 3 -92 5 -134 0c-13 -2 -20 -12 -19 -22c0 -9 7 -19 20 -19c41 -2 104 -1 134 2c11 2 19 7 19 22z" />
    <glyph glyph-name="Korea1.243" unicode="&#x261e;" vert-adv-y="1105" 
d="M847 409c0 -41 -67 -40 -124 -43c-74 -4 -108 -5 -171 -7l-3 -8c58 0 82 -11 82 -40c0 -23 -18 -31 -36 -33c7 -7 12 -15 11 -30c-1 -20 -20 -33 -38 -33c11 -7 18 -16 15 -32c-5 -22 -31 -29 -55 -33c-43 -6 -144 -7 -193 0c-86 14 -133 34 -168 55h-29v-21h-76v236h75
v-32c16 -1 39 1 60 6c69 63 160 59 245 59c111 0 250 -2 287 -5c66 -4 118 -5 118 -39zM536 362c-8 5 -14 13 -19 24c-6 11 -12 21 -22 27c-19 12 -47 22 -66 24c-36 5 -144 0 -185 -27c-28 -19 -47 -36 -58 -49c-7 -8 -9 -8 -7 5l2 8c-12 -3 -34 -4 -44 -3v-154h20l-2 8
c-2 4 3 4 7 1c42 -27 98 -53 202 -62c13 -2 23 -2 32 0c-5 4 -14 16 -10 33c2 15 14 24 32 28c-10 7 -17 14 -15 32c3 14 12 23 31 28c-10 8 -16 23 -11 41c5 16 30 25 65 25l-15 13c-7 -2 -23 -6 -42 -7c-7 0 -17 0 -23 4c-11 -15 -45 -49 -100 -67c-32 -9 -87 -14 -87 -5
c0 12 39 4 92 22c42 14 71 40 79 52c-10 7 -16 17 -14 23c2 5 15 -9 42 -16c10 -2 31 0 41 4c-5 5 -8 11 -4 15c6 7 21 -22 48 -32c28 -11 36 -2 31 5zM830 409c0 20 -38 22 -102 24c-90 2 -183 4 -248 4c18 -6 30 -17 40 -31l21 -32c55 1 104 4 187 8c74 5 102 6 102 27z
M78 200h44v203h-44v-203zM589 250c0 13 -10 24 -23 25c-24 1 -101 2 -119 0c-19 -3 -29 -8 -28 -28c1 -14 18 -20 31 -20c2 -1 100 0 114 3c18 3 25 11 25 20zM564 187c2 11 -4 23 -18 24c-29 2 -77 2 -113 1c-12 0 -30 -4 -31 -18c-2 -18 8 -28 30 -29c33 -3 79 -3 114 4
c11 2 17 10 18 18zM615 311c1 10 -6 20 -19 22c-42 5 -85 3 -134 0c-15 -1 -20 -9 -20 -17c0 -15 8 -20 19 -22c30 -3 93 -4 134 -2c13 0 20 10 20 19z" />
    <glyph glyph-name="Korea1.244" unicode="&#xb6;" horiz-adv-x="589" vert-adv-y="1105" 
d="M275 -132v473h-39c-121 0 -214 69 -214 189c0 108 67 193 237 193h271v-855h-87v774h-82v-774h-86z" />
    <glyph glyph-name="Korea1.245" unicode="&#x2020;" horiz-adv-x="492" vert-adv-y="1105" 
d="M195 -91v486h-168v100h168v200h103v-200h167v-100h-167v-486h-103z" />
    <glyph glyph-name="Korea1.246" unicode="&#x2021;" horiz-adv-x="492" vert-adv-y="1105" 
d="M27 109v99h168v188h-168v99h168v200h103v-200h167v-99h-167v-188h167v-99h-167v-200h-103v200h-168z" />
    <glyph glyph-name="Korea1.247" unicode="&#x2195;" vert-adv-y="1105" 
d="M611 478l-127 75v-418l127 74l17 -15l-173 -208l-173 208l17 15l127 -74v418l-127 -75l-17 15l173 208l173 -208z" />
    <glyph glyph-name="Korea1.248" unicode="&#x2197;" vert-adv-y="1105" 
d="M142 -11l-41 42l581 581l-142 36l-1 23l269 25l-25 -269l-23 1l-36 142z" />
    <glyph glyph-name="Korea1.249" unicode="&#x2199;" vert-adv-y="1105" 
d="M768 698l41 -41l-582 -581l142 -37l2 -23l-270 -25l25 270l23 -2l37 -142z" />
    <glyph glyph-name="Korea1.250" unicode="&#x2196;" vert-adv-y="1105" 
d="M808 31l-41 -42l-582 581l-36 -142l-23 -1l-25 269l269 -25l-1 -23l-142 -36z" />
    <glyph glyph-name="Korea1.251" unicode="&#x2198;" vert-adv-y="1105" 
d="M101 657l41 41l582 -581l37 142l23 2l25 -270l-270 25l2 23l142 37z" />
    <glyph glyph-name="Korea1.252" unicode="&#x266d;" horiz-adv-x="517" vert-adv-y="1105" 
d="M342 229c0 71 -27 127 -71 127c-75 0 -109 -71 -109 -118v-214c78 6 180 59 180 205zM418 266c0 -226 -185 -284 -319 -291v665h63v-328c15 42 50 95 140 95c64 0 116 -55 116 -141z" />
    <glyph glyph-name="Korea1.253" unicode="&#x2669;" horiz-adv-x="388" vert-adv-y="1105" 
d="M288 662v-547c0 -57 -6 -91 -35 -125c-36 -43 -103 -78 -139 -37s2 106 51 135c26 15 53 24 85 29v545h38z" />
    <glyph glyph-name="Korea1.254" unicode="&#x266a;" horiz-adv-x="539" vert-adv-y="1105" 
d="M479 339c0 -40 -11 -82 -39 -125c-26 -40 -71 -82 -107 -103c-15 -9 -20 2 -10 12c35 34 99 102 99 193c0 87 -115 121 -174 139v-340c0 -57 -6 -91 -35 -125c-36 -43 -103 -78 -139 -37s2 106 51 135c26 15 53 24 85 29v500c0 17 0 40 9 40s15 -6 31 -24
c17 -20 34 -40 70 -71c115 -99 159 -162 159 -223z" />
    <glyph glyph-name="Korea1.255" unicode="&#x266c;" horiz-adv-x="693" vert-adv-y="1105" 
d="M251 412l347 74v58l-347 -74v-58zM638 645v-454c0 -46 -29 -87 -67 -119c-35 -29 -91 -52 -121 -13c-23 30 8 87 43 113c38 28 69 33 105 38v182l-347 -75v-223c0 -46 -29 -87 -67 -119c-35 -29 -91 -52 -121 -13c-23 30 8 87 43 113c38 28 69 33 105 38v446z" />
    <glyph glyph-name="Korea1.256" unicode="&#x327f;" vert-adv-y="1105" 
d="M880 301c0 -232 -171 -425 -426 -425c-215 0 -370 140 -414 331l78 1c40 -153 157 -261 336 -261c206 0 343 147 353 333h-175v72h245c2 -17 3 -34 3 -51zM853 442h-79c-54 126 -160 213 -320 213c-193 0 -321 -130 -349 -303h122v-72h-197v21c0 231 172 424 424 424
c199 0 336 -114 399 -283zM670 532l-178 -182l186 -267h-100l-141 210l-64 -65v-145h-80v449h80v-207l194 207h103z" />
    <glyph glyph-name="Korea1.257" unicode="&#x321c;" vert-adv-y="1105" 
d="M120 324v-50c0 -152 34 -303 137 -444h-90c-99 118 -147 271 -147 449v40c0 178 48 329 147 447h90c-98 -132 -137 -282 -137 -442zM790 274v50c0 160 -39 310 -137 442h90c99 -118 147 -269 147 -447v-40c0 -178 -48 -331 -147 -449h-90c103 141 137 292 137 444z
M675 530h-174v-12c0 -31 24 -49 201 -128l-39 -75c-174 80 -194 95 -208 112h-1c-14 -17 -34 -32 -208 -112l-39 75c177 79 201 97 201 128v12h-174v78h441v-78zM155 275h599v-78h-253v-207h-93v207h-253v78z" />
    <glyph glyph-name="Korea1.258" unicode="&#x2116;" horiz-adv-x="890" vert-adv-y="1105" 
d="M54 -26v721h143l131 -387c17 -51 30 -86 47 -163v550h109v-721h-143l-134 387c-18 51 -35 96 -44 163v-550h-109zM682 513c102 0 178 -63 178 -184v-47c0 -121 -76 -186 -178 -186c-100 0 -176 65 -176 186v47c0 120 76 184 176 184zM682 188c44 0 74 30 74 102v29
c0 72 -30 103 -74 103c-42 0 -74 -31 -74 -103v-29c0 -72 32 -102 74 -102zM534 -26v90h297v-90h-297z" />
    <glyph glyph-name="Korea1.259" unicode="&#x33c7;" vert-adv-y="1105" 
d="M253 706c67 0 119 -8 188 -70l-70 -81c-37 32 -64 43 -104 43c-81 0 -127 -56 -127 -226v-86c0 -151 51 -216 119 -216c56 0 97 22 125 54l70 -83c-57 -57 -108 -78 -190 -78c-148 0 -243 71 -243 303v129c0 212 85 311 232 311zM640 706c137 0 215 -95 215 -306v-131
c0 -215 -76 -306 -215 -306s-215 91 -215 306v131c0 211 79 306 215 306zM640 70c67 0 96 49 96 215v99c0 166 -29 215 -96 215c-65 0 -96 -49 -96 -215v-99c0 -166 31 -215 96 -215zM818 -26v88h83v-88h-83z" />
    <glyph glyph-name="Korea1.260" unicode="&#x2122;" horiz-adv-x="709" vert-adv-y="1105" 
d="M311 369v326h106l75 -177h2l86 177h100v-326h-87v197l-66 -134h-69l-67 148h-2v-211h-78zM102 369v258h-89v68h272v-68h-89v-258h-94z" />
    <glyph glyph-name="Korea1.261" unicode="&#x33c2;" vert-adv-y="1105" 
d="M269 374v-400h-87v50c-6 -29 -24 -57 -66 -57c-53 0 -99 44 -99 144v29c0 100 35 172 139 172h12v59c0 14 -4 53 -35 53c-22 0 -38 -11 -57 -33l-61 76c27 26 64 56 122 56c86 0 132 -36 132 -149zM169 144v75h-9c-35 0 -39 -43 -39 -83v-18c0 -24 3 -58 20 -58
c22 0 28 39 28 84zM370 -26v539h88v-56c6 35 31 66 75 66c35 0 66 -18 75 -70c13 39 38 70 88 70c63 0 116 -39 116 -135v-414h-104v364c0 65 -10 81 -34 81c-17 0 -31 -29 -31 -87v-358h-104v373c0 62 -17 72 -32 72c-24 0 -33 -24 -33 -93v-352h-104zM822 -26v87h81v-87
h-81zM279 -26v87h81v-87h-81z" />
    <glyph glyph-name="Korea1.262" unicode="&#x33d8;" vert-adv-y="1105" 
d="M379 -26v539h88v-54c3 25 29 64 75 64c40 0 76 -30 75 -70c5 39 42 70 78 70c63 0 118 -39 118 -135v-414h-104v366c0 61 -16 79 -30 79c-13 0 -27 -15 -27 -81v-364h-116v375c0 52 -13 70 -28 70c-12 0 -25 -10 -25 -87v-358h-104zM121 -6v-234h-104v753h98v-56
c8 38 26 66 64 66c79 0 108 -70 108 -221v-115c0 -165 -36 -221 -109 -221c-30 0 -50 21 -57 28zM183 183v109c0 115 -9 127 -32 127c-20 0 -30 -40 -30 -105v-161c0 -68 5 -89 34 -89c21 0 28 41 28 119zM286 -26v88h83v-88h-83zM823 -26v88h83v-88h-83z" />
    <glyph glyph-name="Korea1.263" unicode="&#x2121;" horiz-adv-x="1066" vert-adv-y="1105" 
d="M396 513h318v-104h-194v-102h173v-104h-173v-125h201v-104h-325v539zM6 695h479v-104h-176v-617h-125v617h-178v104zM756 513h124v-435h180v-104h-304v539z" />
    <glyph glyph-name="Korea1.264" unicode="&#xff01;" vert-adv-y="1105" 
d="M389 -80v132h132v-132h-132zM507 154h-104l-19 600h142z" />
    <glyph glyph-name="Korea1.265" unicode="&#xff02;" vert-adv-y="1105" 
d="M415 488h-104l-13 250h130zM598 488h-104l-13 250h130z" />
    <glyph glyph-name="Korea1.266" unicode="&#xff03;" vert-adv-y="1105" 
d="M609 269h91v-109h-105l-25 -186h-102l24 186h-120l-24 -186h-103l24 186h-89v109h104l18 136h-91v109h106l24 181h103l-24 -181h120l24 181h102l-24 -181h89v-109h-103zM509 269l18 136h-123l-19 -136h124z" />
    <glyph glyph-name="Korea1.267" unicode="&#xff04;" vert-adv-y="1105" 
d="M423 -93v69c-84 6 -180 37 -230 80l61 93c52 -37 102 -58 169 -68v210c-95 23 -210 60 -210 204v18c0 78 50 167 210 181v57h74v-56c72 -4 148 -26 195 -67l-59 -85c-46 32 -92 45 -136 48v-203c176 -47 219 -103 219 -205v-8c0 -146 -97 -191 -219 -199v-69h-74z
M591 164v10c0 46 -9 75 -94 99v-193c71 8 94 46 94 84zM336 517v-17c0 -58 25 -75 87 -94v183c-81 -9 -87 -52 -87 -72z" />
    <glyph glyph-name="Korea1.268" unicode="&#xff05;" vert-adv-y="1105" 
d="M297 -25h-116l431 720h115zM225 709c105 0 171 -67 171 -172v-39c0 -105 -66 -172 -171 -172s-171 67 -171 172v39c0 105 66 172 171 172zM225 411c56 0 72 35 72 89v35c0 53 -16 89 -72 89s-72 -36 -72 -89v-35c0 -54 16 -89 72 -89zM684 349c105 0 171 -67 171 -172
v-39c0 -105 -66 -172 -171 -172s-171 67 -171 172v39c0 105 66 172 171 172zM684 51c56 0 72 35 72 89v35c0 53 -16 89 -72 89s-72 -36 -72 -89v-35c0 -54 16 -89 72 -89z" />
    <glyph glyph-name="Korea1.269" unicode="&#xff06;" vert-adv-y="1105" 
d="M595 371h117c0 -104 -17 -184 -56 -249l122 -147h-153l-48 60c-58 -49 -128 -72 -197 -72h-8c-121 0 -251 53 -251 195v19c0 97 66 157 162 203l-24 27c-39 44 -55 82 -55 130v12c0 92 70 157 191 157c126 0 189 -75 189 -161v-11c0 -64 -29 -124 -127 -184l118 -135
c14 33 20 66 20 156zM377 75c51 0 94 15 126 46l-150 177c-81 -41 -106 -79 -106 -123v-14c0 -48 50 -86 130 -86zM325 545v-10c0 -25 32 -65 64 -101c63 41 76 64 76 99v7c0 32 -25 61 -70 61c-51 0 -70 -28 -70 -56z" />
    <glyph glyph-name="Korea1.270" unicode="&#xff07;" vert-adv-y="1105" 
d="M507 488h-104l-13 250h130z" />
    <glyph glyph-name="Korea1.271" unicode="&#xff08;" vert-adv-y="1105" 
d="M752 324v-50c0 -152 34 -303 137 -444h-120c-99 118 -147 274 -147 449v40c0 175 48 329 147 447h120c-98 -132 -137 -282 -137 -442z" />
    <glyph glyph-name="Korea1.272" unicode="&#xff09;" vert-adv-y="1105" 
d="M158 274v50c0 160 -39 310 -137 442h120c99 -118 147 -272 147 -447v-40c0 -175 -48 -331 -147 -449h-120c103 141 137 292 137 444z" />
    <glyph glyph-name="Korea1.273" unicode="&#xff0a;" vert-adv-y="1105" 
d="M419 475l-112 -83l-51 97l136 49l-136 48l51 97l111 -83l-16 133h106l-17 -133l112 83l50 -97l-136 -48l136 -49l-50 -97l-112 83l17 -132h-106z" />
    <glyph glyph-name="Korea1.274" unicode="&#xff0b;" vert-adv-y="1105" 
d="M399 574h112v-205h202v-104h-202v-219h-112v219h-202v104h202v205z" />
    <glyph glyph-name="Korea1.275" unicode="&#xff0c;" vert-adv-y="1105" 
d="M362 -175l42 231h142l-82 -231h-102z" />
    <glyph glyph-name="Korea1.276" unicode="&#xff0d;" vert-adv-y="1105" 
d="M285 282v104h340v-104h-340z" />
    <glyph glyph-name="Korea1.277" unicode="&#xff0e;" vert-adv-y="1105" 
d="M392 -74v130h127v-130h-127z" />
    <glyph glyph-name="Korea1.278" unicode="&#xff0f;" vert-adv-y="1105" 
d="M547 777h124l-310 -908h-123z" />
    <glyph glyph-name="Korea1.279" unicode="&#xff10;" vert-adv-y="1105" 
d="M720 391v-112c0 -204 -88 -316 -261 -316c-171 0 -269 114 -269 316v112c0 202 98 315 266 315c170 0 264 -113 264 -315zM591 278v114c0 165 -65 193 -135 193c-66 0 -137 -29 -137 -193v-114c0 -166 74 -194 140 -194c70 0 132 27 132 194z" />
    <glyph glyph-name="Korea1.280" unicode="&#xff11;" vert-adv-y="1105" 
d="M632 -26h-128v577l-164 -94l-62 104l241 134h113v-721z" />
    <glyph glyph-name="Korea1.281" unicode="&#xff12;" vert-adv-y="1105" 
d="M200 70l265 273c84 86 89 124 89 165v8c0 39 -29 76 -103 76c-52 0 -105 -17 -152 -101l-96 63c34 62 101 152 247 152c163 0 233 -86 233 -185v-10c0 -78 -37 -150 -104 -217l-212 -214h343v-106h-510v96z" />
    <glyph glyph-name="Korea1.282" unicode="&#xff13;" vert-adv-y="1105" 
d="M316 534l-87 68c48 62 110 104 214 104c135 0 223 -72 223 -180v-10c0 -57 -22 -134 -104 -165c95 -17 140 -81 140 -163v-15c0 -109 -85 -210 -262 -210c-84 0 -163 26 -231 80l63 100c70 -51 111 -66 169 -66c90 0 132 39 132 102v13c0 70 -39 102 -131 102h-97v110h86
c90 0 110 42 110 104v8c0 54 -38 78 -98 78c-61 0 -95 -25 -127 -60z" />
    <glyph glyph-name="Korea1.283" unicode="&#xff14;" vert-adv-y="1105" 
d="M526 443h126v-216h98v-103h-98v-150h-126v150h-359v83l328 488h138l-315 -468h208v216z" />
    <glyph glyph-name="Korea1.284" unicode="&#xff15;" vert-adv-y="1105" 
d="M576 204v11c0 77 -47 120 -127 120c-61 0 -105 -26 -137 -57h-86l23 417h409v-106h-294l-8 -188c33 20 74 37 134 37c139 0 215 -104 215 -220v-15c0 -115 -76 -240 -257 -240c-104 0 -184 21 -256 80l62 101c68 -54 126 -65 193 -65c88 0 129 53 129 125z" />
    <glyph glyph-name="Korea1.285" unicode="&#xff16;" vert-adv-y="1105" 
d="M675 656l-47 -106c-45 26 -94 40 -153 40c-74 0 -142 -48 -151 -202c35 41 100 63 162 63c140 0 225 -92 225 -232v-20c0 -134 -96 -236 -256 -236c-184 0 -258 120 -258 305v46c0 318 129 392 286 392c65 0 138 -14 192 -50zM326 218v-15c0 -78 44 -124 126 -124
c88 0 133 45 133 125v11c0 84 -40 124 -128 124c-92 0 -131 -55 -131 -121z" />
    <glyph glyph-name="Korea1.286" unicode="&#xff17;" vert-adv-y="1105" 
d="M712 597l-276 -623h-135l277 613h-381v108h515v-98z" />
    <glyph glyph-name="Korea1.287" unicode="&#xff18;" vert-adv-y="1105" 
d="M355 501v-10c0 -64 53 -93 101 -93c50 0 99 29 99 93v10c0 62 -41 94 -100 94c-56 0 -100 -32 -100 -94zM337 183v-10c0 -62 48 -98 120 -98c71 0 116 36 116 98v10c0 71 -53 103 -116 103s-120 -30 -120 -103zM205 165v17c0 79 58 145 118 163c-69 34 -99 104 -99 151
v12c0 103 72 198 230 198c154 0 232 -95 232 -198v-12c0 -47 -28 -111 -98 -151c62 -19 117 -84 117 -163v-17c0 -115 -87 -202 -247 -202c-166 0 -253 87 -253 202z" />
    <glyph glyph-name="Korea1.288" unicode="&#xff19;" vert-adv-y="1105" 
d="M233 13l47 106c45 -26 94 -40 153 -40c93 0 144 48 151 202c-35 -41 -100 -63 -162 -63c-140 0 -225 91 -225 231v20c0 134 96 237 256 237c184 0 258 -120 258 -305v-46c0 -318 -115 -392 -286 -392c-65 0 -138 14 -192 50zM582 451v15c0 78 -44 124 -126 124
c-88 0 -133 -45 -133 -125v-11c0 -84 40 -124 128 -124c92 0 131 55 131 121z" />
    <glyph glyph-name="Korea1.289" unicode="&#xff1a;" vert-adv-y="1105" 
d="M392 1v130h127v-130h-127zM392 451v130h127v-130h-127z" />
    <glyph glyph-name="Korea1.290" unicode="&#xff1b;" vert-adv-y="1105" 
d="M402 451v130h127v-130h-127zM363 -95l42 231h142l-82 -231h-102z" />
    <glyph glyph-name="Korea1.291" unicode="&#xff1c;" vert-adv-y="1105" 
d="M353 325v-6l344 -171v-127l-484 250v99l484 250v-126z" />
    <glyph glyph-name="Korea1.292" unicode="&#xff1d;" vert-adv-y="1105" 
d="M219 373v105h472v-105h-472zM219 162v105h472v-105h-472z" />
    <glyph glyph-name="Korea1.293" unicode="&#xff1e;" vert-adv-y="1105" 
d="M557 319v6l-344 169v126l484 -250v-99l-484 -250v127z" />
    <glyph glyph-name="Korea1.294" unicode="&#xff1f;" vert-adv-y="1105" 
d="M507 141h-136v45c0 67 15 98 87 172c96 98 100 105 100 153v10c0 30 -19 73 -102 73c-62 0 -115 -27 -158 -68l-75 92c68 67 137 88 231 88c146 0 232 -75 232 -184v-11c0 -98 -57 -147 -119 -206c-44 -42 -60 -70 -60 -122v-42zM375 -80v132h132v-132h-132z" />
    <glyph glyph-name="Korea1.295" unicode="&#xff20;" vert-adv-y="1105" 
d="M716 35c-53 0 -104 22 -122 86h-1c-25 -64 -107 -84 -154 -84c-131 0 -208 82 -208 203v80c0 122 77 203 190 203c76 0 115 -27 130 -52v44h115v-307c0 -56 16 -83 58 -83c54 0 85 42 85 173v8c0 223 -133 348 -363 348c-197 0 -346 -131 -346 -360v-14
c0 -247 144 -373 364 -373c96 0 197 21 278 63l35 -81c-83 -45 -191 -71 -310 -71c-294 0 -464 180 -464 461v16c0 258 172 447 443 447c297 0 460 -172 460 -433v-10c0 -120 -40 -264 -190 -264zM354 304v-50c0 -68 30 -107 92 -107c55 0 97 34 97 96v71
c0 63 -30 102 -97 102c-57 0 -92 -31 -92 -112z" />
    <glyph glyph-name="Korea1.296" unicode="&#xff21;" vert-adv-y="1105" 
d="M511 695l271 -721h-139l-70 198h-243l-71 -198h-131l268 721h115zM416 426l-49 -147h169l-49 147c-17 48 -26 76 -36 111c-11 -40 -17 -60 -35 -111z" />
    <glyph glyph-name="Korea1.297" unicode="&#xff22;" vert-adv-y="1105" 
d="M185 -26v721h280c153 0 227 -58 227 -176v-21c0 -63 -28 -124 -114 -145c88 -13 147 -64 147 -164v-25c0 -118 -73 -190 -229 -190h-311zM312 297v-217h116c113 0 166 13 166 98v22c0 75 -48 97 -185 97h-97zM410 589h-98v-188h94c100 0 156 3 156 93v18
c0 61 -44 77 -152 77z" />
    <glyph glyph-name="Korea1.298" unicode="&#xff23;" vert-adv-y="1105" 
d="M473 706c102 0 175 -21 248 -80l-69 -98c-59 50 -114 60 -179 60c-86 0 -172 -43 -172 -222v-74c0 -153 81 -210 171 -210c67 0 141 16 198 75l68 -98c-86 -84 -191 -96 -271 -96c-157 0 -295 88 -295 303v129c0 216 134 311 301 311z" />
    <glyph glyph-name="Korea1.299" unicode="&#xff24;" vert-adv-y="1105" 
d="M173 695h251c214 0 313 -110 313 -309v-103c0 -199 -87 -309 -311 -309h-253v721zM300 587v-505h107c129 0 201 54 201 206v93c0 152 -68 206 -201 206h-107z" />
    <glyph glyph-name="Korea1.300" unicode="&#xff25;" vert-adv-y="1105" 
d="M219 695h464v-106h-337v-194h316v-104h-316v-211h344v-106h-471v721z" />
    <glyph glyph-name="Korea1.301" unicode="&#xff26;" vert-adv-y="1105" 
d="M351 -26h-128v721h464v-108h-336v-206h315v-108h-315v-299z" />
    <glyph glyph-name="Korea1.302" unicode="&#xff27;" vert-adv-y="1105" 
d="M488 706c85 0 172 -21 246 -81l-69 -98c-53 47 -117 63 -177 63c-111 0 -192 -41 -192 -224v-74c0 -157 83 -213 200 -213c47 0 82 7 118 21v173h-151v107h278v-351c-64 -43 -165 -66 -251 -66c-183 0 -322 88 -322 303v129c0 216 135 311 320 311z" />
    <glyph glyph-name="Korea1.303" unicode="&#xff28;" vert-adv-y="1105" 
d="M604 -26v323h-299v-323h-128v721h128v-292h299v292h128v-721h-128z" />
    <glyph glyph-name="Korea1.304" unicode="&#xff29;" vert-adv-y="1105" 
d="M391 -26v721h128v-721h-128z" />
    <glyph glyph-name="Korea1.305" unicode="&#xff2a;" vert-adv-y="1105" 
d="M526 210v485h128v-516c0 -160 -86 -216 -226 -216c-60 0 -126 22 -173 63l59 98c42 -32 70 -44 116 -44c63 0 96 31 96 130z" />
    <glyph glyph-name="Korea1.306" unicode="&#xff2b;" vert-adv-y="1105" 
d="M727 695l-279 -318l294 -403h-162l-218 310l-67 -73v-237h-128v721h128v-330l284 330h148z" />
    <glyph glyph-name="Korea1.307" unicode="&#xff2c;" vert-adv-y="1105" 
d="M226 695h128v-613h329v-108h-457v721z" />
    <glyph glyph-name="Korea1.308" unicode="&#xff2d;" vert-adv-y="1105" 
d="M403 94l-149 380c-10 25 -20 57 -37 109v-609h-119v721h182l177 -448l170 448h184v-721h-121v609c-15 -60 -25 -83 -34 -109l-151 -380h-102z" />
    <glyph glyph-name="Korea1.309" unicode="&#xff2e;" vert-adv-y="1105" 
d="M175 -26v721h147l246 -437c15 -27 35 -67 46 -114v551h120v-721h-147l-247 438c-18 32 -36 70 -45 111v-549h-120z" />
    <glyph glyph-name="Korea1.310" unicode="&#xff2f;" vert-adv-y="1105" 
d="M455 706c164 0 305 -89 305 -312v-119c0 -227 -139 -312 -305 -312s-305 85 -305 312v119c0 223 142 312 305 312zM455 80c98 0 176 45 176 211v87c0 166 -78 211 -176 211c-96 0 -176 -45 -176 -211v-87c0 -166 80 -211 176 -211z" />
    <glyph glyph-name="Korea1.311" unicode="&#xff30;" vert-adv-y="1105" 
d="M195 -26v721h272c173 0 247 -88 247 -206v-21c0 -117 -80 -217 -247 -217h-144v-277h-128zM461 588h-138v-229h127c84 0 135 27 135 111v18c0 79 -51 100 -124 100z" />
    <glyph glyph-name="Korea1.312" unicode="&#xff31;" vert-adv-y="1105" 
d="M445 706c164 0 305 -89 305 -312v-119c0 -95 -24 -164 -64 -214l83 -82l-73 -75l-93 92c-46 -23 -101 -33 -158 -33c-166 0 -305 85 -305 312v119c0 223 142 312 305 312zM445 80c23 0 45 2 65 8l-85 85l73 75l94 -94c18 32 29 76 29 137v87c0 166 -78 211 -176 211
c-96 0 -176 -45 -176 -211v-87c0 -166 80 -211 176 -211z" />
    <glyph glyph-name="Korea1.313" unicode="&#xff32;" vert-adv-y="1105" 
d="M583 -26l-121 289h-147v-289h-128v721h273c150 0 233 -83 233 -198v-37c0 -75 -38 -140 -112 -173c48 -105 93 -208 141 -313h-139zM444 588h-129v-218h118c99 0 133 38 133 93v30c0 56 -34 95 -122 95z" />
    <glyph glyph-name="Korea1.314" unicode="&#xff33;" vert-adv-y="1105" 
d="M457 78c91 0 131 37 131 86v11c0 58 -45 83 -127 101c-120 26 -255 47 -255 214v13c0 87 63 203 258 203c79 0 152 -13 225 -60l-60 -99c-58 38 -105 45 -163 45c-91 0 -133 -48 -133 -87v-12c0 -70 71 -80 156 -99c170 -38 227 -108 227 -207v-13
c0 -161 -125 -211 -265 -211c-104 0 -202 37 -258 83l62 102c44 -37 116 -70 202 -70z" />
    <glyph glyph-name="Korea1.315" unicode="&#xff34;" vert-adv-y="1105" 
d="M179 695h551v-108h-211v-613h-128v613h-212v108z" />
    <glyph glyph-name="Korea1.316" unicode="&#xff35;" vert-adv-y="1105" 
d="M455 79c105 0 152 48 152 190v426h128v-424c0 -236 -99 -308 -280 -308c-180 0 -280 72 -280 308v424h128v-426c0 -142 47 -190 152 -190z" />
    <glyph glyph-name="Korea1.317" unicode="&#xff36;" vert-adv-y="1105" 
d="M394 -26l-265 721h137l189 -564l196 564h130l-272 -721h-115z" />
    <glyph glyph-name="Korea1.318" unicode="&#xff37;" vert-adv-y="1105" 
d="M182 -26l-196 721h133l132 -535l146 535h123l145 -534l137 534h123l-199 -721h-122l-146 555l-152 -555h-124z" />
    <glyph glyph-name="Korea1.319" unicode="&#xff38;" vert-adv-y="1105" 
d="M754 695l-215 -351l224 -370h-148l-165 291l-160 -291h-144l223 377l-205 344h154l144 -266l149 266h143z" />
    <glyph glyph-name="Korea1.320" unicode="&#xff39;" vert-adv-y="1105" 
d="M766 695l-247 -436v-285h-128v285l-247 436h143l171 -318l168 318h140z" />
    <glyph glyph-name="Korea1.321" unicode="&#xff3a;" vert-adv-y="1105" 
d="M722 695v-97l-395 -514h414v-110h-572v105l390 506h-366v110h529z" />
    <glyph glyph-name="Korea1.322" unicode="&#xff3b;" vert-adv-y="1105" 
d="M868 -60v-110h-293v936h293v-110h-164v-716h164z" />
    <glyph glyph-name="Korea1.323" unicode="&#xffe6;" vert-adv-y="1105" 
d="M6 327v71h106l-74 297h127l64 -297h105l78 297h111l70 -297h96l60 297h125l-73 -297h103v-71h-120l-84 -353h-110l-81 353h-96l-89 -353h-106l-88 353h-124zM243 327l32 -158l42 158h-74zM608 327l38 -164l29 164h-67zM465 530l-34 -132h62z" />
    <glyph glyph-name="Korea1.324" unicode="&#xff3d;" vert-adv-y="1105" 
d="M42 -170v110h164v716h-164v110h293v-936h-293z" />
    <glyph glyph-name="Korea1.325" unicode="&#xff3e;" vert-adv-y="1105" 
d="M675 401h-118l-102 224l-102 -224h-118l162 323h117z" />
    <glyph glyph-name="Korea1.326" unicode="&#xff3f;" vert-adv-y="1105" 
d="M715 -75v-75h-520v75h520z" />
    <glyph glyph-name="Korea1.327" unicode="&#xff40;" vert-adv-y="1105" 
d="M595 562h-114l-148 155h149z" />
    <glyph glyph-name="Korea1.328" unicode="&#xff41;" vert-adv-y="1105" 
d="M412 -34c-118 0 -187 57 -187 154v32c0 90 53 157 208 157h126v21c0 68 -30 96 -98 96c-59 0 -110 -19 -156 -55l-62 92c56 39 125 74 219 74c129 0 222 -65 222 -176v-387h-113l-2 68c-21 -49 -99 -76 -157 -76zM559 196v15h-123c-66 0 -89 -27 -89 -70v-12
c0 -36 26 -57 75 -57c53 0 88 11 114 37c23 22 23 46 23 87z" />
    <glyph glyph-name="Korea1.329" unicode="&#xff42;" vert-adv-y="1105" 
d="M332 38h-3v-64h-120v756h126v-259c36 52 107 66 151 66c142 0 215 -92 215 -235v-97c0 -149 -88 -239 -221 -239c-73 0 -123 30 -148 72zM576 219v63c0 93 -34 147 -115 147c-84 0 -128 -55 -128 -130v-117c0 -51 55 -109 131 -109c73 0 112 54 112 146z" />
    <glyph glyph-name="Korea1.330" unicode="&#xff43;" vert-adv-y="1105" 
d="M473 537c104 0 158 -32 201 -65l-61 -92c-45 36 -88 47 -140 47c-63 0 -122 -37 -122 -139v-67c0 -112 69 -144 124 -144c69 0 111 18 150 47l60 -92c-37 -34 -111 -66 -211 -66c-162 0 -250 96 -250 253v69c0 157 95 249 249 249z" />
    <glyph glyph-name="Korea1.331" unicode="&#xff44;" vert-adv-y="1105" 
d="M581 -26v65h-3c-29 -53 -92 -73 -158 -73c-141 0 -211 86 -211 235v97c0 149 87 239 220 239c87 0 129 -35 145 -59v252h126v-756h-119zM333 282v-62c0 -93 39 -147 112 -147c83 0 131 60 131 135v112c0 51 -39 109 -126 109c-80 0 -117 -55 -117 -147z" />
    <glyph glyph-name="Korea1.332" unicode="&#xff45;" vert-adv-y="1105" 
d="M332 299h248v24c0 59 -34 110 -122 110c-84 0 -126 -51 -126 -113v-21zM635 116l52 -91c-53 -36 -123 -59 -226 -59c-127 0 -252 60 -252 257v57c0 179 111 257 251 257s241 -81 241 -242v-91h-369c0 -88 48 -133 136 -133c65 0 112 13 167 45z" />
    <glyph glyph-name="Korea1.333" unicode="&#xff46;" vert-adv-y="1105" 
d="M357 -26v448h-88v103h88v38c0 110 59 173 180 173c41 0 81 -8 104 -16l-20 -101c-21 7 -44 10 -72 10c-44 0 -66 -23 -66 -69v-35h139v-103h-139v-448h-126z" />
    <glyph glyph-name="Korea1.334" unicode="&#xff47;" vert-adv-y="1105" 
d="M576 -20v68h-2c-29 -53 -88 -72 -154 -72c-141 0 -211 86 -211 235v87c0 148 87 239 220 239c86 0 132 -36 149 -60h1v48h121v-546c0 -153 -82 -228 -262 -228c-69 0 -144 25 -189 60l57 98c22 -19 82 -47 134 -47c89 0 136 37 136 118zM333 282v-52
c0 -93 39 -147 112 -147c83 0 131 60 131 135v102c0 51 -39 109 -126 109c-80 0 -117 -55 -117 -147z" />
    <glyph glyph-name="Korea1.335" unicode="&#xff48;" vert-adv-y="1105" 
d="M501 537c99 0 192 -56 192 -204v-359h-126v332c0 82 -34 121 -105 121c-41 0 -119 -18 -119 -127v-326h-126v756h119v-268h2c39 55 98 75 163 75z" />
    <glyph glyph-name="Korea1.336" unicode="&#xff49;" vert-adv-y="1105" 
d="M392 -26v551h126v-551h-126zM389 606v136h132v-136h-132z" />
    <glyph glyph-name="Korea1.337" unicode="&#xff4a;" vert-adv-y="1105" 
d="M466 606v136h132v-136h-132zM595 525v-601c0 -103 -47 -173 -175 -173c-41 0 -86 7 -109 15l20 102c29 -8 49 -10 72 -10c46 0 66 18 66 71v596h126z" />
    <glyph glyph-name="Korea1.338" unicode="&#xff4b;" vert-adv-y="1105" 
d="M696 525l-214 -228l223 -323h-161l-150 234l-63 -70v-164h-126v756h126v-438l206 233h159z" />
    <glyph glyph-name="Korea1.339" unicode="&#xff4c;" vert-adv-y="1105" 
d="M392 -26v756h126v-756h-126z" />
    <glyph glyph-name="Korea1.340" unicode="&#xff4d;" vert-adv-y="1105" 
d="M655 537c102 0 190 -70 190 -208v-355h-126v329c0 99 -47 122 -100 122c-49 0 -101 -26 -101 -118v-333h-126v331c0 93 -44 120 -100 120c-59 0 -101 -37 -101 -113v-338h-126v551h119v-70h2c27 50 80 82 151 82c68 0 127 -34 147 -84c39 55 88 84 171 84z" />
    <glyph glyph-name="Korea1.341" unicode="&#xff4e;" vert-adv-y="1105" 
d="M501 537c99 0 192 -56 192 -204v-359h-126v332c0 82 -34 121 -105 121c-41 0 -119 -18 -119 -127v-326h-126v551h119v-63h2c39 55 98 75 163 75z" />
    <glyph glyph-name="Korea1.342" unicode="&#xff4f;" vert-adv-y="1105" 
d="M455 76c75 0 131 40 131 145v61c0 105 -52 145 -131 145s-131 -40 -131 -145v-61c0 -105 56 -145 131 -145zM455 -34c-156 0 -258 92 -258 253v65c0 162 102 253 258 253s258 -91 258 -253v-65c0 -161 -102 -253 -258 -253z" />
    <glyph glyph-name="Korea1.343" unicode="&#xff50;" vert-adv-y="1105" 
d="M479 -34c-66 0 -115 25 -144 64v-270h-126v765h121v-60c38 56 104 72 155 72c145 0 216 -94 216 -235v-97c0 -148 -87 -239 -222 -239zM576 219v63c0 93 -34 147 -115 147c-84 0 -128 -55 -128 -130v-117c0 -51 55 -109 131 -109c73 0 112 54 112 146z" />
    <glyph glyph-name="Korea1.344" unicode="&#xff51;" vert-adv-y="1105" 
d="M576 -240v278h-3c-29 -53 -87 -72 -153 -72c-141 0 -211 86 -211 235v97c0 149 87 239 220 239c84 0 129 -35 147 -59h2v47h122v-765h-124zM333 282v-62c0 -93 39 -147 112 -147c83 0 131 60 131 135v112c0 51 -39 109 -126 109c-80 0 -117 -55 -117 -147z" />
    <glyph glyph-name="Korea1.345" unicode="&#xff52;" vert-adv-y="1105" 
d="M632 526l-36 -114c-19 8 -38 12 -70 12c-70 0 -123 -52 -123 -123v-327h-126v555h121v-84h2c29 55 76 92 154 92c28 0 58 -4 78 -11z" />
    <glyph glyph-name="Korea1.346" unicode="&#xff53;" vert-adv-y="1105" 
d="M458 73c57 0 94 13 94 55v6c0 38 -12 47 -115 67c-134 26 -187 68 -187 172v10c0 75 59 154 213 154c63 0 139 -7 203 -50l-54 -91c-37 25 -85 35 -133 35c-78 0 -103 -20 -103 -49v-6c0 -39 17 -45 102 -62c140 -28 202 -59 202 -177v-11c0 -86 -79 -160 -219 -160
c-92 0 -179 25 -232 68l56 96c49 -33 104 -57 173 -57z" />
    <glyph glyph-name="Korea1.347" unicode="&#xff54;" vert-adv-y="1105" 
d="M360 130v291h-88v104h88v141h126v-141h139v-104h-139v-290c0 -47 21 -57 54 -57c25 0 49 4 78 16l20 -101c-23 -10 -64 -23 -113 -23c-126 0 -165 61 -165 164z" />
    <glyph glyph-name="Korea1.348" unicode="&#xff55;" vert-adv-y="1105" 
d="M409 -35c-115 0 -191 70 -191 204v356h126v-329c0 -96 45 -121 104 -121c50 0 117 30 117 129v321h126v-551h-120v66h-2c-31 -52 -100 -75 -160 -75z" />
    <glyph glyph-name="Korea1.349" unicode="&#xff56;" vert-adv-y="1105" 
d="M537 -26h-164l-180 552h138l125 -434h4l126 434h131z" />
    <glyph glyph-name="Korea1.350" unicode="&#xff57;" vert-adv-y="1105" 
d="M363 -26h-147l-137 551h135l81 -427h4l100 427h119l95 -427h4l88 427h126l-136 -551h-147l-90 388h-4z" />
    <glyph glyph-name="Korea1.351" unicode="&#xff58;" vert-adv-y="1105" 
d="M705 525l-169 -265l174 -286h-150l-109 201l-110 -201h-142l178 286l-171 265h151l103 -184l106 184h139z" />
    <glyph glyph-name="Korea1.352" unicode="&#xff59;" vert-adv-y="1105" 
d="M190 525h140l125 -407h4l126 407h134l-286 -780l-118 41l71 181z" />
    <glyph glyph-name="Korea1.353" unicode="&#xff5a;" vert-adv-y="1105" 
d="M665 525v-100l-270 -341h286v-110h-452v86l282 355h-262v110h416z" />
    <glyph glyph-name="Korea1.354" unicode="&#xff5b;" vert-adv-y="1105" 
d="M473 255v105c73 1 106 20 106 77v178c0 98 66 151 168 151h121v-111h-98c-57 0 -62 -24 -62 -92v-133c0 -47 -18 -107 -88 -123c68 -15 88 -73 88 -123v-159c0 -68 7 -84 62 -84h98v-111h-121c-102 0 -168 46 -168 143v203c0 58 -33 78 -106 79z" />
    <glyph glyph-name="Korea1.355" unicode="&#xff5c;" vert-adv-y="1105" 
d="M519 765v-935h-127v935h127z" />
    <glyph glyph-name="Korea1.356" unicode="&#xff5d;" vert-adv-y="1105" 
d="M437 360v-105c-73 -1 -106 -21 -106 -79v-203c0 -97 -66 -143 -168 -143h-121v111h98c55 0 62 16 62 84v159c0 50 20 108 88 123c-70 16 -88 76 -88 123v133c0 68 -5 92 -62 92h-98v111h121c102 0 168 -53 168 -151v-178c0 -57 33 -76 106 -77z" />
    <glyph glyph-name="Korea1.357" unicode="&#x203e;" vert-adv-y="1105" 
d="M905 762v-39h-900v39h900z" />
    <glyph glyph-name="Korea1.358" unicode="&#x3131;" vert-adv-y="1105" 
d="M742 56h-126v387h-478v107h604v-494z" />
    <glyph glyph-name="Korea1.359" unicode="&#x3132;" vert-adv-y="1105" 
d="M429 56h-126v387h-204v107h330v-494zM785 56h-126v387h-192v107h318v-494z" />
    <glyph glyph-name="Korea1.360" unicode="&#x3133;" vert-adv-y="1105" 
d="M427 56h-126v383h-181v107h307v-490zM658 214h-1c-5 -11 -16 -28 -37 -55c-29 -37 -63 -77 -106 -122l-82 79c45 48 79 87 118 140c34 46 43 78 43 144v155h126v-155c0 -66 9 -98 43 -144c39 -53 73 -92 118 -140l-80 -77c-43 45 -76 84 -105 121c-21 27 -32 44 -37 54z
" />
    <glyph glyph-name="Korea1.361" unicode="&#x3134;" vert-adv-y="1105" 
d="M168 557h126v-394h468v-107h-594v501z" />
    <glyph glyph-name="Korea1.362" unicode="&#x3135;" vert-adv-y="1105" 
d="M260 548v-395c47 0 99 3 148 10l4 -39c36 42 64 79 92 120c40 58 47 88 47 153v50h-120v107h364v-107h-119v-50c0 -65 8 -95 47 -153c30 -44 62 -86 105 -135l-86 -71c-34 39 -66 82 -90 116c-27 38 -32 52 -36 62h-1c-4 -10 -11 -26 -38 -64c-24 -34 -56 -77 -90 -116
l-72 59l4 -36c-47 -8 -111 -12 -177 -12h-108v501h126z" />
    <glyph glyph-name="Korea1.363" unicode="&#x3136;" vert-adv-y="1105" 
d="M257 548v-395c54 0 102 3 161 10l11 -104c-47 -8 -111 -12 -177 -12h-118v501h123zM673 579v-79h134v-97h-392v97h138v79h120zM613 29c-113 0 -170 71 -170 149v46c0 78 57 149 170 149s170 -71 170 -149v-46c0 -78 -57 -149 -170 -149zM613 281c-45 0 -65 -38 -65 -69
v-22c0 -31 20 -69 65 -69s65 38 65 69v22c0 31 -20 69 -65 69z" />
    <glyph glyph-name="Korea1.364" unicode="&#x3137;" vert-adv-y="1105" 
d="M760 54h-602v498h596v-107h-470v-284h476v-107z" />
    <glyph glyph-name="Korea1.365" unicode="&#x3138;" vert-adv-y="1105" 
d="M788 54h-309v498h306v-107h-180v-284h183v-107zM435 54h-292v498h289v-107h-163v-284h166v-107z" />
    <glyph glyph-name="Korea1.366" unicode="&#x3139;" vert-adv-y="1105" 
d="M771 46h-619v310h481v100h-481v106h606v-310h-481v-100h494v-106z" />
    <glyph glyph-name="Korea1.367" unicode="&#x313a;" vert-adv-y="1105" 
d="M799 54h-126v393h-188v107h314v-500zM461 54h-329v302h193v92h-193v106h311v-302h-193v-92h211v-106z" />
    <glyph glyph-name="Korea1.368" unicode="&#x313b;" vert-adv-y="1105" 
d="M435 54h-313v302h184v92h-184v106h300v-302h-184v-92h197v-106zM684 161v286h-96v-286h96zM798 54h-324v500h324v-500z" />
    <glyph glyph-name="Korea1.369" unicode="&#x313c;" vert-adv-y="1105" 
d="M684 161v128h-96v-128h96zM798 54h-324v500h114v-159h96v159h114v-500zM435 54h-313v302h184v92h-184v106h300v-302h-184v-92h197v-106z" />
    <glyph glyph-name="Korea1.370" unicode="&#x313d;" vert-adv-y="1105" 
d="M435 54h-313v302h182v92h-182v106h300v-302h-182v-92h195v-23c35 39 65 74 98 119c34 46 43 78 43 144v155h126v-155c0 -66 9 -98 43 -144c39 -53 73 -92 118 -140l-80 -77c-43 45 -76 84 -105 121c-21 27 -32 44 -37 54h-1c-5 -11 -16 -28 -37 -55
c-29 -37 -63 -77 -106 -122l-62 59v-42z" />
    <glyph glyph-name="Korea1.371" unicode="&#x313e;" vert-adv-y="1105" 
d="M787 54h-313v500h308v-106h-191v-92h181v-104h-181v-92h196v-106zM435 54h-313v302h184v92h-184v106h300v-302h-184v-92h197v-106z" />
    <glyph glyph-name="Korea1.372" unicode="&#x313f;" vert-adv-y="1105" 
d="M799 159v-105h-346v105h43v290h-38v105h336v-105h-38v-290h43zM427 54h-309v302h182v92h-182v106h296v-302h-182v-92h195v-106zM603 449v-290h46v290h-46z" />
    <glyph glyph-name="Korea1.373" unicode="&#x3140;" vert-adv-y="1105" 
d="M416 54h-303v302h174v92h-174v106h290v-302h-174v-92h187v-106zM685 579v-79h131v-97h-382v97h131v79h120zM625 29c-113 0 -170 71 -170 149v46c0 78 57 149 170 149s170 -71 170 -149v-46c0 -78 -57 -149 -170 -149zM625 281c-45 0 -65 -38 -65 -69v-22
c0 -31 20 -69 65 -69s65 38 65 69v22c0 31 -20 69 -65 69z" />
    <glyph glyph-name="Korea1.374" unicode="&#x3141;" vert-adv-y="1105" 
d="M631 161v286h-352v-286h352zM757 54h-604v500h604v-500z" />
    <glyph glyph-name="Korea1.375" unicode="&#x3142;" vert-adv-y="1105" 
d="M631 160v129h-352v-129h352zM757 53h-604v507h126v-164h352v164h126v-507z" />
    <glyph glyph-name="Korea1.376" unicode="&#x3143;" vert-adv-y="1105" 
d="M431 560v-507h-308v507h112v-164h84v164h112zM787 560v-507h-308v507h112v-164h84v164h112zM591 290v-132h84v132h-84zM235 290v-132h84v132h-84z" />
    <glyph glyph-name="Korea1.377" unicode="&#x3144;" vert-adv-y="1105" 
d="M641 214h-1c-5 -11 -16 -28 -37 -55c-29 -37 -63 -77 -106 -122l-65 62v-46h-318v507h112v-164h94v164h112v-426c37 40 67 76 101 122s43 78 43 144v160h126v-160c0 -66 9 -98 43 -144c39 -53 73 -92 118 -140l-80 -77c-43 45 -76 84 -105 121c-21 27 -32 44 -37 54z
M226 290v-132h94v132h-94z" />
    <glyph glyph-name="Korea1.378" unicode="&#x3145;" vert-adv-y="1105" 
d="M519 568v-119c0 -81 17 -121 97 -182c59 -45 120 -86 188 -129l-66 -94c-69 44 -138 91 -192 132c-44 33 -82 66 -88 80h-1c-5 -15 -47 -50 -91 -83c-54 -41 -123 -88 -192 -132l-68 97c68 43 129 84 188 129c80 61 97 101 97 182v119h128z" />
    <glyph glyph-name="Korea1.379" unicode="&#x3146;" vert-adv-y="1105" 
d="M565 572h121v-164c0 -73 11 -110 66 -172c27 -30 77 -78 118 -116l-75 -81c-41 36 -79 73 -110 104c-26 26 -48 51 -59 68h-1c-9 -15 -35 -43 -62 -70c-32 -32 -73 -72 -108 -103c-35 32 -76 71 -108 103c-27 27 -53 55 -62 70h-1c-11 -17 -33 -42 -59 -68
c-31 -31 -69 -68 -110 -104l-75 81c41 38 91 86 118 116c55 62 66 99 66 172v164h121v-164c0 -80 2 -100 48 -154c15 -18 35 -39 62 -67c27 28 47 49 62 67c46 54 48 74 48 154v164z" />
    <glyph glyph-name="Korea1.380" unicode="&#x3147;" vert-adv-y="1105" 
d="M455 47c-176 0 -301 101 -301 238v44c0 137 125 238 301 238s301 -101 301 -238v-44c0 -137 -125 -238 -301 -238zM455 457c-107 0 -176 -63 -176 -131v-38c0 -68 69 -131 176 -131s176 63 176 131v38c0 68 -69 131 -176 131z" />
    <glyph glyph-name="Korea1.381" unicode="&#x3148;" vert-adv-y="1105" 
d="M145 450v111h620v-111h-246v-14c0 -79 14 -117 95 -175c62 -44 120 -82 190 -124l-63 -96c-70 43 -139 88 -195 128c-45 31 -83 66 -88 77h-1c-4 -11 -36 -41 -91 -80c-56 -40 -125 -85 -195 -128l-65 99c70 42 128 80 190 124c81 58 95 96 95 175v14h-246z" />
    <glyph glyph-name="Korea1.382" unicode="&#x3149;" vert-adv-y="1105" 
d="M117 451v110h676v-110h-121v-44c0 -70 11 -108 65 -169c26 -29 62 -63 111 -108l-74 -80c-33 29 -63 58 -88 83c-37 37 -64 66 -70 79h-1c-7 -13 -36 -44 -61 -69c-32 -32 -68 -66 -99 -95c-31 29 -67 63 -99 95c-25 25 -54 56 -61 69h-1c-6 -13 -33 -42 -70 -79
c-25 -25 -55 -54 -88 -83l-74 80c49 45 85 79 111 108c54 61 65 99 65 169v44h-121zM498 240c49 54 59 77 59 167v44h-204v-44c0 -90 10 -113 59 -167c12 -13 27 -28 43 -43c16 15 31 30 43 43z" />
    <glyph glyph-name="Korea1.383" unicode="&#x314a;" vert-adv-y="1105" 
d="M132 528h259v109h128v-109h259v-110h-259c0 -78 19 -114 91 -162c63 -42 123 -78 194 -117l-59 -98c-72 41 -142 83 -199 121c-47 30 -84 62 -88 72h-1c-4 -11 -44 -45 -91 -75c-57 -38 -127 -80 -199 -121l-61 101c71 39 130 74 194 117c72 49 91 84 91 162h-259v110z
" />
    <glyph glyph-name="Korea1.384" unicode="&#x314b;" vert-adv-y="1105" 
d="M755 48h-125v176l-495 -7l-4 106l499 7v125h-479v106h604v-513z" />
    <glyph glyph-name="Korea1.385" unicode="&#x314c;" vert-adv-y="1105" 
d="M775 158v-106h-616v502h608v-106h-483v-93h472v-104h-472v-93h491z" />
    <glyph glyph-name="Korea1.386" unicode="&#x314d;" vert-adv-y="1105" 
d="M133 446v106h644v-106h-113v-287h123v-106h-664v106h123v287h-113zM370 446v-287h170v287h-170z" />
    <glyph glyph-name="Korea1.387" unicode="&#x314e;" vert-adv-y="1105" 
d="M519 637v-107h259v-106h-646v106h259v107h128zM455 7c-162 0 -271 61 -271 170v40c0 109 109 170 271 170s271 -61 271 -170v-40c0 -109 -109 -170 -271 -170zM455 285c-98 0 -151 -30 -151 -77v-22c0 -47 53 -77 151 -77s151 30 151 77v22c0 47 -53 77 -151 77z" />
    <glyph glyph-name="Korea1.388" unicode="&#x314f;" vert-adv-y="1105" 
d="M499 786v-365h181v-110h-181v-455h-127v930h127z" />
    <glyph glyph-name="Korea1.389" unicode="&#x3150;" vert-adv-y="1105" 
d="M625 786v-930h-121v456h-100v-411h-121v866h121v-346h100v365h121z" />
    <glyph glyph-name="Korea1.390" unicode="&#x3151;" vert-adv-y="1105" 
d="M498 786v-257h174v-108h-174v-116h174v-108h-174v-341h-126v930h126z" />
    <glyph glyph-name="Korea1.391" unicode="&#x3152;" vert-adv-y="1105" 
d="M401 767v-228h106v247h118v-930h-118v331h-106v-286h-118v866h118zM401 433v-140h106v140h-106z" />
    <glyph glyph-name="Korea1.392" unicode="&#x3153;" vert-adv-y="1105" 
d="M472 421v365h127v-930h-127v455h-181v110h181z" />
    <glyph glyph-name="Korea1.393" unicode="&#x3154;" vert-adv-y="1105" 
d="M364 -99v413h-137v109h137v344h120v-866h-120zM682 786v-930h-120v930h120z" />
    <glyph glyph-name="Korea1.394" unicode="&#x3155;" vert-adv-y="1105" 
d="M473 529v257h126v-930h-126v341h-174v108h174v116h-174v108h174z" />
    <glyph glyph-name="Korea1.395" unicode="&#x3156;" vert-adv-y="1105" 
d="M364 -99v297h-137v108h137v116h-137v108h137v237h120v-866h-120zM682 786v-930h-120v930h120z" />
    <glyph glyph-name="Korea1.396" unicode="&#x3157;" vert-adv-y="1105" 
d="M519 494v-334h362v-107h-852v107h363v334h127z" />
    <glyph glyph-name="Korea1.397" unicode="&#x3158;" vert-adv-y="1105" 
d="M778 786v-342h129v-110h-129v-478h-125v930h125zM32 42v109c80 0 154 0 222 1v263h125v-260c94 3 170 7 228 13l9 -105c-107 -14 -275 -21 -584 -21z" />
    <glyph glyph-name="Korea1.398" unicode="&#x3159;" vert-adv-y="1105" 
d="M681 770v-334h65v350h121v-930h-121v471h-65v-446h-121v889h121zM523 180l5 -102c-130 -13 -278 -16 -485 -16v106h176v245h124v-242c55 2 113 4 180 9z" />
    <glyph glyph-name="Korea1.399" unicode="&#x315a;" vert-adv-y="1105" 
d="M813 786v-930h-125v930h125zM48 42v109c82 0 158 0 226 1v263h125v-261c102 3 183 8 243 14l9 -105c-107 -14 -278 -21 -603 -21z" />
    <glyph glyph-name="Korea1.400" unicode="&#x315b;" vert-adv-y="1105" 
d="M534 494h125v-335h222v-106h-852v106h222v335h125v-335h158v335z" />
    <glyph glyph-name="Korea1.401" unicode="&#x315c;" vert-adv-y="1105" 
d="M29 333h852v-107h-362v-331h-127v331h-363v107z" />
    <glyph glyph-name="Korea1.402" unicode="&#x315d;" vert-adv-y="1105" 
d="M505 161h184v625h125v-930h-125v199h-184v106zM50 232v107c271 0 471 5 592 17l9 -103c-60 -8 -140 -14 -255 -17v-353h-125v350c-65 -1 -138 -1 -221 -1z" />
    <glyph glyph-name="Korea1.403" unicode="&#x315e;" vert-adv-y="1105" 
d="M404 175h144v595h121v-889h-121v190h-144v104zM850 786v-930h-121v930h121zM510 335l5 -102c-56 -6 -114 -9 -179 -12v-306h-121v303c-57 -1 -118 -1 -185 -1v106c172 0 294 0 480 12z" />
    <glyph glyph-name="Korea1.404" unicode="&#x315f;" vert-adv-y="1105" 
d="M814 786v-930h-125v930h125zM50 188v108c271 0 471 5 592 17l9 -104c-59 -8 -137 -13 -248 -17v-309h-125v306c-66 -1 -142 -1 -228 -1z" />
    <glyph glyph-name="Korea1.405" unicode="&#x3160;" vert-adv-y="1105" 
d="M29 333h852v-106h-222v-332h-125v332h-158v-332h-125v332h-222v106z" />
    <glyph glyph-name="Korea1.406" unicode="&#x3161;" vert-adv-y="1105" 
d="M29 190h852v-107h-852v107z" />
    <glyph glyph-name="Korea1.407" unicode="&#x3162;" vert-adv-y="1105" 
d="M813 786v-930h-125v930h125zM48 73v109c281 0 478 5 594 17l9 -105c-107 -14 -278 -21 -603 -21z" />
    <glyph glyph-name="Korea1.408" unicode="&#x3163;" vert-adv-y="1105" 
d="M519 786v-930h-127v930h127z" />
    <glyph glyph-name="Korea1.409" unicode="&#x3165;" vert-adv-y="1105" 
d="M775 54h-309v498h126v-391h183v-107zM422 54h-289v498h126v-391h163v-107z" />
    <glyph glyph-name="Korea1.410" unicode="&#x3166;" vert-adv-y="1105" 
d="M775 54h-309v498h306v-107h-180v-284h183v-107zM422 54h-289v498h126v-391h163v-107z" />
    <glyph glyph-name="Korea1.411" unicode="&#x3167;" vert-adv-y="1105" 
d="M377 54h-289v498h126v-391h163v-41c43 46 76 84 114 136c34 46 43 78 43 144v155h126v-155c0 -66 9 -98 43 -144c39 -53 73 -92 118 -140l-80 -77c-43 45 -76 84 -105 121c-21 27 -32 44 -37 54h-1c-5 -11 -16 -28 -37 -55c-29 -37 -63 -77 -106 -122l-78 75v-58z" />
    <glyph glyph-name="Korea1.412" unicode="&#x3168;" vert-adv-y="1105" 
d="M399 54h-289v498h126v-391h163v-107zM557 157h96l-48 165zM605 603l183 -549h-365z" />
    <glyph glyph-name="Korea1.413" unicode="&#x3169;" vert-adv-y="1105" 
d="M752 554v-166c0 -78 10 -109 134 -269l-76 -67c-70 87 -103 134 -112 157c-8 -24 -41 -70 -113 -160l-44 39v-33h-111v393h-118v108h229v-391c91 121 99 153 99 223v166h112zM320 55h-284v302h135v93h-135v106h246v-303h-137v-92h175v-106z" />
    <glyph glyph-name="Korea1.414" unicode="&#x316a;" vert-adv-y="1105" 
d="M442 54h-313v302h184v92h-184v106h300v-302h-184v-92h197v-106zM790 54h-309v500h301v-107h-175v-286h183v-107z" />
    <glyph glyph-name="Korea1.415" unicode="&#x316b;" vert-adv-y="1105" 
d="M548 54h-255v506h105v-176h45v176h105v-411c86 137 92 167 92 239v166h112v-166c0 -78 7 -107 117 -277l-82 -61c-62 93 -80 136 -89 159c-8 -24 -25 -65 -89 -161l-61 44v-38zM270 54h-245v303h127v93h-127v106h234v-303h-129v-93h140v-106zM443 158v121h-45v-121h45z
" />
    <glyph glyph-name="Korea1.416" unicode="&#x316c;" vert-adv-y="1105" 
d="M424 54h-313v302h184v92h-184v106h300v-302h-184v-92h197v-106zM567 156h96l-48 165zM615 602l183 -549h-365z" />
    <glyph glyph-name="Korea1.417" unicode="&#x316d;" vert-adv-y="1105" 
d="M436 54h-323v302h184v92h-184v106h300v-302h-184v-92h207v-106zM453 553h344v-107h-344v107zM625 31c-113 0 -170 75 -170 154v46c0 79 57 154 170 154s170 -75 170 -154v-46c0 -79 -57 -154 -170 -154zM625 291c-45 0 -65 -41 -65 -72v-22c0 -31 20 -72 65 -72
s65 41 65 72v22c0 31 -20 72 -65 72z" />
    <glyph glyph-name="Korea1.418" unicode="&#x316e;" vert-adv-y="1105" 
d="M787 560v-507h-308v507h112v-166h84v166h112zM591 288v-130h84v130h-84zM319 160v287h-84v-287h84zM431 53h-308v501h308v-501z" />
    <glyph glyph-name="Korea1.419" unicode="&#x316f;" vert-adv-y="1105" 
d="M407 53h-318v501h318v-420c37 40 67 76 101 122s43 78 43 144v155h126v-155c0 -66 9 -98 43 -144c39 -53 73 -92 118 -140l-80 -77c-43 45 -76 84 -105 121c-21 27 -32 44 -37 54h-1c-5 -11 -16 -28 -37 -55c-29 -37 -63 -77 -106 -122l-65 62v-46zM295 160v287h-94v-287
h94z" />
    <glyph glyph-name="Korea1.420" unicode="&#x3170;" vert-adv-y="1105" 
d="M308 160v287h-94v-287h94zM420 53h-318v501h318v-501zM565 156h96l-48 165zM613 602l183 -549h-365z" />
    <glyph glyph-name="Korea1.421" unicode="&#x3171;" vert-adv-y="1105" 
d="M698 285h-487v387h487v-387zM328 570v-183h253v183h-253zM637 116v-32c0 -63 -65 -129 -182 -129c-116 0 -181 66 -181 129v32c0 63 65 129 181 129c117 0 182 -66 182 -129zM531 92v16c0 30 -33 48 -76 48c-42 0 -75 -18 -75 -48v-16c0 -30 33 -48 75 -48
c43 0 76 18 76 48z" />
    <glyph glyph-name="Korea1.422" unicode="&#x3172;" vert-adv-y="1105" 
d="M447 560v-507h-324v507h112v-166h100v166h112zM235 288v-130h100v130h-100zM789 54h-126v393h-168v107h294v-500z" />
    <glyph glyph-name="Korea1.423" unicode="&#x3173;" vert-adv-y="1105" 
d="M438 560v-507h-308v507h112v-166h84v166h112zM242 288v-130h84v130h-84zM779 54h-292v500h282v-107h-158v-286h168v-107z" />
    <glyph glyph-name="Korea1.424" unicode="&#x3174;" vert-adv-y="1105" 
d="M336 54h-267v500h105v-172h57v172h105v-381c85 114 93 146 93 215v166h112v-166c0 -78 10 -109 134 -269l-76 -67c-70 87 -103 134 -112 157c-8 -24 -41 -70 -113 -160l-38 33v-28zM838 554v-499h-111v391h-135v108h246zM231 158v119h-57v-119h57z" />
    <glyph glyph-name="Korea1.425" unicode="&#x3175;" vert-adv-y="1105" 
d="M321 54h-255v500h105v-172h45v172h105v-397c81 130 87 161 87 231v166h112v-166c0 -72 6 -102 91 -237v403h211v-107h-102v-286h112v-107h-221v37l-56 -41c-62 93 -80 136 -89 159c-8 -24 -25 -65 -89 -161l-56 40v-34zM216 158v119h-45v-119h45z" />
    <glyph glyph-name="Korea1.426" unicode="&#x3176;" vert-adv-y="1105" 
d="M800 447h-120v-50c0 -65 11 -94 49 -153c29 -44 58 -85 100 -135l-86 -69c-33 40 -62 81 -86 116c-26 38 -32 50 -36 60h-1c-4 -10 -10 -24 -36 -62c-24 -35 -55 -78 -88 -118l-70 56v-39h-315v507h112v-166h91v166h112v-430c32 40 57 76 83 114c39 59 47 88 47 153v50
h-114v107h358v-107zM223 288v-130h91v130h-91z" />
    <glyph glyph-name="Korea1.427" unicode="&#x3177;" vert-adv-y="1105" 
d="M438 560v-507h-308v507h112v-166h84v166h112zM774 54h-287v500h282v-106h-165v-92h155v-104h-155v-92h170v-106zM242 288v-130h84v130h-84z" />
    <glyph glyph-name="Korea1.428" unicode="&#x3178;" vert-adv-y="1105" 
d="M582 393v84h-255v-84h255zM698 292h-487v387h116v-101h255v101h116v-387zM637 116v-32c0 -63 -65 -129 -182 -129c-116 0 -181 66 -181 129v32c0 63 65 129 181 129c117 0 182 -66 182 -129zM531 92v16c0 30 -33 48 -76 48c-42 0 -75 -18 -75 -48v-16
c0 -30 33 -48 75 -48c43 0 76 18 76 48z" />
    <glyph glyph-name="Korea1.429" unicode="&#x3179;" vert-adv-y="1105" 
d="M438 289h-263v374h102v-103h61v103h100v-374zM338 386v76h-61v-76h61zM736 289h-263v374h102v-103h59v103h102v-374zM634 386v76h-59v-76h59zM637 116v-32c0 -63 -65 -129 -182 -129c-116 0 -181 66 -181 129v32c0 63 65 129 181 129c117 0 182 -66 182 -129zM531 92v16
c0 30 -33 48 -76 48c-42 0 -75 -18 -75 -48v-16c0 -30 33 -48 75 -48c43 0 76 18 76 48z" />
    <glyph glyph-name="Korea1.430" unicode="&#x317a;" vert-adv-y="1105" 
d="M332 214h-1c-5 -11 -16 -28 -37 -55c-29 -37 -63 -77 -106 -122l-82 79c45 48 79 87 118 140c34 46 43 78 43 144v155h126v-155c0 -66 9 -98 43 -144c39 -53 73 -92 118 -140l-80 -77c-43 45 -76 84 -105 121c-21 27 -32 44 -37 54zM797 56h-126v386h-203v107h329v-493z
" />
    <glyph glyph-name="Korea1.431" unicode="&#x317b;" vert-adv-y="1105" 
d="M810 54h-309v41l-58 -56c-43 45 -76 84 -105 121c-21 27 -32 44 -37 54h-1c-5 -11 -16 -28 -37 -55c-29 -37 -63 -77 -106 -122l-82 79c45 48 79 87 118 140c34 46 43 78 43 144v155h126v-155c0 -66 9 -98 43 -144c32 -44 61 -79 96 -117v416h126v-394h183v-107z" />
    <glyph glyph-name="Korea1.432" unicode="&#x317c;" vert-adv-y="1105" 
d="M301 214h-1c-5 -11 -16 -28 -37 -55c-29 -37 -63 -77 -106 -122l-82 79c45 48 79 87 118 140c34 46 43 78 43 144v155h126v-155c0 -66 9 -98 43 -144c32 -44 61 -79 96 -117v415h299v-107h-175v-286h185v-107h-309v41l-58 -56c-43 45 -76 84 -105 121
c-21 27 -32 44 -37 54z" />
    <glyph glyph-name="Korea1.433" unicode="&#x317d;" vert-adv-y="1105" 
d="M301 214h-1c-5 -11 -16 -28 -37 -55c-29 -37 -63 -77 -106 -122l-82 79c45 48 79 87 118 140c34 46 43 78 43 144v155h126v-155c0 -66 9 -98 43 -144c32 -44 61 -79 96 -117v421h112v-166h84v166h112v-507h-308v42l-58 -56c-43 45 -76 84 -105 121c-21 27 -32 44 -37 54z
M613 288v-130h84v130h-84z" />
    <glyph glyph-name="Korea1.434" unicode="&#x317e;" vert-adv-y="1105" 
d="M790 447h-117v-50c0 -65 8 -95 47 -153c30 -44 62 -86 105 -135l-85 -71c-34 39 -66 82 -90 116c-27 38 -32 52 -36 62h-1c-4 -10 -11 -26 -38 -64c-35 -48 -68 -81 -113 -119h-2c-49 40 -93 90 -122 127c-21 27 -32 44 -37 54h-1c-5 -11 -16 -28 -37 -55
c-29 -37 -63 -77 -106 -122l-82 79c45 48 79 87 118 140c34 46 42 78 42 144v155h126v-155c0 -66 10 -98 44 -144c19 -26 38 -52 55 -67c14 14 28 34 42 55c39 59 47 88 47 153v50h-113v107h354v-107z" />
    <glyph glyph-name="Korea1.435" unicode="&#x317f;" vert-adv-y="1105" 
d="M454 659l249 -596h-496zM371 166h169l-86 210z" />
    <glyph glyph-name="Korea1.436" unicode="&#x3180;" vert-adv-y="1105" 
d="M270 44c-114 0 -174 79 -174 209v94c0 130 60 209 174 209s174 -79 174 -209v-94c0 -130 -60 -209 -174 -209zM270 453c-48 0 -61 -37 -61 -115v-76c0 -78 13 -115 61 -115s61 37 61 115v76c0 78 -13 115 -61 115zM640 44c-114 0 -174 79 -174 209v94
c0 130 60 209 174 209s174 -79 174 -209v-94c0 -130 -60 -209 -174 -209zM640 453c-48 0 -61 -37 -61 -115v-76c0 -78 13 -115 61 -115s61 37 61 115v76c0 78 -13 115 -61 115z" />
    <glyph glyph-name="Korea1.437" unicode="&#x3181;" vert-adv-y="1105" 
d="M455 -29c-172 0 -269 123 -269 234v70c0 96 73 202 205 228v154h128v-154c132 -26 205 -132 205 -228v-70c0 -111 -97 -234 -269 -234zM455 401c-92 0 -150 -60 -150 -139v-44c0 -79 58 -139 150 -139s149 60 149 139v44c0 79 -57 139 -149 139z" />
    <glyph glyph-name="Korea1.438" unicode="&#x3182;" vert-adv-y="1105" 
d="M544 555h125v-158c0 -65 8 -95 47 -153c30 -44 62 -86 105 -135l-86 -71c-34 39 -66 82 -90 116c-27 38 -32 52 -36 62h-1c-4 -10 -11 -26 -38 -64c-24 -34 -56 -77 -90 -116l-79 65c-29 -37 -75 -55 -134 -55c-105 0 -168 57 -168 175v54c0 92 38 147 106 167v128h125
v-128c67 -20 105 -75 105 -167v-54c0 -28 -4 -53 -11 -74c28 33 50 64 73 97c40 58 47 88 47 153v158zM267 354c-41 0 -56 -34 -56 -92v-28c0 -58 15 -92 56 -92s56 34 56 92v28c0 58 -15 92 -56 92z" />
    <glyph glyph-name="Korea1.439" unicode="&#x3183;" vert-adv-y="1105" 
d="M285 46c-105 0 -168 57 -168 175v54c0 92 38 147 106 167v128h125v-128c67 -20 105 -75 105 -167v-54c0 -118 -63 -175 -168 -175zM618 602l183 -549h-365zM285 354c-41 0 -56 -34 -56 -92v-28c0 -58 15 -92 56 -92s56 34 56 92v28c0 58 -15 92 -56 92zM570 156h96
l-48 165z" />
    <glyph glyph-name="Korea1.440" unicode="&#x3184;" vert-adv-y="1105" 
d="M214 674h482v-101h-81v-178h90v-101h-502v101h90v178h-79v101zM401 573v-178h106v178h-106zM637 116v-32c0 -63 -65 -129 -182 -129c-116 0 -181 66 -181 129v32c0 63 65 129 181 129c117 0 182 -66 182 -129zM531 92v16c0 30 -33 48 -76 48c-42 0 -75 -18 -75 -48v-16
c0 -30 33 -48 75 -48c43 0 76 18 76 48z" />
    <glyph glyph-name="Korea1.441" unicode="&#x3185;" vert-adv-y="1105" 
d="M283 31c-96 0 -146 64 -146 130v84c0 66 50 130 146 130s146 -64 146 -130v-84c0 -66 -50 -130 -146 -130zM629 31c-96 0 -146 64 -146 130v84c0 66 50 130 146 130s146 -64 146 -130v-84c0 -66 -50 -130 -146 -130zM468 496h107v79h108v-79h107v-90h-322v90zM122 496
h107v79h108v-79h107v-90h-322v90zM283 288c-29 0 -43 -20 -43 -55v-60c0 -35 14 -55 43 -55s43 20 43 55v60c0 35 -14 55 -43 55zM629 288c-29 0 -43 -20 -43 -55v-60c0 -35 14 -55 43 -55s43 20 43 55v60c0 35 -14 55 -43 55z" />
    <glyph glyph-name="Korea1.442" unicode="&#x3186;" vert-adv-y="1105" 
d="M708 645v-107h-507v107h507zM455 -1c-147 0 -241 92 -241 224v32c0 132 94 224 241 224s241 -92 241 -224v-32c0 -132 -94 -224 -241 -224zM455 376c-88 0 -130 -61 -130 -125v-24c0 -64 42 -125 130 -125s130 61 130 125v24c0 64 -42 125 -130 125z" />
    <glyph glyph-name="Korea1.443" unicode="&#x3187;" vert-adv-y="1105" 
d="M778 439v-118h129v-108h-129v-357h-124v930h124v-239h129v-108h-129zM145 415h122v-264l100 2v262h122v-257c45 3 85 5 118 9l9 -104c-107 -14 -275 -21 -584 -21v108h113v265z" />
    <glyph glyph-name="Korea1.444" unicode="&#x3188;" vert-adv-y="1105" 
d="M680 770v-225h67v241h120v-930h-120v356h-67v-331h-120v889h120zM523 178l5 -101c-130 -13 -278 -16 -485 -16v105h83v247h121v-246c25 0 50 1 76 1v245h121v-240c25 1 51 3 79 5zM680 438v-119h67v119h-67z" />
    <glyph glyph-name="Korea1.445" unicode="&#x3189;" vert-adv-y="1105" 
d="M397 415h122v-257c48 2 89 5 123 9l9 -104c-107 -14 -278 -21 -603 -21v108c44 0 86 -1 127 0v265h122v-264l100 2v262zM813 786v-930h-125v930h125z" />
    <glyph glyph-name="Korea1.446" unicode="&#x318a;" vert-adv-y="1105" 
d="M50 252v107c271 0 471 5 592 17l9 -103c-43 -6 -96 -10 -163 -14v-374h-123v370c-24 0 -49 -1 -76 -2v-368h-123v367h-116zM540 216h150v570h124v-930h-124v117h-150v100h150v43h-150v100z" />
    <glyph glyph-name="Korea1.447" unicode="&#x318b;" vert-adv-y="1105" 
d="M510 371l5 -102c-39 -4 -81 -7 -124 -10v-344h-116v340c-18 0 -36 -1 -55 -1v-339h-116v338h-74v106c172 0 294 0 480 12zM437 228h112v542h120v-889h-120v99h-112v100h112v48h-112v100zM850 786v-930h-121v930h121z" />
    <glyph glyph-name="Korea1.448" unicode="&#x318c;" vert-adv-y="1105" 
d="M50 252v108c271 0 471 5 592 17l9 -104c-35 -5 -77 -9 -128 -12v-376h-123v371l-111 -3v-368h-123v367h-116zM814 786v-930h-125v930h125z" />
    <glyph glyph-name="Korea1.449" unicode="&#x318d;" vert-adv-y="1105" 
d="M381 337c0 43 32 75 75 75s76 -32 76 -75s-33 -76 -76 -76s-75 33 -75 76z" />
    <glyph glyph-name="Korea1.450" unicode="&#x318e;" vert-adv-y="1105" 
d="M594 786v-930h-127v930h127zM203 337c0 43 32 75 75 75s76 -32 76 -75s-33 -76 -76 -76s-75 33 -75 76z" />
    <glyph glyph-name="Korea1.451" unicode="&#x2170;" vert-adv-y="1105" 
d="M392 -26v551h126v-551h-126zM389 606v136h132v-136h-132z" />
    <glyph glyph-name="Korea1.452" unicode="&#x2171;" vert-adv-y="1105" 
d="M267 -26v551h126v-551h-126zM264 606v136h132v-136h-132zM518 -26v551h126v-551h-126zM515 606v136h132v-136h-132z" />
    <glyph glyph-name="Korea1.453" unicode="&#x2172;" vert-adv-y="1105" 
d="M393 -26v551h126v-551h-126zM390 606v136h132v-136h-132zM164 -26v551h126v-551h-126zM161 606v136h132v-136h-132zM621 -26v551h126v-551h-126zM618 606v136h132v-136h-132z" />
    <glyph glyph-name="Korea1.454" unicode="&#x2173;" vert-adv-y="1105" 
d="M199 -26v551h126v-551h-126zM196 606v136h132v-136h-132zM651 -26h-170l-144 551h134l93 -435h4l96 435h130z" />
    <glyph glyph-name="Korea1.455" unicode="&#x2174;" vert-adv-y="1105" 
d="M537 -26h-164l-180 551h138l125 -433h4l126 433h131z" />
    <glyph glyph-name="Korea1.456" unicode="&#x2175;" vert-adv-y="1105" 
d="M585 -26v551h126v-551h-126zM582 606v136h132v-136h-132zM430 -26h-170l-144 551h134l93 -435h4l96 435h130z" />
    <glyph glyph-name="Korea1.457" unicode="&#x2176;" vert-adv-y="1105" 
d="M365 -26h-162l-138 551h130l87 -435h4l88 435h126zM514 -26v551h122v-551h-122zM511 606v136h128v-136h-128zM696 -26v551h122v-551h-122zM693 606v136h128v-136h-128z" />
    <glyph glyph-name="Korea1.458" unicode="&#x2177;" vert-adv-y="1105" 
d="M458 -26v551h110v-551h-110zM455 606v136h116v-136h-116zM315 -26h-146l-136 551h127l80 -415h4c26 140 55 275 81 415h123zM612 -26v551h110v-551h-110zM609 606v136h116v-136h-116zM766 -26v551h110v-551h-110zM763 606v136h116v-136h-116z" />
    <glyph glyph-name="Korea1.459" unicode="&#x2178;" vert-adv-y="1105" 
d="M190 -26v555h126v-555h-126zM187 606v136h132v-136h-132zM819 529l-155 -266l160 -289h-138l-108 206l-104 -206h-135l164 289l-157 266h141l102 -188l100 188h130z" />
    <glyph glyph-name="Korea1.460" unicode="&#x2179;" vert-adv-y="1105" 
d="M702 529l-165 -266l170 -289h-155l-101 203l-102 -203h-147l174 289l-167 266h158l94 -184l99 184h142z" />
    <glyph glyph-name="Korea1.461" unicode="&#x2160;" vert-adv-y="1105" 
d="M390 -26v721h128v-721h-128z" />
    <glyph glyph-name="Korea1.462" unicode="&#x2161;" vert-adv-y="1105" 
d="M269 -26v721h128v-721h-128zM513 -26v721h128v-721h-128z" />
    <glyph glyph-name="Korea1.463" unicode="&#x2162;" vert-adv-y="1105" 
d="M153 -26v721h128v-721h-128zM627 -26v721h128v-721h-128zM392 -26v721h128v-721h-128z" />
    <glyph glyph-name="Korea1.464" unicode="&#x2163;" vert-adv-y="1105" 
d="M523 -26l-214 721h133c49 -185 94 -366 143 -550c49 184 95 365 144 550h129l-219 -721h-116zM155 -26v721h128v-721h-128z" />
    <glyph glyph-name="Korea1.465" unicode="&#x2164;" vert-adv-y="1105" 
d="M398 -26c-92 240 -187 481 -279 721h139l195 -542c68 182 138 360 206 542h131c-96 -240 -190 -481 -286 -721h-106z" />
    <glyph glyph-name="Korea1.466" unicode="&#x2165;" vert-adv-y="1105" 
d="M266 -26l-214 721h133c49 -184 94 -364 143 -547c49 183 95 363 144 547h129l-219 -721h-116zM627 -26v721h128v-721h-128z" />
    <glyph glyph-name="Korea1.467" unicode="&#x2166;" vert-adv-y="1105" 
d="M212 -26l-199 721h125l133 -552c44 184 86 367 130 552h123c-63 -240 -129 -481 -192 -721h-120zM711 -26v721h114v-721h-114zM543 -26v721h114v-721h-114z" />
    <glyph glyph-name="Korea1.468" unicode="&#x2167;" vert-adv-y="1105" 
d="M167 -26c-49 240 -96 481 -145 721h119l85 -554c28 185 54 369 82 554h117l-138 -721h-120zM759 -26v721h106v-721h-106zM601 -26v721h106v-721h-106zM448 -26v721h106v-721h-106z" />
    <glyph glyph-name="Korea1.469" unicode="&#x2168;" vert-adv-y="1105" 
d="M848 695l-186 -353l201 -368h-144l-141 289l-126 -289h-140l192 379l-174 342h142l120 -266l121 266h135zM171 -26v721h124v-721h-124z" />
    <glyph glyph-name="Korea1.470" unicode="&#x2169;" vert-adv-y="1105" 
d="M754 695l-215 -351l224 -370h-148l-165 291l-160 -291h-144l223 377l-205 344h154l144 -266l149 266h143z" />
    <glyph glyph-name="Korea1.471" unicode="&#x391;" horiz-adv-x="688" vert-adv-y="1105" 
d="M401 695l271 -721h-139l-70 198h-243l-71 -198h-131l268 721h115zM306 426l-49 -147h169l-49 147c-17 48 -26 76 -36 111c-11 -40 -17 -60 -35 -111z" />
    <glyph glyph-name="Korea1.472" unicode="&#x392;" horiz-adv-x="661" vert-adv-y="1105" 
d="M81 -26v721h280c153 0 227 -58 227 -176v-21c0 -63 -28 -124 -114 -145c88 -13 147 -64 147 -164v-25c0 -118 -73 -190 -229 -190h-311zM208 297v-217h116c113 0 166 13 166 98v22c0 75 -48 97 -185 97h-97zM306 589h-98v-188h94c100 0 156 3 156 93v18
c0 61 -44 77 -152 77z" />
    <glyph glyph-name="Korea1.473" unicode="&#x393;" horiz-adv-x="558" vert-adv-y="1105" 
d="M209 -26h-128v721h477v-105h-349v-616z" />
    <glyph glyph-name="Korea1.474" unicode="&#x394;" horiz-adv-x="691" vert-adv-y="1105" 
d="M22 -26l265 721h130l263 -721h-658zM352 553l-163 -477h323z" />
    <glyph glyph-name="Korea1.475" unicode="&#x395;" horiz-adv-x="608" vert-adv-y="1105" 
d="M81 695h464v-106h-337v-194h316v-104h-316v-211h344v-106h-471v721z" />
    <glyph glyph-name="Korea1.476" unicode="&#x396;" horiz-adv-x="629" vert-adv-y="1105" 
d="M578 695v-97l-395 -514h414v-110h-572v105l390 506h-366v110h529z" />
    <glyph glyph-name="Korea1.477" unicode="&#x397;" horiz-adv-x="717" vert-adv-y="1105" 
d="M508 -26v323h-299v-323h-128v721h128v-292h299v292h128v-721h-128z" />
    <glyph glyph-name="Korea1.478" unicode="&#x398;" horiz-adv-x="720" vert-adv-y="1105" 
d="M360 706c164 0 305 -89 305 -312v-119c0 -227 -139 -312 -305 -312s-305 85 -305 312v119c0 223 142 312 305 312zM360 80c98 0 176 45 176 211v87c0 166 -78 211 -176 211c-96 0 -176 -45 -176 -211v-87c0 -166 80 -211 176 -211zM511 381v-90h-302v90h302z" />
    <glyph glyph-name="Korea1.479" unicode="&#x399;" horiz-adv-x="290" vert-adv-y="1105" 
d="M81 -26v721h128v-721h-128z" />
    <glyph glyph-name="Korea1.480" unicode="&#x39a;" horiz-adv-x="666" vert-adv-y="1105" 
d="M641 695l-279 -318l294 -403h-162l-218 310l-67 -73v-237h-128v721h128v-330l284 330h148z" />
    <glyph glyph-name="Korea1.481" unicode="&#x39b;" horiz-adv-x="707" vert-adv-y="1105" 
d="M410 695l279 -721h-139l-195 540h-1l-205 -540h-131l286 721h106z" />
    <glyph glyph-name="Korea1.482" unicode="&#x39c;" horiz-adv-x="875" vert-adv-y="1105" 
d="M386 139l-149 380c-10 25 -20 57 -37 109v-609h-119v721h182l177 -448l170 448h184v-721h-121v609c-15 -60 -25 -83 -34 -109l-151 -380h-102z" />
    <glyph glyph-name="Korea1.483" unicode="&#x39d;" horiz-adv-x="721" vert-adv-y="1105" 
d="M81 -26v721h147l246 -437c15 -27 35 -67 46 -114v551h120v-721h-147l-247 438c-18 32 -36 70 -45 111v-549h-120z" />
    <glyph glyph-name="Korea1.484" unicode="&#x39e;" horiz-adv-x="623" vert-adv-y="1105" 
d="M37 82h505v-108h-505v108zM77 289v108h419v-108h-419zM535 587h-498v108h498v-108z" />
    <glyph glyph-name="Korea1.485" unicode="&#x39f;" horiz-adv-x="720" vert-adv-y="1105" 
d="M360 706c164 0 305 -89 305 -312v-119c0 -227 -139 -312 -305 -312s-305 85 -305 312v119c0 223 142 312 305 312zM360 80c98 0 176 45 176 211v87c0 166 -78 211 -176 211c-96 0 -176 -45 -176 -211v-87c0 -166 80 -211 176 -211z" />
    <glyph glyph-name="Korea1.486" unicode="&#x3a0;" horiz-adv-x="689" vert-adv-y="1105" 
d="M612 695v-721h-128v616h-275v-616h-128v721h531z" />
    <glyph glyph-name="Korea1.487" unicode="&#x3a1;" horiz-adv-x="636" vert-adv-y="1105" 
d="M81 -26v721h272c173 0 247 -88 247 -206v-21c0 -117 -80 -217 -247 -217h-144v-277h-128zM347 588h-138v-229h127c84 0 135 27 135 111v18c0 79 -51 100 -124 100z" />
    <glyph glyph-name="Korea1.488" unicode="&#x3a3;" horiz-adv-x="543" vert-adv-y="1105" 
d="M37 695h474v-108h-316l195 -255l-197 -250h325v-108h-481v90l209 267l-209 277v87z" />
    <glyph glyph-name="Korea1.489" unicode="&#x3a4;" horiz-adv-x="571" vert-adv-y="1105" 
d="M10 695h551v-108h-211v-613h-128v613h-212v108z" />
    <glyph glyph-name="Korea1.490" unicode="&#x3a5;" horiz-adv-x="648" vert-adv-y="1105" 
d="M635 695l-247 -436v-285h-128v285l-247 436h143l171 -318l168 318h140z" />
    <glyph glyph-name="Korea1.491" unicode="&#x3a6;" horiz-adv-x="762" vert-adv-y="1105" 
d="M50 323v53c0 140 107 233 271 250v92h119v-92c165 -18 272 -110 272 -250v-53c0 -142 -107 -232 -272 -250v-99h-119v99c-164 18 -271 110 -271 250zM589 329v41c0 68 -34 125 -149 140v-323c115 15 149 73 149 142zM173 370v-41c0 -70 34 -127 148 -142v323
c-114 -15 -148 -72 -148 -140z" />
    <glyph glyph-name="Korea1.492" unicode="&#x3a7;" horiz-adv-x="669" vert-adv-y="1105" 
d="M634 695l-215 -351l224 -370h-148l-165 291l-160 -291h-144l223 377l-205 344h154l144 -266l149 266h143z" />
    <glyph glyph-name="Korea1.493" unicode="&#x3a8;" horiz-adv-x="729" vert-adv-y="1105" 
d="M303 -26v178c-160 21 -248 122 -248 299v224h127v-199c0 -143 50 -194 121 -210v409h126v-408c70 17 118 61 118 209v199h127v-224c0 -176 -88 -277 -245 -299v-178h-126z" />
    <glyph glyph-name="Korea1.494" unicode="&#x3a9;" horiz-adv-x="753" vert-adv-y="1105" 
d="M737 86v-112h-313v112c68 15 120 71 120 205v89c0 142 -53 211 -168 211s-168 -69 -168 -211v-89c0 -134 52 -190 120 -205v-112h-313v112h139c-37 35 -71 101 -71 189v119c0 199 105 312 293 312s293 -113 293 -312v-119c0 -88 -34 -154 -71 -189h139z" />
    <glyph glyph-name="Korea1.495" unicode="&#x3b1;" horiz-adv-x="603" vert-adv-y="1105" 
d="M402 -26v71h-1c-16 -45 -72 -79 -138 -79c-151 0 -219 81 -219 231v111c0 145 77 229 212 229c79 0 127 -36 145 -74v62h126v-551h-125zM170 290v-83c0 -99 37 -131 112 -131c52 0 119 36 119 117v112c0 68 -34 122 -119 122c-81 0 -112 -33 -112 -137z" />
    <glyph glyph-name="Korea1.496" unicode="&#x3b2;" horiz-adv-x="589" vert-adv-y="1105" 
d="M507 555v-11c0 -98 -44 -151 -110 -173c84 -10 162 -56 162 -177v-19c0 -126 -89 -209 -203 -209c-76 0 -127 32 -154 73v-279h-126v760c0 141 95 216 220 216c138 0 211 -88 211 -181zM202 499v-297c0 -58 18 -127 131 -127c47 0 98 22 98 102v14
c0 105 -50 130 -175 126v98c91 0 123 38 123 110v15c0 31 -11 92 -84 92c-58 0 -93 -40 -93 -133z" />
    <glyph glyph-name="Korea1.497" unicode="&#x3b3;" horiz-adv-x="533" vert-adv-y="1105" 
d="M4 525h132l131 -439l136 439h126l-200 -558v-207h-126v205z" />
    <glyph glyph-name="Korea1.498" unicode="&#x3b4;" horiz-adv-x="576" vert-adv-y="1105" 
d="M288 -34c-156 0 -243 88 -243 249v26c0 113 61 219 174 237c-54 38 -92 81 -92 137v8c0 67 51 113 175 113c70 0 121 -12 169 -34l-35 -101c-37 23 -75 32 -119 32c-50 0 -65 -15 -65 -31c0 -24 36 -53 168 -138c88 -57 111 -146 111 -231v-18c0 -161 -87 -249 -243 -249
zM288 76c75 0 116 55 116 141v14c0 123 -32 154 -119 154c-78 0 -113 -63 -113 -156v-12c0 -86 41 -141 116 -141z" />
    <glyph glyph-name="Korea1.499" unicode="&#x3b5;" horiz-adv-x="508" vert-adv-y="1105" 
d="M447 502l-31 -93c-43 20 -95 31 -149 31c-66 0 -83 -33 -83 -55v-9c0 -49 24 -72 99 -72h67v-94h-67c-64 0 -111 -9 -111 -74v-5c0 -57 62 -64 106 -64c50 0 103 15 151 48l49 -92c-46 -35 -135 -57 -218 -57c-139 0 -224 54 -224 154v14c0 74 50 126 129 127
c-81 8 -114 68 -114 122v14c0 86 68 140 214 140c73 0 132 -11 182 -35z" />
    <glyph glyph-name="Korea1.500" unicode="&#x3b6;" horiz-adv-x="470" vert-adv-y="1105" 
d="M341 -179l-77 81c29 18 61 33 61 56c0 21 -42 21 -110 41c-123 36 -185 95 -185 238v23c0 132 78 272 186 362h-146v108h367l12 -70c-158 -98 -293 -247 -293 -380v-19c0 -107 56 -133 152 -163c141 -44 147 -70 147 -135c0 -61 -63 -107 -114 -142z" />
    <glyph glyph-name="Korea1.501" unicode="&#x3b7;" horiz-adv-x="616" vert-adv-y="1105" 
d="M362 537c108 0 190 -63 190 -202v-575h-126v546c0 87 -30 121 -102 121c-71 0 -122 -44 -122 -127v-326h-126v551h121v-59c32 49 86 71 165 71z" />
    <glyph glyph-name="Korea1.502" unicode="&#x3b8;" horiz-adv-x="578" vert-adv-y="1105" 
d="M289 736c207 0 248 -183 248 -356v-60c0 -173 -41 -356 -248 -356s-248 183 -248 356v60c0 175 42 356 248 356zM410 410c0 90 0 217 -121 217s-121 -127 -121 -217h242zM410 302h-242c0 -90 0 -229 121 -229s121 139 121 229z" />
    <glyph glyph-name="Korea1.503" unicode="&#x3b9;" horiz-adv-x="299" vert-adv-y="1105" 
d="M288 86l11 -106c-18 -7 -55 -14 -88 -14c-104 0 -137 55 -137 128v431h126v-391c0 -39 1 -55 43 -55c20 0 36 4 45 7z" />
    <glyph glyph-name="Korea1.504" unicode="&#x3ba;" horiz-adv-x="574" vert-adv-y="1105" 
d="M571 525l-211 -218l216 -333h-161l-143 241l-70 -71v-170h-126v551h126v-229l208 229h161z" />
    <glyph glyph-name="Korea1.505" unicode="&#x3bb;" horiz-adv-x="535" vert-adv-y="1105" 
d="M100 618l-35 87c22 17 60 31 93 31c65 0 94 -18 117 -79l257 -683h-128l-139 396h-3l-127 -396h-134l196 562l-18 63c-7 23 -18 35 -33 35c-14 0 -30 -7 -46 -16z" />
    <glyph glyph-name="Korea1.506" unicode="&#x3bc;" horiz-adv-x="625" vert-adv-y="1105" 
d="M423 525h126v-551h-121v68c-14 -50 -63 -76 -111 -76c-51 0 -100 27 -115 67v-273h-126v765h126v-331c0 -86 61 -120 113 -120c53 0 108 34 108 120v331z" />
    <glyph glyph-name="Korea1.507" unicode="&#x3bd;" horiz-adv-x="531" vert-adv-y="1105" 
d="M348 -26h-164l-180 551h138l125 -433h4l126 433h131z" />
    <glyph glyph-name="Korea1.508" unicode="&#x3be;" horiz-adv-x="461" vert-adv-y="1105" 
d="M171 227v-11c0 -59 46 -86 148 -117c125 -38 149 -64 149 -135c0 -58 -48 -102 -108 -144l-79 83c32 18 61 34 61 54c0 17 -40 23 -86 36c-123 35 -213 82 -213 221v12c0 107 77 166 162 171c-69 12 -136 62 -136 146v19c0 98 75 174 221 174c74 0 146 -16 189 -47
l-56 -94c-33 23 -84 36 -132 36c-63 0 -96 -29 -96 -72v-12c0 -64 51 -97 155 -97h41v-109h-44c-134 0 -176 -35 -176 -114z" />
    <glyph glyph-name="Korea1.509" unicode="&#x3bf;" horiz-adv-x="608" vert-adv-y="1105" 
d="M304 76c75 0 131 40 131 145v61c0 105 -52 145 -131 145s-131 -40 -131 -145v-61c0 -105 56 -145 131 -145zM304 -34c-156 0 -258 92 -258 253v65c0 162 102 253 258 253s258 -91 258 -253v-65c0 -161 -102 -253 -258 -253z" />
    <glyph glyph-name="Korea1.510" unicode="&#x3c0;" horiz-adv-x="582" vert-adv-y="1105" 
d="M547 85l15 -104c-20 -8 -56 -15 -90 -15c-97 0 -135 49 -135 128v327h-89v-447h-127v447h-109v108h558v-108h-109v-287c0 -47 11 -56 44 -56c17 0 33 4 42 7z" />
    <glyph glyph-name="Korea1.511" unicode="&#x3c1;" horiz-adv-x="618" vert-adv-y="1105" 
d="M329 539c156 0 244 -92 244 -253v-67c0 -161 -66 -253 -221 -253c-74 0 -124 34 -141 63v-269h-126v526c0 162 88 253 244 253zM329 76c75 0 117 50 117 155v43c0 105 -42 155 -117 155s-117 -50 -117 -155v-43c0 -105 42 -155 117 -155z" />
    <glyph glyph-name="Korea1.512" unicode="&#x3c3;" horiz-adv-x="612" vert-adv-y="1105" 
d="M592 529v-106h-92c46 -31 63 -84 63 -148v-55c0 -158 -100 -254 -259 -254s-259 96 -259 254v55c0 159 91 254 270 254h277zM304 76c76 0 132 52 132 155v33c0 103 -56 155 -132 155c-77 0 -132 -52 -132 -155v-33c0 -103 55 -155 132 -155z" />
    <glyph glyph-name="Korea1.513" unicode="&#x3c4;" horiz-adv-x="566" vert-adv-y="1105" 
d="M423 90l24 -101c-31 -15 -67 -23 -125 -23c-81 0 -115 43 -115 131v324h-191v108h534v-108h-217v-290c0 -39 6 -54 31 -54c21 0 36 4 59 13z" />
    <glyph glyph-name="Korea1.514" unicode="&#x3c5;" horiz-adv-x="581" vert-adv-y="1105" 
d="M291 78c67 0 104 27 104 142v305h126v-323c0 -143 -52 -236 -230 -236s-231 93 -231 236v323h126v-305c0 -115 43 -142 105 -142z" />
    <glyph glyph-name="Korea1.515" unicode="&#x3c6;" horiz-adv-x="690" vert-adv-y="1105" 
d="M405 -240h-124v210c-150 22 -237 113 -237 260v45c0 164 113 264 301 264s301 -101 301 -264v-45c0 -147 -89 -240 -241 -260v-210zM522 234v37c0 98 -53 134 -117 149v-338c67 12 117 50 117 152zM168 271v-37c0 -99 50 -132 113 -148v334c-64 -17 -113 -52 -113 -149z
" />
    <glyph glyph-name="Korea1.516" unicode="&#x3c7;" horiz-adv-x="575" vert-adv-y="1105" 
d="M197 474l91 -238l118 289h132l-174 -369l106 -258c11 -26 19 -33 34 -33c12 0 23 4 32 8l33 -90c-22 -19 -64 -32 -107 -32c-48 0 -78 17 -95 63l-97 262l-135 -316h-133l192 394l-99 235c-10 24 -20 38 -34 39c-12 1 -23 -5 -32 -10l-34 88c22 19 62 33 105 33
c48 0 81 -24 97 -65z" />
    <glyph glyph-name="Korea1.517" unicode="&#x3c8;" horiz-adv-x="726" vert-adv-y="1105" 
d="M425 -240h-124v211c-128 17 -241 85 -241 241v313h123v-297c0 -96 53 -132 118 -144v441h124v-441c63 12 118 48 118 144v297h123v-313c0 -156 -115 -224 -241 -241v-211z" />
    <glyph glyph-name="Korea1.518" unicode="&#x3c9;" horiz-adv-x="772" vert-adv-y="1105" 
d="M388 53h-2c-17 -56 -74 -87 -134 -87c-113 0 -197 76 -197 264v15c0 97 44 229 95 304l113 -59c-43 -77 -79 -167 -79 -249v-15c0 -55 16 -146 78 -146c49 0 62 45 62 111v198h124v-199c0 -66 12 -110 61 -110c62 0 81 91 81 146v15c0 82 -36 172 -80 249l112 59
c51 -75 95 -207 95 -304v-15c0 -188 -85 -264 -198 -264c-60 0 -114 31 -131 87z" />
    <glyph glyph-name="Korea1.519" unicode="&#x2500;" horiz-adv-x="920" vert-adv-y="1105" 
d="M920 315v-29h-920v29h920z" />
    <glyph glyph-name="Korea1.520" unicode="&#x2502;" horiz-adv-x="920" vert-adv-y="1105" 
d="M475 800v-1000h-29v1000h29z" />
    <glyph glyph-name="Korea1.521" unicode="&#x250c;" horiz-adv-x="920" vert-adv-y="1105" 
d="M920 315v-29h-445v-486h-29v515h474z" />
    <glyph glyph-name="Korea1.522" unicode="&#x2510;" horiz-adv-x="920" vert-adv-y="1105" 
d="M475 315v-515h-29v486h-446v29h475z" />
    <glyph glyph-name="Korea1.523" unicode="&#x2518;" horiz-adv-x="920" vert-adv-y="1105" 
d="M475 800v-514h-475v29h446v485h29z" />
    <glyph glyph-name="Korea1.524" unicode="&#x2514;" horiz-adv-x="920" vert-adv-y="1105" 
d="M920 315v-29h-474v514h29v-485h445z" />
    <glyph glyph-name="Korea1.525" unicode="&#x251c;" horiz-adv-x="920" vert-adv-y="1105" 
d="M920 315v-29h-445v-486h-29v1000h29v-485h445z" />
    <glyph glyph-name="Korea1.526" unicode="&#x252c;" horiz-adv-x="920" vert-adv-y="1105" 
d="M920 315v-29h-445v-486h-29v486h-446v29h920z" />
    <glyph glyph-name="Korea1.527" unicode="&#x2524;" horiz-adv-x="920" vert-adv-y="1105" 
d="M475 800v-1000h-29v486h-446v29h446v485h29z" />
    <glyph glyph-name="Korea1.528" unicode="&#x2534;" horiz-adv-x="920" vert-adv-y="1105" 
d="M920 315v-29h-920v29h446v485h29v-485h445z" />
    <glyph glyph-name="Korea1.529" unicode="&#x253c;" horiz-adv-x="920" vert-adv-y="1105" 
d="M920 314v-29h-445v-485h-29v485h-446v29h446v486h29v-486h445z" />
    <glyph glyph-name="Korea1.530" unicode="&#x2501;" horiz-adv-x="920" vert-adv-y="1105" 
d="M920 325v-54h-920v54h920z" />
    <glyph glyph-name="Korea1.531" unicode="&#x2503;" horiz-adv-x="920" vert-adv-y="1105" 
d="M487 800v-1000h-54v1000h54z" />
    <glyph glyph-name="Korea1.532" unicode="&#x250f;" horiz-adv-x="920" vert-adv-y="1105" 
d="M920 325v-54h-433v-471h-54v525h487z" />
    <glyph glyph-name="Korea1.533" unicode="&#x2513;" horiz-adv-x="920" vert-adv-y="1105" 
d="M487 325v-525h-54v471h-433v54h487z" />
    <glyph glyph-name="Korea1.534" unicode="&#x251b;" horiz-adv-x="920" vert-adv-y="1105" 
d="M487 800v-529h-487v54h433v475h54z" />
    <glyph glyph-name="Korea1.535" unicode="&#x2517;" horiz-adv-x="920" vert-adv-y="1105" 
d="M920 325v-54h-487v529h54v-475h433z" />
    <glyph glyph-name="Korea1.536" unicode="&#x2523;" horiz-adv-x="920" vert-adv-y="1105" 
d="M920 325v-54h-433v-471h-54v1000h54v-475h433z" />
    <glyph glyph-name="Korea1.537" unicode="&#x2533;" horiz-adv-x="920" vert-adv-y="1105" 
d="M920 325v-54h-433v-471h-54v471h-433v54h920z" />
    <glyph glyph-name="Korea1.538" unicode="&#x252b;" horiz-adv-x="920" vert-adv-y="1105" 
d="M487 800v-1000h-54v471h-433v54h433v475h54z" />
    <glyph glyph-name="Korea1.539" unicode="&#x253b;" horiz-adv-x="920" vert-adv-y="1105" 
d="M920 325v-54h-920v54h433v475h54v-475h433z" />
    <glyph glyph-name="Korea1.540" unicode="&#x254b;" horiz-adv-x="920" vert-adv-y="1105" 
d="M920 325v-54h-433v-471h-54v471h-433v54h433v475h54v-475h433z" />
    <glyph glyph-name="Korea1.541" unicode="&#x2520;" horiz-adv-x="920" vert-adv-y="1105" 
d="M920 318v-36h-423v-482h-76v1000h76v-482h423z" />
    <glyph glyph-name="Korea1.542" unicode="&#x252f;" horiz-adv-x="920" vert-adv-y="1105" 
d="M920 336v-72h-441v-464h-38v464h-441v72h920z" />
    <glyph glyph-name="Korea1.543" unicode="&#x2528;" horiz-adv-x="920" vert-adv-y="1105" 
d="M498 800v-1000h-76v482h-422v36h422v482h76z" />
    <glyph glyph-name="Korea1.544" unicode="&#x2537;" horiz-adv-x="920" vert-adv-y="1105" 
d="M920 336v-72h-920v72h441v464h38v-464h441z" />
    <glyph glyph-name="Korea1.545" unicode="&#x253f;" horiz-adv-x="920" vert-adv-y="1105" 
d="M920 336v-72h-441v-464h-38v464h-441v72h441v464h38v-464h441z" />
    <glyph glyph-name="Korea1.546" unicode="&#x251d;" horiz-adv-x="920" vert-adv-y="1105" 
d="M920 336v-72h-441v-464h-38v1000h38v-464h441z" />
    <glyph glyph-name="Korea1.547" unicode="&#x2530;" horiz-adv-x="920" vert-adv-y="1105" 
d="M920 318v-36h-422v-482h-76v482h-422v36h920z" />
    <glyph glyph-name="Korea1.548" unicode="&#x2525;" horiz-adv-x="920" vert-adv-y="1105" 
d="M479 800v-1000h-38v464h-441v72h441v464h38z" />
    <glyph glyph-name="Korea1.549" unicode="&#x2538;" horiz-adv-x="920" vert-adv-y="1105" 
d="M920 318v-36h-920v36h422v482h76v-482h422z" />
    <glyph glyph-name="Korea1.550" unicode="&#x2542;" horiz-adv-x="920" vert-adv-y="1105" 
d="M920 318v-36h-422v-482h-76v482h-422v36h422v482h76v-482h422z" />
    <glyph glyph-name="Korea1.551" unicode="&#x2512;" horiz-adv-x="920" vert-adv-y="1105" 
d="M498 318v-518h-76v482h-422v36h498z" />
    <glyph glyph-name="Korea1.552" unicode="&#x2511;" horiz-adv-x="920" vert-adv-y="1105" 
d="M479 336v-536h-38v464h-441v72h479z" />
    <glyph glyph-name="Korea1.553" unicode="&#x251a;" horiz-adv-x="920" vert-adv-y="1105" 
d="M498 800v-518h-498v36h422v482h76z" />
    <glyph glyph-name="Korea1.554" unicode="&#x2519;" horiz-adv-x="920" vert-adv-y="1105" 
d="M479 800v-536h-479v72h441v464h38z" />
    <glyph glyph-name="Korea1.555" unicode="&#x2516;" horiz-adv-x="920" vert-adv-y="1105" 
d="M920 318v-36h-498v518h76v-482h422z" />
    <glyph glyph-name="Korea1.556" unicode="&#x2515;" horiz-adv-x="920" vert-adv-y="1105" 
d="M920 336v-72h-479v536h38v-464h441z" />
    <glyph glyph-name="Korea1.557" unicode="&#x250e;" horiz-adv-x="920" vert-adv-y="1105" 
d="M920 318v-36h-422v-482h-76v518h498z" />
    <glyph glyph-name="Korea1.558" unicode="&#x250d;" horiz-adv-x="920" vert-adv-y="1105" 
d="M920 336v-72h-441v-464h-38v536h479z" />
    <glyph glyph-name="Korea1.559" unicode="&#x251e;" horiz-adv-x="920" vert-adv-y="1105" 
d="M920 318v-36h-442l1 -482h-38v500h-19v500h76v-482h422z" />
    <glyph glyph-name="Korea1.560" unicode="&#x251f;" horiz-adv-x="920" vert-adv-y="1105" 
d="M920 318v-36h-422v-482h-76v500h19v500h38v-482h441z" />
    <glyph glyph-name="Korea1.561" unicode="&#x2521;" horiz-adv-x="920" vert-adv-y="1105" 
d="M920 336v-72h-441v-464h-38v500h-19v500h76v-464h422z" />
    <glyph glyph-name="Korea1.562" unicode="&#x2522;" horiz-adv-x="920" vert-adv-y="1105" 
d="M920 336v-72h-422v-464h-76v500h19v500h38v-464h441z" />
    <glyph glyph-name="Korea1.563" unicode="&#x2526;" horiz-adv-x="920" vert-adv-y="1105" 
d="M498 800v-500h-19v-500h-38v482h-441v36h422v482h76z" />
    <glyph glyph-name="Korea1.564" unicode="&#x2527;" horiz-adv-x="920" vert-adv-y="1105" 
d="M498 300v-500h-76v482h-422v36h441v482h38v-500h19z" />
    <glyph glyph-name="Korea1.565" unicode="&#x2529;" horiz-adv-x="920" vert-adv-y="1105" 
d="M498 800v-500h-19v-500h-38v464h-441v72h422v464h76z" />
    <glyph glyph-name="Korea1.566" unicode="&#x252a;" horiz-adv-x="920" vert-adv-y="1105" 
d="M498 300v-500h-76v464h-422v72h441v464h38v-500h19z" />
    <glyph glyph-name="Korea1.567" unicode="&#x252d;" horiz-adv-x="920" vert-adv-y="1105" 
d="M920 318v-36h-441v-482h-38v464h-441v72h460v-18h460z" />
    <glyph glyph-name="Korea1.568" unicode="&#x252e;" horiz-adv-x="920" vert-adv-y="1105" 
d="M920 336v-72h-441v-464h-38v482h-441v36h460v18h460z" />
    <glyph glyph-name="Korea1.569" unicode="&#x2531;" horiz-adv-x="920" vert-adv-y="1105" 
d="M920 318v-36h-422v-482h-76v464h-422v72h460v-18h460z" />
    <glyph glyph-name="Korea1.570" unicode="&#x2532;" horiz-adv-x="920" vert-adv-y="1105" 
d="M920 336v-72h-422v-464h-76v482h-422v36h460v18h460z" />
    <glyph glyph-name="Korea1.571" unicode="&#x2535;" horiz-adv-x="920" vert-adv-y="1105" 
d="M920 318v-36h-460v-18h-460v72h441v464h38v-482h441z" />
    <glyph glyph-name="Korea1.572" unicode="&#x2536;" horiz-adv-x="920" vert-adv-y="1105" 
d="M920 336v-72h-460v18h-460v36h441v482h38v-464h441z" />
    <glyph glyph-name="Korea1.573" unicode="&#x2539;" horiz-adv-x="920" vert-adv-y="1105" 
d="M920 318v-36h-460v-18h-460v72h422v464h76v-482h422z" />
    <glyph glyph-name="Korea1.574" unicode="&#x253a;" horiz-adv-x="920" vert-adv-y="1105" 
d="M920 336v-72h-460v18h-460v36h422v482h76v-464h422z" />
    <glyph glyph-name="Korea1.575" unicode="&#x253d;" horiz-adv-x="920" vert-adv-y="1105" 
d="M920 318v-36h-441v-482h-38v464h-441v76h441v460h38v-482h441z" />
    <glyph glyph-name="Korea1.576" unicode="&#x253e;" horiz-adv-x="920" vert-adv-y="1105" 
d="M920 336v-72h-441v-464h-38v482h-441v36h441v482h38v-464h441z" />
    <glyph glyph-name="Korea1.577" unicode="&#x2540;" horiz-adv-x="920" vert-adv-y="1105" 
d="M920 318v-36h-441v-482h-38v482h-441v36h422v482h76v-482h422z" />
    <glyph glyph-name="Korea1.578" unicode="&#x2541;" horiz-adv-x="920" vert-adv-y="1105" 
d="M920 318v-36h-422v-482h-76v482h-422v36h441v482h38v-482h441z" />
    <glyph glyph-name="Korea1.579" unicode="&#x2543;" horiz-adv-x="920" vert-adv-y="1105" 
d="M920 318v-36h-441v-482h-38v464h-441v72h422v464h76v-482h422z" />
    <glyph glyph-name="Korea1.580" unicode="&#x2544;" horiz-adv-x="920" vert-adv-y="1105" 
d="M920 336v-72h-441v-464h-38v482h-441v36h422v482h76v-464h422z" />
    <glyph glyph-name="Korea1.581" unicode="&#x2545;" horiz-adv-x="920" vert-adv-y="1105" 
d="M920 318v-36h-422v-482h-76v464h-422v72h441v464h38v-482h441z" />
    <glyph glyph-name="Korea1.582" unicode="&#x2546;" horiz-adv-x="920" vert-adv-y="1105" 
d="M920 336v-72h-422v-464h-76v482h-422v36h441v482h38v-464h441z" />
    <glyph glyph-name="Korea1.583" unicode="&#x2547;" horiz-adv-x="920" vert-adv-y="1105" 
d="M920 336v-72h-441v-464h-38v464h-441v72h422v464h76v-464h422z" />
    <glyph glyph-name="Korea1.584" unicode="&#x2548;" horiz-adv-x="920" vert-adv-y="1105" 
d="M920 336v-72h-422v-464h-76v464h-422v72h441v464h38v-464h441z" />
    <glyph glyph-name="Korea1.585" unicode="&#x2549;" horiz-adv-x="920" vert-adv-y="1105" 
d="M920 318v-36h-422v-482h-76v464h-422v72h422v464h76v-482h422z" />
    <glyph glyph-name="Korea1.586" unicode="&#x254a;" horiz-adv-x="920" vert-adv-y="1105" 
d="M920 336v-72h-422v-464h-76v482h-422v36h422v482h76v-464h422z" />
    <glyph glyph-name="Korea1.587" unicode="&#x3395;" vert-adv-y="1105" 
d="M396 529h125v-555h-124v24c-18 -21 -45 -32 -90 -32c-36 0 -68 11 -87 28v-234h-125v769h125v-349c0 -58 21 -102 86 -102c54 0 90 33 90 124v327zM727 -34c-97 0 -150 33 -150 151v392c0 104 26 195 138 195c114 0 138 -92 138 -195v-89c0 -147 -61 -247 -156 -303v-10
c0 -22 14 -35 33 -35c21 0 41 9 57 21l59 -82c-26 -23 -74 -45 -119 -45zM697 491v-257c21 41 36 99 36 185v72c0 65 -2 104 -18 104s-18 -39 -18 -104z" />
    <glyph glyph-name="Korea1.588" unicode="&#x3396;" vert-adv-y="1105" 
d="M744 -34c-100 0 -143 33 -143 151v392c0 104 22 195 133 195c113 0 133 -92 133 -195v-89c0 -147 -54 -247 -149 -303v-10c0 -29 16 -35 31 -35c17 0 37 10 52 21l59 -82c-28 -23 -73 -45 -116 -45zM718 492v-258c17 48 32 107 32 185v73c0 68 -4 104 -16 104
c-13 0 -16 -36 -16 -104zM60 -26v555h110v-22c12 21 33 32 72 32c56 0 83 -25 96 -50c17 27 47 50 93 50c84 0 127 -51 127 -147v-418h-120v401c0 53 -8 72 -31 72c-30 0 -38 -29 -38 -75v-398h-120v406c0 51 -8 67 -32 67c-25 0 -37 -19 -37 -71v-402h-120z" />
    <glyph glyph-name="Korea1.589" unicode="&#x3397;" vert-adv-y="1105" 
d="M371 -26v31c-15 -19 -68 -39 -112 -39c-140 0 -210 88 -210 239v99c0 151 77 235 207 235c57 0 87 -10 114 -33v189h126v-721h-125zM175 294v-79c0 -97 33 -151 95 -151c56 0 100 40 100 117v155c0 49 -37 107 -100 107c-68 0 -95 -58 -95 -149zM716 -34
c-97 0 -150 33 -150 151v392c0 104 26 195 138 195c114 0 138 -92 138 -195v-89c0 -147 -61 -247 -156 -303v-10c0 -22 14 -35 33 -35c21 0 41 9 57 21l59 -82c-26 -23 -74 -45 -119 -45zM686 491v-257c21 41 36 99 36 185v72c0 65 -2 104 -18 104s-18 -39 -18 -104z" />
    <glyph glyph-name="Korea1.590" unicode="&#x2113;" vert-adv-y="1105" 
d="M494 -34c-107 0 -159 39 -159 149v401c0 104 36 190 145 190c116 0 147 -87 147 -190v-100c0 -147 -77 -245 -170 -299v-9c0 -29 17 -41 44 -41c24 0 48 11 65 28l58 -78c-27 -27 -71 -51 -130 -51zM457 491v-255c22 40 48 107 48 182v73c0 64 -9 105 -25 105
s-23 -41 -23 -105z" />
    <glyph glyph-name="Korea1.591" unicode="&#x3398;" vert-adv-y="1105" 
d="M575 529l-193 -218c68 -112 133 -225 201 -337h-137c-48 84 -93 166 -141 250c-13 -17 -29 -32 -42 -49v-201h-126v721h126v-370c58 67 115 137 173 204h139zM720 -34c-100 0 -143 33 -143 151v392c0 104 22 195 133 195c113 0 133 -92 133 -195v-89
c0 -147 -54 -247 -149 -303v-10c0 -29 16 -35 31 -35c17 0 37 10 52 21l59 -82c-28 -23 -73 -45 -116 -45zM694 492v-258c17 48 32 107 32 185v73c0 68 -4 104 -16 104c-13 0 -16 -36 -16 -104z" />
    <glyph glyph-name="Korea1.592" unicode="&#x33c4;" vert-adv-y="1105" 
d="M310 539c73 0 129 -31 163 -65l-57 -89c-27 27 -62 47 -107 47c-66 0 -98 -49 -98 -140v-73c0 -102 33 -145 94 -145c52 0 87 17 120 43l61 -88c-40 -37 -93 -63 -182 -63c-156 0 -216 86 -216 251v75c0 157 71 247 222 247zM690 539c73 0 129 -31 163 -65l-57 -89
c-27 27 -62 47 -107 47c-66 0 -98 -49 -98 -140v-73c0 -102 33 -145 94 -145c52 0 87 17 120 43l61 -88c-40 -37 -93 -63 -182 -63c-156 0 -216 86 -216 251v75c0 157 71 247 222 247z" />
    <glyph glyph-name="Korea1.593" unicode="&#x33a3;" vert-adv-y="1105" 
d="M21 -26v555h106v-33c13 31 37 43 75 43c32 0 61 -16 69 -43c9 27 36 43 78 43c60 0 91 -45 91 -149v-416h-116v404c0 48 -4 65 -17 65c-16 0 -21 -19 -21 -63v-406h-114v416c0 37 -3 53 -16 53c-15 0 -19 -21 -19 -69v-400h-116zM747 723l-40 40c16 20 47 36 89 36
c57 0 85 -28 85 -59v-5c0 -22 -10 -44 -33 -50c27 -5 44 -29 44 -50v-4c0 -37 -26 -71 -98 -71c-41 0 -70 12 -90 29l33 53c11 -10 32 -18 46 -18c21 0 28 7 28 15v1c0 10 -8 16 -25 16h-16v53h15c14 0 19 6 19 15v1c0 7 -7 13 -23 13c-14 0 -28 -8 -34 -15zM470 -26v555
h106v-33c13 31 37 43 75 43c32 0 61 -16 69 -43c9 27 36 43 78 43c60 0 91 -45 91 -149v-416h-116v404c0 48 -4 65 -17 65c-16 0 -21 -19 -21 -63v-406h-114v416c0 37 -3 53 -16 53c-15 0 -19 -21 -19 -69v-400h-116z" />
    <glyph glyph-name="Korea1.594" unicode="&#x33a4;" vert-adv-y="1105" 
d="M224 539c66 0 121 -30 152 -67l-65 -79c-24 26 -53 39 -87 39c-23 0 -80 -6 -80 -134v-83c0 -118 28 -141 78 -141c44 0 68 15 98 39l67 -84c-25 -26 -82 -63 -168 -63c-166 0 -196 90 -196 247v85c0 157 67 241 201 241zM388 -26v555h110v-22c12 20 33 32 74 32
c52 0 79 -23 94 -50c17 27 47 50 93 50c84 0 127 -51 127 -147v-418h-120v401c0 53 -8 72 -31 72c-30 0 -38 -29 -38 -75v-398h-120v406c0 51 -8 67 -32 67c-25 0 -37 -19 -37 -71v-402h-120zM747 723l-40 40c16 20 47 36 89 36c57 0 85 -28 85 -59v-5
c0 -22 -10 -44 -33 -50c27 -5 44 -29 44 -50v-4c0 -37 -26 -71 -98 -71c-41 0 -70 12 -90 29l33 53c11 -10 32 -18 46 -18c21 0 28 7 28 15v1c0 10 -8 16 -25 16h-16v53h15c14 0 19 6 19 15v1c0 7 -7 13 -23 13c-14 0 -28 -8 -34 -15z" />
    <glyph glyph-name="Korea1.595" unicode="&#x33a5;" vert-adv-y="1105" 
d="M695 539c111 0 185 -74 185 -212v-353h-126v311c0 86 -32 140 -85 140c-66 0 -116 -32 -116 -127v-324h-126v311c0 85 -30 140 -89 140c-67 0 -112 -35 -112 -127v-324h-126v555h125v-73c21 52 67 83 141 83c65 0 125 -33 153 -84c40 56 88 84 176 84zM733 723l-40 40
c16 20 47 36 89 36c57 0 85 -28 85 -59v-5c0 -22 -10 -44 -33 -50c27 -5 44 -29 44 -50v-4c0 -37 -26 -71 -98 -71c-41 0 -70 12 -90 29l33 53c11 -10 32 -18 46 -18c21 0 28 7 28 15v1c0 10 -8 16 -25 16h-16v53h15c14 0 19 6 19 15v1c0 7 -7 13 -23 13
c-14 0 -28 -8 -34 -15z" />
    <glyph glyph-name="Korea1.596" unicode="&#x33a6;" vert-adv-y="1105" 
d="M498 529v-22c12 20 33 32 74 32c52 0 79 -23 94 -50c17 27 47 50 93 50c84 0 127 -51 127 -147v-418h-120v401c0 53 -8 72 -31 72c-30 0 -38 -29 -38 -75v-398h-120v406c0 51 -8 67 -32 67c-25 0 -37 -19 -37 -71v-402h-120v547l-142 -227l140 -320h-125l-95 221l-15 -28
v-193h-124v721h124v-362l118 197l119 -1h110zM747 723l-40 40c16 20 47 36 89 36c57 0 85 -28 85 -59v-5c0 -22 -10 -44 -33 -50c27 -5 44 -29 44 -50v-4c0 -37 -26 -71 -98 -71c-41 0 -70 12 -90 29l33 53c11 -10 32 -18 46 -18c21 0 28 7 28 15v1c0 10 -8 16 -25 16h-16
v53h15c14 0 19 6 19 15v1c0 7 -7 13 -23 13c-14 0 -28 -8 -34 -15z" />
    <glyph glyph-name="Korea1.597" unicode="&#x3399;" vert-adv-y="1105" 
d="M93 -26v453h-78v102h78v15c0 115 65 163 173 163c43 0 72 -9 95 -17l-20 -100c-15 7 -47 14 -70 14c-27 0 -56 -11 -56 -59v-16h129v-102h-129v-453h-122zM355 -26v555h110v-22c12 20 37 32 78 32c52 0 77 -23 92 -50c17 27 53 50 99 50c84 0 129 -51 129 -147v-418h-120
v401c0 53 -10 72 -33 72c-30 0 -41 -29 -41 -75v-398h-120v406c0 51 -10 67 -34 67c-25 0 -40 -19 -40 -71v-402h-120z" />
    <glyph glyph-name="Korea1.598" unicode="&#x339a;" vert-adv-y="1105" 
d="M239 539c101 0 129 -71 129 -179v-386h-120v367c0 68 -15 90 -41 90c-24 0 -48 -17 -48 -88v-369h-120v555h105v-43c18 35 45 53 95 53zM392 -26v555h110v-22c12 20 33 32 74 32c52 0 79 -23 94 -50c17 27 47 50 93 50c84 0 127 -51 127 -147v-418h-120v401
c0 53 -8 72 -31 72c-30 0 -38 -29 -38 -75v-398h-120v406c0 51 -8 67 -32 67c-25 0 -37 -19 -37 -71v-402h-120z" />
    <glyph glyph-name="Korea1.599" unicode="&#x339b;" vert-adv-y="1105" 
d="M33 -240v769h120v-396c0 -45 17 -69 46 -69c32 0 43 19 43 76v389h120v-555h-117v16c-8 -13 -24 -23 -45 -23c-23 0 -40 12 -49 24v-231h-118zM392 -26v555h110v-22c12 20 33 32 74 32c52 0 79 -23 94 -50c17 27 47 50 93 50c84 0 127 -51 127 -147v-418h-120v401
c0 53 -8 72 -31 72c-30 0 -38 -29 -38 -75v-398h-120v406c0 51 -8 67 -32 67c-25 0 -37 -19 -37 -71v-402h-120z" />
    <glyph glyph-name="Korea1.600" unicode="&#x339c;" vert-adv-y="1105" 
d="M21 -26v555h106v-33c13 31 37 43 75 43c32 0 61 -16 69 -43c9 27 36 43 78 43c60 0 91 -45 91 -149v-416h-116v404c0 48 -4 65 -17 65c-16 0 -21 -19 -21 -63v-406h-114v416c0 37 -3 53 -16 53c-15 0 -19 -21 -19 -69v-400h-116zM470 -26v555h106v-33c13 31 37 43 75 43
c32 0 61 -16 69 -43c9 27 36 43 78 43c60 0 91 -45 91 -149v-416h-116v404c0 48 -4 65 -17 65c-16 0 -21 -19 -21 -63v-406h-114v416c0 37 -3 53 -16 53c-15 0 -19 -21 -19 -69v-400h-116z" />
    <glyph glyph-name="Korea1.601" unicode="&#x339d;" vert-adv-y="1105" 
d="M224 539c66 0 121 -30 152 -67l-65 -79c-24 26 -53 39 -87 39c-23 0 -80 -6 -80 -134v-83c0 -118 28 -141 78 -141c44 0 68 15 98 39l67 -84c-25 -26 -82 -63 -168 -63c-166 0 -196 90 -196 247v85c0 157 67 241 201 241zM388 -26v555h110v-22c12 20 33 32 74 32
c52 0 79 -23 94 -50c17 27 47 50 93 50c84 0 127 -51 127 -147v-418h-120v401c0 53 -8 72 -31 72c-30 0 -38 -29 -38 -75v-398h-120v406c0 51 -8 67 -32 67c-25 0 -37 -19 -37 -71v-402h-120z" />
    <glyph glyph-name="Korea1.602" unicode="&#x339e;" vert-adv-y="1105" 
d="M498 529v-22c12 20 33 32 74 32c52 0 79 -23 94 -50c17 27 47 50 93 50c84 0 127 -51 127 -147v-418h-120v401c0 53 -8 72 -31 72c-30 0 -38 -29 -38 -75v-398h-120v406c0 51 -8 67 -32 67c-25 0 -37 -19 -37 -71v-402h-120v547l-142 -227l140 -320h-125l-95 221l-15 -28
v-193h-124v721h124v-362l118 197l119 -1h110z" />
    <glyph glyph-name="Korea1.603" unicode="&#x339f;" vert-adv-y="1105" 
d="M720 616l53 62c17 21 25 33 25 42v2c0 7 -7 11 -17 11c-13 0 -25 -8 -32 -16l-41 41c15 19 42 41 83 41c67 0 86 -39 86 -63v-4c0 -24 -10 -43 -37 -74l-32 -36h75v-59h-163v53zM21 -26v555h106v-33c13 31 37 43 75 43c32 0 61 -16 69 -43c9 27 36 43 78 43
c60 0 91 -45 91 -149v-416h-116v404c0 48 -4 65 -17 65c-16 0 -21 -19 -21 -63v-406h-114v416c0 37 -3 53 -16 53c-15 0 -19 -21 -19 -69v-400h-116zM470 -26v555h106v-33c13 31 37 43 75 43c32 0 61 -16 69 -43c9 27 36 43 78 43c60 0 91 -45 91 -149v-416h-116v404
c0 48 -4 65 -17 65c-16 0 -21 -19 -21 -63v-406h-114v416c0 37 -3 53 -16 53c-15 0 -19 -21 -19 -69v-400h-116z" />
    <glyph glyph-name="Korea1.604" unicode="&#x33a0;" vert-adv-y="1105" 
d="M224 539c66 0 121 -30 152 -67l-65 -79c-24 26 -53 39 -87 39c-23 0 -80 -6 -80 -134v-83c0 -118 28 -141 78 -141c44 0 68 15 98 39l67 -84c-25 -26 -82 -63 -168 -63c-166 0 -196 90 -196 247v85c0 157 67 241 201 241zM388 -26v555h110v-22c12 20 33 32 74 32
c52 0 79 -23 94 -50c17 27 47 50 93 50c84 0 127 -51 127 -147v-418h-120v401c0 53 -8 72 -31 72c-30 0 -38 -29 -38 -75v-398h-120v406c0 51 -8 67 -32 67c-25 0 -37 -19 -37 -71v-402h-120zM720 616l53 62c17 21 25 33 25 42v2c0 7 -7 11 -17 11c-13 0 -25 -8 -32 -16
l-41 41c15 19 42 41 83 41c67 0 86 -39 86 -63v-4c0 -24 -10 -43 -37 -74l-32 -36h75v-59h-163v53z" />
    <glyph glyph-name="Korea1.605" unicode="&#x33a1;" vert-adv-y="1105" 
d="M695 539c111 0 185 -74 185 -212v-353h-126v311c0 86 -32 140 -85 140c-66 0 -116 -32 -116 -127v-324h-126v311c0 85 -30 140 -89 140c-67 0 -112 -35 -112 -127v-324h-126v555h125v-73c21 52 67 83 141 83c65 0 125 -33 153 -84c40 56 88 84 176 84zM720 616l53 62
c17 21 25 33 25 42v2c0 7 -7 11 -17 11c-13 0 -25 -8 -32 -16l-41 41c15 19 42 41 83 41c67 0 86 -39 86 -63v-4c0 -24 -10 -43 -37 -74l-32 -36h75v-59h-163v53z" />
    <glyph glyph-name="Korea1.606" unicode="&#x33a2;" vert-adv-y="1105" 
d="M498 529v-22c12 20 33 32 74 32c52 0 79 -23 94 -50c17 27 47 50 93 50c84 0 127 -51 127 -147v-418h-120v401c0 53 -8 72 -31 72c-30 0 -38 -29 -38 -75v-398h-120v406c0 51 -8 67 -32 67c-25 0 -37 -19 -37 -71v-402h-120v547l-142 -227l140 -320h-125l-95 221l-15 -28
v-193h-124v721h124v-362l118 197l119 -1h110zM720 616l53 62c17 21 25 33 25 42v2c0 7 -7 11 -17 11c-13 0 -25 -8 -32 -16l-41 41c15 19 42 41 83 41c67 0 86 -39 86 -63v-4c0 -24 -10 -43 -37 -74l-32 -36h75v-59h-163v53z" />
    <glyph glyph-name="Korea1.607" unicode="&#x33ca;" vert-adv-y="1105" 
d="M294 539c105 0 154 -62 154 -194v-371h-126v344c0 83 -12 111 -58 111c-45 0 -76 -26 -76 -124v-331h-126v721h126v-198c18 22 50 42 106 42zM617 -34c-120 0 -152 73 -152 166v22c0 93 42 154 183 154h53v43c0 64 -16 81 -51 81c-29 0 -65 -15 -104 -49l-61 92
c42 38 105 64 163 64c134 0 174 -75 174 -190v-375h-119v33c-6 -23 -40 -41 -86 -41zM701 154v61h-52c-52 0 -64 -25 -64 -64v-16c0 -52 14 -72 45 -72c42 0 71 35 71 91z" />
    <glyph glyph-name="Korea1.608" unicode="&#x338d;" vert-adv-y="1105" 
d="M750 -16v33c-13 -24 -54 -41 -103 -41c-124 0 -183 67 -183 235v91c0 137 60 237 178 237c49 0 89 -11 107 -38v28h126v-547c0 -150 -57 -231 -215 -231c-56 0 -120 23 -162 56l57 99c22 -19 65 -43 103 -43c62 0 92 48 92 121zM322 529h125v-555h-124v24
c-14 -19 -35 -32 -73 -32c-26 0 -50 17 -64 32v-238h-125v769h125v-347c0 -69 12 -104 64 -104c47 0 72 35 72 126v325zM587 282v-49c0 -114 21 -147 81 -147c67 0 84 46 84 135v108c0 61 -23 98 -83 98c-69 0 -82 -42 -82 -145z" />
    <glyph glyph-name="Korea1.609" unicode="&#x338e;" vert-adv-y="1105" 
d="M765 -54v46c-13 -10 -36 -16 -70 -16c-120 0 -149 94 -149 235v88c0 137 37 240 153 240c52 0 74 -22 83 -36v26h104v-583c0 -140 -65 -195 -161 -195c-75 0 -126 28 -169 58l65 98c27 -20 64 -41 95 -41c32 0 49 20 49 80zM665 288v-57c0 -115 12 -147 58 -147
c27 0 44 34 44 123v128c0 51 -4 98 -46 98c-52 0 -56 -50 -56 -145zM41 -26v555h109v-22c13 24 37 32 79 32s74 -23 86 -50c15 25 46 50 93 50c84 0 122 -51 122 -147v-418h-119v404c0 48 -7 68 -29 68c-31 0 -37 -21 -37 -67v-405h-119v405c0 51 -5 67 -29 67
c-26 0 -37 -18 -37 -70v-402h-119z" />
    <glyph glyph-name="Korea1.610" unicode="&#x338f;" vert-adv-y="1105" 
d="M750 -16v33c-13 -24 -54 -41 -103 -41c-124 0 -183 67 -183 235v91c0 137 60 237 178 237c49 0 89 -11 107 -38v28h126v-547c0 -150 -57 -231 -215 -231c-56 0 -120 23 -162 56l57 99c22 -19 65 -43 103 -43c62 0 92 48 92 121zM510 529l-193 -218l201 -337h-137
l-143 247l-40 -46v-201h-126v721h126v-368l173 202h139zM587 282v-49c0 -114 21 -147 81 -147c67 0 84 46 84 135v108c0 61 -23 98 -83 98c-69 0 -82 -42 -82 -145z" />
    <glyph glyph-name="Korea1.611" unicode="&#x33cf;" vert-adv-y="1105" 
d="M590 132v289h-80v95l-178 -213l197 -329h-137l-136 239l-27 -34v-205h-126v721h126v-366l153 200h208v137h126v-137h130v-108h-130v-292c0 -49 20 -59 69 -59c15 0 32 3 54 12l26 -94c-20 -10 -63 -25 -102 -25c-117 0 -173 57 -173 169z" />
    <glyph glyph-name="Korea1.612" unicode="&#x3388;" vert-adv-y="1105" 
d="M220 539c73 0 129 -33 157 -67l-65 -79c-22 24 -52 39 -90 39c-57 0 -86 -42 -86 -138v-75c0 -112 25 -145 82 -145c47 0 74 15 103 39l67 -84c-35 -32 -89 -63 -173 -63c-154 0 -200 68 -200 247v85c0 157 69 241 205 241zM522 -34c-112 0 -152 63 -152 166v22
c0 93 42 154 183 154h55v43c0 58 -16 80 -56 80c-33 0 -68 -19 -101 -48l-61 92c45 39 104 64 163 64c134 0 174 -75 174 -190v-375h-118v24c-15 -17 -40 -32 -87 -32zM608 154v61h-54c-49 0 -63 -20 -63 -64v-16c0 -52 13 -72 40 -72c48 0 77 35 77 91zM891 695v-721h-124
v721h124z" />
    <glyph glyph-name="Korea1.613" unicode="&#x3389;" horiz-adv-x="970" vert-adv-y="1105" 
d="M418 539c64 0 102 -25 133 -62c45 49 87 62 152 62c106 0 128 -81 128 -164v-401h-98v26c-15 -19 -33 -34 -82 -34c-78 0 -109 79 -109 146v50c0 93 54 146 141 146h45v57c0 59 -16 67 -43 67c-28 0 -54 -13 -74 -35l-58 73l-69 -65c-19 23 -33 37 -62 37
c-34 0 -54 -34 -54 -144v-91c0 -94 10 -141 63 -141c22 0 46 13 58 31l64 -62c-25 -37 -64 -69 -123 -69c-173 0 -168 130 -168 239v104c0 157 46 230 156 230zM312 529l-103 -204l77 -351h-101l-47 231l-21 -42v-189h-107v721h107v-373l94 207h101zM960 695v-721h-107v721
h107zM728 144v71h-18c-43 0 -62 -17 -62 -56v-41c0 -44 12 -55 33 -55c34 0 47 28 47 81z" />
    <glyph glyph-name="Korea1.614" unicode="&#x33c8;" vert-adv-y="1105" 
d="M324 -26v31c-20 -23 -46 -39 -98 -39c-128 0 -196 88 -196 239v99c0 151 73 235 191 235c53 0 82 -12 102 -34v190h122v-721h-121zM152 294v-79c0 -97 35 -151 85 -151c56 0 86 36 86 113v160c0 49 -23 106 -86 106c-58 0 -85 -53 -85 -149zM493 -26v721h183
c121 0 190 -60 190 -178v-21c0 -76 -29 -132 -120 -145c96 -7 146 -75 146 -162v-25c0 -112 -44 -190 -211 -190h-188zM614 303v-227h49c59 0 106 26 106 91v22c0 80 -28 114 -124 114h-31zM635 594h-21v-196h30c55 0 100 16 100 98v18c0 64 -45 80 -109 80z" />
    <glyph glyph-name="Korea1.615" unicode="&#x33a7;" vert-adv-y="1105" 
d="M21 -26v555h106v-33c13 31 37 43 75 43c32 0 61 -16 69 -43c9 27 36 43 78 43c60 0 91 -45 91 -149v-392l173 761h87l-202 -884h-86l22 99h-110v404c0 48 -4 65 -17 65c-16 0 -21 -19 -21 -63v-406h-114v416c0 37 -3 53 -16 53c-15 0 -19 -21 -19 -69v-400h-116zM743 72
c31 0 46 26 46 53v9c0 25 -13 43 -50 67c-96 62 -112 80 -112 171v12c0 80 51 155 145 155c46 0 82 -7 128 -45l-52 -77c-18 13 -34 20 -59 20c-31 0 -43 -24 -43 -54v-8c0 -29 7 -45 47 -73c94 -65 114 -100 114 -164v-18c0 -74 -47 -154 -158 -154c-68 0 -109 21 -146 51
l64 89c23 -19 47 -34 76 -34z" />
    <glyph glyph-name="Korea1.616" unicode="&#x33a8;" vert-adv-y="1105" 
d="M21 -26v555h106v-33c13 31 37 43 75 43c32 0 61 -16 69 -43c9 27 36 43 78 43c60 0 91 -45 91 -149v-392l173 761h87l-202 -884h-86l22 99h-110v404c0 48 -4 65 -17 65c-16 0 -21 -19 -21 -63v-406h-114v416c0 37 -3 53 -16 53c-15 0 -19 -21 -19 -69v-400h-116zM743 72
c31 0 46 26 46 53v9c0 25 -13 43 -50 67c-96 62 -112 80 -112 171v12c0 80 51 155 145 155c46 0 82 -7 128 -45l-52 -77c-18 13 -34 20 -59 20c-31 0 -43 -24 -43 -54v-8c0 -29 7 -45 47 -73c94 -65 114 -100 114 -164v-18c0 -74 -47 -154 -158 -154c-68 0 -109 21 -146 51
l64 89c23 -19 47 -34 76 -34zM720 616l53 62c17 21 25 33 25 42v2c0 7 -7 11 -17 11c-13 0 -25 -8 -32 -16l-41 41c15 19 42 41 83 41c67 0 86 -39 86 -63v-4c0 -24 -10 -43 -37 -74l-32 -36h75v-59h-163v53z" />
    <glyph glyph-name="Korea1.617" unicode="&#x33b0;" vert-adv-y="1105" 
d="M191 529v-47c26 36 65 57 129 57c115 0 169 -75 169 -239v-91c0 -168 -52 -243 -187 -243c-51 0 -91 14 -106 24v-230h-122v769h117zM369 225v57c0 109 -19 147 -85 147c-69 0 -90 -47 -90 -129v-128c0 -67 28 -96 90 -96c63 0 85 33 85 149zM685 71c45 0 67 21 67 55v10
c0 33 -13 50 -85 71c-112 33 -157 70 -157 165v14c0 88 59 153 181 153c80 0 124 -13 169 -46l-51 -83c-33 20 -70 28 -108 28c-46 0 -65 -26 -65 -54v-10c0 -32 10 -46 69 -63c145 -42 173 -79 173 -172v-15c0 -97 -67 -158 -190 -158c-81 0 -151 25 -194 62l57 93
c40 -29 102 -50 134 -50z" />
    <glyph glyph-name="Korea1.618" unicode="&#x33b1;" vert-adv-y="1105" 
d="M318 539c117 0 142 -83 142 -203v-362h-126v335c0 104 -17 120 -54 120c-42 0 -72 -23 -72 -132v-323h-126v555h123v-33c22 24 57 43 113 43zM677 71c45 0 67 21 67 55v10c0 33 -13 50 -85 71c-112 33 -157 70 -157 165v14c0 88 59 153 181 153c80 0 124 -13 169 -46
l-51 -83c-33 20 -70 28 -108 28c-46 0 -65 -26 -65 -54v-10c0 -32 10 -46 69 -63c145 -42 173 -79 173 -172v-15c0 -97 -67 -158 -190 -158c-81 0 -151 25 -194 62l57 93c40 -29 102 -50 134 -50z" />
    <glyph glyph-name="Korea1.619" unicode="&#x33b2;" vert-adv-y="1105" 
d="M680 71c45 0 67 21 67 55v10c0 33 -13 50 -85 71c-112 33 -157 70 -157 165v14c0 88 59 153 181 153c80 0 124 -13 169 -46l-51 -83c-33 20 -70 28 -108 28c-46 0 -65 -26 -65 -54v-10c0 -32 10 -46 69 -63c145 -42 173 -79 173 -172v-15c0 -97 -67 -158 -190 -158
c-81 0 -151 25 -194 62l57 93c40 -29 102 -50 134 -50zM328 529h125v-555h-124v24c-13 -19 -32 -32 -69 -32c-25 0 -50 17 -62 32v-238h-125v769h125v-347c0 -69 11 -104 62 -104c46 0 68 35 68 126v325z" />
    <glyph glyph-name="Korea1.620" unicode="&#x33b3;" vert-adv-y="1105" 
d="M22 -26v555h110v-22c12 20 33 32 74 32c52 0 79 -23 94 -50c17 27 47 50 93 50c84 0 127 -51 127 -147v-418h-120v401c0 53 -8 72 -31 72c-30 0 -38 -29 -38 -75v-398h-120v406c0 51 -8 67 -32 67c-25 0 -37 -19 -37 -71v-402h-120zM715 66c45 0 66 20 66 54v10
c0 24 -6 42 -71 66c-118 43 -157 78 -157 175v15c0 86 51 153 173 153c73 0 126 -17 173 -54l-48 -78c-32 22 -69 36 -107 36c-49 0 -69 -24 -69 -58v-9c0 -40 14 -54 73 -75c136 -49 155 -77 155 -168v-15c0 -95 -56 -152 -184 -152c-74 0 -136 23 -180 60l52 88
c40 -29 90 -48 124 -48z" />
    <glyph glyph-name="Korea1.621" unicode="&#x33b4;" vert-adv-y="1105" 
d="M157 529v-47c26 36 65 57 129 57c115 0 169 -75 169 -239v-91c0 -168 -52 -243 -187 -243c-51 0 -91 14 -106 24v-230h-122v769h117zM598 -26l-199 721h125l133 -552l130 552h123l-192 -721h-120zM335 225v57c0 109 -19 147 -85 147c-69 0 -90 -47 -90 -129v-128
c0 -67 28 -96 90 -96c63 0 85 33 85 149z" />
    <glyph glyph-name="Korea1.622" unicode="&#x33b5;" vert-adv-y="1105" 
d="M598 -26l-199 721h125l133 -552l130 552h123l-192 -721h-120zM308 539c117 0 145 -83 145 -203v-362h-126v335c0 104 -20 120 -57 120c-42 0 -75 -23 -75 -132v-323h-126v555h123v-33c22 24 60 43 116 43z" />
    <glyph glyph-name="Korea1.623" unicode="&#x33b6;" vert-adv-y="1105" 
d="M308 529h125v-555h-124v24c-14 -19 -35 -32 -73 -32c-26 0 -50 17 -64 32v-238h-125v769h125v-347c0 -69 12 -104 64 -104c47 0 72 35 72 126v325zM598 -26l-199 721h125l133 -552l130 552h123l-192 -721h-120z" />
    <glyph glyph-name="Korea1.624" unicode="&#x33b7;" vert-adv-y="1105" 
d="M651 -26l-145 721h119l86 -557l81 557h117l-138 -721h-120zM37 -26v555h110v-22c12 20 33 32 74 32c52 0 79 -23 94 -50c17 27 47 50 93 50c84 0 127 -51 127 -147v-418h-120v401c0 53 -8 72 -31 72c-30 0 -38 -29 -38 -75v-398h-120v406c0 51 -8 67 -32 67
c-25 0 -37 -19 -37 -71v-402h-120z" />
    <glyph glyph-name="Korea1.625" unicode="&#x33b8;" horiz-adv-x="914" vert-adv-y="1105" 
d="M602 -26l-150 542l-164 -209l182 -333h-140l-120 236l-27 -37v-199h-126v721h126v-360l146 194h120l-46 166h125l133 -552l130 552h123l-192 -721h-120z" />
    <glyph glyph-name="Korea1.626" unicode="&#x33b9;" vert-adv-y="1105" 
d="M654 -26l-128 683v-683h-105v635c-1 -20 -3 -34 -6 -51l-91 -464h-101l-96 465c-4 19 -6 35 -8 57v-642h-101v721h170l87 -459l78 459h276l85 -557l81 557h107l-128 -721h-120z" />
    <glyph glyph-name="Korea1.627" unicode="&#x3380;" vert-adv-y="1105" 
d="M712 695l192 -721h-135l-42 192h-141l-42 -192h-132l23 93c-27 -66 -81 -101 -173 -101c-50 0 -82 16 -107 37v-243h-122v769h117v-47c30 40 71 57 133 57c126 0 175 -82 175 -239v-91c0 -26 -2 -49 -5 -71l142 557h117zM338 225v57c0 109 -19 147 -91 147
c-73 0 -94 -34 -94 -129v-128c0 -71 24 -96 94 -96c74 0 91 42 91 149zM670 434c-5 23 -9 55 -12 99c-3 -44 -8 -76 -13 -100l-35 -166h93z" />
    <glyph glyph-name="Korea1.628" unicode="&#x3381;" horiz-adv-x="913" vert-adv-y="1105" 
d="M721 695l192 -721h-135l-42 192h-141l-42 -192h-132l183 721h117zM271 539c107 0 145 -67 145 -203v-362h-126v335c0 92 -14 120 -57 120c-55 0 -75 -29 -75 -132v-323h-126v555h123v-32c22 24 60 42 116 42zM679 434c-5 23 -9 55 -12 99c-3 -44 -8 -76 -13 -100
l-35 -166h93z" />
    <glyph glyph-name="Korea1.629" unicode="&#x3382;" vert-adv-y="1105" 
d="M297 529h125v-535l178 701h117l192 -721h-135l-42 192h-141l-42 -192h-251v24c-13 -19 -33 -32 -70 -32c-25 0 -51 17 -63 32v-238h-125v769h125v-347c0 -69 12 -104 63 -104c46 0 69 35 69 126v325zM675 434c-5 23 -9 55 -12 99c-3 -44 -8 -76 -13 -100l-35 -166h93z
" />
    <glyph glyph-name="Korea1.630" unicode="&#x3383;" vert-adv-y="1105" 
d="M21 -26v555h106v-33c13 31 36 43 74 43c32 0 61 -16 69 -43c9 27 36 43 78 43c60 0 90 -45 90 -149v-399l166 704h117l179 -721h-134l-37 192h-125l-39 -192h-243v404c0 48 -3 65 -16 65c-16 0 -21 -19 -21 -63v-406h-114v416c0 37 -3 53 -16 53c-15 0 -18 -21 -18 -69
v-400h-116zM655 426l-31 -159h84l-29 159c-7 40 -10 76 -12 109c-1 -33 -5 -69 -12 -109z" />
    <glyph glyph-name="Korea1.631" unicode="&#x3384;" horiz-adv-x="920" vert-adv-y="1105" 
d="M728 695l192 -721h-135l-42 192h-141l-42 -192h-213l-146 245l-32 -39v-206h-126v721h126v-364l162 198h135l-188 -220l167 -267l166 653h117zM686 434c-5 23 -9 55 -12 99c-3 -44 -8 -76 -13 -100l-35 -166h93z" />
    <glyph glyph-name="Korea1.632" unicode="&#x33ba;" horiz-adv-x="916" vert-adv-y="1105" 
d="M439 -26l-48 367c1 -13 1 -27 1 -41v-91c0 -179 -46 -243 -171 -243c-43 0 -77 18 -93 31v-237h-116v769h111v-40c23 31 61 50 116 50c78 0 122 -35 141 -111l-35 267h111l51 -537l58 537h130l57 -537l55 537h109l-101 -721h-128l-57 554l-61 -554h-130zM279 225v57
c0 122 -15 147 -72 147c-54 0 -81 -45 -81 -115v-146c0 -60 35 -92 81 -92c53 0 72 26 72 149z" />
    <glyph glyph-name="Korea1.633" unicode="&#x33bb;" horiz-adv-x="916" vert-adv-y="1105" 
d="M235 539c91 0 123 -53 123 -181v-384h-118v365c0 75 -12 92 -40 92s-43 -17 -43 -100v-357h-118v555h103v-43c16 32 42 53 93 53zM439 -26l-94 721h111l51 -537l58 537h130l57 -537l55 537h109l-101 -721h-128l-57 554l-61 -554h-130z" />
    <glyph glyph-name="Korea1.634" unicode="&#x33bc;" horiz-adv-x="916" vert-adv-y="1105" 
d="M33 -240v769h118v-389c0 -50 14 -76 49 -76c34 0 44 27 44 77v388h118v-555h-115v27c-6 -16 -25 -34 -49 -34c-25 0 -43 18 -49 33v-240h-116zM439 -26l-94 721h111l51 -537l58 537h130l57 -537l55 537h109l-101 -721h-128l-57 554l-61 -554h-130z" />
    <glyph glyph-name="Korea1.635" unicode="&#x33bd;" horiz-adv-x="915" vert-adv-y="1105" 
d="M0 -26v555h105v-26c14 22 35 36 67 36c41 0 64 -17 77 -36c11 20 38 36 74 36c62 0 89 -49 89 -149v-416h-115v400c0 44 -5 59 -17 59c-13 0 -19 -13 -19 -54v-405h-113v403c0 44 -4 56 -16 56s-17 -18 -17 -63v-396h-115zM470 -26c-25 240 -48 481 -73 721h111l33 -537
l46 537h137l44 -537l38 537h109l-83 -721h-128l-47 562l-55 -562h-132z" />
    <glyph glyph-name="Korea1.636" unicode="&#x33be;" vert-adv-y="1105" 
d="M466 -26l-56 550l-174 -230l180 -320h-132l-122 222l-15 -21v-201h-124v721h124v-367l140 201h123l-17 166h111l32 -537l46 537h137l44 -537l37 537h109l-83 -721h-128l-46 562l-54 -562h-132z" />
    <glyph glyph-name="Korea1.637" unicode="&#x33bf;" horiz-adv-x="916" vert-adv-y="1105" 
d="M471 -26l-73 721h109l34 -543h1l47 543h135l45 -543h1l38 543h108l-83 -721h-128l-47 562l-55 -562h-132zM161 94l-42 372l-13 140v-632h-86v721h154l38 -460l31 460h155v-721h-86v632c-7 -83 -8 -111 -12 -142l-43 -370h-96z" />
    <glyph glyph-name="Korea1.638" unicode="&#x3390;" vert-adv-y="1105" 
d="M359 -26v322h-155v-322h-124v721h124v-293h155v293h124v-721h-124zM867 529v-98l-204 -351h220v-106h-381v82l216 365h-196v108h345z" />
    <glyph glyph-name="Korea1.639" unicode="&#x3391;" vert-adv-y="1105" 
d="M520 -26v328h-77v-328h-225l-77 206l-16 -26v-180h-112v721h112v-368l104 202h104v166h110v-295h77v295h110v-721h-110zM902 529v-96l-131 -357h131v-102h-262v78l136 371h-126v106h252zM213 301l120 -324v529z" />
    <glyph glyph-name="Korea1.640" unicode="&#x3392;" horiz-adv-x="920" vert-adv-y="1105" 
d="M145 94l-35 370c-5 56 -10 93 -15 153v-643h-85v721h147l37 -462l28 462h151v-721h-85v633c-3 -64 -7 -103 -11 -143l-37 -370h-95zM549 -26v330h-44v-330h-98v721h98v-297h44v297h98v-721h-98zM915 529v-88l-136 -373h136v-94h-255v70l142 387h-132v98h245z" />
    <glyph glyph-name="Korea1.641" unicode="&#x3393;" horiz-adv-x="912" vert-adv-y="1105" 
d="M546 -26v328h-76v-328h-109v721h109v-295h76v295h109v-721h-109zM211 706c71 0 107 -19 148 -62l-70 -74c-20 21 -44 35 -72 35c-58 0 -94 -56 -94 -239v-82c0 -138 17 -219 79 -219c20 0 30 3 40 11v192h-67v106h176v-357c-31 -32 -72 -54 -145 -54
c-114 0 -192 72 -192 287v149c0 205 63 307 197 307zM912 529v-96l-119 -357h119v-102h-250v78l125 371h-115v106h240z" />
    <glyph glyph-name="Korea1.642" unicode="&#x3394;" vert-adv-y="1105" 
d="M14 695h307v-106h-96v-615h-112v615h-99v106zM520 -26v328h-77v-328h-110v721h110v-295h77v295h110v-721h-110zM902 529v-96l-131 -357h131v-102h-262v78l136 371h-126v106h252z" />
    <glyph glyph-name="Korea1.643" unicode="&#x2126;" vert-adv-y="1105" 
d="M836 86v-112h-313v110c73 16 120 84 120 210v86c0 139 -71 211 -188 211s-188 -72 -188 -211v-86c0 -126 47 -194 120 -210v-110h-313v112h133c-20 21 -65 73 -65 189v119c0 201 124 312 313 312s313 -111 313 -312v-119c0 -116 -45 -168 -65 -189h133z" />
    <glyph glyph-name="Korea1.644" unicode="&#x33c0;" vert-adv-y="1105" 
d="M898 67v-93h-234v91c68 15 88 86 88 226v110c0 145 -38 201 -121 201s-121 -56 -121 -201v-110c0 -140 20 -211 88 -226v-91h-305l-128 229l-20 -31v-198h-126v721h126v-369l128 203h123l-157 -224l135 -238h76c-30 32 -57 96 -57 208v135c0 213 79 296 238 296
s238 -83 238 -296v-135c0 -112 -27 -176 -57 -208h86z" />
    <glyph glyph-name="Korea1.645" unicode="&#x33c1;" vert-adv-y="1105" 
d="M902 66v-92h-208v90c68 15 88 87 88 227v116c0 143 -30 199 -101 199s-101 -56 -101 -199v-116c0 -140 20 -212 88 -227v-90h-332v642l-5 -78l-62 -444h-96l-67 444c-3 27 -4 44 -6 75v-639h-92v721h156l59 -454l50 454h155v-629h98c-31 34 -57 100 -57 212v135
c0 206 64 293 212 293s212 -87 212 -293v-135c0 -112 -26 -178 -57 -212h66z" />
    <glyph glyph-name="Korea1.646" unicode="&#x338a;" vert-adv-y="1105" 
d="M168 529v-47c26 36 68 57 132 57c115 0 172 -75 172 -239v-91c0 -168 -55 -243 -190 -243c-51 0 -93 13 -109 25v-231h-122v769h117zM352 225v57c0 109 -22 147 -88 147c-69 0 -93 -47 -93 -129v-128c0 -67 31 -96 93 -96c63 0 88 33 88 149zM656 -26h-127v721h379v-108
h-252v-206h231v-108h-231v-299z" />
    <glyph glyph-name="Korea1.647" unicode="&#x338b;" vert-adv-y="1105" 
d="M656 -26h-127v721h379v-108h-252v-206h231v-108h-231v-299zM308 539c117 0 145 -83 145 -203v-362h-126v335c0 104 -20 120 -57 120c-42 0 -75 -23 -75 -132v-323h-126v555h123v-33c22 24 60 43 116 43z" />
    <glyph glyph-name="Korea1.648" unicode="&#x338c;" vert-adv-y="1105" 
d="M656 -26h-127v721h379v-108h-252v-206h231v-108h-231v-299zM323 529h125v-555h-124v24c-13 -19 -32 -32 -68 -32c-25 0 -49 17 -61 32v-238h-125v769h125v-347c0 -69 11 -104 61 -104c45 0 67 35 67 126v325z" />
    <glyph glyph-name="Korea1.649" unicode="&#x33d6;" vert-adv-y="1105" 
d="M894 695v-721h-106v721h106zM12 -26v555h106v-33c13 31 37 43 75 43c32 0 61 -16 69 -43c9 27 36 43 78 43c60 0 91 -45 91 -149v-416h-116v404c0 48 -4 65 -17 65c-16 0 -21 -19 -21 -63v-406h-114v416c0 37 -3 53 -16 53c-15 0 -19 -21 -19 -69v-400h-116zM611 -34
c-121 0 -158 85 -158 235v103c0 150 37 235 158 235s158 -85 158 -235v-103c0 -150 -37 -235 -158 -235zM611 441c-30 0 -41 -41 -41 -141v-95c0 -100 11 -141 41 -141s41 41 41 141v95c0 100 -11 141 -41 141z" />
    <glyph glyph-name="Korea1.650" unicode="&#x33c5;" vert-adv-y="1105" 
d="M734 -26v31c-24 -26 -60 -39 -112 -39c-136 0 -202 83 -202 239v99c0 151 67 235 197 235c65 0 94 -17 116 -35v191h122v-721h-121zM542 294v-79c0 -97 33 -151 95 -151c56 0 96 36 96 113v160c0 49 -33 106 -96 106c-70 0 -95 -53 -95 -149zM268 539
c73 0 129 -31 163 -65l-57 -89c-27 27 -62 47 -107 47c-66 0 -98 -49 -98 -140v-73c0 -102 33 -145 94 -145c52 0 87 17 120 43l61 -88c-40 -37 -93 -63 -182 -63c-156 0 -216 86 -216 251v75c0 157 71 247 222 247z" />
    <glyph glyph-name="Korea1.651" unicode="&#x33ad;" vert-adv-y="1105" 
d="M290 530l-37 -104c-13 7 -29 11 -48 11c-60 0 -88 -65 -88 -165v-298h-102v555h97v-77c19 50 59 87 113 87c28 0 44 -2 65 -9zM377 -34c-73 0 -105 58 -105 146v50c0 93 50 146 137 146h44v57c0 56 -16 69 -46 69c-28 0 -56 -16 -74 -35l-61 76c42 47 83 64 148 64
c99 0 134 -60 134 -164v-401h-96v25c-12 -16 -35 -33 -81 -33zM453 144v71h-17c-46 0 -60 -20 -60 -58v-42c0 -37 11 -52 33 -52c34 0 44 28 44 81zM808 497v230h86v-769h-110v49c-12 -20 -45 -41 -83 -41c-108 0 -131 74 -131 228v116c0 162 34 229 138 229
c62 0 88 -19 100 -42zM672 303v-100c0 -97 19 -131 60 -131c39 0 60 39 60 121v138c0 55 -16 103 -61 103c-44 0 -59 -55 -59 -131z" />
    <glyph glyph-name="Korea1.652" unicode="&#x33ae;" horiz-adv-x="915" vert-adv-y="1105" 
d="M193 530l-3 -10c19 13 41 19 64 19c49 0 74 -45 74 -128v-435h-68v27c-6 -22 -28 -37 -49 -37c-63 0 -77 81 -77 148v50c0 93 46 142 101 142h12v67c0 56 -3 73 -19 73c-9 0 -26 -13 -42 -35l-15 26l-3 -15c-7 7 -19 11 -29 11c-32 0 -43 -66 -43 -164v-295h-84v555h70
v-79c12 67 39 89 72 89c16 0 28 -3 39 -9zM480 490v237h77v-767h-75v55c-10 -24 -28 -49 -53 -49c-70 0 -91 101 -91 237v115c0 113 10 221 85 221c36 0 53 -17 57 -49zM780 56c26 0 44 23 44 64v9c0 26 -14 51 -45 83c-63 65 -72 82 -72 161v12c0 74 33 155 109 155
c40 0 67 -12 99 -49l-43 -66c-11 14 -25 26 -44 26c-36 0 -43 -37 -43 -67v-8c0 -31 13 -47 37 -74c68 -75 83 -99 83 -170v-17c0 -81 -32 -149 -121 -149c-43 0 -82 15 -110 52l53 65c18 -22 38 -27 53 -27zM689 759h55l-138 -884h-54zM406 316v-107
c0 -115 18 -152 37 -152c21 0 29 51 29 156v130c0 47 -3 105 -24 105c-37 0 -42 -71 -42 -132zM247 137v82h-3c-23 0 -34 -17 -34 -56v-47c0 -51 7 -63 21 -63s16 36 16 84z" />
    <glyph glyph-name="Korea1.653" unicode="&#x33af;" horiz-adv-x="915" vert-adv-y="1105" 
d="M193 530l-3 -10c19 13 41 19 64 19c49 0 74 -45 74 -128v-435h-68v27c-6 -22 -28 -37 -49 -37c-63 0 -77 81 -77 148v50c0 93 46 142 101 142h12v67c0 56 -3 73 -19 73c-9 0 -26 -13 -42 -35l-15 26l-3 -15c-7 7 -19 11 -29 11c-32 0 -43 -66 -43 -164v-295h-84v555h70
v-79c12 67 39 89 72 89c16 0 28 -3 39 -9zM480 490v237h77v-767h-75v55c-10 -24 -28 -49 -53 -49c-70 0 -91 101 -91 237v115c0 113 10 221 85 221c36 0 53 -17 57 -49zM738 616l53 62c17 21 25 33 25 42v2c0 7 -7 11 -17 11c-13 0 -25 -8 -32 -16l-26 25l-135 -867h-54
l137 884h37c15 19 42 40 83 40c67 0 86 -39 86 -63v-4c0 -24 -10 -43 -37 -74l-32 -36h75v-59h-163v53zM780 56c26 0 44 23 44 64v9c0 26 -14 51 -45 83c-63 65 -72 82 -72 161v12c0 74 33 155 109 155c40 0 67 -12 99 -49l-43 -66c-11 14 -25 26 -44 26
c-36 0 -43 -37 -43 -67v-8c0 -31 13 -47 37 -74c68 -75 83 -99 83 -170v-17c0 -81 -32 -149 -121 -149c-43 0 -82 15 -110 52l53 65c18 -22 38 -27 53 -27zM406 316v-107c0 -115 18 -152 37 -152c21 0 29 51 29 156v130c0 47 -3 105 -24 105c-37 0 -42 -71 -42 -132z
M247 137v82h-3c-23 0 -34 -17 -34 -56v-47c0 -51 7 -63 21 -63s16 36 16 84z" />
    <glyph glyph-name="Korea1.654" unicode="&#x33db;" vert-adv-y="1105" 
d="M838 522l-38 -116c-20 10 -43 18 -68 18c-60 0 -76 -49 -76 -149v-301h-128v555h123v-73c22 55 56 83 102 83c36 0 61 -6 85 -17zM295 71c45 0 67 21 67 55v10c0 33 -13 50 -85 71c-112 33 -157 70 -157 165v14c0 88 59 153 181 153c80 0 124 -13 169 -46l-51 -83
c-33 20 -70 28 -108 28c-46 0 -65 -26 -65 -54v-10c0 -32 10 -46 69 -63c145 -42 173 -79 173 -172v-15c0 -97 -67 -158 -190 -158c-81 0 -151 25 -194 62l57 93c40 -29 102 -50 134 -50z" />
    <glyph glyph-name="Korea1.655" unicode="&#x33a9;" vert-adv-y="1105" 
d="M635 -34c-112 0 -152 63 -152 166v22c0 93 42 154 183 154h55v43c0 58 -16 80 -56 80c-33 0 -68 -19 -101 -48l-60 90v-5c0 -122 -74 -217 -237 -217h-48v-277h-124v721h172c171 0 237 -86 237 -206v-13c45 38 103 63 162 63c134 0 174 -75 174 -190v-375h-118v24
c-15 -17 -40 -32 -87 -32zM267 590h-48v-234h39c91 0 123 37 123 114v18c0 67 -29 102 -114 102zM721 154v61h-54c-49 0 -63 -20 -63 -64v-16c0 -52 13 -72 40 -72c48 0 77 35 77 91z" />
    <glyph glyph-name="Korea1.656" unicode="&#x33aa;" horiz-adv-x="918" vert-adv-y="1105" 
d="M320 -26v721h134c157 0 185 -83 185 -206v-21c0 -127 -58 -217 -185 -217h-18v-277h-116zM737 -34c-92 0 -114 73 -114 166v22c0 93 34 154 151 154h32v37c0 64 -7 87 -48 87c-17 0 -36 -10 -50 -25l-64 76c37 36 75 56 142 56c90 0 132 -59 132 -174v-391h-113v27
c-10 -16 -33 -35 -68 -35zM320 529l-102 -204l100 -351h-103l-62 231l-19 -39v-192h-108v721h107v-368l83 202h104zM454 590h-18v-234h14c53 0 74 37 74 114v18c0 79 -25 102 -70 102zM806 144v71h-31c-21 0 -35 -25 -35 -64v-16c0 -52 12 -72 28 -72c30 0 38 26 38 81z" />
    <glyph glyph-name="Korea1.657" unicode="&#x33ab;" vert-adv-y="1105" 
d="M388 -26v721h130c114 0 142 -72 146 -181c31 19 65 25 109 25c106 0 128 -81 128 -164v-401h-98v26c-15 -19 -33 -34 -82 -34c-78 0 -109 79 -109 146v50c0 93 54 146 141 146h45v57c0 59 -16 67 -43 67c-28 0 -54 -13 -74 -35l-18 22c-8 -99 -40 -168 -141 -168h-28
v-277h-106zM150 94l-44 366c-5 44 -8 99 -13 162v-648h-85v721h156l31 -460l21 460h155v-721h-85v648c-4 -63 -3 -118 -7 -158l-33 -370h-96zM516 590h-22v-234h13c39 0 53 40 53 118v10c0 71 -14 106 -44 106zM798 144v71h-18c-43 0 -62 -17 -62 -56v-41
c0 -44 12 -55 33 -55c34 0 47 28 47 81z" />
    <glyph glyph-name="Korea1.658" unicode="&#x33ac;" vert-adv-y="1105" 
d="M374 -26v721h140c115 0 143 -73 146 -183c32 21 67 27 113 27c106 0 128 -81 128 -164v-401h-98v26c-15 -19 -33 -34 -82 -34c-78 0 -109 79 -109 146v50c0 93 54 146 141 146h45v57c0 59 -16 67 -43 67c-28 0 -54 -13 -74 -35l-22 27c-6 -102 -39 -173 -141 -173h-38
v-277h-106zM211 706c71 0 107 -19 148 -62l-70 -74c-20 21 -44 35 -72 35c-58 0 -94 -56 -94 -239v-82c0 -138 17 -219 79 -219c20 0 30 3 40 11v192h-67v106h176v-357c-31 -32 -72 -54 -145 -54c-114 0 -192 72 -192 287v149c0 205 63 307 197 307zM512 590h-32v-234h23
c39 0 53 40 53 118v10c0 71 -14 106 -44 106zM798 144v71h-18c-43 0 -62 -17 -62 -56v-41c0 -44 12 -55 33 -55c34 0 47 28 47 81z" />
    <glyph glyph-name="Korea1.659" unicode="&#x33dd;" horiz-adv-x="912" vert-adv-y="1105" 
d="M621 696v-207c26 33 57 50 116 50c126 0 160 -86 160 -239v-91c0 -166 -41 -243 -183 -243c-43 0 -81 21 -96 38v-30h-116v627l-74 -627h-124l-46 562l-55 -562h-127l-76 721h110l32 -545s1 1 49 545h133c44 -544 45 -545 45 -545l36 545h97v1h119zM781 225v57
c0 116 -16 147 -82 147c-61 0 -75 -58 -75 -133v-114c0 -74 17 -106 75 -106c65 0 82 31 82 149z" />
    <glyph glyph-name="Korea1.660" unicode="&#x33d0;" vert-adv-y="1105" 
d="M246 695v-721h-126v721h126zM313 -26v555h110v-22c12 20 33 32 74 32c52 0 79 -23 94 -50c17 27 47 50 93 50c84 0 127 -51 127 -147v-418h-120v401c0 53 -8 72 -31 72c-30 0 -38 -29 -38 -75v-398h-120v406c0 51 -8 67 -32 67c-25 0 -37 -19 -37 -71v-402h-120z" />
    <glyph glyph-name="Korea1.661" unicode="&#x33d3;" vert-adv-y="1105" 
d="M294 695v-721h-126v721h126zM793 529l-155 -265l160 -290h-136l-103 193l-101 -193h-133l163 285l-156 270h139l96 -184l98 184h128z" />
    <glyph glyph-name="Korea1.662" unicode="&#x33c3;" vert-adv-y="1105" 
d="M49 -26v721h183c121 0 190 -62 190 -178v-21c0 -68 -40 -133 -120 -145c81 -4 146 -60 146 -157v-25c0 -126 -52 -195 -214 -195h-185zM170 303v-227h49c57 0 106 23 106 96v22c0 74 -28 109 -124 109h-31zM191 594h-21v-196h30c60 0 100 22 100 98v18
c0 61 -34 80 -109 80zM752 -240v240c-16 -23 -52 -34 -98 -34c-123 0 -192 82 -192 239v99c0 151 73 235 191 235c59 0 91 -17 106 -37v27h116v-769h-123zM584 294v-79c0 -97 35 -151 85 -151c56 0 86 36 86 113v160c0 55 -25 106 -86 106c-58 0 -85 -53 -85 -149z" />
    <glyph glyph-name="Korea1.663" unicode="&#x33c9;" horiz-adv-x="913" vert-adv-y="1105" 
d="M286 706c81 0 134 -17 188 -66l-69 -80c-38 35 -83 38 -107 38c-99 0 -134 -49 -134 -232v-74c0 -138 30 -222 146 -222c24 0 45 10 53 21v184h-93v108h214v-355c-32 -34 -86 -65 -177 -65c-202 0 -262 88 -262 303v129c0 216 88 311 241 311zM446 529h129l97 -397h4
l104 397h132l-261 -784l-106 34l64 188z" />
    <glyph glyph-name="Korea1.664" unicode="&#x33dc;" horiz-adv-x="923" vert-adv-y="1105" 
d="M268 79c72 0 109 33 109 74v17c0 45 -18 74 -120 108c-133 44 -214 79 -214 219v19c0 101 54 190 224 190c82 0 150 -26 206 -69l-61 -97c-44 32 -85 52 -143 52c-74 0 -99 -35 -99 -81v-11c0 -37 26 -72 121 -104c179 -61 214 -112 214 -219v-27
c0 -131 -76 -187 -246 -187c-99 0 -179 32 -229 74l64 103c47 -36 108 -61 174 -61zM776 -26h-170l-148 555h136l96 -439h2l99 439h132z" />
    <glyph glyph-name="Korea1.665" unicode="&#x33c6;" horiz-adv-x="914" vert-adv-y="1105" 
d="M321 759h84l-14 -64h92v-378l90 212h97l-101 -207l80 -348h-96l-49 234l-21 -51v-183h-100v683l-170 -782h-83l94 439c-18 -10 -40 -16 -69 -16c-114 0 -147 68 -147 204v78c0 148 50 206 146 206c70 0 105 -29 125 -66l-68 -62c-13 23 -29 34 -54 34
c-26 0 -48 -25 -48 -117v-70c0 -84 13 -109 48 -109c29 0 46 13 59 33l28 -24zM764 -139c25 0 41 25 41 66v74c-12 -14 -29 -23 -48 -23c-105 0 -123 95 -123 199v129c0 133 13 233 119 233c29 0 53 -15 63 -32v22h95v-597c0 -136 -62 -181 -154 -181c-51 0 -108 37 -133 62
l67 91c21 -25 45 -43 73 -43zM739 280v-63c0 -92 6 -145 39 -145c21 0 29 31 29 116v142c0 70 -5 113 -31 113c-28 0 -37 -74 -37 -163z" />
    <glyph glyph-name="Korea1.666" unicode="&#xc6;" horiz-adv-x="963" vert-adv-y="1105" 
d="M924 695v-106h-320v-194h299v-104h-299v-211h327v-106h-454v200h-214l-122 -200h-143l448 721h478zM418 429l-89 -146h148v265c-13 -39 -28 -68 -59 -119z" />
    <glyph glyph-name="Korea1.667" unicode="&#xd0;" horiz-adv-x="716" vert-adv-y="1105" 
d="M12 306v81h85v308h251c214 0 313 -110 313 -309v-103c0 -199 -87 -309 -311 -309h-253v332h-85zM224 587v-200h210v-81h-210v-224h107c129 0 201 54 201 206v93c0 152 -68 206 -201 206h-107z" />
    <glyph glyph-name="Korea1.668" unicode="&#xaa;" horiz-adv-x="471" vert-adv-y="1105" 
d="M198 279c-97 0 -150 43 -150 119v28c0 79 46 134 167 134h94v9c0 49 -17 68 -74 68c-46 0 -87 -21 -119 -44l-55 82c44 29 100 58 173 58c108 0 185 -48 185 -143v-306h-105v49c-10 -36 -54 -54 -116 -54zM309 451v17h-93c-47 0 -60 -18 -60 -46v-11c0 -25 15 -39 50 -39
c74 0 103 24 103 79z" />
    <glyph glyph-name="Korea1.669" unicode="&#x126;" horiz-adv-x="717" vert-adv-y="1105" 
d="M508 -26v299h-299v-299h-128v508h-70v81h70v132h128v-132h299v132h128v-132h70v-81h-70v-508h-128zM209 377h299v105h-299v-105z" />
    <glyph glyph-name="Korea1.670" unicode="&#x132;" horiz-adv-x="781" vert-adv-y="1105" 
d="M573 210v485h128v-516c0 -160 -86 -216 -226 -216c-60 0 -126 22 -173 63l59 98c42 -32 70 -44 116 -44c63 0 96 31 96 130zM81 -26v721h128v-721h-128z" />
    <glyph glyph-name="Korea1.671" unicode="&#x13f;" horiz-adv-x="558" vert-adv-y="1105" 
d="M81 695h128v-613h329v-108h-457v721zM363 311v130h127v-130h-127z" />
    <glyph glyph-name="Korea1.672" unicode="&#x141;" horiz-adv-x="611" vert-adv-y="1105" 
d="M134 695h128v-302l148 84l34 -63l-182 -104v-228h329v-108h-457v264l-90 -52l-34 63l124 70v376z" />
    <glyph glyph-name="Korea1.673" unicode="&#xd8;" horiz-adv-x="820" vert-adv-y="1105" 
d="M139 -37l-63 50l63 74c-29 47 -46 108 -46 188v119c0 223 142 312 305 312c80 0 154 -21 208 -68l58 70l63 -50l-69 -82c29 -45 45 -106 45 -182v-119c0 -227 -139 -312 -305 -312c-79 0 -151 19 -205 63zM398 589c-96 0 -176 -45 -176 -211v-87c0 -38 5 -67 10 -94
l293 347c-31 34 -78 45 -127 45zM398 80c98 0 176 45 176 211v87c0 36 -3 64 -10 88l-290 -342c32 -32 76 -44 124 -44z" />
    <glyph glyph-name="Korea1.674" unicode="&#x152;" horiz-adv-x="991" vert-adv-y="1105" 
d="M928 695v-106h-320v-194h299v-104h-299v-211h327v-106h-579c-195 0 -301 102 -301 303v115c0 201 114 303 301 303h572zM374 88h107v495h-107c-97 0 -190 -43 -190 -195v-107c0 -152 91 -193 190 -193z" />
    <glyph glyph-name="Korea1.675" unicode="&#xba;" horiz-adv-x="499" vert-adv-y="1105" 
d="M250 731c126 0 209 -73 209 -199v-56c0 -128 -83 -199 -209 -199s-210 71 -210 199v56c0 127 84 199 210 199zM250 376c67 0 97 37 97 109v38c0 73 -30 109 -97 109c-68 0 -99 -36 -99 -109v-38c0 -72 31 -109 99 -109z" />
    <glyph glyph-name="Korea1.676" unicode="&#xde;" horiz-adv-x="636" vert-adv-y="1105" 
d="M81 -26v721h128v-128h144c173 0 247 -90 247 -208v-21c0 -125 -84 -225 -247 -225h-144v-139h-128zM347 458h-138v-236h127c97 0 136 46 136 118v18c0 63 -33 100 -125 100z" />
    <glyph glyph-name="Korea1.677" unicode="&#x166;" horiz-adv-x="571" vert-adv-y="1105" 
d="M10 695h551v-108h-211v-208h136v-81h-136v-324h-128v324h-130v81h130v208h-212v108z" />
    <glyph glyph-name="Korea1.678" unicode="&#x14a;" horiz-adv-x="721" vert-adv-y="1105" 
d="M81 -26v721h145l246 -422c20 -34 47 -75 51 -110v532h117v-772c0 -123 -73 -172 -180 -172c-41 0 -82 7 -105 15l20 102c30 -8 59 -10 83 -10c43 0 65 17 65 70v41l-294 487c-16 27 -27 51 -31 74v-556h-117z" />
    <glyph glyph-name="Korea1.679" unicode="&#x3260;" vert-adv-y="1105" 
d="M824 306c0 216 -155 373 -369 373s-369 -157 -369 -373s155 -373 369 -373s369 157 369 373zM896 306c0 -256 -188 -442 -441 -442c-256 0 -441 186 -441 442c0 253 185 442 441 442c253 0 441 -189 441 -442zM664 60h-104v350h-349v91h453v-441z" />
    <glyph glyph-name="Korea1.680" unicode="&#x3261;" vert-adv-y="1105" 
d="M256 530h104v-333h345v-91h-449v424zM824 306c0 216 -155 373 -369 373s-369 -157 -369 -373s155 -373 369 -373s369 157 369 373zM896 306c0 -256 -188 -442 -441 -442c-256 0 -441 186 -441 442c0 253 185 442 441 442c253 0 441 -189 441 -442z" />
    <glyph glyph-name="Korea1.681" unicode="&#x3262;" vert-adv-y="1105" 
d="M683 87h-443v436h433v-91h-330v-254h340v-91zM824 306c0 216 -155 373 -369 373s-369 -157 -369 -373s155 -373 369 -373s369 157 369 373zM896 306c0 -256 -188 -442 -441 -442c-256 0 -441 186 -441 442c0 253 185 442 441 442c253 0 441 -189 441 -442z" />
    <glyph glyph-name="Korea1.682" unicode="&#x3263;" vert-adv-y="1105" 
d="M687 75h-447v276h330v92h-330v90h432v-272h-330v-96h345v-90zM824 306c0 216 -155 373 -369 373s-369 -157 -369 -373s155 -373 369 -373s369 157 369 373zM896 306c0 -256 -188 -442 -441 -442c-256 0 -441 186 -441 442c0 253 185 442 441 442c253 0 441 -189 441 -442
z" />
    <glyph glyph-name="Korea1.683" unicode="&#x3264;" vert-adv-y="1105" 
d="M679 86h-448v436h448v-436zM576 177v254h-242v-254h242zM824 306c0 216 -155 373 -369 373s-369 -157 -369 -373s155 -373 369 -373s369 157 369 373zM896 306c0 -256 -188 -442 -441 -442c-256 0 -441 186 -441 442c0 253 185 442 441 442c253 0 441 -189 441 -442z" />
    <glyph glyph-name="Korea1.684" unicode="&#x3265;" vert-adv-y="1105" 
d="M673 85h-438v442h103v-135h232v135h103v-442zM570 176v125h-232v-125h232zM824 306c0 216 -155 373 -369 373s-369 -157 -369 -373s155 -373 369 -373s369 157 369 373zM896 306c0 -256 -188 -442 -441 -442c-256 0 -441 186 -441 442c0 253 185 442 441 442
c253 0 441 -189 441 -442z" />
    <glyph glyph-name="Korea1.685" unicode="&#x3266;" vert-adv-y="1105" 
d="M824 306c0 216 -155 373 -369 373s-369 -157 -369 -373s155 -373 369 -373s369 157 369 373zM896 306c0 -256 -188 -442 -441 -442c-256 0 -441 186 -441 442c0 253 185 442 441 442c253 0 441 -189 441 -442zM455 293h-1c-5 -13 -28 -37 -82 -87
c-45 -42 -89 -81 -131 -115l-65 77c53 43 100 84 145 127c66 63 79 98 79 173v91h107v-91c0 -75 13 -110 79 -173c45 -43 92 -84 145 -127l-63 -75c-42 34 -86 73 -131 115c-54 50 -77 73 -82 85z" />
    <glyph glyph-name="Korea1.686" unicode="&#x3267;" vert-adv-y="1105" 
d="M824 306c0 216 -155 373 -369 373s-369 -157 -369 -373s155 -373 369 -373s369 157 369 373zM896 306c0 -256 -188 -442 -441 -442c-256 0 -441 186 -441 442c0 253 185 442 441 442c253 0 441 -189 441 -442zM455 80c-150 0 -235 85 -235 203v48c0 118 85 203 235 203
s235 -85 235 -203v-48c0 -118 -85 -203 -235 -203zM455 443c-96 0 -130 -50 -130 -117v-38c0 -67 34 -117 130 -117s130 50 130 117v38c0 67 -34 117 -130 117z" />
    <glyph glyph-name="Korea1.687" unicode="&#x3268;" vert-adv-y="1105" 
d="M896 306c0 -256 -188 -442 -441 -442c-256 0 -441 186 -441 442c0 253 185 442 441 442c253 0 441 -189 441 -442zM824 306c0 216 -155 373 -369 373s-369 -157 -369 -373s155 -373 369 -373s369 157 369 373zM695 430h-185v-17c0 -84 16 -111 204 -243l-60 -79
c-137 105 -188 150 -196 168c-8 -19 -57 -61 -198 -170l-62 81c187 131 204 159 204 242v18h-185v91h478v-91z" />
    <glyph glyph-name="Korea1.688" unicode="&#x3269;" vert-adv-y="1105" 
d="M896 306c0 -256 -188 -442 -441 -442c-256 0 -441 186 -441 442c0 253 185 442 441 442c253 0 441 -189 441 -442zM824 306c0 216 -155 373 -369 373s-369 -157 -369 -373s155 -373 369 -373s369 157 369 373zM702 395h-192c0 -84 12 -109 200 -241l-60 -77
c-138 105 -184 147 -192 165c-8 -19 -52 -58 -194 -167l-62 79c187 131 200 157 200 240v1h-192v91h192v92h108v-92h192v-91z" />
    <glyph glyph-name="Korea1.689" unicode="&#x326a;" vert-adv-y="1105" 
d="M684 73h-103v165l-364 -11l-2 91l366 8v104h-357v91h460v-448zM824 306c0 216 -155 373 -369 373s-369 -157 -369 -373s155 -373 369 -373s369 157 369 373zM896 306c0 -256 -188 -442 -441 -442c-256 0 -441 186 -441 442c0 253 185 442 441 442
c253 0 441 -189 441 -442z" />
    <glyph glyph-name="Korea1.690" unicode="&#x326b;" vert-adv-y="1105" 
d="M684 179v-90h-449v432h445v-90h-343v-78h335v-87h-335v-87h347zM824 306c0 216 -155 373 -369 373s-369 -157 -369 -373s155 -373 369 -373s369 157 369 373zM896 306c0 -256 -188 -442 -441 -442c-256 0 -441 186 -441 442c0 253 185 442 441 442
c253 0 441 -189 441 -442z" />
    <glyph glyph-name="Korea1.691" unicode="&#x326c;" vert-adv-y="1105" 
d="M200 514h510v-90h-89v-242h97v-90h-526v90h99v242h-91v90zM394 424v-242h124v242h-124zM824 306c0 216 -155 373 -369 373s-369 -157 -369 -373s155 -373 369 -373s369 157 369 373zM896 306c0 -256 -188 -442 -441 -442c-256 0 -441 186 -441 442c0 253 185 442 441 442
c253 0 441 -189 441 -442z" />
    <glyph glyph-name="Korea1.692" unicode="&#x326d;" vert-adv-y="1105" 
d="M455 55c-148 0 -221 67 -221 145v24c0 78 73 145 221 145s221 -67 221 -145v-24c0 -78 -73 -145 -221 -145zM510 576v-90h198v-91h-506v91h200v90h108zM455 280c-74 0 -118 -31 -118 -60v-16c0 -29 44 -60 118 -60s117 31 117 60v16c0 29 -43 60 -117 60zM824 306
c0 216 -155 373 -369 373s-369 -157 -369 -373s155 -373 369 -373s369 157 369 373zM896 306c0 -256 -188 -442 -441 -442c-256 0 -441 186 -441 442c0 253 185 442 441 442c253 0 441 -189 441 -442z" />
    <glyph glyph-name="Korea1.693" unicode="&#x326e;" vert-adv-y="1105" 
d="M652 584v-202h79v-77h-79v-291h-88v570h88zM251 123l-49 69c203 127 201 144 201 213v55h-180v77h267v-124c0 -117 1 -133 -239 -290zM824 306c0 216 -155 373 -369 373s-369 -157 -369 -373s155 -373 369 -373s369 157 369 373zM896 306c0 -256 -188 -442 -441 -442
c-256 0 -441 186 -441 442c0 253 185 442 441 442c253 0 441 -189 441 -442z" />
    <glyph glyph-name="Korea1.694" unicode="&#x326f;" vert-adv-y="1105" 
d="M652 584v-199h79v-77h-79v-294h-88v570h88zM311 539v-301h31c66 0 131 5 186 17l11 -73c-57 -14 -133 -20 -225 -20h-91v377h88zM824 306c0 216 -155 373 -369 373s-369 -157 -369 -373s155 -373 369 -373s369 157 369 373zM896 306c0 -256 -188 -442 -441 -442
c-256 0 -441 186 -441 442c0 253 185 442 441 442c253 0 441 -189 441 -442z" />
    <glyph glyph-name="Korea1.695" unicode="&#x3270;" vert-adv-y="1105" 
d="M652 584v-199h79v-77h-79v-294h-88v570h88zM824 306c0 216 -155 373 -369 373s-369 -157 -369 -373s155 -373 369 -373s369 157 369 373zM896 306c0 -256 -188 -442 -441 -442c-256 0 -441 186 -441 442c0 253 185 442 441 442c253 0 441 -189 441 -442zM219 536h267v-74
h-180v-227h36c66 0 131 5 186 17l11 -73c-57 -14 -133 -20 -225 -20h-95v377z" />
    <glyph glyph-name="Korea1.696" unicode="&#x3271;" vert-adv-y="1105" 
d="M309 312v-93h10c81 0 144 4 207 12l9 -72c-68 -10 -139 -13 -237 -13h-76v237h178v85h-182v74h269v-230h-178zM652 584v-203h79v-77h-79v-290h-88v570h88zM824 306c0 216 -155 373 -369 373s-369 -157 -369 -373s155 -373 369 -373s369 157 369 373zM896 306
c0 -256 -188 -442 -441 -442c-256 0 -441 186 -441 442c0 253 185 442 441 442c253 0 441 -189 441 -442z" />
    <glyph glyph-name="Korea1.697" unicode="&#x3272;" vert-adv-y="1105" 
d="M219 538h285v-378h-285v378zM417 234v230h-111v-230h111zM652 584v-195h79v-77h-79v-298h-88v570h88zM824 306c0 216 -155 373 -369 373s-369 -157 -369 -373s155 -373 369 -373s369 157 369 373zM896 306c0 -256 -188 -442 -441 -442c-256 0 -441 186 -441 442
c0 253 185 442 441 442c253 0 441 -189 441 -442z" />
    <glyph glyph-name="Korea1.698" unicode="&#x3273;" vert-adv-y="1105" 
d="M504 541v-381h-285v381h87v-125h111v125h87zM652 584v-194h79v-77h-79v-299h-88v570h88zM306 342v-109h111v109h-111zM824 306c0 216 -155 373 -369 373s-369 -157 -369 -373s155 -373 369 -373s369 157 369 373zM896 306c0 -256 -188 -442 -441 -442
c-256 0 -441 186 -441 442c0 253 185 442 441 442c253 0 441 -189 441 -442z" />
    <glyph glyph-name="Korea1.699" unicode="&#x3274;" vert-adv-y="1105" 
d="M652 584v-194h79v-77h-79v-299h-88v570h88zM824 306c0 216 -155 373 -369 373s-369 -157 -369 -373s155 -373 369 -373s369 157 369 373zM896 306c0 -256 -188 -442 -441 -442c-256 0 -441 186 -441 442c0 253 185 442 441 442c253 0 441 -189 441 -442zM411 546v-137
c0 -42 1 -66 55 -122c30 -31 54 -53 80 -76l-54 -60c-32 29 -61 57 -89 86c-18 19 -31 33 -35 42c-3 -9 -21 -28 -36 -44c-36 -39 -60 -61 -91 -90l-58 60c36 34 71 68 99 101c30 35 39 58 39 103v137h90z" />
    <glyph glyph-name="Korea1.700" unicode="&#x3275;" vert-adv-y="1105" 
d="M507 384v-76c0 -117 -72 -166 -150 -166c-77 0 -151 49 -151 166v74c0 120 74 170 151 170c78 0 150 -49 150 -168zM424 322v49c0 75 -24 104 -67 104c-42 0 -68 -29 -68 -104v-49c0 -76 26 -103 68 -103c43 0 67 27 67 103zM652 584v-193h79v-77h-79v-300h-88v570h88z
M824 306c0 216 -155 373 -369 373s-369 -157 -369 -373s155 -373 369 -373s369 157 369 373zM896 306c0 -256 -188 -442 -441 -442c-256 0 -441 186 -441 442c0 253 185 442 441 442c253 0 441 -189 441 -442z" />
    <glyph glyph-name="Korea1.701" unicode="&#x3276;" vert-adv-y="1105" 
d="M652 584v-200h79v-77h-79v-293h-88v570h88zM824 306c0 216 -155 373 -369 373s-369 -157 -369 -373s155 -373 369 -373s369 157 369 373zM896 306c0 -256 -188 -442 -441 -442c-256 0 -441 186 -441 442c0 253 185 442 441 442c253 0 441 -189 441 -442zM518 461h-107
v-60c0 -42 1 -66 55 -122c30 -31 52 -51 78 -74l-54 -60c-32 29 -59 55 -87 84c-18 19 -31 33 -35 42c-3 -9 -21 -28 -36 -44c-36 -39 -58 -59 -89 -88l-58 60c36 34 69 66 97 99c30 35 39 58 39 103v60h-111v77h308v-77z" />
    <glyph glyph-name="Korea1.702" unicode="&#x3277;" vert-adv-y="1105" 
d="M896 306c0 -256 -188 -442 -441 -442c-256 0 -441 186 -441 442c0 253 185 442 441 442c253 0 441 -189 441 -442zM824 306c0 216 -155 373 -369 373s-369 -157 -369 -373s155 -373 369 -373s369 157 369 373zM522 429h-112v-33c0 -42 2 -66 56 -122
c30 -31 49 -48 75 -71l-54 -59c-32 29 -56 52 -84 81c-18 19 -31 33 -35 42c-3 -9 -21 -28 -36 -44c-36 -39 -55 -56 -86 -85l-58 59c36 34 66 63 94 96c30 35 40 58 40 103v33h-116v74h116v80h88v-80h112v-74zM652 584v-202h79v-77h-79v-291h-88v570h88z" />
    <glyph glyph-name="Korea1.703" unicode="&#x3278;" vert-adv-y="1105" 
d="M896 306c0 -256 -188 -442 -441 -442c-256 0 -441 186 -441 442c0 253 185 442 441 442c253 0 441 -189 441 -442zM824 306c0 216 -155 373 -369 373s-369 -157 -369 -373s155 -373 369 -373s369 157 369 373zM269 119l-45 71c116 64 162 102 180 135l-181 -7l-4 75
l196 4v63h-182v77h267v-124c0 -117 17 -150 -231 -294zM652 584v-201h79v-77h-79v-292h-88v570h88z" />
    <glyph glyph-name="Korea1.704" unicode="&#x3279;" vert-adv-y="1105" 
d="M652 584v-199h79v-77h-79v-294h-88v570h88zM824 306c0 216 -155 373 -369 373s-369 -157 -369 -373s155 -373 369 -373s369 157 369 373zM896 306c0 -256 -188 -442 -441 -442c-256 0 -441 186 -441 442c0 253 185 442 441 442c253 0 441 -189 441 -442zM221 542h266v-74
h-179v-80h168v-71h-168v-92h15c81 0 144 4 207 12l9 -72c-68 -10 -139 -13 -237 -13h-81v390z" />
    <glyph glyph-name="Korea1.705" unicode="&#x327a;" vert-adv-y="1105" 
d="M526 536v-73h-44v-226c6 0 33 2 53 4l6 -71c-53 -7 -114 -10 -228 -10h-125v73h62v230h-54v73h330zM336 463v-230c26 0 43 0 59 1v229h-59zM652 584v-194h79v-77h-79v-299h-88v570h88zM824 306c0 216 -155 373 -369 373s-369 -157 -369 -373s155 -373 369 -373
s369 157 369 373zM896 306c0 -256 -188 -442 -441 -442c-256 0 -441 186 -441 442c0 253 185 442 441 442c253 0 441 -189 441 -442z" />
    <glyph glyph-name="Korea1.706" unicode="&#x327b;" vert-adv-y="1105" 
d="M896 306c0 -256 -188 -442 -441 -442c-256 0 -441 186 -441 442c0 253 185 442 441 442c253 0 441 -189 441 -442zM824 306c0 216 -155 373 -369 373s-369 -157 -369 -373s155 -373 369 -373s369 157 369 373zM366 129c-89 0 -145 59 -145 124v40c0 64 56 123 145 123
c88 0 146 -59 146 -123v-40c0 -65 -58 -124 -146 -124zM652 584v-215h79v-77h-79v-278h-88v570h88zM204 512h118v72h88v-72h122v-74h-328v74zM366 341c-46 0 -62 -28 -62 -60v-17c0 -33 16 -60 62 -60c45 0 63 27 63 60v17c0 32 -18 60 -63 60z" />
    <glyph glyph-name="Korea1.707" unicode="&#x24d0;" vert-adv-y="1105" 
d="M418 100c-74 0 -140 32 -140 116v21c0 88 52 128 157 128h85v4c0 51 -15 62 -65 62c-46 0 -82 -18 -111 -39l-51 76c40 29 93 55 164 55c95 0 167 -45 167 -133v-284h-97v47c-15 -36 -43 -53 -109 -53zM520 275h-83c-42 0 -56 -12 -56 -46v-9c0 -18 22 -29 46 -29
c82 0 93 30 93 84zM824 306c0 216 -155 373 -369 373s-369 -157 -369 -373s155 -373 369 -373s369 157 369 373zM896 306c0 -256 -188 -442 -441 -442c-256 0 -441 186 -441 442c0 253 185 442 441 442c253 0 441 -189 441 -442z" />
    </font>
</defs>
</svg>
