<svg width="17" height="16" viewBox="0 0 17 16" fill="none" xmlns="http://www.w3.org/2000/svg">
<g clip-path="url(#clip0_7921_414)">
<path fill-rule="evenodd" clip-rule="evenodd" d="M9.07085 7.52849C9.3312 7.78884 9.3312 8.21095 9.07085 8.4713L4.40418 13.138C4.14383 13.3983 3.72172 13.3983 3.46137 13.138C3.20102 12.8776 3.20102 12.4555 3.46137 12.1952L7.65664 7.9999L3.46137 3.80464C3.20102 3.54429 3.20102 3.12218 3.46137 2.86183C3.72172 2.60148 4.14383 2.60148 4.40418 2.86183L9.07085 7.52849Z" fill="#333333"/>
<path fill-rule="evenodd" clip-rule="evenodd" d="M13.0709 7.52849C13.3312 7.78884 13.3312 8.21095 13.0709 8.4713L8.40418 13.138C8.14383 13.3983 7.72172 13.3983 7.46137 13.138C7.20102 12.8776 7.20102 12.4555 7.46137 12.1952L11.6566 7.9999L7.46137 3.80464C7.20102 3.54429 7.20102 3.12218 7.46137 2.86183C7.72172 2.60148 8.14383 2.60148 8.40418 2.86183L13.0709 7.52849Z" fill="#1A1A1A"/>
</g>
<defs>
<clipPath id="clip0_7921_414">
<rect width="16" height="16" fill="white" transform="translate(0.266113)"/>
</clipPath>
</defs>
</svg>
