<svg width="33" height="32" viewBox="0 0 33 32" fill="none" xmlns="http://www.w3.org/2000/svg">
<path d="M28.6668 16.0013C28.6668 22.6287 23.2942 28.0013 16.6668 28.0013C10.0394 28.0013 4.66683 22.6287 4.66683 16.0013C4.66683 9.37388 10.0394 4.0013 16.6668 4.0013C23.2942 4.0013 28.6668 9.37388 28.6668 16.0013Z" fill="#232EA3"/>
<path fill-rule="evenodd" clip-rule="evenodd" d="M16.6668 5.33464C10.7758 5.33464 6.00016 10.1103 6.00016 16.0013C6.00016 21.8923 10.7758 26.668 16.6668 26.668C22.5579 26.668 27.3335 21.8923 27.3335 16.0013C27.3335 10.1103 22.5579 5.33464 16.6668 5.33464ZM3.3335 16.0013C3.3335 8.63751 9.30303 2.66797 16.6668 2.66797C24.0306 2.66797 30.0002 8.63751 30.0002 16.0013C30.0002 23.3651 24.0306 29.3346 16.6668 29.3346C9.30303 29.3346 3.3335 23.3651 3.3335 16.0013Z" fill="#232EA3"/>
<path fill-rule="evenodd" clip-rule="evenodd" d="M24.0541 12.0585C24.5748 12.5792 24.5748 13.4234 24.0541 13.9441L16.0541 21.9441C15.804 22.1942 15.4649 22.3346 15.1113 22.3346C14.7577 22.3346 14.4185 22.1942 14.1685 21.9441L9.72402 17.4997C9.20332 16.979 9.20332 16.1347 9.72402 15.614C10.2447 15.0933 11.0889 15.0933 11.6096 15.614L15.1113 19.1157L22.1685 12.0585C22.6892 11.5378 23.5334 11.5378 24.0541 12.0585Z" fill="white"/>
</svg>
