<svg width="100" height="100" viewBox="0 0 100 100" fill="none" xmlns="http://www.w3.org/2000/svg">
<rect width="100" height="100" rx="4.44444" fill="url(#paint0_radial_871_33700)" fill-opacity="0.2"/>
<path d="M5.55566 49.9961H94.4446" stroke="black" stroke-width="1.11111" stroke-linecap="round" stroke-dasharray="2.37 2.37"/>
<rect x="24.4813" y="14.997" width="51.037" height="70" rx="3.88889" fill="white" stroke="#1A1A1A" stroke-width="1.11111"/>
<path d="M86.1582 18.8819C86.1582 16.4273 88.148 14.4375 90.6026 14.4375H100.001V85.5486H90.6026C88.148 85.5486 86.1582 83.5588 86.1582 81.1042V18.8819Z" fill="#F9F9F9"/>
<path d="M100.001 14.4375H90.2974C87.6791 14.4375 85.5566 16.56 85.5566 19.1782V80.8079C85.5566 83.4261 87.6791 85.5486 90.2974 85.5486H100.001" stroke="#1A1A1A" stroke-width="1.11111"/>
<path d="M13.8418 80.81C13.8418 83.4283 11.7193 85.5508 9.10106 85.5508L-0.000799179 85.5508L-0.000792962 14.4397L9.10106 14.4397C11.7193 14.4397 13.8418 16.5622 13.8418 19.1804L13.8418 80.81Z" fill="#F9F9F9"/>
<path d="M-0.00108862 85.5508L9.99891 85.5508C12.4535 85.5508 14.4434 83.5609 14.4434 81.1063L14.4434 18.8841C14.4434 16.4295 12.4535 14.4397 9.99892 14.4397L-0.0010824 14.4397" stroke="#1A1A1A" stroke-width="1.11111"/>
<path d="M31.0381 26.8867H55.927" stroke="#CCCCCC" stroke-width="2.37037" stroke-linecap="round"/>
<path d="M31.6299 32.8125L55.9262 32.8125" stroke="#E3E3E3" stroke-width="2.37037" stroke-linecap="round"/>
<path d="M31.6299 52.9609L68.3706 52.9609" stroke="#E3E3E3" stroke-width="2.37037" stroke-linecap="round"/>
<path d="M31.6299 60.0703L68.3706 60.0703" stroke="#E3E3E3" stroke-width="2.37037" stroke-linecap="round"/>
<path d="M31.6299 67.1836L68.3706 67.1836" stroke="#E3E3E3" stroke-width="2.37037" stroke-linecap="round"/>
<circle cx="64.2222" cy="29.8501" r="4.74074" fill="#FFDC5C"/>
<path d="M62.2379 72.259C62.2199 73.1511 62.0641 74.0029 61.8077 74.8586C61.6239 75.4719 61.4123 76.0902 61.0861 76.6447C60.8316 77.077 60.6102 77.3672 60.2345 77.7002C60.0277 77.8834 59.574 78.334 59.4927 78.0699C59.4491 77.9281 59.5534 77.7738 59.6294 77.6464C59.9714 77.0732 60.6937 76.2587 61.1354 75.8043C61.8634 75.0554 62.7807 74.5116 63.4839 73.7471C63.7075 73.504 64.3224 72.8135 64.1674 72.4002C64.1388 72.3238 64.0461 72.5139 64.0083 72.5862C63.8141 72.9577 63.6426 73.3954 63.6229 73.8188C63.5777 74.7865 64.767 74.0716 65.1109 73.7717C65.4219 73.5004 65.6735 73.1744 65.8818 72.8193C65.9693 72.6701 66.3013 72.178 66.2628 71.9722C66.2501 71.9048 66.1778 72.0806 66.144 72.1403C65.9577 72.4693 65.9489 72.8522 65.9938 73.2204C66.0203 73.4369 66.076 73.9284 66.3748 73.9891C66.6876 74.0526 67.0768 73.6967 67.2757 73.5207C67.3268 73.4755 68.0531 72.8088 67.8046 72.6535C67.7169 72.5986 67.6589 73.0982 67.6656 73.1122C67.799 73.3884 67.9239 73.4437 67.8359 73.7246C67.8149 73.792 67.7316 74.1446 67.6656 74.1885C67.5746 74.2492 67.7944 73.9979 67.8942 73.9532C68.0138 73.8997 68.1273 73.9435 68.2438 73.9824C68.5284 74.0772 68.7893 74.1429 69.0931 74.1258" stroke="#999999" stroke-width="0.372757" stroke-linecap="round"/>
<circle cx="62.2479" cy="71.5741" r="0.242027" fill="#999999"/>
<path opacity="0.1" d="M67.7782 49.9965C67.7782 59.8149 59.8188 67.7743 50.0004 67.7743C40.182 67.7743 32.2227 59.8149 32.2227 49.9965C32.2227 40.1781 40.182 32.2188 50.0004 32.2188C59.8188 32.2188 67.7782 40.1781 67.7782 49.9965Z" fill="#5ACA6F"/>
<circle opacity="0.2" cx="50.0004" cy="49.9984" r="14.8148" fill="#5ACA6F"/>
<circle cx="50.0003" cy="49.9964" r="11.8519" fill="#5ACA6F"/>
<path d="M56.3991 46.0319L55.0971 47.334C50.912 43.1489 48.308 45.0089 46.541 46.0319C48.9218 44.6927 51.7491 47.83 52.8651 49.566L51.2841 51.147L56.3061 51.147L56.3991 46.0319Z" fill="white"/>
<path d="M42.8869 52.8449L44.4815 51.9242C47.4408 57.0499 50.4375 55.9272 52.4091 55.3964C49.7628 56.0738 47.8439 52.3117 47.2152 50.346L49.1516 49.228L44.3006 47.9282L42.8869 52.8449Z" fill="white"/>
<defs>
<radialGradient id="paint0_radial_871_33700" cx="0" cy="0" r="1" gradientUnits="userSpaceOnUse" gradientTransform="translate(50 50) rotate(90) scale(50)">
<stop offset="0.6" stop-color="#5ACA6F"/>
<stop offset="1" stop-color="white" stop-opacity="0"/>
</radialGradient>
</defs>
</svg>
