<svg width="100" height="100" viewBox="0 0 100 100" fill="none" xmlns="http://www.w3.org/2000/svg">
<rect width="100" height="100" rx="4.44444" fill="url(#paint0_radial_870_39976)" fill-opacity="0.2"/>
<path d="M47.9316 14.7344C49.1966 13.9394 50.8053 13.9393 52.0703 14.7344L84.292 34.9854C85.4243 35.697 86.1113 36.9409 86.1113 38.2783V82.2217C86.1113 84.3695 84.3704 86.1104 82.2227 86.1104H17.7783C15.6306 86.1103 13.8896 84.3694 13.8896 82.2217V38.2783C13.8896 36.941 14.5767 35.697 15.709 34.9854L47.9316 14.7344Z" fill="white" stroke="#1A1A1A" stroke-width="1.11111"/>
<path d="M48.334 67.2227H37.2227V56.1123H48.334V67.2227ZM62.7783 67.2227H51.668V56.1123H62.7783V67.2227ZM48.334 52.7793H37.2227V41.668H48.334V52.7793ZM62.7783 52.7793H51.668V41.668H62.7783V52.7793Z" fill="#E3E3E3"/>
<path d="M74.3838 53.209C75.2504 52.0622 76.9733 52.062 77.8398 53.209L79.3389 55.1924C82.3598 59.1909 87.7071 60.6325 92.3281 58.6934C93.3337 58.2713 94.4453 59.01 94.4453 60.1006V67.873C94.4453 79.2932 87.0068 89.3732 76.1113 92.751C65.216 89.3731 57.7783 79.2931 57.7783 67.873V60.1006C57.7783 59.01 58.8889 58.2714 59.8945 58.6934C64.5156 60.6327 69.8638 59.191 72.8848 55.1924L74.3838 53.209Z" fill="white" stroke="#1A1A1A" stroke-width="1.11111"/>
<path d="M60.5566 62.5212C60.5566 61.4393 61.6579 60.7061 62.656 61.1235C66.435 62.7036 70.8043 61.5273 73.2791 58.2635L74.5423 56.5977C75.3307 55.558 76.8937 55.558 77.6821 56.5977L78.9453 58.2635C81.4201 61.5273 85.7894 62.7036 89.5684 61.1235C90.5665 60.7061 91.6678 61.4393 91.6678 62.5212V68.5824C91.6678 78.2302 85.3483 86.7391 76.1122 89.5274C66.8761 86.7391 60.5566 78.2302 60.5566 68.5824V62.5212Z" fill="#21BC73"/>
<path d="M71.9577 81.4453V65.7335H78.1209C81.6908 65.7335 83.7415 67.9362 83.7415 71.0286C83.7415 74.1645 81.6582 76.3238 78.0341 76.3238H75.2129V81.4453H71.9577ZM75.2129 73.6979H77.5132C79.4447 73.6979 80.3887 72.6129 80.3778 71.0286C80.3887 69.4662 79.4447 68.4136 77.5132 68.4028H75.2129V73.6979Z" fill="white"/>
<defs>
<radialGradient id="paint0_radial_870_39976" cx="0" cy="0" r="1" gradientUnits="userSpaceOnUse" gradientTransform="translate(50 50) rotate(90) scale(50)">
<stop offset="0.6" stop-color="#21BC73"/>
<stop offset="1" stop-color="white" stop-opacity="0"/>
</radialGradient>
</defs>
</svg>
