<svg width="101" height="100" viewBox="0 0 101 100" fill="none" xmlns="http://www.w3.org/2000/svg">
<rect x="0.333984" width="100" height="100" rx="4.44444" fill="url(#paint0_radial_871_32508)" fill-opacity="0.2"/>
<path d="M10.3359 35.5557H16.4473V70.5557H10.3359C8.18832 70.5556 6.44744 68.8146 6.44727 66.667V39.4443C6.44733 37.2966 8.18825 35.5557 10.3359 35.5557Z" fill="white" stroke="#1A1A1A" stroke-width="1.11111"/>
<path d="M90.3359 70.5537L84.2246 70.5537L84.2246 35.5537L90.3359 35.5537C92.4836 35.5538 94.2244 37.2948 94.2246 39.4424L94.2246 66.665C94.2246 68.8127 92.4836 70.5537 90.3359 70.5537Z" fill="white" stroke="#1A1A1A" stroke-width="1.11111"/>
<path d="M84.225 71.112V38.3342C84.225 19.6179 69.0525 4.44531 50.3362 4.44531V4.44531C31.6198 4.44531 16.4473 19.6179 16.4473 38.3342V71.112" stroke="#1A1A1A" stroke-width="1.11111"/>
<rect x="19.7802" y="44.4423" width="61.1111" height="29.4444" rx="3.88889" fill="white" stroke="#1A1A1A" stroke-width="1.11111"/>
<rect x="22.001" y="46.6641" width="56.6667" height="25" rx="2.22222" fill="#816DFA"/>
<rect width="16.6667" height="16.6667" transform="translate(42.001 51.1094)" fill="#EBE7FF"/>
<path d="M47.4827 62.4414H46.2761L48.4897 56.1567H49.8786L52.1008 62.4414H50.8942L50.369 60.8876H48.0036L47.4827 62.4414ZM48.3074 59.9761H50.0652L49.2102 57.4414H49.1581L48.3074 59.9761ZM53.9758 56.1567V62.4414H52.8473V56.1567H53.9758Z" fill="black"/>
<mask id="path-8-inside-1_871_32508" fill="white">
<path fill-rule="evenodd" clip-rule="evenodd" d="M28.6705 22.2188C26.2159 22.2188 24.226 24.2086 24.226 26.6632V31.9293L20.9979 36.0613C20.3723 36.862 21.0609 38.0129 22.0622 37.8403L24.226 37.4673V37.7743C24.226 40.2289 26.2159 42.2188 28.6705 42.2188H72.0038C74.4584 42.2188 76.4482 40.2289 76.4482 37.7743V26.6632C76.4482 24.2086 74.4584 22.2188 72.0038 22.2188H28.6705Z"/>
</mask>
<path fill-rule="evenodd" clip-rule="evenodd" d="M28.6705 22.2188C26.2159 22.2188 24.226 24.2086 24.226 26.6632V31.9293L20.9979 36.0613C20.3723 36.862 21.0609 38.0129 22.0622 37.8403L24.226 37.4673V37.7743C24.226 40.2289 26.2159 42.2188 28.6705 42.2188H72.0038C74.4584 42.2188 76.4482 40.2289 76.4482 37.7743V26.6632C76.4482 24.2086 74.4584 22.2188 72.0038 22.2188H28.6705Z" fill="white"/>
<path d="M24.226 31.9293L25.1016 32.6134L25.3371 32.3119V31.9293H24.226ZM20.9979 36.0613L20.1223 35.3772H20.1223L20.9979 36.0613ZM22.0622 37.8403L21.8735 36.7453H21.8735L22.0622 37.8403ZM24.226 37.4673H25.3371V36.1482L24.0372 36.3723L24.226 37.4673ZM24.226 26.6632H25.3371C25.3371 24.8222 26.8295 23.3299 28.6705 23.3299V22.2188V21.1076C25.6022 21.1076 23.1149 23.5949 23.1149 26.6632H24.226ZM24.226 31.9293H25.3371V26.6632H24.226H23.1149V31.9293H24.226ZM20.9979 36.0613L21.8735 36.7453L25.1016 32.6134L24.226 31.9293L23.3504 31.2453L20.1223 35.3772L20.9979 36.0613ZM22.0622 37.8403L21.8735 36.7453H21.8735L20.9979 36.0613L20.1223 35.3772C18.8712 36.9787 20.2484 39.2805 22.251 38.9353L22.0622 37.8403ZM24.226 37.4673L24.0372 36.3723L21.8735 36.7453L22.0622 37.8403L22.251 38.9353L24.4148 38.5622L24.226 37.4673ZM24.226 37.7743H25.3371V37.4673H24.226H23.1149V37.7743H24.226ZM28.6705 42.2188V41.1076C26.8295 41.1076 25.3371 39.6153 25.3371 37.7743H24.226H23.1149C23.1149 40.8426 25.6022 43.3299 28.6705 43.3299V42.2188ZM72.0038 42.2188V41.1076H28.6705V42.2188V43.3299H72.0038V42.2188ZM76.4482 37.7743H75.3371C75.3371 39.6153 73.8447 41.1076 72.0038 41.1076V42.2188V43.3299C75.072 43.3299 77.5593 40.8426 77.5593 37.7743H76.4482ZM76.4482 26.6632H75.3371V37.7743H76.4482H77.5593V26.6632H76.4482ZM72.0038 22.2188V23.3299C73.8447 23.3299 75.3371 24.8222 75.3371 26.6632H76.4482H77.5593C77.5593 23.5949 75.072 21.1076 72.0038 21.1076V22.2188ZM28.6705 22.2188V23.3299H72.0038V22.2188V21.1076H28.6705V22.2188Z" fill="#1A1A1A" mask="url(#path-8-inside-1_871_32508)"/>
<path d="M33.6699 29.4414H67.0033" stroke="#CCCCCC" stroke-width="1.11111" stroke-linecap="round"/>
<path d="M33.6699 35H67.0033" stroke="#E3E3E3" stroke-width="1.11111" stroke-linecap="round"/>
<mask id="path-12-inside-2_871_32508" fill="white">
<path fill-rule="evenodd" clip-rule="evenodd" d="M71.9995 76.1133C74.4541 76.1133 76.4439 78.1031 76.4439 80.5577V85.8238L79.672 89.9558C80.2976 90.7565 79.609 91.9075 78.6077 91.7348L76.4439 91.3618V91.6688C76.4439 94.1234 74.4541 96.1133 71.9995 96.1133H28.6661C26.2115 96.1133 24.2217 94.1234 24.2217 91.6688V80.5577C24.2217 78.1031 26.2115 76.1133 28.6661 76.1133H71.9995Z"/>
</mask>
<path fill-rule="evenodd" clip-rule="evenodd" d="M71.9995 76.1133C74.4541 76.1133 76.4439 78.1031 76.4439 80.5577V85.8238L79.672 89.9558C80.2976 90.7565 79.609 91.9075 78.6077 91.7348L76.4439 91.3618V91.6688C76.4439 94.1234 74.4541 96.1133 71.9995 96.1133H28.6661C26.2115 96.1133 24.2217 94.1234 24.2217 91.6688V80.5577C24.2217 78.1031 26.2115 76.1133 28.6661 76.1133H71.9995Z" fill="#F7F7F7"/>
<path d="M76.4439 85.8238L75.5683 86.5079L75.3328 86.2064V85.8238H76.4439ZM79.672 89.9558L80.5476 89.2718H80.5476L79.672 89.9558ZM78.6077 91.7348L78.7965 90.6399H78.7965L78.6077 91.7348ZM76.4439 91.3618H75.3328V90.0427L76.6327 90.2668L76.4439 91.3618ZM76.4439 80.5577H75.3328C75.3328 78.7168 73.8404 77.2244 71.9995 77.2244V76.1133V75.0022C75.0677 75.0022 77.555 77.4895 77.555 80.5577H76.4439ZM76.4439 85.8238H75.3328V80.5577H76.4439H77.555V85.8238H76.4439ZM79.672 89.9558L78.7965 90.6399L75.5683 86.5079L76.4439 85.8238L77.3195 85.1398L80.5476 89.2718L79.672 89.9558ZM78.6077 91.7348L78.7965 90.6399H78.7965L79.672 89.9558L80.5476 89.2718C81.7987 90.8732 80.4216 93.1751 78.4189 92.8298L78.6077 91.7348ZM76.4439 91.3618L76.6327 90.2668L78.7965 90.6399L78.6077 91.7348L78.4189 92.8298L76.2551 92.4567L76.4439 91.3618ZM76.4439 91.6688H75.3328V91.3618H76.4439H77.555V91.6688H76.4439ZM71.9995 96.1133V95.0022C73.8404 95.0022 75.3328 93.5098 75.3328 91.6688H76.4439H77.555C77.555 94.7371 75.0677 97.2244 71.9995 97.2244V96.1133ZM28.6661 96.1133V95.0022H71.9995V96.1133V97.2244H28.6661V96.1133ZM24.2217 91.6688H25.3328C25.3328 93.5098 26.8252 95.0022 28.6661 95.0022V96.1133V97.2244C25.5979 97.2244 23.1106 94.7371 23.1106 91.6688H24.2217ZM24.2217 80.5577H25.3328V91.6688H24.2217H23.1106V80.5577H24.2217ZM28.6661 76.1133V77.2244C26.8252 77.2244 25.3328 78.7168 25.3328 80.5577H24.2217H23.1106C23.1106 77.4895 25.5979 75.0022 28.6661 75.0022V76.1133ZM71.9995 76.1133V77.2244H28.6661V76.1133V75.0022H71.9995V76.1133Z" fill="#1A1A1A" mask="url(#path-12-inside-2_871_32508)"/>
<path d="M67 83.332H33.6667" stroke="#CCCCCC" stroke-width="1.11111" stroke-linecap="round"/>
<path d="M67 88.8906H33.6667" stroke="#E3E3E3" stroke-width="1.11111" stroke-linecap="round"/>
<path d="M43.1123 49.998H42.001V48.332H43.1123V49.998ZM45.335 49.998H44.2246V48.332H45.335V49.998ZM47.5566 49.998H46.4463V48.332H47.5566V49.998ZM49.7783 49.998H48.668V48.332H49.7783V49.998ZM52.002 49.998H50.8906V48.332H52.002V49.998ZM54.2236 49.998H53.1123V48.332H54.2236V49.998ZM56.4463 49.998H55.335V48.332H56.4463V49.998ZM58.668 49.998H57.5566V48.332H58.668V49.998Z" fill="#1A1A1A"/>
<path d="M43.1123 70.5537H42.001V68.8867H43.1123V70.5537ZM45.335 70.5537H44.2246V68.8867H45.335V70.5537ZM47.5566 70.5537H46.4463V68.8867H47.5566V70.5537ZM49.7783 70.5537H48.668V68.8867H49.7783V70.5537ZM52.002 70.5537H50.8906V68.8867H52.002V70.5537ZM54.2236 70.5537H53.1123V68.8867H54.2236V70.5537ZM56.4463 70.5537H55.335V68.8867H56.4463V70.5537ZM58.668 70.5537H57.5566V68.8867H58.668V70.5537Z" fill="#1A1A1A"/>
<path d="M59.7783 52.2236L59.7783 51.1133L61.4453 51.1133L61.4453 52.2236L59.7783 52.2236ZM59.7783 54.4453L59.7783 53.335L61.4453 53.335L61.4453 54.4453L59.7783 54.4453ZM59.7783 56.667L59.7783 55.5566L61.4453 55.5566L61.4453 56.667L59.7783 56.667ZM59.7783 58.8916L59.7783 57.7803L61.4453 57.7803L61.4453 58.8916L59.7783 58.8916ZM59.7783 61.1133L59.7783 60.002L61.4453 60.002L61.4453 61.1133L59.7783 61.1133ZM59.7783 63.335L59.7783 62.2236L61.4453 62.2236L61.4453 63.335L59.7783 63.335ZM59.7783 65.5566L59.7783 64.4453L61.4453 64.4453L61.4453 65.5566L59.7783 65.5566ZM59.7783 67.7803L59.7783 66.6699L61.4453 66.6699L61.4453 67.7803L59.7783 67.7803Z" fill="#1A1A1A"/>
<path d="M39.2246 52.2236L39.2246 51.1133L40.8916 51.1133L40.8916 52.2236L39.2246 52.2236ZM39.2246 54.4453L39.2246 53.335L40.8916 53.335L40.8916 54.4453L39.2246 54.4453ZM39.2246 56.667L39.2246 55.5566L40.8916 55.5566L40.8916 56.667L39.2246 56.667ZM39.2246 58.8916L39.2246 57.7803L40.8916 57.7803L40.8916 58.8916L39.2246 58.8916ZM39.2246 61.1133L39.2246 60.002L40.8916 60.002L40.8916 61.1133L39.2246 61.1133ZM39.2246 63.335L39.2246 62.2236L40.8916 62.2236L40.8916 63.335L39.2246 63.335ZM39.2246 65.5566L39.2246 64.4453L40.8916 64.4453L40.8916 65.5566L39.2246 65.5566ZM39.2246 67.7803L39.2246 66.6699L40.8916 66.6699L40.8916 67.7803L39.2246 67.7803Z" fill="#1A1A1A"/>
<defs>
<radialGradient id="paint0_radial_871_32508" cx="0" cy="0" r="1" gradientUnits="userSpaceOnUse" gradientTransform="translate(50.334 50) rotate(90) scale(50)">
<stop offset="0.6" stop-color="#816DFA"/>
<stop offset="1" stop-color="white" stop-opacity="0"/>
</radialGradient>
</defs>
</svg>
