<svg width="101" height="100" viewBox="0 0 101 100" fill="none" xmlns="http://www.w3.org/2000/svg">
<rect x="0.333008" width="100" height="100" rx="4.34568" fill="url(#paint0_radial_871_32569)" fill-opacity="0.2"/>
<rect x="42.0009" y="64.4462" width="16.6667" height="18.8889" fill="white" stroke="#1A1A1A" stroke-width="1.11111"/>
<path d="M39.2246 82.7783H61.4463C64.0199 82.7783 66.1386 84.7227 66.415 87.2227H34.2559C34.5323 84.7227 36.651 82.7783 39.2246 82.7783Z" fill="white" stroke="#1A1A1A" stroke-width="1.11111"/>
<rect x="6.44618" y="13.3329" width="87.7778" height="60" rx="3.88889" fill="white" stroke="#333333" stroke-width="1.11111"/>
<path d="M94.2236 63.333V69.4443C94.2235 71.592 92.4826 73.333 90.335 73.333H10.335C8.18734 73.333 6.44646 71.5919 6.44629 69.4443V63.333H94.2236Z" fill="white" stroke="#1A1A1A" stroke-width="1.11111"/>
<path d="M11.4453 21.6693C11.4453 19.8283 12.9377 18.3359 14.7786 18.3359H48.6675V42.2248H11.4453V21.6693Z" fill="#5ACA6F"/>
<path d="M52 18.3359H85.8889C87.7298 18.3359 89.2222 19.8283 89.2222 21.6693V34.447H52V18.3359Z" fill="#E3E3E3"/>
<path d="M52 37.7773H89.2222V53.8885C89.2222 55.7294 87.7298 57.2218 85.8889 57.2218H52V37.7773Z" fill="#F7F7F7"/>
<path d="M73.1113 41.1111C73.1113 40.4975 73.6088 40 74.2224 40H85.8891C86.5028 40 87.0002 40.4975 87.0002 41.1111V53.8889C87.0002 54.5025 86.5028 55 85.8891 55H74.2224C73.6088 55 73.1113 54.5025 73.1113 53.8889V41.1111Z" fill="#E3E3E3"/>
<path d="M31.4453 45.5547H48.6675V57.2214H31.4453V45.5547Z" fill="#F7F7F7"/>
<path d="M11.4453 45.5547H28.112V57.2214H14.7786C12.9377 57.2214 11.4453 55.729 11.4453 53.888V45.5547Z" fill="#E3E3E3"/>
<circle opacity="0.5" cx="18.6653" cy="26.6662" r="3.88889" stroke="white" stroke-width="1.11111"/>
<path d="M22.5541 26.6662C22.5541 28.814 20.813 30.5551 18.6653 30.5551C16.5175 30.5551 14.7764 28.814 14.7764 26.6662C14.7764 24.5185 16.5175 22.7773 18.6653 22.7773" stroke="white" stroke-width="1.11111" stroke-linecap="round"/>
<circle opacity="0.5" cx="40.8889" cy="26.6662" r="3.88889" stroke="white" stroke-width="1.11111"/>
<path d="M40.8889 22.7773C38.7411 22.7773 37 24.5185 37 26.6662C37 28.814 38.7411 30.5551 40.8889 30.5551C42.0847 30.5551 43.1545 30.0154 43.8678 29.1662" stroke="white" stroke-width="1.11111" stroke-linecap="round"/>
<circle opacity="0.5" cx="29.7785" cy="26.6662" r="3.88889" stroke="white" stroke-width="1.11111"/>
<path d="M29.7785 22.7773C27.6308 22.7773 25.8896 24.5185 25.8896 26.6662C25.8896 27.3746 26.079 28.0387 26.4099 28.6107" stroke="white" stroke-width="1.11111" stroke-linecap="round"/>
<path d="M15.334 35H30.6118M15.334 38.6111H43.6673" stroke="white" stroke-width="1.11111" stroke-linecap="round"/>
<path d="M70.335 46.6699C70.9485 46.6699 71.4461 47.1667 71.4463 47.7803V53.8916H69.2246V47.7803C69.2248 47.1668 69.7215 46.6701 70.335 46.6699ZM57.002 41.1133C57.6153 41.1135 58.1122 41.6103 58.1123 42.2236V53.8906H55.8906V42.2236C55.8908 41.6101 56.3884 41.1133 57.002 41.1133ZM61.4463 47.2236C62.0598 47.2238 62.5576 47.7214 62.5576 48.335V53.8906H60.335V48.335C60.335 47.7213 60.8326 47.2236 61.4463 47.2236ZM65.8906 49.4453C66.5043 49.4453 67.002 49.943 67.002 50.5566V53.8896H64.7793V50.5566C64.7793 49.943 65.277 49.4453 65.8906 49.4453Z" fill="#5ACA6F"/>
<circle cx="80.0569" cy="44.1662" r="1.38889" fill="white"/>
<rect x="75.8896" y="47.7773" width="8.33333" height="1.11111" rx="0.555556" fill="white"/>
<rect x="75.8896" y="50.5547" width="8.33333" height="1.11111" rx="0.555556" fill="white"/>
<defs>
<radialGradient id="paint0_radial_871_32569" cx="0" cy="0" r="1" gradientUnits="userSpaceOnUse" gradientTransform="translate(50.333 50) rotate(90) scale(50)">
<stop offset="0.6" stop-color="#5ACA6F"/>
<stop offset="1" stop-color="white" stop-opacity="0"/>
</radialGradient>
</defs>
</svg>
