<svg width="101" height="100" viewBox="0 0 101 100" fill="none" xmlns="http://www.w3.org/2000/svg">
<rect x="0.666992" width="100" height="100" rx="4.44444" fill="url(#paint0_radial_870_39989)" fill-opacity="0.2"/>
<path d="M58.9922 75.5557C58.8431 80.6521 56.6494 85.4997 52.9062 88.96C49.33 85.375 47.1649 80.6159 46.8164 75.5557H58.9922Z" fill="white" stroke="#1A1A1A" stroke-width="1.11111"/>
<path d="M61.1768 70.001L60.8828 73.5186C60.7868 74.6703 59.8237 75.5566 58.668 75.5566H47.1133C45.9576 75.5566 44.9944 74.6703 44.8984 73.5186L44.6055 70.001H61.1768Z" fill="#2ABBE9" stroke="#1A1A1A" stroke-width="1.11111"/>
<path d="M46.7793 67.7773H26.8799C25.9037 67.7773 25.1124 66.986 25.1123 66.0098V65.5547C25.1125 53.4675 34.7629 43.6335 46.7793 43.3389V67.7773Z" fill="#2ABBE9" stroke="#1A1A1A" stroke-width="1.11111"/>
<path d="M59.001 67.7773H78.9004C79.8766 67.7773 80.6679 66.986 80.668 66.0098V65.5547C80.6677 53.4675 71.0173 43.6335 59.001 43.3389V67.7773Z" fill="#2ABBE9" stroke="#1A1A1A" stroke-width="1.11111"/>
<path d="M53.6439 3.00418C53.2323 2.56015 52.5572 2.56007 52.1455 3.00399C48.9693 6.4288 36.7793 20.7594 36.7793 38.9744C36.7793 54.6609 38.8038 63.9428 39.8202 67.6142C40.1282 68.7269 41.1518 69.4449 42.3064 69.4449H63.4745C64.629 69.4449 65.6526 68.7269 65.9606 67.6142C66.977 63.9428 69.0015 54.6609 69.0015 38.9744C69.0015 20.7598 56.8187 6.42935 53.6439 3.00418Z" fill="white"/>
<mask id="mask0_870_39989" style="mask-type:alpha" maskUnits="userSpaceOnUse" x="36" y="2" width="34" height="68">
<path d="M53.6439 3.00418C53.2323 2.56015 52.5572 2.56007 52.1455 3.00399C48.9693 6.4288 36.7793 20.7594 36.7793 38.9744C36.7793 54.6609 38.8038 63.9428 39.8202 67.6142C40.1282 68.7269 41.1518 69.4449 42.3064 69.4449H63.4745C64.629 69.4449 65.6526 68.7269 65.9606 67.6142C66.977 63.9428 69.0015 54.6609 69.0015 38.9744C69.0015 20.7598 56.8187 6.42935 53.6439 3.00418Z" fill="white"/>
</mask>
<g mask="url(#mask0_870_39989)">
<rect x="36.2236" y="52.2227" width="32.7778" height="7.77778" fill="#2ABBE9"/>
</g>
<circle cx="52.8907" cy="29.9991" r="9.44444" fill="#FF7B00"/>
<path d="M52.6815 27.3415H52.68C52.68 27.3415 52.6804 27.3397 52.68 27.339C52.2008 26.4391 50.8688 26.4391 50.3896 27.339C50.3896 27.339 50.3896 27.3408 50.3896 27.3415H50.3881L47.3225 32.3041C47.1915 32.4697 47.1133 32.6768 47.1133 32.9012C47.1133 33.445 47.5698 33.886 48.1329 33.886H51.5316C52.0946 33.886 52.5512 33.445 52.5512 32.9012C52.5512 32.3573 52.0946 31.9163 51.5316 31.9163H49.9712L51.5346 29.4947L51.5293 29.4848C51.5316 29.4888 51.5376 29.4888 51.5399 29.4848L51.5346 29.4947L54.0232 33.3513C54.2808 33.8349 54.8956 34.0253 55.3963 33.7766C55.897 33.5278 56.0942 32.934 55.8366 32.4503L52.6815 27.3415Z" fill="white"/>
<path d="M58.6691 27.6489C58.6691 27.105 58.2126 26.6641 57.6495 26.6641C57.0864 26.6641 56.6299 27.105 56.6299 27.6489V32.9014C56.6299 33.4454 57.0864 33.8863 57.6495 33.8863C58.2126 33.8863 58.6691 33.4454 58.6691 32.9014V27.6489Z" fill="white"/>
<path d="M51.7383 2.62598C52.3699 1.94517 53.4204 1.94583 54.0518 2.62695C57.2426 6.06958 69.5566 20.5361 69.5566 38.9746C69.5566 54.7093 67.5263 64.0414 66.4961 67.7627C66.1159 69.1355 64.8577 69.9999 63.4746 70H42.3066C40.9236 70 39.6654 69.1355 39.2852 67.7627C38.255 64.0414 36.2236 54.7093 36.2236 38.9746C36.2236 20.5349 48.5466 6.06742 51.7383 2.62598Z" stroke="#1A1A1A" stroke-width="1.11111"/>
<path d="M49.001 77.7773V96.944" stroke="#1A1A1A" stroke-width="1.11111" stroke-linecap="round"/>
<path d="M57.8896 81.668V98.3346" stroke="#1A1A1A" stroke-width="1.11111" stroke-linecap="round"/>
<path d="M53.4453 82.2227V93.3338" stroke="#1A1A1A" stroke-width="1.11111" stroke-linecap="round"/>
<path d="M84.5723 6.28027C84.7096 6.76394 84.902 7.25265 85.1523 7.74414L85.1543 7.74805C85.515 8.44262 85.9732 9.10602 86.5264 9.73828L86.5352 9.74805C87.0301 10.2891 87.5749 10.7843 88.1689 11.2334L88.4268 11.4229L88.4287 11.4248C89.2907 12.0358 90.1779 12.4796 91.0879 12.7539C90.5171 12.9255 89.9401 13.1819 89.3574 13.5176L89.3535 13.5205C88.5912 13.9674 87.882 14.4987 87.2266 15.1143C86.568 15.7202 86.0204 16.3656 85.5898 17.0518C85.1201 17.8015 84.7776 18.5333 84.5732 19.2451C84.3969 18.6405 84.1206 18.0184 83.748 17.3809L83.5596 17.0713C82.9271 16.0494 82.0364 15.1174 80.9033 14.2705H80.9043C79.9558 13.5536 78.9899 13.045 78.0088 12.7539C78.9495 12.4679 79.8525 12.0254 80.7158 11.4277H80.7168C81.7605 10.7011 82.6363 9.82583 83.3398 8.80371L83.3408 8.80176C83.9119 7.96629 84.3248 7.12544 84.5723 6.28027Z" fill="white" stroke="#1A1A1A" stroke-width="1.11111"/>
<path d="M13.4531 43.8564C13.5046 43.9779 13.5602 44.1001 13.6221 44.2217L13.624 44.2256C13.8546 44.6695 14.1463 45.0923 14.4971 45.4932L14.5059 45.502C14.8642 45.8936 15.2637 46.2475 15.7031 46.5625L15.7051 46.5635C16.077 46.8271 16.4581 47.0438 16.8477 47.2109C16.663 47.2926 16.4778 47.3866 16.293 47.4932L16.2891 47.4951C15.9261 47.7079 15.5822 47.9507 15.2578 48.2236L14.9395 48.5068C14.6282 48.7937 14.3554 49.0961 14.1221 49.4141L13.9004 49.7393C13.7239 50.0209 13.5751 50.3008 13.4551 50.5781C13.3919 50.4338 13.3211 50.2885 13.2422 50.1426L13.0137 49.751C12.6075 49.095 12.0387 48.5026 11.3242 47.9688C10.9047 47.6519 10.4764 47.3981 10.041 47.209C10.441 47.0407 10.8293 46.8269 11.2041 46.5674L11.2051 46.5664C11.8677 46.105 12.4251 45.5482 12.873 44.8975L12.874 44.8965C13.1086 44.5533 13.302 44.2063 13.4531 43.8564Z" fill="white" stroke="#1A1A1A" stroke-width="1.11111"/>
<path d="M84.5635 79.4111C84.615 79.5326 84.6705 79.6548 84.7324 79.7764L84.7344 79.7803C84.9649 80.2242 85.2566 80.647 85.6074 81.0479L85.6162 81.0566C85.9746 81.4483 86.3741 81.8022 86.8135 82.1172L86.8154 82.1182C87.1873 82.3818 87.5684 82.5985 87.958 82.7656C87.7734 82.8473 87.5882 82.9413 87.4033 83.0479L87.3994 83.0498C87.0365 83.2626 86.6926 83.5054 86.3682 83.7783L86.0498 84.0615C85.7386 84.3483 85.4657 84.6508 85.2324 84.9688L85.0107 85.2939C84.8343 85.5756 84.6855 85.8555 84.5654 86.1328C84.5023 85.9885 84.4314 85.8432 84.3525 85.6973L84.124 85.3057C83.7178 84.6497 83.1491 84.0573 82.4346 83.5234C82.015 83.2066 81.5868 82.9528 81.1514 82.7637C81.5514 82.5953 81.9396 82.3816 82.3145 82.1221L82.3154 82.1211C82.9781 81.6597 83.5355 81.1029 83.9834 80.4521L83.9844 80.4512C84.2189 80.108 84.4123 79.761 84.5635 79.4111Z" fill="white" stroke="#1A1A1A" stroke-width="1.11111"/>
<defs>
<radialGradient id="paint0_radial_870_39989" cx="0" cy="0" r="1" gradientUnits="userSpaceOnUse" gradientTransform="translate(50.667 50) rotate(90) scale(50)">
<stop offset="0.6" stop-color="#2ABBE9"/>
<stop offset="1" stop-color="white" stop-opacity="0"/>
</radialGradient>
</defs>
</svg>
