<svg width="100" height="100" viewBox="0 0 100 100" fill="none" xmlns="http://www.w3.org/2000/svg">
<rect width="100" height="100" rx="4.34568" fill="url(#paint0_radial_871_32602)" fill-opacity="0.2"/>
<rect x="22.7792" y="2.77821" width="54.4444" height="94.4444" rx="3.88889" fill="white" stroke="#1A1A1A" stroke-width="1.11111"/>
<rect x="42.2236" y="7.77734" width="15.5556" height="2.77778" rx="1.38889" fill="#666666"/>
<rect x="23.335" y="26.8828" width="53.3333" height="42.2222" fill="#EEE0FF"/>
<rect x="34.4473" y="26.8828" width="2.77778" height="19.4444" fill="white"/>
<rect x="71.5889" y="23.332" width="2.77778" height="65.0636" transform="rotate(45 71.5889 23.332)" fill="white"/>
<rect x="49.4473" y="46.3281" width="2.77778" height="26.1111" transform="rotate(90 49.4473 46.3281)" fill="white"/>
<rect x="76.668" y="39.4453" width="2.77778" height="20.5556" transform="rotate(90 76.668 39.4453)" fill="white"/>
<path d="M49.4453 44.444L59.4453 37.7773L69.4453 44.444V57.7773H49.4453V44.444Z" fill="#AE6DFF"/>
<mask id="path-10-inside-1_871_32602" fill="white">
<path d="M62.6592 64.0439H87.7812C90.2358 64.0439 92.2255 66.0337 92.2256 68.4883V80.7109C92.2254 83.1654 90.2357 85.1553 87.7812 85.1553H12.2256C9.77115 85.1552 7.78143 83.1653 7.78125 80.7109V68.4883C7.78131 66.0338 9.77108 64.044 12.2256 64.0439H55.6816L59.1709 60.5547L62.6592 64.0439Z"/>
</mask>
<path d="M62.6592 64.0439H87.7812C90.2358 64.0439 92.2255 66.0337 92.2256 68.4883V80.7109C92.2254 83.1654 90.2357 85.1553 87.7812 85.1553H12.2256C9.77115 85.1552 7.78143 83.1653 7.78125 80.7109V68.4883C7.78131 66.0338 9.77108 64.044 12.2256 64.0439H55.6816L59.1709 60.5547L62.6592 64.0439Z" fill="white"/>
<path d="M62.6592 64.0439L61.8734 64.8295L62.1989 65.1551H62.6592V64.0439ZM87.7812 64.0439V62.9328V64.0439ZM92.2256 68.4883H93.3367V68.4883L92.2256 68.4883ZM92.2256 80.7109L93.3367 80.711V80.7109H92.2256ZM87.7812 85.1553V86.2664V85.1553ZM12.2256 85.1553L12.2256 86.2664H12.2256V85.1553ZM7.78125 80.7109H6.67014V80.711L7.78125 80.7109ZM7.78125 68.4883L6.67014 68.4883V68.4883H7.78125ZM12.2256 64.0439V62.9328H12.2256L12.2256 64.0439ZM55.6816 64.0439V65.1551H56.1419L56.4673 64.8296L55.6816 64.0439ZM59.1709 60.5547L59.9567 59.7691L59.171 58.9832L58.3852 59.769L59.1709 60.5547ZM62.6592 64.0439V65.1551H87.7812V64.0439V62.9328H62.6592V64.0439ZM87.7812 64.0439V65.1551C89.6221 65.1551 91.1144 66.6474 91.1145 68.4883L92.2256 68.4883L93.3367 68.4883C93.3366 65.4201 90.8495 62.9328 87.7812 62.9328V64.0439ZM92.2256 68.4883H91.1145V80.7109H92.2256H93.3367V68.4883H92.2256ZM92.2256 80.7109L91.1145 80.7109C91.1143 82.5518 89.622 84.0442 87.7812 84.0442V85.1553V86.2664C90.8495 86.2664 93.3365 83.779 93.3367 80.711L92.2256 80.7109ZM87.7812 85.1553V84.0442H12.2256V85.1553V86.2664H87.7812V85.1553ZM12.2256 85.1553L12.2256 84.0442C10.3849 84.0441 8.89249 82.5517 8.89236 80.7109L7.78125 80.7109L6.67014 80.711C6.67036 83.779 9.15744 86.2663 12.2256 86.2664L12.2256 85.1553ZM7.78125 80.7109H8.89236V68.4883H7.78125H6.67014V80.7109H7.78125ZM7.78125 68.4883L8.89236 68.4883C8.89241 66.6474 10.3847 65.1551 12.2256 65.1551L12.2256 64.0439L12.2256 62.9328C9.15742 62.9329 6.67022 65.4201 6.67014 68.4883L7.78125 68.4883ZM12.2256 64.0439V65.1551H55.6816V64.0439V62.9328H12.2256V64.0439ZM55.6816 64.0439L56.4673 64.8296L59.9566 61.3404L59.1709 60.5547L58.3852 59.769L54.896 63.2583L55.6816 64.0439ZM59.1709 60.5547L58.3851 61.3403L61.8734 64.8295L62.6592 64.0439L63.445 63.2584L59.9567 59.7691L59.1709 60.5547Z" fill="#1A1A1A" mask="url(#path-10-inside-1_871_32602)"/>
<path d="M23.1123 79.375C23.1123 80.4796 22.2169 81.375 21.1123 81.375C20.0077 81.375 19.1123 80.4796 19.1123 79.375H23.1123ZM21.1113 66.707C24.0566 66.7073 26.4442 69.0948 26.4443 72.04V77.374H27.1113C27.4794 77.3741 27.7782 77.672 27.7783 78.04C27.7783 78.4082 27.4795 78.707 27.1113 78.707H15.1113C14.7433 78.7069 14.4443 78.4081 14.4443 78.04C14.4444 77.672 14.7433 77.3742 15.1113 77.374H15.7773V72.04C15.7775 69.0948 18.166 66.7072 21.1113 66.707Z" fill="#FFDC5C"/>
<path d="M33.6143 71.543H78.6143" stroke="#CCCCCC" stroke-width="1.11111" stroke-linecap="round"/>
<path d="M33.6143 77.6562H58.0587" stroke="#E3E3E3" stroke-width="1.11111" stroke-linecap="round"/>
<defs>
<radialGradient id="paint0_radial_871_32602" cx="0" cy="0" r="1" gradientUnits="userSpaceOnUse" gradientTransform="translate(50 50) rotate(90) scale(50)">
<stop offset="0.6" stop-color="#AE6DFF"/>
<stop offset="1" stop-color="white" stop-opacity="0"/>
</radialGradient>
</defs>
</svg>
