<svg width="101" height="100" viewBox="0 0 101 100" fill="none" xmlns="http://www.w3.org/2000/svg">
<rect x="0.666992" width="100" height="100" rx="3.67711" fill="url(#paint0_radial_871_32625)" fill-opacity="0.2"/>
<rect x="66.8267" y="71.5234" width="4.44444" height="14.4444" transform="rotate(-45 66.8267 71.5234)" fill="white" stroke="#1A1A1A" stroke-width="1.11111"/>
<path d="M73.113 78.5947L77.0408 74.6669C77.6916 74.0161 78.7474 74.0161 79.3982 74.6669L94.7184 89.9871L88.4332 96.2724L73.113 80.9522C72.4621 80.3013 72.4621 79.2456 73.113 78.5947Z" fill="white" stroke="#1A1A1A" stroke-width="1.11111"/>
<circle cx="44.5559" cy="43.8889" r="38.8889" fill="#E4EEF6"/>
<mask id="mask0_871_32625" style="mask-type:alpha" maskUnits="userSpaceOnUse" x="5" y="5" width="79" height="78">
<circle cx="44.5559" cy="43.8889" r="38.8889" fill="#E3E3E3"/>
</mask>
<g mask="url(#mask0_871_32625)">
<rect x="43.4453" y="6.10938" width="2.77778" height="35.5556" fill="white"/>
<rect x="43.4453" y="41.7344" width="2.77778" height="42.7288" transform="rotate(-12.991 43.4453 41.7344)" fill="white"/>
<rect x="83.4453" y="29.4453" width="2.77778" height="40" transform="rotate(90 83.4453 29.4453)" fill="white"/>
<rect x="45.667" y="46.1094" width="2.77778" height="41.6667" transform="rotate(90 45.667 46.1094)" fill="white"/>
<rect x="26.2217" y="48.332" width="2.77778" height="41.6667" transform="rotate(-180 26.2217 48.332)" fill="white"/>
<path d="M63.7222 40.5547V59.4436L54 78.3325" stroke="white" stroke-width="2.77778" stroke-linecap="square"/>
<rect x="83.4453" y="38.8906" width="2.77778" height="40" transform="rotate(90 83.4453 38.8906)" fill="white"/>
<rect x="82.8896" y="57.2227" width="2.77778" height="18.8889" transform="rotate(90 82.8896 57.2227)" fill="white"/>
<path d="M24.555 47.7773V63.8885L16.2217 70.2773" stroke="white" stroke-width="2.77778" stroke-linecap="square"/>
<path d="M47.8896 56.3906L25.3896 59.724" stroke="white" stroke-width="2.77778" stroke-linecap="square"/>
<path d="M25.667 16.9462L34.0003 27.224L71.5003 8.89062" stroke="white" stroke-width="2.77778" stroke-linecap="square"/>
</g>
<circle cx="44.5559" cy="43.8889" r="38.3333" stroke="#1A1A1A" stroke-width="1.11111"/>
<path d="M59.5548 37.4996C59.5548 51.3885 44.8326 59.9996 44.8326 59.9996C44.8326 59.9996 30.1104 51.6662 30.1104 37.4996C30.1104 29.3687 36.7017 22.7773 44.8326 22.7773C52.9634 22.7773 59.5548 29.3687 59.5548 37.4996Z" fill="#2A98E9"/>
<circle cx="44.8325" cy="36.3872" r="5.27778" fill="white"/>
<defs>
<radialGradient id="paint0_radial_871_32625" cx="0" cy="0" r="1" gradientUnits="userSpaceOnUse" gradientTransform="translate(50.667 50) rotate(90) scale(50)">
<stop offset="0.6" stop-color="#2A98E9"/>
<stop offset="1" stop-color="white" stop-opacity="0"/>
</radialGradient>
</defs>
</svg>
