<svg width="101" height="100" viewBox="0 0 101 100" fill="none" xmlns="http://www.w3.org/2000/svg">
<g clip-path="url(#clip0_870_40013)">
<rect x="0.333008" width="100" height="100" rx="4.44444" fill="url(#paint0_radial_870_40013)" fill-opacity="0.2"/>
<rect x="0.333008" y="21.6641" width="88.3333" height="71.1111" rx="4.44444" fill="white"/>
<path d="M8.66699 67.2227H80.3337" stroke="#E3E3E3" stroke-width="2.37037" stroke-linecap="round"/>
<path d="M8.66699 74.4453H80.3337" stroke="#E3E3E3" stroke-width="2.37037" stroke-linecap="round"/>
<path d="M8.66699 81.6641H80.3337" stroke="#E3E3E3" stroke-width="2.37037" stroke-linecap="round"/>
<path d="M0.333008 26.4048C0.333008 23.7866 2.45551 21.6641 5.07375 21.6641H87.2589C89.8772 21.6641 91.9997 23.7866 91.9997 26.4048V29.4418H0.333008V26.4048Z" fill="#F7F7F7"/>
<rect x="0.888563" y="22.2196" width="87.7778" height="70" rx="3.88889" stroke="#1A1A1A" stroke-width="1.11111"/>
<circle cx="6.99978" cy="26.1072" r="1.11111" fill="#F48C8C"/>
<circle cx="10.8885" cy="26.1072" r="1.11111" fill="#F4D08C"/>
<circle cx="14.7781" cy="26.1072" r="1.11111" fill="#90DE6B"/>
<rect x="8.66699" y="34.9961" width="13.3333" height="10" rx="1.11111" fill="#FFB066"/>
<path d="M14.1335 37.9043C14.2248 37.7841 14.4075 37.7901 14.4909 37.916L15.7721 39.8506C15.8477 39.9647 16.0084 39.9825 16.1071 39.8877L16.8903 39.1357C16.9816 39.048 17.1279 39.0557 17.2096 39.1523L19.7204 42.1211C19.8409 42.2636 19.7391 42.4824 19.5524 42.4824H11.1091C10.9282 42.4822 10.8254 42.2752 10.9343 42.1309L14.1335 37.9043ZM18.3864 37.2188C18.7739 37.2188 19.0884 37.5127 19.0886 37.876C19.0886 38.2393 18.774 38.5342 18.3864 38.5342C17.999 38.534 17.6852 38.2392 17.6852 37.876C17.6853 37.5128 17.9991 37.2189 18.3864 37.2188Z" fill="#FFF7F0"/>
<rect x="25.334" y="34.9961" width="13.3333" height="10" rx="1.11111" fill="#FFB066"/>
<path d="M30.8005 37.9043C30.8918 37.7841 31.0745 37.7901 31.1579 37.916L32.4391 39.8506C32.5147 39.9647 32.6754 39.9825 32.7741 39.8877L33.5573 39.1357C33.6486 39.048 33.7949 39.0557 33.8766 39.1523L36.3874 42.1211C36.5079 42.2636 36.4061 42.4824 36.2194 42.4824H27.7761C27.5952 42.4822 27.4923 42.2752 27.6012 42.1309L30.8005 37.9043ZM35.0553 37.2188C35.4427 37.2189 35.7564 37.5128 35.7565 37.876C35.7565 38.2392 35.4428 38.534 35.0553 38.5342C34.6678 38.5342 34.3532 38.2393 34.3532 37.876C34.3533 37.5127 34.6678 37.2188 35.0553 37.2188Z" fill="#FFF7F0"/>
<rect x="42" y="34.9961" width="13.3333" height="10" rx="1.11111" fill="#FFB066"/>
<path d="M47.4656 37.9043C47.5569 37.7837 47.7405 37.79 47.824 37.916L49.1053 39.8506C49.1809 39.9647 49.3415 39.9825 49.4402 39.8877L50.2225 39.1357C50.3137 39.048 50.4601 39.0557 50.5418 39.1523L53.0535 42.1211C53.1739 42.2636 53.0722 42.4824 52.8855 42.4824H44.4422C44.2612 42.4824 44.1583 42.2753 44.2674 42.1309L47.4656 37.9043ZM51.7195 37.2188C52.107 37.2188 52.4216 37.5127 52.4217 37.876C52.4217 38.2393 52.1071 38.5342 51.7195 38.5342C51.332 38.5341 51.0184 38.2393 51.0184 37.876C51.0185 37.5127 51.3321 37.2188 51.7195 37.2188Z" fill="#FFF7F0"/>
<rect x="8.66699" y="48.3281" width="13.3333" height="10" rx="1.11111" fill="#FFB066"/>
<path d="M14.1337 51.2412C14.2249 51.1207 14.4076 51.126 14.4911 51.252L15.7723 53.1875C15.8479 53.3014 16.0086 53.3193 16.1073 53.2246L16.8905 52.4717C16.9818 52.3842 17.1282 52.3917 17.2098 52.4883L19.7206 55.458C19.8408 55.6006 19.7392 55.8184 19.5526 55.8184H11.1092C10.9283 55.8181 10.8252 55.6112 10.9344 55.4668L14.1337 51.2412ZM18.3885 50.5547C18.7759 50.5549 19.0897 50.8497 19.0897 51.2129C19.0895 51.576 18.7758 51.8699 18.3885 51.8701C18.0011 51.8701 17.6866 51.5761 17.6864 51.2129C17.6864 50.8495 18.001 50.5547 18.3885 50.5547Z" fill="#FFF7F0"/>
<rect x="25.334" y="48.3281" width="13.3333" height="10" rx="1.11111" fill="#FFB066"/>
<path d="M30.8006 51.2412C30.8919 51.1207 31.0746 51.126 31.1581 51.252L32.4393 53.1875C32.5149 53.3014 32.6756 53.3193 32.7743 53.2246L33.5575 52.4717C33.6488 52.3842 33.7952 52.3917 33.8768 52.4883L36.3876 55.458C36.5078 55.6006 36.4061 55.8184 36.2196 55.8184H27.7762C27.5953 55.8181 27.4922 55.6112 27.6014 55.4668L30.8006 51.2412ZM35.0555 50.5547C35.4429 50.5549 35.7567 50.8497 35.7567 51.2129C35.7565 51.576 35.4428 51.8699 35.0555 51.8701C34.6681 51.8701 34.3536 51.5761 34.3534 51.2129C34.3534 50.8495 34.6679 50.5547 35.0555 50.5547Z" fill="#FFF7F0"/>
<rect x="42" y="48.3281" width="13.3333" height="10" rx="1.11111" fill="#FFB066"/>
<path d="M47.4657 51.2412C47.557 51.1207 47.7407 51.1259 47.8241 51.252L49.1054 53.1875C49.181 53.3013 49.3417 53.3194 49.4403 53.2246L50.2226 52.4717C50.3138 52.3841 50.4601 52.3919 50.5419 52.4883L53.0536 55.458C53.1737 55.6006 53.0722 55.8184 52.8857 55.8184H44.4423C44.2612 55.8183 44.1582 55.6112 44.2675 55.4668L47.4657 51.2412ZM51.7196 50.5547C52.1072 50.5547 52.4218 50.8495 52.4218 51.2129C52.4216 51.5761 52.1071 51.8701 51.7196 51.8701C51.3322 51.8701 51.0186 51.5761 51.0185 51.2129C51.0185 50.8496 51.3321 50.5547 51.7196 50.5547Z" fill="#FFF7F0"/>
<rect x="59.7782" y="7.77821" width="40" height="70" rx="3.88889" fill="white" stroke="#1A1A1A" stroke-width="1.11111"/>
<rect x="74.2227" y="11.6641" width="11.1111" height="2.22222" rx="1.11111" fill="#666666"/>
<rect x="63.3881" y="18.6098" width="32.7778" height="35" rx="3.05556" fill="#F9F9F9" stroke="#F7F7F7" stroke-width="0.555556"/>
<path d="M67.6807 45.8594H91.8742" stroke="#CCCCCC" stroke-width="1.91159" stroke-linecap="round"/>
<path d="M67.6807 49.4453H91.8742" stroke="#CCCCCC" stroke-width="1.91159" stroke-linecap="round"/>
<rect x="66.4434" y="21.6641" width="26.6667" height="20" rx="2.30718" fill="#FF7B00"/>
<path d="M77.3606 27.498C77.5501 27.2478 77.9305 27.2599 78.1038 27.5215L80.6429 31.3555C80.7999 31.592 81.1324 31.6285 81.3372 31.4316L82.8763 29.9541C83.0658 29.772 83.3696 29.7876 83.5394 29.9883L88.5257 35.8857C88.7759 36.1817 88.5656 36.6348 88.178 36.6348H71.3616C70.9855 36.6348 70.7713 36.2042 70.9983 35.9043L77.3606 27.498ZM85.8841 26.1094C86.659 26.1095 87.2872 26.6984 87.2874 27.4248C87.2874 28.1514 86.6591 28.7411 85.8841 28.7412C85.1089 28.7412 84.4808 28.1515 84.4808 27.4248C84.481 26.6983 85.1091 26.1094 85.8841 26.1094Z" fill="#FFF7F0"/>
<circle cx="79.7768" cy="70.0004" r="2.77778" fill="#666666"/>
</g>
<defs>
<radialGradient id="paint0_radial_870_40013" cx="0" cy="0" r="1" gradientUnits="userSpaceOnUse" gradientTransform="translate(50.333 50) rotate(90) scale(50)">
<stop offset="0.6" stop-color="#FF7B00"/>
<stop offset="1" stop-color="white" stop-opacity="0"/>
</radialGradient>
<clipPath id="clip0_870_40013">
<rect x="0.333008" width="100" height="100" rx="4.44444" fill="white"/>
</clipPath>
</defs>
</svg>
