<svg width="140" height="140" viewBox="0 0 140 140" fill="none" xmlns="http://www.w3.org/2000/svg">
<path d="M78.5381 107.362C78.335 114.308 75.3439 120.915 70.2422 125.631C65.3684 120.745 62.4192 114.259 61.9443 107.362H78.5381Z" fill="white" stroke="#1A1A1A" stroke-width="1.51422"/>
<path d="M81.5122 99.7998L81.1128 104.594C80.982 106.163 79.6702 107.371 78.0952 107.371H62.3481C60.7731 107.371 59.4614 106.163 59.3306 104.594L58.9312 99.7998H81.5122Z" fill="#2ABBE9" stroke="#1A1A1A" stroke-width="1.51422"/>
<path d="M61.896 96.7715H34.7778C33.4475 96.7714 32.3688 95.6926 32.3687 94.3623V93.7422C32.3689 77.27 45.5205 63.8687 61.896 63.4668V96.7715Z" fill="#2ABBE9" stroke="#1A1A1A" stroke-width="1.51422"/>
<path d="M78.5537 96.7656H105.672C107.002 96.7656 108.081 95.6868 108.081 94.3564V93.7363C108.081 77.2641 94.9292 63.8628 78.5537 63.4609V96.7656Z" fill="#2ABBE9" stroke="#1A1A1A" stroke-width="1.51422"/>
<path d="M71.2467 8.49865C70.6858 7.89353 69.7657 7.89343 69.2047 8.49839C64.8762 13.1657 48.2637 32.6954 48.2637 57.5188C48.2637 78.8962 51.0227 91.5456 52.4078 96.549C52.8276 98.0653 54.2226 99.0438 55.7959 99.0438H84.6438C86.2171 99.0438 87.6121 98.0653 88.0319 96.549C89.417 91.5456 92.176 78.8962 92.176 57.5188C92.176 32.6959 75.5732 13.1665 71.2467 8.49865Z" fill="white"/>
<mask id="mask0_2065_50140" style="mask-type:alpha" maskUnits="userSpaceOnUse" x="48" y="8" width="45" height="92">
<path d="M71.2501 8.49865C70.6892 7.89353 69.7692 7.89343 69.2081 8.49839C64.8796 13.1657 48.2671 32.6954 48.2671 57.5188C48.2671 78.8962 51.0261 91.5456 52.4112 96.549C52.831 98.0653 54.226 99.0438 55.7993 99.0438H84.6472C86.2205 99.0438 87.6155 98.0653 88.0353 96.549C89.4204 91.5456 92.1794 78.8962 92.1794 57.5188C92.1794 32.6959 75.5767 13.1665 71.2501 8.49865Z" fill="white"/>
</mask>
<g mask="url(#mask0_2065_50140)">
<rect x="47.5098" y="75.5664" width="44.6694" height="10.5995" fill="#2ABBE9"/>
</g>
<circle cx="70.22" cy="45.281" r="12.8709" fill="#FF7B00"/>
<path d="M69.9311 41.6713H69.9291C69.9291 41.6713 69.9296 41.6688 69.9291 41.6678C69.276 40.4415 67.4608 40.4415 66.8078 41.6678C66.8078 41.6678 66.8078 41.6703 66.8078 41.6713H66.8057L62.6279 48.4342C62.4493 48.6599 62.3428 48.9422 62.3428 49.2479C62.3428 49.9891 62.965 50.5901 63.7323 50.5901H68.364C69.1314 50.5901 69.7536 49.9891 69.7536 49.2479C69.7536 48.5068 69.1314 47.9058 68.364 47.9058H66.2376L68.3682 44.6056L68.3609 44.5922C68.364 44.5977 68.3723 44.5977 68.3754 44.5922L68.3682 44.6056L71.7596 49.8614C72.1106 50.5205 72.9484 50.78 73.6308 50.441C74.3133 50.102 74.5819 49.2927 74.2309 48.6335L69.9311 41.6713Z" fill="white"/>
<path d="M78.0964 42.0882C78.0964 41.347 77.4743 40.7461 76.7069 40.7461C75.9395 40.7461 75.3174 41.347 75.3174 42.0882V49.2464C75.3174 49.9876 75.9395 50.5885 76.7069 50.5885C77.4743 50.5885 78.0964 49.9876 78.0964 49.2464V42.0882Z" fill="white"/>
<path d="M68.6494 7.9834C69.5101 7.05536 70.9413 7.05606 71.8018 7.98437C76.1495 12.6751 92.9335 32.3899 92.9336 57.5186C92.9336 78.9619 90.1656 91.6796 88.7617 96.751C88.2437 98.6222 86.5286 99.8008 84.6436 99.8008H55.7959C53.9109 99.8008 52.1957 98.6222 51.6777 96.751C50.2738 91.6796 47.5068 78.9618 47.5068 57.5186C47.5069 32.3891 64.2999 12.6734 68.6494 7.9834Z" stroke="#1A1A1A" stroke-width="1.51422"/>
<path d="M64.354 110.395V136.515" stroke="#1A1A1A" stroke-width="1.51422" stroke-linecap="round"/>
<path d="M76.4697 115.688V138.401" stroke="#1A1A1A" stroke-width="1.51422" stroke-linecap="round"/>
<path d="M70.4092 116.443V131.586" stroke="#1A1A1A" stroke-width="1.51422" stroke-linecap="round"/>
<path d="M116.532 12.9766C116.719 13.6337 116.985 14.2962 117.325 14.9639L117.328 14.9697C117.819 15.9164 118.444 16.8208 119.198 17.6826L119.209 17.6943C119.98 18.5371 120.84 19.2984 121.788 19.9775L121.791 19.9795C122.965 20.8122 124.174 21.4182 125.415 21.792C124.636 22.026 123.85 22.3752 123.055 22.833L123.05 22.8359C122.14 23.3698 121.285 23.9924 120.486 24.7031L120.153 25.0078C119.255 25.8336 118.509 26.7133 117.922 27.6484L117.921 27.6494C117.281 28.6716 116.815 29.6692 116.537 30.6396C116.258 29.6831 115.794 28.6954 115.157 27.6787H115.158C114.403 26.4581 113.377 25.3317 112.096 24.2949L111.532 23.8564C110.242 22.8821 108.93 22.1866 107.596 21.79C108.876 21.4002 110.104 20.7976 111.279 19.9844L111.281 19.9834C112.703 18.9932 113.896 17.8011 114.855 16.4082L114.857 16.4062C115.634 15.2701 116.194 14.1259 116.532 12.9766Z" fill="white" stroke="#1A1A1A" stroke-width="1.51422"/>
<path d="M19.6147 64.168C19.685 64.3336 19.7608 64.5003 19.8452 64.666L19.8481 64.6709C20.1623 65.2759 20.5606 65.8512 21.0386 66.3975L21.0444 66.4043L21.0493 66.4102C21.5377 66.944 22.0823 67.4261 22.6812 67.8555L22.6851 67.8574C23.1921 68.2168 23.7115 68.5114 24.2427 68.7393C23.9908 68.8506 23.738 68.9777 23.4858 69.123L23.481 69.126C22.9035 69.4645 22.3618 69.8595 21.856 70.3096L21.6421 70.5049C21.0755 71.0269 20.6014 71.5865 20.2261 72.1846H20.2251C19.9845 72.5685 19.7813 72.9501 19.6177 73.3281C19.4555 72.9576 19.2548 72.5831 19.0181 72.2051H19.019C18.4659 71.3106 17.6909 70.5023 16.7173 69.7744H16.7183C16.1455 69.3415 15.5608 68.9945 14.9663 68.7363C15.5112 68.507 16.0397 68.2158 16.5503 67.8623L16.5522 67.8613C17.4553 67.2326 18.2143 66.4738 18.8247 65.5869L18.8267 65.585C19.1461 65.1175 19.4088 64.6446 19.6147 64.168Z" fill="white" stroke="#1A1A1A" stroke-width="1.51422"/>
<path d="M116.518 112.625C116.588 112.791 116.664 112.957 116.748 113.123L116.751 113.128C117.065 113.733 117.463 114.308 117.941 114.854L117.947 114.861L117.952 114.867C118.441 115.401 118.985 115.883 119.584 116.312L119.588 116.314C120.095 116.674 120.614 116.968 121.146 117.196C120.894 117.308 120.641 117.435 120.389 117.58L120.384 117.583C119.806 117.922 119.265 118.317 118.759 118.767L118.545 118.962C117.978 119.484 117.504 120.044 117.129 120.642H117.128C116.887 121.026 116.684 121.407 116.521 121.785C116.358 121.415 116.158 121.04 115.921 120.662H115.922C115.369 119.768 114.594 118.959 113.62 118.231H113.621C113.048 117.799 112.464 117.452 111.869 117.193C112.414 116.964 112.943 116.673 113.453 116.319L113.455 116.318C114.358 115.69 115.117 114.931 115.728 114.044L115.729 114.042C116.049 113.575 116.312 113.102 116.518 112.625Z" fill="white" stroke="#1A1A1A" stroke-width="1.51422"/>
</svg>
