<svg width="20" height="20" viewBox="0 0 20 20" fill="none" xmlns="http://www.w3.org/2000/svg">
<path fill-rule="evenodd" clip-rule="evenodd" d="M8.22917 13.3346C8.22917 12.9319 8.55563 12.6055 8.95834 12.6055H11.4583C11.861 12.6055 12.1875 12.9319 12.1875 13.3346C12.1875 13.7373 11.861 14.0638 11.4583 14.0638H8.95834C8.55563 14.0638 8.22917 13.7373 8.22917 13.3346Z" fill="#666666"/>
<path fill-rule="evenodd" clip-rule="evenodd" d="M10 3.33464C6.31811 3.33464 3.33334 6.3194 3.33334 10.0013C3.33334 13.6832 6.31811 16.668 10 16.668C13.6819 16.668 16.6667 13.6832 16.6667 10.0013C16.6667 6.3194 13.6819 3.33464 10 3.33464ZM1.66667 10.0013C1.66667 5.39893 5.39763 1.66797 10 1.66797C14.6024 1.66797 18.3333 5.39893 18.3333 10.0013C18.3333 14.6037 14.6024 18.3346 10 18.3346C5.39763 18.3346 1.66667 14.6037 1.66667 10.0013Z" fill="#666666"/>
<path fill-rule="evenodd" clip-rule="evenodd" d="M10.2083 14.0638C9.80563 14.0638 9.47917 13.7373 9.47917 13.3346V9.89714H8.95834C8.55563 9.89714 8.22917 9.57068 8.22917 9.16797C8.22917 8.76526 8.55563 8.4388 8.95834 8.4388H9.79167C10.4245 8.4388 10.9375 8.95181 10.9375 9.58464V13.3346C10.9375 13.7373 10.611 14.0638 10.2083 14.0638Z" fill="#666666"/>
<path d="M11.0417 6.45964C11.0417 5.88434 10.5753 5.41797 10 5.41797C9.42471 5.41797 8.95834 5.88434 8.95834 6.45964C8.95834 7.03493 9.42471 7.5013 10 7.5013C10.5753 7.5013 11.0417 7.03493 11.0417 6.45964Z" fill="#666666"/>
</svg>
