<svg width="20" height="20" viewBox="0 0 20 20" fill="none" xmlns="http://www.w3.org/2000/svg">
<g clip-path="url(#clip0_830_33860)">
<g clip-path="url(#clip1_830_33860)">
<path d="M10.0593 4.44444L7.01174 0H2.22266L8.31785 9.44444L13.3338 6.80556L10.0593 4.44444Z" fill="#CFB286"/>
<path d="M13.0247 0L10 4.35388L12.329 8.33333L12.8592 7.52297L17.7778 0H13.0247Z" fill="#9F8968"/>
<g clip-path="url(#clip2_830_33860)">
<path d="M17.7782 12.2231C17.7782 16.5186 14.2959 20.0009 10.0004 20.0009C5.70494 20.0009 2.22266 16.5186 2.22266 12.2231C2.22266 7.9276 5.70494 4.44531 10.0004 4.44531C14.2959 4.44531 17.7782 7.9276 17.7782 12.2231Z" fill="#C08670"/>
<path d="M9.03982 11.578H9.88278C10.1527 11.578 10.3753 11.5347 10.5505 11.4481C10.7256 11.3581 10.8552 11.2333 10.9391 11.074C11.0267 10.9112 11.0704 10.7224 11.0704 10.5077C11.0704 10.3137 11.0303 10.1423 10.95 9.9933C10.8735 9.84093 10.7549 9.72314 10.5943 9.64004C10.4337 9.55342 10.2312 9.51012 9.98669 9.51012C9.79333 9.51012 9.61453 9.54651 9.45031 9.61918C9.28609 9.69196 9.15472 9.79411 9.0563 9.92573C8.95776 10.0574 8.90844 10.2168 8.90844 10.4037H7.32665C7.32665 9.98809 7.44342 9.6262 7.67695 9.31784C7.91413 9.00959 8.23161 8.7689 8.62932 8.59567C9.02704 8.42255 9.46489 8.33594 9.94297 8.33594C10.4829 8.33594 10.9555 8.41904 11.3605 8.58535C11.7657 8.74815 12.0812 8.98884 12.3075 9.30752C12.5337 9.6262 12.6468 10.021 12.6468 10.4921C12.6468 10.7311 12.5884 10.9632 12.4716 11.1883C12.3549 11.41 12.187 11.6109 11.9681 11.791C11.7529 11.9676 11.4901 12.1096 11.18 12.217C10.8698 12.3209 10.5213 12.3728 10.1345 12.3728H9.03982V11.578ZM9.03982 12.7158V11.9417H10.1345C10.5687 11.9417 10.95 11.9884 11.2785 12.0819C11.6069 12.1755 11.8823 12.3105 12.105 12.4872C12.3276 12.6603 12.4954 12.8664 12.6085 13.1054C12.7216 13.341 12.7782 13.6025 12.7782 13.89C12.7782 14.2432 12.707 14.5585 12.5647 14.8356C12.4224 15.1091 12.2218 15.3412 11.9626 15.5318C11.7072 15.7223 11.408 15.8677 11.0651 15.9682C10.722 16.0652 10.348 16.1137 9.94297 16.1137C9.60725 16.1137 9.27701 16.0704 8.95227 15.9838C8.63112 15.8938 8.33922 15.7603 8.07647 15.5837C7.81744 15.4036 7.60944 15.1785 7.45254 14.9083C7.29928 14.6347 7.22266 14.3108 7.22266 13.9368H8.80453C8.80453 14.1306 8.85553 14.3039 8.95776 14.4562C9.05988 14.6087 9.20034 14.7282 9.37913 14.8148C9.56162 14.9013 9.76418 14.9446 9.98669 14.9446C10.2385 14.9446 10.4538 14.9013 10.6326 14.8148C10.8151 14.7247 10.9537 14.6 11.0486 14.4407C11.1471 14.2779 11.1963 14.0891 11.1963 13.8744C11.1963 13.5972 11.1434 13.3756 11.0376 13.2094C10.9318 13.0397 10.7803 12.915 10.5834 12.8353C10.3863 12.7556 10.1527 12.7158 9.88278 12.7158H9.03982Z" fill="white"/>
</g>
</g>
</g>
<defs>
<clipPath id="clip0_830_33860">
<rect width="20" height="20" fill="white"/>
</clipPath>
<clipPath id="clip1_830_33860">
<rect width="20" height="20" fill="white"/>
</clipPath>
<clipPath id="clip2_830_33860">
<rect width="15.5556" height="15.5556" fill="white" transform="translate(2.22266 4.44531)"/>
</clipPath>
</defs>
</svg>
