<svg width="20" height="20" viewBox="0 0 20 20" fill="none" xmlns="http://www.w3.org/2000/svg">
<path d="M9.37302 2.57247C9.58483 1.98511 10.4155 1.98511 10.6273 2.57247L12.0557 6.53371C12.1484 6.79072 12.3885 6.96517 12.6616 6.97389L16.8704 7.10832C17.4944 7.12825 17.7511 7.91826 17.258 8.3012L13.932 10.8838C13.7162 11.0514 13.6245 11.3336 13.7006 11.596L14.8733 15.6404C15.0472 16.24 14.3752 16.7283 13.8586 16.3776L10.3746 14.0125C10.1486 13.8591 9.85177 13.8591 9.62572 14.0125L6.14174 16.3776C5.62514 16.7283 4.95312 16.24 5.12701 15.6404L6.29974 11.596C6.37582 11.3336 6.28411 11.0514 6.06832 10.8838L2.74237 8.30121C2.24921 7.91827 2.5059 7.12825 3.12996 7.10832L7.33873 6.97389C7.6118 6.96517 7.85191 6.79072 7.94459 6.53371L9.37302 2.57247Z" fill="#CCCCCC" stroke="#CCCCCC" stroke-width="0.833333"/>
<g clip-path="url(#clip0_150_20782)">
<path d="M9.37302 2.57247C9.58483 1.98511 10.4155 1.98511 10.6273 2.57247L12.0557 6.53371C12.1484 6.79072 12.3885 6.96517 12.6616 6.97389L16.8704 7.10832C17.4944 7.12825 17.7511 7.91826 17.258 8.3012L13.932 10.8838C13.7162 11.0514 13.6245 11.3336 13.7006 11.596L14.8733 15.6404C15.0472 16.24 14.3752 16.7283 13.8586 16.3776L10.3746 14.0125C10.1486 13.8591 9.85177 13.8591 9.62572 14.0125L6.14174 16.3776C5.62514 16.7283 4.95312 16.24 5.12701 15.6404L6.29974 11.596C6.37582 11.3336 6.28411 11.0514 6.06832 10.8838L2.74237 8.30121C2.24921 7.91827 2.5059 7.12825 3.12996 7.10832L7.33873 6.97389C7.6118 6.96517 7.85191 6.79072 7.94459 6.53371L9.37302 2.57247Z" fill="#FFB724" stroke="#FFB724" stroke-width="0.833333"/>
</g>
<defs>
<clipPath id="clip0_150_20782">
<rect width="10" height="20" fill="white"/>
</clipPath>
</defs>
</svg>
