<svg width="22" height="23" viewBox="0 0 22 23" fill="none" xmlns="http://www.w3.org/2000/svg">
<path fill-rule="evenodd" clip-rule="evenodd" d="M11.6823 19.423C13.3347 17.4191 17.4166 12.1357 17.4166 8.84036C17.4166 7.16642 16.7406 5.70869 15.5372 4.57806C14.3339 3.44744 12.7018 2.81226 11 2.81226C9.29817 2.81226 7.66607 3.44744 6.46271 4.57806C5.25935 5.70869 4.58331 7.16642 4.58331 8.8411C4.58331 12.1358 8.66522 17.4192 10.3177 19.423C10.6762 19.8578 11.3238 19.8578 11.6823 19.423ZM13.75 8.96783C13.75 10.4866 12.5188 11.7178 11 11.7178C9.48122 11.7178 8.25 10.4866 8.25 8.96783C8.25 7.44905 9.48122 6.21783 11 6.21783C12.5188 6.21783 13.75 7.44905 13.75 8.96783Z" fill="#FF7B00"/>
</svg>
