<svg width="16" height="16" viewBox="0 0 16 16" fill="none" xmlns="http://www.w3.org/2000/svg">
<path fill-rule="evenodd" clip-rule="evenodd" d="M1.33331 4.66663C1.33331 3.56206 2.22874 2.66663 3.33331 2.66663H13.3333C14.4379 2.66663 15.3333 3.56206 15.3333 4.66663V11.3333C15.3333 12.4379 14.4379 13.3333 13.3333 13.3333H3.33331C2.22874 13.3333 1.33331 12.4379 1.33331 11.3333V4.66663ZM3.33331 3.99996C2.96512 3.99996 2.66665 4.29844 2.66665 4.66663V11.3333C2.66665 11.7015 2.96512 12 3.33331 12H13.3333C13.7015 12 14 11.7015 14 11.3333V4.66663C14 4.29844 13.7015 3.99996 13.3333 3.99996H3.33331Z" fill="#1A1A1A"/>
<path fill-rule="evenodd" clip-rule="evenodd" d="M14 7.66663H1.99998V4.99996H14V7.66663Z" fill="#1A1A1A"/>
</svg>
