<svg width="32" height="33" viewBox="0 0 32 33" fill="none" xmlns="http://www.w3.org/2000/svg">
<g clip-path="url(#clip0_24768_59586)">
<path d="M5.04438 22.9633C4.59647 19.8997 6.10361 18.6857 7.26359 18.7608L7.60836 25.3025C6.44827 25.2274 5.31167 24.7915 5.04438 22.9633Z" fill="#FFF0E1" stroke="#242953" stroke-width="0.8"/>
<path d="M21.3312 21.9519C22.7598 20.7633 23.9927 21.3995 24.1059 23.9435C24.219 26.4874 22.7368 28.2652 21.2997 28.1099C17.8918 30.7761 15.5194 31.7794 11.7306 30.6477L10.4057 29.9375C7.94951 28.329 6.39229 23.8826 7.77981 13.8267C7.77981 13.8267 13.0824 18.1127 12.7631 14.8748C12.4437 11.637 22.0864 16.2031 22.0864 16.2031L21.3312 21.9519Z" fill="#FFF0E1"/>
<path d="M20.9939 21.9304C22.4226 20.7418 23.6554 21.378 23.7686 23.922C23.8817 26.4659 22.4326 27.8698 20.9954 27.7144C20.9954 27.7144 20.053 29.0727 17.7806 30.304C15.5083 31.5354 12.5452 31.4287 10.1757 29.8062C7.80615 28.1837 6.02675 24.3282 7.41427 14.2723C7.41427 14.2723 13.4675 18.4624 13.6839 15.1557C13.9004 11.8491 21.7491 16.1815 21.7491 16.1815L20.9939 21.9304Z" stroke="#242953" stroke-width="0.8" stroke-linecap="round" stroke-linejoin="round"/>
<path d="M23.7889 23.5663C26.152 19.7815 28.3016 13.1118 25.018 9.63694C21.7344 6.16205 17.4406 4.04558 11.1303 5.02745C4.81991 6.00932 4.13084 12.3329 7.19755 14.3439C10.2643 16.3549 13.2726 16.2513 13.2726 16.2513L14.6475 13.8702L18.3672 14.7105L21.7579 16.1858L20.9581 21.5706C23.0683 20.1075 24.0493 22.5328 23.7889 23.5663Z" fill="#242953"/>
<path d="M13.3984 20.3438C12.2591 22.3173 12.2617 23.3076 13.7151 23.643" stroke="#242953" stroke-width="0.8" stroke-linecap="round" stroke-linejoin="round"/>
<path d="M14.372 28.7982C11.3828 29.0799 10.1204 26.7568 10.7452 25.7746C12.0642 25.1085 15.2882 24.9955 16.7369 25.1924C17.7778 25.8478 16.9619 28.5541 14.372 28.7982Z" fill="white" stroke="#242953" stroke-width="0.8" stroke-linecap="round" stroke-linejoin="round"/>
<ellipse cx="0.916006" cy="1.80201" rx="0.916006" ry="1.80201" transform="matrix(-0.975975 -0.227494 -0.210278 0.975521 18.3008 18.0449)" fill="#242953"/>
<ellipse cx="0.916006" cy="1.80201" rx="0.916006" ry="1.80201" transform="matrix(-0.997274 -0.0986216 -0.0816106 0.994584 11.2637 17.8242)" fill="#242953"/>
<path d="M19.6986 11.3111C19.6986 11.3111 21.7565 8.58115 24.9384 4.52667" stroke="#242953" stroke-width="0.8" stroke-linecap="round" stroke-linejoin="round"/>
<ellipse cx="2.58555" cy="2.59039" rx="2.58555" ry="2.59039" transform="matrix(-0.889156 -0.459902 -0.456366 0.888661 28.7129 2.91406)" fill="#FF951A"/>
<path d="M26.6911 3.00415C26.8457 3.16012 27.1201 3.61726 26.9806 4.19811" stroke="#F5F1F1" stroke-width="0.5" stroke-linecap="round"/>
<path d="M22.9367 2.84168C23.4148 5.92756 26.2007 6.23301 27.3846 5.46978C26.9947 6.09556 25.5963 7.12435 24.1672 6.38522C22.4755 5.51025 22.4085 3.87032 22.9367 2.84168Z" fill="#FB7E24"/>
</g>
<defs>
<clipPath id="clip0_24768_59586">
<rect width="32" height="32" fill="white" transform="translate(0 0.5)"/>
</clipPath>
</defs>
</svg>
