<svg width="28" height="28" viewBox="0 0 28 28" fill="none" xmlns="http://www.w3.org/2000/svg">
<path fill-rule="evenodd" clip-rule="evenodd" d="M14.0008 4.11399C13.3941 4.11399 12.9023 4.6058 12.9023 5.21248L12.9023 22.7882C12.9023 23.3949 13.3941 23.8867 14.0008 23.8867C14.6074 23.8867 15.0993 23.3949 15.0993 22.7882L15.0993 5.21248C15.0993 4.6058 14.6074 4.11399 14.0008 4.11399Z" fill="#333333"/>
<path fill-rule="evenodd" clip-rule="evenodd" d="M14.7775 4.43573C14.3485 4.00674 13.653 4.00674 13.224 4.43573L5.53463 12.1251C5.10564 12.5541 5.10564 13.2496 5.53463 13.6786C5.96361 14.1076 6.65914 14.1076 7.08812 13.6786L14.0008 6.76597L20.9134 13.6786C21.3424 14.1076 22.0379 14.1076 22.4669 13.6786C22.8959 13.2496 22.8959 12.5541 22.4669 12.1251L14.7775 4.43573Z" fill="#333333"/>
</svg>
