<svg width="56" height="56" viewBox="0 0 56 56" fill="none" xmlns="http://www.w3.org/2000/svg">
<circle cx="28" cy="28" r="28" fill="#CCCCCC"/>
<path fill-rule="evenodd" clip-rule="evenodd" d="M28.0003 11.667C29.289 11.667 30.3337 12.7117 30.3337 14.0003L30.3337 32.667C30.3337 33.9557 29.289 35.0003 28.0003 35.0003C26.7117 35.0003 25.667 33.9557 25.667 32.667L25.667 14.0003C25.667 12.7117 26.7117 11.667 28.0003 11.667Z" fill="white"/>
<path d="M30.3337 42.0003C30.3337 43.289 29.289 44.3337 28.0003 44.3337C26.7117 44.3337 25.667 43.289 25.667 42.0003C25.667 40.7117 26.7117 39.667 28.0003 39.667C29.289 39.667 30.3337 40.7117 30.3337 42.0003Z" fill="white"/>
</svg>
