<svg width="16" height="16" viewBox="0 0 16 16" fill="none" xmlns="http://www.w3.org/2000/svg">
<path fill-rule="evenodd" clip-rule="evenodd" d="M4.62344 2.34281C4.62947 2.34265 4.63551 2.34257 4.64154 2.34257H11.3585V3.00923L11.3766 2.34281C11.6349 2.34983 11.8881 2.41684 12.116 2.53882C12.3417 2.65966 12.5365 2.83127 12.6846 3.0405L14.3643 5.34107C14.5758 5.63675 14.682 5.99483 14.6649 6.35838C14.6478 6.72192 14.5085 7.06838 14.2705 7.34299L14.2678 7.34606L9.24048 13.0748C9.09331 13.2574 8.90742 13.4049 8.6965 13.5071C8.47936 13.6123 8.24117 13.6668 8.00004 13.6668C7.75892 13.6668 7.52072 13.6123 7.30358 13.5071C7.09267 13.4049 6.90677 13.2574 6.75961 13.0748L1.72962 7.343C1.49158 7.06839 1.35225 6.72192 1.33516 6.35838C1.31806 5.99483 1.4243 5.63676 1.63582 5.34109L1.63957 5.33584L3.31553 3.04048C3.46355 2.83126 3.65838 2.65966 3.88413 2.53882C4.11198 2.41684 4.36523 2.34983 4.62344 2.34281ZM11.3471 3.6759H4.65303C4.60385 3.67822 4.5561 3.69145 4.51339 3.71432C4.46879 3.73819 4.43121 3.77173 4.40322 3.81167L4.3957 3.82218L2.7189 6.11875C2.68194 6.17128 2.66409 6.23347 2.66702 6.29575C2.66996 6.35834 2.69381 6.41918 2.7362 6.46857L7.77222 12.2073C7.78028 12.2165 7.78809 12.2259 7.79564 12.2355C7.81897 12.2652 7.84937 12.2899 7.88488 12.3071C7.92041 12.3243 7.95983 12.3334 8.00004 12.3334C8.04026 12.3334 8.07967 12.3243 8.11521 12.3071C8.15072 12.2899 8.18111 12.2652 8.20445 12.2355C8.21199 12.2259 8.2198 12.2165 8.22786 12.2073L13.2629 6.46965L13.2638 6.46861C13.3063 6.41922 13.3301 6.35836 13.3331 6.29575C13.336 6.23347 13.3181 6.17128 13.2812 6.11876L11.6044 3.82218L11.5969 3.81167C11.5689 3.77173 11.5313 3.73819 11.4867 3.71432C11.444 3.69145 11.3962 3.67822 11.3471 3.6759Z" fill="#1A1A1A"/>
<path fill-rule="evenodd" clip-rule="evenodd" d="M7.88456 2.44181C8.1929 2.64303 8.27975 3.05611 8.07853 3.36445L6.02029 6.51849L8.61499 12.7182C8.75714 13.0578 8.59704 13.4484 8.25739 13.5906C7.91775 13.7327 7.52718 13.5726 7.38503 13.233L4.65394 6.70738C4.56864 6.50356 4.58986 6.27071 4.71062 6.08567L6.96192 2.63578C7.16314 2.32744 7.57622 2.2406 7.88456 2.44181Z" fill="#1A1A1A"/>
<path fill-rule="evenodd" clip-rule="evenodd" d="M8.14422 2.44113C8.45294 2.24049 8.86586 2.32811 9.0665 2.63683L11.3086 6.08672C11.429 6.27209 11.4498 6.50513 11.3639 6.70886L8.6144 13.2344C8.47144 13.5737 8.08048 13.7329 7.74118 13.5899C7.40188 13.447 7.24272 13.056 7.38568 12.7167L9.99797 6.5169L7.94852 3.3634C7.74788 3.05468 7.8355 2.64177 8.14422 2.44113Z" fill="#1A1A1A"/>
<path fill-rule="evenodd" clip-rule="evenodd" d="M1.35453 6.44999C1.35453 6.0818 1.65301 5.78332 2.0212 5.78332H13.9789C14.3471 5.78332 14.6456 6.0818 14.6456 6.44999C14.6456 6.81818 14.3471 7.11666 13.9789 7.11666H2.0212C1.65301 7.11666 1.35453 6.81818 1.35453 6.44999Z" fill="#1A1A1A"/>
</svg>
