<svg width="24" height="24" viewBox="0 0 24 24" fill="none" xmlns="http://www.w3.org/2000/svg">
<path fill-rule="evenodd" clip-rule="evenodd" d="M12 3C12.5523 3 13 3.44772 13 4L13 20C13 20.5523 12.5523 21 12 21C11.4477 21 11 20.5523 11 20L11 4C11 3.44772 11.4477 3 12 3Z" fill="white"/>
<path fill-rule="evenodd" clip-rule="evenodd" d="M3 12.0017C3 11.4494 3.44772 11.0017 4 11.0017H20C20.5523 11.0017 21 11.4494 21 12.0017C21 12.554 20.5523 13.0017 20 13.0017H4C3.44772 13.0017 3 12.554 3 12.0017Z" fill="white"/>
</svg>
