<svg width="18" height="18" viewBox="0 0 18 18" fill="none" xmlns="http://www.w3.org/2000/svg">
<path fill-rule="evenodd" clip-rule="evenodd" d="M9 2.25C9.41421 2.25 9.75 2.58579 9.75 3L9.75 15C9.75 15.4142 9.41421 15.75 9 15.75C8.58579 15.75 8.25 15.4142 8.25 15L8.25 3C8.25 2.58579 8.58579 2.25 9 2.25Z" fill="#006FFF"/>
<path fill-rule="evenodd" clip-rule="evenodd" d="M2.25 9.00128C2.25 8.58707 2.58579 8.25128 3 8.25128H15C15.4142 8.25128 15.75 8.58707 15.75 9.00128C15.75 9.4155 15.4142 9.75128 15 9.75128H3C2.58579 9.75128 2.25 9.4155 2.25 9.00128Z" fill="#006FFF"/>
</svg>
