<svg width="25" height="24" viewBox="0 0 25 24" fill="none" xmlns="http://www.w3.org/2000/svg">
<path fill-rule="evenodd" clip-rule="evenodd" d="M4.5 3C5.05228 3 5.5 3.44772 5.5 4V18C5.5 18.5523 5.94772 19 6.5 19H20.5C21.0523 19 21.5 19.4477 21.5 20C21.5 20.5523 21.0523 21 20.5 21H6.5C4.84315 21 3.5 19.6569 3.5 18V4C3.5 3.44772 3.94772 3 4.5 3Z" fill="#FF7B00"/>
<path fill-rule="evenodd" clip-rule="evenodd" d="M19.6757 7.26285C20.0828 7.63604 20.1103 8.26861 19.7372 8.67572L14.2372 14.6757C14.0528 14.8768 13.7944 14.9938 13.5217 14.9998C13.249 15.0057 12.9858 14.9 12.7929 14.7071L11 12.9142L8.20711 15.7071C7.81658 16.0976 7.18342 16.0976 6.79289 15.7071C6.40237 15.3166 6.40237 14.6834 6.79289 14.2929L10.2929 10.7929C10.6834 10.4024 11.3166 10.4024 11.7071 10.7929L13.4686 12.5544L18.2628 7.32428C18.636 6.91716 19.2686 6.88965 19.6757 7.26285Z" fill="#FF7B00"/>
<path fill-rule="evenodd" clip-rule="evenodd" d="M14.3077 8C14.3077 7.44772 14.7554 7 15.3077 7H19C19.5523 7 20 7.44772 20 8V11.6923C20 12.2446 19.5523 12.6923 19 12.6923C18.4477 12.6923 18 12.2446 18 11.6923V9H15.3077C14.7554 9 14.3077 8.55228 14.3077 8Z" fill="#FF7B00"/>
</svg>
