<svg width="20" height="20" viewBox="0 0 20 20" fill="none" xmlns="http://www.w3.org/2000/svg">
<path fill-rule="evenodd" clip-rule="evenodd" d="M10.0003 3.33268C6.31843 3.33268 3.33366 6.31745 3.33366 9.99935C3.33366 13.6812 6.31843 16.666 10.0003 16.666C13.6822 16.666 16.667 13.6812 16.667 9.99935C16.667 6.31745 13.6822 3.33268 10.0003 3.33268ZM1.66699 9.99935C1.66699 5.39698 5.39795 1.66602 10.0003 1.66602C14.6027 1.66602 18.3337 5.39698 18.3337 9.99935C18.3337 14.6017 14.6027 18.3327 10.0003 18.3327C5.39795 18.3327 1.66699 14.6017 1.66699 9.99935Z" fill="#FF7B00"/>
<path fill-rule="evenodd" clip-rule="evenodd" d="M9.99967 4.58398C10.4599 4.58398 10.833 4.95708 10.833 5.41732L10.833 10.0007C10.833 10.4609 10.4599 10.834 9.99967 10.834C9.53944 10.834 9.16634 10.4609 9.16634 10.0007L9.16634 5.41732C9.16634 4.95708 9.53944 4.58398 9.99967 4.58398Z" fill="#FF7B00"/>
<path fill-rule="evenodd" clip-rule="evenodd" d="M9.41074 9.41152C9.73618 9.08608 10.2638 9.08608 10.5893 9.41152L12.9463 11.7685C13.2717 12.094 13.2717 12.6216 12.9463 12.9471C12.6208 13.2725 12.0932 13.2725 11.7678 12.9471L9.41074 10.59C9.08531 10.2646 9.08531 9.73696 9.41074 9.41152Z" fill="#FF7B00"/>
</svg>
