<svg width="84" height="18" viewBox="0 0 84 18" fill="none" xmlns="http://www.w3.org/2000/svg">
<path fill-rule="evenodd" clip-rule="evenodd" d="M25.4002 0.649902H23.6955C23.5288 0.649902 23.3622 0.684181 23.2082 0.744949C23.0542 0.807275 22.9145 0.89609 22.7971 1.00983C22.6796 1.12202 22.5876 1.25602 22.5241 1.40249C22.4606 1.54896 22.4304 1.70633 22.432 1.8637V16.783C22.4288 17.1024 22.5606 17.4094 22.7987 17.6369C23.0352 17.8643 23.3574 17.9937 23.6955 17.9968H25.4002C25.7383 17.9937 26.0605 17.8643 26.297 17.6369C26.5335 17.4094 26.6652 17.1024 26.6621 16.783V1.8637C26.6652 1.54428 26.5335 1.23732 26.297 1.00983C26.0605 0.782345 25.7383 0.653019 25.4002 0.649902ZM8.35943 2.10677L0.996153 14.3741C0.0295147 15.9852 1.23742 17.9999 3.17069 17.9999H14.4085L12.3387 14.5486H5.68649L10.2641 6.9199L14.8418 14.5486L16.9116 17.9999H21.7082L12.1688 2.10677C11.9815 1.78424 11.7054 1.51623 11.3704 1.32926C11.0355 1.14228 10.653 1.04411 10.2641 1.04411C9.87525 1.04411 9.49272 1.14228 9.15781 1.32926C8.8229 1.51623 8.54672 1.78424 8.35943 2.10677Z" fill="#FF8900"/>
<path d="M82.5582 0.943359V12.3764H79.4964V0.943359H82.5582ZM75.3302 10.613V5.82661H71.9778V3.07494H75.3302V1.02087H78.3531V10.613H75.3302ZM74.5163 9.74097C73.528 10.1091 71.7453 10.2836 70.3694 10.2836H66.3776V1.04025H69.478V7.59001H70.6601C71.9584 7.59001 73.5087 7.41561 74.5163 7.08618V9.74097ZM83.3333 14.7986L82.2287 17.7053L74.8264 15.1474C72.8692 16.717 70.0594 17.4922 67.1721 17.4922V14.4498C70.4082 14.4498 73.3343 12.9771 73.8962 10.8843L77.1711 11.6013C77.0548 12.0276 76.8998 12.4345 76.706 12.8221L83.3333 14.7986Z" fill="#41414F"/>
<path d="M62.9878 3.48188H64.9256V6.60173H62.9878V10.051H59.7129V0.943359H62.9878V3.48188ZM53.3375 7.22183C52.0586 8.75269 50.0433 9.89599 47.6404 9.95413V7.08618C49.772 6.96992 51.1866 5.41968 51.516 3.85006H47.8729V1.13714H58.4146V3.85006H54.8296C54.8103 4.16011 54.7327 4.47015 54.6552 4.7802L58.9959 7.18307L57.465 9.60532L53.3375 7.22183ZM55.6823 10.2836C59.8485 10.2836 63.1428 11.2331 63.1428 13.9847C63.1428 16.7364 59.8485 17.6859 55.6823 17.6859C51.516 17.6859 48.2218 16.7364 48.2218 13.9847C48.2218 11.2331 51.516 10.2836 55.6823 10.2836ZM55.6823 15.0699C57.872 15.0699 59.616 14.7792 59.616 13.9847C59.616 13.2096 57.872 12.8996 55.6823 12.8996C53.4926 12.8996 51.7485 13.2096 51.7485 13.9847C51.7485 14.7792 53.4926 15.0699 55.6823 15.0699Z" fill="#41414F"/>
<path d="M44.8129 0.943359V9.04336H41.538V0.943359H44.8129ZM34.8138 6.38858C33.3993 7.93881 31.3646 8.98523 29.0198 9.10149V6.25293C31.6359 5.94288 33.4768 3.90819 33.5349 1.02087L36.8098 1.21465C36.8098 2.22231 36.616 3.19121 36.2478 4.08259L40.8016 6.48547L39.2902 8.84958L34.8138 6.38858ZM33.2636 15.2249H44.9873V17.4922H30.0275V12.5508H41.5768V11.8919H29.9887V9.6247H44.8129V14.5661H33.2636V15.2249Z" fill="#41414F"/>
</svg>
