<svg width="147" height="48" viewBox="0 0 147 48" fill="none" xmlns="http://www.w3.org/2000/svg">
<g filter="url(#filter0_bd_1_14327)">
<g filter="url(#filter1_b_1_14327)">
<path fill-rule="evenodd" clip-rule="evenodd" d="M54.6267 4H51.1385C50.7962 4.00279 50.4578 4.07019 50.1427 4.19834C49.8276 4.32649 49.5419 4.51289 49.3019 4.7469C49.062 4.9809 48.8725 5.25793 48.7442 5.56215C48.6159 5.86638 48.5514 6.19185 48.5543 6.51999V37.3625C48.5491 38.0247 48.8184 38.6618 49.3029 39.1339C49.7875 39.6059 50.4477 39.8742 51.1385 39.8798H54.6267C55.317 39.8735 55.9765 39.6049 56.4604 39.1329C56.9444 38.661 57.2132 38.0243 57.208 37.3625V6.51999C57.214 5.85775 56.9454 5.22035 56.4614 4.74783C55.9774 4.27531 55.3175 4.00634 54.6267 4ZM19.7614 7.02398L4.69597 32.4772C2.71822 35.8212 5.19111 39.9998 9.14662 39.9998H32.137L27.9005 32.8398H14.2927L23.6585 17.0106L33.0243 32.8398L37.2608 39.9998H47.0745L27.5556 7.02398C27.1711 6.35581 26.6068 5.7987 25.9214 5.41072C25.2359 5.02274 24.4545 4.81809 23.6585 4.81809C22.8625 4.81809 22.0811 5.02274 21.3957 5.41072C20.7102 5.7987 20.1459 6.35581 19.7614 7.02398Z" fill="white"/>
<path d="M96.3315 4H89.2132V21.3999H96.3315V4ZM74.5984 15.6959L84.3342 20.9839L87.6193 15.9173L77.7139 10.744C78.5325 8.78554 78.9481 6.69378 78.9378 4.584L71.8195 4.16533C71.8214 6.06152 71.3743 7.93339 70.5122 9.63997C69.7193 11.2127 68.5229 12.5667 67.0352 13.575C65.5474 14.5834 63.8169 15.2132 62.0059 15.4053V21.5386C64.4347 21.4441 66.816 20.8627 68.9962 19.8319C71.131 18.8228 73.0354 17.4169 74.5984 15.6959ZM71.2298 33.2638H96.3315V22.6479H64.1116V27.5199H89.2967V28.9359H64.195V39.5491H96.7098V34.6798H71.2298V33.2638ZM130.702 25.9572C127.753 24.6968 123.822 24.0657 118.907 24.0639C113.993 24.0621 110.062 24.6932 107.113 25.9572C104.165 27.2212 102.69 29.2407 102.69 32.0158C102.69 34.7909 104.165 36.8096 107.113 38.0718C110.062 39.334 113.993 39.9651 118.907 39.9651C123.822 39.9651 127.753 39.334 130.702 38.0718C133.65 36.8078 135.124 34.7892 135.124 32.0158C135.124 29.2425 133.65 27.223 130.702 25.9572ZM125.122 33.7838C123.562 34.1607 121.491 34.3483 118.907 34.3465C116.324 34.3447 114.254 34.1572 112.696 33.7838C111.136 33.4105 110.357 32.8212 110.357 32.0158C110.357 31.2105 111.143 30.6274 112.715 30.2665C114.288 29.8772 116.352 29.6825 118.907 29.6825C121.463 29.6825 123.527 29.8772 125.099 30.2665C126.672 30.6559 127.458 31.239 127.458 32.0158C127.458 32.8212 126.679 33.4105 125.122 33.7838ZM113.811 17.4879L122.777 22.6079L126.115 17.4026L116.682 12.2426C116.863 11.5875 116.99 10.9196 117.06 10.2453H124.849V4.416H101.934V10.2453H109.853C109.592 11.4271 109.082 12.5457 108.357 13.5333C107.595 14.5745 106.602 15.4414 105.45 16.0719C104.221 16.7476 102.842 17.1325 101.427 17.1946V23.3572C103.856 23.3182 106.241 22.7414 108.398 21.6719C110.485 20.6504 112.328 19.2259 113.811 17.4879ZM134.788 9.4533V4H127.67V23.5652H134.788V16.1546H138.999V9.4533H134.788Z" fill="white"/>
</g>
</g>
<defs>
<filter id="filter0_bd_1_14327" x="-9" y="-9" width="161" height="62" filterUnits="userSpaceOnUse" color-interpolation-filters="sRGB">
<feFlood flood-opacity="0" result="BackgroundImageFix"/>
<feGaussianBlur in="BackgroundImageFix" stdDeviation="5"/>
<feComposite in2="SourceAlpha" operator="in" result="effect1_backgroundBlur_1_14327"/>
<feColorMatrix in="SourceAlpha" type="matrix" values="0 0 0 0 0 0 0 0 0 0 0 0 0 0 0 0 0 0 127 0" result="hardAlpha"/>
<feOffset dx="2" dy="2"/>
<feGaussianBlur stdDeviation="3"/>
<feComposite in2="hardAlpha" operator="out"/>
<feColorMatrix type="matrix" values="0 0 0 0 0 0 0 0 0 0 0 0 0 0 0 0 0 0 0.1 0"/>
<feBlend mode="normal" in2="effect1_backgroundBlur_1_14327" result="effect2_dropShadow_1_14327"/>
<feBlend mode="normal" in="SourceGraphic" in2="effect2_dropShadow_1_14327" result="shape"/>
</filter>
<filter id="filter1_b_1_14327" x="-6" y="-6" width="155" height="56" filterUnits="userSpaceOnUse" color-interpolation-filters="sRGB">
<feFlood flood-opacity="0" result="BackgroundImageFix"/>
<feGaussianBlur in="BackgroundImageFix" stdDeviation="5"/>
<feComposite in2="SourceAlpha" operator="in" result="effect1_backgroundBlur_1_14327"/>
<feBlend mode="normal" in="SourceGraphic" in2="effect1_backgroundBlur_1_14327" result="shape"/>
</filter>
</defs>
</svg>
