<svg width="78" height="21" viewBox="0 0 78 21" fill="none" xmlns="http://www.w3.org/2000/svg">
<path fill-rule="evenodd" clip-rule="evenodd" d="M24.9776 3.60913H23.2798C23.1138 3.60913 22.9478 3.64349 22.7945 3.7044C22.6411 3.76688 22.502 3.8559 22.385 3.96992C22.268 4.08237 22.1764 4.21669 22.1131 4.3635C22.0499 4.51031 22.0199 4.66806 22.0214 4.8258V19.7804C22.0183 20.1006 22.1495 20.4083 22.3866 20.6363C22.6222 20.8643 22.9431 20.994 23.2798 20.9971H24.9776C25.3143 20.994 25.6352 20.8643 25.8708 20.6363C26.1063 20.4083 26.2375 20.1006 26.2344 19.7804V4.8258C26.2375 4.50563 26.1063 4.19794 25.8708 3.96992C25.6352 3.74189 25.3143 3.61225 24.9776 3.60913ZM8.0057 5.06945L0.672176 17.3658C-0.290556 18.9808 0.912464 21.0002 2.83793 21.0002H14.0303L11.9689 17.5407H5.34356L9.90271 9.89397L14.4619 17.5407L16.5233 21.0002H21.3006L11.7997 5.06945C11.6132 4.74615 11.3381 4.47751 11.0046 4.29009C10.671 4.10267 10.29 4.00428 9.90271 4.00428C9.5154 4.00428 9.13442 4.10267 8.80086 4.29009C8.4673 4.47751 8.19224 4.74615 8.0057 5.06945Z" fill="#FF8900"/>
<path d="M45.2786 3.60913H41.8134V12.0149H45.2786V3.60913ZM34.6997 9.25986L39.439 11.815L41.0388 9.36763L36.2173 6.86869C36.6156 5.92221 36.818 4.9117 36.8132 3.89339L33.348 3.69035C33.348 4.60715 33.1315 5.51145 32.711 6.33454C32.3252 7.09359 31.7435 7.748 31.0179 8.2353C30.2939 8.72259 29.4513 9.02715 28.5692 9.1193V12.0821C29.7516 12.0368 30.9104 11.7557 31.9711 11.2575C33.0097 10.7702 33.9377 10.0908 34.6981 9.25986H34.6997ZM33.0603 17.7469H45.2786V12.6178H29.5951V14.9715H41.8545V15.6556H29.6362V20.7831H45.4636V18.431H33.0603V17.7469ZM62.0087 14.2171C60.5733 13.608 58.6605 13.3035 56.2671 13.3019C53.8753 13.3019 51.9609 13.6065 50.5255 14.2171C49.0901 14.8278 48.3724 15.804 48.3724 17.144C48.3724 18.4841 49.0901 19.4602 50.5255 20.0694C51.9609 20.6785 53.8737 20.9846 56.2671 20.9846C58.6605 20.9846 60.5733 20.68 62.0087 20.0694C63.4441 19.4587 64.1618 18.4841 64.1618 17.144C64.1618 15.804 63.4441 14.8294 62.0087 14.2171ZM59.2928 17.9984C58.534 18.1811 57.5254 18.2717 56.2686 18.2701C55.0119 18.2701 54.0033 18.178 53.2445 17.9984C52.4857 17.8187 52.1063 17.5329 52.1063 17.144C52.1063 16.7551 52.4889 16.474 53.254 16.2991C54.0191 16.1117 55.0245 16.0164 56.2686 16.0164C57.5128 16.0164 58.5166 16.1101 59.2833 16.2991C60.0484 16.4865 60.431 16.7692 60.431 17.144C60.431 17.5189 60.0516 17.8172 59.2944 17.9984H59.2928ZM53.7867 10.1251L58.1514 12.5991L59.7765 10.0845L55.1858 7.59182C55.2743 7.27477 55.336 6.95303 55.3692 6.6266H59.16V3.81061H48.0056V6.6266H51.8613C51.7348 7.19824 51.4866 7.73863 51.1325 8.21499C50.761 8.71791 50.2788 9.13648 49.7177 9.44104C49.1201 9.76746 48.4482 9.95332 47.759 9.983V12.9599C48.9415 12.9411 50.1018 12.6631 51.1515 12.1461C52.1664 11.6526 53.0643 10.9638 53.7867 10.1251ZM63.9974 6.24395V3.60913H60.5322V13.0614H63.9974V9.48165H66.0477V6.24395H63.9974Z" fill="#41414F"/>
<path d="M77.1843 3.57015H74.1515V0.415039H71.1368V3.57015H68.104V6.21753H71.1368V9.37264H74.1515V6.21753H77.1843V3.57015Z" fill="#FF8900"/>
</svg>
