<svg width="110" height="32" viewBox="0 0 110 32" fill="none" xmlns="http://www.w3.org/2000/svg">
<path d="M14.5297 4.93544L2.08339 13.2099C1.09424 13.8677 0.5 14.9745 0.5 16.1605V28.4532C0.5 30.4119 2.09182 31.9992 4.05609 31.9992H28.9487C30.913 31.9992 32.5048 30.4119 32.5048 28.4532V16.1605C32.5048 14.9745 31.9105 13.8677 30.9214 13.2099L18.4751 4.93544C17.281 4.14131 15.7247 4.14131 14.5297 4.93544Z" fill="#FF7B00"/>
<path d="M8.00112 1.60672C8.00112 0.719735 7.28109 0 6.39374 0H1.21439C0.819597 0 0.5 0.319465 0.5 0.714098V5.89131C0.5 6.77829 1.22003 7.49803 2.10738 7.49803C2.99473 7.49803 3.71477 6.77829 3.71477 5.89131V3.21344H6.39374C7.28109 3.21344 8.00112 2.4937 8.00112 1.60672Z" fill="#FF7B00"/>
<path d="M30.8937 7.49803C31.7811 7.49803 32.5011 6.77829 32.5011 5.89131V0.714098C32.5011 0.319465 32.1815 0 31.7867 0H26.6074C25.72 0 25 0.719735 25 1.60672C25 2.4937 25.72 3.21344 26.6074 3.21344H29.2864V5.89131C29.2864 6.77829 30.0064 7.49803 30.8937 7.49803Z" fill="#FF7B00"/>
<path d="M22.7497 12.668C21.599 12.668 20.666 13.6233 20.666 14.8015V15.5126L24.8333 22.6653V14.8015C24.8333 13.6233 23.9003 12.668 22.7497 12.668Z" fill="white"/>
<path d="M18.1536 14.1058H18.1505C18.1505 14.1058 18.1513 14.102 18.1505 14.1004C17.1727 12.1905 14.4551 12.1905 13.4773 14.1004C13.4773 14.1004 13.4773 14.1043 13.4773 14.1058H13.4743L7.04972 24.9229C6.89254 25.2303 6.81857 25.5593 6.81934 25.8829C6.81934 25.8907 6.81934 25.8984 6.81934 25.9069C6.81934 27.0613 7.75089 27.9973 8.89973 27.9973H15.8344C16.9832 27.9973 17.9147 27.0613 17.9147 25.9069C17.9147 24.7526 16.9832 23.8166 15.8344 23.8166H12.6236L15.8135 18.6767L15.8028 18.6558C15.8074 18.6643 15.8197 18.6643 15.8243 18.6558L15.8135 18.6767L20.8912 26.8623C21.4167 27.8889 22.6711 28.293 23.6928 27.765C24.7145 27.237 25.1167 25.9766 24.5912 24.95L18.1528 14.1058H18.1536Z" fill="white"/>
<path d="M103.818 19.8494V9.51421H88.6347V5.51758H108.302V19.8494H103.818ZM99.0289 21.9623H109.5V25.9844H87.4883V21.9623H94.5706V13.4599H99.0289V21.9623Z" fill="#111111"/>
<path d="M80.7153 5.00195H84.9188V17.9337H80.7153V5.00195ZM68.2065 14.7262C67.111 16.4827 65.506 17.6283 63.417 17.781V13.988C64.8946 13.5807 65.7863 11.5697 65.9901 8.82039H63.901V5.25652H71.1872V8.82039H69.9389C69.8879 9.6859 69.7605 10.526 69.5822 11.3151L71.442 13.5298C72.4101 12.7152 73.0215 11.0096 73.1744 8.82039H72.0024V5.25652H79.3905V8.82039H77.1232C77.0722 9.58408 76.9703 10.3478 76.8174 11.086L80.6389 15.2354L77.9639 17.5264L75.4672 14.6244C74.3717 16.4318 72.7413 17.6283 70.6013 17.781L68.2065 14.7262ZM65.2258 22.3886V18.6974H84.9188V26.9962H80.537V22.3886H65.2258Z" fill="#111111"/>
<path d="M56.7576 5.00195H61.0631V16.2536H56.7576V5.00195ZM47.9429 13.0461C46.236 14.9044 43.612 16.2791 40.5039 16.3554V12.6134C43.3063 12.4606 45.166 10.6278 45.6755 8.79493H40.8096V5.25652H54.8724V8.79493H50.0574C50.0065 9.17678 49.9046 9.55862 49.8027 9.96592L55.6112 12.9443L53.675 16.1263L47.9429 13.0461ZM56.8341 18.4429V17.0173H61.0631V26.7416H41.5994V17.0173H45.8284V18.4429H56.8341ZM45.8284 23.3305H56.8341V21.7776H45.8284V23.3305Z" fill="#111111"/>
</svg>
