<svg width="56" height="56" viewBox="0 0 56 56" fill="none" xmlns="http://www.w3.org/2000/svg">
<circle cx="28" cy="28" r="23.3335" fill="url(#paint0_linear_1228_145145)"/>
<circle cx="28" cy="28" r="19" fill="url(#paint1_linear_1228_145145)"/>
<path d="M21.5747 18.1538H30.7277C32.2937 18.1538 33.5087 18.5948 34.3727 19.4768C35.2547 20.3588 35.6957 21.5288 35.6957 22.9868C35.6957 23.7068 35.5967 24.3188 35.3987 24.8228C35.2187 25.3268 34.9667 25.7408 34.6427 26.0648C34.3367 26.3888 33.9677 26.6318 33.5357 26.7938C33.1217 26.9378 32.6717 27.0188 32.1857 27.0368V27.1988C32.6357 27.1988 33.1037 27.2798 33.5897 27.4418C34.0937 27.6038 34.5527 27.8648 34.9667 28.2248C35.3807 28.5668 35.7227 29.0168 35.9927 29.5748C36.2807 30.1328 36.4247 30.8168 36.4247 31.6268C36.4247 32.3648 36.2987 33.0668 36.0467 33.7328C35.8127 34.3808 35.4797 34.9478 35.0477 35.4338C34.6157 35.9198 34.1027 36.3068 33.5087 36.5948C32.9147 36.8648 32.2667 36.9998 31.5647 36.9998H21.5747V18.1538ZM25.6787 33.5438H30.4037C30.9437 33.5438 31.3667 33.3998 31.6727 33.1118C31.9967 32.8058 32.1587 32.3828 32.1587 31.8428V30.9248C32.1587 30.3848 31.9967 29.9708 31.6727 29.6828C31.3667 29.3768 30.9437 29.2238 30.4037 29.2238H25.6787V33.5438ZM25.6787 25.8758H29.7557C30.2957 25.8758 30.7187 25.7228 31.0247 25.4168C31.3307 25.1108 31.4837 24.6878 31.4837 24.1478V23.3378C31.4837 22.7978 31.3307 22.3748 31.0247 22.0688C30.7187 21.7628 30.2957 21.6098 29.7557 21.6098H25.6787V25.8758Z" fill="#F8F8F9"/>
<defs>
<linearGradient id="paint0_linear_1228_145145" x1="11" y1="10.5" x2="45" y2="44.5" gradientUnits="userSpaceOnUse">
<stop offset="0.0345714" stop-color="#DFCDA9"/>
<stop offset="0.640929" stop-color="#C29A54"/>
</linearGradient>
<linearGradient id="paint1_linear_1228_145145" x1="45" y1="45" x2="11.5" y2="11.5" gradientUnits="userSpaceOnUse">
<stop stop-color="#D2AE60"/>
<stop offset="0.958543" stop-color="#D6BE8F"/>
</linearGradient>
</defs>
</svg>
