<svg width="35" height="28" viewBox="0 0 35 28" fill="none" xmlns="http://www.w3.org/2000/svg">
<g filter="url(#filter0_d_80_20471)">
<path d="M3 6C3 3.79086 4.79086 2 7 2H28C30.2091 2 32 3.79086 32 6V16C32 18.2091 30.2091 20 28 20H7C4.79086 20 3 18.2091 3 16V6Z" fill="black" fill-opacity="0.8"/>
<path d="M12.168 6.12891C12.9141 6.13281 13.5801 6.25195 14.166 6.48633C14.7559 6.7168 15.2168 7.04297 15.5488 7.46484C15.8809 7.88281 16.0469 8.36719 16.0469 8.91797C16.0469 9.43359 15.9062 9.89258 15.625 10.2949C15.3477 10.6934 14.957 11.0137 14.4531 11.2559C13.9531 11.4941 13.375 11.6406 12.7188 11.6953V13.7578H16.9961V14.6836H7.38672V13.7578H11.6172V11.6953C10.9648 11.6406 10.3887 11.4941 9.88867 11.2559C9.38867 11.0137 8.99805 10.6934 8.7168 10.2949C8.43945 9.89258 8.30078 9.43359 8.30078 8.91797C8.30078 8.36719 8.4668 7.88281 8.79883 7.46484C9.13086 7.04297 9.58984 6.7168 10.1758 6.48633C10.7617 6.25195 11.4258 6.13281 12.168 6.12891ZM12.168 7.04297C11.6328 7.03906 11.1523 7.11523 10.7266 7.27148C10.3047 7.42383 9.97461 7.64453 9.73633 7.93359C9.49805 8.21875 9.37891 8.54688 9.37891 8.91797C9.37891 9.30469 9.49805 9.64258 9.73633 9.93164C9.97461 10.2207 10.3047 10.4434 10.7266 10.5996C11.1484 10.7559 11.6289 10.8359 12.168 10.8398C12.7109 10.8359 13.1934 10.7559 13.6152 10.5996C14.041 10.4434 14.373 10.2207 14.6113 9.93164C14.8496 9.64258 14.9688 9.30469 14.9688 8.91797C14.9688 8.54688 14.8496 8.21875 14.6113 7.93359C14.373 7.64453 14.041 7.42383 13.6152 7.27148C13.1895 7.11523 12.707 7.03906 12.168 7.04297ZM26.3505 8.78906H19.1434V5.64844H20.2333V7.88672H26.3505V8.78906ZM27.4755 10.6055H17.8661V9.71484H27.4755V10.6055ZM26.2684 14.0156H20.1747V14.9883H26.6317V15.8672H19.0614V13.1953H25.1669V12.3164H19.038V11.4492H26.2684V14.0156Z" fill="white"/>
<path d="M14.3856 20.7967C13.8905 20.2873 13.2103 20 12.5 20V20L22.5 20V20C21.7897 20 21.1095 20.2873 20.6144 20.7967L18.934 22.525C18.1486 23.3328 16.8514 23.3328 16.066 22.525L14.3856 20.7967Z" fill="black" fill-opacity="0.8"/>
</g>
<defs>
<filter id="filter0_d_80_20471" x="0" y="0" width="35" height="28" filterUnits="userSpaceOnUse" color-interpolation-filters="sRGB">
<feFlood flood-opacity="0" result="BackgroundImageFix"/>
<feColorMatrix in="SourceAlpha" type="matrix" values="0 0 0 0 0 0 0 0 0 0 0 0 0 0 0 0 0 0 127 0" result="hardAlpha"/>
<feOffset dy="1"/>
<feGaussianBlur stdDeviation="1.5"/>
<feComposite in2="hardAlpha" operator="out"/>
<feColorMatrix type="matrix" values="0 0 0 0 0 0 0 0 0 0 0 0 0 0 0 0 0 0 0.08 0"/>
<feBlend mode="normal" in2="BackgroundImageFix" result="effect1_dropShadow_80_20471"/>
<feBlend mode="normal" in="SourceGraphic" in2="effect1_dropShadow_80_20471" result="shape"/>
</filter>
</defs>
</svg>
