<?xml version="1.0" standalone="no"?>
<!DOCTYPE svg PUBLIC "-//W3C//DTD SVG 1.1//EN" "http://www.w3.org/Graphics/SVG/1.1/DTD/svg11.dtd" >
<svg xmlns="http://www.w3.org/2000/svg" xmlns:xlink="http://www.w3.org/1999/xlink" version="1.1">
<metadata>
Created by FontForge 20170731 at Wed Mar 11 17:26:28 2015
 By Aleksey,,,
Copyright (c) 2015 NHN Corporation. All rights reserved. Font designed by FONTRIX Inc.
</metadata>
<defs>
<font id="nanumbarungothicultralight" horiz-adv-x="892" >
  <font-face 
    font-family="nanumbarungothicultralight"
    font-weight="300"
    font-stretch="normal"
    units-per-em="1000"
    panose-1="0 0 3 0 0 0 0 0 0 0"
    ascent="800"
    descent="-200"
    x-height="505"
    cap-height="715"
    bbox="-6 -281 984 793"
    underline-thickness="25"
    underline-position="-236"
    unicode-range="U+0020-D79D"
  />
<missing-glyph horiz-adv-x="1000" 
d="M392 258v220h220v-220h-220z" />
    <glyph glyph-name=".notdef" horiz-adv-x="1000" 
d="M392 258v220h220v-220h-220z" />
    <glyph glyph-name=".null" horiz-adv-x="0" 
 />
    <glyph glyph-name="nonmarkingreturn" horiz-adv-x="333" 
 />
    <glyph glyph-name="space" unicode=" " horiz-adv-x="224" 
 />
    <glyph glyph-name="exclam" unicode="!" horiz-adv-x="446" 
d="M167 731h52l-12 -560h-32zM236 10q0 -18 -13 -30.5t-31 -12.5t-31 12.5t-13 30.5t13 30.5t31 12.5t31 -12.5t13 -30.5z" />
    <glyph glyph-name="quotedbl" unicode="&#x22;" horiz-adv-x="297" 
d="M69 793h49l-1 -224h-24zM177 793h50l-23 -224h-22z" />
    <glyph glyph-name="numbersign" unicode="#" horiz-adv-x="583" 
d="M215 708h39l-24 -181h160l25 181h39l-24 -181h123l-5 -32h-120l-36 -242h123l-6 -31h-121l-35 -247h-39l35 247h-165l-35 -247h-39l35 247h-117l6 31h116l34 242h-114l5 32h115zM221 496l-37 -245h172l37 245h-172z" />
    <glyph glyph-name="dollar" unicode="$" horiz-adv-x="583" 
d="M285 790h34v-78q45 -2 90 -15.5t79 -37.5v-44q0 -8 -6 -2q-33 27 -73 44t-90 19v-296l24 -10q90 -37 133.5 -80t44.5 -108q0 -39 -14 -72t-40 -58.5t-63.5 -41.5t-84.5 -21v-115h-34v112h-10q-66 0 -119.5 18.5t-82.5 48.5v47q0 2 3 2.5t5 -1.5q34 -36 82.5 -56.5
t113.5 -20.5h8v324l-41 17q-36 14 -65.5 30.5t-50.5 37.5t-32.5 48.5t-11.5 62.5q0 39 15 68.5t42 50.5t63.5 33t80.5 15v79zM473 179q0 31 -12.5 54t-33.5 40.5t-49 32t-59 28.5v-307q72 10 113 51t41 101zM129 546q0 -32 12 -54.5t32 -39t45.5 -29t53.5 -23.5l13 -6v280
q-34 -3 -62.5 -12.5t-49.5 -25.5t-32.5 -38.5t-11.5 -51.5z" />
    <glyph glyph-name="percent" unicode="%" 
d="M629 730h42l-419 -775h-45zM655 341q37 0 65 -15.5t47 -42t28.5 -60.5t9.5 -71q0 -38 -9.5 -71.5t-28.5 -59.5t-47 -41t-65 -15t-65 15t-47 41t-28.5 59.5t-9.5 71.5q0 37 9.5 71t28.5 60.5t47 42t65 15.5zM655 312q-31 0 -51.5 -14t-33 -36.5t-17.5 -51.5t-5 -59t5 -58
t17.5 -50t33 -35.5t51.5 -13.5t51.5 13.5t33 35.5t17.5 50t5 58t-5 59t-17.5 51.5t-33 36.5t-51.5 14zM235 724q37 0 65 -15.5t47 -42t28.5 -60.5t9.5 -71q0 -38 -9.5 -71.5t-28.5 -59.5t-47 -41t-65 -15t-65 15t-47 41t-28.5 59.5t-9.5 71.5q0 37 9.5 71t28.5 60.5t47 42
t65 15.5zM235 695q-31 0 -51.5 -14t-33 -36.5t-17.5 -51.5t-5 -59t5 -58t17.5 -50t33 -35.5t51.5 -13.5t51.5 13.5t33 35.5t17.5 50t5 58t-5 59t-17.5 51.5t-33 36.5t-51.5 14z" />
    <glyph glyph-name="ampersand" unicode="&#x26;" 
d="M366 421q25 18 48.5 37t41.5 39.5t29 44.5t11 53q0 20 -6.5 39t-20.5 34t-36 24t-53 9q-56 0 -85 -33.5t-29 -78.5q0 -24 9 -46t23 -42.5t32 -40.5t35 -39h1zM359 379q-40 -26 -71 -52.5t-52.5 -54.5t-33 -58.5t-11.5 -66.5q0 -35 13.5 -63.5t38 -49.5t59 -32.5
t77.5 -11.5q31 0 63 8t61.5 23.5t54.5 38t43 50.5l-241 269h-1zM643 364q-3 6 3 6h41q12 -66 1 -130.5t-42 -124.5q32 -34 69 -72.5t69 -73.5h-52l-107 118q-19 -29 -46 -54t-58.5 -43t-66 -28t-67.5 -10q-57 0 -103 14t-78.5 39t-50 60t-17.5 78q0 40 13 73.5t37.5 64
t60.5 60t82 61.5q-20 21 -39.5 43.5t-35 45t-25 46t-9.5 47.5q0 28 11 54t32 46.5t50 32.5t65 12q38 0 68 -10.5t51 -28t32 -41t11 -49.5q0 -31 -14.5 -58t-37 -52t-50 -47t-53.5 -42l233 -261q23 43 29.5 78t6.5 69q0 21 -3.5 40t-9.5 37z" />
    <glyph glyph-name="quotesingle" unicode="'" horiz-adv-x="297" 
d="M139 569l-14 224h48l-14 -224h-20z" />
    <glyph glyph-name="parenleft" unicode="(" horiz-adv-x="446" 
d="M218 317q0 -60 12 -121t33.5 -121t52 -116t67.5 -105h-20q-38 39 -73.5 92t-62.5 114t-43 127t-16 130t16 130t43 127t62.5 114t73.5 92h20q-37 -49 -67.5 -105t-52 -116t-33.5 -121t-12 -121z" />
    <glyph glyph-name="parenright" unicode=")" horiz-adv-x="446" 
d="M234 317q0 60 -12 121t-33.5 121t-52 116t-67.5 105h20q38 -39 73.5 -92t62.5 -114t43 -127t16 -130t-16 -130t-43 -127t-62.5 -114t-73.5 -92h-20q37 49 67.5 105t52 116t33.5 121t12 121z" />
    <glyph glyph-name="asterisk" unicode="*" horiz-adv-x="446" 
d="M223 342l-78 -156l-28 17l84 150l-154 -7v34l154 -7l-85 147l29 16l76 -151l77 151l29 -16l-85 -146l154 7v-34l-154 7l84 -147l-28 -17z" />
    <glyph glyph-name="plus" unicode="+" horiz-adv-x="583" 
d="M271 385v218h40v-218h207v-39h-207v-214h-40v214h-206v39h206z" />
    <glyph glyph-name="comma" unicode="," horiz-adv-x="297" 
d="M135 -19q-19 0 -33.5 14t-14.5 34t14.5 32.5t33.5 12.5t33.5 -14t14.5 -43q0 -45 -21.5 -86.5t-73.5 -62.5l-9 15q31 14 47 36.5t21 47.5q2 14 -12 14z" />
    <glyph glyph-name="hyphen" unicode="-" horiz-adv-x="583" 
d="M494 385v-39h-405v39h405z" />
    <glyph glyph-name="period" unicode="." horiz-adv-x="297" 
d="M86 18q0 20 14 34t34 14t34 -14t14 -34t-14 -34t-34 -14t-34 14t-14 34z" />
    <glyph glyph-name="slash" unicode="/" horiz-adv-x="446" 
d="M103 -147h-45l293 930h39z" />
    <glyph glyph-name="zero" unicode="0" horiz-adv-x="583" 
d="M529 346q0 -101 -17.5 -173.5t-49 -120t-75.5 -70t-96 -22.5q-53 0 -96.5 22.5t-75 70t-49 120t-17.5 173.5q0 100 17.5 173t49 120t75 69.5t96.5 22.5q52 0 96 -22.5t75.5 -69.5t49 -120t17.5 -173zM486 346q0 174 -52 261t-143 87t-143 -87t-52 -261t52 -261.5
t143 -87.5t143 87.5t52 261.5z" />
    <glyph glyph-name="one" unicode="1" horiz-adv-x="583" 
d="M132 576v34q18 7 38 18t40 25.5t38 30.5t32 33h59v-747h-42v703h-1q-15 -15 -35 -30t-41.5 -28.5t-42.5 -24.5t-38 -18q-7 -4 -7 4z" />
    <glyph glyph-name="two" unicode="2" horiz-adv-x="583" 
d="M98 600q-2 -2 -4.5 -1.5t-2.5 4.5v49q18 14 39.5 28t46 25.5t53 18.5t59.5 7q96 0 154.5 -45.5t58.5 -133.5q0 -66 -43.5 -134.5t-113.5 -146.5l-229 -262v-1h396v-38h-452v38l248 280q41 45 69.5 81t46 66.5t25.5 58.5t8 57q0 69 -43.5 106t-122.5 37q-54 0 -99 -23.5
t-94 -70.5z" />
    <glyph glyph-name="three" unicode="3" horiz-adv-x="583" 
d="M282 -40q-33 0 -65 5.5t-60.5 15.5t-52 23.5t-39.5 28.5v48q0 4 3 4.5t5 -2.5q40 -42 94 -64t117 -22q39 0 74 12t61 34t41.5 53.5t15.5 71.5q0 42 -16 75t-43.5 55.5t-65.5 34.5t-81 12h-31v35h17q23 0 57 6.5t66 25t54.5 50.5t22.5 83q0 69 -46.5 109t-125.5 40
q-26 0 -49 -3.5t-45 -12.5t-44.5 -24t-48.5 -37q-8 -6 -8 3v45q13 12 34 23.5t46.5 21t54 15.5t57.5 6q104 0 161 -49.5t57 -129.5q0 -67 -37.5 -118.5t-112.5 -68.5v-2q33 -5 64 -20t54.5 -39.5t38 -58.5t14.5 -77q0 -44 -16.5 -82t-47.5 -66t-75 -44t-99 -16z" />
    <glyph glyph-name="four" unicode="4" horiz-adv-x="583" 
d="M382 717h57v-529h120v-38h-120v-180h-42v180h-369v35zM401 683l-39 -67l-284 -427v-3h321v422z" />
    <glyph glyph-name="five" unicode="5" horiz-adv-x="583" 
d="M74 55q42 -31 91.5 -44.5t105.5 -13.5q45 1 83.5 17t67 42.5t44.5 62t16 77.5q0 49 -18 84t-49.5 57.5t-74.5 32.5t-93 10q-39 0 -81 -6.5t-68 -13.5l20 355h364v-38h-325l-17 -277h1q29 6 65.5 10.5t66.5 4.5q58 0 104.5 -14.5t79.5 -42t51 -66.5t18 -87
q0 -53 -17.5 -98t-51 -77.5t-82 -51t-109.5 -18.5q-63 0 -112.5 14t-85.5 39v39q0 3 2 4t4 -1z" />
    <glyph glyph-name="six" unicode="6" horiz-adv-x="583" 
d="M494 659q-54 35 -128 35q-61 0 -108.5 -30t-80.5 -82t-51.5 -122t-20.5 -150h2q32 74 85.5 108t120.5 34q47 0 86.5 -17.5t68.5 -50t45 -77t16 -96.5q0 -56 -16.5 -102t-46.5 -79t-72.5 -51.5t-94.5 -18.5q-60 0 -104 24.5t-73 70t-43.5 110t-14.5 144.5q0 69 17 144
t53 136.5t93 101.5t138 40q42 0 75 -8.5t61 -21.5v-39q0 -4 -2.5 -4.5t-4.5 1.5zM115 215q0 -42 13.5 -81t38.5 -69.5t58.5 -49t74.5 -18.5q48 0 83 18.5t58 48t34 67t11 75.5q0 41 -11.5 79.5t-34 68t-56.5 47.5t-79 18q-38 0 -71 -17t-58.5 -45.5t-41.5 -65t-19 -76.5z
" />
    <glyph glyph-name="seven" unicode="7" horiz-adv-x="583" 
d="M517 670l-309 -700h-47l317 707h-425v38h464v-45z" />
    <glyph glyph-name="eight" unicode="8" horiz-adv-x="583" 
d="M290 346q-36 0 -72.5 -13t-65 -37t-46.5 -56.5t-18 -71.5q0 -41 17 -73t45 -53.5t64.5 -33t75.5 -11.5t75.5 11.5t64.5 33t45 53.5t17 73q0 39 -18 71.5t-46.5 56.5t-65 37t-72.5 13zM290 696q-38 0 -71 -11t-58.5 -31.5t-40 -49t-14.5 -63.5q0 -39 16 -68t42.5 -49
t59.5 -30t66 -10t66 10t59.5 30t42.5 49t16 68q0 35 -14.5 63.5t-40 49t-59 31.5t-70.5 11zM290 731q52 0 93.5 -14.5t71 -39.5t45.5 -59.5t16 -74.5q0 -60 -37.5 -108.5t-111.5 -69.5v-2q88 -26 128 -79t40 -122q0 -43 -17.5 -80t-49.5 -64t-77 -42.5t-101 -15.5t-101 15.5
t-77 42.5t-49.5 64t-17.5 80q0 69 40 122t128 79v2q-74 21 -111.5 69.5t-37.5 108.5q0 40 16 74.5t45.5 59.5t71 39.5t93.5 14.5z" />
    <glyph glyph-name="nine" unicode="9" horiz-adv-x="583" 
d="M474 491q0 41 -12.5 78t-36 64.5t-58 44t-77.5 16.5q-47 0 -82.5 -18.5t-59.5 -48t-36 -67t-12 -75.5q0 -41 11.5 -78.5t35 -66.5t58 -46.5t79.5 -17.5t80.5 17.5t60 47.5t37 69t12.5 81zM489 395h-1q-24 -76 -77 -114.5t-133 -38.5q-48 0 -88.5 18t-70 50.5t-46 76.5
t-16.5 96q0 53 16.5 98.5t47 78.5t73 52t93.5 19q74 0 120.5 -29.5t72.5 -78t35.5 -110t9.5 -124.5q0 -83 -16.5 -160.5t-52 -137t-91.5 -95.5t-135 -36q-42 0 -79 9.5t-60 20.5v37q0 5 5 3q19 -12 55 -22.5t78 -10.5q121 0 189.5 102.5t70.5 295.5z" />
    <glyph glyph-name="colon" unicode=":" horiz-adv-x="297" 
d="M106 133q0 20 14 34t34 14t34 -14t14 -34t-14 -34t-34 -14t-34 14t-14 34zM106 552q0 20 14 34t34 14t34 -14t14 -34t-14 -34t-34 -14t-34 14t-14 34z" />
    <glyph glyph-name="semicolon" unicode=";" horiz-adv-x="297" 
d="M106 552q0 20 14 34t34 14t34 -14t14 -34t-14 -34t-34 -14t-34 14t-14 34zM153 88q-19 0 -33.5 14t-14.5 34t14.5 32.5t33.5 12.5t33.5 -14t14.5 -43q0 -45 -21.5 -86.5t-73.5 -62.5l-9 15q31 14 47 36.5t21 47.5q2 14 -12 14z" />
    <glyph glyph-name="less" unicode="&#x3c;" horiz-adv-x="446" 
d="M99 326l246 456h44l-245 -456l253 -473h-44z" />
    <glyph glyph-name="equal" unicode="=" horiz-adv-x="583" 
d="M494 479v-39h-407v39h407zM494 262v-39h-407v39h407z" />
    <glyph glyph-name="greater" unicode="&#x3e;" horiz-adv-x="446" 
d="M94 -147h-44l254 473l-245 456h44l246 -456z" />
    <glyph glyph-name="question" unicode="?" horiz-adv-x="669" 
d="M304 10q0 -18 -13 -30.5t-31 -12.5t-31 12.5t-13 30.5t13 30.5t31 12.5t31 -12.5t13 -30.5zM92 637q-2 -2 -4.5 -1.5t-2.5 4.5v44q39 29 81 44.5t90 15.5q47 0 85.5 -11t66 -31.5t42.5 -50.5t15 -68q0 -29 -12 -57.5t-30.5 -55t-40 -50t-40.5 -41.5q-16 -16 -29 -30
t-22 -29t-13.5 -32.5t-4.5 -39.5q0 -21 2 -42.5t5 -35.5h-35q-5 16 -9.5 36t-4.5 40q0 26 6.5 48.5t19 42.5t30 40t40.5 41q35 32 61.5 74.5t26.5 90.5q0 57 -43.5 90t-114.5 33q-94 0 -165 -69z" />
    <glyph glyph-name="at" unicode="@" horiz-adv-x="1052" 
d="M541 517q-37 0 -69 -22t-55.5 -58.5t-37 -83.5t-13.5 -97q0 -75 32.5 -116.5t87.5 -41.5q37 0 68.5 19.5t54 54.5t35 85t12.5 111q0 78 -26 113.5t-89 35.5zM837 -10q2 3 5 2.5t3 -4.5v-50q-27 -18 -61 -32t-72.5 -24.5t-80.5 -16t-84 -5.5q-119 0 -205.5 31.5t-143 88.5
t-84 136t-27.5 174q0 101 34 187t95 148.5t145 98t184 35.5q102 0 183 -29.5t138 -82.5t87.5 -126.5t30.5 -160.5q0 -72 -20 -127.5t-52.5 -93.5t-73 -57.5t-80.5 -19.5q-32 0 -54 9t-35.5 24t-19.5 36t-6 45h-1q-28 -53 -66 -84t-103 -31q-38 0 -67.5 14.5t-50 41
t-31.5 62.5t-11 80q0 67 20.5 121t53 91.5t73 58t81.5 21.5t77 -20t47 -66l13 73h43l-39 -352q-2 -20 0 -37.5t11 -30.5t26.5 -20.5t44.5 -7.5q30 0 60.5 17.5t55.5 50.5t40.5 81t15.5 109q0 92 -27.5 162.5t-78.5 118.5t-122.5 73t-158.5 25q-88 0 -163.5 -32.5t-130.5 -90
t-86.5 -137.5t-31.5 -175q0 -92 27 -165t79.5 -125t129 -79.5t176.5 -27.5q97 0 169.5 28.5t118.5 66.5z" />
    <glyph glyph-name="A" unicode="A" horiz-adv-x="644" 
d="M478 239l-137 377l-22 66l-23 -66l-137 -377h319zM290 717h57l274 -747h-49l-82 232h-343l-82 -232h-48z" />
    <glyph glyph-name="B" unicode="B" horiz-adv-x="627" 
d="M327 678h-190v-286h155q96 0 153.5 38t57.5 109q0 67 -44 103t-132 36zM302 356h-165v-349h188q54 0 94.5 13.5t67.5 38t40.5 58t13.5 73.5q0 78 -64 122t-175 44zM335 -30h-240v745h241q52 0 91 -13.5t65 -36t39.5 -52.5t13.5 -63q0 -72 -36.5 -112.5t-109.5 -60.5v-1
q39 -6 72.5 -21t58 -38.5t39 -55.5t14.5 -72q0 -45 -15.5 -85t-46.5 -70t-77.5 -47t-108.5 -17z" />
    <glyph glyph-name="C" unicode="C" horiz-adv-x="639" 
d="M599 84q2 3 5 2.5t3 -4.5v-47q-36 -33 -94 -54t-132 -21q-77 0 -139 26.5t-106.5 76t-68.5 119.5t-24 158t27 158.5t74 120.5t110.5 77t136.5 27q66 0 117.5 -15.5t89.5 -49.5v-43q0 -5 -2.5 -6t-5.5 2q-48 45 -94.5 59.5t-101.5 14.5q-67 0 -123.5 -24.5t-97 -69.5
t-63 -108t-22.5 -139q0 -85 22 -149.5t61.5 -107.5t95 -65t123.5 -22q78 0 127.5 24t81.5 60z" />
    <glyph glyph-name="D" unicode="D" horiz-adv-x="721" 
d="M271 679h-134v-672h127q85 0 152 22t113 65.5t70.5 107t24.5 146.5q0 158 -87.5 244.5t-265.5 86.5zM283 -30h-188v745h188q96 0 168.5 -26.5t120.5 -74.5t72 -116t24 -150q0 -90 -27.5 -160.5t-77.5 -118.5t-121 -73.5t-159 -25.5z" />
    <glyph glyph-name="E" unicode="E" horiz-adv-x="596" 
d="M544 -30h-445v745h444v-38h-402v-286h374v-37h-374v-346h403v-38z" />
    <glyph glyph-name="F" unicode="F" horiz-adv-x="554" 
d="M517 715v-39h-376v-283h361v-37h-361v-386h-42v745h418z" />
    <glyph glyph-name="G" unicode="G" horiz-adv-x="710" 
d="M628 604q-32 35 -83 57.5t-120 22.5q-71 0 -131 -21.5t-104 -63.5t-69 -105t-25 -146q0 -95 27.5 -161t73 -107.5t104.5 -60.5t123 -19q62 0 106 17t70 43v244h-199v35h241v-312q-27 -16 -52 -28.5t-51 -21t-55.5 -13t-66.5 -4.5q-79 0 -146 24t-115.5 72t-75.5 120
t-27 168q0 91 28 161.5t77 119t116 73.5t145 25q69 0 121 -17t95 -46v-53q0 -4 -2.5 -4.5t-4.5 1.5z" />
    <glyph glyph-name="H" unicode="H" horiz-adv-x="718" 
d="M619 715v-745h-42v388h-439v-388h-42v745h42v-319h439v319h42z" />
    <glyph glyph-name="I" unicode="I" horiz-adv-x="247" 
d="M149 715v-745h-42v745h42z" />
    <glyph glyph-name="J" unicode="J" horiz-adv-x="410" 
d="M316 190q0 -67 -14 -112.5t-39.5 -73.5t-63 -40t-83.5 -12q-33 0 -53 4.5t-37 9.5v35q9 -5 29.5 -10t47.5 -5q91 0 131 47t40 149v533h42v-525z" />
    <glyph glyph-name="K" unicode="K" horiz-adv-x="626" 
d="M584 715l-287 -299v-2l310 -444h-54l-284 416h-2l-129 -132v-284h-42v745h42v-405h2l389 405h55z" />
    <glyph glyph-name="L" unicode="L" horiz-adv-x="529" 
d="M505 9v-39h-406v745h42v-706h364z" />
    <glyph glyph-name="M" unicode="M" horiz-adv-x="884" 
d="M417 -30l-246 615l-33 92l1 -101v-606h-40v745h65l252 -633l27 -73l27 73l252 633h65v-745h-40v606l1 101l-33 -92l-246 -615h-52z" />
    <glyph glyph-name="N" unicode="N" horiz-adv-x="710" 
d="M518 101l51 -94l-1 102v606h42v-745h-63l-356 614l-52 94l2 -101v-607h-42v745h62z" />
    <glyph glyph-name="O" unicode="O" horiz-adv-x="752" 
d="M374 -40q-78 0 -137.5 28.5t-99 79.5t-60 121.5t-20.5 154.5t20.5 153.5t60 119.5t99 78t137.5 28t137.5 -28t100 -78.5t61 -120t20.5 -153.5t-20.5 -154t-61 -121t-100 -79.5t-137.5 -28.5zM374 0q67 0 118.5 26t86 72t52.5 109t18 136q0 74 -18 136.5t-52.5 108.5
t-86 71.5t-118.5 25.5q-68 0 -119 -25.5t-85 -71.5t-51.5 -108.5t-17.5 -136.5q0 -73 17.5 -136t51.5 -109t85 -72t119 -26z" />
    <glyph glyph-name="P" unicode="P" horiz-adv-x="586" 
d="M545 497q0 -112 -73.5 -171t-216.5 -59h-114v-297h-42v745h178q57 0 106 -13.5t85 -40.5t56.5 -68t20.5 -96zM503 497q0 46 -18.5 80t-51 56.5t-78 33t-99.5 10.5h-116v-372h102q56 0 104 8.5t83 30t54.5 58.5t19.5 95z" />
    <glyph glyph-name="Q" unicode="Q" horiz-adv-x="752" 
d="M374 -40q-78 0 -137.5 28.5t-99 79.5t-60 121.5t-20.5 154.5t20.5 153.5t60 119.5t99 78t137.5 28t137.5 -28t100 -78.5t61 -120t20.5 -153.5q0 -92 -27.5 -168.5t-78.5 -128.5l103 -112h-49l-80 88q-38 -29 -84.5 -45.5t-102.5 -16.5zM374 0q96 0 161 51l-93 105h45
l74 -81q44 45 66 113.5t22 154.5q0 74 -18 136.5t-52.5 108.5t-86 71.5t-118.5 25.5q-68 0 -119 -25.5t-85 -71.5t-51.5 -108.5t-17.5 -136.5q0 -73 17.5 -136t51.5 -109t85 -72t119 -26z" />
    <glyph glyph-name="R" unicode="R" horiz-adv-x="610" 
d="M380 297v-1l190 -326h-55l-177 319h-197v-319h-42v745h205q122 0 184.5 -55t62.5 -151q0 -75 -41 -130.5t-130 -81.5zM509 508q0 45 -15.5 77t-43 52.5t-65 30.5t-82.5 10h-163v-352h151q49 0 89 11t68.5 33.5t44.5 57t16 80.5z" />
    <glyph glyph-name="S" unicode="S" horiz-adv-x="592" 
d="M63 31v50q0 3 3 3.5t5 -2.5q35 -38 84.5 -59.5t115.5 -21.5q46 0 83 11.5t63 32.5t40 51t14 66q0 34 -13 58.5t-34.5 43.5t-50.5 34t-61 30l-74 32q-37 15 -67 32.5t-51.5 40.5t-33.5 51.5t-12 66.5q0 44 17.5 77t48.5 54.5t73 32.5t91 11q48 0 97.5 -14.5t85.5 -41.5
v-47q0 -8 -6 -2q-35 29 -77.5 48t-95.5 19q-39 0 -73.5 -8.5t-60 -25.5t-40 -42t-14.5 -59t12.5 -58t32.5 -42t46.5 -31t54.5 -25l73 -31q92 -40 136 -85.5t45 -114.5q0 -46 -17.5 -84t-49.5 -65t-79 -42t-105 -15q-68 0 -122 19.5t-84 51.5z" />
    <glyph glyph-name="T" unicode="T" horiz-adv-x="621" 
d="M330 -30h-42v706h-271v39h583v-39h-270v-706z" />
    <glyph glyph-name="U" unicode="U" horiz-adv-x="696" 
d="M349 -39h-2q-76 0 -129 26.5t-85 73.5q-26 38 -36 86.5t-10 120.5v447h42v-444q0 -62 9.5 -109t35.5 -83q26 -35 71.5 -56t102.5 -21t102 21t71 56q27 36 36.5 83t9.5 109v444h42v-448q0 -71 -10.5 -119t-36.5 -87q-32 -46 -85 -73t-128 -27z" />
    <glyph glyph-name="V" unicode="V" horiz-adv-x="635" 
d="M291 -30l-274 745h44l226 -609l32 -95l32 95l222 609h44l-270 -745h-56z" />
    <glyph glyph-name="W" unicode="W" horiz-adv-x="961" 
d="M509 716l160 -607l21 -94l23 94l169 606h47l-212 -745h-53l-162 611l-22 96l-22 -96l-162 -611h-53l-212 745h46l170 -606l23 -94l21 94l160 607h58z" />
    <glyph glyph-name="X" unicode="X" horiz-adv-x="617" 
d="M311 309h-2l-221 -339h-53l248 371v1l-236 373h51l211 -339h2l209 339h51l-236 -373v-1l248 -371h-53z" />
    <glyph glyph-name="Y" unicode="Y" horiz-adv-x="611" 
d="M330 -30h-42v325l-264 420h49l235 -379h2l233 379h49l-262 -420v-325z" />
    <glyph glyph-name="Z" unicode="Z" horiz-adv-x="594" 
d="M46 6l444 671v1h-421v37h474v-36l-445 -671v-1h454v-37h-506v36z" />
    <glyph glyph-name="bracketleft" unicode="[" horiz-adv-x="446" 
d="M396 778v-27h-129v-869h129v-27h-175v923h175z" />
    <glyph glyph-name="backslash" unicode="\" horiz-adv-x="961" 
d="M42 385h129l-81 307h41l79 -307h171l76 308h51l75 -308h172l79 307h42l-82 -307h128v-27h-135l-97 -366h-46l-91 366h-141l-90 -366h-47l-97 366h-136v27zM648 122l19 -88l20 88l61 236h-158zM279 122l20 -88l18 88l58 236h-158zM483 656l-19 -90l-45 -181h128l-45 181z
" />
    <glyph glyph-name="bracketright" unicode="]" horiz-adv-x="446" 
d="M227 780v-925h-177v27h131v871h-131v27h177z" />
    <glyph glyph-name="asciicircum" unicode="^" horiz-adv-x="434" 
d="M244 793l170 -197h-49l-147 175h-3l-148 -175h-47l166 197h58z" />
    <glyph glyph-name="underscore" unicode="_" horiz-adv-x="446" 
d="M434 -138h-422v27h422v-27z" />
    <glyph glyph-name="grave" unicode="`" horiz-adv-x="297" 
d="M219 569h-22l-113 224h55z" />
    <glyph glyph-name="a" unicode="a" horiz-adv-x="560" 
d="M422 179v95l-199 -28q-32 -5 -58.5 -18t-45.5 -32t-29.5 -41.5t-10.5 -46.5q0 -56 35.5 -82.5t92.5 -26.5q43 0 82 13.5t68.5 37.5t47 57t17.5 72zM99 415q-3 -2 -6 -1.5t-3 5.5v47q35 23 82.5 40.5t103.5 17.5q48 0 83 -9.5t58 -30.5t34 -55t11 -84v-375h-41l-8 96
q-19 -30 -43 -50.5t-51 -32.5t-56 -17t-58 -5q-85 0 -126.5 39.5t-41.5 102.5q0 78 52.5 121.5t138.5 56.5l191 26v28q0 77 -31.5 113.5t-113.5 36.5q-27 0 -49.5 -5t-43 -14t-40.5 -22t-42 -29z" />
    <glyph glyph-name="b" unicode="b" horiz-adv-x="588" 
d="M128 271v-103q0 -36 15.5 -66.5t41 -52.5t59.5 -34.5t72 -12.5q37 0 70.5 17t58 48.5t39 77t14.5 102.5t-13.5 100t-37 72t-56.5 43.5t-72 14.5q-33 0 -67 -15.5t-61.5 -43t-45 -65.5t-17.5 -82zM327 516q48 0 88 -17.5t69 -51t45 -83.5t16 -116q0 -68 -18 -121
t-49 -90.5t-72.5 -57t-87.5 -19.5q-28 0 -55.5 6.5t-51.5 18.5t-43 29.5t-31 38.5h-2l-5 -83h-42v799h41v-380h2q12 22 30.5 45t43.5 41t55.5 29.5t66.5 11.5z" />
    <glyph glyph-name="c" unicode="c" horiz-adv-x="490" 
d="M462 52q2 2 4.5 2t2.5 -3v-46q-24 -20 -65.5 -32.5t-85.5 -12.5q-62 0 -112.5 18t-85.5 53t-54 86t-19 118q0 60 18.5 111t53.5 89t85 59.5t112 21.5q41 0 78.5 -13t67.5 -31v-45q0 -4 -2.5 -4.5t-4.5 1.5q-31 26 -63.5 40.5t-74.5 14.5q-54 0 -95.5 -19.5t-70 -53
t-43 -77.5t-14.5 -93q0 -53 15 -96.5t44 -75t72.5 -49t99.5 -17.5q37 0 76 14t61 40z" />
    <glyph glyph-name="d" unicode="d" horiz-adv-x="588" 
d="M460 284q0 37 -13.5 71.5t-37.5 61.5t-57.5 43.5t-72.5 16.5q-40 0 -74.5 -17.5t-60 -50.5t-40 -79t-14.5 -103q0 -59 13.5 -102t37.5 -70.5t56.5 -41t70.5 -13.5q41 0 76 13t61 36t40.5 54t14.5 67v114zM269 516q70 0 117.5 -31t70.5 -79h2v363h41v-799h-39l-5 96h-2
q-29 -51 -78 -78.5t-113 -27.5q-47 0 -87 16t-69 49t-46 84t-17 121q0 66 17.5 118.5t48 90t71.5 57.5t88 20z" />
    <glyph glyph-name="e" unicode="e" horiz-adv-x="559" 
d="M295 516q54 0 95.5 -17.5t70 -48.5t43 -75t14.5 -96v-29h-422v-26q3 -104 58 -163.5t161 -60.5q55 0 100.5 15.5t76.5 45.5q2 3 4.5 2.5t2.5 -4.5v-43q-34 -29 -87.5 -42.5t-107.5 -13.5q-60 0 -108 20.5t-81 57t-51 87t-18 110.5q0 63 18.5 115t51.5 88.5t78.5 57
t100.5 20.5zM97 285h370q0 98 -45.5 147.5t-128.5 49.5q-38 0 -71 -14t-59 -39.5t-43 -60.5t-23 -78v-5z" />
    <glyph glyph-name="f" unicode="f" horiz-adv-x="340" 
d="M337 735q-11 7 -25.5 11.5t-31.5 4.5q-27 0 -49.5 -7t-38 -23.5t-24.5 -45t-9 -70.5v-100h157v-39h-156v-496h-41v496h-96v39h96v101q0 51 12 85t33 54.5t50 29t63 8.5q25 0 39.5 -4t25.5 -11v-31q0 -2 -1.5 -3t-3.5 1z" />
    <glyph glyph-name="g" unicode="g" horiz-adv-x="588" 
d="M457 291q0 37 -14 70.5t-38.5 59t-58 41t-72.5 15.5q-41 0 -75 -15.5t-59 -45.5t-39 -74t-14 -101q0 -59 13.5 -101.5t37 -69.5t55.5 -40t70 -13q41 0 76.5 13t61.5 35.5t41 53.5t15 67v105zM457 82h-1q-34 -51 -83 -78t-115 -27q-47 0 -86.5 15.5t-68.5 48t-45.5 83
t-16.5 120.5q0 66 16.5 116.5t45.5 85t70 52.5t91 18q70 0 114.5 -31t70.5 -75h2l4 95h42v-500q0 -78 -15.5 -131.5t-47.5 -86.5t-80.5 -48t-113.5 -15q-53 0 -92 11t-70 26v43q0 4 2 4.5t4 -1.5q38 -26 74.5 -38t81.5 -12q114 0 165.5 59.5t51.5 193.5v72z" />
    <glyph glyph-name="h" unicode="h" horiz-adv-x="592" 
d="M519 290v-320h-41v317q0 51 -10.5 87.5t-29.5 60t-46 34t-59 10.5q-37 0 -74 -17t-66 -46t-47.5 -66.5t-18.5 -77.5v-302h-41v799h41v-386h1q13 27 35 51.5t49 42.5t57.5 28.5t61.5 10.5q88 0 138 -53.5t50 -172.5z" />
    <glyph glyph-name="i" unicode="i" horiz-adv-x="244" 
d="M141 505v-535h-41v535h41zM161 696q0 -17 -11.5 -28.5t-28.5 -11.5t-28.5 11.5t-11.5 28.5t11.5 28.5t28.5 11.5t28.5 -11.5t11.5 -28.5z" />
    <glyph glyph-name="j" unicode="j" horiz-adv-x="301" 
d="M204 -78q0 -63 -12 -103t-35 -62.5t-57.5 -30t-79.5 -5.5v35q32 -2 58.5 3t45 22t29 49t10.5 85v590h41v-583zM218 696q0 -17 -11.5 -28.5t-28.5 -11.5t-28.5 11.5t-11.5 28.5t11.5 28.5t28.5 11.5t28.5 -11.5t11.5 -28.5z" />
    <glyph glyph-name="k" unicode="k" horiz-adv-x="530" 
d="M245 289l258 -319h-52l-232 294h-2l-88 -83v-211h-41v799h41v-535h2l286 271h54l-226 -214v-2z" />
    <glyph glyph-name="l" unicode="l" horiz-adv-x="244" 
d="M139 769v-799h-41v799h41z" />
    <glyph glyph-name="m" unicode="m" 
d="M434 -30v317q0 103 -35 146.5t-91 43.5q-33 0 -65 -17.5t-57 -47t-40.5 -67.5t-15.5 -78v-297h-40v535h37l6 -133q31 68 76 106t102 38q59 0 99.5 -34t60.5 -118q32 75 78.5 113.5t103.5 38.5q78 0 121.5 -57t43.5 -169v-320h-40v317q0 51 -9.5 87.5t-26 59t-40.5 33
t-52 10.5q-33 0 -64.5 -17.5t-56.5 -47t-40 -67.5t-15 -78v-297h-40z" />
    <glyph glyph-name="n" unicode="n" horiz-adv-x="592" 
d="M133 392q14 26 35.5 48.5t48 39.5t55.5 26.5t59 9.5q88 0 138 -53.5t50 -172.5v-320h-41v317q0 51 -10.5 87.5t-29.5 60t-46 34t-59 10.5q-37 0 -74 -17t-66 -46t-47.5 -66.5t-18.5 -77.5v-302h-41v535h41l5 -113h1z" />
    <glyph glyph-name="o" unicode="o" horiz-adv-x="577" 
d="M531 239q0 -63 -17 -114t-48.5 -88t-76.5 -57t-101 -20t-100.5 20t-76 57t-48 88t-16.5 114t16.5 114t48 87t76 56t100.5 20t101 -20t76.5 -56t48.5 -87t17 -114zM488 239q0 55 -14.5 99t-41 75t-63.5 48t-81 17t-80.5 -17t-62.5 -48t-40.5 -75t-14.5 -99t14.5 -99.5
t40.5 -76t62.5 -48.5t80.5 -17t81 17t63.5 48.5t41 76t14.5 99.5z" />
    <glyph glyph-name="p" unicode="p" horiz-adv-x="588" 
d="M128 271v-103q0 -36 15.5 -66.5t42 -52.5t60.5 -34t72 -12q37 0 71 16t59.5 47t40.5 76.5t15 104.5q0 57 -14 100t-38.5 72t-58 43.5t-72.5 14.5q-37 0 -72 -15.5t-62 -43t-43 -65.5t-16 -82zM329 516q101 0 161 -68t60 -200q0 -70 -18 -123.5t-49 -90t-72.5 -55
t-87.5 -18.5q-61 1 -114.5 25t-79.5 74h-1v-337h-41v782h39l4 -108h1q12 22 31.5 43.5t45 38.5t56 27t65.5 10z" />
    <glyph glyph-name="q" unicode="q" horiz-adv-x="588" 
d="M456 281q0 37 -14 72t-39 63t-59 45t-73 17q-41 0 -75.5 -18t-60 -50t-39.5 -78t-14 -103q0 -59 13.5 -102t37.5 -71t56.5 -41.5t70.5 -13.5q41 0 76.5 13t62 36.5t42 54.5t15.5 67v109zM261 514q35 0 64.5 -9.5t53.5 -25t42.5 -36.5t31.5 -44h1l3 106h39v-781h-41v339
h-2q-59 -102 -198 -102q-47 0 -87 16t-69 49.5t-46 84.5t-17 121q0 66 16.5 118t46.5 88.5t71.5 56t90.5 19.5z" />
    <glyph glyph-name="r" unicode="r" horiz-adv-x="383" 
d="M306 472q-35 0 -67 -15.5t-57 -41.5t-39.5 -62t-14.5 -76v-305h-42v533h38l4 -100h2q25 51 73 81t112 30q20 -1 35.5 -4.5t23.5 -7.5v-43q0 -5 -2.5 -5.5t-4.5 1.5q-9 5 -25 10t-36 5z" />
    <glyph glyph-name="s" unicode="s" horiz-adv-x="475" 
d="M52 61q45 -35 89.5 -48.5t88.5 -13.5q66 0 109 25.5t43 84.5q0 33 -29.5 58.5t-79.5 43.5l-64 23q-75 27 -109 62t-34 86q0 57 45.5 95.5t133.5 38.5q45 0 87.5 -12.5t75.5 -32.5v-47q0 -5 -2.5 -4.5t-4.5 2.5q-32 27 -71 43t-92 16q-24 0 -46.5 -6.5t-39.5 -19
t-27 -29.5t-10 -38q0 -41 28.5 -66.5t69.5 -41.5l67 -25q35 -13 63 -27t47.5 -31.5t29.5 -40t10 -52.5q0 -68 -55 -105.5t-145 -37.5q-49 0 -99 12t-85 35v50q0 3 2 4t4 -1z" />
    <glyph glyph-name="t" unicode="t" horiz-adv-x="357" 
d="M338 18v-35q-16 -11 -41 -16.5t-51 -5.5q-63 0 -96.5 29t-33.5 104v375h-106v36h106v137h41v-137h160v-36h-160v-373q0 -50 17.5 -75.5t67.5 -25.5q60 0 90 25q6 4 6 -2z" />
    <glyph glyph-name="u" unicode="u" horiz-adv-x="592" 
d="M76 182v323h41v-319q0 -51 11.5 -87t32 -58.5t48.5 -32.5t60 -10q37 0 71.5 16.5t61.5 44.5t43 65t16 78v303h41v-535h-35l-5 117h-1q-12 -25 -30.5 -48t-43 -40t-55 -27.5t-67.5 -10.5q-43 0 -77 12t-60 39q-25 27 -38.5 69.5t-13.5 100.5z" />
    <glyph glyph-name="v" unicode="v" horiz-adv-x="530" 
d="M265 4l29 77l161 424h46l-209 -535h-56l-210 535h47l161 -424z" />
    <glyph glyph-name="w" unicode="w" horiz-adv-x="788" 
d="M416 505l138 -443l15 -59l15 59l129 443h41l-160 -535h-49l-139 449l-13 52l-13 -52l-139 -449h-49l-160 535h41l129 -443l15 -59l15 59l138 443h46z" />
    <glyph glyph-name="x" unicode="x" horiz-adv-x="528" 
d="M264 215h-1l-185 -245h-49l210 271v1l-198 263h47l175 -234h1l175 234h47l-198 -263v-1l210 -271h-49z" />
    <glyph glyph-name="y" unicode="y" horiz-adv-x="530" 
d="M35 -273v34q0 5 5 3q9 -4 21.5 -6t23.5 -2q20 0 38 4.5t34.5 17t31.5 34.5t29 56l35 93v1l-235 543h44l177 -411l36 -89l32 89l153 411h45l-237 -618q-16 -42 -32.5 -73.5t-37.5 -52.5t-49 -31.5t-66 -10.5q-29 0 -48 8z" />
    <glyph glyph-name="z" unicode="z" horiz-adv-x="473" 
d="M35 3l332 462v1h-317v39h367v-33l-332 -463v-1h349v-38h-399v33z" />
    <glyph glyph-name="braceleft" unicode="{" horiz-adv-x="446" 
d="M212 334q44 -16 66 -47t22 -81v-244q0 -45 18 -65t48 -20h33v-26h-53q-17 0 -33 5t-28 17.5t-19.5 33.5t-7.5 54v232q0 26 -5.5 49.5t-18 41t-32.5 29t-48 13.5v17q28 2 48 13.5t32.5 29t18 40t5.5 48.5v200q0 33 7.5 54t19.5 33.5t28 17.5t33 5h53v-26h-33
q-30 0 -48 -20t-18 -65v-210q0 -51 -22 -81.5t-66 -46.5v-1z" />
    <glyph glyph-name="bar" unicode="|" horiz-adv-x="446" 
d="M208 -145v925h28v-925h-28z" />
    <glyph glyph-name="braceright" unicode="}" horiz-adv-x="446" 
d="M234 335q-44 16 -67 46.5t-23 81.5v210q0 45 -17 65t-47 20h-33v26h53q17 0 33 -5t28 -17.5t19.5 -33.5t7.5 -54v-200q0 -26 5.5 -48.5t18 -40t32.5 -29t48 -13.5v-17q-28 -2 -48 -13.5t-32.5 -29t-18 -41t-5.5 -49.5v-232q0 -33 -7.5 -54t-19.5 -33.5t-28 -17.5t-33 -5
h-53v26h33q30 0 47 20t17 65v244q0 50 23 81t67 47v1z" />
    <glyph glyph-name="asciitilde" unicode="~" horiz-adv-x="669" 
d="M324 390q28 -23 54 -39.5t62 -16.5q14 0 28.5 6.5t27.5 17.5t24 25t19 29q2 4 4.5 3.5t2.5 -4.5v-49q-7 -11 -17.5 -23t-24.5 -22t-31 -16t-36 -6q-27 0 -49.5 9.5t-45.5 28.5q-14 12 -27.5 22t-27 17.5t-28.5 12t-33 4.5q-14 0 -28.5 -6.5t-27.5 -17.5t-24.5 -24.5
t-18.5 -28.5q-2 -4 -4.5 -3.5t-2.5 4.5v49q7 11 17.5 23t24.5 21.5t31 15.5t36 6q27 0 49.5 -9.5t45.5 -28.5z" />
    <glyph glyph-name="uni3131" unicode="&#x3131;" 
d="M680 67v425h-527v40h570v-465h-43z" />
    <glyph glyph-name="uni3132" unicode="&#x3132;" 
d="M709 67v426h-253v39h295v-465h-42zM358 67v426h-242v39h286v-465h-44z" />
    <glyph glyph-name="uni3133" unicode="&#x3133;" 
d="M360 65v428h-247v39h290v-467h-43zM428 83q48 37 83.5 87.5t58 110t31 126t2.5 134.5h46q0 -38 -1 -73.5t-6 -64.5q19 -92 65 -174t109 -138l-37 -33q-21 21 -43.5 51t-43 65t-38 74t-28.5 78q-30 -97 -71 -160.5t-92 -110.5z" />
    <glyph glyph-name="uni3134" unicode="&#x3134;" 
d="M735 85h-565v460h43v-420h522v-40z" />
    <glyph glyph-name="uni3135" unicode="&#x3135;" 
d="M416 76h-288v469h43v-429h245v-40zM424 92q66 39 116.5 90.5t85.5 106t54.5 108t22.5 96.5q-37 -2 -78 -2h-77h-69v40h150h61t61 1q-4 -58 -24 -123.5t-51 -121.5q27 -56 71 -107t101 -88q-8 -8 -17.5 -18t-16.5 -16q-21 15 -43.5 36t-44 46.5t-40.5 53.5t-34 56
q-24 -32 -46 -58t-45 -49.5t-48 -44t-53 -40.5z" />
    <glyph glyph-name="uni3136" unicode="&#x3136;" 
d="M427 76h-301v468h43v-428h258v-40zM415 396v37h395v-37h-395zM505 514v37h221v-37h-221zM465 194q0 26 10 51t29 44.5t47 31.5t64 12t64 -11.5t47 -31t29 -44t10 -50.5t-10 -50.5t-29 -44t-47 -31t-64 -11.5t-64 11.5t-47 30t-29 43t-10 50.5zM507 194q0 -39 27 -69
t81 -30t81 30t27 69q0 19 -7 38t-20.5 33t-33.5 23t-47 9q-26 0 -46.5 -9t-34 -23.5t-20.5 -33t-7 -37.5z" />
    <glyph glyph-name="uni3137" unicode="&#x3137;" 
d="M172 532h561v-40h-517v-373h522v-40h-566v453z" />
    <glyph glyph-name="uni3138" unicode="&#x3138;" 
d="M453 532h308v-40h-266v-373h280v-40h-322v453zM421 79h-309v453h290v-40h-247v-373h266v-40z" />
    <glyph glyph-name="uni3139" unicode="&#x3139;" 
d="M750 73h-591v258h520v169h-523v39h566v-246h-520v-182h548v-38z" />
    <glyph glyph-name="uni313A" unicode="&#x313a;" 
d="M448 73h-324v258h259v169h-258v39h302v-246h-261v-181h282v-39zM713 62v438h-240v39h283v-477h-43z" />
    <glyph glyph-name="uni313B" unicode="&#x313b;" 
d="M429 73h-308v258h248v169h-247v39h291v-246h-250v-181h266v-39zM476 539h292v-466h-292v466zM515 501v-390h213v390h-213z" />
    <glyph glyph-name="uni313C" unicode="&#x313c;" 
d="M432 73h-311v258h251v169h-250v39h294v-246h-253v-181h269v-39zM480 544h39v-173h209v178h40v-476h-288v471zM519 334v-225h209v225h-209z" />
    <glyph glyph-name="uni313D" unicode="&#x313d;" 
d="M420 73h-296v257h244v170h-243v39h286v-247h-245v-181h254v-38zM434 89q48 38 83 89.5t56.5 112.5t30 128.5t2.5 136.5h45q0 -38 -0.5 -75.5t-5.5 -66.5q17 -92 62 -176t105 -141q-10 -9 -18.5 -17.5l-17.5 -17.5q-21 22 -42.5 52t-41 65t-36.5 73.5t-28 77.5
q-15 -50 -32.5 -89t-37 -71.5t-41.5 -58.5t-46 -50z" />
    <glyph glyph-name="uni313E" unicode="&#x313e;" 
d="M481 539h288v-38h-248v-170h246v-38h-246v-182h261v-38h-301v466zM429 73h-308v258h248v169h-247v39h291v-246h-250v-182h266v-38z" />
    <glyph glyph-name="uni313F" unicode="&#x313f;" 
d="M425 73h-306v256h246v171h-245v39h289v-248h-248v-179h264v-39zM788 539v-40h-62l-3 -388h74v-38h-344v38h66l-2 390h-70v38h341zM686 502h-130l2 -392h125z" />
    <glyph glyph-name="uni3140" unicode="&#x3140;" 
d="M442 73h-323v258h246v169h-245v39h288v-246h-246v-181h280v-39zM456 395v38h360v-38h-360zM523 510v39h209v-39h-209zM479 189q0 26 10 51t29 44.5t47 31.5t64 12t63.5 -11.5t46 -31t28.5 -44t10 -50.5t-9.5 -50.5t-28.5 -43t-46.5 -30t-63.5 -11.5t-64 11t-47 29.5
t-29 42.5t-10 50zM522 189q0 -39 26.5 -67t80.5 -28q53 0 80 28t27 67q0 19 -7 37.5t-20.5 32.5t-33.5 22.5t-46 8.5q-27 0 -47 -8.5t-33.5 -23t-20 -32.5t-6.5 -37z" />
    <glyph glyph-name="uni3141" unicode="&#x3141;" 
d="M686 118v375h-481v-375h481zM161 78v455h569v-455h-569z" />
    <glyph glyph-name="uni3142" unicode="&#x3142;" 
d="M686 336h-481v-224h481v224zM161 72v479h44v-174h481v174h44v-479h-569z" />
    <glyph glyph-name="uni3143" unicode="&#x3143;" 
d="M129 551h40v-175h209v175h40v-479h-289v479zM169 338v-227h210v227h-210zM478 551h40v-175h205v175h40v-479h-285v479zM517 338v-227h206v227h-206z" />
    <glyph glyph-name="uni3144" unicode="&#x3144;" 
d="M116 551h43v-175h214v175h41v-478h-298v478zM159 336v-224h214v224h-214zM430 89q51 39 86.5 92.5t56.5 114.5t29 127.5t4 132.5h43q0 -39 -1 -76t-6 -68q5 -44 19.5 -88.5t37 -85.5t51.5 -77t64 -64q-11 -8 -19.5 -16.5t-18.5 -16.5q-47 38 -88 106t-64 155
q-26 -88 -66.5 -156t-91.5 -112z" />
    <glyph glyph-name="uni3145" unicode="&#x3145;" 
d="M462 421q46 -115 136.5 -200t209.5 -127q-8 -11 -14.5 -19t-14.5 -19q-49 18 -99 49.5t-95 73t-82.5 91.5t-59.5 104q-55 -123 -137.5 -200t-188.5 -122q-8 10 -14.5 19t-14.5 18q78 29 142 76t109 107.5t69.5 132t23.5 150.5h46q-1 -32 -4.5 -67.5t-11.5 -66.5z" />
    <glyph glyph-name="uni3146" unicode="&#x3146;" 
d="M312 543q1 -29 -3 -68.5t-10 -70.5q7 -28 22 -56.5t35 -54t43.5 -47t47.5 -35.5q-16 -22 -31 -34q-41 29 -78 76.5t-59 100.5q-11 -38 -32.5 -75.5t-48.5 -71.5t-58.5 -61.5t-62.5 -44.5q-9 8 -16 16.5t-16 16.5q59 30 102.5 73.5t71 96t40 113t9.5 126.5h44zM356 86
q59 33 102.5 82t72 108.5t41 127.5t9.5 139h45q1 -45 -1.5 -79.5t-5.5 -52.5q9 -41 29.5 -81t49 -76t64 -66t74.5 -50l-32 -33q-29 18 -57 40t-54 51t-49.5 67.5t-44.5 89.5q-14 -47 -36 -91.5t-50 -83.5t-60 -70t-65 -52z" />
    <glyph glyph-name="uni3147" unicode="&#x3147;" 
d="M445 99q61 0 109.5 16.5t82.5 44.5t51.5 65.5t17.5 79.5t-17.5 79.5t-51.5 65.5t-82.5 44.5t-109.5 16.5q-62 0 -110 -16.5t-82 -44.5t-51.5 -65.5t-17.5 -79.5t17.5 -79.5t51.5 -65.5t82 -44.5t110 -16.5zM445 60q-74 0 -131 19.5t-95.5 53t-58.5 78t-20 94.5
q0 49 20 93.5t58.5 78t95.5 53t131 19.5t131 -19.5t95.5 -53t58.5 -78t20 -93.5q0 -50 -20 -94.5t-58.5 -78t-95.5 -53t-131 -19.5z" />
    <glyph glyph-name="uni3148" unicode="&#x3148;" 
d="M505 282q35 -25 69 -46.5t70 -40.5t75 -36t84 -33q-8 -11 -14 -19.5t-14 -19.5q-79 31 -158 75t-144 94q-81 -59 -170.5 -102t-177.5 -78q-7 8 -15 18.5t-14 18.5q96 30 182 72.5t156 92.5t119.5 105t72.5 111q-30 -1 -65 -1.5t-71 -0.5h-71h-65h-175v40h424h45t45 1
q-12 -33 -32 -67t-44.5 -66.5t-53 -62.5t-58.5 -55z" />
    <glyph glyph-name="uni3149" unicode="&#x3149;" 
d="M642 290q38 -37 88 -74.5t102 -67.5q-9 -11 -15.5 -18.5t-15.5 -18.5q-47 31 -93 66t-85 80q-43 -63 -104.5 -126t-131.5 -109q-9 8 -16.5 16t-15.5 16q72 43 129.5 99.5t98.5 116t65 118t30 105.5q-14 -1 -32 -1.5t-37 -0.5h-37h-33h-87v40h119h36t40.5 0.5l41 1
t38.5 0.5q-6 -60 -26.5 -122.5t-58.5 -120.5zM332 325q31 -34 71 -63.5t79 -52.5q-12 -12 -19.5 -20t-14.5 -13q-17 11 -35.5 25t-37 30t-35.5 32t-30 31q-45 -56 -95 -102.5t-118 -88.5q-8 8 -17.5 15.5t-16.5 13.5q51 25 101.5 67t92 91.5t69.5 103t34 101.5
q-32 -2 -75 -2h-75h-77v40h116q40 0 81 0.5t81 1.5q-8 -54 -27.5 -108t-51.5 -102z" />
    <glyph glyph-name="uni314A" unicode="&#x314a;" 
d="M600 591v-40h-319v40h319zM711 449q-20 -61 -69 -116t-127 -109q135 -80 285 -127q-7 -11 -13 -19.5t-13 -19.5q-78 29 -152 63.5t-143 79.5q-78 -47 -163.5 -84t-171.5 -65q-6 10 -12.5 19t-12.5 18q101 31 189 69.5t157 81t116.5 88t68.5 90.5q-29 -1 -64 -2
t-70.5 -1.5t-70.5 -0.5h-64h-202v40h264q61 0 127.5 0.5t132.5 2.5q5 1 7.5 -1.5t0.5 -6.5z" />
    <glyph glyph-name="uni314B" unicode="&#x314b;" 
d="M676 65v207q-78 -16 -155.5 -20.5t-155.5 -4.5h-238v40h258q73 0 146.5 4t144.5 12v191h-537v40h581v-469h-44z" />
    <glyph glyph-name="uni314C" unicode="&#x314c;" 
d="M161 74v464h577v-39h-533v-168h525v-38h-525v-180h549v-39h-593z" />
    <glyph glyph-name="uni314D" unicode="&#x314d;" 
d="M138 492v40h619v-40h-619zM127 78v40h135l-8 331h44l5 -331h282l9 331h44l-10 -331h140v-40h-641z" />
    <glyph glyph-name="uni314E" unicode="&#x314e;" 
d="M615 594v-41h-339v41h339zM787 452v-39h-684v39h684zM712 193q0 -31 -16 -59t-49 -49.5t-83.5 -34.5t-118.5 -13t-117.5 13t-82.5 34.5t-49 49.5t-16 59q0 30 16 57.5t48.5 48.5t82.5 33t118 12q69 0 119 -12t83 -33t49 -48.5t16 -57.5zM667 193q0 22 -11 42t-37.5 36
t-69 25.5t-105.5 9.5q-62 0 -103.5 -9.5t-67 -25.5t-36.5 -36t-11 -42q0 -21 11 -42t36.5 -38t67 -27.5t103.5 -10.5q63 0 105.5 10.5t69 27.5t37.5 38t11 42z" />
    <glyph glyph-name="uni314F" unicode="&#x314f;" 
d="M680 334h-246v-483h-43v906h43v-382h246v-41z" />
    <glyph glyph-name="uni3150" unicode="&#x3150;" 
d="M599 -149h-44v473h-220v-450h-41v872h41v-384h220v395h44v-906z" />
    <glyph glyph-name="uni3151" unicode="&#x3151;" 
d="M438 189v-339h-42v907h42v-237h240v-39h-240v-253h240v-39h-240z" />
    <glyph glyph-name="uni3152" unicode="&#x3152;" 
d="M333 177v-303h-40v872h40v-240h224v251h43v-907h-43v327h-224zM558 469h-226v-256h226v256z" />
    <glyph glyph-name="uni3153" unicode="&#x3153;" 
d="M293 334v41h248v382h43v-907h-43v484h-248z" />
    <glyph glyph-name="uni3154" unicode="&#x3154;" 
d="M614 -150h-43v907h43v-907zM381 746h43v-872h-43v450h-191v39h191v383z" />
    <glyph glyph-name="uni3155" unicode="&#x3155;" 
d="M295 189v39h240v253h-240v39h240v237h42v-907h-42v339h-240z" />
    <glyph glyph-name="uni3156" unicode="&#x3156;" 
d="M384 191h-182v38h183v251h-183v38h182v228h43v-873h-43v318zM614 -150h-43v907h43v-907z" />
    <glyph glyph-name="uni3157" unicode="&#x3157;" 
d="M466 536v-404h400v-38h-840v38h394v404h46z" />
    <glyph glyph-name="uni3158" unicode="&#x3158;" 
d="M885 393v-39h-153v-504h-42v907h42v-364h153zM292 462h44v-335h-44v335zM16 94v38h154q52 0 113 1.5t123.5 5t124 9t114.5 13.5v-35q-53 -9 -113 -15t-122 -9.5t-123 -5.5t-116 -2h-155z" />
    <glyph glyph-name="uni3159" unicode="&#x3159;" 
d="M798 757v-907h-41v472h-163v-448h-40v872h40v-386h163v397h41zM238 462h42v-338h-42v338zM31 96v38h108q39 0 86.5 1t97 4t98 7.5t89.5 11.5v-36q-87 -15 -185.5 -20.5t-185.5 -5.5h-108z" />
    <glyph glyph-name="uni315A" unicode="&#x315a;" 
d="M41 94v38h193q52 0 112.5 1.5t123 5t123.5 9t114 13.5v-35q-53 -9 -112.5 -15t-121 -9.5t-122.5 -5.5t-116 -2h-194zM797 757v-907h-42v907h42zM332 462h44v-321h-44v321z" />
    <glyph glyph-name="uni315B" unicode="&#x315b;" 
d="M309 531v-394h268v394h46v-394h243v-38h-840v38h237v394h46z" />
    <glyph glyph-name="uni315C" unicode="&#x315c;" 
d="M420 24v404h-394v38h840v-38h-400v-404h-46z" />
    <glyph glyph-name="uni315D" unicode="&#x315d;" 
d="M795 757v-907h-42v251h-237v39h237v617h42zM42 298v40h170q52 0 113.5 1.5t124.5 4.5t124 8.5t114 14.5v-37q-121 -19 -238 -24.5t-237 -7.5h-171zM339 306v-435h-44v433z" />
    <glyph glyph-name="uni315E" unicode="&#x315e;" 
d="M581 103h-170v35h170v608h39v-880h-39v237zM758 -150v907h41v-907h-41zM23 298v39h138q40 0 86.5 1t93.5 3.5t93.5 7t87.5 11.5v-35q-92 -17 -178 -21.5t-174 -5.5h-147zM286 308v-432h-41v430z" />
    <glyph glyph-name="uni315F" unicode="&#x315f;" 
d="M796 757v-907h-43v907h43zM368 291v-420h-45v420h45zM42 287v40h178q52 0 112.5 1.5t123 5t123.5 9t114 14.5v-38q-52 -8 -112 -14t-121.5 -10t-122.5 -6t-116 -2h-179z" />
    <glyph glyph-name="uni3160" unicode="&#x3160;" 
d="M263 29v394h-237v38h840v-38h-243v-394h-46v394h-268v-394h-46z" />
    <glyph glyph-name="uni3161" unicode="&#x3161;" 
d="M864 248v-36h-836v36h836z" />
    <glyph glyph-name="uni3162" unicode="&#x3162;" 
d="M792 757v-907h-42v907h42zM39 117v40h194q53 0 113.5 1.5t122 5t122 8.5t113.5 13v-39q-53 -9 -112 -14.5t-120 -8.5t-122 -4.5t-116 -1.5h-195z" />
    <glyph glyph-name="uni3163" unicode="&#x3163;" 
d="M424 757h43v-906h-43v906z" />
    <glyph glyph-name="uniAC00" unicode="&#xac00;" 
d="M66 71l-31 33q93 45 165 107t123 134t80.5 152t37.5 162q-69 -2 -131 -2.5t-122 -0.5h-120v39h183q61 0 122.5 0.5t117.5 2.5q-17 -207 -121.5 -364t-303.5 -263zM886 394v-41h-165v-482h-43v906h43v-383h165z" />
    <glyph glyph-name="uniAC01" unicode="&#xac01;" 
d="M70 270l-26 36q78 22 144.5 56.5t118.5 82.5t88 110.5t52 140.5q-68 -2 -135.5 -2.5t-128.5 -0.5h-92v40h151q69 0 130 0.5t126 2.5q-19 -165 -127.5 -286t-300.5 -180zM878 524v-42h-152v-235h-43v530h43v-253h152zM726 -132h-43v281h-514v39h557v-320z" />
    <glyph glyph-name="uniAC04" unicode="&#xac04;" 
d="M73 233l-27 33q76 26 143 63t119.5 88t89 118.5t50.5 154.5q-68 -2 -137 -2.5t-130 -0.5h-91v40h150q69 0 130 0.5t126 2.5q-17 -176 -121.5 -302t-301.5 -195zM878 486v-40h-152v-328h-43v659h43v-291h152zM741 -70v-41h-538v273h43v-232h495z" />
    <glyph glyph-name="uniAC07" unicode="&#xac07;" 
d="M69 280l-25 36q76 22 142.5 55t119 79.5t88.5 107.5t53 138q-68 -2 -135 -2.5t-128 -0.5h-93v40h152q69 0 130 0.5t126 2.5q-20 -164 -130 -281.5t-300 -174.5zM878 526v-41h-152v-223h-43v515h43v-251h152zM745 -115h-554v319h537v-40h-493v-239h510v-40z" />
    <glyph glyph-name="uniAC08" unicode="&#xac08;" 
d="M66 319l-23 37q77 18 143.5 48t118.5 72t89 96.5t55 123.5q-69 -2 -135.5 -2.5t-128.5 -0.5h-94v40h154q69 0 130 0.5t127 2.5q-23 -153 -136.5 -261t-299.5 -156zM878 558v-39h-152v-191h-43v449h43v-219h152zM747 -79v-40h-565v221h501v132h-501v40h544v-212h-501v-141
h522z" />
    <glyph glyph-name="uniAC09" unicode="&#xac09;" 
d="M878 561v-39h-152v-189h-43v444h43v-216h152zM726 -132h-43v371h-217v38h260v-409zM329 -119h-171v218h228v140h-228v38h271v-214h-228v-143h153q49 0 85.5 5t56.5 13v-35q-29 -12 -71 -17t-96 -5zM66 322l-23 37q77 18 143.5 47.5t118.5 71t89 95.5t55 123
q-69 -2 -135.5 -2.5t-128.5 -0.5h-94v40h154q69 0 130 0.5t127 2.5q-23 -153 -136.5 -259.5t-299.5 -154.5z" />
    <glyph glyph-name="uniAC0A" unicode="&#xac0a;" 
d="M463 -115v392h263v-392h-263zM684 240h-181v-317h181v317zM263 -117h-114v216h226v140h-226v38h267v-214h-225v-141h97q51 0 91 5t60 13v-36q-31 -12 -75.5 -16.5t-100.5 -4.5zM878 561v-39h-152v-189h-43v444h43v-216h152zM66 322l-23 37q77 18 143.5 47.5t118.5 71
t89 95.5t55 123q-69 -2 -135.5 -2.5t-128.5 -0.5h-94v40h154q69 0 130 0.5t127 2.5q-23 -153 -136.5 -259.5t-299.5 -154.5z" />
    <glyph glyph-name="uniAC10" unicode="&#xac10;" 
d="M68 289l-25 37q76 21 142.5 53.5t119.5 77.5t90 104.5t54 134.5q-69 -2 -135.5 -2.5t-128.5 -0.5h-94v40h154q69 0 130 0.5t127 2.5q-21 -161 -132.5 -276.5t-301.5 -170.5zM878 531v-41h-152v-218h-43v505h43v-246h152zM726 215v-330h-537v330h537zM683 -75v250h-450
v-250h450z" />
    <glyph glyph-name="uniAC11" unicode="&#xac11;" 
d="M67 308l-24 36q77 19 143 50.5t118 75t88.5 100t54.5 126.5q-69 -2 -135 -2.5t-128 -0.5h-93v40h153q69 0 129.5 0.5t125.5 2.5q-11 -78 -44.5 -145.5t-89 -122t-130.5 -95t-168 -65.5zM878 552v-40h-152v-203h-43v468h43v-225h152zM726 252v-367h-537v361h44v-111h450
v117h43zM232 -75h452v171h-452v-171z" />
    <glyph glyph-name="uniAC12" unicode="&#xac12;" 
d="M453 254v-369h-297v361h43v-119h213v127h41zM67 308l-24 36q77 19 143 50.5t118 75t88.5 100t54.5 126.5q-69 -2 -135 -2.5t-128 -0.5h-93v40h153q69 0 129.5 0.5t125.5 2.5q-11 -78 -44.5 -145.5t-89 -122t-130.5 -95t-168 -65.5zM199 -75h213v164h-213v-164zM504 -124
l-33 30q44 28 76.5 66.5t53 84.5t29 96.5t4.5 102.5h44q0 -69 -12 -124q9 -35 26.5 -66.5t41 -59t50 -50.5t53.5 -41l-33 -35q-45 34 -88 81.5t-67 107.5q-21 -60 -57.5 -106.5t-87.5 -86.5zM878 552v-40h-152v-203h-43v468h43v-225h152z" />
    <glyph glyph-name="uniAC13" unicode="&#xac13;" 
d="M72 245l-28 34q76 25 143 61.5t120 87t89 116.5t51 152q-68 -2 -136 -2.5t-129 -0.5h-91v40h150q69 0 130 0.5t126 2.5q-18 -174 -123.5 -299t-301.5 -192zM120 -90q75 18 135.5 50t102.5 74.5t64.5 94t22.5 107.5h46q0 -47 -15 -90q16 -38 48 -75t74.5 -69t93.5 -56
t105 -35l-22 -37q-52 12 -100.5 35t-90 53t-74.5 65.5t-54 73.5q-21 -39 -52.5 -74.5t-72 -64.5t-88.5 -52t-100 -36zM878 505v-40h-152v-291h-43v603h43v-272h152z" />
    <glyph glyph-name="uniAC14" unicode="&#xac14;" 
d="M468 -127q-53 29 -97.5 79.5t-72.5 107.5q-26 -60 -71.5 -107t-107.5 -79l-29 34q47 21 84 52.5t62.5 71t37.5 86.5t9 100h43q1 -24 -1 -47t-6 -44q4 -22 16 -48.5t30.5 -54t44.5 -54t59 -47.5q35 25 62.5 59t45.5 72.5t26 81t5 86.5h40q1 -26 -1 -50.5t-7 -47.5
q6 -26 21 -55t38 -57.5t54.5 -53.5t70.5 -44l-29 -35q-57 29 -101.5 78t-71.5 103q-23 -64 -64 -111t-90 -76zM68 289l-24 37q76 21 142 53.5t118.5 77.5t89.5 104.5t54 134.5q-69 -2 -136 -2.5t-128 -0.5h-93v40h152q69 0 130 0.5t126 2.5q-20 -161 -131 -276.5
t-300 -170.5zM878 530v-41h-152v-217h-43v505h43v-247h152z" />
    <glyph glyph-name="uniAC15" unicode="&#xac15;" 
d="M70 275l-26 36q76 22 142.5 55.5t119 80.5t89 109t52.5 140q-68 -2 -135.5 -2.5t-128.5 -0.5h-92v40h151q69 0 130 0.5t126 2.5q-19 -165 -127.5 -283.5t-300.5 -177.5zM878 529v-42h-152v-241h-43v531h43v-248h152zM451 -135q-68 0 -121.5 13.5t-90.5 37.5t-56.5 57
t-19.5 72t19.5 71.5t56.5 56t90.5 36.5t121.5 13t121.5 -13t90.5 -36.5t56.5 -56t19.5 -71.5t-19.5 -72t-56.5 -57t-90.5 -37.5t-121.5 -13.5zM451 -97q60 0 105 11.5t76 31t46.5 45.5t15.5 54t-15.5 53.5t-46 44t-76 29.5t-105.5 11q-61 0 -106.5 -11t-76 -29.5t-46 -44
t-15.5 -53.5t15.5 -54t46.5 -45.5t76.5 -31t105.5 -11.5z" />
    <glyph glyph-name="uniAC16" unicode="&#xac16;" 
d="M205 216h291q56 0 106 0.5t112 2.5q11 0 4 -14q-20 -52 -71 -100t-125 -90q63 -29 141 -56.5t156 -44.5l-22 -41q-36 9 -78 22.5t-84 29t-82 33t-73 35.5q-72 -37 -155 -67t-173 -53l-24 38q100 21 185.5 52t153.5 67t116.5 75t72.5 76q-66 -4 -131.5 -4.5t-119.5 -0.5
h-200v40zM68 289l-24 37q76 21 142 53.5t118.5 77.5t89.5 104.5t54 134.5q-69 -2 -136 -2.5t-128 -0.5h-93v40h152q69 0 130 0.5t126 2.5q-20 -161 -131 -276.5t-300 -170.5zM878 527v-41h-152v-214h-43v505h43v-250h152z" />
    <glyph glyph-name="uniAC17" unicode="&#xac17;" 
d="M212 174h282q56 0 106 0.5t112 2.5q11 0 5 -14q-23 -49 -70.5 -90t-110.5 -74q62 -27 136.5 -50t149.5 -34l-22 -39q-41 6 -82 17t-80 25t-75.5 29t-67.5 30q-78 -36 -164 -62t-169 -40l-22 37q88 13 168.5 35t147.5 51t118 64.5t80 75.5q-33 -2 -69.5 -2.5t-71.5 -0.5
h-67h-56h-178v39zM68 289l-24 37q76 21 142 53.5t118.5 77.5t89.5 104.5t54 134.5q-69 -2 -136 -2.5t-128 -0.5h-93v40h152q69 0 130 0.5t126 2.5q-20 -161 -131 -276.5t-300 -170.5zM878 549v-40h-152v-216h-43v484h43v-228h152zM321 251v40h264v-40h-264z" />
    <glyph glyph-name="uniAC19" unicode="&#xac19;" 
d="M66 318l-23 37q77 19 143 49t118.5 72.5t89 97t55.5 122.5q-69 -2 -135.5 -2.5t-128.5 -0.5h-94v40h154q69 0 130 0.5t127 2.5q-23 -153 -136.5 -261.5t-299.5 -156.5zM878 556v-39h-152v-188h-43v448h43v-221h152zM726 62h-494v-138h515v-39h-558v386h539v-38h-496v-135
h494v-36z" />
    <glyph glyph-name="uniAC1A" unicode="&#xac1a;" 
d="M878 534v-41h-152v-218h-43v502h43v-243h152zM767 -75v-40h-615v40h124l-4 252h-109v40h589v-40h-111l-4 -252h130zM317 -75h280l4 252h-288zM68 289l-24 37q76 21 142 53.5t118.5 77.5t89.5 104.5t54 134.5q-69 -2 -136 -2.5t-128 -0.5h-93v40h152q69 0 130 0.5t126 2.5
q-20 -161 -131 -276.5t-300 -170.5z" />
    <glyph glyph-name="uniAC1B" unicode="&#xac1b;" 
d="M66 318l-23 37q77 19 143 49t118.5 72.5t89 97.5t55.5 123q-69 -2 -135.5 -2.5t-128.5 -0.5h-94v39h154q69 0 130 0.5t127 2.5q-23 -153 -136.5 -261.5t-299.5 -156.5zM878 549v-40h-152v-207h-43v475h43v-228h152zM761 154h-624v39h624v-39zM593 260h-294v40h294v-40z
M451 -101q47 0 86.5 5t68 15t44.5 25t16 35q0 39 -56 59.5t-159 20.5t-159 -20.5t-56 -59.5q0 -20 15.5 -35t44 -25t68 -15t87.5 -5zM451 -140q-60 0 -107.5 8t-81 23.5t-51.5 37.5t-18 50q0 57 68 87.5t190 30.5q121 0 189.5 -30.5t68.5 -87.5q0 -28 -18 -50t-51.5 -37.5
t-81.5 -23.5t-107 -8z" />
    <glyph glyph-name="uniAC1C" unicode="&#xac1c;" 
d="M786 777v-906h-42v495h-169v-472h-42v873h42v-361h169v371h42zM79 70l-34 31q81 46 140.5 107.5t100 133.5t62.5 151.5t28 161.5q-105 -3 -206 -3h-93v40h143q50 0 100.5 0.5t100.5 2.5q-11 -207 -94 -363t-248 -262z" />
    <glyph glyph-name="uniAC1D" unicode="&#xac1d;" 
d="M74 253l-26 34q63 24 120.5 61.5t103 88.5t75.5 115.5t39 142.5q-53 -2 -110.5 -2.5t-108.5 -0.5h-76v39h124q57 0 108 0.5t108 2.5q-4 -83 -30 -156.5t-72 -135t-110.5 -110t-144.5 -79.5zM794 777v-535h-41v248h-168v-248h-40v525h40v-238h168v248h41zM794 -132h-42
v274h-540v40h582v-314z" />
    <glyph glyph-name="uniAC20" unicode="&#xac20;" 
d="M75 232l-26 33q63 25 120 64t102.5 92t76 120t38.5 148q-53 -2 -110.5 -2.5t-108.5 -0.5h-76v39h124q57 0 108 0.5t108 2.5q-4 -84 -29 -159.5t-70.5 -139t-110 -113.5t-146.5 -84zM794 777v-659h-41v333h-168v-313h-40v629h40v-279h168v289h41zM811 -70v-41h-564v285h43
v-244h521z" />
    <glyph glyph-name="uniAC24" unicode="&#xac24;" 
d="M71 303l-22 34q64 18 121.5 51t102.5 79t74.5 103.5t38.5 124.5q-53 -2 -110 -2.5t-108 -0.5h-77v39h126q57 0 108 0.5t108 2.5q-3 -77 -31.5 -144.5t-76.5 -123.5t-113 -97.5t-141 -65.5zM794 777v-454h-41v193h-168v-193h-40v444h40v-214h168v224h41zM816 -80v-39h-588
v214h524v132h-524v38h566v-206h-524v-139h546z" />
    <glyph glyph-name="uniAC2C" unicode="&#xac2c;" 
d="M73 268l-24 35q63 22 120.5 57.5t102.5 85t75 112t39 137.5q-53 -2 -110.5 -2.5t-108.5 -0.5h-76v39h124q57 0 108 0.5t108 2.5q-3 -81 -30 -152.5t-73.5 -131.5t-111 -106.5t-143.5 -75.5zM794 777v-515h-41v239h-168v-239h-40v505h40v-228h168v238h41zM794 204v-319
h-561v319h561zM752 -76v240h-477v-240h477z" />
    <glyph glyph-name="uniAC2D" unicode="&#xac2d;" 
d="M72 282l-24 35q64 21 121.5 55.5t102.5 82.5t75 108t39 132q-53 -2 -110.5 -2.5t-108.5 -0.5h-76v39h125q57 0 108 0.5t108 2.5q-3 -79 -30.5 -149t-75 -128.5t-112 -103t-142.5 -71.5zM794 777v-478h-41v212h-168v-212h-40v468h40v-219h168v229h41zM794 241v-356h-561
v351h42v-110h477v115h42zM274 -76h479v163h-479v-163z" />
    <glyph glyph-name="uniAC2F" unicode="&#xac2f;" 
d="M794 777v-605h-41v319h-168v-225h-40v501h40v-237h168v247h41zM74 246l-25 34q63 24 120 62.5t102.5 90t75.5 117t39 145.5q-53 -2 -110.5 -2.5t-108.5 -0.5h-76v39h124q57 0 108 0.5t108 2.5q-8 -168 -100.5 -295t-256.5 -193zM143 -90q75 17 136 47t104 70t66.5 89
t23.5 103h47q0 -47 -16 -89q18 -37 50.5 -71.5t75.5 -64t94.5 -51t106.5 -32.5l-20 -37q-53 12 -102.5 33t-92 49.5t-76.5 62.5t-56 71q-21 -38 -54 -71.5t-74 -61.5t-89.5 -49t-101.5 -34z" />
    <glyph glyph-name="uniAC30" unicode="&#xac30;" 
d="M500 -127q-53 28 -98.5 77t-71.5 105q-26 -58 -71 -103.5t-106 -77.5l-30 34q47 20 84 50.5t62.5 69.5t37.5 85t9 97h42q1 -46 -8 -90q4 -21 16.5 -47t32 -52t45.5 -51.5t59 -45.5q35 24 62 56.5t44.5 70.5t25.5 79.5t5 83.5h40q1 -49 -8 -96q6 -26 21 -54t38 -55.5
t54.5 -52t69.5 -42.5l-30 -36q-58 29 -101.5 75.5t-70.5 99.5q-24 -62 -64.5 -107t-88.5 -73zM794 777v-515h-41v245h-168v-245h-40v505h40v-222h168v232h41zM73 268l-23 33q63 22 120 58t102 85.5t75 112.5t39 138q-53 -2 -110.5 -2.5t-108.5 -0.5h-76v39h124q57 0 108 0.5
t108 2.5q-3 -81 -30 -152.5t-73.5 -131.5t-111 -106.5t-143.5 -75.5z" />
    <glyph glyph-name="uniAC31" unicode="&#xac31;" 
d="M74 253l-26 34q63 24 120.5 61.5t103 88.5t75.5 115.5t39 142.5q-53 -2 -110.5 -2.5t-108.5 -0.5h-76v39h124q57 0 108 0.5t108 2.5q-4 -83 -30 -156.5t-72 -135t-110.5 -110t-144.5 -79.5zM794 777v-558h-41v283h-168v-235h-40v500h40v-227h168v237h41zM494 -134
q-70 0 -125 13.5t-93.5 37.5t-58.5 56t-20 69q0 38 20 70t58.5 55t93.5 36t125 13t125 -13t93.5 -36t58.5 -55t20 -70q0 -37 -20 -69t-58 -56t-93.5 -37.5t-125.5 -13.5zM494 -94q60 0 107 11t78.5 30t48 43.5t16.5 51.5t-16 51.5t-47.5 42.5t-78.5 29t-108 11
q-62 0 -108.5 -11t-78 -29t-47 -42.5t-15.5 -51.5t16 -51.5t47.5 -43.5t78 -30t107.5 -11z" />
    <glyph glyph-name="uniAC38" unicode="&#xac38;" 
d="M876 208h-155v-337h-43v906h43v-244h155v-40h-155v-246h155v-39zM66 71l-31 33q93 45 165 107t123 134t80.5 152t37.5 162q-69 -2 -131 -2.5t-122 -0.5h-120v39h183q61 0 122.5 0.5t117.5 2.5q-17 -207 -121.5 -364t-303.5 -263z" />
    <glyph glyph-name="uniAC39" unicode="&#xac39;" 
d="M726 777v-155h148v-39h-148v-149h148v-39h-148v-149h-43v531h43zM70 270l-25 35q78 22 144.5 56.5t118.5 82.5t87.5 111t51.5 141q-68 -2 -135.5 -2.5t-128.5 -0.5h-92v40h151q69 0 130 0.5t126 2.5q-19 -165 -127.5 -286t-300.5 -180zM726 -132h-43v281h-514v39h557
v-320z" />
    <glyph glyph-name="uniAC3C" unicode="&#xac3c;" 
d="M726 777v-190h148v-37h-148v-165h148v-37h-148v-230h-43v659h43zM73 233l-27 33q76 26 143 63t119.5 88t89 118.5t50.5 154.5q-68 -2 -137 -2.5t-130 -0.5h-91v40h150q69 0 130 0.5t126 2.5q-17 -176 -121.5 -302t-301.5 -195zM741 -70v-41h-538v274h43v-233h495z" />
    <glyph glyph-name="uniAC40" unicode="&#xac40;" 
d="M726 777v-139h148v-37h-148v-123h148v-37h-148v-113h-43v449h43zM66 319l-23 37q77 18 143.5 48t118.5 72t89 96.5t55 123.5q-69 -2 -135.5 -2.5t-128.5 -0.5h-94v40h154q69 0 130 0.5t127 2.5q-23 -153 -136.5 -261t-299.5 -156zM747 -79v-40h-565v221h501v132h-501v40
h544v-212h-501v-141h522z" />
    <glyph glyph-name="uniAC4B" unicode="&#xac4b;" 
d="M72 245l-28 34q76 25 143 61.5t120 87t89 117t51 152.5q-68 -2 -136 -2.5t-129 -0.5h-91v39h150q69 0 130 0.5t126 2.5q-18 -174 -123.5 -299t-301.5 -192zM120 -90q75 18 135.5 50t102.5 74.5t64.5 94t22.5 107.5h46q0 -47 -15 -90q16 -38 48 -75t74.5 -69t93.5 -56
t105 -35l-23 -37q-51 12 -99 35t-89 53t-74 66t-55 74q-20 -39 -51.5 -74.5t-71.5 -65t-87.5 -52.5t-100.5 -36zM726 777v-162h148v-39h-148v-160h148v-39h-148v-203h-43v603h43z" />
    <glyph glyph-name="uniAC4D" unicode="&#xac4d;" 
d="M726 777v-155h148v-39h-148v-153h148v-39h-148v-145h-43v531h43zM70 275l-26 36q76 22 142.5 55.5t119 80.5t89 109t52.5 140q-68 -2 -135.5 -2.5t-128.5 -0.5h-92v40h151q69 0 130 0.5t126 2.5q-19 -165 -127.5 -283.5t-300.5 -177.5zM451 -135q-68 0 -121.5 13.5
t-90.5 37.5t-56.5 57t-19.5 72t19.5 71.5t56.5 56t90.5 36.5t121.5 13t121.5 -13t90.5 -36.5t56.5 -56t19.5 -71.5t-19.5 -72t-56.5 -57t-90.5 -37.5t-121.5 -13.5zM451 -95q60 0 105 11.5t76 30.5t46.5 44.5t15.5 53.5q0 57 -61 96.5t-182 39.5q-122 0 -183 -39.5
t-61 -96.5q0 -28 15.5 -53.5t46.5 -44.5t76.5 -30.5t105.5 -11.5z" />
    <glyph glyph-name="uniAC54" unicode="&#xac54;" 
d="M745 230h-172v-336h-42v873h42v-227h172v237h42v-906h-42v359zM745 272v226h-172v-226h172zM79 70l-34 30q81 46 140.5 107.5t99.5 133.5t62 152t28 162q-105 -3 -205 -3h-93v40h143q50 0 100.5 0.5t100.5 2.5q-11 -207 -94 -363t-248 -262z" />
    <glyph glyph-name="uniAC58" unicode="&#xac58;" 
d="M75 232l-26 33q63 25 120 64t102.5 92t76 120t38.5 148q-53 -2 -110.5 -2.5t-108.5 -0.5h-76v39h124q57 0 108 0.5t108 2.5q-4 -84 -29 -159.5t-70.5 -139t-110 -113.5t-146.5 -84zM755 118v221h-172v-201h-39v630h39v-185h172v195h40v-660h-40zM755 373v176h-172v-176
h172zM811 -70v-41h-564v283h43v-242h521z" />
    <glyph glyph-name="uniAC5C" unicode="&#xac5c;" 
d="M816 -80v-39h-588v214h524v132h-524v38h566v-206h-524v-139h546zM753 323v124h-168v-124h-41v444h41v-120h168v130h42v-454h-42zM71 303l-22 34q64 18 121.5 51t102.5 79t74.5 103.5t38.5 124.5q-53 -2 -110 -2.5t-108 -0.5h-77v39h126q57 0 108 0.5t108 2.5
q-3 -77 -31.5 -144.5t-76.5 -123.5t-113 -97.5t-141 -65.5zM753 481v132h-168v-132h168z" />
    <glyph glyph-name="uniAC70" unicode="&#xac70;" 
d="M90 73l-31 33q93 45 165 107.5t122 135t78.5 151.5t33.5 159q-69 -2 -129.5 -2.5t-120.5 -0.5h-118v39h180q61 0 121 0.5t117 2.5q-14 -207 -117 -363t-301 -262zM729 373h-209v41h209v363h42v-906h-42v502z" />
    <glyph glyph-name="uniAC71" unicode="&#xac71;" 
d="M85 268l-26 36q79 22 147.5 56.5t121 83.5t87 112t46.5 141q-68 -2 -135.5 -2.5t-128.5 -0.5h-89v39h148q69 0 130 0.5t127 2.5q-17 -174 -125.5 -292.5t-302.5 -175.5zM729 468h-214v41h214v268h42v-525h-42v216zM771 -132h-42v286h-524v39h566v-325z" />
    <glyph glyph-name="uniAC74" unicode="&#xac74;" 
d="M87 230l-28 34q80 25 149 63.5t122 91t87 120.5t45 152q-68 -2 -136.5 -2.5t-129.5 -0.5h-88v39h147q69 0 130.5 0.5t127.5 2.5q-14 -180 -120.5 -306.5t-305.5 -193.5zM729 450h-206v40h206v287h42v-659h-42v332zM786 -70v-41h-547v273h43v-232h504z" />
    <glyph glyph-name="uniAC77" unicode="&#xac77;" 
d="M85 276l-26 37q79 21 147.5 55t121 81.5t87 109.5t46.5 138q-68 -2 -135 -2.5t-127 -0.5h-91v39h149q69 0 129.5 0.5t126.5 2.5q-17 -172 -126.5 -288.5t-301.5 -171.5zM729 476h-209v42h209v259h42v-515h-42v214zM789 -115h-562v319h546v-40h-503v-239h519v-40z" />
    <glyph glyph-name="uniAC78" unicode="&#xac78;" 
d="M83 318l-24 37q78 16 145 46t119.5 73.5t87.5 99.5t49 124q-68 -2 -133.5 -2.5t-126.5 -0.5h-92v38h151q69 0 129 0.5t126 2.5q-11 -81 -45 -149t-89 -120.5t-130 -90t-167 -58.5zM729 497h-207v41h207v239h42v-444h-42v164zM792 -80v-39h-574v217h511v139h-511v38h553
v-213h-511v-142h532z" />
    <glyph glyph-name="uniAC7A" unicode="&#xac7a;" 
d="M83 318l-24 37q78 16 145 46t119.5 73.5t87.5 99.5t49 124q-68 -2 -133.5 -2.5t-126.5 -0.5h-92v38h151q69 0 129 0.5t126 2.5q-11 -81 -45 -149t-89 -120.5t-130 -90t-167 -58.5zM502 -115v392h269v-392h-269zM730 240h-189v-317h189v317zM302 -117h-118v216h230v140
h-230v38h270v-214h-227v-141h101q50 0 89.5 5t59.5 13v-36q-29 -12 -74 -16.5t-101 -4.5zM729 497h-207v41h207v239h42v-444h-42v164z" />
    <glyph glyph-name="uniAC80" unicode="&#xac80;" 
d="M84 286l-25 36q79 20 146.5 53t120 80t87.5 107.5t47 134.5q-68 -2 -134.5 -2.5t-126.5 -0.5h-91v39h149q69 0 129.5 0.5t126.5 2.5q-18 -171 -128 -284.5t-301 -165.5zM729 475h-206v41h206v261h42v-507h-42v205zM771 212v-327h-546v327h546zM729 -75v247h-461v-247h461
z" />
    <glyph glyph-name="uniAC81" unicode="&#xac81;" 
d="M82 298l-23 37q78 19 145 51t119.5 77.5t88 104t48.5 129.5q-68 -2 -134 -2.5t-126 -0.5h-92v39h150q69 0 129 0.5t126 2.5q-20 -168 -131 -279t-300 -159zM729 480h-206v41h206v256h42v-468h-42v171zM771 252v-367h-546v361h43v-110h461v116h42zM267 -75h463v172h-463
v-172z" />
    <glyph glyph-name="uniAC83" unicode="&#xac83;" 
d="M84 241l-25 36q80 25 148.5 62.5t121.5 89t87 118.5t45 150q-68 -2 -136 -2.5t-129 -0.5h-88v39h147q69 0 130.5 0.5t127.5 2.5q-15 -179 -123 -304.5t-306 -190.5zM146 -90q75 18 135 51t102 77.5t64 97t22 108.5h47q2 -51 -18 -101q15 -38 47 -75t74.5 -68t94.5 -54
t108 -35l-21 -37q-54 12 -103.5 34.5t-91.5 52t-75 64.5t-54 74q-22 -38 -54 -73t-72 -64.5t-86.5 -52t-97.5 -35.5zM729 472h-198v41h198v264h42v-603h-42v298z" />
    <glyph glyph-name="uniAC84" unicode="&#xac84;" 
d="M496 -127q-54 30 -98 81t-70 110q-25 -63 -71.5 -110.5t-109.5 -79.5l-28 34q46 21 83.5 52.5t63 71t37.5 86.5t9 100h42q1 -24 -1 -47t-6 -44q4 -22 16 -48.5t31 -53.5t45 -53t58 -47q35 25 62.5 58.5t45.5 72t26 80.5t5 86h40q1 -26 -1 -50.5t-7 -47.5q6 -26 21 -55
t38 -57.5t54.5 -53.5t70.5 -44l-29 -36q-59 30 -102.5 79.5t-69.5 105.5q-23 -66 -64 -113.5t-91 -76.5zM84 286l-25 36q79 20 146.5 53t120 80t87.5 107.5t47 134.5q-68 -2 -134.5 -2.5t-126.5 -0.5h-91v39h149q69 0 129.5 0.5t126.5 2.5q-18 -171 -128 -284.5t-301 -165.5
zM729 477h-203v41h203v259h42v-505h-42v205z" />
    <glyph glyph-name="uniAC85" unicode="&#xac85;" 
d="M85 268l-26 36q79 22 147.5 56.5t121 83.5t87 112t46.5 141q-68 -2 -135.5 -2.5t-128.5 -0.5h-89v39h148q69 0 130 0.5t127 2.5q-17 -174 -125.5 -292.5t-302.5 -175.5zM729 469h-202v41h202v267h42v-531h-42v223zM486 -135q-68 0 -121.5 13.5t-90 37.5t-56 57t-19.5 72
t19.5 71.5t56 56t90 36.5t121.5 13t121.5 -13t90.5 -36.5t56.5 -56t19.5 -71.5t-19.5 -72t-56.5 -57t-90.5 -37.5t-121.5 -13.5zM486 -95q60 0 105.5 11t76 30t46.5 44.5t16 54.5q0 28 -15.5 52.5t-46 43t-76.5 29.5t-106 11t-105.5 -11t-76 -29.5t-46 -43t-15.5 -52.5
q0 -29 15.5 -54.5t46.5 -44.5t76 -30t105 -11z" />
    <glyph glyph-name="uniAC86" unicode="&#xac86;" 
d="M225 216h292q55 0 105 0.5t112 2.5q11 0 4 -14q-20 -51 -73 -99t-128 -91q64 -30 143.5 -57t158.5 -44l-25 -40q-37 10 -79 23.5t-84 29t-82 32.5t-72 34q-76 -39 -161 -70t-167 -51l-20 41q88 17 171.5 47t153.5 66.5t121.5 76.5t75.5 77q-66 -3 -129 -3.5t-117 -0.5
h-200v40zM84 286l-24 35q79 20 146.5 53.5t120 80.5t87 107.5t46.5 134.5q-68 -2 -134.5 -2.5t-126.5 -0.5h-91v39h149q69 0 129.5 0.5t126.5 2.5q-18 -171 -128 -284.5t-301 -165.5zM729 476h-206v41h206v260h42v-505h-42v204z" />
    <glyph glyph-name="uniAC89" unicode="&#xac89;" 
d="M83 318l-23 36q78 16 145 46.5t119 74t87 99.5t49 124q-68 -2 -133.5 -2.5t-126.5 -0.5h-92v38h151q69 0 129 0.5t126 2.5q-11 -81 -45 -149t-89 -120.5t-130 -90t-167 -58.5zM729 487h-210v41h210v249h42v-448h-42v158zM771 62h-505v-138h525v-39h-566v386h548v-38h-507
v-135h505v-36z" />
    <glyph glyph-name="uniAC8A" unicode="&#xac8a;" 
d="M82 298l-23 37q78 19 145 51t119.5 77.5t88 104t48.5 129.5q-68 -2 -134 -2.5t-126 -0.5h-92v39h150q69 0 129 0.5t126 2.5q-20 -168 -131 -279t-300 -159zM729 476h-209v41h209v260h42v-484h-42v183zM795 -75v-40h-614v40h127l-4 270h-113v39h590v-39h-114l-4 -270h132z
M350 -75h270l4 270h-278z" />
    <glyph glyph-name="uniAC8B" unicode="&#xac8b;" 
d="M83 318l-24 37q78 16 145 46t119.5 73.5t87.5 99.5t49 124q-68 -2 -133.5 -2.5t-126.5 -0.5h-92v38h151q69 0 129 0.5t126 2.5q-11 -81 -45 -149t-89 -120.5t-130 -90t-167 -58.5zM729 513h-194v40h194v224h42v-476h-42v212zM791 156h-624v37h624v-37zM623 263h-294v40
h294v-40zM481 -102q47 0 86.5 5t68 15.5t44.5 25.5t16 35q0 39 -56 60t-159 21t-159 -21t-56 -60q0 -20 15.5 -35t44 -25.5t68 -15.5t87.5 -5zM481 -140q-60 0 -107.5 8t-81 23.5t-51.5 37.5t-18 50q0 57 68 87.5t190 30.5q121 0 189.5 -30.5t68.5 -87.5q0 -28 -18 -50
t-51.5 -37.5t-81.5 -23.5t-107 -8z" />
    <glyph glyph-name="uniAC8C" unicode="&#xac8c;" 
d="M79 70l-35 31q81 46 140.5 107.5t100 133.5t62.5 151.5t28 161.5q-105 -3 -205 -3h-93v40h143q50 0 100.5 0.5t100.5 2.5q-5 -78 -18.5 -148.5t-39.5 -134.5h196v355h42v-873h-42v477h-213q-43 -92 -109 -167t-158 -134zM786 777v-906h-42v906h42z" />
    <glyph glyph-name="uniAC90" unicode="&#xac90;" 
d="M578 488v279h41v-629h-41v311h-216q-45 -71 -111.5 -126t-155.5 -91l-26 33q63 25 119.5 64t101.5 92t74.5 120t38.5 148q-54 -2 -110.5 -2.5t-107.5 -0.5h-73v39h121q57 0 107 0.5t107 2.5q-6 -133 -62 -240h193zM811 -70v-41h-564v283h43v-242h521zM794 777v-660h-41
v660h41z" />
    <glyph glyph-name="uniAC94" unicode="&#xac94;" 
d="M816 -80v-39h-588v216h524v134h-524v38h566v-208h-524v-141h546zM576 530v237h41v-440h-41v164h-211q-48 -66 -118 -114.5t-155 -75.5l-23 36q64 18 120.5 51t101 79t74 103.5t38.5 124.5q-54 -2 -110 -2.5t-107 -0.5h-74v39h122q57 0 108 -0.5t108 1.5
q-2 -56 -18 -106.5t-42 -95.5h186zM794 777v-450h-41v450h41z" />
    <glyph glyph-name="uniAC9C" unicode="&#xac9c;" 
d="M794 204v-319h-561v319h561zM752 -76v240h-477v-240h477zM576 517v250h41v-505h-41v216h-210q-47 -71 -115.5 -124.5t-157.5 -85.5l-24 35q63 22 119.5 57.5t101.5 85t74.5 112t38.5 137.5q-54 -2 -110.5 -2.5t-107.5 -0.5h-73v39h121q57 0 107 0.5t107 2.5
q-6 -121 -58 -217h187zM794 777v-515h-41v515h41z" />
    <glyph glyph-name="uniAC9D" unicode="&#xac9d;" 
d="M794 241v-356h-561v351h42v-110h477v115h42zM274 -76h479v163h-479v-163zM576 526v241h41v-468h-41v188h-208q-48 -70 -118 -122.5t-158 -83.5l-24 36q64 21 121 55.5t101.5 82.5t74 108t38.5 132q-54 -2 -110 -2.5t-107 -0.5h-74v39h121h107.5t107.5 2
q-2 -57 -17 -108.5t-40 -98.5h185zM794 777v-478h-41v478h41z" />
    <glyph glyph-name="uniAC9F" unicode="&#xac9f;" 
d="M576 510v257h41v-510h-41v214h-207q-45 -74 -114 -131t-161 -94l-25 34q63 24 119.5 62.5t101 90t74.5 117t39 145.5q-54 -2 -110.5 -2.5t-107.5 -0.5h-73v39h121q57 0 107 0.5t107 2.5q-6 -123 -56 -224h185zM137 -90q75 17 135 47t102 69.5t64.5 88.5t22.5 103h47
q0 -47 -16 -88q16 -37 48 -71.5t75 -64t94 -51t106 -32.5l-22 -37q-52 12 -100.5 32.5t-90.5 48.5t-75 61.5t-55 69.5q-21 -37 -52.5 -70t-71.5 -60t-87.5 -48t-99.5 -34zM794 777v-606h-41v606h41z" />
    <glyph glyph-name="uniACA0" unicode="&#xaca0;" 
d="M576 512v255h41v-505h-41v211h-213q-47 -69 -114.5 -121t-155.5 -84l-24 35q63 22 119.5 57.5t101.5 85t74.5 112t38.5 137.5q-54 -2 -110.5 -2.5t-107.5 -0.5h-73v39h121q57 0 107 0.5t107 2.5q-6 -121 -61 -222h190zM496 -127q-53 29 -98 79t-71 107
q-25 -60 -71 -106.5t-109 -78.5l-28 34q46 21 83.5 51.5t63 69.5t37.5 84.5t9 96.5h42q1 -24 -1 -46t-7 -43q4 -21 16.5 -47.5t32 -53.5t45.5 -52.5t58 -45.5q35 24 62 57t45 71t26 80t5 84h40q1 -49 -8 -96q6 -26 21 -54t38 -55.5t54.5 -52t69.5 -42.5l-27 -36
q-58 29 -102 77t-71 102q-24 -63 -65 -109t-90 -75zM794 777v-515h-41v515h41z" />
    <glyph glyph-name="uniACA1" unicode="&#xaca1;" 
d="M493 -134q-70 0 -125 13.5t-93 37t-58 55.5t-20 69q0 38 20 69.5t58.5 54.5t93.5 36t124 13q70 0 125.5 -13t94 -36t58.5 -54.5t20 -69.5q0 -37 -20 -69t-58 -55.5t-93.5 -37t-126.5 -13.5zM493 -94q61 0 108.5 11t80 29.5t49.5 43t17 51.5t-16.5 51t-49 42.5t-80 29
t-109.5 10.5t-109.5 -10.5t-79 -29t-47.5 -42.5t-16 -51t16.5 -51.5t48 -43t78.5 -29.5t109 -11zM576 507v260h41v-502h-41v203h-211q-46 -72 -114 -126t-157 -89l-26 34q63 24 120 61.5t101.5 88.5t74.5 115.5t39 142.5q-54 -2 -110.5 -2.5t-107.5 -0.5h-73v39h121
q57 0 107 0.5t107 2.5q-3 -63 -18.5 -119.5t-41.5 -107.5h189zM794 777v-562h-41v562h41z" />
    <glyph glyph-name="uniACA8" unicode="&#xaca8;" 
d="M729 -129v374h-216v39h216v199h-196v40h196v254h42v-906h-42zM90 73l-31 33q93 45 165 107.5t122 135t78.5 151.5t33.5 159q-69 -2 -129.5 -2.5t-120.5 -0.5h-118v39h180q61 0 121 0.5t117 2.5q-14 -207 -117 -363t-301 -262z" />
    <glyph glyph-name="uniACA9" unicode="&#xaca9;" 
d="M85 268l-26 36q79 22 147.5 56.5t121 83.5t87 112t46.5 141q-68 -2 -135.5 -2.5t-128.5 -0.5h-89v39h148q69 0 130 0.5t127 2.5q-17 -174 -125.5 -292.5t-302.5 -175.5zM544 602h185v175h42v-525h-42v135h-211v38h211v141h-185v36zM771 -132h-42v286h-524v39h566v-325z
" />
    <glyph glyph-name="uniACAA" unicode="&#xacaa;" 
d="M85 276l-26 37q79 21 147.5 55t121 81.5t87 109.5t46.5 138q-68 -2 -135 -2.5t-127 -0.5h-91v39h149q69 0 129.5 0.5t126.5 2.5q-17 -172 -126.5 -288.5t-301.5 -171.5zM544 602h185v175h42v-520h-42v132h-212v37h212v140h-185v36zM771 -132h-42v288h-226v42h268v-330z
M444 -132h-41v288h-227v42h268v-330z" />
    <glyph glyph-name="uniACAC" unicode="&#xacac;" 
d="M87 231l-28 34q80 25 149 63.5t122 91t87 120.5t45 152q-68 -2 -136.5 -2.5t-129.5 -0.5h-88v39h147q69 0 130.5 0.5t127.5 2.5q-14 -180 -120.5 -306.5t-305.5 -193.5zM729 535h-181v36h181v207h42v-659h-42v212h-207v36h207v168zM786 -69v-41h-547v277h43v-236h504z
" />
    <glyph glyph-name="uniACAF" unicode="&#xacaf;" 
d="M85 276l-26 37q79 21 147.5 55t121 81.5t87 109.5t46.5 138q-68 -2 -135 -2.5t-127 -0.5h-91v39h149q69 0 129.5 0.5t126.5 2.5q-17 -172 -126.5 -288.5t-301.5 -171.5zM544 605h185v172h42v-512h-42v128h-211v37h211v138h-185v37zM789 -115h-562v322h546v-40h-503v-242
h519v-40z" />
    <glyph glyph-name="uniACB0" unicode="&#xacb0;" 
d="M83 318l-24 37q78 16 145 46t119.5 73.5t87.5 99.5t49 124q-68 -2 -133.5 -2.5t-126.5 -0.5h-92v38h151q69 0 129 0.5t126 2.5q-11 -81 -45 -149t-89 -120.5t-130 -90t-167 -58.5zM554 625h175v152h42v-444h-42v106h-201v36h201v113h-175v37zM792 -80v-39h-574v217h511
v139h-511v38h553v-213h-511v-142h532z" />
    <glyph glyph-name="uniACB8" unicode="&#xacb8;" 
d="M84 286l-25 36q79 20 146.5 53t120 80t87.5 107.5t47 134.5q-68 -2 -134.5 -2.5t-126.5 -0.5h-91v39h149q69 0 129.5 0.5t126.5 2.5q-18 -171 -128 -284.5t-301 -165.5zM554 620h175v157h42v-505h-42v138h-201v37h201v135h-175v38zM771 214v-329h-546v329h546zM729 -75
v249h-461v-249h461z" />
    <glyph glyph-name="uniACB9" unicode="&#xacb9;" 
d="M82 298l-23 37q78 19 145 51t119.5 77.5t88 104t48.5 129.5q-68 -2 -134 -2.5t-126 -0.5h-92v39h150q69 0 129 0.5t126 2.5q-20 -168 -131 -279t-300 -159zM554 619h175v158h42v-468h-42v96h-201v38h201v139h-175v37zM771 252v-367h-546v361h43v-120h461v126h42zM267 -75
h463v162h-463v-162z" />
    <glyph glyph-name="uniACBB" unicode="&#xacbb;" 
d="M87 243l-28 34q80 25 148.5 62.5t121.5 89t87 118.5t45 150q-68 -2 -136 -2.5t-129 -0.5h-88v39h147q69 0 130.5 0.5t127.5 2.5q-15 -179 -121.5 -303.5t-304.5 -189.5zM554 604h175v173h42v-613h-42v216h-201v38h201v149h-175v37zM135 -90q75 18 135 48.5t102 72
t64.5 91.5t22.5 106h47q0 -49 -16 -91q16 -38 48 -73.5t75 -65.5t94 -53t106 -34l-21 -37q-53 12 -101.5 34t-90 50.5t-74.5 63t-55 72.5q-21 -38 -53 -72t-72.5 -62.5t-88.5 -50.5t-100 -35z" />
    <glyph glyph-name="uniACBC" unicode="&#xacbc;" 
d="M500 -127q-51 29 -96.5 77.5t-73.5 104.5q-25 -59 -70.5 -104t-107.5 -77l-29 34q46 21 83.5 51.5t63 69t37.5 84.5t9 99h42q1 -24 -1 -46.5t-6 -43.5q4 -22 16.5 -48t31.5 -52.5t45 -52t59 -46.5q70 51 106.5 128t30.5 165h40q1 -50 -8 -96q6 -26 21 -54.5t38.5 -56
t55 -52.5t69.5 -43l-29 -36q-57 29 -101.5 75.5t-72.5 100.5q-24 -63 -64.5 -107.5t-88.5 -73.5zM84 286l-25 36q79 20 146.5 53t120 80t87.5 107.5t47 134.5q-68 -2 -134.5 -2.5t-126.5 -0.5h-91v39h149q69 0 129.5 0.5t126.5 2.5q-18 -171 -128 -284.5t-301 -165.5z
M554 610h175v167h42v-523h-42v138h-201v39h201v142h-175v37z" />
    <glyph glyph-name="uniACBD" unicode="&#xacbd;" 
d="M85 268l-26 36q79 22 147.5 56.5t121 83.5t87 112t46.5 141q-68 -2 -135.5 -2.5t-128.5 -0.5h-89v39h148q69 0 130 0.5t127 2.5q-17 -174 -125.5 -292.5t-302.5 -175.5zM554 617h175v160h42v-545h-42v165h-201v38h201v145h-175v37zM486 -135q-68 0 -121.5 13.5t-90 37
t-56 56t-19.5 71.5t19.5 71t56 55t90 36t121.5 13t121.5 -13t90.5 -36t56.5 -55t19.5 -71t-19.5 -71.5t-56.5 -56t-90.5 -37t-121.5 -13.5zM485 -95q60 0 106 10.5t77 29t47 43.5t16 53q0 57 -62 96.5t-184 39.5q-120 0 -181.5 -39.5t-61.5 -96.5q0 -28 15.5 -53t46.5 -43.5
t76.5 -29t104.5 -10.5z" />
    <glyph glyph-name="uniACC1" unicode="&#xacc1;" 
d="M83 318l-24 37q78 16 145 46t119.5 73.5t87.5 99.5t49 124q-68 -2 -133.5 -2.5t-126.5 -0.5h-92v38h151q69 0 129 0.5t126 2.5q-11 -81 -45 -149t-89 -120.5t-130 -90t-167 -58.5zM554 620h175v157h42v-448h-42v90h-201v37h201v127h-175v37zM771 62h-505v-138h525v-39
h-566v386h548v-38h-507v-135h505v-36z" />
    <glyph glyph-name="uniACC4" unicode="&#xacc4;" 
d="M79 70l-35 31q81 46 140.5 107.5t100 133.5t62.5 151.5t28 161.5q-105 -3 -205 -3h-93v40h143q50 0 100.5 0.5t100.5 2.5q-2 -44 -7.5 -85t-14.5 -80h166v237h42v-873h-42v361h-184v37h184v200h-175q-36 -134 -113 -239t-198 -183zM786 777v-906h-42v906h42z" />
    <glyph glyph-name="uniACC8" unicode="&#xacc8;" 
d="M95 232l-26 33q63 25 119 64t100 92t73 120t37 148q-53 -2 -108.5 -2.5t-106.5 -0.5h-71v39h119q57 0 106 0.5t106 2.5q-2 -42 -8.5 -81t-18.5 -76h164v196h41v-629h-41v212h-159v36h159v148h-176v2q-40 -102 -117 -179.5t-192 -124.5zM811 -70v-41h-564v283h43v-242h521
zM794 777v-659h-41v659h41z" />
    <glyph glyph-name="uniACCC" unicode="&#xaccc;" 
d="M816 -80v-39h-588v214h524v132h-524v38h566v-206h-524v-139h546zM91 303l-22 34q64 18 120 51t99.5 79t72 103.5t37.5 124.5q-53 -2 -108 -2.5t-106 -0.5h-72v39h121q57 0 106 0.5t106 2.5q-2 -33 -8 -64t-16 -60h159v157h41v-444h-41v96h-159v37h159v116h-173
q-43 -96 -125 -165t-191 -104zM794 777v-454h-41v454h41z" />
    <glyph glyph-name="uniACD5" unicode="&#xacd5;" 
d="M794 241v-356h-561v351h42v-108h477v113h42zM274 -76h479v165h-479v-165zM92 282l-24 35q64 21 120 55.5t100 82.5t72.5 108t37.5 132q-53 -2 -108 -2.5t-106 -0.5h-72v39h120q57 0 106 0.5t106 2.5q-3 -68 -22 -126h158v159h41v-468h-41v120h-159v37h159v114h-172
q-41 -100 -122 -174t-194 -114zM794 777v-478h-41v478h41z" />
    <glyph glyph-name="uniACD7" unicode="&#xacd7;" 
d="M580 246v144h-159v38h159v127h-173q-38 -104 -117 -183t-196 -126l-25 34q63 24 119 62.5t99.5 90t72.5 117t38 145.5q-53 -2 -108.5 -2.5t-106.5 -0.5h-71v39h119q57 0 106 0.5t106 2.5q-3 -73 -23 -141h160v174h41v-521h-41zM137 -90q75 17 135 47t102 69.5t64.5 88.5
t22.5 103h47q0 -47 -16 -88q16 -37 48 -71.5t75 -64t94 -51t106 -32.5l-22 -37q-52 12 -100.5 32.5t-90.5 48.5t-75 61.5t-55 69.5q-21 -37 -52.5 -70t-71.5 -60t-87.5 -48t-99.5 -34zM794 777v-615h-41v615h41z" />
    <glyph glyph-name="uniACE0" unicode="&#xace0;" 
d="M673 199h-41q24 97 38.5 217t15.5 240h-529v40h573q-2 -132 -15.5 -261t-41.5 -236zM864 47v-38h-838v38h346v340h45v-340h447z" />
    <glyph glyph-name="uniACE1" unicode="&#xace1;" 
d="M147 751h583q-2 -87 -12 -171.5t-21 -163.5h-43q11 63 20.5 141.5t10.5 153.5h-538v40zM370 547h47v-205h458v-38h-859v38h354v205zM728 -132h-44v259h-537v40h581v-299z" />
    <glyph glyph-name="uniACE4" unicode="&#xace4;" 
d="M147 751h583q-2 -96 -11.5 -183t-20.5 -175h-43q11 72 20 152.5t10 165.5h-538v40zM370 535h47v-223h458v-39h-859v39h354v223zM747 -74v-41h-584v276h45v-235h539z" />
    <glyph glyph-name="uniACE7" unicode="&#xace7;" 
d="M147 751h583q-2 -81 -11.5 -161.5t-20.5 -154.5h-43q11 58 20 131.5t10 144.5h-538v40zM370 558h47v-195h458v-38h-859v38h354v195zM748 -115h-585v310h567v-40h-524v-230h542v-40z" />
    <glyph glyph-name="uniACE8" unicode="&#xace8;" 
d="M147 751h584q-2 -78 -11 -142.5t-22 -134.5h-43q11 56 20 112t10 125h-538v40zM370 578h47v-171h458v-38h-859v38h354v171zM754 -125h-592v211h524v129h-524v38h567v-203h-524v-136h549v-39z" />
    <glyph glyph-name="uniACEA" unicode="&#xacea;" 
d="M147 751h584q-2 -78 -11 -142.5t-22 -131.5h-43q11 54 20 109.5t10 124.5h-538v40zM370 579h47v-170h458v-38h-859v38h354v170zM154 219v38h268v-205h-226v-139h100q49 0 88.5 4.5t60.5 12.5v-36q-30 -11 -75 -15.5t-101 -4.5h-115v214h225v131h-225zM694 220h-183v-306
h183v306zM469 -124v381h267v-381h-267z" />
    <glyph glyph-name="uniACEC" unicode="&#xacec;" 
d="M192 54v-140h104q48 0 87 4.5t60 12.5v-36q-35 -11 -79 -15t-95 -4h-118v213h232v130h-232v38h275v-203h-234zM370 579h47v-170h458v-38h-859v38h354v170zM147 751h584q-2 -78 -11 -143t-22 -132h-43q11 54 20 110t10 125h-538v40zM483 -126l-33 36q45 25 79 63
t55.5 84.5t30.5 99t5 105.5h43q3 -58 -8 -115q5 -34 21.5 -69.5t40 -67t52 -56.5t58.5 -40l-32 -35q-51 29 -91.5 83.5t-66.5 117.5q-24 -69 -64.5 -122t-89.5 -84z" />
    <glyph glyph-name="uniACEF" unicode="&#xacef;" 
d="M196 53v-137h110q47 0 86 4.5t60 12.5v-33q-35 -11 -79 -15.5t-95 -4.5h-123v207h217v132h-217v38h260v-204h-219zM793 135h-332v37h332v-37zM718 229h-184v39h184v-39zM628 95q64 0 100.5 -32.5t36.5 -84.5t-37 -83.5t-100 -31.5t-100.5 31.5t-37.5 83.5t37 84.5
t101 32.5zM628 59q-46 0 -72.5 -23t-26.5 -56q0 -34 26 -57.5t73 -23.5q46 0 72.5 23.5t26.5 57.5q0 33 -27 56t-72 23zM147 751h584q-2 -78 -11 -142.5t-22 -131.5h-43q11 54 20 109.5t10 124.5h-538v40zM370 579h47v-170h458v-38h-859v38h354v170z" />
    <glyph glyph-name="uniACF0" unicode="&#xacf0;" 
d="M147 751h583q-2 -81 -11.5 -158.5t-20.5 -151.5h-43q11 58 20 129.5t10 142.5h-538v38zM370 558h47v-195h458v-38h-859v38h354v195zM727 -115h-559v309h559v-309zM683 -75v229h-471v-229h471z" />
    <glyph glyph-name="uniACF1" unicode="&#xacf1;" 
d="M147 751h583q-2 -79 -11 -151t-21 -144h-43q11 56 20 121t10 134h-538v40zM370 563h47v-185h458v-38h-859v38h354v185zM727 -115h-560v365h44v-114h472v114h44v-365zM684 -75v173h-474v-173h474z" />
    <glyph glyph-name="uniACF3" unicode="&#xacf3;" 
d="M370 548h47v-198h458v-38h-859v38h354v198zM99 -90q75 18 137 47.5t105.5 70t67.5 89.5t24 106h46q0 -47 -16 -88q16 -38 49 -73.5t78 -65.5t98 -52t108 -33l-22 -37q-52 12 -102.5 33t-94 49t-79 61.5t-57.5 70.5q-22 -37 -55 -70t-74.5 -61t-89.5 -49t-100 -34z
M147 751h583q-2 -87 -11.5 -165t-20.5 -157h-43q11 63 20 135t10 147h-538v40z" />
    <glyph glyph-name="uniACF5" unicode="&#xacf5;" 
d="M147 751h583q-2 -81 -11.5 -158.5t-20.5 -151.5h-43q11 58 20 128.5t10 141.5h-538v40zM370 558h47v-200h458v-38h-859v38h354v200zM443 -135q-69 0 -123 13t-91.5 36.5t-57 56t-19.5 71.5t20 71t57.5 55t91.5 35.5t122 12.5t122 -12.5t91.5 -35.5t57.5 -55t20 -71
t-19.5 -71.5t-57 -56t-91.5 -36.5t-123 -13zM443 -97q59 0 105 11t77.5 29.5t48 44t16.5 54.5q0 28 -16 52.5t-47 43t-77.5 29t-106.5 10.5q-61 0 -107 -10.5t-77 -29t-47 -43t-16 -52.5q0 -29 16 -54.5t47.5 -44t77.5 -29.5t106 -11z" />
    <glyph glyph-name="uniACF6" unicode="&#xacf6;" 
d="M172 207h295q60 0 117 0.5t122 2.5q10 0 5 -15q-24 -51 -78.5 -97.5t-127.5 -86.5q66 -29 143 -54t160 -42l-26 -40q-39 9 -81 22t-84 28t-81.5 31.5t-72.5 32.5q-75 -37 -159.5 -66.5t-169.5 -50.5l-25 41q93 17 176.5 45t152.5 62t121 72.5t81 77.5q-70 -2 -138.5 -2.5
t-125.5 -0.5h-204v40zM371 559h47v-191h458v-38h-859v38h354v191zM148 751h583q-2 -80 -12.5 -159t-21.5 -151h-43q5 28 10.5 61t10 68t8 70.5t3.5 70.5h-538v40z" />
    <glyph glyph-name="uniACFC" unicode="&#xacfc;" 
d="M886 410v-40h-152v-499h-43v906h43v-367h152zM14 91v40h160h62v310h43v-309q46 1 95 3.5t96.5 6.5t92.5 8.5t83 10.5v-37q-103 -17 -224.5 -25t-246.5 -8h-161zM485 260h-41q21 87 29 191t10 203h-399v38h443q-1 -55 -3.5 -113.5t-7 -115t-12.5 -109t-19 -94.5z" />
    <glyph glyph-name="uniACFD" unicode="&#xacfd;" 
d="M21 284v40h157h39t41 1v210h44v-209q45 1 91.5 3t91.5 5.5t87.5 8t78.5 10.5v-36q-51 -9 -110 -15t-121 -10t-124 -6t-117 -2h-158zM738 -132h-43v253h-524v39h567v-292zM102 740h434q0 -41 -2.5 -84t-6.5 -85t-10 -82t-14 -74h-43q14 64 20.5 138.5t8.5 146.5h-387v40z
M738 221h-43v556h43v-283h140v-40h-140v-233z" />
    <glyph glyph-name="uniAD00" unicode="&#xad00;" 
d="M738 99h-43v678h43v-333h140v-40h-140v-305zM259 525h43v-209q45 1 91.5 3.5t91.5 6t87.5 8t78.5 10.5v-36q-51 -9 -110 -15t-121 -10t-124 -6t-117 -2h-158v39h157h39t42 1v210zM754 -71v-40h-573v258h45v-218h528zM102 735h434q0 -40 -2.5 -84t-6.5 -87t-10 -83.5
t-14 -74.5h-43q7 31 12 67t8.5 73.5t5.5 75t3 73.5h-387v40z" />
    <glyph glyph-name="uniAD04" unicode="&#xad04;" 
d="M759 -80v-39h-570v205h506v123h-506v38h549v-197h-506v-130h527zM258 569h44v-175q45 1 91.5 3.5t91.5 6.5t87.5 8.5t78.5 10.5v-38q-51 -8 -110 -14t-121 -9.5t-124 -5.5t-117 -2h-158v38h157h39t41 1v176zM102 745h434q0 -35 -3 -72.5t-7.5 -74.5t-10.5 -72t-14 -64
h-42q14 53 21 117.5t9 125.5h-387v40zM738 305h-43v472h43v-227h140v-39h-140v-206z" />
    <glyph glyph-name="uniAD06" unicode="&#xad06;" 
d="M467 -119v369h271v-369h-271zM696 213h-189v-294h189v294zM267 -121h-112v206h224v127h-224v38h265v-201h-223v-131h96q49 0 89 5t61 13v-36q-30 -12 -75 -16.5t-101 -4.5zM258 569h44v-173q45 1 91.5 3.5t91.5 6.5t87.5 8.5t78.5 10.5v-38q-51 -8 -110 -14t-121 -9.5
t-124 -5.5t-117 -2h-158v38h157h39t41 1v174zM102 745h434q0 -35 -2.5 -72.5t-6.5 -74.5t-10 -71.5t-14 -63.5h-42q14 53 20 117.5t8 124.5h-387v40zM738 308h-43v469h43v-223h140v-39h-140v-207z" />
    <glyph glyph-name="uniAD0C" unicode="&#xad0c;" 
d="M739 -115h-547v306h547v-306zM235 153v-229h460v229h-460zM21 310v38h157h39t41 1v196h44v-195q45 1 91.5 3.5t91.5 6t87.5 8t78.5 10.5v-36q-51 -9 -110 -15t-121 -9.5t-124 -5.5t-117 -2h-158zM102 745h434q0 -39 -2.5 -81.5t-6.5 -83.5t-10 -80.5t-14 -72.5h-43
q14 62 20.5 135.5t8.5 142.5h-387v40zM738 250h-43v527h43v-258h140v-40h-140v-229z" />
    <glyph glyph-name="uniAD0D" unicode="&#xad0d;" 
d="M738 229v-344h-547v339h44v-97h460v102h43zM234 -76h462v165h-462v-165zM258 552h44v-190q45 1 91.5 3.5t91.5 6t87.5 8t78.5 10.5v-36q-51 -9 -110 -15t-121 -9.5t-124 -5.5t-117 -2h-158v38h157h39t41 1v191zM102 745h434q-1 -78 -9.5 -162t-24.5 -150h-42
q14 61 20.5 132.5t8.5 139.5h-387v40zM738 281h-43v496h43v-234h140v-39h-140v-223z" />
    <glyph glyph-name="uniAD0F" unicode="&#xad0f;" 
d="M120 -90q75 16 135 44t102 66t64.5 84t22.5 98h46q0 -43 -15 -83q16 -35 48 -68t74.5 -61t93.5 -48.5t106 -30.5l-25 -37q-54 12 -103 32t-89.5 46.5t-72 59t-50.5 68.5q-41 -72 -123 -127t-189 -79zM21 297v39h157h39t41 1v191h44v-190q45 1 91.5 3.5t91.5 6t87.5 8
t78.5 10.5v-36q-51 -8 -110 -14.5t-121 -10.5t-124 -6t-117 -2h-158zM738 168h-43v609h43v-268h140v-40h-140v-301zM102 738h434q0 -41 -2.5 -85t-7 -88t-10.5 -85t-14 -75h-43q14 64 21 142.5t9 151.5h-387v39z" />
    <glyph glyph-name="uniAD11" unicode="&#xad11;" 
d="M458 -135q-69 0 -123 13t-91.5 36t-57 53.5t-19.5 66.5t20 66.5t57.5 53t91.5 35t122 12.5t122 -12.5t91.5 -35t57.5 -53t20 -66.5t-19.5 -66.5t-57 -53.5t-91.5 -36t-123 -13zM458 -97q59 0 104.5 10.5t76.5 28.5t47 41.5t16 48.5q0 26 -15.5 49.5t-46.5 41.5
t-76.5 28.5t-105.5 10.5t-105.5 -10.5t-76.5 -28.5t-46.5 -41.5t-15.5 -49.5q0 -25 16 -48.5t47 -41.5t76.5 -28.5t104.5 -10.5zM21 296v40h157h39t41 1v201h44v-200q45 1 91.5 3t91.5 5.5t87.5 8t78.5 10.5v-36q-51 -8 -110 -14.5t-121 -10.5t-124 -6t-117 -2h-158z
M738 212h-43v565h43v-254h140v-41h-140v-270zM102 745h434q0 -41 -2.5 -85.5t-7 -88t-10.5 -84.5t-14 -75h-43q14 65 21 143t9 151h-387v39z" />
    <glyph glyph-name="uniAD18" unicode="&#xad18;" 
d="M786 777v-906h-40v489h-158v-466h-39v873h39v-370h158v380h40zM393 265h-41q16 86 22 182t8 194h-307v41h350q-1 -48 -3 -103.5t-6 -111t-10 -108t-13 -94.5zM20 94v38h115h56v267h40v-265q70 2 143 8t130 16v-36q-41 -8 -88 -13t-95 -8.5t-96 -5t-91 -1.5h-114z" />
    <glyph glyph-name="uniAD1C" unicode="&#xad1c;" 
d="M795 777v-654h-42v321h-144v-301h-42v624h42v-286h144v296h42zM812 -72v-39h-594v248h43v-209h551zM34 262v37h125h50v214h39v-212q70 2 144 8.5t132 17.5v-38q-41 -8 -87 -13t-93.5 -8t-94.5 -4.5t-90 -1.5h-125zM89 720h350q0 -40 -2.5 -85.5t-6 -91t-9 -87.5
t-12.5 -76h-40q6 31 11 68.5t8.5 77t5.5 79.5t3 76h-308v39z" />
    <glyph glyph-name="uniAD20" unicode="&#xad20;" 
d="M817 -80v-39h-588v206h524v122h-524v38h566v-196h-524v-131h546zM795 777v-472h-42v203h-144v-203h-42v462h42v-222h144v232h42zM34 351v37h125h50v181h39v-180q70 3 144 9.5t132 17.5v-39q-41 -8 -87 -13t-93.5 -8t-94.5 -4t-90 -1h-125zM89 740h351q0 -35 -2.5 -73.5
t-7 -76t-10.5 -72.5t-14 -64h-39q13 54 20.5 120.5t9.5 128.5h-308v37z" />
    <glyph glyph-name="uniAD29" unicode="&#xad29;" 
d="M795 224v-339h-566v334h43v-96h481v101h42zM271 -77h483v159h-483v-159zM609 767v-223h144v233h42v-501h-42v231h-144v-231h-42v491h42zM34 315v38h125h50v207h39v-206q70 2 144 8t132 17v-38q-41 -8 -87 -13t-93.5 -8t-94.5 -4t-90 -1h-125zM89 740h351q0 -39 -2.5 -81
t-6.5 -83.5t-10 -80t-14 -71.5h-40q14 62 21 136t9 143h-308v37z" />
    <glyph glyph-name="uniAD2C" unicode="&#xad2c;" 
d="M488 -128q-54 27 -100.5 73t-70.5 100q-49 -114 -174 -172l-31 34q100 42 148 116t41 168h42q1 -23 -1 -44.5t-6 -41.5q4 -21 17 -45.5t33 -49.5t46 -48.5t58 -40.5q34 21 61.5 52t46.5 67.5t27.5 76t5.5 78.5h40q1 -25 -1.5 -48t-7.5 -44q5 -24 19.5 -50.5t37.5 -52
t54 -48.5t69 -40l-31 -35q-61 28 -101.5 72t-65.5 96q-24 -60 -65.5 -103.5t-90.5 -69.5zM795 777v-539h-42v258h-144v-258h-42v529h42v-233h144v243h42zM34 308v39h125h50v198h39v-197q70 2 144 7.5t132 16.5v-37q-41 -8 -87 -13t-93.5 -8t-94.5 -4.5t-90 -1.5h-125z
M89 740h351q0 -39 -2.5 -82t-6.5 -85t-10 -81.5t-14 -72.5h-40q14 62 21 138t9 146h-308v37z" />
    <glyph glyph-name="uniAD2D" unicode="&#xad2d;" 
d="M495 -135q-70 0 -125 12.5t-93 35t-58 52.5t-20 66t20 65.5t58 51.5t93 34t125 12t125.5 -12t94 -34t59 -51.5t20.5 -65.5t-20.5 -66t-58.5 -52.5t-94 -35t-126 -12.5zM495 -99q61 0 108 10.5t79 28.5t48.5 41t16.5 48t-16.5 48.5t-48 41t-79 28t-108.5 10.5
t-107.5 -10.5t-78 -28t-47.5 -41t-16 -48.5t16.5 -48t48 -41t78 -28.5t106.5 -10.5zM795 777v-576h-42v276h-144v-246h-42v536h42v-251h144v261h42zM34 297v39h125h50v199h39v-198q70 2 144 8t132 17v-37q-41 -8 -87 -13t-93.5 -8.5t-94.5 -5t-90 -1.5h-125zM89 740h351
q-1 -81 -9 -165.5t-24 -152.5h-40q14 63 21 137t9 144h-308v37z" />
    <glyph glyph-name="uniAD34" unicode="&#xad34;" 
d="M273 453h44v-329q48 1 99 3t102 5t98.5 8t88.5 11v-34q-50 -9 -109 -15t-120.5 -10t-122.5 -6t-116 -2h-197v39h196h37v330zM795 777v-906h-41v906h41zM524 258h-42q11 43 18.5 92.5t12 101t6.5 104t3 101.5h-416v39h459q-1 -55 -3.5 -114.5t-7 -117t-12 -111
t-18.5 -95.5z" />
    <glyph glyph-name="uniAD35" unicode="&#xad35;" 
d="M291 538h44v-211q46 1 95.5 3.5t97.5 6t93.5 8.5t83.5 11v-36q-50 -9 -108.5 -15.5t-120 -10t-122.5 -5.5t-116 -2h-195v39h194h54v212zM795 -132h-42v255h-535v39h577v-294zM132 745h445q-1 -82 -9 -167.5t-24 -154.5h-42q14 64 20.5 137.5t8.5 144.5h-399v40zM795 223
h-41v554h41v-554z" />
    <glyph glyph-name="uniAD38" unicode="&#xad38;" 
d="M291 520h44v-214q46 1 95.5 3.5t97.5 6t93.5 8.5t83.5 11v-37q-50 -9 -108.5 -15t-120 -9.5t-122.5 -5.5t-116 -2h-195v39h194q13 0 26.5 -0.5t27.5 0.5v215zM812 -71v-40h-583v258h43v-218h540zM132 736h445q0 -40 -2.5 -83t-6.5 -85.5t-10 -82t-14 -73.5h-42
q14 63 20.5 137.5t8.5 145.5h-399v41zM795 89h-41v688h41v-688z" />
    <glyph glyph-name="uniAD3C" unicode="&#xad3c;" 
d="M817 -80v-39h-580v206h516v129h-516v38h558v-203h-516v-131h538zM43 353v37h194h47v179h44v-178q47 1 97 3.5t99.5 6t95.5 8.5t85 12v-37q-50 -8 -108.5 -14t-120 -9.5t-122.5 -5.5t-116 -2h-195zM132 745h445q-1 -69 -9 -142t-24 -131h-41q14 53 20 113.5t8 120.5h-399
v39zM754 312v465h41v-465h-41z" />
    <glyph glyph-name="uniAD44" unicode="&#xad44;" 
d="M795 -115h-561v299h561v-299zM277 146v-222h476v222h-476zM43 303v38h194h54v204h44v-203q46 1 95.5 4t97.5 6.5t93.5 9t83.5 11.5v-37q-50 -9 -108.5 -15t-120 -10t-122.5 -6t-116 -2h-195zM132 745h445q-1 -79 -9 -160t-24 -148h-42q14 63 20.5 132t8.5 137h-399v39z
M754 243v534h41v-534h-41z" />
    <glyph glyph-name="uniAD45" unicode="&#xad45;" 
d="M795 227v-342h-561v335h43v-97h476v104h42zM276 -76h478v161h-478v-161zM43 315v38h194h54v197h44v-196q46 1 95.5 3.5t97.5 6t93.5 8.5t83.5 11v-36q-50 -8 -108.5 -14t-120 -10t-122.5 -6t-116 -2h-195zM132 745h445q-1 -78 -9 -157.5t-24 -145.5h-41q14 62 20 130
t8 134h-399v39zM754 279v498h41v-498h-41z" />
    <glyph glyph-name="uniAD47" unicode="&#xad47;" 
d="M152 -90q75 16 135 44t102 66t64.5 84t22.5 98h47q0 -43 -15 -83q16 -35 47.5 -68t74.5 -61t94 -48.5t106 -30.5l-25 -37q-54 11 -102.5 31t-89 46.5t-72.5 58.5t-53 67q-42 -72 -123.5 -125.5t-187.5 -77.5zM43 300v38h194q13 0 26.5 -0.5t27.5 0.5v195h44v-194
q46 1 95.5 3t97.5 5.5t93.5 8.5t83.5 11v-35q-50 -8 -108.5 -14t-120 -10t-122.5 -6t-116 -2h-195zM132 745h445q-1 -82 -9 -162.5t-24 -149.5h-42q14 65 21 134.5t9 138.5h-400v39zM795 168h-41v609h41v-609z" />
    <glyph glyph-name="uniAD49" unicode="&#xad49;" 
d="M495 -135q-70 0 -125 13.5t-92.5 36.5t-57 54.5t-19.5 67.5t20 67t57.5 54t92 36t124.5 13t125 -13t93.5 -36t58.5 -54t20 -67t-20 -67.5t-58 -54.5t-93.5 -36.5t-125.5 -13.5zM495 -98q61 0 108 11t78.5 29.5t47.5 42.5t16 49q0 26 -16 50.5t-47.5 43t-78 29.5
t-108.5 11q-61 0 -107.5 -11t-77.5 -29.5t-46.5 -43t-15.5 -50.5q0 -25 16 -49t47 -42.5t77.5 -29.5t106.5 -11zM43 300v38h194q13 0 26.5 -0.5t27.5 0.5v195h44v-194q46 1 95.5 3t97.5 5.5t93.5 8.5t83.5 11v-35q-50 -8 -108.5 -14t-120 -10t-122.5 -6t-116 -2h-195z
M132 745h445q-1 -82 -9 -162.5t-24 -149.5h-42q14 65 21 134.5t9 138.5h-400v39zM795 214h-41v563h41v-563z" />
    <glyph glyph-name="uniAD50" unicode="&#xad50;" 
d="M678 203l-41 1q24 97 38 215t15 238l-532 -1v40h576q-2 -132 -15 -259t-41 -234zM491 382h44v-337h329v-38h-838v38h246v337h43v-337h176v337z" />
    <glyph glyph-name="uniAD54" unicode="&#xad54;" 
d="M496 534h44v-224h335v-39h-859v39h251v224h44v-224h185v224zM147 751h583q-2 -96 -11.5 -181t-20.5 -173h-43q11 72 20 150.5t10 163.5h-538v40zM747 -74v-41h-584v277h45v-236h539z" />
    <glyph glyph-name="uniAD58" unicode="&#xad58;" 
d="M496 570h44v-168h335v-38h-859v38h251v168h44v-168h185v168zM147 751h584q-2 -78 -10 -142.5t-21 -134.5h-43q11 56 19 112t9 125h-538v40zM754 -125h-592v210h524v128h-524v38h567v-202h-524v-135h549v-39z" />
    <glyph glyph-name="uniAD61" unicode="&#xad61;" 
d="M496 555h44v-181h335v-38h-859v38h251v181h44v-181h185v181zM147 751h583q-2 -79 -11 -151t-21 -144h-43q11 56 20 121t10 134h-538v40zM727 -115h-560v365h44v-114h472v114h44v-365zM684 -75v173h-474v-173h474z" />
    <glyph glyph-name="uniAD63" unicode="&#xad63;" 
d="M496 540h44v-195h335v-38h-859v38h251v195h44v-195h185v195zM99 -90q75 18 137 47.5t105.5 70t67.5 89.5t24 106h46q0 -47 -16 -88q16 -38 49 -73.5t78 -65.5t98 -52t108 -33l-21 -37q-54 12 -104.5 33.5t-94 49.5t-78 62t-55.5 72q-22 -38 -55 -71.5t-74.5 -61.5
t-90 -49.5t-101.5 -34.5zM147 751h583q-2 -87 -11.5 -165t-20.5 -157h-43q11 63 20 135t10 147h-538v40z" />
    <glyph glyph-name="uniAD6C" unicode="&#xad6c;" 
d="M26 281v40h633q7 40 13.5 88.5t11 98.5t7.5 99t3 91h-532v40h577q0 -48 -3 -102t-7.5 -108.5t-11 -107.5t-15.5 -99h162v-40h-390v-405h-45v405h-403z" />
    <glyph glyph-name="uniAD6D" unicode="&#xad6d;" 
d="M471 387v-219h257v-300h-44v262h-537v38h279v219h-410v39h644q10 69 17 137t7 149h-531v39h577q-2 -91 -9 -167t-18 -158h172v-39h-404z" />
    <glyph glyph-name="uniAD70" unicode="&#xad70;" 
d="M490 337v-246h-45v246h-429v38h640q12 78 19 162t9 175h-531v39h577q-2 -102 -9.5 -192.5t-20.5 -183.5h175v-38h-385zM747 -74v-41h-584v276h45v-235h539z" />
    <glyph glyph-name="uniAD73" unicode="&#xad73;" 
d="M471 383v-185h259v-38h-524v-235h542v-40h-585v313h263v185h-410v39h644q10 66 17 140t7 150h-531v39h577q-2 -88 -9 -168t-19 -161h173v-39h-404z" />
    <glyph glyph-name="uniAD74" unicode="&#xad74;" 
d="M471 420v-155h258v-209h-524v-142h549v-39h-592v217h524v135h-524v38h264v155h-410v37h644q10 59 16.5 123t7.5 132h-531v39h577q-2 -79 -8.5 -150t-18.5 -144h172v-37h-404z" />
    <glyph glyph-name="uniAD75" unicode="&#xad75;" 
d="M473 424v-154h264v-402h-43v364h-224v20h-42v-194h-240v-144h162q101 0 142 16v-36q-29 -11 -71 -15t-96 -4h-179v219h239v138h-239v38h281v154h-411v37h643q10 57 17 121t8 130h-531v39h577q-2 -78 -8.5 -148t-18.5 -142h172v-37h-402z" />
    <glyph glyph-name="uniAD76" unicode="&#xad76;" 
d="M153 751h577q-2 -78 -8.5 -148t-18.5 -142h172v-37h-401v-154h265v-394h-266v376h-45v-195h-228v-144h97q49 0 86 4.5t58 12.5v-36q-29 -11 -72 -15.5t-99 -4.5h-113v219h228v139h-228v38h270v154h-411v37h643q10 57 17 121t8 130h-531v39zM697 233h-182v-319h182v319z
" />
    <glyph glyph-name="uniAD7B" unicode="&#xad7b;" 
d="M475 424v-162h-47v162h-412v37h643q10 57 17 120.5t8 129.5h-531v40h577q-2 -78 -8.5 -148t-18.5 -142h172v-37h-400zM628 101q64 0 100.5 -33t36.5 -87t-37 -86t-100 -32t-100.5 32t-37.5 86t37 87t101 33zM196 59v-143h110q47 0 86 4.5t60 12.5v-33q-35 -11 -79 -15.5
t-95 -4.5h-123v213h217v137h-217v38h260v-209h-219zM628 65q-46 0 -72.5 -24t-26.5 -59q0 -34 26 -58.5t73 -24.5q46 0 72.5 24.5t26.5 58.5q0 35 -27 59t-72 24zM793 144h-332v37h332v-37zM718 238h-184v39h184v-39z" />
    <glyph glyph-name="uniAD7C" unicode="&#xad7c;" 
d="M471 387v-185h257v-317h-565v317h263v185h-410v39h644q10 66 17 138t7 147h-531v40h577q-2 -87 -9 -166t-18 -159h172v-39h-404zM684 -75v238h-477v-238h477z" />
    <glyph glyph-name="uniAD7D" unicode="&#xad7d;" 
d="M728 -115h-565v375h44v-121h477v121h44v-375zM685 -75v177h-479v-177h479zM471 396v-162h-45v162h-410v39h644q10 63 16.5 133t7.5 143h-531v40h577q-2 -85 -8.5 -161.5t-18.5 -154.5h172v-39h-404z" />
    <glyph glyph-name="uniAD7F" unicode="&#xad7f;" 
d="M473 367v-139h-45v139h-412v39h643q11 71 18 148t7 158h-531v39h577q-2 -92 -9 -176t-19 -169h173v-39h-402zM107 -88q75 15 136.5 42.5t105 64.5t67.5 82t24 96h46q0 -21 -4 -41t-12 -40q16 -34 50 -66.5t78.5 -60t97 -48t106.5 -30.5l-22 -37q-53 11 -102.5 31
t-92 46.5t-77.5 58t-58 65.5q-22 -35 -55 -66t-75 -57t-90.5 -46t-101.5 -32z" />
    <glyph glyph-name="uniAD81" unicode="&#xad81;" 
d="M471 387v-176q63 -2 112.5 -16t84 -37t52.5 -53t18 -65q0 -37 -19.5 -69t-57 -55.5t-91.5 -37t-123 -13.5t-123 13.5t-91.5 37t-57 55.5t-19.5 69q0 35 18.5 65.5t53 53.5t85 36.5t113.5 15.5v176h-410v39h644q10 66 17 138.5t7 147.5h-531v39h577q-2 -87 -9 -166
t-18 -159h172v-39h-404zM447 -97q60 0 106 11t77.5 30t47.5 43.5t16 50.5t-16 50.5t-47 43t-77.5 30t-106.5 11.5q-61 0 -107 -11.5t-77 -30t-47 -43t-16 -50.5t16 -50.5t47.5 -43.5t77.5 -30t106 -11z" />
    <glyph glyph-name="uniAD82" unicode="&#xad82;" 
d="M471 391v-180h13h57.5t55 0.5t56 1t60.5 1.5q10 0 5 -15q-24 -51 -79 -98t-129 -88q65 -29 141 -55t158 -43l-26 -40q-39 9 -80.5 22.5t-82.5 29t-80 32t-72 32.5q-76 -38 -161 -68t-170 -51l-25 41q93 18 178 47.5t155.5 64.5t123.5 74t82 76q-70 -4 -138.5 -4.5
t-125.5 -0.5h-210v41h249v180h-410v39h644q10 65 16.5 136t7.5 145h-531v40h577q-2 -85 -9 -164t-18 -157h172v-39h-404z" />
    <glyph glyph-name="uniAD88" unicode="&#xad88;" 
d="M224 299h-181v40h183q52 0 113.5 1.5t125.5 6.5q18 79 25 159t9 175h-373v41h416q-1 -45 -3 -93.5t-6.5 -96.5t-11 -94.5t-15.5 -88.5q53 4 101.5 9.5t90.5 12.5v-39q-85 -14 -169.5 -20.5t-171.5 -9.5v-411h-41v410q-23 -1 -46 -1.5t-46 -0.5zM795 777v-906h-41v247
h-227v38h227v621h41z" />
    <glyph glyph-name="uniAD89" unicode="&#xad89;" 
d="M224 411h-180v37h182q58 0 127 2t139 7q13 57 18.5 120.5t7.5 126.5h-386v40h430q-1 -71 -7 -145t-19 -139q44 3 85 8t77 11v-36q-78 -13 -162.5 -20t-171.5 -10v-214h-44v212h-96zM795 -132h-42v238h-540v40h582v-278zM795 201h-41v90h-223v37h223v449h41v-576z" />
    <glyph glyph-name="uniAD8C" unicode="&#xad8c;" 
d="M224 373h-180v39h182q57 0 126 1.5t138 6.5q14 59 20 132.5t8 142.5h-386v41h430q0 -36 -2 -77t-5.5 -82t-8.5 -80.5t-12 -73.5q45 3 86.5 7.5t77.5 10.5v-35q-82 -14 -165.5 -20.5t-168.5 -9.5v-234h-44v232q-24 -1 -48 -1h-48zM795 87h-41v146h-223v37h223v507h41v-690
zM812 -71v-40h-607v253h43v-213h564z" />
    <glyph glyph-name="uniAD90" unicode="&#xad90;" 
d="M817 -80v-39h-585v198h521v115h-521v39h563v-190h-521v-123h543zM227 448h-183v35h182q59 0 128.5 2t140.5 7q11 48 16 103.5t6 109.5h-385v39h430q-1 -62 -6.5 -127t-17.5 -122q44 4 84.5 8.5t75.5 10.5v-34q-79 -13 -163 -20t-171 -10v-179h-44v178q-23 -1 -46.5 -1
h-46.5zM795 280h-41v67h-223v34h223v396h41v-497z" />
    <glyph glyph-name="uniAD9C" unicode="&#xad9c;" 
d="M224 421h-180v37h182q58 0 127.5 2t139.5 7q13 55 18 116.5t7 121.5h-386v39h430q-1 -68 -6.5 -139.5t-18.5 -134.5q44 4 85 8.5t76 10.5v-36q-83 -14 -166 -20.5t-168 -8.5v-219h-44v218q-24 -1 -48 -1.5t-48 -0.5zM505 -128q-55 26 -100 68.5t-68 93.5
q-24 -53 -70.5 -93t-109.5 -69l-29 35q46 18 83.5 44.5t62.5 59t37 71t9 82.5h42q1 -20 -1 -39.5t-6 -37.5q4 -19 16.5 -41.5t32 -44.5t45.5 -42t58 -35q34 19 60.5 46t44.5 59t26.5 67.5t5.5 71.5h40q1 -44 -8 -85q6 -22 21 -45.5t38.5 -46.5t54 -43.5t68.5 -35.5l-29 -35
q-60 27 -102.5 66t-67.5 87q-24 -54 -64.5 -93.5t-89.5 -64.5zM795 217h-41v82h-223v39h223v439h41v-560z" />
    <glyph glyph-name="uniAD9D" unicode="&#xad9d;" 
d="M497 -135q-70 0 -125 12t-92.5 33.5t-57 51t-19.5 63.5t20 63t57.5 50t92 32.5t124.5 11.5t125 -11.5t93.5 -32.5t58.5 -50t20 -63t-20 -63.5t-58 -51t-93.5 -33.5t-125.5 -12zM497 -99q61 0 107.5 10t78 27t48 39t16.5 45q0 24 -16 46t-47.5 39.5t-78.5 27.5t-108 10
t-107 -10t-77 -27.5t-47 -39.5t-16 -46q0 -23 16 -45t47.5 -39t77.5 -27t106 -10zM215 415h-171v37h173q59 0 131 2t145 7q13 56 18 118.5t7 125.5h-386v39h430q-1 -69 -6.5 -142t-18.5 -138q45 4 85.5 8.5t75.5 10.5v-36q-77 -13 -161.5 -19.5t-172.5 -9.5v-208h-44v207
q-26 -1 -52.5 -1.5t-52.5 -0.5zM795 188h-41v111h-223v38h223v440h41v-589z" />
    <glyph glyph-name="uniADA4" unicode="&#xada4;" 
d="M177 324h-157v38h151q40 0 86.5 1t94.5 3q9 38 15 74.5t9.5 74.5t5 79t2.5 88h-310v38h354q-2 -90 -9.5 -180t-26.5 -171q38 2 73 6t65 9v-33q-65 -12 -127.5 -17.5t-125.5 -7.5v-429h-40v427h-60zM588 128h-169v38h169v601h40v-881h-40v242zM755 -129v906h40v-906h-40z
" />
    <glyph glyph-name="uniADB7" unicode="&#xadb7;" 
d="M169 406h-142v36h145q44 0 96 1.5t105 5.5q12 57 17 119.5t7 125.5h-297v39h341q-1 -69 -6.5 -142t-18.5 -138q31 2 59.5 5.5t53.5 8.5v-34q-61 -11 -119.5 -16.5t-116.5 -7.5v-232h-40v230q-21 0 -42 -0.5t-42 -0.5zM141 -90q75 14 135 39.5t101.5 60.5t64 77.5
t22.5 89.5h47q0 -40 -15 -77q16 -32 47.5 -62.5t74 -55.5t93.5 -44t106 -28l-20 -36q-52 10 -101 29t-91 43.5t-75.5 53.5t-55.5 61q-21 -33 -53 -62t-72.5 -53t-88.5 -42.5t-100 -29.5zM585 307h-149v36h149v424h40v-559h-40v99zM755 150v627h40v-627h-40z" />
    <glyph glyph-name="uniADC0" unicode="&#xadc0;" 
d="M224 298h-181v41h183q55 0 120 1.5t132 5.5q19 79 26 158.5t9 175.5h-374v42h416q-1 -45 -3 -93.5t-6.5 -96.5t-11 -94.5t-15.5 -88.5q49 4 94.5 8.5t84.5 11.5v-38q-83 -14 -164.5 -20.5t-166.5 -9.5v-410h-44v409q-25 -1 -49.5 -1.5t-49.5 -0.5zM796 777v-906h-41v906
h41z" />
    <glyph glyph-name="uniADC1" unicode="&#xadc1;" 
d="M42 398v41h184q60 0 130.5 2t142.5 7q13 60 18 125.5t6 130.5h-386v40h430q-1 -74 -6.5 -149.5t-17.5 -143.5q43 3 82.5 8t74.5 11v-39q-73 -13 -161.5 -20t-176.5 -11v-190h-44v189q-24 -1 -46.5 -1h-44.5h-185zM795 -132h-42v243h-540v40h582v-283zM795 212h-42v565h42
v-565z" />
    <glyph glyph-name="uniADC4" unicode="&#xadc4;" 
d="M42 363v41h184q59 0 128.5 2t140.5 7q14 63 20 136.5t8 145.5h-386v41h430q0 -39 -2 -80.5t-5.5 -83t-8.5 -81.5t-12 -75q44 3 85 7.5t76 10.5v-39q-70 -11 -154 -18.5t-169 -10.5v-224h-44v222q-28 -1 -54.5 -1h-51.5h-185zM812 -71v-40h-604v262h43v-222h561zM795 93
h-42v684h42v-684z" />
    <glyph glyph-name="uniADC8" unicode="&#xadc8;" 
d="M817 -80v-39h-585v200h521v117h-521v39h563v-192h-521v-125h543zM42 429v39h184q60 0 131 2t143 7q12 54 16.5 111.5t6.5 115.5h-386v40h430q-1 -66 -6.5 -134t-16.5 -130q42 4 81.5 8.5t74.5 9.5v-37q-70 -11 -154 -18.5t-169 -10.5v-157h-44v155q-28 -1 -54.5 -1h-51.5
h-185zM795 284h-42v493h42v-493z" />
    <glyph glyph-name="uniADD0" unicode="&#xadd0;" 
d="M795 -115h-561v289h561v-289zM277 137v-214h476v214h-476zM377 409v-188h-44v186q-28 -1 -54.5 -1h-51.5h-185v40h184q60 0 130.5 2t142.5 7q12 58 17 122t7 127h-386v40h430q-1 -71 -6.5 -145t-17.5 -141q43 3 82.5 8t74.5 10v-38q-70 -12 -154 -19t-169 -10zM795 233
h-42v544h42v-544z" />
    <glyph glyph-name="uniADD1" unicode="&#xadd1;" 
d="M795 210v-325h-561v320h43v-86h476v91h42zM276 -77h478v159h-478v-159zM42 413v40h184q60 0 130.5 2t142.5 7q12 56 17 118t7 124h-386v40h430q-1 -69 -6.5 -141.5t-17.5 -137.5q43 4 82.5 8.5t74.5 10.5v-39q-70 -11 -154 -18.5t-169 -10.5v-160h-44v158
q-28 -1 -54.5 -1h-51.5h-185zM795 276h-42v501h42v-501z" />
    <glyph glyph-name="uniADD3" unicode="&#xadd3;" 
d="M42 381v42h184q59 0 129.5 1.5t142.5 6.5q14 61 19 129t7 136h-387v41h431q-1 -76 -6.5 -155t-19.5 -148q43 4 83 8t75 10v-38q-70 -12 -154 -19t-169 -11v-212h-44v210q-28 -1 -54.5 -1h-51.5h-185zM155 -90q75 14 135 41t102 63t64.5 80t22.5 93h47q0 -40 -15 -79
q16 -33 47.5 -64.5t74 -58t93.5 -46t106 -29.5l-20 -36q-54 11 -103 30t-90.5 44t-74.5 55.5t-54 63.5q-21 -34 -53 -64t-72 -54.5t-88 -43.5t-100 -31zM795 183h-42v594h42v-594z" />
    <glyph glyph-name="uniADDC" unicode="&#xaddc;" 
d="M630 -122h-42v404h-267v-404h-44v404h-251v39h633q7 40 13.5 88.5t11 98.5t7.5 99t3 91h-532v40h577q0 -48 -3 -102t-7.5 -108.5t-11 -107.5t-15.5 -99h162v-39h-234v-404z" />
    <glyph glyph-name="uniADE0" unicode="&#xade0;" 
d="M615 337v-248h-45v248h-194v-248h-42v248h-318v38h642q11 78 19 163t8 174h-532v39h577q-2 -100 -9 -192.5t-20 -183.5h174v-38h-260zM747 -77v-38h-584v276h45v-238h539z" />
    <glyph glyph-name="uniADE4" unicode="&#xade4;" 
d="M754 -125h-592v217h524v136h-524v38h109v156h-255v37h644q10 58 16.5 121.5t7.5 130.5h-531v40h577q-2 -79 -8.5 -149.5t-18.5 -142.5h172v-37h-256v-156h110v-210h-524v-142h549v-39zM575 422h-260v-156h260v156z" />
    <glyph glyph-name="uniADF8" unicode="&#xadf8;" 
d="M26 57h587q12 61 22 133.5t17.5 150.5t12.5 157.5t7 154.5h-513v40h561q-2 -72 -8 -156t-14.5 -169t-19 -165.5t-21.5 -145.5h207v-39h-838v39z" />
    <glyph glyph-name="uniADF9" unicode="&#xadf9;" 
d="M16 399h642q11 72 18.5 150.5t7.5 161.5h-531v40h577q-2 -94 -9.5 -179.5t-19.5 -172.5h174v-38h-859v38zM728 -132h-44v276h-537v38h581v-314z" />
    <glyph glyph-name="uniADFC" unicode="&#xadfc;" 
d="M16 365h641q11 78 19 167.5t8 178.5h-531v40h577q-2 -100 -9 -197t-20 -189h174v-38h-859v38zM747 -74v-41h-584v276h45v-235h539z" />
    <glyph glyph-name="uniADFF" unicode="&#xadff;" 
d="M16 406h641q11 69 19 146.5t8 158.5h-531v40h577q-2 -92 -9.5 -176t-20.5 -169h175v-39h-859v39zM748 -116h-585v324h567v-39h-524v-245h542v-40z" />
    <glyph glyph-name="uniAE00" unicode="&#xae00;" 
d="M754 -125h-592v220h524v139h-524v38h567v-213h-524v-145h549v-39zM16 447h642q11 60 18 127t8 137h-531v40h577q-2 -81 -9 -155t-19 -149h173v-37h-859v37z" />
    <glyph glyph-name="uniAE01" unicode="&#xae01;" 
d="M16 450h643q10 60 17 126t8 135h-531v40h577q-2 -81 -9 -154t-19 -147h173v-37h-859v37zM325 -125h-179v223h239v140h-239v38h282v-214h-240v-148h162q101 0 142 16v-36q-29 -11 -71 -15t-96 -4zM737 -132h-43v370h-224v38h267v-408z" />
    <glyph glyph-name="uniAE08" unicode="&#xae08;" 
d="M728 -115h-565v324h565v-324zM684 -75v245h-477v-245h477zM16 414h642q11 68 18.5 143t7.5 154h-531v40h577q-2 -91 -9.5 -172.5t-19.5 -164.5h174v-39h-859v39z" />
    <glyph glyph-name="uniAE09" unicode="&#xae09;" 
d="M728 -115h-565v378h44v-122h477v122h44v-378zM685 -76v178h-479v-178h479zM16 417h642q11 65 18 142t8 152h-531v40h577q-2 -87 -9 -170.5t-20 -163.5h174v-39h-859v39z" />
    <glyph glyph-name="uniAE0B" unicode="&#xae0b;" 
d="M16 391h641q11 73 19 154t8 166h-531v40h577q-2 -97 -9.5 -184t-20.5 -176h175v-38h-859v38zM116 -90q75 18 137 48.5t105.5 71.5t67.5 91t24 107h46q0 -47 -16 -89q16 -38 49.5 -74t78 -66.5t97.5 -53.5t109 -34l-26 -37q-55 13 -105 35t-92.5 51.5t-75.5 65t-52 74.5
q-21 -39 -53.5 -74t-74 -64.5t-90.5 -52t-103 -35.5z" />
    <glyph glyph-name="uniAE0D" unicode="&#xae0d;" 
d="M446 -135q-68 0 -122 14t-91.5 38t-57.5 57t-20 72t20 71.5t57.5 56t91.5 37t122 13.5t122 -13.5t91.5 -37t57.5 -56t20 -71.5t-20 -72t-57.5 -57t-91.5 -38t-122 -14zM446 -97q60 0 106 11.5t77.5 31t47.5 45t16 53.5t-16 54t-47 45t-77.5 30.5t-106.5 11.5
q-61 0 -107 -11.5t-77 -30.5t-47 -45t-16 -54t16 -53.5t47.5 -45t77.5 -31t106 -11.5zM16 399h641q11 69 19 150.5t8 161.5h-531v40h577q-5 -184 -30 -352h175v-38h-859v38z" />
    <glyph glyph-name="uniAE14" unicode="&#xae14;" 
d="M116 694h438q-1 -63 -5 -135t-10.5 -144.5t-15 -142.5t-17.5 -129q55 4 106 9t95 13v-38q-50 -9 -109 -15t-120.5 -10t-122.5 -6t-116 -2h-198v40h197q49 0 107.5 1.5t118.5 4.5q9 55 17.5 119t14.5 131.5t10 135.5t5 131h-395v37zM795 777v-906h-41v906h41z" />
    <glyph glyph-name="uniAE30" unicode="&#xae30;" 
d="M728 -129v906h43v-906h-43zM90 73l-31 33q93 45 165 107.5t122 135t78.5 151.5t33.5 159q-69 -2 -129.5 -2.5t-120.5 -0.5h-118v39h180q61 0 121 0.5t117 2.5q-14 -207 -117 -363t-301 -262z" />
    <glyph glyph-name="uniAE31" unicode="&#xae31;" 
d="M86 275l-25 37q76 22 143 55.5t120 80.5t90 109t53 140q-68 -2 -136.5 -2.5t-128.5 -0.5h-94v39h152q69 0 131 0.5t128 2.5q-20 -165 -130.5 -283.5t-302.5 -177.5zM728 262v515h43v-515h-43zM771 -132h-42v282h-524v39h566v-321z" />
    <glyph glyph-name="uniAE34" unicode="&#xae34;" 
d="M89 233l-27 34q76 26 143.5 63t120.5 88t90 118.5t51 154.5q-68 -2 -137 -2.5t-129 -0.5h-93v39h151q69 0 131 0.5t128 2.5q-18 -176 -124.5 -302t-304.5 -195zM728 118v659h43v-659h-43zM786 -70v-41h-547v273h43v-232h504z" />
    <glyph glyph-name="uniAE37" unicode="&#xae37;" 
d="M85 285l-25 36q76 22 143 54.5t120 78t90 106t54 137.5q-68 -2 -136 -2.5t-129 -0.5h-94v39h153q69 0 131 0.5t128 2.5q-21 -165 -132 -279.5t-303 -171.5zM728 267v510h43v-510h-43zM789 -115h-562v324h546v-42h-503v-242h519v-40z" />
    <glyph glyph-name="uniAE38" unicode="&#xae38;" 
d="M82 322l-23 37q77 18 144 48t120 72t90.5 96.5t55.5 122.5q-69 -2 -136.5 -2.5t-128.5 -0.5h-96v38h155q69 0 131 0.5t128 2.5q-11 -76 -46.5 -141.5t-92 -118t-132.5 -91.5t-169 -63zM728 337v440h43v-440h-43zM792 -80v-39h-574v220h511v140h-511v38h553v-215h-511
v-144h532z" />
    <glyph glyph-name="uniAE3A" unicode="&#xae3a;" 
d="M82 323l-23 37q77 18 144 48t120 71.5t90.5 96t55.5 122.5q-69 -2 -136.5 -2.5t-128.5 -0.5h-96v38h155q69 0 131 0.5t128 2.5q-11 -76 -46.5 -141.5t-92 -118t-132.5 -91t-169 -62.5zM728 337v440h43v-440h-43zM502 -115v396h269v-396h-269zM730 244h-189v-321h189v321z
M302 -117h-118v219h230v141h-230v38h270v-216h-227v-143h101q50 0 89.5 5t59.5 13v-36q-29 -12 -74 -16.5t-101 -4.5z" />
    <glyph glyph-name="uniAE40" unicode="&#xae40;" 
d="M84 289l-24 37q76 21 143 53.5t120 78t90.5 105t54.5 134.5q-69 -2 -137 -2.5t-129 -0.5h-94v39h153q69 0 131 0.5t128 2.5q-21 -161 -134 -276.5t-302 -170.5zM728 274v503h43v-503h-43zM771 216v-331h-546v331h546zM729 -75v251h-461v-251h461z" />
    <glyph glyph-name="uniAE41" unicode="&#xae41;" 
d="M83 306l-24 36q77 19 144 51t120 76t90 101t55 127q-69 -2 -136.5 -2.5t-128.5 -0.5h-95v39h154q69 0 131 0.5t128 2.5q-11 -78 -46 -145.5t-91 -122.5t-132 -96t-169 -66zM728 312v465h43v-465h-43zM771 255v-370h-546v364h43v-111h461v117h42zM267 -75h463v174h-463
v-174z" />
    <glyph glyph-name="uniAE43" unicode="&#xae43;" 
d="M87 243l-28 34q80 25 148.5 62.5t121.5 89t87 118.5t45 150q-68 -2 -136 -2.5t-129 -0.5h-88v39h147q69 0 130.5 0.5t127.5 2.5q-15 -179 -121.5 -303.5t-304.5 -189.5zM145 -90q75 18 135 51t102 77.5t64.5 97t22.5 108.5h47q0 -26 -5 -50.5t-14 -49.5q15 -38 46.5 -75
t75 -68t96 -54.5t108.5 -35.5l-22 -37q-53 12 -102 34.5t-91 52.5t-75.5 66t-54.5 74q-21 -39 -53 -74.5t-72 -65t-87 -52t-98 -35.5zM728 164v613h43v-613h-43z" />
    <glyph glyph-name="uniAE45" unicode="&#xae45;" 
d="M86 275l-26 36q76 22 143 55.5t120.5 81t90.5 109.5t53 140q-68 -2 -136.5 -2.5t-128.5 -0.5h-94v39h152q69 0 131 0.5t128 2.5q-20 -165 -130.5 -283.5t-302.5 -177.5zM728 248v529h43v-529h-43zM486 -135q-68 0 -121.5 14t-90 38t-56 57t-19.5 72t19.5 71.5t56 56
t90 37t121.5 13.5t121.5 -13.5t90.5 -37t56.5 -56t19.5 -71.5t-19.5 -72t-56.5 -57t-90.5 -38t-121.5 -14zM486 -97q60 0 105.5 11.5t76.5 31t47 45t16 53.5t-15.5 54t-46.5 45t-77 30.5t-106 11.5t-106 -11.5t-76.5 -30.5t-46 -45t-15.5 -54t16 -53.5t46.5 -45t76 -31
t105.5 -11.5z" />
    <glyph glyph-name="uniAE46" unicode="&#xae46;" 
d="M225 220h292q55 0 105 0.5t112 2.5q11 0 4 -14q-20 -51 -73 -100t-128 -92q64 -30 143.5 -58t158.5 -45l-25 -40q-37 10 -79 24t-84 30t-81.5 33.5t-71.5 34.5q-76 -41 -161 -72.5t-168 -51.5l-19 40q88 17 172 47.5t154.5 68t123 78.5t76.5 78q-66 -4 -131.5 -4h-119.5
h-200v40zM84 289l-24 37q76 21 143 53.5t120 78t90.5 105t54.5 134.5q-69 -2 -137 -2.5t-129 -0.5h-94v39h153q69 0 131 0.5t128 2.5q-21 -161 -134 -276.5t-302 -170.5zM728 276v501h43v-501h-43z" />
    <glyph glyph-name="uniAE4A" unicode="&#xae4a;" 
d="M83 309l-24 36q77 19 144 50.5t120 75t90 100t55 126.5q-69 -2 -136.5 -2.5t-128.5 -0.5h-95v39h154q69 0 131 0.5t128 2.5q-11 -78 -46 -145t-91 -121.5t-132 -95t-169 -65.5zM728 279v498h43v-498h-43zM795 -75v-40h-614v40h127l-4 257h-113v39h590v-39h-114l-4 -257
h132zM350 -75h270l4 257h-278z" />
    <glyph glyph-name="uniAE4C" unicode="&#xae4c;" 
d="M270 695v-37q0 -160 -52 -285.5t-165 -230.5l-34 22q107 94 161.5 219.5t47.5 273.5q-36 -2 -69.5 -2.5t-60.5 -0.5h-46v39h81h70.5t66.5 2zM532 695v-37q0 -181 -50.5 -332t-162.5 -278l-38 22q61 68 102 138.5t65.5 144t34 149.5t7.5 156q-35 -2 -72.5 -2.5t-63.5 -0.5
h-46v38h78h75t71 2zM886 403v-41h-154v-491h-42v906h42v-374h154z" />
    <glyph glyph-name="uniAE4D" unicode="&#xae4d;" 
d="M298 735q-3 -127 -60.5 -229.5t-173.5 -174.5l-33 29q104 57 160.5 143.5t64.5 194.5q-35 -2 -70.5 -2.5t-61.5 -0.5h-47v38h80h73t68 2zM515 698q-36 -2 -71 -2.5t-62 -0.5h-44v38h77h72.5t68.5 2q0 -65 -12 -129t-38.5 -123.5t-69 -113t-103.5 -95.5l-36 25
q61 37 102 86t66.5 102t36.5 107.5t13 103.5zM878 533v-42h-142v-243h-42v529h42v-244h142zM736 -132h-43v282h-524v39h567v-321z" />
    <glyph glyph-name="uniAE4E" unicode="&#xae4e;" 
d="M298 735q-3 -126 -61.5 -227t-174.5 -172l-33 29q104 57 161 141.5t66 191.5q-36 -2 -71 -2.5t-61 -0.5h-47v38h80h73t68 2zM515 698q-36 -2 -71 -2.5t-62 -0.5h-44v38h77h72.5t68.5 2q0 -64 -12 -127t-39 -122t-69.5 -111t-102.5 -94l-36 26q60 36 101 83.5t66.5 100
t37 106t13.5 101.5zM878 537v-41h-142v-244h-42v525h42v-240h142zM736 -132h-43v286h-223v39h266v-325zM422 -132h-43v286h-237v39h280v-325z" />
    <glyph glyph-name="uniAE50" unicode="&#xae50;" 
d="M298 729q-3 -137 -57 -247.5t-175 -194.5l-34 29q52 30 93 71t69 90t43.5 103.5t18.5 111.5q-35 -2 -70.5 -2.5t-61.5 -0.5h-47v38h80h73t68 2zM517 692q-36 -2 -71 -2.5t-62 -0.5h-46v38h79h72.5t68.5 2q0 -70 -11.5 -138.5t-38 -132.5t-70 -122t-107.5 -106l-38 26
q64 42 106.5 95.5t68.5 112t37 117.5t12 111zM878 489v-40h-142v-341h-42v669h42v-288h142zM752 -70v-41h-559v254h43v-213h516z" />
    <glyph glyph-name="uniAE54" unicode="&#xae54;" 
d="M298 735q-2 -115 -64 -208t-174 -153l-32 31q103 51 160 123t68 170q-36 -2 -71 -2.5t-61 -0.5h-47v38h80h73t68 2zM511 698q-36 -2 -70.5 -2.5t-61.5 -0.5h-41v38h74h72.5t68.5 2q0 -58 -12.5 -113.5t-38.5 -106.5t-67 -96t-99 -81l-34 26q57 31 96 71t63.5 83.5
t36 89.5t13.5 90zM878 562v-39h-142v-186h-42v440h42v-215h142zM757 -80v-39h-575v221h511v139h-511v38h554v-214h-511v-145h532z" />
    <glyph glyph-name="uniAE56" unicode="&#xae56;" 
d="M298 735q-2 -115 -64 -207t-174 -152l-32 31q103 51 160 122t68 169q-36 -2 -71 -2.5t-61 -0.5h-47v38h80h73t68 2zM511 698q-36 -2 -70.5 -2.5t-61.5 -0.5h-41v38h74h72.5t68.5 2q0 -58 -12.5 -113.5t-38.5 -106t-67 -95t-99 -80.5l-34 26q57 31 96 70.5t63.5 83t36 89
t13.5 89.5zM878 564v-39h-142v-188h-42v440h42v-213h142zM470 -115v396h266v-396h-266zM694 244h-184v-321h184v321zM267 -117h-117v220h228v140h-228v38h269v-215h-227v-144h100q51 0 90 5t60 13v-36q-30 -12 -74.5 -16.5t-100.5 -4.5z" />
    <glyph glyph-name="uniAE5C" unicode="&#xae5c;" 
d="M298 735q-3 -125 -62 -225t-174 -169l-33 29q104 57 161 139.5t66 188.5q-36 -2 -71 -2.5t-61 -0.5h-47v38h80h73t68 2zM513 698q-36 -2 -71 -2.5t-62 -0.5h-42v38h75h72.5t68.5 2q0 -63 -12 -124t-38 -117t-68.5 -106t-102.5 -91l-36 26q60 36 101 81t66 94.5t36 100.5
t13 99zM878 540v-41h-142v-227h-42v505h42v-237h142zM736 214v-329h-547v329h547zM693 -75v249h-460v-249h460z" />
    <glyph glyph-name="uniAE5D" unicode="&#xae5d;" 
d="M298 735q-3 -121 -62.5 -219.5t-173.5 -164.5l-33 29q209 110 227 318q-36 -2 -71 -2.5t-61 -0.5h-47v38h80h73t68 2zM513 698q-36 -2 -71 -2.5t-62 -0.5h-42v38h75h72.5t68.5 2q0 -62 -12 -121t-38.5 -113t-68.5 -102t-102 -88l-35 25q60 34 100 77.5t65 91t36.5 97
t13.5 96.5zM878 544v-40h-142v-195h-42v468h42v-233h142zM736 252v-367h-547v361h44v-114h460v120h43zM232 -75h462v168h-462v-168z" />
    <glyph glyph-name="uniAE5F" unicode="&#xae5f;" 
d="M130 -90q75 18 135 49t102 72t64.5 91.5t22.5 106.5h46q0 -48 -15 -91q16 -38 48 -73.5t74.5 -66t94 -53.5t106.5 -34l-26 -37q-54 12 -102.5 34t-89 51t-72 64t-50.5 74q-20 -39 -51.5 -73.5t-72 -63t-88 -51t-100.5 -35.5zM878 516v-40h-142v-302h-42v603h42v-261h142z
M516 698q-36 -2 -71 -2.5t-62 -0.5h-45v38h78h72.5t68.5 2q0 -68 -12 -134.5t-38.5 -128t-69.5 -116.5t-106 -101l-37 26q63 40 105 91t67.5 106.5t37 112t12.5 107.5zM298 735q-3 -133 -58.5 -240t-174.5 -186l-34 28q105 60 161.5 154t63.5 207q-35 -2 -70.5 -2.5
t-61.5 -0.5h-47v38h80h73t68 2z" />
    <glyph glyph-name="uniAE60" unicode="&#xae60;" 
d="M468 -127q-56 31 -99.5 80.5t-69.5 109.5q-25 -62 -70.5 -109.5t-108.5 -79.5l-30 34q47 21 84 53t62.5 71.5t37.5 87t9 100.5h43q1 -47 -8 -92q4 -22 16 -48t31 -53t45.5 -53t59.5 -47q35 25 62 58.5t45 72t26 80.5t5 86h40q1 -50 -8 -99q6 -26 21 -55t38 -57.5
t54.5 -54t70.5 -44.5l-30 -36q-61 32 -103 80t-68 105q-24 -66 -65 -113.5t-90 -76.5zM878 532v-41h-142v-219h-42v505h42v-245h142zM513 698q-36 -2 -71 -2.5t-62 -0.5h-42v38h75h72.5t68.5 2q0 -63 -12 -125.5t-38 -120.5t-68.5 -109.5t-102.5 -92.5l-36 26
q60 36 101 82.5t66 97.5t36 104t13 101zM298 735q-3 -125 -62 -225t-174 -169l-33 29q104 57 161 139.5t66 188.5q-36 -2 -71 -2.5t-61 -0.5h-47v38h80h73t68 2z" />
    <glyph glyph-name="uniAE61" unicode="&#xae61;" 
d="M298 735q-3 -127 -60.5 -227t-173.5 -172l-33 29q104 57 160.5 141t64.5 192q-35 -2 -70.5 -2.5t-61.5 -0.5h-47v38h80h73t68 2zM515 698q-36 -2 -71 -2.5t-62 -0.5h-44v38h77h72.5t68.5 2q0 -65 -12 -128t-38.5 -122t-69 -111.5t-103.5 -94.5l-36 26q61 37 102 85
t66.5 100t36.5 105.5t13 102.5zM878 524v-42h-142v-238h-42v533h42v-253h142zM460 -135q-68 0 -121.5 13.5t-90.5 37.5t-56.5 57t-19.5 72t19.5 71.5t56.5 56t90.5 36.5t121.5 13t121.5 -13t90.5 -36.5t56.5 -56t19.5 -71.5t-19.5 -72t-56.5 -57t-90.5 -37.5t-121.5 -13.5z
M460 -97q60 0 105.5 11.5t76 31t46.5 45t16 54.5q0 28 -15.5 53t-46 44t-76.5 30t-106 11t-106 -11t-76.5 -30t-46 -44t-15.5 -53q0 -29 16 -54.5t46.5 -45t76 -31t105.5 -11.5z" />
    <glyph glyph-name="uniAE65" unicode="&#xae65;" 
d="M298 735q-2 -115 -64 -208t-174 -153l-32 31q103 51 160 123t68 170q-36 -2 -71 -2.5t-61 -0.5h-47v38h80h73t68 2zM511 698q-36 -2 -70.5 -2.5t-61.5 -0.5h-41v38h74h72.5t68.5 2q0 -58 -12.5 -115t-38.5 -109t-67 -98t-99 -82l-34 26q57 31 96 72t63.5 86t36 92
t13.5 91zM878 555v-39h-142v-193h-42v454h42v-222h142zM736 60h-504v-136h525v-39h-568v380h549v-38h-506v-131h504v-36z" />
    <glyph glyph-name="uniAE68" unicode="&#xae68;" 
d="M259 694v-40q0 -160 -41.5 -290t-137.5 -235l-36 19q89 94 133.5 223.5t41.5 283.5q-27 -2 -56.5 -2.5t-52.5 -0.5h-37v40h64h62t60 2zM477 694v-41q0 -180 -44 -332.5t-135 -276.5l-39 19q50 68 84 137.5t55 142.5t30 150.5t9 161.5q-28 -2 -57 -2.5t-52 -0.5h-37v40h63
h62t61 2zM791 777v-906h-41v481h-141v-458h-41v873h41v-375h141v385h41z" />
    <glyph glyph-name="uniAE69" unicode="&#xae69;" 
d="M267 733q-5 -132 -50.5 -233t-148.5 -179l-35 27q91 60 139.5 151t53.5 197q-27 -2 -55.5 -2.5t-51.5 -0.5h-33v38h59h61.5t60.5 2zM437 696q-26 -2 -55 -2.5t-51 -0.5h-29v38h53h62t61 2q0 -68 -10.5 -132.5t-34 -124.5t-60.5 -113.5t-90 -98.5l-36 26q51 38 86.5 86.5
t58 102t33.5 109.5t12 108zM799 777v-535h-40v245h-145v-245h-40v525h40v-242h145v252h40zM794 -132h-42v274h-550v40h592v-314z" />
    <glyph glyph-name="uniAE6C" unicode="&#xae6c;" 
d="M267 727q-5 -138 -50.5 -244t-145.5 -188l-36 27q45 31 80 72t59 88.5t37 100t15 107.5q-27 -2 -55.5 -2.5t-51.5 -0.5h-33v38h59h61.5t60.5 2zM438 690q-26 -2 -55.5 -2.5t-51.5 -0.5h-29v38h53h62t61 2q0 -71 -10.5 -139t-34 -130t-61 -118t-92.5 -104l-36 25
q54 41 91 94t59.5 110t33 115t10.5 110zM799 777v-659h-40v348h-145v-328h-40v629h40v-263h145v273h40zM811 -70v-41h-574v273h43v-232h531z" />
    <glyph glyph-name="uniAE70" unicode="&#xae70;" 
d="M268 733q-3 -117 -50 -205t-153 -158l-33 28q91 57 139 128.5t56 169.5q-28 -2 -56.5 -2.5t-51.5 -0.5h-33v38h60h61t61 2zM437 696q-26 -2 -55 -2.5t-51 -0.5h-29v38h53h62t61 2q0 -57 -10.5 -114.5t-33 -111t-58.5 -101.5t-86 -85l-34 26q44 30 77 69t55.5 84
t34.5 94.5t14 101.5zM799 777v-456h-40v203h-145v-203h-40v446h40v-206h145v216h40zM816 -80v-39h-598v213h534v131h-534v38h576v-205h-534v-138h556z" />
    <glyph glyph-name="uniAE78" unicode="&#xae78;" 
d="M268 733q-2 -64 -14 -119.5t-36 -104.5t-61 -92t-89 -81l-34 27q91 60 139.5 144.5t53.5 188.5q-27 -2 -55.5 -2.5t-51.5 -0.5h-34v38h60h61.5t60.5 2zM437 696q-26 -2 -55 -2.5t-51 -0.5h-29v38h53h62t61 2q0 -64 -10.5 -126.5t-33.5 -120.5t-60 -110t-89 -95l-35 27
q49 36 84 81.5t57.5 96.5t33.5 104.5t12 105.5zM799 777v-515h-40v243h-145v-243h-40v505h40v-224h145v234h40zM794 204v-319h-571v319h571zM752 -76v240h-488v-240h488z" />
    <glyph glyph-name="uniAE79" unicode="&#xae79;" 
d="M267 733q-3 -121 -50 -212t-152 -164l-33 28q91 58 139 134.5t55 176.5q-27 -2 -55.5 -2.5t-51.5 -0.5h-33v38h59h61.5t60.5 2zM437 696q-26 -2 -55 -2.5t-51 -0.5h-29v38h53h62t61 2q0 -60 -10.5 -119.5t-33.5 -114.5t-59.5 -104t-87.5 -88l-34 26q46 32 79.5 73
t56 88.5t34.5 98.5t14 103zM799 777v-478h-40v213h-145v-213h-40v468h40v-218h145v228h40zM794 241v-356h-571v351h41v-104h488v109h42zM263 -76h490v168h-490v-168z" />
    <glyph glyph-name="uniAE7B" unicode="&#xae7b;" 
d="M799 777v-605h-40v325h-145v-231h-40v501h40v-231h145v241h40zM147 -90q75 17 135 47t102 69.5t64.5 88.5t22.5 103h47q0 -46 -15 -89q16 -37 47.5 -71.5t74.5 -63.5t94 -50.5t106 -32.5l-26 -37q-54 12 -102 33t-88.5 48.5t-72.5 61t-52 71.5q-42 -75 -123.5 -131.5
t-187.5 -82.5zM437 695q-26 -2 -55 -2.5t-51 -0.5h-29v38h53h62t61 2q0 -70 -10.5 -136.5t-34 -127.5t-61 -116t-91.5 -102l-36 26q53 40 89.5 91t59 106.5t33 112.5t10.5 109zM267 732q-5 -136 -50.5 -240t-146.5 -183l-36 27q90 61 139 156t53 203q-27 -2 -55.5 -2.5
t-51.5 -0.5h-33v38h59h61.5t60.5 2z" />
    <glyph glyph-name="uniAE7C" unicode="&#xae7c;" 
d="M497 -127q-56 30 -99 79.5t-67 109.5q-24 -62 -70 -109t-109 -79l-32 34q46 21 83.5 51.5t63 69.5t37.5 84.5t9 96.5h42q1 -24 -1 -46.5t-6 -44.5q4 -21 16.5 -46.5t31.5 -51t45 -50.5t58 -45q71 49 107.5 126t30.5 162h40q1 -49 -8 -96q6 -26 21 -54t38 -55.5t54.5 -52
t69.5 -42.5l-32 -36q-63 30 -102.5 78t-64.5 105q-23 -65 -64.5 -112t-91.5 -76zM799 777v-515h-40v243h-145v-243h-40v505h40v-224h145v234h40zM437 696q-26 -2 -55 -2.5t-51 -0.5h-29v38h53h62t61 2q0 -64 -10.5 -126.5t-33.5 -120.5t-60 -110t-89 -95l-35 27
q49 36 84 81.5t57.5 96.5t33.5 104.5t12 105.5zM267 733q-2 -64 -14 -119.5t-36 -104.5t-61 -92t-89 -81l-34 27q91 60 139.5 144.5t53.5 188.5q-27 -2 -55.5 -2.5t-51.5 -0.5h-33v38h59h61.5t60.5 2z" />
    <glyph glyph-name="uniAE7D" unicode="&#xae7d;" 
d="M267 733q-5 -132 -50.5 -233t-148.5 -179l-35 27q91 60 139.5 151t53.5 197q-27 -2 -55.5 -2.5t-51.5 -0.5h-33v38h59h61.5t60.5 2zM437 696q-26 -2 -55 -2.5t-51 -0.5h-29v38h53h62t61 2q0 -68 -10.5 -132.5t-34 -124.5t-60.5 -113.5t-90 -98.5l-36 26q51 38 86.5 86.5
t58 102t33.5 109.5t12 108zM799 777v-558h-40v280h-145v-232h-40v500h40v-230h145v240h40zM499 -134q-71 0 -126 13.5t-92.5 37.5t-57.5 56t-20 69q0 38 20 70t58 55t93 36t125 13t125 -13t93.5 -36t58.5 -55t20 -70q0 -37 -20 -69t-58 -56t-93 -37.5t-126 -13.5zM499 -96
q60 0 107 11.5t79.5 30.5t49 44t16.5 52t-16.5 51.5t-48 43.5t-79 30t-108.5 11q-62 0 -109 -11t-78.5 -30t-47.5 -43.5t-16 -51.5t16.5 -52t48 -44t78.5 -30.5t108 -11.5z" />
    <glyph glyph-name="uniAE84" unicode="&#xae84;" 
d="M876 236h-144v-365h-42v906h42v-218h144v-39h-144v-245h144v-39zM270 695v-37q0 -160 -52 -285.5t-165 -230.5l-34 22q107 94 161.5 219.5t47.5 273.5q-36 -2 -69.5 -2.5t-60.5 -0.5h-46v39h81h70.5t66.5 2zM532 695v-37q0 -181 -50.5 -332t-162.5 -278l-38 22
q61 68 102 138.5t65.5 144t34 149.5t7.5 156q-35 -2 -72.5 -2.5t-63.5 -0.5h-46v38h78h75t71 2z" />
    <glyph glyph-name="uniAE85" unicode="&#xae85;" 
d="M736 777v-152h138v-39h-138v-144h138v-38h-138v-156h-42v529h42zM298 735q-3 -127 -60.5 -229.5t-173.5 -174.5l-33 29q104 57 160.5 143.5t64.5 194.5q-35 -2 -70.5 -2.5t-61.5 -0.5h-47v38h80h73t68 2zM515 698q-36 -2 -71 -2.5t-62 -0.5h-44v38h77h72.5t68.5 2
q0 -65 -12 -129t-38.5 -123.5t-69 -113t-103.5 -95.5l-36 25q61 37 102 86t66.5 102t36.5 107.5t13 103.5zM736 -132h-43v282h-524v39h567v-321z" />
    <glyph glyph-name="uniAE8C" unicode="&#xae8c;" 
d="M736 777v-129h138v-38h-138v-117h138v-38h-138v-118h-42v440h42zM298 735q-2 -115 -64 -208t-174 -153l-32 31q103 51 160 123t68 170q-36 -2 -71 -2.5t-61 -0.5h-47v38h80h73t68 2zM511 698q-36 -2 -70.5 -2.5t-61.5 -0.5h-41v38h74h72.5t68.5 2q0 -58 -12.5 -113.5
t-38.5 -106.5t-67 -96t-99 -81l-34 26q57 31 96 71t63.5 83.5t36 89.5t13.5 90zM757 -80v-39h-575v221h511v139h-511v38h554v-214h-511v-145h532z" />
    <glyph glyph-name="uniAEBC" unicode="&#xaebc;" 
d="M290 695v-37q0 -160 -51 -292t-164 -235l-35 23q107 94 159.5 221.5t48.5 281.5q-36 -2 -73.5 -2.5t-63.5 -0.5h-45v39h79h74.5t70.5 2zM544 695v-37q0 -181 -48 -337t-161 -287l-38 21q60 67 99.5 138t63 146t33 155t9.5 164q-36 -2 -69.5 -2.5t-60.5 -0.5h-44v38h78
h70.5t67.5 2zM739 378h-169v41h169v358h42v-906h-42v507z" />
    <glyph glyph-name="uniAEBD" unicode="&#xaebd;" 
d="M315 735q-3 -127 -63 -229.5t-176 -174.5l-33 29q104 57 162.5 143.5t66.5 194.5q-35 -2 -71.5 -2.5t-62.5 -0.5h-49v38h82h74t70 2zM528 698q-36 -2 -72 -2.5t-63 -0.5h-39v38h72h73.5t69.5 2q0 -65 -12.5 -129t-40.5 -123.5t-71.5 -113t-104.5 -95.5l-35 25
q61 37 102.5 86t68 102t38.5 107.5t14 103.5zM740 478h-164v41h164v258h41v-525h-41v226zM781 -132h-42v286h-534v39h576v-325z" />
    <glyph glyph-name="uniAEBE" unicode="&#xaebe;" 
d="M315 735q-3 -126 -63.5 -227t-177.5 -172l-33 29q104 57 163 141.5t68 191.5q-36 -2 -72 -2.5t-62 -0.5h-49v38h82h74t70 2zM526 698q-36 -2 -72 -2.5t-62 -0.5h-38v38h70h73.5t69.5 2q0 -64 -12.5 -127t-40 -122t-70.5 -111t-104 -94l-35 26q60 36 101.5 83.5t67.5 100
t38 106t14 101.5zM740 480h-160v41h160v256h41v-520h-41v223zM781 -132h-42v290h-241v39h283v-329zM449 -132h-41v290h-232v39h273v-329z" />
    <glyph glyph-name="uniAEC0" unicode="&#xaec0;" 
d="M315 729q-3 -137 -59.5 -247.5t-177.5 -194.5l-34 29q52 30 93 71t70.5 90t45.5 103.5t19 111.5q-35 -2 -71.5 -2.5t-62.5 -0.5h-49v38h82h74t70 2zM530 692q-36 -2 -72 -2.5t-63 -0.5h-41v38h74h73.5t69.5 2q0 -70 -12.5 -138.5t-40 -132.5t-72 -122t-108.5 -106l-37 26
q63 42 106.5 95.5t70.5 112t39 117.5t13 111zM740 460h-164v40h164v277h41v-656h-41v339zM796 -70v-41h-562v259h43v-218h519z" />
    <glyph glyph-name="uniAEC4" unicode="&#xaec4;" 
d="M316 735q-1 -57 -18.5 -109.5t-49 -98t-76 -84.5t-99.5 -69l-32 31q103 51 162 123t70 170q-36 -2 -72 -2.5t-62 -0.5h-49v38h82h74t70 2zM525 698q-36 -2 -71.5 -2.5t-61.5 -0.5h-37v38h69h73.5t69.5 2q0 -117 -53.5 -219t-169.5 -175l-34 26q57 31 97 70.5t65.5 82.5
t38 88.5t14.5 89.5zM740 512h-160v38h160v227h41v-440h-41v175zM802 -80v-39h-584v220h521v140h-521v38h563v-215h-521v-144h542z" />
    <glyph glyph-name="uniAECC" unicode="&#xaecc;" 
d="M315 735q-3 -125 -64.5 -225t-176.5 -169l-33 29q104 57 163 139.5t68 188.5q-36 -2 -72 -2.5t-62 -0.5h-48v38h81h74t70 2zM526 698q-36 -2 -72 -2.5t-62 -0.5h-38v38h70h73.5t69.5 2q0 -63 -12.5 -123.5t-40 -116.5t-70.5 -106t-104 -92l-35 26q60 36 101.5 81
t67.5 94.5t38 100.5t14 99zM740 495h-160v41h160v241h41v-505h-41v223zM781 214v-329h-556v329h556zM739 -75v249h-471v-249h471z" />
    <glyph glyph-name="uniAECD" unicode="&#xaecd;" 
d="M315 735q-3 -121 -65 -219.5t-176 -164.5l-33 29q104 55 163 135t68 183q-36 -2 -72 -2.5t-62 -0.5h-49v38h82h74t70 2zM526 698q-36 -2 -72 -2.5t-62 -0.5h-38v38h70h73.5t69.5 2q0 -62 -13 -121t-40.5 -113t-70.5 -102t-103 -88l-34 25q59 34 100 77.5t67 91t38.5 97
t14.5 96.5zM740 494h-162v41h162v242h41v-472h-41v189zM781 252v-367h-556v361h43v-118h471v124h42zM267 -75h473v164h-473v-164z" />
    <glyph glyph-name="uniAECF" unicode="&#xaecf;" 
d="M148 -90q75 18 135 49t102 72t64.5 91.5t22.5 106.5h47q0 -48 -16 -92q16 -38 48 -73.5t75 -65.5t94 -53t106 -34l-26 -37q-54 12 -102.5 34t-89 51t-71.5 64t-51 74q-41 -78 -123.5 -138.5t-189.5 -87.5zM740 474h-155v41h155v262h41v-579h-41v276zM528 698
q-36 -2 -72 -2.5t-63 -0.5h-40v38h73h73.5t69.5 2q0 -68 -12.5 -134.5t-40.5 -128t-72 -116.5t-107 -101l-36 26q62 40 105 91t69.5 106.5t39 112t13.5 107.5zM314 735q-3 -133 -61 -240t-177 -186l-34 28q105 60 163.5 154t65.5 207q-35 -2 -71.5 -2.5t-62.5 -0.5h-49v38
h82h74t70 2z" />
    <glyph glyph-name="uniAED0" unicode="&#xaed0;" 
d="M497 -127q-56 32 -99 83t-67 112q-24 -63 -70 -112t-109 -82l-32 34q46 21 83.5 53t63 71.5t37.5 87t9 100.5h42q1 -25 -1 -48t-6 -46q4 -22 16.5 -48t31.5 -52.5t45 -52t58 -46.5q35 25 62 58.5t45 72t26 80.5t5 86h40q1 -50 -8 -99q6 -26 21 -55t38 -57.5t54.5 -54
t70.5 -44.5l-33 -36q-63 32 -102.5 81.5t-64.5 107.5q-23 -67 -64.5 -115.5t-91.5 -78.5zM740 485h-160v41h160v251h41v-505h-41v213zM526 698q-36 -2 -72 -2.5t-62 -0.5h-38v38h70h73.5t69.5 2q0 -63 -12.5 -125.5t-40 -120.5t-70.5 -109.5t-104 -92.5l-35 26
q60 36 101.5 82.5t67.5 97.5t38 104t14 101zM315 735q-3 -125 -64.5 -225t-176.5 -169l-33 29q104 57 163 139.5t68 188.5q-36 -2 -72 -2.5t-62 -0.5h-49v38h82h74t70 2z" />
    <glyph glyph-name="uniAED1" unicode="&#xaed1;" 
d="M314 735q-3 -127 -63 -229.5t-176 -174.5l-33 29q104 57 162.5 143.5t66.5 194.5q-35 -2 -71.5 -2.5t-62.5 -0.5h-49v38h82h74t70 2zM527 698q-36 -2 -72 -2.5t-63 -0.5h-39v38h72h73.5t69.5 2q0 -65 -12.5 -129t-40.5 -123.5t-71.5 -113t-104.5 -95.5l-35 25
q61 37 102.5 86t68 102t38.5 107.5t14 103.5zM496 -135q-68 0 -121.5 13.5t-90 37.5t-56 56.5t-19.5 71.5t19.5 71t56 55.5t90 36.5t121.5 13t121.5 -13t90.5 -36.5t56.5 -55.5t19.5 -71t-19.5 -71.5t-56.5 -56.5t-90.5 -37.5t-121.5 -13.5zM575 471v41h165v265h41v-539h-41
v233h-165zM496 -97q60 0 106 11t76.5 30.5t46.5 45t16 54.5q0 28 -15.5 52.5t-46.5 43.5t-76.5 30t-106.5 11q-60 0 -105.5 -11t-76.5 -30t-46.5 -43.5t-15.5 -52.5q0 -29 16 -54.5t47 -45t76.5 -30.5t104.5 -11z" />
    <glyph glyph-name="uniAED8" unicode="&#xaed8;" 
d="M477 694v-41q0 -125 -23 -240h137v354h41v-873h-41v479h-145q-44 -186 -148 -329l-39 19q50 68 84 137.5t55 142.5t30 150.5t9 161.5q-28 -2 -57 -2.5t-52 -0.5h-37v40h63h62t61 2zM796 777v-906h-41v906h41zM259 694v-40q0 -160 -41.5 -290t-137.5 -235l-36 19
q89 94 133.5 223.5t41.5 283.5q-27 -2 -56.5 -2.5t-52.5 -0.5h-37v40h64h62t60 2z" />
    <glyph glyph-name="uniAED9" unicode="&#xaed9;" 
d="M587 521v246h41v-527h-41v243h-158q-23 -63 -60.5 -118t-92.5 -101l-36 26q51 38 86.5 86.5t58 102t33.5 109.5t12 108q-27 -2 -55.5 -2.5t-50.5 -0.5h-26v38h50h62t61 2q0 -56 -7 -108.5t-22 -103.5h145zM794 -132h-42v272h-550v40h592v-312zM267 733
q-5 -132 -50.5 -233t-148.5 -179l-35 27q91 60 139.5 151t53.5 197q-27 -2 -55.5 -2.5t-51.5 -0.5h-33v38h59h61.5t60.5 2zM799 777v-537h-41v537h41z" />
    <glyph glyph-name="uniAEDC" unicode="&#xaedc;" 
d="M587 509v258h41v-629h-41v333h-156q-23 -66 -62 -125t-96 -110l-36 25q54 41 91 94t59.5 110t33 115t10.5 110q-27 -2 -56 -2.5t-51 -0.5h-26v38h50h62t61 2q0 -57 -6.5 -111.5t-21.5 -106.5h144zM811 -70v-41h-574v253h43v-212h531zM799 777v-659h-41v659h41zM267 727
q-5 -138 -50.5 -244t-145.5 -188l-36 27q45 31 80 72t59 88.5t37 100t15 107.5q-27 -2 -55.5 -2.5t-51.5 -0.5h-33v38h59h61.5t60.5 2z" />
    <glyph glyph-name="uniAEE8" unicode="&#xaee8;" 
d="M794 204v-319h-571v319h571zM752 -76v239h-488v-239h488zM587 535v232h41v-505h-41v236h-156q-23 -62 -60.5 -117t-92.5 -100l-35 27q49 36 84 81.5t57.5 96.5t33.5 104.5t12 105.5q-27 -2 -55.5 -2.5t-50.5 -0.5h-26v38h50h62t61 2q0 -104 -27 -198h143zM267 733
q-2 -64 -14 -119.5t-36 -104.5t-61 -92t-89 -81l-34 27q91 60 139.5 144.5t53.5 188.5q-27 -2 -55.5 -2.5t-51.5 -0.5h-33v38h59h61.5t60.5 2zM799 777v-515h-41v515h41z" />
    <glyph glyph-name="uniAEEB" unicode="&#xaeeb;" 
d="M587 523v244h41v-514h-41v231h-155q-23 -66 -62 -125t-96 -109l-36 26q53 40 89.5 91t59 106.5t33 112.5t10.5 109q-27 -2 -55.5 -2.5t-50.5 -0.5h-26v38h50h62t61 2q0 -55 -6.5 -107t-20.5 -102h143zM147 -90q75 17 135 47t102 69.5t64.5 88.5t22.5 103h47
q0 -47 -16 -88q16 -37 48 -71.5t75 -64t94 -51t106 -32.5l-26 -37q-54 12 -102.5 33t-89 49t-72.5 61.5t-52 71.5q-42 -75 -124.5 -132t-188.5 -83zM799 777v-605h-41v605h41zM267 732q-5 -136 -50.5 -240t-146.5 -183l-36 27q90 61 139 156t53 203q-27 -2 -55.5 -2.5
t-51.5 -0.5h-33v38h59h61.5t60.5 2z" />
    <glyph glyph-name="uniAEED" unicode="&#xaeed;" 
d="M497 -134q-71 0 -126 13.5t-93.5 37.5t-58.5 56t-20 69q0 38 20.5 70t59 55t93.5 36t125 13t125.5 -13t94 -36t59 -55t20.5 -70q0 -37 -20 -69t-58.5 -56t-94 -37.5t-126.5 -13.5zM497 -96q61 0 108.5 11.5t79.5 30.5t49 44t17 52t-16.5 51.5t-48.5 43.5t-79.5 30
t-109.5 11q-63 0 -110 -11t-79 -30t-48 -43.5t-16 -51.5t16.5 -52t48.5 -44t79 -30.5t109 -11.5zM587 532v235h41v-507h-41v235h-145q-23 -66 -62 -124t-96 -107l-36 26q51 38 86.5 86.5t58 102t33.5 109.5t12 108q-26 -2 -55 -2.5t-51 -0.5h-26v38h50h62t61 2
q0 -53 -6 -103t-20 -98h134zM275 733q-5 -132 -50.5 -233t-148.5 -179l-35 27q91 60 139.5 151t53.5 197q-27 -2 -55.5 -2.5t-51.5 -0.5h-33v38h59h61.5t60.5 2zM799 777v-560h-41v560h41z" />
    <glyph glyph-name="uniAEF4" unicode="&#xaef4;" 
d="M739 -129v386h-174v40h174v201h-154v41h154v238h42v-906h-42zM290 695v-37q0 -160 -51 -292t-164 -235l-35 23q107 94 159.5 221.5t48.5 281.5q-36 -2 -73.5 -2.5t-63.5 -0.5h-45v39h79h74.5t70.5 2zM544 695v-37q0 -181 -48.5 -337t-161.5 -287l-37 21q60 67 99.5 138
t63 146t33 155t9.5 164q-36 -2 -69.5 -2.5t-60.5 -0.5h-44v38h78h70.5t67.5 2z" />
    <glyph glyph-name="uniAEF8" unicode="&#xaef8;" 
d="M312 729q-3 -137 -58 -247.5t-176 -194.5l-34 29q52 30 93 71t69.5 90t44 103.5t18.5 111.5q-35 -2 -71.5 -2.5t-62.5 -0.5h-46v38h79h74t70 2zM526 692q-36 -2 -71.5 -2.5t-62.5 -0.5h-41v38h74h73.5t69.5 2q0 -70 -12 -138.5t-39 -132.5t-71 -122t-108 -106l-37 26
q63 42 106 95.5t69 112t37.5 117.5t12.5 111zM740 560h-140v36h140v181h41v-656h-41v235h-165v37h165v167zM796 -71v-40h-562v259h43v-219h519z" />
    <glyph glyph-name="uniAEFC" unicode="&#xaefc;" 
d="M312 735q-2 -115 -65 -208t-175 -153l-32 31q103 51 160.5 123t68.5 170q-36 -2 -72 -2.5t-62 -0.5h-46v38h79h74t70 2zM521 698q-36 -2 -71.5 -2.5t-61.5 -0.5h-37v38h69h73.5t69.5 2q0 -58 -12.5 -113.5t-39.5 -105.5t-68.5 -94.5t-99.5 -80.5l-34 26q57 31 96.5 70.5
t64.5 82.5t37 88.5t14 89.5zM597 627h143v150h41v-444h-41v104h-169v36h169v117h-143v37zM802 -80v-39h-584v217h521v139h-521v38h563v-213h-521v-142h542z" />
    <glyph glyph-name="uniAF07" unicode="&#xaf07;" 
d="M148 -90q75 18 135 48.5t102 72t64.5 91.5t22.5 106h47q0 -49 -16 -91q16 -38 48 -73.5t75 -65.5t94 -53t106 -34l-23 -37q-54 12 -102.5 34t-90 50.5t-73.5 63t-53 72.5q-42 -78 -124.5 -137t-188.5 -86zM599 609h141v168h41v-589h-41v213h-167v38h167v133h-141v37z
M525 698q-36 -2 -72 -2.5t-63 -0.5h-40v38h73h73.5t69.5 2q0 -68 -12 -134.5t-39.5 -128t-71 -116.5t-106.5 -101l-36 26q62 40 104.5 91t68.5 106.5t38 112t13 107.5zM311 735q-3 -133 -59.5 -240t-175.5 -186l-34 28q105 60 162 154t64 207q-35 -2 -71.5 -2.5t-62.5 -0.5
h-46v38h79h74t70 2z" />
    <glyph glyph-name="uniAF08" unicode="&#xaf08;" 
d="M497 -127q-54 31 -98 82t-70 110q-25 -63 -70.5 -111t-108.5 -80l-30 34q46 21 83.5 53t63 71.5t37.5 87t9 100.5h42q1 -24 -1 -47t-6 -45q4 -22 16 -48.5t31 -54t45 -53.5t58 -47q35 25 62.5 59t45.5 72.5t26 81t5 86.5h40q1 -26 -1 -50.5t-7 -47.5q6 -26 21 -55.5
t38 -58t54.5 -54t70.5 -44.5l-30 -36q-60 31 -102.5 80.5t-68.5 105.5q-24 -66 -64.5 -114t-90.5 -77zM594 613h146v164h41v-505h-41v139h-172v37h172v128h-146v37zM523 698q-36 -2 -72 -2.5t-62 -0.5h-38v38h70h73.5t69.5 2q0 -63 -12 -123.5t-39 -116.5t-69.5 -106
t-103.5 -92l-35 26q60 36 101 81t66.5 94.5t37 100.5t13.5 99zM312 735q-3 -125 -63 -225t-175 -169l-33 29q104 57 161.5 139.5t66.5 188.5q-36 -2 -72 -2.5t-62 -0.5h-46v38h79h74t70 2z" />
    <glyph glyph-name="uniAF0D" unicode="&#xaf0d;" 
d="M323 735q-2 -115 -65 -208t-175 -153l-32 31q103 51 160.5 123t68.5 170q-36 -2 -72 -2.5t-62 -0.5h-45v38h78h74t70 2zM532 698q-36 -2 -71.5 -2.5t-61.5 -0.5h-37v38h69h73.5t69.5 2q0 -58 -12.5 -115t-39.5 -109t-68.5 -98t-99.5 -82l-34 26q57 31 96.5 72t64.5 86
t37 92t14 91zM605 621h135v156h41v-456h-41v114h-162v36h162v113h-135v37zM781 59h-515v-135h535v-39h-576v378h558v-38h-517v-130h515v-36z" />
    <glyph glyph-name="uniAF10" unicode="&#xaf10;" 
d="M464 694v-41q0 -32 -1.5 -62.5t-3.5 -59.5h146v236h41v-873h-41v381h-134v37h134v182h-150q-14 -130 -53.5 -242.5t-108.5 -207.5l-39 19q50 68 82.5 137.5t52 142.5t27.5 150.5t8 161.5q-28 -2 -55 -2.5t-50 -0.5h-33v40h59h60t59 2zM796 777v-906h-41v906h41zM254 694
v-40q0 -159 -39.5 -290t-134.5 -235l-36 19q89 94 131 223.5t39 283.5q-27 -2 -54 -2.5t-50 -0.5h-37v40h64h59.5t57.5 2z" />
    <glyph glyph-name="uniAF2C" unicode="&#xaf2c;" 
d="M305 206l-45 8q35 94 52 209t17 233h-217v40h258v-42q0 -120 -15.5 -234t-49.5 -214zM745 696v-44q0 -96 -9.5 -213.5t-25.5 -233.5h-43q16 100 25 216t9 235h-287v40h331zM864 47v-38h-838v38h413v340h45v-340h380z" />
    <glyph glyph-name="uniAF2D" unicode="&#xaf2d;" 
d="M400 711v40h339q-2 -87 -9 -173t-18 -149h-43q10 61 16.5 132.5t8.5 149.5h-294zM119 711v40h238q-1 -44 -3 -88.5t-5.5 -86.5t-7.5 -80t-8 -67h-44q6 28 10 61.5t7 70t5 74.5t2 76h-194zM447 545h46v-206h382v-40h-859v40h431v206zM730 -132h-44v259h-537v40h581v-299z
" />
    <glyph glyph-name="uniAF30" unicode="&#xaf30;" 
d="M400 711v40h339q-2 -95 -10 -184t-20 -162h-43q11 72 19 146t9 160h-294zM119 711v40h238q-1 -48 -3 -95.5t-5.5 -92t-8 -85t-8.5 -73.5h-44q12 66 18 144t7 162h-194zM447 534h46v-227h382v-40h-859v40h431v227zM749 -75v-40h-584v276h45v-236h539z" />
    <glyph glyph-name="uniAF32" unicode="&#xaf32;" 
d="M400 712v39h339q-1 -39 -3.5 -81t-5.5 -82.5t-7.5 -76.5t-8.5 -62h-43q4 25 8 56.5t7 66t5 70.5t3 70h-294zM119 712v39h238q-1 -39 -2.5 -81.5t-4.5 -83t-6 -76.5t-7 -61h-44q5 24 9 55.5t6 66.5t3.5 71t1.5 70h-194zM447 562h46v-195h382v-39h-859v39h431v195z
M154 -115v334h43v-295h47q22 0 47 1t49 3.5t45.5 6.5t38.5 9v-35q-48 -14 -104 -19t-111 -5h-55zM782 127h-354v39h354v-39zM606 84q68 0 108.5 -29t40.5 -80q0 -55 -42 -82.5t-107 -27.5t-107.5 27.5t-42.5 82.5q0 51 40 80t110 29zM606 45q-51 0 -79 -18t-28 -52
q0 -33 30 -51.5t77 -18.5q48 0 76.5 18.5t28.5 51.5q0 34 -27.5 52t-77.5 18zM699 213h-189v40h189v-40z" />
    <glyph glyph-name="uniAF34" unicode="&#xaf34;" 
d="M400 712v39h339q-2 -78 -9 -149.5t-16 -124.5h-43q8 51 14.5 108.5t8.5 126.5h-294zM119 712v39h238q-2 -78 -7 -150t-13 -124h-44q11 48 15 107.5t5 127.5h-194zM447 562h46v-160h382v-39h-859v39h431v160zM756 -125h-592v210h524v126h-524v38h567v-200h-524v-135h549
v-39z" />
    <glyph glyph-name="uniAF3C" unicode="&#xaf3c;" 
d="M400 711v40h339q-2 -83 -9 -165t-17 -141h-43q9 57 15.5 124.5t8.5 141.5h-294zM119 711v40h238q-1 -41 -3 -83.5t-4.5 -83t-6 -76t-7.5 -63.5h-44q11 54 15.5 124t5.5 142h-194zM447 556h46v-200h382v-40h-859v40h431v200zM730 -115h-565v303h565v-303zM686 -75v223
h-477v-223h477z" />
    <glyph glyph-name="uniAF3D" unicode="&#xaf3d;" 
d="M400 711v40h339q-2 -81 -9 -158.5t-16 -134.5h-43q8 55 14.5 118t8.5 135h-294zM119 711v40h238q-1 -40 -2.5 -80.5t-4.5 -79t-6 -72.5t-7 -61h-44q11 51 15 117t5 136h-194zM447 558h46v-187h382v-40h-859v40h431v187zM730 -115h-565v363h44v-125h477v125h44v-363z
M687 -75v160h-479v-160h479z" />
    <glyph glyph-name="uniAF3F" unicode="&#xaf3f;" 
d="M447 545h46v-201h382v-40h-859v40h431v201zM108 -90q75 18 137 48.5t105.5 71.5t67.5 91t24 107h46q0 -47 -16 -89q16 -38 49.5 -74t78 -66.5t97.5 -53.5t109 -34l-26 -37q-53 12 -103 34t-93 50.5t-77.5 62.5t-55.5 72q-21 -38 -53.5 -72t-73.5 -62t-89.5 -50
t-100.5 -35zM400 711v40h339q-2 -87 -9.5 -171t-18.5 -147h-43q10 61 17 130.5t9 147.5h-294zM119 711v40h238q-2 -88 -8.5 -173t-14.5 -145h-44q11 57 16.5 130t6.5 148h-194z" />
    <glyph glyph-name="uniAF41" unicode="&#xaf41;" 
d="M400 711v40h339q-1 -41 -3.5 -84t-6 -83.5t-8 -77.5t-9.5 -66h-43q9 57 16 127t9 144h-294zM119 711v40h238q-1 -41 -3 -84.5t-5 -84.5t-6.5 -77.5t-7.5 -64.5h-44q11 54 16 126.5t6 144.5h-194zM447 546h46v-202h382v-40h-859v40h431v202zM447 -135q-69 0 -123.5 13
t-92.5 36.5t-58 55.5t-20 71t20.5 70.5t58.5 54.5t92.5 35.5t122.5 12.5t122.5 -12.5t92.5 -35.5t58.5 -54.5t20.5 -70.5t-20 -71t-58 -55.5t-92.5 -36.5t-123.5 -13zM447 -97q59 0 105 10.5t77.5 29t48 43.5t16.5 53t-16 53t-47.5 43.5t-77.5 29t-106 10.5t-106 -10.5
t-77.5 -29t-47.5 -43.5t-16 -53t16.5 -53t48 -43.5t77.5 -29t105 -10.5z" />
    <glyph glyph-name="uniAF42" unicode="&#xaf42;" 
d="M177 207h295q60 0 117 0.5t122 2.5q10 0 5 -15q-24 -51 -78.5 -97.5t-127.5 -86.5q66 -29 143 -54t160 -42l-26 -40q-39 9 -81 22t-84 28t-81.5 31.5t-72.5 32.5q-75 -37 -159.5 -66.5t-169.5 -50.5l-25 41q93 17 177 45t153.5 62t121.5 72.5t81 77.5q-70 -3 -142.5 -3
h-129.5h-198v40zM447 558h46v-189h382v-40h-859v40h431v189zM400 711v40h339q-2 -81 -9 -158.5t-16 -134.5h-43q8 55 14.5 118t8.5 135h-294zM119 711v40h238q-1 -40 -2.5 -80.5t-4.5 -79t-6 -72.5t-7 -61h-44q11 51 15 117t5 136h-194z" />
    <glyph glyph-name="uniAF43" unicode="&#xaf43;" 
d="M180 153h292q60 0 112 0.5t116 2.5q12 0 6 -13q-30 -46 -81 -84.5t-116 -70.5q31 -12 67.5 -24t75.5 -22.5t77.5 -19t72.5 -12.5l-19 -38q-35 6 -76.5 16.5t-84.5 23.5t-83 27.5t-72 29.5q-79 -35 -165.5 -59.5t-169.5 -38.5l-20 39q82 11 160.5 31.5t146 47.5
t121.5 58.5t89 66.5q-73 -4 -136.5 -2t-120.5 2h-192v39zM447 560h46v-165h382v-39h-859v39h431v165zM400 712v39h339q-2 -78 -9 -151.5t-16 -126.5h-43q8 51 14.5 110.5t8.5 128.5h-294zM119 712v39h238q-2 -78 -7 -152t-13 -126h-44q11 48 15 109.5t5 129.5h-194zM279 223
v40h327v-40h-327z" />
    <glyph glyph-name="uniAF48" unicode="&#xaf48;" 
d="M886 404v-39h-153v-494h-41v906h41v-373h153zM14 84v40h161q64 0 138 3v290h38v-289q78 4 155.5 10.5t140.5 16.5v-38q-51 -9 -110 -15t-120.5 -10t-123.5 -6t-117 -2h-162zM509 654h-194v38h236v-39q0 -97 -5.5 -197t-15.5 -187h-42q12 89 16.5 191t4.5 194zM229 654
h-171v38h211v-39q0 -47 -5.5 -98.5t-15 -102.5t-23 -99.5t-29.5 -88.5q-1 0 -7.5 1t-14 1.5t-13 1l-5.5 0.5q34 90 53.5 191.5t19.5 194.5z" />
    <glyph glyph-name="uniAF49" unicode="&#xaf49;" 
d="M22 286v40h157q69 0 150 3v202h41v-200q75 4 148.5 10t133.5 16v-38q-51 -9 -110 -15t-121 -10t-124 -6t-117 -2h-158zM738 -132h-43v253h-524v39h567v-292zM738 221h-41v556h41v-253h140v-41h-140v-262zM318 701v39h232v-31q0 -77 -4.5 -150.5t-14.5 -142.5h-40
q11 63 14.5 137.5t3.5 147.5h-191zM165 415q29 64 47.5 138.5t20.5 147.5h-153v39h192v-31q0 -36 -4.5 -75.5t-13.5 -78t-21 -75.5t-27 -69z" />
    <glyph glyph-name="uniAF50" unicode="&#xaf50;" 
d="M759 -80v-39h-570v201h506v124h-506v38h549v-198h-506v-126h527zM329 576h41v-185q75 4 148.5 10.5t133.5 16.5v-38q-51 -8 -110 -14t-121 -10t-124 -6t-117 -2h-158v39h157q69 0 150 3v186zM738 302h-41v475h41v-217h140v-39h-140v-219zM318 706v39h232v-30
q0 -125 -20 -243h-40q11 53 15 112t4 122h-191zM166 471q29 54 47 113t20 122h-153v39h192v-30q0 -60 -18 -126.5t-48 -120.5z" />
    <glyph glyph-name="uniAF5C" unicode="&#xaf5c;" 
d="M465 -127q-56 28 -99 74.5t-67 103.5q-24 -58 -69.5 -103t-109.5 -74l-32 34q47 20 84 48.5t62 64.5t37 78.5t9 89.5h43q1 -23 -1 -43.5t-6 -40.5q4 -21 16.5 -45t31.5 -48t45 -46t58 -40q35 22 62 51.5t45 64.5t26 73.5t5 77.5h40q1 -46 -8 -89q6 -24 21 -50.5t38 -52
t54.5 -48.5t69.5 -40l-33 -35q-63 29 -102.5 74t-62.5 99q-23 -62 -64.5 -106.5t-92.5 -71.5zM22 296v39h157q70 0 153 3v193h39v-192q75 4 148 10.5t133 16.5v-37q-51 -9 -110 -15t-121 -10t-124 -6t-117 -2h-158zM738 242h-41v535h41v-225h140v-39h-140v-271zM318 706v39
h232v-33q0 -74 -5.5 -146t-15.5 -139h-40q11 62 15.5 134.5t4.5 144.5h-191zM164 426q29 63 48 135.5t21 144.5h-153v39h192v-33q0 -35 -5 -73t-13.5 -76t-21 -74t-27.5 -67z" />
    <glyph glyph-name="uniAF5D" unicode="&#xaf5d;" 
d="M458 -135q-69 0 -123 13t-91.5 36t-57 53.5t-19.5 66.5t20 66.5t57.5 52.5t91.5 34.5t122 12.5t122 -12.5t91.5 -34.5t57.5 -52.5t20 -66.5t-19.5 -66.5t-57 -53.5t-91.5 -36t-123 -13zM458 -97q60 0 106 10.5t77.5 28.5t47.5 41.5t16 48.5q0 26 -16 49.5t-47 41.5
t-77.5 28.5t-106.5 10.5t-106 -10.5t-77.5 -28.5t-47.5 -41.5t-16 -49.5q0 -25 16.5 -48.5t48 -41.5t77.5 -28.5t105 -10.5zM22 293v39h157h73t80 2v197h39v-196q75 3 148 9t133 16v-34q-51 -9 -110 -15t-121 -10t-124 -6t-117 -2h-158zM738 214h-41v563h41v-243h140v-41
h-140v-279zM318 707v38h232v-32q0 -74 -5.5 -146.5t-15.5 -139.5h-40q11 62 15.5 135t4.5 145h-191zM165 426q29 63 47.5 136t20.5 145h-153v38h192v-32q0 -35 -4.5 -73t-13.5 -76t-21 -74.5t-27 -67.5z" />
    <glyph glyph-name="uniAF64" unicode="&#xaf64;" 
d="M796 777v-906h-39v489h-149v-466h-39v873h39v-370h149v380h39zM33 94v38h125h55t60 2v245h40v-243q57 2 112 7t100 13v-34q-41 -8 -87.5 -13t-94 -8.5t-95 -5t-90.5 -1.5h-125zM430 645h-153v38h191v-39q0 -97 -5.5 -195.5t-15.5 -185.5h-38q11 88 16 189t5 193zM199 645
h-138v38h176v-39q0 -47 -5.5 -98t-15.5 -101.5t-23 -98.5t-29 -88q-1 0 -7 1t-13 1.5t-12 1l-5 0.5q34 90 53 190t19 193z" />
    <glyph glyph-name="uniAF65" unicode="&#xaf65;" 
d="M795 777v-557h-39v262h-142v-262h-39v547h39v-246h142v256h39zM795 -132h-42v251h-545v39h587v-290zM34 282v38h132h48t51 2v219h40v-217q60 3 119.5 9t107.5 14v-37q-41 -8 -87 -13.5t-93.5 -8.5t-95 -4.5t-90.5 -1.5h-132zM271 703v37h192v-29q0 -77 -4.5 -145.5
t-14.5 -137.5h-39q10 63 13.5 132.5t3.5 142.5h-151zM132 427q29 64 44.5 133.5t17.5 142.5h-127v37h167v-29q0 -73 -15.5 -148.5t-45.5 -139.5z" />
    <glyph glyph-name="uniAF79" unicode="&#xaf79;" 
d="M491 -135q-70 0 -125.5 12.5t-94 34.5t-59 52t-20.5 66t20.5 65.5t59 51t94 33.5t125.5 12t126 -12t95 -33.5t59.5 -51t20.5 -65.5t-20.5 -66t-59.5 -52t-95 -34.5t-126 -12.5zM491 -99q61 0 109 10.5t81 28t50 40.5t17 48t-17 48.5t-49.5 40.5t-80.5 27.5t-110 10.5
q-61 0 -108.5 -10.5t-79.5 -27.5t-49 -40.5t-17 -48.5t17 -48t49.5 -40.5t80 -28t107.5 -10.5zM795 777v-576h-39v287h-142v-249h-39v528h39v-240h142v250h39zM34 287v38h132h48t51 2v214h40v-212q60 3 119.5 9t107.5 14v-37q-41 -8 -87 -13.5t-93.5 -8.5t-95 -4.5
t-90.5 -1.5h-132zM271 703v37h192v-29q0 -77 -4.5 -144.5t-14.5 -136.5h-39q10 63 13.5 131.5t3.5 141.5h-151zM132 429q29 64 44.5 132.5t17.5 141.5h-127v37h167v-29q0 -73 -15.5 -147.5t-45.5 -138.5z" />
    <glyph glyph-name="uniAF80" unicode="&#xaf80;" 
d="M353 447h42v-320q79 4 158.5 10.5t142.5 17.5v-39q-50 -10 -109 -16t-120.5 -9.5t-122.5 -5t-116 -1.5h-187v39h186h60.5t65.5 2v322zM795 777v-906h-40v906h40zM548 656h-204v40h245v-41q0 -48 -1.5 -101t-4 -106.5t-6.5 -104t-9 -93.5h-40q6 44 9.5 96t6 105.5t3.5 106
t1 98.5zM261 656h-180v40h219v-41q0 -47 -5.5 -101t-15 -108t-22.5 -105t-29 -91q-1 0 -7.5 1t-14 1.5t-13 1l-5.5 0.5q17 45 30.5 96t23 103.5t14.5 104.5t5 98z" />
    <glyph glyph-name="uniAF84" unicode="&#xaf84;" 
d="M359 520h41v-209q81 4 161.5 10.5t144.5 17.5v-38q-50 -9 -108.5 -15t-120 -10t-122.5 -6t-116 -2h-195v40h194h58t63 2v210zM812 -71v-40h-583v258h43v-218h540zM795 99h-40v678h40v-678zM359 696v40h246v-30q0 -77 -5 -151t-15 -143h-41q10 63 15 136.5t5 147.5h-205z
M208 411q29 64 46 137.5t19 147.5h-166v40h206v-30q0 -36 -4 -75.5t-12 -78.5t-19.5 -76.5t-26.5 -68.5z" />
    <glyph glyph-name="uniAF88" unicode="&#xaf88;" 
d="M817 -80v-39h-580v204h516v127h-516v38h558v-201h-516v-129h538zM44 352v38h194h58t63 2v184h41v-183q81 4 161.5 11t144.5 18v-39q-50 -8 -108.5 -14t-120 -9.5t-122.5 -5.5t-116 -2h-195zM358 708v37h247v-28q0 -127 -20 -245h-42q10 53 15 113t5 123h-205zM755 308
v469h40v-469h-40zM209 471q29 54 45.5 114t18.5 123h-166v37h206v-28q0 -60 -16.5 -127.5t-45.5 -121.5z" />
    <glyph glyph-name="uniAF90" unicode="&#xaf90;" 
d="M795 -115h-561v298h561v-298zM277 145v-221h476v221h-476zM44 304v39h194h59t64 2v206h41v-205q80 4 160 10.5t144 17.5v-38q-50 -9 -108.5 -15t-120 -9.5t-122.5 -5.5t-116 -2h-195zM755 242v535h40v-535h-40zM358 707v38h247v-32q0 -74 -5 -143t-15 -136h-42
q10 62 15 131.5t5 141.5h-205zM208 433q29 63 46 132.5t19 141.5h-166v38h206v-32q0 -70 -16.5 -145.5t-45.5 -138.5z" />
    <glyph glyph-name="uniAF91" unicode="&#xaf91;" 
d="M795 222v-337h-561v332h43v-97h476v102h42zM276 -76h478v158h-478v-158zM44 315v39h194h59t64 2v200h41v-199q80 4 160 10.5t144 17.5v-38q-50 -9 -108.5 -15t-120 -9.5t-122.5 -5.5t-116 -2h-195zM358 707v38h247v-31q0 -72 -5 -142t-15 -136h-42q10 60 15 130.5
t5 140.5h-205zM755 274v503h40v-503h-40zM208 435q29 61 46 131.5t19 140.5h-166v38h206v-31q0 -34 -4 -71t-12 -74t-19 -72.5t-26 -65.5z" />
    <glyph glyph-name="uniAF95" unicode="&#xaf95;" 
d="M497 -135q-70 0 -125 13t-92.5 35.5t-57 53.5t-19.5 67t20 66.5t57.5 53t92 35t124.5 12.5t125 -12.5t93.5 -35t58.5 -53t20 -66.5t-20 -67t-58 -53.5t-93.5 -35.5t-125.5 -13zM497 -98q62 0 109 10.5t79 28.5t48.5 41.5t16.5 48.5q0 26 -16 50t-48 42t-79 28.5
t-110 10.5q-62 0 -108.5 -10.5t-78 -28.5t-47.5 -42t-16 -50q0 -25 16.5 -48.5t48 -41.5t78 -28.5t107.5 -10.5zM44 298v40h194h59t64 2v211h41v-210q80 4 160 10.5t144 17.5v-38q-50 -9 -108.5 -15t-120 -10t-122.5 -6t-116 -2h-195zM795 212h-40v565h40v-565zM358 707v38
h247v-32q0 -74 -5 -145.5t-15 -138.5h-42q10 62 15 134t5 144h-205zM208 428q29 63 46 135t19 144h-166v38h206v-32q0 -35 -4 -73t-12 -75.5t-19.5 -73.5t-26.5 -67z" />
    <glyph glyph-name="uniAF9C" unicode="&#xaf9c;" 
d="M279 206l-44 8q34 94 53 209t19 233h-196v40h237v-42q0 -120 -17 -234t-52 -214zM748 696v-44q0 -96 -9.5 -213.5t-25.5 -233.5h-43q16 100 25 216t9 235h-308v40h352zM546 375h42v-330h276v-38h-838v38h344v330h43v-330h133v330z" />
    <glyph glyph-name="uniAFB8" unicode="&#xafb8;" 
d="M26 279v40h279q12 39 21.5 85.5t15.5 97t9.5 101t4.5 96.5h-234v39h275v-35q0 -45 -3 -95t-9 -100t-14.5 -98.5t-19.5 -90.5h323q7 39 13.5 86.5t11.5 97.5t8 100.5t3 95.5h-267v39h310v-37q0 -37 -3 -84t-8 -98t-11.5 -102.5t-14.5 -97.5h148v-40h-390v-403h-45v403
h-403z" />
    <glyph glyph-name="uniAFB9" unicode="&#xafb9;" 
d="M471 382v-213h257v-301h-44v261h-537v40h279v213h-410v39h317q9 64 13.5 139.5t5.5 150.5h-219v40h263q-1 -43 -2.5 -87.5t-4.5 -87t-6.5 -82.5t-7.5 -73h297q10 66 16 139t7 151h-256v40h301q-2 -87 -8 -172.5t-17 -157.5h160v-39h-404z" />
    <glyph glyph-name="uniAFBC" unicode="&#xafbc;" 
d="M490 334v-245h-45v245h-429v39h312q11 73 17.5 162t6.5 176h-219v40h263q-1 -50 -3 -101.5t-5 -101t-7.5 -94.5t-8.5 -81h295q12 78 20 163t8 175h-256v40h301q-2 -99 -9 -198t-19 -180h163v-39h-385zM747 -75v-40h-584v274h45v-234h539z" />
    <glyph glyph-name="uniAFC0" unicode="&#xafc0;" 
d="M471 414v-154h258v-206h-524v-140h549v-39h-592v215h524v132h-524v38h264v154h-410v38h318q9 55 13 123t5 137h-219v39h263q-2 -80 -7 -160t-12 -139h296q9 57 14.5 123t7.5 137h-256v39h301q-2 -79 -8.5 -158t-15.5 -141h159v-38h-404z" />
    <glyph glyph-name="uniAFC7" unicode="&#xafc7;" 
d="M471 416v-150h-45v150h-410v38h318q9 54 13 121.5t5 136.5h-219v39h263q-2 -81 -7 -160t-13 -137h296q9 57 15 121.5t8 136.5h-256v39h301q-2 -80 -8.5 -158t-16.5 -139h160v-38h-404zM628 92q64 0 100.5 -32t36.5 -83q0 -53 -37 -84t-100 -31t-100.5 31t-37.5 84
q0 51 37 83t101 32zM196 59v-143h110q47 0 86 4.5t60 12.5v-33q-35 -11 -79 -15.5t-95 -4.5h-123v213h217v133h-217v38h260v-205h-219zM628 54q-46 0 -72.5 -21t-26.5 -55q0 -35 26 -56.5t73 -21.5q46 0 72.5 21.5t26.5 56.5q0 34 -27 55t-72 21zM793 137h-332v39h332v-39z
M718 235h-184v39h184v-39z" />
    <glyph glyph-name="uniAFC8" unicode="&#xafc8;" 
d="M471 386v-186h257v-315h-565v315h263v186h-410v39h317q9 62 13.5 136.5t5.5 149.5h-219v40h263q-1 -43 -2.5 -87t-4.5 -86.5t-6.5 -81.5t-7.5 -71h295q10 65 16 137t7 149h-254v40h299q-2 -86 -8 -171.5t-17 -154.5h162v-39h-404zM684 -75v235h-477v-235h477z" />
    <glyph glyph-name="uniAFC9" unicode="&#xafc9;" 
d="M728 -115h-565v373h44v-116h477v116h44v-373zM471 394v-156h-45v156h-410v39h318q8 60 12.5 133t5.5 145h-219v40h263q-1 -42 -2.5 -85t-4.5 -84t-6 -79.5t-7 -69.5h294q9 63 15.5 133t7.5 145h-254v40h299q-2 -84 -8 -167.5t-16 -150.5h161v-39h-404zM685 -75v180h-479
v-180h479z" />
    <glyph glyph-name="uniAFCB" unicode="&#xafcb;" 
d="M473 368v-136h-45v136h-412v39h315q10 66 15 146t6 158h-219v40h263q-1 -45 -3 -91.5t-5 -91.5t-7 -86t-8 -75h295q11 69 17.5 146t7.5 158h-254v40h299q-2 -91 -9 -181t-18 -163h164v-39h-402zM106 -90q75 15 136.5 42.5t105.5 65t68 83t24 96.5h46q0 -22 -4 -42.5
t-12 -40.5q16 -34 49.5 -66.5t77.5 -59.5t97 -47t108 -30l-20 -37q-54 11 -104.5 30.5t-93.5 45.5t-77 58t-56 69q-43 -69 -128.5 -122.5t-196.5 -81.5z" />
    <glyph glyph-name="uniAFCD" unicode="&#xafcd;" 
d="M471 385v-176q63 -2 112.5 -16t84 -36.5t52.5 -52.5t18 -65q0 -37 -19.5 -68.5t-57 -55t-91.5 -37t-123 -13.5t-123 13.5t-91.5 37t-57 55t-19.5 68.5q0 35 18.5 65.5t53 53t85 36t113.5 15.5v176h-410v39h317q9 62 13.5 137t5.5 150h-219v40h263q-1 -43 -2.5 -87
t-4.5 -87t-6.5 -82t-7.5 -71h295q10 65 16 137t7 150h-254v40h299q-2 -86 -8.5 -172t-16.5 -155h162v-39h-404zM447 -96q60 0 106 11t77.5 29.5t47.5 42.5t16 50t-16 50.5t-47 43t-77 29.5t-107 11q-60 0 -106.5 -11t-77.5 -29.5t-47 -43t-16 -50.5t16 -50t47.5 -42.5
t77.5 -29.5t106 -11z" />
    <glyph glyph-name="uniAFCE" unicode="&#xafce;" 
d="M471 389v-179h13h57.5t55 0.5t56 1t60.5 1.5q10 0 5 -15q-24 -51 -78.5 -97.5t-128.5 -87.5q65 -29 140.5 -55t157.5 -43l-26 -40q-39 9 -80 22t-82 28.5t-80 32.5t-73 33q-76 -38 -161 -68t-170 -51l-25 41q93 18 178 47t155.5 64t123.5 73.5t82 75.5
q-70 -4 -138.5 -3.5t-125.5 0.5h-210v40h249v179h-410v39h317q9 60 13.5 134.5t5.5 148.5h-219v40h263q-1 -43 -2.5 -86.5t-4.5 -85.5t-6.5 -80.5t-7.5 -70.5h295q10 63 16 134.5t7 148.5h-254v40h299q-2 -86 -8.5 -170.5t-16.5 -152.5h162v-39h-404z" />
    <glyph glyph-name="uniAFD4" unicode="&#xafd4;" 
d="M350 722h227q0 -42 -2.5 -90.5t-6 -98t-8 -97.5t-9.5 -88q38 4 72 8t65 9v-38q-81 -13 -161 -20t-161 -10v-406h-41v405q-28 -1 -55.5 -1.5t-55.5 -0.5h-171v40h173h17q14 77 21.5 168.5t8.5 178.5h-163v41h206q-1 -46 -3.5 -96.5t-6.5 -101t-9.5 -99.5t-12.5 -91
q55 1 115 3.5t120 7.5q12 74 18 162.5t8 173.5h-185v41zM795 777v-906h-41v247h-227v38h227v621h41z" />
    <glyph glyph-name="uniAFDC" unicode="&#xafdc;" 
d="M817 -80v-39h-585v197h521v114h-521v39h563v-189h-521v-122h543zM357 744h222q-1 -62 -5.5 -125.5t-15.5 -122.5q35 4 68 8t62 9v-37q-74 -12 -151.5 -19t-157.5 -10v-178h-44v176q-30 -1 -59.5 -1h-58.5h-173v37h172h28q12 50 17.5 108.5t6.5 115.5h-155v39h199
q-1 -32 -2.5 -66t-5 -68t-8 -67t-11.5 -62q54 2 113 4.5t117 7.5q10 49 14.5 103.5t6.5 108.5h-179v39zM795 278h-41v65h-223v36h223v398h41v-499z" />
    <glyph glyph-name="uniAFE8" unicode="&#xafe8;" 
d="M357 744h222q-1 -64 -6.5 -136.5t-15.5 -134.5q35 3 68.5 7t62.5 9v-37q-81 -14 -161 -20t-163 -9v-218h-44v217q-26 -1 -53 -1.5t-53 -0.5h-170v38h172h26q13 55 19 119.5t8 127.5h-156v39h199q-2 -72 -8 -146.5t-20 -139.5q54 2 113.5 4t118.5 7q11 56 15.5 116
t5.5 120h-180v39zM505 -128q-53 24 -98 67.5t-71 92.5q-25 -52 -70.5 -91.5t-108.5 -68.5l-29 35q46 18 83.5 44.5t62.5 59t37 71t9 82.5h42q1 -20 -1 -39.5t-6 -37.5q4 -19 16.5 -42t31.5 -45.5t44.5 -43t57.5 -35.5q34 19 61 46.5t45.5 60t27 68.5t5.5 72h40q1 -44 -8 -85
q6 -22 21 -45.5t38.5 -46.5t54 -43.5t68.5 -35.5l-27 -36q-57 26 -102 66.5t-70 87.5q-24 -54 -64.5 -93.5t-89.5 -64.5zM795 217h-41v90h-223v39h223v431h41v-560z" />
    <glyph glyph-name="uniAFE9" unicode="&#xafe9;" 
d="M497 -135q-70 0 -125 12t-92.5 33.5t-57 51t-19.5 63.5t20 63t57.5 50t92 32.5t124.5 11.5t125 -11.5t93.5 -32.5t58.5 -50t20 -63t-20 -63.5t-58 -51t-93.5 -33.5t-125.5 -12zM497 -99q61 0 108 10t79.5 27.5t49 40t16.5 46.5q0 23 -16.5 44.5t-48.5 38.5t-79 27
t-109 10t-108.5 -10t-78 -27t-47.5 -38.5t-16 -44.5q0 -24 16.5 -46.5t48 -40t78 -27.5t107.5 -10zM113 744h199q-2 -73 -8.5 -148t-20.5 -140q55 2 114.5 4t118.5 7q11 57 15.5 117t5.5 121h-180v39h222q-1 -65 -6.5 -137.5t-15.5 -135.5q35 3 68.5 7t62.5 9v-37
q-76 -13 -157.5 -19.5t-166.5 -9.5v-201h-44v200q-26 -1 -53 -1.5t-53 -0.5h-170v38h172h26q13 55 19 120.5t8 128.5h-156v39zM795 189h-41v112h-223v38h223v438h41v-588z" />
    <glyph glyph-name="uniAFF0" unicode="&#xaff0;" 
d="M177 324h-157v38h134q9 35 16 75.5t11.5 82t7 82.5t2.5 77h-119v41h161v-42q0 -37 -2.5 -78t-7.5 -83t-11.5 -81.5t-15.5 -73.5q43 0 91.5 2.5t97.5 6.5q9 71 14.5 154t5.5 154h-135v41h177v-42q0 -75 -5.5 -154t-14.5 -149q28 2 54 5.5t49 7.5v-37q-63 -12 -123.5 -17.5
t-122.5 -7.5v-429h-40v428q-17 -1 -33.5 -1h-33.5zM588 138h-168v39h168v590h40v-881h-40v252zM755 -129v906h40v-906h-40z" />
    <glyph glyph-name="uniAFF1" unicode="&#xaff1;" 
d="M275 740h179q-1 -66 -7.5 -139.5t-16.5 -137.5q26 3 51 6t48 7v-34q-57 -10 -111.5 -15.5t-109.5 -8.5v-229h-41v228q-25 -1 -49 -1.5t-49 -0.5h-142v35h145q11 55 17 121.5t8 129.5h-111v39h151q0 -70 -5 -147t-17 -143q41 1 85 3t88 6q11 53 17 117t8 125h-138v39z
M795 -132h-42v242h-545v38h587v-280zM585 304h-149v35h149v428h40v-566h-40v103zM755 201v576h40v-576h-40z" />
    <glyph glyph-name="uniAFF4" unicode="&#xaff4;" 
d="M275 730h179q-1 -70 -7.5 -148t-17.5 -144q27 2 52 5.5t48 7.5v-34q-56 -11 -110.5 -17t-110.5 -8v-210h-41v208q-24 -1 -47.5 -1h-47.5h-145v36h143q11 57 18 128t9 137h-111v40h151q0 -36 -1.5 -75.5t-4.5 -79.5t-8 -78t-11 -72q41 1 86 3t90 6q11 55 17 123t8 133
h-138v40zM812 -72v-39h-613v233h43v-194h570zM585 264h-149v37h149v466h40v-652h-40v149zM755 95v682h40v-682h-40z" />
    <glyph glyph-name="uniAFF8" unicode="&#xaff8;" 
d="M817 -80v-39h-588v199h524v114h-524v39h566v-189h-524v-124h546zM275 740h179q-1 -59 -7.5 -124.5t-17.5 -122.5q27 3 52 6t48 8v-33q-58 -10 -112 -15.5t-109 -8.5v-179h-41v177q-24 -1 -48 -1h-50h-142v33h144q11 48 17.5 107t8.5 115h-111v38h152q0 -63 -6 -132.5
t-19 -127.5q41 1 85.5 3t89.5 6q10 46 16.5 102.5t8.5 110.5h-138v38zM585 364h-149v31h149v372h40v-487h-40v84zM755 280v497h40v-497h-40z" />
    <glyph glyph-name="uniB000" unicode="&#xb000;" 
d="M795 -115h-566v281h566v-281zM272 129v-206h481v206h-481zM275 740h179q-1 -65 -7 -136t-17 -134q27 3 51.5 6.5t47.5 7.5v-35q-54 -10 -109.5 -15.5t-111.5 -8.5v-212h-41v211q-25 -1 -49.5 -1.5t-48.5 -0.5h-142v35h144q11 54 17.5 119t8.5 126h-111v38h151
q0 -68 -6 -143.5t-18 -139.5q41 1 86 3t90 6q10 52 16 114t8 122h-138v38zM585 313h-149v35h149v419h40v-542h-40v88zM755 225v552h40v-552h-40z" />
    <glyph glyph-name="uniB001" unicode="&#xb001;" 
d="M795 204v-319h-566v313h43v-88h481v94h42zM271 -77h483v150h-483v-150zM275 740h179q-1 -62 -7 -129t-16 -126q26 2 51 5.5t47 7.5v-35q-54 -10 -109 -15.5t-112 -8.5v-204h-41v203q-25 -1 -49.5 -1.5t-48.5 -0.5h-142v36h145q11 51 17 112t8 118h-111v38h151
q0 -65 -6 -136.5t-17 -131.5q41 1 86 3t90 6q9 49 15 107t8 114h-138v38zM585 327h-149v30h149v410h40v-511h-40v71zM755 256v521h40v-521h-40z" />
    <glyph glyph-name="uniB004" unicode="&#xb004;" 
d="M275 740h179q-1 -64 -7 -135t-17 -134q27 3 51.5 6.5t47.5 7.5v-35q-54 -10 -109.5 -15.5t-111.5 -8.5v-221h-41v220q-25 -1 -49.5 -1.5t-48.5 -0.5h-142v35h144q11 54 17.5 118.5t8.5 125.5h-111v38h151q0 -68 -6 -143t-18 -139q42 1 86.5 3t89.5 6q10 52 16 114t8 121
h-138v38zM487 -128q-54 26 -99.5 68t-68.5 93q-26 -53 -71.5 -93t-108.5 -68l-28 35q46 18 83.5 44.5t62.5 59.5t37 71.5t9 82.5h42q1 -21 -1 -40t-6 -38q4 -19 16.5 -42t32 -45.5t45.5 -43t57 -35.5q34 19 61 46.5t45 60t26.5 69t5.5 72.5h40q1 -44 -8 -85q6 -22 21 -46
t38.5 -47t54 -43.5t68.5 -35.5l-27 -35q-61 27 -104 67t-68 88q-24 -55 -65 -95t-90 -65zM585 318h-149v32h149v417h40v-550h-40v101zM755 217v560h40v-560h-40z" />
    <glyph glyph-name="uniB00C" unicode="&#xb00c;" 
d="M353 722h222q0 -43 -2.5 -92.5t-6 -99.5t-8 -98.5t-9.5 -88.5q42 4 81 8.5t74 10.5v-39q-69 -11 -153.5 -19t-169.5 -11v-402h-44v400q-26 -1 -51.5 -1h-49.5h-192v40h190q15 78 22.5 170.5t8.5 180.5h-156v41h202q-1 -47 -3.5 -98t-6.5 -102.5t-10 -100.5t-13 -91
q52 1 109.5 3t115.5 7q12 74 18.5 164t8.5 177h-177v41zM796 777v-906h-43v906h43z" />
    <glyph glyph-name="uniB010" unicode="&#xb010;" 
d="M361 736h229q0 -38 -2 -79t-5 -82.5t-7 -81.5t-9 -75q33 3 64 6.5t59 8.5v-38q-66 -11 -143.5 -17.5t-157.5 -10.5v-225h-44v223q-34 -2 -66 -2h-62h-175v40h174h28q14 66 19.5 143t7.5 151h-145v39h190q-1 -41 -3 -84t-5 -86.5t-8 -85t-12 -77.5q57 2 117.5 4t120.5 7
q11 63 15.5 137t6.5 146h-187v39zM812 -71v-40h-604v253h43v-213h561zM795 93h-42v684h42v-684z" />
    <glyph glyph-name="uniB014" unicode="&#xb014;" 
d="M817 -80v-39h-585v202h521v119h-521v39h563v-194h-521v-127h543zM361 744h229q-1 -66 -5.5 -133.5t-14.5 -130.5q32 3 62.5 6.5t57.5 8.5v-36q-68 -11 -149.5 -18t-163.5 -11v-151h-44v149q-30 -1 -59.5 -1h-56.5h-175v38h174h32q12 55 17.5 117.5t7.5 123.5h-147v38h190
q-2 -71 -7.5 -143.5t-19.5 -135.5q57 2 118 4.5t121 7.5q9 54 13.5 113t6.5 116h-187v38zM795 288h-42v489h42v-489z" />
    <glyph glyph-name="uniB01C" unicode="&#xb01c;" 
d="M795 -115h-561v291h561v-291zM277 139v-216h476v216h-476zM361 744h229q-1 -68 -6.5 -144t-14.5 -142q68 6 121 15v-37q-68 -12 -149.5 -19t-163.5 -10v-184h-44v182q-31 -1 -60 -1h-56h-175v39h174h30q13 59 19 127.5t8 135.5h-147v38h190q-2 -76 -7.5 -154t-19.5 -147
q57 2 118 4.5t121 7.5q11 60 15 123t5 128h-187v38zM795 235h-42v542h42v-542z" />
    <glyph glyph-name="uniB01D" unicode="&#xb01d;" 
d="M795 216v-331h-561v326h43v-91h476v96h42zM276 -77h478v160h-478v-160zM361 744h229q-1 -69 -5.5 -141t-15.5 -138q33 3 63.5 7t57.5 9v-38q-68 -11 -149.5 -18t-163.5 -11v-166h-44v164q-30 -1 -59.5 -1h-56.5h-175v39h174h31q13 58 18.5 124.5t7.5 131.5h-147v38h190
q-2 -75 -8 -151.5t-20 -142.5q57 2 118 4.5t121 7.5q10 56 14.5 119.5t6.5 124.5h-187v38zM795 268h-42v509h42v-509z" />
    <glyph glyph-name="uniB028" unicode="&#xb028;" 
d="M639 -122h-43v404h-275v-404h-44v404h-251v39h279q13 39 22 85.5t15.5 96.5t9.5 100t4 96h-234v39h275v-35q0 -44 -3 -93.5t-9 -100t-14.5 -98.5t-19.5 -90h324q7 39 13.5 86t11 97.5t7.5 100.5t3 94h-267v39h310v-37q0 -36 -3 -83t-7.5 -98t-11.5 -102.5t-14 -96.5h147
v-39h-225v-404z" />
    <glyph glyph-name="uniB044" unicode="&#xb044;" 
d="M701 653h-271v40h317q-2 -86 -7.5 -174.5t-13 -172t-16.5 -157.5t-16 -132h170v-39h-838v39h271q9 62 17.5 136.5t15 153t10 157.5t3.5 149h-227v40h271q-1 -85 -5.5 -171t-10.5 -168t-14 -157.5t-17 -139.5h312q9 62 18 136.5t15.5 153.5t11 157.5t4.5 148.5z" />
    <glyph glyph-name="uniB045" unicode="&#xb045;" 
d="M16 394h304q11 67 16.5 150.5t6.5 166.5h-213v40h259q-1 -47 -3 -96.5t-5.5 -96t-7.5 -89t-8 -75.5h296q11 72 18.5 151.5t8.5 165.5h-251v40h298q-2 -95 -9.5 -189t-20.5 -168h170v-39h-859v39zM728 -132h-44v272h-537v40h581v-312z" />
    <glyph glyph-name="uniB048" unicode="&#xb048;" 
d="M16 360h303q6 36 10.5 79t7.5 89t4.5 92.5t1.5 90.5h-213v40h259q-1 -50 -3 -104t-5.5 -106t-8 -98.5t-8.5 -82.5h296q12 80 20 170t8 181h-251v40h298q-1 -50 -3.5 -102t-6.5 -103t-9 -98.5t-11 -87.5h170v-39h-859v39zM747 -75v-40h-584v295h45v-255h539z" />
    <glyph glyph-name="uniB04A" unicode="&#xb04a;" 
d="M16 406h305q5 28 9 65.5t6.5 78.5t4.5 82.5t2 78.5h-213v40h259q-1 -42 -3 -90.5t-5.5 -95t-7 -88t-7.5 -71.5h296q4 30 8.5 67t8 77.5t6 81.5t3.5 79h-251v40h298q-1 -42 -4 -89.5t-6.5 -94t-8 -88.5t-9.5 -73h168v-39h-859v39zM604 95q68 0 108.5 -32.5t40.5 -82.5
q0 -53 -42 -84t-107 -31q-33 0 -60.5 8t-47.5 23t-31 36.5t-11 47.5q0 50 40.5 82.5t109.5 32.5zM604 55q-51 0 -79 -20.5t-28 -54.5q0 -32 29.5 -53t77.5 -21t76.5 21t28.5 53q0 34 -27 54.5t-78 20.5zM152 -115v353h43v-314h47q22 0 47 1t49 3.5t45.5 6.5t38.5 9v-35
q-48 -14 -104 -19t-111 -5h-55zM780 141h-354v39h354v-39zM697 236h-189v40h189v-40z" />
    <glyph glyph-name="uniB04C" unicode="&#xb04c;" 
d="M16 441h307q10 56 14.5 127t5.5 143h-213v40h259q-1 -42 -2.5 -84.5t-4.5 -83t-6.5 -77t-7.5 -65.5h296q10 60 16 127.5t8 142.5h-251v40h298q-2 -84 -9 -166t-17 -144h166v-38h-859v38zM754 -125h-592v218h524v137h-524v38h567v-211h-524v-143h549v-39z" />
    <glyph glyph-name="uniB04E" unicode="&#xb04e;" 
d="M472 -124v392h264v-392h-264zM16 442h307q10 56 14.5 126.5t5.5 142.5h-213v40h259q-1 -42 -2.5 -84.5t-4.5 -82.5t-6.5 -76.5t-7.5 -65.5h296q9 60 15.5 127t8.5 142h-251v40h298q-2 -84 -9 -165.5t-17 -143.5h166v-38h-859v38zM694 231h-180v-317h180v317zM154 230v38
h267v-210h-225v-145h100q49 0 88 4.5t60 12.5v-36q-30 -11 -74.5 -15.5t-100.5 -4.5h-115v220h224v136h-224z" />
    <glyph glyph-name="uniB053" unicode="&#xb053;" 
d="M16 442h307q10 56 14.5 126.5t5.5 142.5h-213v40h259q-1 -42 -2.5 -84.5t-4.5 -82.5t-6.5 -76.5t-7.5 -65.5h296q9 60 15.5 127t8.5 142h-251v40h298q-2 -84 -9 -165.5t-17 -143.5h166v-38h-859v38zM622 98q64 0 100.5 -33t36.5 -85q0 -54 -37 -85.5t-100 -31.5
t-100.5 31.5t-37.5 85.5q0 52 37 85t101 33zM190 58v-142h117q47 0 86 6t60 14v-36q-35 -11 -79 -15.5t-95 -4.5h-130v212h229v138h-229v38h272v-210h-231zM622 62q-46 0 -72.5 -24t-26.5 -58q0 -35 26 -58.5t73 -23.5q46 0 72.5 23.5t26.5 58.5q0 34 -27 58t-72 24z
M787 142h-333v39h333v-39zM712 237h-185v41h185v-41z" />
    <glyph glyph-name="uniB054" unicode="&#xb054;" 
d="M728 -115h-565v323h565v-323zM684 -75v243h-477v-243h477zM16 412h306q10 63 15 141.5t6 157.5h-213v40h259q-1 -45 -3 -91.5t-5 -91t-6.5 -84.5t-7.5 -72h296q11 67 17.5 142.5t7.5 156.5h-251v40h298q-2 -91 -9 -180t-18 -159h167v-39h-859v39z" />
    <glyph glyph-name="uniB055" unicode="&#xb055;" 
d="M728 -115h-565v378h44v-122h477v122h44v-378zM685 -75v179h-479v-179h479zM16 415h306q10 61 15 139.5t6 156.5h-213v40h259q-1 -45 -3 -91t-5 -90.5t-6.5 -84t-7.5 -70.5h296q10 66 17 140.5t8 155.5h-251v40h298q-2 -90 -9 -179t-18 -157h167v-39h-859v39z" />
    <glyph glyph-name="uniB057" unicode="&#xb057;" 
d="M16 391h303q11 67 17 151.5t7 168.5h-213v40h259q-1 -48 -3 -97.5t-5.5 -97t-8 -90t-8.5 -75.5h296q12 72 19.5 152.5t8.5 167.5h-251v40h298q-2 -96 -9.5 -191t-20.5 -169h170v-39h-859v39zM111 -90q75 18 137 48.5t105.5 71.5t67.5 91t24 107h46q0 -44 -15 -86
q16 -38 49 -74.5t77.5 -67.5t97.5 -54t109 -35l-22 -37q-54 14 -105 36t-94.5 50.5t-78 62.5t-55.5 72q-44 -77 -129 -135.5t-191 -85.5z" />
    <glyph glyph-name="uniB059" unicode="&#xb059;" 
d="M451 -135q-69 0 -123 14t-91.5 38t-57.5 57t-20 72t20 71.5t57.5 56t92 37t122.5 13.5t122.5 -13.5t92 -37t57.5 -56t20 -71.5t-20 -72t-57.5 -57t-91.5 -38t-123 -14zM451 -95q59 0 105 11t77 30t47 44.5t16 53.5t-16 53.5t-46.5 44.5t-76.5 30t-106 11t-106 -11
t-76.5 -30t-46.5 -44.5t-16 -53.5t16 -53.5t47 -44.5t77 -30t105 -11zM16 390h304q6 32 10 70.5t7 80.5t4.5 85.5t1.5 84.5h-213v40h259q-1 -47 -3 -97t-5 -98t-7.5 -91t-8.5 -75h296q11 69 18.5 152.5t8.5 168.5h-251v40h298q-1 -47 -3.5 -96t-6 -96t-8.5 -90.5t-11 -78.5
h169v-39h-859v39z" />
    <glyph glyph-name="uniB05D" unicode="&#xb05d;" 
d="M16 433h305q11 57 16 130t6 148h-213v40h259q-1 -43 -3 -87t-5 -85.5t-7 -79t-8 -66.5h296q10 60 17 130.5t9 147.5h-251v40h298q-2 -86 -9.5 -170.5t-18.5 -147.5h168v-39h-859v39zM726 55h-515v-141h536v-39h-578v386h559v-38h-517v-132h515v-36z" />
    <glyph glyph-name="uniB07C" unicode="&#xb07c;" 
d="M738 -129v906h43v-906h-43zM296 695v-37q0 -160 -52 -299.5t-165 -242.5l-35 23q53 47 93.5 105t67 124.5t39 139t10.5 149.5q-36 -2 -75 -2.5t-65 -0.5h-48v39h82h76t72 2zM562 695v-37q0 -181 -50.5 -343t-163.5 -293l-38 21q60 67 100 140t65 150.5t35 159t10 165.5
q-36 -2 -71 -2.5t-62 -0.5h-53v38h87h72t69 2z" />
    <glyph glyph-name="uniB07D" unicode="&#xb07d;" 
d="M318 735q-3 -127 -63 -229.5t-176 -174.5l-33 29q104 57 162.5 143.5t66.5 194.5q-35 -2 -71.5 -2.5t-62.5 -0.5h-49v38h82h74t70 2zM541 698q-36 -2 -72 -2.5t-62 -0.5h-50v38h82h73.5t69.5 2q0 -65 -12.5 -127.5t-40.5 -120t-71.5 -109.5t-104.5 -94l-35 26
q61 37 102.5 84t68 98.5t38.5 104t14 101.5zM738 252v525h43v-525h-43zM781 -132h-42v286h-534v39h576v-325z" />
    <glyph glyph-name="uniB080" unicode="&#xb080;" 
d="M318 729q-3 -137 -59.5 -247.5t-177.5 -194.5l-34 29q52 30 93 71t70.5 90t45.5 103.5t19 111.5q-35 -2 -71.5 -2.5t-62.5 -0.5h-49v38h82h74t70 2zM543 692q-36 -2 -72 -2.5t-62 -0.5h-52v38h84h73.5t69.5 2q0 -70 -12.5 -138.5t-40 -132.5t-72 -122t-108.5 -106l-37 26
q63 42 106.5 95.5t70.5 112t39 117.5t13 111zM738 118v659h43v-659h-43zM796 -70v-41h-557v256h43v-215h514z" />
    <glyph glyph-name="uniB084" unicode="&#xb084;" 
d="M320 735q-2 -114 -67 -206.5t-176 -152.5l-32 31q103 51 162 122t70 169q-36 -2 -72 -2.5t-62 -0.5h-49v38h82h74t70 2zM539 698q-36 -2 -71.5 -2.5t-61.5 -0.5h-47v38h79h73.5t69.5 2q0 -116 -53.5 -217.5t-169.5 -174.5l-34 26q57 31 97 70t65.5 81.5t38 88t14.5 89.5z
M738 339v438h43v-438h-43zM802 -80v-39h-584v221h521v141h-521v38h563v-216h-521v-145h542z" />
    <glyph glyph-name="uniB08C" unicode="&#xb08c;" 
d="M319 735q-3 -125 -64.5 -224.5t-176.5 -168.5l-33 29q104 57 163 139t68 188q-36 -2 -72 -2.5t-62 -0.5h-49v38h82h74t70 2zM540 698q-36 -2 -72 -2.5t-62 -0.5h-48v38h80h73.5t69.5 2q0 -63 -12.5 -123.5t-40 -116.5t-70.5 -105.5t-104 -91.5l-35 26q60 36 101.5 80.5
t67.5 94t38 100.5t14 99zM738 273v504h43v-504h-43zM781 215v-330h-556v330h556zM739 -75v250h-471v-250h471z" />
    <glyph glyph-name="uniB08D" unicode="&#xb08d;" 
d="M319 735q-3 -121 -65 -219t-176 -164l-33 29q104 55 163 134.5t68 182.5q-36 -2 -72 -2.5t-62 -0.5h-49v38h82h74t70 2zM540 698q-36 -2 -72 -2.5t-62 -0.5h-48v38h80h73.5t69.5 2q0 -62 -13 -120.5t-40.5 -112.5t-70.5 -102t-103 -88l-34 25q59 34 100 77.5t67 90.5
t38.5 96.5t14.5 96.5zM738 310v467h43v-467h-43zM781 253v-368h-556v362h43v-114h471v120h42zM267 -75h473v169h-473v-169z" />
    <glyph glyph-name="uniB08F" unicode="&#xb08f;" 
d="M148 -90q75 18 135 48.5t102 72t64.5 91.5t22.5 106h47q0 -49 -16 -91q16 -38 48 -73.5t75 -65.5t94 -53t106 -34l-22 -37q-53 12 -101.5 34t-90 50.5t-74.5 63t-54 72.5q-21 -38 -53 -72t-72 -62.5t-88 -50.5t-100 -35zM542 698q-36 -2 -72 -2.5t-62 -0.5h-51v38h83
h73.5t69.5 2q0 -68 -12.5 -134.5t-40.5 -128t-72 -116.5t-107 -101l-36 26q62 40 105 91t69.5 106.5t39 112t13.5 107.5zM318 735q-3 -133 -61 -240t-177 -186l-34 28q105 60 163.5 154t65.5 207q-35 -2 -71.5 -2.5t-62.5 -0.5h-49v38h82h74t70 2zM738 174v603h43v-603h-43z
" />
    <glyph glyph-name="uniB091" unicode="&#xb091;" 
d="M318 735q-3 -127 -63 -229.5t-176 -174.5l-33 29q104 57 162.5 143.5t66.5 194.5q-35 -2 -71.5 -2.5t-62.5 -0.5h-49v38h82h74t70 2zM541 698q-36 -2 -72 -2.5t-62 -0.5h-50v38h82h73.5t69.5 2q0 -65 -12.5 -129t-40.5 -123.5t-71.5 -113t-104.5 -95.5l-35 25
q61 37 102.5 86t68 102t38.5 107.5t14 103.5zM738 238v539h43v-539h-43zM496 -135q-68 0 -121.5 13.5t-90 37.5t-56 57t-19.5 72t19.5 71.5t56 56t90 36.5t121.5 13t121.5 -13t90.5 -36.5t56.5 -56t19.5 -71.5t-19.5 -72t-56.5 -57t-90.5 -37.5t-121.5 -13.5zM496 -97
q59 0 104.5 11.5t76 31t46 45t15.5 54.5q0 28 -15.5 53t-45.5 44t-75.5 30t-105.5 11t-105 -11t-75 -30t-45.5 -44t-15.5 -53q0 -29 15.5 -54.5t46 -45t75.5 -31t104 -11.5z" />
    <glyph glyph-name="uniB098" unicode="&#xb098;" 
d="M261 134h-191v573h43v-532h157q109 0 200 13.5t145 29.5v-42q-31 -9 -72.5 -16.5t-88.5 -13t-97 -9t-96 -3.5zM886 440v-41h-171v-528h-43v906h43v-337h171z" />
    <glyph glyph-name="uniB099" unicode="&#xb099;" 
d="M269 342h-199v404h43v-364h164q55 0 106 4t95.5 10t82 13.5t64.5 14.5v-40q-31 -9 -73 -16.5t-89.5 -13.5t-97.5 -9t-96 -3zM878 570v-41h-152v-277h-43v525h43v-207h152zM726 -132h-43v284h-514v40h557v-324z" />
    <glyph glyph-name="uniB09A" unicode="&#xb09a;" 
d="M269 342h-199v404h43v-364h164q55 0 106 4t95.5 10t82 13.5t64.5 14.5v-40q-31 -9 -73 -16.5t-89.5 -13.5t-97.5 -9t-96 -3zM878 575v-41h-152v-276h-43v519h43v-202h152zM726 -132h-43v290h-217v40h260v-330zM418 -132h-43v290h-233v40h276v-330z" />
    <glyph glyph-name="uniB09C" unicode="&#xb09c;" 
d="M269 321h-199v416h43v-376h164q110 0 201.5 13t146.5 28v-39q-31 -9 -73 -16.5t-89.5 -13.5t-97.5 -9t-96 -3zM878 525v-41h-152v-346h-43v639h43v-252h152zM741 -71v-40h-536v274h43v-234h493z" />
    <glyph glyph-name="uniB09F" unicode="&#xb09f;" 
d="M269 353h-199v393h43v-353h164q55 0 106 4t95.5 10t82 13.5t64.5 14.5v-40q-31 -9 -73 -16.5t-89.5 -13.5t-97.5 -9t-96 -3zM878 568v-41h-152v-260h-43v510h43v-209h152zM745 -115h-554v324h537v-40h-494v-244h511v-40z" />
    <glyph glyph-name="uniB0A0" unicode="&#xb0a0;" 
d="M113 746v-307h164q55 0 106 3t96 8.5t82 12t64 13.5v-39q-31 -8 -73 -15t-89 -12t-97 -8t-97 -3h-199v347h43zM878 591v-41h-152v-211h-43v438h43v-186h152zM747 -79v-40h-565v224h501v136h-501v40h544v-216h-501v-144h522z" />
    <glyph glyph-name="uniB0A1" unicode="&#xb0a1;" 
d="M113 746v-303h164q55 0 106 3t96 8.5t82 12t64 13.5v-40q-31 -8 -73 -15t-89 -12t-97 -7.5t-97 -2.5h-199v343h43zM319 -119h-161v223h225v141h-225v40h268v-218h-225v-146h145q51 0 89 5t59 13v-36q-30 -12 -74 -17t-101 -5zM878 594v-41h-152v-210h-43v434h43v-183h152
zM726 -132h-43v377h-212v40h255v-417z" />
    <glyph glyph-name="uniB0A2" unicode="&#xb0a2;" 
d="M113 746v-303h164q55 0 106 3t96 8.5t82 12t64 13.5v-40q-31 -8 -73 -15t-89 -12t-97 -7.5t-97 -2.5h-199v343h43zM261 -117h-113v221h222v141h-222v40h265v-221h-222v-141h95q51 0 90.5 5t59.5 13v-37q-31 -12 -75 -16.5t-100 -4.5zM878 594v-41h-152v-210h-43v434h43
v-183h152zM464 -115v400h262v-400h-262zM683 245h-176v-320h176v320z" />
    <glyph glyph-name="uniB0A8" unicode="&#xb0a8;" 
d="M269 357h-199v389h43v-349h164q110 0 201.5 14t146.5 29v-41q-31 -9 -73 -16.5t-89.5 -13t-97.5 -9t-96 -3.5zM878 567v-41h-152v-250h-43v501h43v-210h152zM726 218v-333h-537v333h537zM683 -75v253h-451v-253h451z" />
    <glyph glyph-name="uniB0A9" unicode="&#xb0a9;" 
d="M113 746v-335h164q55 0 106 3t96 8.5t82 12t64 13.5v-38q-31 -8 -73 -15.5t-89 -12.5t-97 -8t-97 -3h-199v375h43zM878 584v-41h-152v-224h-43v458h43v-193h152zM726 263v-378h-537v373h43v-123h451v128h43zM232 -75h451v170h-451v-170z" />
    <glyph glyph-name="uniB0AB" unicode="&#xb0ab;" 
d="M70 746h43v-363h164q110 0 201.5 13.5t146.5 28.5v-40q-31 -9 -73 -16.5t-89.5 -13.5t-97.5 -9t-96 -3h-199v403zM120 -89q75 18 135 49.5t102 74t64.5 94t22.5 109.5h46q0 -48 -15 -91q16 -39 48 -76t75 -68.5t94 -55t106 -35.5l-22 -38q-53 13 -101.5 35.5t-90 52.5
t-74 66t-53.5 75q-21 -40 -52.5 -75.5t-72 -65t-88 -52t-100.5 -36.5zM878 544v-41h-152v-329h-43v603h43v-233h152z" />
    <glyph glyph-name="uniB0AC" unicode="&#xb0ac;" 
d="M464 -126q-54 31 -98.5 80.5t-70.5 108.5q-25 -61 -70.5 -108.5t-107.5 -80.5l-31 35q103 46 151.5 127t41.5 190h43q1 -49 -8 -96q4 -23 15.5 -49.5t30.5 -54t45.5 -54t59.5 -48.5q72 54 108.5 135t30.5 171h40q1 -50 -8 -99q5 -27 19 -57t37 -58.5t55 -55t73 -45.5
l-30 -36q-60 31 -103 79.5t-69 105.5q-24 -65 -64.5 -112.5t-89.5 -77.5zM269 349h-199v397h43v-357h164q110 0 201.5 14t146.5 29v-41q-31 -9 -73 -16.5t-89.5 -13t-97.5 -9t-96 -3.5zM878 573v-41h-152v-250h-43v495h43v-204h152z" />
    <glyph glyph-name="uniB0AD" unicode="&#xb0ad;" 
d="M269 342h-199v404h43v-364h164q55 0 106 4t95.5 10t82 13.5t64.5 14.5v-40q-31 -9 -73 -16.5t-89.5 -13.5t-97.5 -9t-96 -3zM451 -135q-68 0 -121.5 14.5t-90.5 40t-56.5 60t-19.5 73.5q0 40 19.5 73.5t56.5 58.5t90.5 39t121.5 14t121.5 -14t90.5 -39t56.5 -58.5
t19.5 -73.5q0 -39 -19.5 -73.5t-56.5 -60t-90.5 -40t-121.5 -14.5zM451 -96q59 0 104 12t75.5 32.5t46 47.5t15.5 57q0 28 -15 54.5t-45.5 47t-75.5 32.5t-105 12t-105 -12t-75.5 -32.5t-45.5 -47t-15 -54.5q0 -30 15.5 -57t46 -47.5t75.5 -32.5t104 -12zM878 570v-41h-152
v-271h-43v519h43v-207h152z" />
    <glyph glyph-name="uniB0AE" unicode="&#xb0ae;" 
d="M204 220h291q56 0 106 0.5t112 2.5q11 0 4 -14q-20 -54 -74 -102.5t-128 -90.5q64 -30 143.5 -57t160.5 -45l-26 -40q-38 10 -79.5 24t-83.5 29.5t-81.5 33t-71.5 35.5q-75 -39 -159.5 -70.5t-165.5 -53.5l-24 41q87 19 168.5 47.5t150.5 64t122.5 76t86.5 84.5
q-67 -4 -131.5 -4.5t-118.5 -0.5h-202v40zM269 363h-199v383h43v-343h164q110 0 201.5 13.5t146.5 28.5v-39q-31 -9 -73 -17t-89.5 -13.5t-97.5 -9t-96 -3.5zM878 583v-41h-152v-260h-43v495h43v-194h152z" />
    <glyph glyph-name="uniB0AF" unicode="&#xb0af;" 
d="M212 174h272h54t52 0.5t53 1t58 1.5q12 0 6 -14q-28 -47 -78.5 -87.5t-114.5 -75.5q63 -28 140.5 -50.5t157.5 -34.5l-22 -39q-85 13 -168 42t-147 60l2 4q-76 -37 -160 -63.5t-164 -43.5l-23 38q73 12 148 34t142.5 51t123.5 65t91 76q-34 -2 -69.5 -3t-69.5 -1h-65h-55
h-164v39zM113 746v-314h164q55 0 106 3t96 8.5t82 12t64 13.5v-39q-31 -8 -73 -15t-89 -12t-97 -8t-97 -3h-199v354h43zM878 596v-41h-152v-252h-43v474h43v-181h152zM311 244v38h264v-38h-264z" />
    <glyph glyph-name="uniB0B1" unicode="&#xb0b1;" 
d="M113 746v-318h164q55 0 106 3t96 8.5t82 12t64 13.5v-39q-31 -8 -73 -15t-89 -12t-97 -8t-97 -3h-199v358h43zM878 587v-41h-152v-223h-43v454h43v-190h152zM726 56h-497v-129h518v-40h-561v378h542v-40h-499v-129h497v-40z" />
    <glyph glyph-name="uniB0B3" unicode="&#xb0b3;" 
d="M113 746v-314h164q55 0 106 3t96 8.5t82 12t64 13.5v-39q-31 -8 -73 -15t-89 -12t-97 -8t-97 -3h-199v354h43zM761 162h-623v37h623v-37zM586 263h-285v40h285v-40zM451 -140q-121 0 -189.5 33t-68.5 92q0 60 67.5 92t190.5 32t190.5 -32t67.5 -92q0 -59 -68.5 -92
t-189.5 -33zM878 596v-41h-152v-252h-43v474h43v-181h152zM451 -103q47 0 86 6t67 17.5t43.5 28t15.5 36.5q0 41 -54.5 64t-157.5 23t-157.5 -23t-54.5 -64q0 -20 15.5 -36.5t43 -28t66.5 -17.5t87 -6z" />
    <glyph glyph-name="uniB0B4" unicode="&#xb0b4;" 
d="M192 138h-116v569h43v-529h77q91 0 165 11t118 25v-41q-26 -8 -60.5 -14.5t-72.5 -11t-77.5 -7t-76.5 -2.5zM786 777v-906h-42v510h-181v-487h-42v873h42v-345h181v355h42z" />
    <glyph glyph-name="uniB0B5" unicode="&#xb0b5;" 
d="M183 337h-99v407h43v-367h61q92 0 165.5 11.5t116.5 24.5v-39q-26 -8 -60.5 -15t-72.5 -12t-78 -7.5t-76 -2.5zM794 777v-534h-42v254h-185v-254h-42v524h42v-229h185v239h42zM794 -132h-43v275h-539v40h582v-315z" />
    <glyph glyph-name="uniB0B8" unicode="&#xb0b8;" 
d="M186 316h-102v419h43v-379h61q92 0 165.5 11.5t116.5 24.5v-39q-26 -8 -60 -14.5t-72 -11.5t-77 -8t-75 -3zM794 777v-641h-42v338h-185v-318h-42v611h42v-252h185v262h42zM811 -72v-40h-569v272h43v-232h526z" />
    <glyph glyph-name="uniB0BC" unicode="&#xb0bc;" 
d="M186 382h-102v362h43v-321h61q93 0 163.5 9t118.5 23v-38q-26 -8 -59.5 -14t-71 -11t-77 -7.5t-76.5 -2.5zM794 777v-445h-42v205h-185v-205h-42v435h42v-189h185v199h42zM816 -79v-40h-590v220h525v133h-525v40h568v-213h-525v-140h547z" />
    <glyph glyph-name="uniB0C4" unicode="&#xb0c4;" 
d="M186 353h-102v391h43v-351h61q92 0 165.5 12t116.5 25v-40q-26 -8 -60 -14.5t-72 -11.5t-77 -8t-75 -3zM794 777v-510h-42v241h-185v-241h-42v500h42v-218h185v228h42zM794 209v-324h-561v324h561zM751 -75v244h-475v-244h475z" />
    <glyph glyph-name="uniB0C5" unicode="&#xb0c5;" 
d="M186 357h-102v387h43v-347h61q93 0 163.5 10t118.5 23v-39q-26 -8 -59.5 -14t-71 -10.5t-77 -7t-76.5 -2.5zM794 777v-473h-42v218h-185v-218h-42v463h42v-204h185v214h42zM794 247v-362h-563v353h43v-112h477v121h43zM274 -75h477v161h-477v-161z" />
    <glyph glyph-name="uniB0C7" unicode="&#xb0c7;" 
d="M794 777v-595h-42v326h-185v-232h-42v491h42v-218h185v228h42zM141 -90q75 18 135 48.5t102 72t64.5 91.5t22.5 106h47q0 -49 -16 -91q16 -38 48 -73.5t75 -65.5t94 -53t106 -34l-24 -37q-53 12 -101.5 34t-89.5 50.5t-73.5 63t-53.5 72.5q-21 -38 -53 -72t-72 -62.5
t-88 -50.5t-100 -35zM186 328h-102v407h43v-367h61q92 0 165.5 11.5t116.5 23.5v-38q-26 -8 -60 -15t-72 -12t-77 -7.5t-75 -2.5z" />
    <glyph glyph-name="uniB0C8" unicode="&#xb0c8;" 
d="M488 -127q-54 31 -98.5 80t-69.5 108q-25 -61 -70.5 -108t-108.5 -79l-30 34q106 48 153 124.5t40 182.5h42q1 -47 -8 -92q4 -22 16.5 -48t31.5 -53t45 -53t59 -47q35 25 62 58.5t45 72t26 80.5t5 86h40q1 -52 -8 -99q5 -26 19.5 -55t37.5 -56.5t54.5 -52.5t71.5 -44
l-29 -34q-60 31 -102.5 78.5t-68.5 102.5q-24 -64 -65 -110.5t-90 -75.5zM794 777v-505h-42v245h-185v-245h-42v495h42v-209h185v219h42zM186 358h-102v386h43v-346h61q91 0 164.5 12t117.5 25v-40q-26 -8 -60 -14.5t-72 -11.5t-77 -8t-75 -3z" />
    <glyph glyph-name="uniB0C9" unicode="&#xb0c9;" 
d="M186 342h-102v402h43v-362h61q91 0 164.5 11.5t117.5 24.5v-39q-26 -8 -60 -15t-72 -12t-77 -7.5t-75 -2.5zM494 -134q-71 0 -126 14t-93 38.5t-58 57.5t-20 71q0 39 20 72t58.5 56.5t93.5 37t125 13.5t125 -13.5t93.5 -37t58.5 -56.5t20 -72q0 -38 -20 -71t-58 -57.5
t-93.5 -38.5t-125.5 -14zM794 777v-537h-42v283h-185v-242h-42v486h42v-203h185v213h42zM494 -96q61 0 107.5 12t78 31.5t48 45.5t16.5 54t-16 53.5t-47.5 45t-78 31t-108.5 11.5t-108.5 -11.5t-77.5 -31t-47 -45t-16 -53.5t16 -54t47.5 -45.5t78 -31.5t107.5 -12z" />
    <glyph glyph-name="uniB0D0" unicode="&#xb0d0;" 
d="M876 269h-161v-398h-43v906h43v-193h161v-39h-161v-236h161v-40zM265 134h-195v573h43v-532h161q109 0 198 12.5t143 28.5v-40q-31 -9 -72 -16.5t-87.5 -13t-95.5 -9t-95 -3.5z" />
    <glyph glyph-name="uniB0D1" unicode="&#xb0d1;" 
d="M269 342h-199v404h43v-364h164q55 0 106 3.5t95.5 9.5t82 13t64.5 14v-38q-31 -9 -73 -16.5t-89.5 -13.5t-97.5 -9t-96 -3zM726 -132h-43v285h-514v39h557v-324zM874 418h-148v-166h-43v525h43v-120h148v-41h-148v-157h148v-41z" />
    <glyph glyph-name="uniB0D4" unicode="&#xb0d4;" 
d="M269 321h-199v416h43v-376h164q110 0 201.5 12t146.5 27v-37q-31 -9 -73 -16.5t-89.5 -13.5t-97.5 -9t-96 -3zM875 366h-149v-228h-43v639h43v-157h149v-41h-149v-172h149v-41zM741 -71v-40h-536v264h43v-224h493z" />
    <glyph glyph-name="uniB0D8" unicode="&#xb0d8;" 
d="M113 746v-307h164q55 0 106 3t96 7.5t82 11t64 13.5v-37q-31 -8 -73 -15t-89 -12t-97 -8t-97 -3h-199v347h43zM874 473h-148v-134h-43v438h43v-105h148v-41h-148v-117h148v-41zM747 -79v-40h-565v224h501v136h-503v40h546v-216h-501v-144h522z" />
    <glyph glyph-name="uniB0E0" unicode="&#xb0e0;" 
d="M269 363h-199v383h43v-343h164q110 0 201.5 12.5t146.5 27.5v-37q-31 -9 -73 -17t-89.5 -13.5t-97.5 -9t-96 -3.5zM874 455h-148v-173h-43v495h43v-111h148v-41h-148v-129h148v-41zM726 224v-340h-537v340h537zM683 -76v260h-451v-260h451z" />
    <glyph glyph-name="uniB0E5" unicode="&#xb0e5;" 
d="M269 342h-199v404h43v-364h164q55 0 106 3.5t95.5 9.5t82 13t64.5 14v-38q-31 -9 -73 -16.5t-89.5 -13.5t-97.5 -9t-96 -3zM451 -135q-68 0 -121.5 14.5t-90.5 39.5t-56.5 59t-19.5 73q0 40 19.5 73.5t56.5 58t90.5 38t121.5 13.5t121.5 -13.5t90.5 -38t56.5 -58
t19.5 -73.5q0 -39 -19.5 -73t-56.5 -59t-90.5 -39.5t-121.5 -14.5zM451 -96q59 0 104 12t75.5 32t46 46.5t15.5 55.5t-15 55t-45.5 46t-75.5 32t-105 12t-105 -12t-75.5 -32t-45.5 -46t-15 -55t15.5 -55.5t46 -46.5t75.5 -32t104 -12zM874 439h-148v-181h-43v519h43v-111
h148v-41h-148v-145h148v-41z" />
    <glyph glyph-name="uniB108" unicode="&#xb108;" 
d="M284 128h-192v577h43v-536h157q109 0 198 12.5t143 28.5v-40q-31 -9 -72 -16.5t-87 -13t-95 -9t-95 -3.5zM728 433h-290v40h290v304h43v-906h-43v562z" />
    <glyph glyph-name="uniB109" unicode="&#xb109;" 
d="M284 324h-192v422h43v-382h157q109 0 197.5 12t142.5 28v-39q-31 -9 -71.5 -16.5t-86.5 -13t-95 -8.5t-95 -3zM728 544h-284v41h284v192h43v-527h-43v294zM771 -132h-43v282h-523v40h566v-322z" />
    <glyph glyph-name="uniB10B" unicode="&#xb10b;" 
d="M284 329h-192v417h43v-377h157q109 0 197.5 12t142.5 28v-39q-31 -9 -72 -16.5t-87 -13t-94.5 -8.5t-94.5 -3zM728 550h-284v41h284v186h43v-505h-43v278zM509 -133l-33 34q92 49 137 134t39 188h43q1 -49 -8 -98q5 -32 21.5 -65.5t40.5 -63t53 -53.5t59 -37l-33 -34
q-51 27 -92.5 77.5t-67.5 110.5q-26 -65 -68 -114.5t-91 -78.5zM414 -128v299h-244v40h287v-339h-43z" />
    <glyph glyph-name="uniB10C" unicode="&#xb10c;" 
d="M284 297h-192v440h43v-400h157q107 0 196.5 12.5t143.5 26.5v-37q-31 -9 -72 -16.5t-87 -13t-94.5 -9t-94.5 -3.5zM728 531h-278v41h278v205h43v-648h-43v402zM786 -71v-40h-547v264h43v-224h504z" />
    <glyph glyph-name="uniB110" unicode="&#xb110;" 
d="M135 746v-323h157q109 0 197.5 10.5t142.5 24.5v-37q-31 -8 -71.5 -15t-86.5 -12t-95 -8t-95 -3h-192v363h43zM728 576h-278v41h278v160h43v-448h-43v247zM792 -79v-40h-574v218h510v132h-510v40h553v-212h-510v-138h531z" />
    <glyph glyph-name="uniB112" unicode="&#xb112;" 
d="M301 -117h-117v219h225v133h-225v40h268v-213h-225v-139h100q50 0 89 5t59 13v-37q-29 -12 -73.5 -16.5t-100.5 -4.5zM135 746v-319h157q109 0 197.5 10.5t142.5 24.5v-37q-31 -8 -71.5 -15t-86.5 -12t-95 -8t-95 -3h-192v359h43zM728 578h-278v41h278v158h43v-444h-43
v245zM504 -115v390h267v-390h-267zM728 235h-181v-310h181v310z" />
    <glyph glyph-name="uniB113" unicode="&#xb113;" 
d="M294 -116h-116v218h219v133h-219v40h262v-213h-219v-138h100q49 0 87 5t59 13v-38q-29 -11 -72.5 -15.5t-100.5 -4.5zM135 746v-319h157q109 0 197.5 10.5t142.5 24.5v-37q-31 -8 -71.5 -15t-86.5 -12t-95 -8t-95 -3h-192v359h43zM728 578h-278v41h278v158h43v-444h-43
v245zM494 -115v390h43v-137h191v142h43v-395h-277zM728 98h-191v-173h191v173z" />
    <glyph glyph-name="uniB118" unicode="&#xb118;" 
d="M284 344h-192v402h43v-362h157q109 0 197.5 12.5t142.5 27.5v-38q-31 -9 -72 -16.5t-87 -13.5t-94.5 -9t-94.5 -3zM728 557h-278v41h278v179h43v-501h-43v281zM771 216v-331h-546v331h546zM728 -75v251h-460v-251h460z" />
    <glyph glyph-name="uniB119" unicode="&#xb119;" 
d="M135 746v-347h157q109 0 197.5 11t142.5 25v-38q-31 -8 -71.5 -15t-86.5 -12t-95 -8t-95 -3h-192v387h43zM728 566h-278v41h278v170h43v-462h-43v251zM771 258v-373h-546v368h43v-113h460v118h43zM268 -75h460v175h-460v-175z" />
    <glyph glyph-name="uniB11B" unicode="&#xb11b;" 
d="M140 -89q75 18 135 49.5t102 74t64.5 94t22.5 109.5h47q0 -49 -15 -92q16 -39 48 -76t74.5 -68.5t94 -54.5t106.5 -35l-23 -38q-51 13 -99.5 35.5t-90 52t-75 64.5t-55.5 74q-21 -39 -53 -74t-72 -64t-88 -51.5t-100 -36.5zM92 746h43v-378h157q109 0 197.5 12.5
t142.5 27.5v-39q-31 -9 -72 -16.5t-87 -13t-94.5 -8.5t-94.5 -3h-192v418zM728 558h-278v41h278v178h43v-593h-43v374z" />
    <glyph glyph-name="uniB11C" unicode="&#xb11c;" 
d="M492 -126q-54 31 -98 83.5t-70 112.5q-25 -63 -70.5 -112.5t-108.5 -82.5l-30 34q97 45 149.5 128.5t44.5 192.5h41q1 -26 -1 -49t-7 -46q4 -22 16 -49.5t31 -56t45 -56t59 -49.5q77 57 111 138.5t28 171.5h40q1 -51 -8 -98q4 -28 18.5 -59.5t38 -61.5t55.5 -56t72 -44
l-28 -36q-60 32 -103.5 82.5t-69.5 108.5q-24 -67 -64.5 -116t-90.5 -80zM284 341h-192v405h43v-365h157q109 0 197.5 12.5t142.5 27.5v-38q-31 -9 -72 -16.5t-87 -13.5t-94.5 -9t-94.5 -3zM728 562h-278v41h278v174h43v-495h-43v280z" />
    <glyph glyph-name="uniB11D" unicode="&#xb11d;" 
d="M483 -135q-68 0 -121.5 14t-90.5 38.5t-56.5 58.5t-19.5 73q0 40 19.5 73t56.5 57t90.5 37.5t121.5 13.5t121.5 -13.5t90.5 -37.5t56.5 -57t19.5 -73q0 -39 -19.5 -73t-56.5 -58.5t-90.5 -38.5t-121.5 -14zM483 -96q59 0 104.5 11.5t76 31t46 46t15.5 55.5t-15.5 55
t-45.5 45.5t-75.5 31t-105.5 11.5t-105 -11.5t-75 -31t-45.5 -45.5t-15.5 -55t15.5 -55.5t46 -46t75.5 -31t104 -11.5zM284 344h-192v402h43v-362h157q109 0 197.5 12.5t142.5 27.5v-38q-31 -9 -72 -16.5t-87 -13.5t-94.5 -9t-94.5 -3zM728 558h-278v41h278v178h43v-535h-43
v316z" />
    <glyph glyph-name="uniB123" unicode="&#xb123;" 
d="M135 746v-331h157q109 0 197.5 10.5t142.5 24.5v-37q-31 -8 -71.5 -15t-86.5 -12t-95 -8t-95 -3h-192v371h43zM799 150h-623v37h623v-37zM625 253h-286v37h286v-37zM487 -140q-119 0 -188 30t-69 89q0 60 67.5 90t189.5 30q123 0 190.5 -30t67.5 -90q0 -59 -69 -89
t-189 -30zM728 567h-278v41h278v169h43v-474h-43v264zM487 -104q47 0 86 5t67 15.5t43.5 26t15.5 36.5q0 42 -54.5 63.5t-157.5 21.5q-102 0 -157 -21.5t-55 -63.5q0 -21 15.5 -36.5t43.5 -26t67 -15.5t86 -5z" />
    <glyph glyph-name="uniB124" unicode="&#xb124;" 
d="M178 132h-102v571h43v-530h64q94 0 168.5 10.5t119.5 24.5v-39q-27 -8 -62 -14.5t-74 -11.5t-79.5 -8t-77.5 -3zM786 777v-906h-42v906h42zM543 464v303h42v-873h-42v529h-207v41h207z" />
    <glyph glyph-name="uniB125" unicode="&#xb125;" 
d="M182 313h-98v431h43v-391h60q92 0 164.5 10t117.5 23v-37q-27 -8 -61 -15t-71.5 -11.5t-77.5 -7t-77 -2.5zM794 777v-539h-42v539h42zM546 571v196h42v-529h-42v292h-196v41h196zM795 -132h-43v271h-540v39h583v-310z" />
    <glyph glyph-name="uniB128" unicode="&#xb128;" 
d="M186 307h-102v428h43v-388h65q92 0 167 10.5t120 23.5v-39q-26 -8 -61 -14.5t-74 -11t-79.5 -7t-78.5 -2.5zM794 777v-649h-42v649h42zM546 571v196h42v-619h-42v382h-196v41h196zM811 -72v-40h-564v273h43v-233h521z" />
    <glyph glyph-name="uniB12C" unicode="&#xb12c;" 
d="M187 367h-103v377h43v-337h65q94 0 166 8.5t121 21.5v-35q-26 -8 -60.5 -14t-73.5 -11t-79.5 -7.5t-78.5 -2.5zM794 777v-448h-42v448h42zM546 614v153h42v-438h-42v244h-196v41h196zM816 -79v-40h-588v217h524v133h-524v40h567v-213h-524v-137h545z" />
    <glyph glyph-name="uniB134" unicode="&#xb134;" 
d="M187 339h-103v405h43v-365h65q92 0 167 10.5t120 23.5v-39q-26 -8 -61 -14.5t-74 -11t-79.5 -7t-77.5 -2.5zM794 777v-513h-42v513h42zM546 590v177h42v-503h-42v285h-196v41h196zM794 206v-321h-561v321h561zM751 -75v241h-475v-241h475z" />
    <glyph glyph-name="uniB135" unicode="&#xb135;" 
d="M187 350h-103v394h43v-354h65q94 0 166 8.5t121 22.5v-40q-26 -7 -60.5 -13t-73 -10t-79 -6t-79.5 -2zM794 777v-478h-42v478h42zM546 598v169h42v-468h-42v258h-196v41h196zM794 242v-357h-561v351h43v-110h475v116h43zM276 -75h475v161h-475v-161z" />
    <glyph glyph-name="uniB137" unicode="&#xb137;" 
d="M141 -90q75 18 135 48.5t102 72t64.5 91.5t22.5 106h47q0 -49 -16 -91q16 -38 48 -73.5t75 -65.5t94 -53t106 -34l-22 -37q-53 12 -101.5 33.5t-90 50.5t-75 63t-54.5 72q-21 -38 -53 -72t-72 -62t-88 -50t-100 -35zM186 308h-102v436h43v-396h65q92 0 167 10.5t120 23.5
v-39q-26 -8 -61 -14.5t-74 -11t-79.5 -7t-78.5 -2.5zM546 582v185h42v-491h-42v265h-196v41h196zM794 777v-595h-42v595h42z" />
    <glyph glyph-name="uniB138" unicode="&#xb138;" 
d="M488 -127q-54 30 -98.5 78t-70.5 105q-25 -60 -70.5 -105.5t-108.5 -77.5l-29 35q106 48 153 122.5t40 180.5h42q1 -47 -8 -91q4 -22 16 -47.5t31 -52t45 -52t59 -46.5q71 51 108 128t31 165h40q1 -27 -1 -51.5t-7 -47.5q11 -53 57 -109.5t126 -94.5l-28 -35
q-60 31 -103.5 77t-69.5 101q-24 -63 -64.5 -108t-89.5 -74zM187 335h-103v409h43v-369h65q92 0 167 10.5t120 23.5v-40q-26 -8 -61 -14.5t-74 -11t-79.5 -6.5t-77.5 -2zM546 590v177h42v-499h-42v281h-196v41h196zM794 777v-509h-42v509h42z" />
    <glyph glyph-name="uniB139" unicode="&#xb139;" 
d="M187 339h-103v405h43v-365h65q92 0 167 10.5t120 23.5v-39q-26 -8 -61 -14.5t-74 -11t-79.5 -7t-77.5 -2.5zM494 -134q-71 0 -126 13.5t-93 37.5t-58 56.5t-20 70.5q0 39 20 71.5t58.5 55.5t93.5 36t125 13t125 -13t93.5 -36t58.5 -55.5t20 -71.5q0 -38 -20 -70.5
t-58 -56.5t-93.5 -37.5t-125.5 -13.5zM794 777v-548h-42v548h42zM546 590v177h42v-497h-42v279h-196v41h196zM494 -96q61 0 108.5 11.5t79 30.5t48 44.5t16.5 53.5t-16 53t-47.5 44t-78.5 30t-110 11q-62 0 -109 -11t-78.5 -30t-47.5 -44t-16 -53t16.5 -53.5t48 -44.5
t78.5 -30.5t108 -11.5z" />
    <glyph glyph-name="uniB140" unicode="&#xb140;" 
d="M728 -129v464h-284v39h284v182h-284v39h284v182h43v-906h-43zM284 127h-192v578h43v-537h157q109 0 198 12.5t143 28.5v-40q-31 -9 -72 -16.5t-87 -13t-95 -9t-95 -3.5z" />
    <glyph glyph-name="uniB141" unicode="&#xb141;" 
d="M284 308h-192v438h43v-398h157q109 0 197.5 12t142.5 27v-38q-31 -9 -71.5 -16.5t-86.5 -13t-95 -8.5t-95 -3zM728 246v221h-275v41h275v114h-275v41h275v114h43v-531h-43zM771 -132h-43v279h-523v39h566v-318z" />
    <glyph glyph-name="uniB144" unicode="&#xb144;" 
d="M284 276h-192v461h43v-421h157q107 0 196.5 12.5t143.5 26.5v-37q-31 -9 -72 -16.5t-87 -13.5t-94.5 -9t-94.5 -3zM786 -71v-40h-559v259h43v-219h516zM728 128v320h-274v41h274v125h-276v41h276v122h43v-649h-43z" />
    <glyph glyph-name="uniB148" unicode="&#xb148;" 
d="M135 746v-354h157q109 0 197.5 11t142.5 25v-39q-31 -8 -71.5 -14.5t-86.5 -11.5t-95 -8t-95 -3h-192v394h43zM728 316v175h-274v41h274v100h-274v41h274v104h43v-461h-43zM792 -79v-40h-574v213h510v124h-510v40h553v-204h-510v-133h531z" />
    <glyph glyph-name="uniB150" unicode="&#xb150;" 
d="M284 311h-192v435h43v-395h157q109 0 197.5 12t142.5 27v-37q-31 -9 -72 -16.5t-87 -13.5t-94.5 -9t-94.5 -3zM728 257v213h-274v41h274v118h-274v41h274v107h43v-520h-43zM771 198v-313h-546v313h546zM728 -75v233h-460v-233h460z" />
    <glyph glyph-name="uniB151" unicode="&#xb151;" 
d="M135 746v-366h157q109 0 197.5 11t142.5 25v-38q-31 -8 -71.5 -15t-86.5 -12t-95 -8t-95 -3h-192v406h43zM728 304v181h-274v41h274v106h-274v41h274v104h43v-473h-43zM771 247v-362h-546v356h43v-112h460v118h43zM268 -75h460v164h-460v-164z" />
    <glyph glyph-name="uniB154" unicode="&#xb154;" 
d="M495 -127q-53 29 -98.5 76.5t-71.5 103.5q-26 -59 -71.5 -104.5t-107.5 -76.5l-28 36q103 46 151.5 122t41.5 178h42q1 -46 -8 -90q4 -21 16 -46.5t31.5 -51.5t46 -51t58.5 -46q76 54 110 129t28 160h40q1 -50 -8 -97q5 -26 20 -54t38 -55t54.5 -51t70.5 -41l-28 -37
q-59 29 -103 74.5t-71 99.5q-24 -61 -64.5 -105.5t-88.5 -72.5zM728 258v212h-274v41h274v118h-274v41h274v107h43v-519h-43zM284 311h-192v435h43v-395h157q109 0 197.5 12t142.5 27v-37q-31 -9 -72 -16.5t-87 -13.5t-94.5 -9t-94.5 -3z" />
    <glyph glyph-name="uniB155" unicode="&#xb155;" 
d="M770 40q0 -38 -18 -70.5t-54 -56.5t-90 -37.5t-125 -13.5t-125 14t-90 38t-54 56.5t-18 70.5t18 70.5t54 56.5t90 37.5t125 13.5t125 -14t90 -38t54 -56.5t18 -70.5zM723 39q0 28 -14.5 53.5t-44.5 45t-75 31.5t-106 12q-60 0 -105.5 -12t-75.5 -31.5t-45 -45t-15 -53.5
q0 -27 15 -52.5t45 -45t75.5 -31t105.5 -11.5q61 0 106 11.5t75 31t44.5 44.5t14.5 53zM284 306h-192v440h43v-400h157q109 0 197.5 12t142.5 27v-37q-31 -9 -72 -16.5t-87 -13.5t-94.5 -9t-94.5 -3zM728 242v226h-274v41h274v120h-274v41h274v107h43v-535h-43z" />
    <glyph glyph-name="uniB158" unicode="&#xb158;" 
d="M199 -15v40h249q35 0 72.5 1t74.5 2.5t71 4.5t62 8v113h-522v40h565v-323h-43v136q-63 -14 -138 -18t-160 -4h-231zM728 252v218h-274v41h274v118h-274v41h274v107h43v-525h-43zM284 312h-192v434h43v-394h157q109 0 197.5 12t142.5 27v-37q-31 -9 -72 -16.5t-87 -13.5
t-94.5 -9t-94.5 -3z" />
    <glyph glyph-name="uniB15C" unicode="&#xb15c;" 
d="M547 -106v431h-206v39h204v173h-204v39h206v191h42v-873h-42zM178 127h-102v576h43v-535h64q94 0 168.5 10.5t119.5 24.5v-39q-27 -8 -62 -14.5t-74 -11.5t-79.5 -8t-77.5 -3zM786 777v-906h-42v906h42z" />
    <glyph glyph-name="uniB160" unicode="&#xb160;" 
d="M186 272h-102v463h43v-423h65q92 0 167 10.5t120 23.5v-38q-26 -8 -61 -15t-74 -11.5t-79.5 -7t-78.5 -2.5zM794 777v-659h-42v659h42zM549 138v300h-193v41h193v118h-193v41h193v129h42v-629h-42zM811 -71v-40h-564v259h43v-219h521z" />
    <glyph glyph-name="uniB178" unicode="&#xb178;" 
d="M755 311h-266v-260h375v-38h-838v38h415v260h-256v409h43v-369h527v-40z" />
    <glyph glyph-name="uniB179" unicode="&#xb179;" 
d="M741 483h-270v-161h404v-39h-859v39h408v161h-256v294h43v-254h530v-40zM728 -132h-43v246h-538v40h581v-286z" />
    <glyph glyph-name="uniB17C" unicode="&#xb17c;" 
d="M741 470h-270v-177h404v-40h-859v40h408v177h-256v307h43v-267h530v-40zM747 -75v-40h-584v256h43v-216h541z" />
    <glyph glyph-name="uniB180" unicode="&#xb180;" 
d="M754 -85v-40h-592v204h524v122h-524v40h567v-202h-524v-124h549zM741 530h-270v-135h404v-39h-859v39h408v135h-257v247h43v-207h531v-40z" />
    <glyph glyph-name="uniB182" unicode="&#xb182;" 
d="M477 -124v369h262v-369h-262zM741 532h-270v-135h404v-39h-859v39h408v135h-257v245h43v-205h531v-40zM696 205h-176v-289h176v289zM260 -126h-103v207h226v124h-226v40h269v-204h-226v-127h89q45 0 88.5 3.5t71.5 14.5v-38q-35 -14 -83.5 -17t-105.5 -3z" />
    <glyph glyph-name="uniB188" unicode="&#xb188;" 
d="M728 182v-297h-565v297h565zM685 -75v217h-479v-217h479zM741 501h-270v-154h404v-39h-859v39h408v154h-256v276h43v-236h530v-40z" />
    <glyph glyph-name="uniB189" unicode="&#xb189;" 
d="M728 236v-351h-565v351h43v-113h479v113h43zM206 -75h479v158h-479v-158zM741 513h-270v-149h404v-39h-859v39h408v149h-256v264h43v-224h530v-40z" />
    <glyph glyph-name="uniB18B" unicode="&#xb18b;" 
d="M741 491h-270v-173h404v-39h-859v39h408v173h-256v286h43v-246h530v-40zM103 -90q75 16 136.5 44t105.5 66.5t68 85.5t24 101h46q0 -45 -16 -86q18 -35 51.5 -68t77.5 -61t96 -49.5t107 -31.5l-24 -37q-55 12 -105 32.5t-92 48t-74.5 60.5t-53.5 71q-21 -37 -54 -70
t-74.5 -60.5t-90.5 -48t-103 -33.5z" />
    <glyph glyph-name="uniB18D" unicode="&#xb18d;" 
d="M446 -135q-69 0 -122.5 12.5t-90 35t-56 54t-19.5 68.5t19.5 68t56.5 53.5t90.5 35t121.5 12.5t121.5 -12.5t90.5 -35t56.5 -53.5t19.5 -68t-19.5 -68.5t-56 -54t-90 -35t-122.5 -12.5zM446 -95q59 0 104.5 10.5t76 28t46.5 41t16 50.5q0 54 -61.5 91.5t-181.5 37.5
t-181.5 -37.5t-61.5 -91.5q0 -27 16 -50.5t46.5 -41t76 -28t104.5 -10.5zM741 490h-270v-158h404v-39h-859v39h408v158h-256v287h43v-247h530v-40z" />
    <glyph glyph-name="uniB192" unicode="&#xb192;" 
d="M767 -75v-40h-641v40h124l-4 227h-110v39h617v-39h-103l-5 -227h122zM741 504h-270v-151h404v-39h-859v39h408v151h-256v273h43v-233h530v-40zM293 -75h308l5 227h-317z" />
    <glyph glyph-name="uniB193" unicode="&#xb193;" 
d="M451 -140q-120 0 -189.5 32t-69.5 89t68 88.5t191 31.5t191 -31.5t68 -88.5t-69.5 -89t-189.5 -32zM741 537h-270v-136h404v-37h-859v37h408v136h-257v240h43v-202h531v-38zM451 -103q48 0 87.5 6t68 17t44 26.5t15.5 34.5q0 36 -56 60t-159 24t-159 -24t-56 -60
q0 -19 15.5 -34.5t44 -26.5t68 -17t87.5 -6zM773 149h-643v37h643v-37zM615 245h-327v38h327v-38z" />
    <glyph glyph-name="uniB194" unicode="&#xb194;" 
d="M14 84v40h149h67t73 2v230h-192v355h43v-315h392v-40h-199v-228q78 3 155 9.5t144 17.5v-36q-54 -10 -115 -16.5t-123.5 -10.5t-124.5 -6t-119 -2h-150zM886 404v-40h-153v-495h-43v908h43v-373h153z" />
    <glyph glyph-name="uniB198" unicode="&#xb198;" 
d="M21 240v40h143h69t75 2v172h-184v288h43v-248h380v-40h-195v-170q78 4 155.5 11t143.5 18v-38q-54 -10 -115.5 -16.5t-125 -10.5t-126 -6t-119.5 -2h-144zM738 99h-43v678h43v-283h140v-41h-140v-354zM754 -71v-40h-573v217h43v-177h530z" />
    <glyph glyph-name="uniB19C" unicode="&#xb19c;" 
d="M759 -79v-40h-570v201h506v122h-508v40h551v-202h-506v-121h527zM21 345v40h143h69.5t75.5 2v130h-185v243h43v-204h378v-39h-191v-128q77 4 154 11t143 18v-38q-54 -10 -115.5 -16.5t-125 -10.5t-126 -6t-119.5 -2h-144zM738 302h-43v475h43v-214h142v-42h-142v-219z
" />
    <glyph glyph-name="uniB1A8" unicode="&#xb1a8;" 
d="M21 289v40h157q30 0 62.5 0.5t67.5 1.5v156h-184v273h43v-234h379v-39h-193v-154q76 4 152.5 11.5t145.5 18.5v-39q-54 -10 -113.5 -16.5t-120 -10.5t-121 -6t-117.5 -2h-158zM474 -127q-54 27 -99 73.5t-70 101.5q-25 -57 -70.5 -101t-108.5 -73l-28 34q46 20 83 48.5
t62 64.5t37 78.5t9 89.5h42q1 -23 -1 -43.5t-6 -40.5q4 -21 16.5 -46t32 -49.5t45.5 -47.5t58 -41q35 22 62 52.5t45 66t26 75t5 78.5h40q1 -47 -8 -91q5 -24 20.5 -50t39.5 -51.5t56 -48.5t70 -40l-27 -33q-59 27 -104.5 71t-71.5 96q-24 -60 -65 -103.5t-90 -69.5z
M738 242h-43v535h43v-233h140v-42h-140v-260z" />
    <glyph glyph-name="uniB1CC" unicode="&#xb1cc;" 
d="M40 84v40h183h54t58 1v231h-197v355h43v-315h398v-40h-199v-230q83 3 168 10t157 19v-36q-54 -10 -114.5 -16.5t-123 -10.5t-124.5 -6t-119 -2h-184zM795 777v-906h-41v906h41z" />
    <glyph glyph-name="uniB1D0" unicode="&#xb1d0;" 
d="M43 240v41h180h56.5t61.5 1v168h-190v292h43v-252h394v-40h-203v-166q82 4 165.5 10.5t154.5 19.5v-39q-54 -10 -114.5 -16.5t-123 -10.5t-124.5 -6t-119 -2h-181zM812 -71v-40h-583v217h43v-177h540zM795 99h-43v678h43v-678z" />
    <glyph glyph-name="uniB1D4" unicode="&#xb1d4;" 
d="M817 -79v-40h-580v201h515v122h-515v40h558v-202h-515v-121h537zM43 345v41h181h56t61 1v126h-190v247h43v-207h394v-40h-203v-124q82 4 165.5 10.5t154.5 19.5v-39q-54 -10 -114.5 -16.5t-122.5 -10.5t-124 -6t-119 -2h-182zM752 302v475h43v-475h-43z" />
    <glyph glyph-name="uniB1DC" unicode="&#xb1dc;" 
d="M795 172v-287h-561v287h561zM752 -75v207h-475v-207h475zM43 287v41h181h56t61 1v156h-190v275h43v-235h394v-40h-203v-154q82 4 165.5 11t154.5 19v-39q-54 -10 -114 -16.5t-122.5 -10.5t-124.5 -6t-119 -2h-182zM752 230v547h43v-547h-43z" />
    <glyph glyph-name="uniB1DD" unicode="&#xb1dd;" 
d="M795 218v-333h-561v328h43v-96h475v101h43zM277 -75h475v152h-475v-152zM43 310v41h181h56t61 1v151h-190v257h43v-219h394v-38h-203v-149q82 4 165.5 10.5t154.5 19.5v-39q-54 -10 -114.5 -16.5t-122.5 -10.5t-124 -6t-119 -2h-182zM752 270v507h43v-507h-43z" />
    <glyph glyph-name="uniB1DF" unicode="&#xb1df;" 
d="M43 287v41h181h56t61 1v156h-190v275h43v-237h394v-38h-203v-154q82 4 165.5 10.5t154.5 19.5v-39q-54 -10 -114.5 -16.5t-122.5 -10.5t-124 -6t-119 -2h-182zM135 -90q75 16 135 44t102 66t64.5 84t22.5 98h47q0 -45 -16 -84q16 -35 48 -68t75 -60.5t94 -48t106 -30.5
l-21 -37q-53 11 -102 31t-91 46.5t-75 58.5t-54 67q-43 -71 -125.5 -125t-188.5 -78zM795 175h-43v602h43v-602z" />
    <glyph glyph-name="uniB1E8" unicode="&#xb1e8;" 
d="M761 313h-151v-263h254v-38h-838v38h290v263h-133v407h43v-367h535v-40zM564 50v263h-202v-263h202z" />
    <glyph glyph-name="uniB1E9" unicode="&#xb1e9;" 
d="M741 484h-134v-164h268v-39h-859v39h275v164h-123v293h43v-254h530v-39zM563 320v164h-228v-164h228zM728 -132h-43v245h-538v40h581v-285z" />
    <glyph glyph-name="uniB1EC" unicode="&#xb1ec;" 
d="M741 471h-134v-181h268v-39h-859v39h275v181h-123v306h43v-267h530v-39zM563 290v181h-228v-181h228zM747 -75v-40h-584v255h43v-215h541z" />
    <glyph glyph-name="uniB1F0" unicode="&#xb1f0;" 
d="M741 531h-139v-140h273v-37h-859v37h275v140h-124v246h43v-209h531v-37zM754 -85v-40h-592v204h524v122h-524v40h567v-202h-524v-124h549zM557 391v140h-222v-140h222z" />
    <glyph glyph-name="uniB1F9" unicode="&#xb1f9;" 
d="M728 236v-351h-565v351h43v-113h479v113h43zM741 514h-139v-150h273v-39h-859v39h275v150h-123v263h43v-224h530v-39zM206 -75h479v158h-479v-158zM557 364v150h-222v-150h222z" />
    <glyph glyph-name="uniB1FB" unicode="&#xb1fb;" 
d="M741 492h-139v-176h273v-39h-859v39h275v176h-123v285h43v-246h530v-39zM558 316v176h-223v-176h223zM103 -90q75 16 136.5 44t105.5 66.5t68 85.5t24 101h46q0 -42 -16 -85q18 -35 51 -68.5t77.5 -61.5t96.5 -49.5t107 -31.5l-20 -38q-53 12 -103 32.5t-93 47.5t-78 60
t-57 69q-22 -36 -55.5 -68.5t-75.5 -59.5t-91 -47.5t-102 -33.5z" />
    <glyph glyph-name="uniB1FD" unicode="&#xb1fd;" 
d="M446 -135q-69 0 -122.5 12.5t-91 35t-57 54t-19.5 68.5t19.5 68t57 53.5t91.5 35t122 12.5t122 -12.5t91.5 -35t57 -53.5t19.5 -68t-19.5 -68.5t-57 -54t-91 -35t-122.5 -12.5zM741 490h-139v-160h273v-39h-859v39h275v160h-123v287h43v-248h530v-39zM446 -95
q59 0 104.5 10.5t76 28t46.5 41t16 50.5q0 54 -61.5 91.5t-181.5 37.5t-181.5 -37.5t-61.5 -91.5q0 -27 16 -50.5t46.5 -41t76 -28t104.5 -10.5zM558 330v160h-223v-160h223z" />
    <glyph glyph-name="uniB204" unicode="&#xb204;" 
d="M754 414h-572v336h43v-296h529v-40zM26 211v40h838v-40h-390v-335h-45v335h-403z" />
    <glyph glyph-name="uniB205" unicode="&#xb205;" 
d="M728 -132h-43v246h-538v40h277v161h-408v39h859v-39h-404v-161h257v-286zM741 483h-573v294h43v-254h530v-40z" />
    <glyph glyph-name="uniB208" unicode="&#xb208;" 
d="M738 470h-570v307h43v-267h527v-40zM488 290v-202h-47v202h-425v41h859v-41h-387zM747 -75v-40h-584v256h43v-216h541z" />
    <glyph glyph-name="uniB20B" unicode="&#xb20b;" 
d="M748 -115h-585v290h261v150h-408v39h859v-39h-404v-150h259v-40h-524v-210h542v-40zM738 501h-570v276h43v-236h527v-40z" />
    <glyph glyph-name="uniB20C" unicode="&#xb20c;" 
d="M754 -85v-40h-592v204h524v122h-524v40h262v139h-408v38h859v-38h-404v-139h258v-202h-524v-124h549zM738 533h-570v244h43v-205h527v-39z" />
    <glyph glyph-name="uniB214" unicode="&#xb214;" 
d="M728 179v-294h-565v294h261v146h-408v39h859v-39h-404v-146h257zM685 -75v214h-479v-214h479zM738 501h-570v276h43v-236h527v-40z" />
    <glyph glyph-name="uniB215" unicode="&#xb215;" 
d="M738 515h-570v262h43v-222h527v-40zM467 351v-139h-47v139h-404v39h859v-39h-408zM728 236v-351h-565v351h43v-118h479v118h43zM206 -75h479v154h-479v-154z" />
    <glyph glyph-name="uniB217" unicode="&#xb217;" 
d="M472 347v-120h-47v120h-409v39h859v-39h-403zM101 -90q75 15 136.5 41.5t105.5 62.5t68 80t24 95h46q0 -41 -17 -83q16 -34 49.5 -65t78.5 -56.5t97.5 -44.5t107.5 -29l-20 -37q-53 11 -103 30t-94 44t-79.5 55t-57.5 64q-44 -68 -129 -119t-191 -74zM738 511h-570v266
h43v-226h527v-40z" />
    <glyph glyph-name="uniB219" unicode="&#xb219;" 
d="M474 332v-134q125 -5 193.5 -49.5t68.5 -115.5q0 -37 -19.5 -68t-57 -53t-91 -34.5t-122.5 -12.5t-122.5 12.5t-91 34.5t-57 53t-19.5 68q0 72 71 117t200 49v133h-411v39h859v-39h-401zM446 -97q59 0 104.5 10.5t76 28t46.5 41t16 50.5q0 54 -61.5 91.5t-181.5 37.5
t-181.5 -37.5t-61.5 -91.5q0 -27 16 -50.5t46.5 -41t76 -28t104.5 -10.5zM738 499h-570v278h43v-238h527v-40z" />
    <glyph glyph-name="uniB220" unicode="&#xb220;" 
d="M795 777v-906h-43v191h-225v42h225v673h43zM203 232h-160v42h159q54 0 116.5 1.5t127 5t126.5 10t116 15.5v-39q-83 -14 -165 -21.5t-164 -10.5v-344h-45v342q-28 -1 -55.5 -1h-55.5zM576 422h-429v304h43v-262h386v-42z" />
    <glyph glyph-name="uniB234" unicode="&#xb234;" 
d="M505 -128q-54 25 -99.5 66.5t-69.5 91.5q-26 -51 -72 -90t-109 -68l-27 35q46 18 83 43.5t62.5 57.5t37.5 70t9 82h42q1 -20 -1 -39.5t-6 -37.5q4 -19 16.5 -41.5t32 -44.5t45.5 -42t58 -35q34 19 60.5 46t44.5 59t26.5 67.5t5.5 71.5h40q1 -43 -8 -84q12 -45 59.5 -91.5
t122.5 -76.5l-27 -35q-59 26 -102 65.5t-69 86.5q-23 -54 -64 -93t-91 -64zM203 391h-159v39h158q54 0 116.5 1.5t126.5 5t126.5 9.5t116.5 15v-35q-76 -14 -157 -21t-166 -11v-193h-46v191q-29 -1 -58 -1h-58zM795 213h-43v74h-221v36h221v454h43v-564zM562 535h-411v225
h43v-186h368v-39z" />
    <glyph glyph-name="uniB23C" unicode="&#xb23c;" 
d="M576 98h-157v37h157v632h42v-881h-42v212zM753 -129v906h42v-906h-42zM20 244v40h151q83 0 173.5 5t175.5 20v-37q-68 -13 -129.5 -19t-124.5 -8v-348h-41v347q-49 -1 -99 -0.5t-106 0.5zM445 428h-338v295h43v-252h295v-43z" />
    <glyph glyph-name="uniB258" unicode="&#xb258;" 
d="M43 221v40h174q53 0 115 1.5t125.5 5.5t125 10t115.5 15v-38q-73 -14 -156.5 -21t-168.5 -10v-333h-46v331q-29 -1 -56 -1h-53h-175zM795 777v-906h-43v906h43zM579 417h-429v309h43v-269h386v-40z" />
    <glyph glyph-name="uniB25C" unicode="&#xb25c;" 
d="M42 315v41h169q54 0 117 1.5t127.5 5.5t127.5 10.5t117 15.5v-39q-69 -13 -148 -20t-159 -11v-195h-46v193q-35 -2 -69 -2h-66h-170zM812 -71v-40h-607v213h43v-173h564zM795 93h-43v684h43v-684zM572 475h-412v276h43v-235h369v-41z" />
    <glyph glyph-name="uniB260" unicode="&#xb260;" 
d="M817 -79v-40h-585v205h520v120h-520v40h563v-200h-520v-125h542zM42 401v39h169q54 0 117 2t127.5 5.5t127.5 10t117 15.5v-37q-75 -14 -162 -21.5t-175 -10.5v-120h-46v118q-27 -1 -53.5 -1h-51.5h-170zM572 545h-412v215h43v-174h369v-41zM796 294h-43v483h43v-483z
" />
    <glyph glyph-name="uniB268" unicode="&#xb268;" 
d="M795 152v-267h-561v267h561zM752 -75v187h-475v-187h475zM42 344v41h186q54 0 114.5 2t121.5 5.5t121.5 9.5t114.5 15v-38q-78 -14 -164 -22t-173 -11v-147h-46v146q-23 -1 -44.5 -1h-43.5h-187zM572 507h-412v253h43v-211h369v-42zM795 211h-43v566h43v-566z" />
    <glyph glyph-name="uniB269" unicode="&#xb269;" 
d="M795 206v-321h-561v315h43v-87h475v93h43zM277 -75h475v148h-475v-148zM42 359v40h186q54 0 114.5 1.5t121.5 5.5t121.5 10.5t114.5 15.5v-38q-78 -14 -164 -22t-173 -11v-123h-46v122q-23 -1 -44.5 -1h-43.5h-187zM572 518h-412v242h43v-201h369v-41zM795 258h-43v519
h43v-519z" />
    <glyph glyph-name="uniB274" unicode="&#xb274;" 
d="M864 212h-226v-334h-44v334h-270v-334h-45v334h-253v40h838v-40zM754 414h-572v336h43v-296h529v-40z" />
    <glyph glyph-name="uniB275" unicode="&#xb275;" 
d="M728 -132h-43v247h-538v39h125v164h-256v38h859v-38h-253v-164h106v-286zM577 318h-260v-164h260v164zM741 483h-573v294h43v-254h530v-40z" />
    <glyph glyph-name="uniB27C" unicode="&#xb27c;" 
d="M754 -85v-40h-592v204h524v122h-527v40h113v144h-256v35h859v-35h-253v-144h107v-202h-524v-124h549zM577 385h-261v-144h261v144zM737 533h-569v244h43v-204h526v-40z" />
    <glyph glyph-name="uniB284" unicode="&#xb284;" 
d="M728 179v-294h-565v294h109v148h-256v39h859v-39h-253v-148h106zM685 -75v214h-479v-214h479zM577 327h-260v-148h260v148zM738 501h-570v276h43v-236h527v-40z" />
    <glyph glyph-name="uniB285" unicode="&#xb285;" 
d="M738 515h-570v262h43v-222h527v-40zM606 354v-151h-44v151h-233v-151h-44v151h-269v38h859v-38h-269zM728 236v-351h-565v351h43v-121h479v121h43zM206 -75h479v150h-479v-150z" />
    <glyph glyph-name="uniB289" unicode="&#xb289;" 
d="M628 335v-167q53 -21 81.5 -55.5t28.5 -79.5q0 -37 -20 -68t-57.5 -53t-91.5 -34.5t-123 -12.5t-123 12.5t-91.5 34.5t-57.5 53t-20 68q0 45 29 79.5t83 55.5v167h-250v38h859v-38h-247zM446 -97q59 0 104.5 10.5t77 28t47.5 41t16 50.5t-16 50.5t-47 41t-76.5 27.5
t-105.5 10t-105.5 -10t-76.5 -27.5t-47 -41t-16 -50.5t16 -50.5t47.5 -41t77 -28t104.5 -10.5zM446 197q77 0 137 -15v153h-272v-153q58 15 135 15zM738 499h-570v278h43v-238h527v-40z" />
    <glyph glyph-name="uniB290" unicode="&#xb290;" 
d="M754 309h-569v410h43v-370h526v-40zM26 55h838v-39h-838v39z" />
    <glyph glyph-name="uniB291" unicode="&#xb291;" 
d="M741 485h-573v292h43v-252h530v-40zM16 348h859v-40h-859v40zM728 -132h-43v251h-538v40h581v-291z" />
    <glyph glyph-name="uniB294" unicode="&#xb294;" 
d="M741 469h-573v308h43v-266h530v-42zM16 310h859v-41h-859v41zM747 -75v-40h-584v275h43v-235h541z" />
    <glyph glyph-name="uniB298" unicode="&#xb298;" 
d="M741 518h-574v259h43v-218h531v-41zM16 410h859v-41h-859v41zM754 -85v-40h-592v208h524v126h-524v40h567v-206h-524v-128h549z" />
    <glyph glyph-name="uniB299" unicode="&#xb299;" 
d="M741 522h-574v255h43v-216h531v-39zM16 413h859v-39h-859v39zM308 -125h-162v210h246v128h-246v40h290v-205h-247v-133h153q46 0 83.5 4t66.5 16v-37q-35 -14 -79.5 -18.5t-104.5 -4.5zM737 -132h-43v345h-222v40h265v-385z" />
    <glyph glyph-name="uniB29A" unicode="&#xb29a;" 
d="M741 522h-574v255h43v-216h531v-39zM16 413h859v-39h-859v39zM477 -124v377h262v-377h-262zM696 213h-176v-297h176v297zM261 -126h-104v211h226v128h-226v40h269v-208h-226v-131h90q45 0 88 5t71 16v-38q-35 -14 -83 -18.5t-105 -4.5z" />
    <glyph glyph-name="uniB2A0" unicode="&#xb2a0;" 
d="M741 501h-573v276h43v-236h530v-40zM16 366h859v-40h-859v40zM728 186v-301h-565v301h565zM685 -75v221h-479v-221h479z" />
    <glyph glyph-name="uniB2A1" unicode="&#xb2a1;" 
d="M741 513h-573v264h43v-224h530v-40zM16 379h859v-40h-859v40zM728 244v-359h-565v359h43v-118h479v118h43zM206 -75h479v161h-479v-161z" />
    <glyph glyph-name="uniB2A3" unicode="&#xb2a3;" 
d="M103 -90q75 16 136.5 44t105.5 66.5t68 85.5t24 101h46q0 -42 -16 -85q18 -35 51 -68.5t77.5 -61.5t96.5 -49.5t107 -31.5l-23 -37q-53 12 -103 32t-92.5 47t-77 59t-57.5 68q-22 -36 -55 -68t-74.5 -58.5t-90 -46.5t-100.5 -33zM16 344h859v-40h-859v40zM741 491h-573
v286h43v-246h530v-40z" />
    <glyph glyph-name="uniB2A5" unicode="&#xb2a5;" 
d="M446 -135q-69 0 -122.5 12.5t-91 35t-57 54t-19.5 68.5t19.5 68t57 53.5t91.5 35t122 12.5t122 -12.5t91.5 -35t57 -53.5t19.5 -68t-19.5 -68.5t-57 -54t-91 -35t-122.5 -12.5zM446 -95q59 0 104.5 10.5t76 28t46.5 41t16 50.5q0 54 -61.5 91.5t-181.5 37.5t-181.5 -37.5
t-61.5 -91.5q0 -27 16 -50.5t46.5 -41t76 -28t104.5 -10.5zM741 490h-573v287h43v-247h530v-40zM16 355h859v-40h-859v40z" />
    <glyph glyph-name="uniB2A6" unicode="&#xb2a6;" 
d="M174 208h307h57.5t55 0.5t56 1t60.5 1.5q10 0 5 -15q-24 -51 -78.5 -97t-128.5 -87q65 -29 141 -54.5t157 -42.5l-26 -40q-39 9 -80 22t-82 28.5t-80 32.5t-72 33q-77 -38 -162 -68t-170 -51l-25 41q93 18 178 47t155.5 63.5t123.5 73t82 75.5q-70 -4 -138.5 -4h-125.5
h-210v40zM16 375h859v-40h-859v40zM741 493h-573v284h43v-244h530v-40z" />
    <glyph glyph-name="uniB2AA" unicode="&#xb2aa;" 
d="M741 501h-573v276h43v-236h530v-40zM16 374h859v-40h-859v40zM767 -75v-40h-641v40h124l-4 237h-110v39h617v-39h-103l-5 -237h122zM293 -75h308l6 237h-318z" />
    <glyph glyph-name="uniB2AC" unicode="&#xb2ac;" 
d="M573 346h-427v362h43v-322h384v-40zM795 777v-906h-44v906h44zM41 89v42h183q53 0 115 1.5t126 5.5t126 10t116 15v-39q-54 -9 -114.5 -16t-123 -11t-125 -6t-119.5 -2h-184z" />
    <glyph glyph-name="uniB2B0" unicode="&#xb2b0;" 
d="M586 452h-428v299h43v-259h385v-40zM794 107h-44v670h44v-670zM37 266v42h201q54 0 113.5 2t120 6.5t120.5 11t114 16.5v-40q-53 -10 -112 -17t-119.5 -11.5t-120.5 -7t-115 -2.5h-202zM811 -71v-40h-588v254h43v-214h545z" />
    <glyph glyph-name="uniB2B4" unicode="&#xb2b4;" 
d="M588 517h-430v243h43v-203h387v-40zM751 301v476h44v-476h-44zM38 367v39h186q54 0 115.5 2t125.5 6.5t126 11t116 15.5v-36q-53 -10 -114.5 -17.5t-124.5 -12t-125.5 -6.5t-117.5 -2h-187zM817 -79v-40h-585v208h520v124h-520v40h563v-204h-520v-128h542z" />
    <glyph glyph-name="uniB2C8" unicode="&#xb2c8;" 
d="M311 139h-222v566h43v-525h187q54 0 104.5 3.5t95 9.5t81.5 13t64 15v-41q-31 -9 -72.5 -16.5t-88.5 -13t-96.5 -8.5t-95.5 -3zM729 -129v906h44v-906h-44z" />
    <glyph glyph-name="uniB2C9" unicode="&#xb2c9;" 
d="M297 340h-207v406h43v-366h177q106 0 198 12.5t156 30.5v-39q-34 -10 -77.5 -18t-92 -14t-99 -9t-98.5 -3zM728 232v545h43v-545h-43zM771 -132h-43v264h-523v40h566v-304z" />
    <glyph glyph-name="uniB2CC" unicode="&#xb2cc;" 
d="M297 320h-207v417h43v-377h177q106 0 198 12t156 31v-40q-34 -10 -77.5 -18t-92 -13.5t-99 -8.5t-98.5 -3zM728 128v649h43v-649h-43zM786 -71v-40h-547v270h43v-230h504z" />
    <glyph glyph-name="uniB2D0" unicode="&#xb2d0;" 
d="M133 746v-302h178q108 0 199 10.5t154 27.5v-37q-34 -10 -77.5 -17.5t-91.5 -13t-98.5 -8t-98.5 -2.5h-208v342h43zM728 337v440h43v-440h-43zM792 -79v-40h-574v224h510v134h-510v40h553v-214h-510v-144h531z" />
    <glyph glyph-name="uniB2D2" unicode="&#xb2d2;" 
d="M133 750v-300h178q108 0 199 10.5t154 27.5v-37q-34 -10 -77.5 -17.5t-91.5 -13t-98.5 -8t-98.5 -2.5h-208v340h43zM728 343v438h43v-438h-43zM504 -115v398h267v-398h-267zM728 243h-181v-318h181v318zM292 -117h-108v221h225v139h-225v40h268v-219h-225v-141h97
q45 0 84 5t67 16v-38q-35 -14 -80.5 -18.5t-102.5 -4.5z" />
    <glyph glyph-name="uniB2D8" unicode="&#xb2d8;" 
d="M297 373h-207v373h43v-333h177q106 0 198 12.5t156 31.5v-40q-34 -10 -77.5 -18t-92 -14t-99 -9t-98.5 -3zM728 277v500h43v-500h-43zM771 219v-334h-546v334h546zM728 -75v254h-460v-254h460z" />
    <glyph glyph-name="uniB2D9" unicode="&#xb2d9;" 
d="M133 746v-322h177q108 0 199.5 11t154.5 28v-39q-34 -9 -77.5 -16.5t-92 -13t-99 -8t-98.5 -2.5h-207v362h43zM728 323v454h43v-454h-43zM771 265v-380h-546v375h43v-120h460v125h43zM268 -75h460v175h-460v-175z" />
    <glyph glyph-name="uniB2DB" unicode="&#xb2db;" 
d="M297 343h-207v403h43v-363h177q106 0 198 12t156 31v-39q-34 -10 -77.5 -18t-92 -14t-99 -9t-98.5 -3zM135 -89q75 18 135 49.5t102 74t64.5 94t22.5 109.5h47q0 -49 -15 -92q16 -39 48 -76t74.5 -68.5t94 -54.5t106.5 -35l-22 -38q-53 13 -101.5 35.5t-90 52t-75 65
t-54.5 74.5q-42 -78 -124 -138.5t-188 -88.5zM728 184v593h43v-593h-43z" />
    <glyph glyph-name="uniB2DD" unicode="&#xb2dd;" 
d="M480 -135q-68 0 -121.5 14t-90.5 38.5t-56.5 58t-19.5 72.5q0 40 19.5 73t56.5 57t90.5 37t121.5 13t121.5 -13t90.5 -37t56.5 -57t19.5 -73q0 -39 -19.5 -72.5t-56.5 -58t-90.5 -38.5t-121.5 -14zM480 -94q59 0 104.5 11t76 30t46 45t15.5 55t-15.5 54.5t-45.5 44.5
t-75.5 30t-105.5 11t-105 -11t-75 -30t-45.5 -44.5t-15.5 -54.5t15.5 -55t46 -45t75.5 -30t104 -11zM297 360h-207v386h43v-346h177q106 0 198 12.5t156 30.5v-39q-34 -10 -77.5 -18t-92 -14t-99 -9t-98.5 -3zM728 260v517h43v-517h-43z" />
    <glyph glyph-name="uniB2E2" unicode="&#xb2e2;" 
d="M795 -75v-40h-614v40h127l-4 251h-113v40h590v-40h-114l-5 -251h133zM350 -75h271l5 251h-280zM133 746v-344h177q108 0 199.5 11t154.5 28v-39q-34 -9 -77.5 -16.5t-92 -13t-99 -8t-98.5 -2.5h-207v384h43zM728 274v503h43v-503h-43z" />
    </font>
</defs>
</svg>
