<svg width="11" height="9" viewBox="0 0 11 9" fill="none" xmlns="http://www.w3.org/2000/svg">
<g clip-path="url(#clip0_175_6389)">
<path d="M10.8023 0.901134C10.8023 1.14013 10.7073 1.36934 10.5383 1.53833L4.23833 7.83833C4.15473 7.92215 4.05542 7.98864 3.94607 8.03401C3.83673 8.07939 3.71952 8.10274 3.60113 8.10274C3.48275 8.10274 3.36553 8.07939 3.25619 8.03401C3.14685 7.98864 3.04754 7.92215 2.96393 7.83833L0.263937 5.13833C0.094941 4.96934 0 4.74013 0 4.50113C0 4.26214 0.094941 4.03293 0.263937 3.86393C0.432933 3.69494 0.662141 3.6 0.901137 3.6C1.14013 3.6 1.36934 3.69494 1.53833 3.86393L3.60113 5.92853L9.26393 0.263934C9.43293 0.094941 9.66214 0 9.90113 0C10.1401 0 10.3693 0.094941 10.5383 0.263934C10.7073 0.432934 10.8023 0.662144 10.8023 0.901134Z" fill="white"/>
</g>
<defs>
<clipPath id="clip0_175_6389">
<rect width="11" height="9" fill="white"/>
</clipPath>
</defs>
</svg>
