<svg width="17" height="16" viewBox="0 0 17 16" fill="none" xmlns="http://www.w3.org/2000/svg">
<g clip-path="url(#clip0_7921_49)">
<g clip-path="url(#clip1_7921_49)">
<path fill-rule="evenodd" clip-rule="evenodd" d="M3.46137 8.47132C3.20103 8.21097 3.20103 7.78886 3.46137 7.52851L8.12803 2.86185C8.38838 2.6015 8.81049 2.6015 9.07083 2.86185C9.33118 3.1222 9.33118 3.54431 9.07083 3.80466L4.87558 7.99992L9.07083 12.1952C9.33118 12.4555 9.33118 12.8776 9.07083 13.138C8.81049 13.3983 8.38838 13.3983 8.12803 13.138L3.46137 8.47132Z" fill="#333333"/>
<path fill-rule="evenodd" clip-rule="evenodd" d="M7.46137 8.47132C7.20103 8.21097 7.20103 7.78886 7.46137 7.52851L12.128 2.86185C12.3884 2.6015 12.8105 2.6015 13.0708 2.86185C13.3312 3.1222 13.3312 3.54431 13.0708 3.80466L8.87558 7.99992L13.0708 12.1952C13.3312 12.4555 13.3312 12.8776 13.0708 13.138C12.8105 13.3983 12.3884 13.3983 12.128 13.138L7.46137 8.47132Z" fill="#1A1A1A"/>
</g>
</g>
<defs>
<clipPath id="clip0_7921_49">
<rect width="16" height="16" fill="white" transform="translate(0.266113)"/>
</clipPath>
<clipPath id="clip1_7921_49">
<rect width="10" height="10.6667" fill="white" transform="translate(3.26611 2.66656)"/>
</clipPath>
</defs>
</svg>
