<svg width="12" height="14" viewBox="0 0 12 14" fill="none" xmlns="http://www.w3.org/2000/svg">
<path fill-rule="evenodd" clip-rule="evenodd" d="M11.1784 4.33714L10.8052 3.66286C10.4894 3.09231 9.78959 2.89548 9.24076 3.22286C8.97952 3.38307 8.66779 3.42852 8.37431 3.34919C8.08084 3.26987 7.82973 3.07228 7.67635 2.8C7.57768 2.62693 7.52466 2.42981 7.52266 2.22857C7.53156 1.90593 7.41463 1.59327 7.19851 1.36183C6.98239 1.13039 6.68548 0.999867 6.37542 1H5.6234C5.31964 0.999996 5.0284 1.126 4.81412 1.35014C4.59984 1.57428 4.4802 1.87807 4.48166 2.19429C4.47265 2.84717 3.96165 3.3715 3.33442 3.37143C3.14111 3.36934 2.95175 3.31415 2.7855 3.21143C2.23668 2.88406 1.53687 3.08088 1.22109 3.65143L0.820382 4.33714C0.504983 4.90698 0.691481 5.63503 1.23756 5.96571C1.59252 6.17905 1.81118 6.57332 1.81118 7C1.81118 7.42668 1.59252 7.82095 1.23756 8.03429C0.692174 8.36274 0.505473 9.08903 0.820382 9.65714L1.19913 10.3371C1.34709 10.6151 1.59534 10.8202 1.88894 10.907C2.18254 10.9939 2.4973 10.9554 2.76355 10.8C3.02529 10.641 3.33719 10.5975 3.62993 10.679C3.92267 10.7606 4.17199 10.9605 4.32247 11.2343C4.42114 11.4074 4.47416 11.6045 4.47617 11.8057C4.47617 12.4653 4.9898 13 5.6234 13H6.37542C7.00688 13 7.51963 12.4688 7.52266 11.8114C7.52119 11.4942 7.64158 11.1896 7.85705 10.9653C8.07252 10.741 8.36518 10.6156 8.66989 10.6171C8.86274 10.6225 9.05132 10.6775 9.21881 10.7771C9.76619 11.1055 10.4656 10.9113 10.7832 10.3429L11.1784 9.65714C11.3314 9.3838 11.3734 9.05824 11.2951 8.75257C11.2168 8.44689 11.0247 8.18633 10.7613 8.02857C10.4979 7.87082 10.3057 7.61025 10.2274 7.30458C10.1491 6.99891 10.1911 6.67335 10.3441 6.4C10.4436 6.21919 10.5876 6.06928 10.7613 5.96571C11.3041 5.63521 11.4901 4.91141 11.1784 4.34286V4.33714Z" fill="#B3B3B3"/>
<path fill-rule="evenodd" clip-rule="evenodd" d="M6.37483 0.332031C6.87402 0.331898 7.34601 0.542327 7.68517 0.90553C8.01975 1.26383 8.19815 1.74095 8.18886 2.22935C8.19114 2.31513 8.21445 2.39753 8.25491 2.46851L8.25661 2.47151C8.32501 2.59292 8.4321 2.67308 8.54768 2.70432C8.66244 2.73534 8.78536 2.71843 8.89165 2.65324C8.89398 2.65182 8.89631 2.65041 8.89865 2.64901C9.78232 2.1219 10.8962 2.45037 11.3878 3.33868C11.3879 3.33869 11.3878 3.33867 11.3878 3.33868L11.7611 4.01297C11.7733 4.035 11.7842 4.05764 11.7938 4.08077C12.227 4.94234 11.9452 6.02372 11.1074 6.53383C11.1056 6.5349 11.1039 6.53596 11.1021 6.53702C11.0324 6.5786 10.9712 6.64085 10.9276 6.72007L10.9253 6.72428C10.8566 6.84703 10.8365 6.99664 10.8726 7.13784C10.9087 7.27862 10.9951 7.39058 11.1032 7.45533C11.5219 7.7061 11.8198 8.11526 11.9403 8.58583C12.0608 9.05597 11.9969 9.55748 11.7596 9.98142C11.7582 9.98387 11.7568 9.98631 11.7554 9.98875L11.3622 10.6711C10.8665 11.5527 9.7562 11.875 8.87659 11.3483C8.80829 11.3078 8.73354 11.2859 8.65841 11.2825C8.54303 11.284 8.4272 11.3321 8.33724 11.4258C8.24442 11.5224 8.18804 11.6592 8.18872 11.807C8.18873 11.8091 8.18873 11.8111 8.18872 11.8132C8.18413 12.8122 7.39811 13.6654 6.37482 13.6654H5.62281C4.5975 13.6654 3.81117 12.8091 3.80891 11.8087C3.80764 11.7206 3.78419 11.6359 3.74272 11.5632C3.741 11.5601 3.7393 11.5571 3.73762 11.5541C3.67081 11.4325 3.56496 11.3518 3.45043 11.3199C3.33674 11.2882 3.21471 11.3043 3.10906 11.3685C3.10571 11.3705 3.10235 11.3725 3.09896 11.3745C2.67513 11.6218 2.17048 11.6844 1.69921 11.545C1.23105 11.4065 0.843109 11.083 0.613379 10.6553L0.237372 9.98024L0.236708 9.97905C-0.246361 9.10756 0.0300292 7.98162 0.893027 7.46189L0.89354 7.46158C1.04061 7.37319 1.14392 7.20006 1.14392 6.9987C1.14392 6.79733 1.04061 6.62421 0.89354 6.53582L0.891637 6.53467C0.0291663 6.01239 -0.246525 4.8857 0.236507 4.013C0.239017 4.00846 0.24158 4.00396 0.244195 3.99948L0.641403 3.31976C1.13519 2.4371 2.24524 2.11195 3.12643 2.63758C3.12941 2.63936 3.13237 2.64116 3.13532 2.64298C3.19846 2.68199 3.26806 2.70206 3.3375 2.70344C3.57328 2.70141 3.80793 2.49742 3.81438 2.1882C3.81415 1.70589 3.99724 1.23794 4.33164 0.888155C4.66874 0.535545 5.1328 0.332028 5.62281 0.332031M6.37483 0.332031C6.37479 0.332031 6.37475 0.332031 6.37471 0.332031ZM6.37471 0.332031C6.37465 0.332031 6.37459 0.332031 6.37454 0.332031ZM6.37454 0.332031L5.62281 0.332031ZM6.71066 1.81553C6.61764 1.71592 6.49593 1.66531 6.37511 1.66536L5.62281 1.66536C5.50529 1.66536 5.38687 1.71386 5.29541 1.80953C5.20307 1.90611 5.14704 2.04256 5.14772 2.18991C5.14774 2.194 5.14772 2.19809 5.14767 2.20218C5.13398 3.19467 4.3501 4.0369 3.33376 4.03679C3.33218 4.03679 3.33061 4.03679 3.32903 4.03678C3.32823 4.03677 3.32742 4.03676 3.32662 4.03675C3.01291 4.03336 2.70729 3.94435 2.44039 3.7809C2.22678 3.65566 1.94303 3.72138 1.80378 3.97296C1.80127 3.9775 1.79871 3.98201 1.79609 3.98648L1.40005 4.6642C1.25678 4.92994 1.35401 5.25544 1.58168 5.39378C2.14375 5.73223 2.47726 6.3472 2.47726 6.9987C2.47726 7.65049 2.14345 8.26573 1.5809 8.60408C1.35326 8.74118 1.25623 9.06752 1.40262 9.33219C1.40271 9.33234 1.40279 9.33249 1.40287 9.33264L1.78096 10.0114C1.78301 10.0151 1.78503 10.0188 1.78701 10.0226C1.85362 10.1477 1.96069 10.2319 2.07749 10.2664C2.19219 10.3004 2.31564 10.2866 2.4235 10.2249C2.84 9.97436 3.33896 9.90475 3.80825 10.0355C4.27753 10.1662 4.66919 10.4836 4.90363 10.9074C5.05745 11.179 5.1391 11.486 5.14221 11.7978C5.14223 11.8 5.14224 11.8022 5.14224 11.8044C5.14224 12.1213 5.3824 12.332 5.62281 12.332H6.37483C6.61391 12.332 6.85283 12.1237 6.85539 11.8093C6.85415 11.3241 7.03847 10.8531 7.37568 10.5021C7.7147 10.1492 8.18108 9.94672 8.67264 9.94918C8.67772 9.94921 8.68279 9.94929 8.68786 9.94943C8.99558 9.95801 9.29495 10.0457 9.55911 10.2029L9.56114 10.2041C9.77466 10.3322 10.0601 10.268 10.2007 10.0164C10.2021 10.0138 10.2036 10.0112 10.205 10.0087L10.5977 9.3273C10.6651 9.20511 10.6846 9.05677 10.6487 8.9167C10.6126 8.77592 10.5262 8.66396 10.4181 8.59921C9.99942 8.34844 9.70156 7.93928 9.58101 7.46871C9.46079 6.99937 9.52426 6.49877 9.76053 6.07528C9.91522 5.79497 10.1404 5.55894 10.4158 5.39389C10.6428 5.25421 10.7389 4.92774 10.5933 4.66203C10.5839 4.64503 10.5754 4.62766 10.5676 4.60999L10.2213 3.98443C10.0819 3.7326 9.79773 3.66696 9.58405 3.79271C9.16877 4.04565 8.67019 4.11862 8.19976 3.99146C7.72895 3.8642 7.3342 3.54978 7.09576 3.12741C6.9408 2.85502 6.85855 2.54692 6.85543 2.23392C6.85535 2.22557 6.85542 2.21723 6.85565 2.20888C6.85982 2.05767 6.80459 1.91613 6.71066 1.81553Z" fill="#B3B3B3"/>
<path d="M8 7C8 8.10457 7.10457 9 6 9C4.89543 9 4 8.10457 4 7C4 5.89543 4.89543 5 6 5C7.10457 5 8 5.89543 8 7Z" fill="#B3B3B3"/>
<path fill-rule="evenodd" clip-rule="evenodd" d="M9 7C9 8.65685 7.65685 10 6 10C4.34315 10 3 8.65685 3 7C3 5.34315 4.34315 4 6 4C7.65685 4 9 5.34315 9 7ZM6 9C7.10457 9 8 8.10457 8 7C8 5.89543 7.10457 5 6 5C4.89543 5 4 5.89543 4 7C4 8.10457 4.89543 9 6 9Z" fill="white"/>
</svg>
