<svg width="24" height="24" viewBox="0 0 24 24" fill="none" xmlns="http://www.w3.org/2000/svg">
<path fill-rule="evenodd" clip-rule="evenodd" d="M7 11C7 10.4477 7.44772 10 8 10H16C16.5523 10 17 10.4477 17 11C17 11.5523 16.5523 12 16 12H8C7.44772 12 7 11.5523 7 11Z" fill="#FF7B00"/>
<path fill-rule="evenodd" clip-rule="evenodd" d="M7.00003 15C7.00003 14.4477 7.44775 14 8.00003 14H13C13.5523 14 14 14.4477 14 15C14 15.5523 13.5523 16 13 16H8.00003C7.44775 16 7.00003 15.5523 7.00003 15Z" fill="#FF7B00"/>
<path fill-rule="evenodd" clip-rule="evenodd" d="M6 5C6 3.34315 7.34315 2 9 2H15C16.6569 2 18 3.34315 18 5C18 6.65685 16.6569 8 15 8H9C7.34315 8 6 6.65685 6 5ZM9 4C8.44772 4 8 4.44772 8 5C8 5.55228 8.44772 6 9 6H15C15.5523 6 16 5.55228 16 5C16 4.44772 15.5523 4 15 4H9Z" fill="#FF7B00"/>
<path fill-rule="evenodd" clip-rule="evenodd" d="M3 7C3 5.34314 4.34315 4 6 4H7.71646V6H6C5.44772 6 5 6.44772 5 7V19C5 19.5523 5.44772 20 6 20H18C18.5523 20 19 19.5523 19 19V7C19 6.44771 18.5523 6 18 6H16.3464V4H18C19.6569 4 21 5.34315 21 7V19C21 20.6569 19.6569 22 18 22H6C4.34315 22 3 20.6569 3 19V7Z" fill="#FF7B00"/>
</svg>
