<svg width="20" height="20" viewBox="0 0 20 20" fill="none" xmlns="http://www.w3.org/2000/svg">
<path fill-rule="evenodd" clip-rule="evenodd" d="M11.9286 4.31842C10.5502 3.85052 9.04875 3.89967 7.7039 4.45672C6.35906 5.01378 5.26259 6.04073 4.61877 7.34626C3.97495 8.65179 3.8277 10.1469 4.20445 11.5529C4.5812 12.959 5.45626 14.1801 6.66659 14.9888C7.87691 15.7975 9.33997 16.1387 10.7832 15.9487C12.2264 15.7587 13.5513 15.0505 14.511 13.9561C15.4708 12.8616 16 11.4556 16 9.99999C16 9.58578 16.3358 9.24999 16.75 9.24999C17.1642 9.24999 17.5 9.58578 17.5 9.99999C17.5 11.8196 16.8385 13.5771 15.6388 14.9451C14.4391 16.3131 12.7829 17.1983 10.9789 17.4358C9.17496 17.6733 7.34614 17.2469 5.83323 16.236C4.32032 15.2251 3.2265 13.6987 2.75556 11.9411C2.28463 10.1836 2.46869 8.31475 3.27346 6.68283C4.07823 5.05092 5.44882 3.76722 7.12988 3.0709C8.81093 2.37459 10.6878 2.31315 12.4108 2.89802C14.1338 3.4829 15.5854 4.67421 16.4952 6.25C16.7023 6.60871 16.5794 7.06741 16.2207 7.27451C15.862 7.48162 15.4033 7.35871 15.1962 7C14.4683 5.73937 13.307 4.78632 11.9286 4.31842Z" fill="#006FFF"/>
<path fill-rule="evenodd" clip-rule="evenodd" d="M16.375 3.25293C16.7892 3.25293 17.125 3.58872 17.125 4.00293V6.925C17.125 7.38063 16.7556 7.75 16.3 7.75H13.3721C12.9579 7.75 12.6221 7.41421 12.6221 7C12.6221 6.58578 12.9579 6.25 13.3721 6.25H15.625V4.00293C15.625 3.58872 15.9608 3.25293 16.375 3.25293Z" fill="#006FFF"/>
</svg>
