<svg width="16" height="16" viewBox="0 0 16 16" fill="none" xmlns="http://www.w3.org/2000/svg">
<path fill-rule="evenodd" clip-rule="evenodd" d="M1.33331 4.66671C1.33331 3.93033 1.93027 3.33337 2.66665 3.33337H13.3333C14.0697 3.33337 14.6666 3.93033 14.6666 4.66671V6.25004C14.6666 6.84835 14.1816 7.33337 13.5833 7.33337C13.2611 7.33337 13 7.59454 13 7.91671V8.08337C13 8.40554 13.2611 8.66671 13.5833 8.66671C14.1816 8.66671 14.6666 9.15173 14.6666 9.75004V11.3334C14.6666 12.0698 14.0697 12.6667 13.3333 12.6667H2.66665C1.93027 12.6667 1.33331 12.0698 1.33331 11.3334V4.66671ZM13.3333 11.3334V9.98388C12.3929 9.86138 11.6666 9.05719 11.6666 8.08337V7.91671C11.6666 6.94289 12.3929 6.1387 13.3333 6.0162V4.66671H2.66665V11.3334H13.3333Z" fill="#1A1A1A"/>
<path fill-rule="evenodd" clip-rule="evenodd" d="M9.99998 3.33337C10.3682 3.33337 10.6666 3.63185 10.6666 4.00004V5.33337C10.6666 5.70156 10.3682 6.00004 9.99998 6.00004C9.63179 6.00004 9.33331 5.70156 9.33331 5.33337V4.00004C9.33331 3.63185 9.63179 3.33337 9.99998 3.33337Z" fill="#1A1A1A"/>
<path fill-rule="evenodd" clip-rule="evenodd" d="M9.99998 6.66671C10.3682 6.66671 10.6666 6.96518 10.6666 7.33337V8.66671C10.6666 9.0349 10.3682 9.33337 9.99998 9.33337C9.63179 9.33337 9.33331 9.0349 9.33331 8.66671V7.33337C9.33331 6.96518 9.63179 6.66671 9.99998 6.66671Z" fill="#1A1A1A"/>
<path fill-rule="evenodd" clip-rule="evenodd" d="M9.99998 10C10.3682 10 10.6666 10.2985 10.6666 10.6667V12C10.6666 12.3682 10.3682 12.6667 9.99998 12.6667C9.63179 12.6667 9.33331 12.3682 9.33331 12V10.6667C9.33331 10.2985 9.63179 10 9.99998 10Z" fill="#1A1A1A"/>
</svg>
