<svg width="24" height="24" viewBox="0 0 24 24" fill="none" xmlns="http://www.w3.org/2000/svg">
<g clip-path="url(#clip0_1_22524)">
<g clip-path="url(#clip1_1_22524)">
<path fill-rule="evenodd" clip-rule="evenodd" d="M19.3812 4.07416C19.2588 4.02409 19.1277 3.99889 18.9954 4.00004C18.8632 4.00119 18.7325 4.02866 18.611 4.08085C18.4895 4.13305 18.3796 4.20892 18.2877 4.30404L18.2756 4.31644L10 12.592V14H11.408L19.6836 5.72444L19.696 5.71226C19.7911 5.62039 19.8669 5.5105 19.9191 5.38899C19.9713 5.26748 19.9988 5.1368 20 5.00457C20.0011 4.87233 19.9759 4.74119 19.9258 4.61879C19.8758 4.4964 19.8018 4.38521 19.7083 4.2917C19.6148 4.19819 19.5036 4.12424 19.3812 4.07416ZM18.9781 2.00011C19.3758 1.99666 19.7703 2.07246 20.1385 2.2231C20.5067 2.37373 20.8412 2.59619 21.1225 2.87748C21.4038 3.15878 21.6263 3.49328 21.7769 3.86146C21.9275 4.22965 22.0033 4.62415 21.9999 5.02195C21.9964 5.41975 21.9138 5.81287 21.7568 6.17838C21.601 6.54096 21.3752 6.86917 21.0923 7.14418L12.5293 15.7071C12.3418 15.8946 12.0874 16 11.8222 16H9C8.44772 16 8 15.5523 8 15V12.1778C8 11.9126 8.10536 11.6582 8.29289 11.4707L16.8558 2.90774C17.1308 2.62482 17.459 2.39898 17.8216 2.24323C18.1871 2.08622 18.5803 2.00357 18.9781 2.00011Z" fill="#111111"/>
</g>
<path fill-rule="evenodd" clip-rule="evenodd" d="M3.91773 3.91773C4.50535 3.33012 5.30232 3 6.13333 3H11.4667C12.019 3 12.4667 3.44772 12.4667 4C12.4667 4.55228 12.019 5 11.4667 5H6.13333C5.83275 5 5.54449 5.1194 5.33195 5.33195C5.1194 5.54449 5 5.83275 5 6.13333V17.8667C5 18.1672 5.1194 18.4555 5.33195 18.6681C5.54449 18.8806 5.83276 19 6.13333 19H17.8667C18.1672 19 18.4555 18.8806 18.6681 18.6681C18.8806 18.4555 19 18.1672 19 17.8667V12.5333C19 11.981 19.4477 11.5333 20 11.5333C20.5523 11.5333 21 11.981 21 12.5333V17.8667C21 18.6977 20.6699 19.4947 20.0823 20.0823C19.4947 20.6699 18.6977 21 17.8667 21H6.13333C5.30232 21 4.50534 20.6699 3.91773 20.0823C3.33012 19.4947 3 18.6977 3 17.8667V6.13333C3 5.30232 3.33012 4.50535 3.91773 3.91773Z" fill="#111111"/>
</g>
<defs>
<clipPath id="clip0_1_22524">
<rect width="24" height="24" fill="white"/>
</clipPath>
<clipPath id="clip1_1_22524">
<rect width="24" height="24" fill="white"/>
</clipPath>
</defs>
</svg>
