<svg width="38" height="39" viewBox="0 0 38 39" fill="none" xmlns="http://www.w3.org/2000/svg">
<path d="M35.1539 11.791C34.766 10.3409 33.6194 9.19421 32.1692 8.80637C29.5386 8.09814 18.9996 8.09814 18.9996 8.09814C18.9996 8.09814 8.46052 8.09814 5.82997 8.80637C4.3798 9.19421 3.23315 10.3409 2.84531 11.791C2.13709 14.4216 2.13708 19.9019 2.13708 19.9019C2.13708 19.9019 2.13709 25.3822 2.84531 28.0128C3.23315 29.4629 4.3798 30.6096 5.82997 30.9974C8.46052 31.7056 18.9996 31.7056 18.9996 31.7056C18.9996 31.7056 29.5386 31.7056 32.1692 30.9974C33.6194 30.6096 34.766 29.4629 35.1539 28.0128C35.8621 25.3822 35.8621 19.9019 35.8621 19.9019C35.8621 19.9019 35.8621 14.4216 35.1539 11.791Z" fill="#FF0000"/>
<path d="M15.6271 24.9608V14.8433L24.3956 19.902L15.6271 24.9608Z" fill="white"/>
</svg>
