<svg width="20" height="20" viewBox="0 0 20 20" fill="none" xmlns="http://www.w3.org/2000/svg">
<path fill-rule="evenodd" clip-rule="evenodd" d="M10.0001 3.33334C6.31818 3.33334 3.33341 6.31811 3.33341 10C3.33341 13.6819 6.31818 16.6667 10.0001 16.6667C13.682 16.6667 16.6667 13.6819 16.6667 10C16.6667 6.31811 13.682 3.33334 10.0001 3.33334ZM1.66675 10C1.66675 5.39763 5.39771 1.66667 10.0001 1.66667C14.6025 1.66667 18.3334 5.39763 18.3334 10C18.3334 14.6024 14.6025 18.3333 10.0001 18.3333C5.39771 18.3333 1.66675 14.6024 1.66675 10Z" fill="#4F4F4F"/>
<path fill-rule="evenodd" clip-rule="evenodd" d="M7.48926 6.3679C7.74108 6.2175 8.05342 6.21055 8.31167 6.34961L13.7283 9.26627C13.9983 9.41162 14.1666 9.69343 14.1666 10C14.1666 10.3066 13.9983 10.5884 13.7283 10.7337L8.31167 13.6504C8.05342 13.7895 7.74108 13.7825 7.48926 13.6321C7.23745 13.4817 7.08325 13.21 7.08325 12.9167V7.08333C7.08325 6.79002 7.23745 6.51831 7.48926 6.3679ZM8.74992 8.47851V11.5215L11.5755 10L8.74992 8.47851Z" fill="#4F4F4F"/>
</svg>
