<svg width="38" height="39" viewBox="0 0 38 39" fill="none" xmlns="http://www.w3.org/2000/svg">
<path d="M29.2823 7.36182H8.71666C5.73841 7.36182 3.32446 9.77577 3.32446 12.754V25.5135C3.32446 28.4917 5.73841 30.9057 8.71666 30.9057H15.9899L18.4665 35.1849C18.686 35.5768 19.2659 35.5768 19.4854 35.1849L21.962 30.9057H29.2823C32.2605 30.9057 34.6745 28.4917 34.6745 25.5135V12.754C34.6745 9.77577 32.2605 7.36182 29.2823 7.36182Z" fill="#00C73C"/>
<path fill-rule="evenodd" clip-rule="evenodd" d="M9.03006 22.018C9.46896 22.4412 10.0176 22.692 10.6132 22.692C12.2434 22.692 13.5758 21.3283 13.5758 19.6197C13.5758 17.9111 12.2434 16.5317 10.6132 16.5317C10.0019 16.5317 9.46896 16.7825 9.03006 17.2058V14.7291H7.25879V22.5353H9.03006V22.018ZM14.6574 22.5353H16.4443V17.3939C16.4443 15.4031 14.8925 14.6194 13.7012 14.541V16.1242C14.1871 16.1399 14.6574 16.5474 14.6574 17.4095V22.5353ZM17.4475 19.604C17.4475 21.3126 18.8269 22.692 20.5355 22.692C22.2441 22.692 23.6235 21.3126 23.6235 19.604C23.6235 17.8955 22.2441 16.5161 20.5355 16.5161C18.8269 16.5161 17.4475 17.8955 17.4475 19.604ZM27.652 25.0433C28.906 24.9962 30.7243 24.479 30.7243 22.0964V16.7198H29.0157V17.2528C28.5768 16.8139 28.0125 16.5474 27.3855 16.5474C25.7553 16.5474 24.4229 17.8798 24.4229 19.51C24.4229 21.1402 25.7553 22.4726 27.3855 22.4726C28.0125 22.4726 28.5768 22.2061 29.0157 21.7672V21.8769C29.0314 22.8644 28.7806 23.4131 27.652 23.4758V25.0433ZM27.605 20.9521C28.4358 20.9521 29.1098 20.2937 29.1098 19.4943C29.1098 18.6949 28.4358 18.0365 27.605 18.0365C26.7742 18.0365 26.1002 18.6949 26.1002 19.4943C26.1002 20.2937 26.7742 20.9521 27.605 20.9521ZM10.4095 21.1402C11.256 21.1402 11.93 20.4505 11.93 19.6197C11.93 18.7732 11.256 18.0992 10.4095 18.0992C9.56308 18.0992 8.88905 18.7732 8.88905 19.6197C8.88905 20.4661 9.56308 21.1402 10.4095 21.1402ZM20.5356 21.0775C21.335 21.0775 21.9933 20.4191 21.9933 19.6197C21.9933 18.8203 21.335 18.1619 20.5356 18.1619C19.7361 18.1619 19.0778 18.8203 19.0778 19.6197C19.0778 20.4191 19.7361 21.0775 20.5356 21.0775Z" fill="white"/>
</svg>
