<svg width="25" height="24" viewBox="0 0 25 24" fill="none" xmlns="http://www.w3.org/2000/svg">
<path fill-rule="evenodd" clip-rule="evenodd" d="M12.5048 3C11.1505 2.99924 9.81341 3.30417 8.59329 3.89205C7.3731 4.47997 6.30133 5.33571 5.4579 6.3955C4.61447 7.45529 4.02112 8.69179 3.72208 10.0128C3.42305 11.3338 3.42604 12.7053 3.73083 14.025C4.03563 15.3447 4.63437 16.5786 5.48241 17.6347C6.33046 18.6908 7.40594 19.5419 8.6287 20.1245C9.85145 20.7071 11.1899 21.0062 12.5444 20.9995C13.7866 20.9933 15.0128 20.7301 16.1462 20.2278L20.3264 20.9836C20.6805 21.0477 21.0418 20.9164 21.2723 20.64C21.5028 20.3636 21.567 19.9846 21.4404 19.6477L20.2724 16.5404C21.003 15.2902 21.4225 13.8796 21.4916 12.4281C21.5691 10.802 21.2041 9.18537 20.4354 7.75033C19.6667 6.3153 18.5232 5.11563 17.1266 4.2791C15.7302 3.44262 14.1327 3.00056 12.5048 3ZM12.5039 5C13.7701 5.0004 15.0127 5.34422 16.0989 5.99485C17.1851 6.64548 18.0745 7.57855 18.6724 8.69468C19.2702 9.81081 19.5541 11.0682 19.4939 12.3329C19.4336 13.5977 19.0314 14.8224 18.3302 15.8766C18.1521 16.1443 18.1136 16.4813 18.2267 16.7823L18.9483 18.702L16.19 18.2033C15.9805 18.1654 15.7644 18.1953 15.5731 18.2888C14.6266 18.7514 13.5879 18.9943 12.5345 18.9995C11.481 19.0047 10.44 18.7721 9.48896 18.319C8.53794 17.8658 7.70145 17.2039 7.04187 16.3825C6.38228 15.5611 5.9166 14.6014 5.67953 13.575C5.44247 12.5485 5.44015 11.4818 5.67273 10.4544C5.90531 9.42692 6.3668 8.46521 7.0228 7.64093C7.6788 6.81666 8.51239 6.15108 9.46142 5.69381C10.4105 5.23654 11.4505 4.99938 12.5039 5Z" fill="#FF7B00"/>
<path fill-rule="evenodd" clip-rule="evenodd" d="M12.4999 14.1872C12.065 14.1872 11.7124 13.8346 11.7124 13.3997V12.9497C11.7124 11.9792 12.4952 11.3837 13.0988 11.1527C13.1851 11.1197 13.2672 11.0797 13.3441 11.0335C13.5871 10.8874 13.7632 10.6879 13.8633 10.4704C13.9627 10.2543 13.987 10.0223 13.9377 9.79955C13.8883 9.57575 13.7635 9.35758 13.5641 9.17811C13.3638 8.99788 13.0992 8.86729 12.8001 8.81374C12.5009 8.76018 12.1915 8.78823 11.914 8.8917C11.6366 8.99507 11.4126 9.16537 11.2614 9.36906C11.1111 9.57148 11.0374 9.79956 11.0374 10.0247C11.0374 10.4596 10.6848 10.8122 10.2499 10.8122C9.81498 10.8122 9.46241 10.4596 9.46241 10.0247C9.46241 9.44874 9.65263 8.89379 9.99681 8.4302C10.3401 7.96787 10.8188 7.61907 11.3638 7.41591C11.9085 7.21284 12.5039 7.16068 13.0776 7.26339C13.6514 7.36611 14.1886 7.62125 14.6177 8.00742C15.0476 8.39436 15.3514 8.89783 15.4756 9.45965C15.6 10.0225 15.5352 10.6048 15.294 11.1288C15.0535 11.6514 14.6528 12.0844 14.1558 12.3833C13.9981 12.4781 13.8326 12.5583 13.6617 12.6237C13.5272 12.6752 13.4184 12.7511 13.3527 12.8244C13.2913 12.8931 13.2874 12.9341 13.2874 12.9497V13.3997C13.2874 13.8346 12.9348 14.1872 12.4999 14.1872Z" fill="#FF7B00"/>
<path d="M13.4 16.0996C13.4 15.6026 12.9971 15.1996 12.5 15.1996C12.0029 15.1996 11.6 15.6026 11.6 16.0996C11.6 16.5967 12.0029 16.9996 12.5 16.9996C12.9971 16.9996 13.4 16.5967 13.4 16.0996Z" fill="#FF7B00"/>
</svg>
