<svg width="16" height="16" viewBox="0 0 16 16" fill="none" xmlns="http://www.w3.org/2000/svg">
<g clip-path="url(#clip0_117_59498)">
<g clip-path="url(#clip1_117_59498)">
<path fill-rule="evenodd" clip-rule="evenodd" d="M8.00065 2.66683C5.05513 2.66683 2.66732 5.05464 2.66732 8.00016C2.66732 10.9457 5.05513 13.3335 8.00065 13.3335C10.9462 13.3335 13.334 10.9457 13.334 8.00016C13.334 5.05464 10.9462 2.66683 8.00065 2.66683ZM1.33398 8.00016C1.33398 4.31826 4.31875 1.3335 8.00065 1.3335C11.6825 1.3335 14.6673 4.31826 14.6673 8.00016C14.6673 11.6821 11.6825 14.6668 8.00065 14.6668C4.31875 14.6668 1.33398 11.6821 1.33398 8.00016Z" fill="#333333"/>
<path fill-rule="evenodd" clip-rule="evenodd" d="M6.41602 10.6668C6.41602 10.3447 6.67718 10.0835 6.99935 10.0835H8.99935C9.32152 10.0835 9.58268 10.3447 9.58268 10.6668C9.58268 10.989 9.32152 11.2502 8.99935 11.2502H6.99935C6.67718 11.2502 6.41602 10.989 6.41602 10.6668Z" fill="#333333"/>
</g>
<path fill-rule="evenodd" clip-rule="evenodd" d="M8.00065 11.25C7.67848 11.25 7.41732 10.9888 7.41732 10.6667L7.41732 7.91667L7.00065 7.91667C6.67848 7.91667 6.41732 7.6555 6.41732 7.33333C6.41732 7.01117 6.67848 6.75 7.00065 6.75L7.66732 6.75C8.17358 6.75 8.58398 7.16041 8.58398 7.66667L8.58398 10.6667C8.58398 10.9888 8.32282 11.25 8.00065 11.25Z" fill="#333333"/>
<path d="M8.66732 5.33333C8.66732 4.96514 8.36884 4.66667 8.00065 4.66667C7.63246 4.66667 7.33398 4.96514 7.33398 5.33333C7.33398 5.70152 7.63246 6 8.00065 6C8.36884 6 8.66732 5.70152 8.66732 5.33333Z" fill="#333333"/>
</g>
<defs>
<clipPath id="clip0_117_59498">
<rect width="16" height="16" fill="white"/>
</clipPath>
<clipPath id="clip1_117_59498">
<rect width="16" height="16" fill="white"/>
</clipPath>
</defs>
</svg>
