<svg width="24" height="24" viewBox="0 0 24 24" fill="none" xmlns="http://www.w3.org/2000/svg">
<path fill-rule="evenodd" clip-rule="evenodd" d="M6.99999 2.00001L15 2C16.6569 2 18 3.34314 18 5V9C18 9.55228 17.5523 10 17 10C16.4477 10 16 9.55228 16 9V5C16 4.44771 15.5523 4 15 4L7 4.00001C6.44771 4.00002 6 4.44773 6 5.00001V19C6 19.5523 6.44771 20 7 20H10C10.5523 20 11 20.4477 11 21C11 21.5523 10.5523 22 10 22H7C5.34315 22 4 20.6569 4 19V5.00001C4 3.34316 5.34314 2.00002 6.99999 2.00001Z" fill="#FF7B00"/>
<path fill-rule="evenodd" clip-rule="evenodd" d="M10 8.5C10 8.77614 9.77614 9 9.5 9H8.5C8.22386 9 8 8.77614 8 8.5V7.5C8 7.22385 8.22386 7 8.5 7H9.5C9.77614 7 10 7.22385 10 7.5V8.5Z" fill="#FF7B00"/>
<path fill-rule="evenodd" clip-rule="evenodd" d="M10 12.5C10 12.7761 9.77614 13 9.5 13H8.5C8.22386 13 8 12.7761 8 12.5V11.5C8 11.2239 8.22386 11 8.5 11H9.5C9.77614 11 10 11.2239 10 11.5V12.5Z" fill="#FF7B00"/>
<path fill-rule="evenodd" clip-rule="evenodd" d="M10 16.5C10 16.7761 9.77614 17 9.5 17H8.5C8.22386 17 8 16.7761 8 16.5V15.5C8 15.2239 8.22386 15 8.5 15H9.5C9.77614 15 10 15.2239 10 15.5V16.5Z" fill="#FF7B00"/>
<path fill-rule="evenodd" clip-rule="evenodd" d="M14 8.5C14 8.77614 13.7761 9 13.5 9H12.5C12.2239 9 12 8.77614 12 8.5V7.5C12 7.22385 12.2239 7 12.5 7H13.5C13.7761 7 14 7.22385 14 7.5V8.5Z" fill="#FF7B00"/>
<path fill-rule="evenodd" clip-rule="evenodd" d="M19.884 20.6446L17.9391 18.7004L18.9996 17.6395L20.9445 19.5837C21.2374 19.8766 21.2375 20.3515 20.9446 20.6444C20.6518 20.9373 20.1769 20.9374 19.884 20.6446Z" fill="#FF7B00"/>
<path fill-rule="evenodd" clip-rule="evenodd" d="M15.5 12.75C13.9812 12.75 12.75 13.9812 12.75 15.5C12.75 17.0188 13.9812 18.25 15.5 18.25C17.0188 18.25 18.25 17.0188 18.25 15.5C18.25 13.9812 17.0188 12.75 15.5 12.75ZM11.25 15.5C11.25 13.1528 13.1528 11.25 15.5 11.25C17.8472 11.25 19.75 13.1528 19.75 15.5C19.75 17.8472 17.8472 19.75 15.5 19.75C13.1528 19.75 11.25 17.8472 11.25 15.5Z" fill="#FF7B00"/>
</svg>
