<svg width="20" height="20" viewBox="0 0 20 20" fill="none" xmlns="http://www.w3.org/2000/svg">
<g clip-path="url(#clip0_830_33837)">
<g clip-path="url(#clip1_830_33837)">
<path d="M10.0593 4.44444L7.01174 0H2.22266L8.31785 9.44444L13.3338 6.80556L10.0593 4.44444Z" fill="#417BE6"/>
<path d="M13.0247 0L10 4.35388L12.329 8.33333L12.8592 7.52297L17.7778 0H13.0247Z" fill="#345EAE"/>
<g clip-path="url(#clip2_830_33837)">
<path d="M17.7782 12.2231C17.7782 16.5186 14.2959 20.0009 10.0004 20.0009C5.70494 20.0009 2.22266 16.5186 2.22266 12.2231C2.22266 7.9276 5.70494 4.44531 10.0004 4.44531C14.2959 4.44531 17.7782 7.9276 17.7782 12.2231Z" fill="#AEB2B8"/>
<path d="M12.7782 14.458V15.5582H7.37984V14.6193L9.93268 12.15C10.1892 11.8924 10.3916 11.6659 10.5397 11.4703C10.6878 11.2714 10.7945 11.0938 10.8594 10.9373C10.9281 10.7775 10.9624 10.626 10.9624 10.4825C10.9624 10.2674 10.9227 10.0832 10.8432 9.93002C10.7638 9.77349 10.6463 9.65292 10.4909 9.5682C10.3392 9.48338 10.1512 9.44102 9.92724 9.44102C9.68881 9.44102 9.48279 9.49319 9.3094 9.59754C9.13957 9.70179 9.00948 9.8469 8.91912 10.0327C8.83243 10.2185 8.78903 10.4287 8.78903 10.6635H7.22266C7.22266 10.2397 7.33467 9.8518 7.55869 9.4997C7.78273 9.14439 8.09893 8.86239 8.50719 8.65379C8.91546 8.44189 9.39965 8.33594 9.95976 8.33594C10.5126 8.33594 10.9788 8.41745 11.3582 8.58039C11.7411 8.74011 12.0302 8.97165 12.2253 9.27478C12.4241 9.57471 12.5235 9.93322 12.5235 10.3505C12.5235 10.5853 12.4818 10.8151 12.3988 11.04C12.3157 11.2616 12.1965 11.4833 12.041 11.705C11.8893 11.9234 11.705 12.1451 11.4883 12.37C11.2714 12.5949 11.0312 12.8281 10.7673 13.0692L9.3961 14.458H12.7782Z" fill="white"/>
</g>
</g>
</g>
<defs>
<clipPath id="clip0_830_33837">
<rect width="20" height="20" fill="white"/>
</clipPath>
<clipPath id="clip1_830_33837">
<rect width="20" height="20" fill="white"/>
</clipPath>
<clipPath id="clip2_830_33837">
<rect width="15.5556" height="15.5556" fill="white" transform="translate(2.22266 4.44531)"/>
</clipPath>
</defs>
</svg>
