<svg width="20" height="20" viewBox="0 0 20 20" fill="none" xmlns="http://www.w3.org/2000/svg">
<circle cx="10.0005" cy="10" r="10" fill="#FD3629"/>
<path d="M13.0137 5C13.5587 5 14.0005 5.44179 14.0005 5.98676V13.8796C14.0005 14.4984 13.4989 15 12.8801 15C12.5045 15 12.1538 14.8118 11.9463 14.4987L8.06671 8.64641H7.98724V14.0066C7.98724 14.5553 7.54249 15 6.99387 15C6.44524 15 6.00049 14.5553 6.00049 14.0066V6.13623C6.00049 5.50871 6.50919 5 7.13672 5C7.51883 5 7.87536 5.19207 8.08557 5.51117L11.9343 11.3536H12.027V5.98676C12.027 5.44179 12.4688 5 13.0137 5Z" fill="white"/>
</svg>
