<svg width="16" height="16" viewBox="0 0 16 16" fill="none" xmlns="http://www.w3.org/2000/svg">
<path fill-rule="evenodd" clip-rule="evenodd" d="M15.4142 0.585786C16.1953 1.36683 16.1953 2.63317 15.4142 3.41421L3.41421 15.4142C2.63317 16.1953 1.36683 16.1953 0.585786 15.4142C-0.195262 14.6332 -0.195262 13.3668 0.585786 12.5858L12.5858 0.585786C13.3668 -0.195262 14.6332 -0.195262 15.4142 0.585786Z" fill="white"/>
<path fill-rule="evenodd" clip-rule="evenodd" d="M0.585786 0.585786C1.36683 -0.195262 2.63317 -0.195262 3.41421 0.585786L15.4142 12.5858C16.1953 13.3668 16.1953 14.6332 15.4142 15.4142C14.6332 16.1953 13.3668 16.1953 12.5858 15.4142L0.585786 3.41421C-0.195262 2.63317 -0.195262 1.36683 0.585786 0.585786Z" fill="white"/>
</svg>
