<svg width="20" height="20" viewBox="0 0 20 20" fill="none" xmlns="http://www.w3.org/2000/svg">
<circle cx="10" cy="10" r="10" fill="#808080"/>
<path d="M13.0132 5C13.5582 5 14 5.44179 14 5.98676V13.8796C14 14.4984 13.4984 15 12.8796 15V15C12.504 15 12.1534 14.8118 11.9458 14.4987L8.06623 8.64641H7.98676V14.0066C7.98676 14.5553 7.542 15 6.99338 15V15C6.44475 15 6 14.5553 6 14.0066V6.13623C6 5.50871 6.50871 5 7.13623 5V5C7.51834 5 7.87487 5.19207 8.08508 5.51117L11.9338 11.3536H12.0265V5.98676C12.0265 5.44179 12.4683 5 13.0132 5V5Z" fill="white"/>
</svg>
