<svg width="24" height="24" viewBox="0 0 24 24" fill="none" xmlns="http://www.w3.org/2000/svg">
<path fill-rule="evenodd" clip-rule="evenodd" d="M3.68331 3.70017C4.12304 3.25368 4.72273 3 5.35129 3H18.6487C19.2773 3 19.877 3.25368 20.3167 3.70017C20.7559 4.14615 21 4.74783 21 5.37206V15.1978C21 15.822 20.7559 16.4237 20.3167 16.8697C19.877 17.3162 19.2773 17.5698 18.6487 17.5698H11.8896L7.94924 20.7757C7.64991 21.0192 7.23715 21.0688 6.88866 20.9031C6.54017 20.7373 6.31814 20.3859 6.31814 20V17.5698H5.35129C4.72273 17.5698 4.12304 17.3162 3.68331 16.8697C3.24408 16.4237 3 15.822 3 15.1978V5.37206C3 4.74783 3.24408 4.14615 3.68331 3.70017ZM5.35129 5C5.26309 5 5.17536 5.03543 5.10826 5.10356C5.04066 5.1722 5 5.2685 5 5.37206V15.1978C5 15.3013 5.04066 15.3976 5.10826 15.4663C5.17536 15.5344 5.26309 15.5698 5.35129 15.5698H7.31814C7.87042 15.5698 8.31814 16.0176 8.31814 16.5698V17.8972L10.9031 15.7942C11.0814 15.6491 11.3043 15.5698 11.5342 15.5698H18.6487C18.7369 15.5698 18.8246 15.5344 18.8917 15.4663C18.9593 15.3976 19 15.3013 19 15.1978V5.37206C19 5.2685 18.9593 5.1722 18.8917 5.10356C18.8246 5.03543 18.7369 5 18.6487 5H5.35129Z" fill="#1A1A1A"/>
<path d="M17 10C17 10.5523 16.5523 11 16 11C15.4477 11 15 10.5523 15 10C15 9.44772 15.4477 9 16 9C16.5523 9 17 9.44772 17 10Z" fill="#1A1A1A"/>
<path d="M13 10C13 10.5523 12.5523 11 12 11C11.4477 11 11 10.5523 11 10C11 9.44772 11.4477 9 12 9C12.5523 9 13 9.44772 13 10Z" fill="#1A1A1A"/>
<path d="M9 10C9 10.5523 8.55228 11 8 11C7.44772 11 7 10.5523 7 10C7 9.44772 7.44772 9 8 9C8.55228 9 9 9.44772 9 10Z" fill="#1A1A1A"/>
</svg>
