<svg width="74" height="22" viewBox="0 0 74 22" fill="none" xmlns="http://www.w3.org/2000/svg">
<rect x="1" y="1" width="72" height="20" rx="10" stroke="#AAAAAA" stroke-width="2"/>
<path d="M16.268 7.644H9.188V6H18.308V9.444H16.268V7.644ZM18.956 9.924V11.544H8.588V9.924H11.972V8.4H14.012V9.924H18.956ZM13.772 12.072C15.228 12.072 16.372 12.244 17.204 12.588C18.036 12.932 18.452 13.476 18.452 14.22C18.452 14.964 18.036 15.508 17.204 15.852C16.372 16.196 15.228 16.368 13.772 16.368C12.316 16.368 11.172 16.196 10.34 15.852C9.508 15.508 9.092 14.964 9.092 14.22C9.092 13.476 9.508 12.932 10.34 12.588C11.172 12.244 12.316 12.072 13.772 12.072ZM13.772 14.832C14.548 14.832 15.16 14.78 15.608 14.676C16.064 14.572 16.292 14.42 16.292 14.22C16.292 14.02 16.064 13.868 15.608 13.764C15.152 13.66 14.54 13.608 13.772 13.608C13.004 13.608 12.392 13.66 11.936 13.764C11.48 13.868 11.252 14.02 11.252 14.22C11.252 14.42 11.476 14.572 11.924 14.676C12.38 14.78 12.996 14.832 13.772 14.832ZM30.043 13.584H28.015V6H30.043V13.584ZM23.467 6.012C24.131 6.012 24.715 6.14 25.219 6.396C25.731 6.652 26.127 7.012 26.407 7.476C26.695 7.94 26.839 8.476 26.839 9.084C26.839 9.7 26.695 10.24 26.407 10.704C26.127 11.168 25.731 11.528 25.219 11.784C24.715 12.032 24.131 12.156 23.467 12.156C22.803 12.156 22.215 12.032 21.703 11.784C21.199 11.528 20.803 11.168 20.515 10.704C20.235 10.24 20.095 9.7 20.095 9.084C20.095 8.476 20.235 7.94 20.515 7.476C20.803 7.012 21.199 6.652 21.703 6.396C22.215 6.14 22.803 6.012 23.467 6.012ZM23.467 7.704C23.067 7.704 22.739 7.828 22.483 8.076C22.235 8.316 22.111 8.652 22.111 9.084C22.111 9.516 22.235 9.856 22.483 10.104C22.739 10.344 23.067 10.464 23.467 10.464C23.867 10.464 24.191 10.344 24.439 10.104C24.695 9.856 24.823 9.516 24.823 9.084C24.823 8.652 24.695 8.316 24.439 8.076C24.191 7.828 23.867 7.704 23.467 7.704ZM23.059 14.424H30.187V16.248H20.995V12.66H23.059V14.424ZM36.5819 9.024C36.0299 9.328 35.3659 9.56 34.5899 9.72C33.8219 9.88 33.0059 9.968 32.1419 9.984V8.412C32.8859 8.396 33.5939 8.312 34.2659 8.16C34.9459 8.008 35.4379 7.804 35.7419 7.548H32.2619V6H41.4539V7.548H38.0099C38.0019 7.58 37.9699 7.66 37.9139 7.788L41.7059 8.52L41.2739 10.032L36.5819 9.024ZM37.8659 11.904V12.384C39.0259 12.448 39.9259 12.64 40.5659 12.96C41.2139 13.28 41.5379 13.748 41.5379 14.364C41.5379 15.7 39.9779 16.368 36.8579 16.368C33.7379 16.368 32.1779 15.7 32.1779 14.364C32.1779 13.748 32.4979 13.28 33.1379 12.96C33.7859 12.64 34.6899 12.448 35.8499 12.384V11.904H31.6739V10.344H42.0419V11.904H37.8659ZM39.3779 14.364C39.3779 14.036 38.5379 13.872 36.8579 13.872C35.1779 13.872 34.3379 14.036 34.3379 14.364C34.3379 14.692 35.1779 14.856 36.8579 14.856C38.5379 14.856 39.3779 14.692 39.3779 14.364ZM53.4169 6V16.248H51.4969V11.688H50.5729V16.068H48.6769V6.048H50.5729V9.768H51.4969V6H53.4169ZM43.3609 6.24H47.8609V9.3C47.8609 10.692 47.6569 11.872 47.2489 12.84C46.8489 13.808 46.3089 14.532 45.6289 15.012C44.9489 15.5 44.1929 15.752 43.3609 15.768V13.872C44.1529 13.808 44.7769 13.396 45.2329 12.636C45.6889 11.868 45.9169 10.78 45.9169 9.372V8.064H43.3609V6.24ZM65.5839 11.712H64.3839V16.248H62.3559V6H64.3839V9.744H65.5839V11.712ZM59.5719 6.276C59.5719 7.78 59.4399 9.16 59.1759 10.416L62.1399 14.592L60.4839 15.756L58.4439 12.768C58.0199 13.736 57.4919 14.476 56.8599 14.988C56.2359 15.5 55.5359 15.76 54.7599 15.768V13.68C55.3039 13.616 55.7799 13.264 56.1879 12.624C56.6039 11.976 56.9279 11.1 57.1599 9.996C57.3919 8.884 57.5079 7.62 57.5079 6.204L59.5719 6.276Z" fill="#AAAAAA"/>
</svg>
