<svg width="75" height="20" viewBox="0 0 75 20" fill="none" xmlns="http://www.w3.org/2000/svg">
<g clip-path="url(#clip0_1_31074)">
<path fill-rule="evenodd" clip-rule="evenodd" d="M28.0713 0H26.1592C25.9716 0.00154978 25.7861 0.0389922 25.6134 0.110189C25.4407 0.181385 25.2841 0.284941 25.1525 0.414944C25.021 0.544947 24.9171 0.698851 24.8468 0.867868C24.7765 1.03688 24.7411 1.2177 24.7427 1.4V18.5348C24.7399 18.9027 24.8875 19.2567 25.1531 19.5189C25.4187 19.7811 25.7806 19.9302 26.1592 19.9333H28.0713C28.4497 19.9298 28.8112 19.7806 29.0764 19.5184C29.3417 19.2562 29.4891 18.9025 29.4862 18.5348V1.4C29.4895 1.03209 29.3423 0.677975 29.077 0.415464C28.8116 0.152953 28.4499 0.00352039 28.0713 0ZM8.95992 1.68L0.70181 15.8207C-0.382295 17.6785 0.973217 20 3.14143 20H15.7436L13.4214 16.0222H5.96223L11.0961 7.22815L16.23 16.0222L18.5522 20H23.9315L13.2323 1.68C13.0216 1.30879 12.7122 0.999283 12.3365 0.783739C11.9608 0.568194 11.5324 0.454499 11.0961 0.454499C10.6598 0.454499 10.2314 0.568194 9.85572 0.783739C9.48 0.999283 9.17066 1.30879 8.95992 1.68Z" fill="#FF8900"/>
<path d="M50.932 0H47.0301V9.66667H50.932V0ZM39.019 6.49778L44.3557 9.43556L46.1565 6.62074L40.7268 3.74667C41.1755 2.65865 41.4033 1.49655 41.3977 0.324445L37.4958 0.0918511C37.4968 1.1453 37.2518 2.18523 36.7792 3.13333C36.3446 4.00706 35.6888 4.75928 34.8733 5.31949C34.0577 5.8797 33.1092 6.22957 32.1165 6.3363V9.7437C33.4478 9.69119 34.7531 9.3682 35.9482 8.79555C37.1184 8.23494 38.1623 7.45387 39.019 6.49778V6.49778ZM37.1726 16.2578H50.932V10.36H33.2707V13.0667H47.0759V13.8533H33.3164V19.7496H51.1394V17.0444H37.1726V16.2578ZM69.7719 12.1985C68.1557 11.4983 66.0007 11.1477 63.307 11.1467C60.6132 11.1457 58.4582 11.4963 56.842 12.1985C55.2257 12.9007 54.4176 14.0227 54.4176 15.5644C54.4176 17.1062 55.2257 18.2277 56.842 18.9289C58.4582 19.6301 60.6132 19.9807 63.307 19.9807C66.0007 19.9807 68.1557 19.6301 69.7719 18.9289C71.3882 18.2267 72.1963 17.1052 72.1963 15.5644C72.1963 14.0237 71.3882 12.9017 69.7719 12.1985V12.1985ZM66.7133 16.5467C65.8584 16.756 64.723 16.8602 63.307 16.8593C61.891 16.8583 60.756 16.7541 59.9022 16.5467C59.0473 16.3393 58.6198 16.0119 58.6198 15.5644C58.6198 15.117 59.0509 14.7931 59.9128 14.5926C60.7748 14.3763 61.9062 14.2681 63.307 14.2681C64.7077 14.2681 65.8391 14.3763 66.7011 14.5926C67.5631 14.8089 67.9941 15.1328 67.9941 15.5644C67.9941 16.0119 67.5671 16.3393 66.7133 16.5467V16.5467ZM60.5136 7.49333L65.4279 10.3378L67.2576 7.44593L62.0872 4.57926C62.1864 4.21529 62.2557 3.84425 62.2945 3.46963H66.5639V0.231111H54.0029V3.46963H58.3439C58.2005 4.1262 57.9214 4.74765 57.5235 5.2963C57.1058 5.87474 56.5618 6.35634 55.9302 6.70667C55.2568 7.08204 54.5009 7.29586 53.7254 7.33037V10.7541C55.0563 10.7324 56.3641 10.412 57.5464 9.81778C58.69 9.25028 59.7003 8.45886 60.5136 7.49333V7.49333ZM72.0118 3.02963V0H68.11V10.8696H72.0118V6.75259H74.3203V3.02963H72.0118Z" fill="#41414F"/>
</g>
<defs>
<clipPath id="clip0_1_31074">
<rect width="74" height="20" fill="white" transform="translate(0.320312)"/>
</clipPath>
</defs>
</svg>
