<svg width="153" height="30" viewBox="0 0 153 30" fill="none" xmlns="http://www.w3.org/2000/svg">
<path d="M80.4904 21.6143C79.483 21.1413 78.6595 20.7646 78.6595 19.9937C78.6595 19.4067 79.1282 18.9818 80.0568 18.9818C80.3984 18.9818 80.6787 19.0213 80.9635 19.0738C81.1124 19.1001 81.2745 19.122 81.4102 19.122C82.2206 19.122 82.6761 18.6402 82.9827 17.7203L83.1054 17.348C82.974 17.2955 81.6511 16.7129 79.9297 16.7129C77.1834 16.7129 75.7335 18.4737 75.7335 20.3003C75.7335 21.2201 76.0226 21.8903 76.4738 22.4159C77.0563 23.0948 77.8886 23.5328 78.6639 23.9095C79.7939 24.4658 80.8145 24.8776 80.8145 25.701C80.8145 26.4325 80.0568 26.8486 79.0493 26.8486C77.6696 26.8486 76.4606 26.0602 76.3073 25.9638L75.1729 28.0882C75.3743 28.2021 76.8329 29.1307 79.242 29.1307C81.8045 29.1307 83.7449 27.659 83.7449 25.3988C83.7449 23.1386 81.9446 22.3151 80.4904 21.6099V21.6143Z" fill="#E1002B"/>
<path d="M90.5119 22.6615L95.1593 16.9629H91.8479L88.1378 21.8818H88.0809V16.9629H85.3521V29.0347H85.5141C86.6968 29.0347 88.0984 28.4872 88.0984 26.5161V23.7434H88.1554L91.9355 28.8858H95.409L90.5075 22.6615H90.5119Z" fill="#E1002B"/>
<path d="M95.317 4.02782C94.3577 4.21179 92.9342 5.08344 92.9385 6.62527C92.9385 8.02693 94.0862 8.8723 94.0905 10.712C94.0993 12.0917 93.3328 13.0247 92.5137 13.5372C92.8422 13.5065 93.2101 13.489 93.6087 13.489C94.4497 13.489 94.9578 13.5679 94.9885 13.5722L99.303 8.2766C98.1028 6.4851 96.7055 5.0922 95.3214 4.02344L95.317 4.02782Z" fill="#E1002B"/>
<path d="M98.9394 18.3202C99.4826 17.4748 99.5483 16.1301 99.5965 14.7591C99.649 13.4801 99.9162 12.5164 101.624 12.512C102.001 12.512 102.365 12.5646 103.017 12.5602C105.523 12.5515 107.161 11.6842 108.182 11.1191C106.101 9.79194 103.061 8.43846 99.2942 8.28516C99.0489 8.97723 97.1392 14.286 96.9946 14.7153C97.0165 14.7416 97.3494 15.1182 97.7699 15.8497C98.3875 16.8528 98.716 17.7026 98.935 18.3245L98.9394 18.3202Z" fill="#E1002B"/>
<path d="M89.8333 13.9839C89.6143 13.9839 89.5048 13.8394 89.4741 13.5853C89.4478 13.3356 88.3703 3.46708 88.2082 1.97782C88.1863 1.75881 88.1294 1.36021 88.1294 1.21566C88.1294 0.987894 88.2827 0.869629 88.4579 0.869629C88.9704 0.869629 91.7562 1.5179 94.7084 3.58972C93.8587 3.83064 92.3169 4.71543 92.3212 6.55073C92.33 8.17578 93.4907 9.06496 93.4951 10.6944C93.5039 13.3444 90.4597 13.9839 89.8289 13.9839H89.8333Z" fill="#F08100"/>
<path d="M99.185 19.0256C99.2332 19.1483 99.277 19.2534 99.3208 19.3235C99.3865 19.4418 99.4785 19.4899 99.5836 19.4899C99.6537 19.4899 99.7369 19.468 99.8289 19.4242C100.057 19.3235 109.062 15.1273 110.416 14.5053C110.613 14.4089 110.985 14.2425 111.108 14.168C111.235 14.0935 111.292 13.9884 111.292 13.8833C111.292 13.822 111.274 13.7606 111.239 13.7037C111.068 13.4278 110.197 12.5035 108.743 11.4961C107.586 12.1356 105.782 13.1168 103.097 13.1299C102.435 13.1299 102.291 13.0861 101.839 13.0861C100.525 13.0905 100.201 13.6511 100.153 14.7988C100.144 15.0178 100.14 15.3069 100.127 15.6266C100.087 16.656 99.9603 18.0708 99.1763 19.0213L99.185 19.0256Z" fill="#F08100"/>
<path d="M151.542 19.3677V28.9033H151.927C152.518 28.9033 153 28.4215 153 27.8346V19.3721H151.542V19.3677Z" fill="#F08100"/>
<path d="M145.851 24.4837V22.8193H149.811V20.4364C149.811 19.8451 149.329 19.3677 148.742 19.3677H144.393V20.3883H148.352V21.8031H144.393V24.4356C144.393 25.0269 144.87 25.5087 145.461 25.5087H150.214V24.4881H145.847L145.851 24.4837Z" fill="#F08100"/>
<path d="M141.765 19.3677V28.9033H142.15C142.741 28.9033 143.219 28.4215 143.219 27.8302V19.3677H141.765Z" fill="#F08100"/>
<path d="M139.014 19.3677V25.1232H136.11V19.3677H134.651V25.0707C134.651 25.662 135.133 26.1394 135.72 26.1394H139.399C139.986 26.1394 140.468 25.662 140.468 25.0707V19.3677H139.01H139.014Z" fill="#F08100"/>
<path d="M143.224 21.7852H135.738V22.8057H143.224V21.7852Z" fill="#F08100"/>
<path d="M133.477 19.3672V27.8341C133.477 28.4254 132.996 28.9028 132.404 28.9028H132.019V22.994H130.236C129.978 25.0833 128.278 26.7259 126.092 26.7259H124.765V25.7009H126.066C127.389 25.7009 128.528 24.6322 128.769 22.9896H125.243V21.969H128.812V20.3834H125.243V19.3628H130.271V21.969H132.014V19.3628H133.473L133.477 19.3672Z" fill="#F08100"/>
<path d="M118.992 20.6379L121.37 23.9318C121.568 24.199 121.87 24.3479 122.181 24.3523H123.359L119.758 19.3677H118.707C118.396 19.3677 118.094 19.5166 117.897 19.7882L114.599 24.3479H116.307L118.992 20.6335V20.6379Z" fill="#F08100"/>
<path d="M123.758 26.7261H114.178V27.7467H123.758V26.7261Z" fill="#F08100"/>
<path d="M111.804 19.3677V28.9077H112.19C112.781 28.9077 113.263 28.4303 113.263 27.839V19.3721H111.804V19.3677ZM106.145 25.1232V19.3677H104.687V25.0751C104.687 25.6664 105.168 26.1482 105.755 26.1482H110.508V25.1276H106.145V25.1232ZM110.508 19.3677H104.687V20.3883H110.508V19.3677Z" fill="#F08100"/>
<path d="M70.21 11.7148V29.0998" stroke="#231916" stroke-width="0.744632" stroke-miterlimit="10"/>
<path d="M0 25.6572V23.6072H15.1292C15.4402 23.6072 15.6898 23.7124 15.8694 23.9182C16.049 24.1241 16.141 24.365 16.141 24.641C16.141 24.9169 16.049 25.1534 15.8694 25.3549C15.6898 25.5564 15.4402 25.6572 15.1292 25.6572H0ZM3.74068 18.9861V13.8745H1.59877V11.9209H14.3057V13.8745H12.1638V18.9861H13.5567C13.894 18.9861 14.1568 19.0781 14.3363 19.2665C14.5159 19.4548 14.6079 19.6782 14.6079 19.941C14.6079 20.2038 14.5159 20.4316 14.3363 20.6287C14.1568 20.8214 13.894 20.9178 13.5567 20.9178H1.48488V18.9818H3.74068V18.9861ZM6.21986 13.8745V18.9861H9.68021V13.8745H6.21986Z" fill="#231916"/>
<path d="M23.1363 20.3398V19.1747H20.4468C19.308 19.1747 18.7342 18.6359 18.7342 17.5584V15.8501C18.7342 15.0223 19.1678 14.6105 20.0307 14.6105H27.3982C27.534 14.6105 27.6041 14.5404 27.6041 14.4047V13.4848H18.997V11.6802H30.1052V14.9303C30.1052 15.4428 29.9913 15.8019 29.7591 16.0034C29.527 16.2049 29.1547 16.3057 28.6422 16.3057H21.4631C21.3141 16.3057 21.2353 16.3757 21.2353 16.5115V17.0941C21.2353 17.2956 21.3492 17.3963 21.5726 17.3963H29.654C29.9781 17.3963 30.2322 17.4883 30.4162 17.6679C30.5957 17.8519 30.6877 18.0621 30.6877 18.2986C30.6877 18.5352 30.5957 18.7454 30.4162 18.9206C30.2366 19.0958 29.9825 19.1834 29.654 19.1834H25.633V20.3486H31.5725C31.8967 20.3486 32.1551 20.4318 32.3434 20.6026C32.5318 20.7734 32.6238 20.9749 32.6238 21.2115C32.6238 21.448 32.5318 21.6582 32.3434 21.8334C32.1551 22.0087 31.8967 22.0963 31.5725 22.0963H16.4434V20.3486H23.1363V20.3398ZM30.3154 26.9758C30.3154 28.3424 29.6321 29.0257 28.2655 29.0257H20.8411C19.4744 29.0257 18.7911 28.3424 18.7911 26.9758V23.0468H21.2703V24.4572H27.8494V23.0468H30.311V26.9758H30.3154ZM27.5515 27.2561C27.753 27.2561 27.8537 27.1554 27.8537 26.9539V26.183H21.2747V26.9539C21.2747 27.1554 21.3754 27.2561 21.5769 27.2561H27.5559H27.5515Z" fill="#231916"/>
<path d="M41.6514 16.3362V18.2153H36.4258V19.5863C36.4258 20.3397 36.7719 20.8084 37.4595 20.9967C37.6742 21.058 38.1034 21.0931 38.7561 21.0931C40.9593 21.0931 42.4223 20.9617 43.1363 20.6989C43.8152 20.4492 44.262 20.1601 44.4897 19.836C44.7657 19.4461 44.9015 18.8285 44.9015 17.9744V11.6406H47.4026V25.136C47.4026 25.5477 47.2799 25.8675 47.0346 26.0952C46.7893 26.3186 46.4915 26.4325 46.1411 26.4325C45.7907 26.4325 45.5191 26.3274 45.2957 26.1128C45.0329 25.8762 44.9015 25.5477 44.9015 25.136V21.4128C44.5248 21.8114 44.0123 22.1531 43.3597 22.429C42.8209 22.6568 41.7696 22.8408 40.2015 22.9941C38.8349 23.1342 37.7881 23.1868 37.0609 23.1649C34.9541 23.1036 33.9028 21.9866 33.9028 19.8184V11.9998H42.0587V14.0278H36.4214V16.3406H41.647L41.6514 16.3362Z" fill="#231916"/>
<path d="M59.4129 17.8035C59.2114 19.0081 58.6814 19.9674 57.8229 20.6901C56.9644 21.4128 55.9043 21.772 54.6385 21.772C53.2105 21.772 52.0454 21.3121 51.1518 20.3922C50.2539 19.4724 49.8071 18.2854 49.8071 16.8311C49.8071 15.3769 50.2539 14.1724 51.1518 13.2482C52.0498 12.3239 53.2105 11.8684 54.6385 11.8684C55.8912 11.8684 56.9425 12.2232 57.7966 12.9284C58.6507 13.638 59.1807 14.5797 59.3954 15.758H61.4628V11.6406H63.9989V25.3243C63.9989 25.7361 63.8719 26.0558 63.6222 26.2836C63.3726 26.5114 63.0703 26.6209 62.7199 26.6209C62.3695 26.6209 62.0848 26.507 61.8351 26.2836C61.5855 26.0602 61.4584 25.7404 61.4584 25.3243V17.8079H59.4085L59.4129 17.8035ZM56.7804 16.8268C56.7804 15.885 56.5833 15.1667 56.1891 14.663C55.7948 14.1636 55.278 13.9096 54.6385 13.9096C53.999 13.9096 53.4996 14.1592 53.1054 14.663C52.7112 15.1667 52.5141 15.885 52.5141 16.8268C52.5141 17.7685 52.7112 18.4693 53.1054 18.9687C53.4996 19.468 54.0121 19.7221 54.6385 19.7221C55.2648 19.7221 55.7948 19.4724 56.1891 18.9687C56.5833 18.4693 56.7804 17.7554 56.7804 16.8268Z" fill="#231916"/>
</svg>
