<svg width="75" height="22" viewBox="0 0 75 22" fill="none" xmlns="http://www.w3.org/2000/svg">
<rect x="1.5" y="1" width="72" height="20" rx="10" stroke="#41414F" stroke-width="2"/>
<path d="M16.768 7.644H9.688V6H18.808V9.444H16.768V7.644ZM19.456 9.924V11.544H9.088V9.924H12.472V8.4H14.512V9.924H19.456ZM14.272 12.072C15.728 12.072 16.872 12.244 17.704 12.588C18.536 12.932 18.952 13.476 18.952 14.22C18.952 14.964 18.536 15.508 17.704 15.852C16.872 16.196 15.728 16.368 14.272 16.368C12.816 16.368 11.672 16.196 10.84 15.852C10.008 15.508 9.592 14.964 9.592 14.22C9.592 13.476 10.008 12.932 10.84 12.588C11.672 12.244 12.816 12.072 14.272 12.072ZM14.272 14.832C15.048 14.832 15.66 14.78 16.108 14.676C16.564 14.572 16.792 14.42 16.792 14.22C16.792 14.02 16.564 13.868 16.108 13.764C15.652 13.66 15.04 13.608 14.272 13.608C13.504 13.608 12.892 13.66 12.436 13.764C11.98 13.868 11.752 14.02 11.752 14.22C11.752 14.42 11.976 14.572 12.424 14.676C12.88 14.78 13.496 14.832 14.272 14.832ZM30.543 13.584H28.515V6H30.543V13.584ZM23.967 6.012C24.631 6.012 25.215 6.14 25.719 6.396C26.231 6.652 26.627 7.012 26.907 7.476C27.195 7.94 27.339 8.476 27.339 9.084C27.339 9.7 27.195 10.24 26.907 10.704C26.627 11.168 26.231 11.528 25.719 11.784C25.215 12.032 24.631 12.156 23.967 12.156C23.303 12.156 22.715 12.032 22.203 11.784C21.699 11.528 21.303 11.168 21.015 10.704C20.735 10.24 20.595 9.7 20.595 9.084C20.595 8.476 20.735 7.94 21.015 7.476C21.303 7.012 21.699 6.652 22.203 6.396C22.715 6.14 23.303 6.012 23.967 6.012ZM23.967 7.704C23.567 7.704 23.239 7.828 22.983 8.076C22.735 8.316 22.611 8.652 22.611 9.084C22.611 9.516 22.735 9.856 22.983 10.104C23.239 10.344 23.567 10.464 23.967 10.464C24.367 10.464 24.691 10.344 24.939 10.104C25.195 9.856 25.323 9.516 25.323 9.084C25.323 8.652 25.195 8.316 24.939 8.076C24.691 7.828 24.367 7.704 23.967 7.704ZM23.559 14.424H30.687V16.248H21.495V12.66H23.559V14.424ZM37.0819 9.024C36.5299 9.328 35.8659 9.56 35.0899 9.72C34.3219 9.88 33.5059 9.968 32.6419 9.984V8.412C33.3859 8.396 34.0939 8.312 34.7659 8.16C35.4459 8.008 35.9379 7.804 36.2419 7.548H32.7619V6H41.9539V7.548H38.5099C38.5019 7.58 38.4699 7.66 38.4139 7.788L42.2059 8.52L41.7739 10.032L37.0819 9.024ZM38.3659 11.904V12.384C39.5259 12.448 40.4259 12.64 41.0659 12.96C41.7139 13.28 42.0379 13.748 42.0379 14.364C42.0379 15.7 40.4779 16.368 37.3579 16.368C34.2379 16.368 32.6779 15.7 32.6779 14.364C32.6779 13.748 32.9979 13.28 33.6379 12.96C34.2859 12.64 35.1899 12.448 36.3499 12.384V11.904H32.1739V10.344H42.5419V11.904H38.3659ZM39.8779 14.364C39.8779 14.036 39.0379 13.872 37.3579 13.872C35.6779 13.872 34.8379 14.036 34.8379 14.364C34.8379 14.692 35.6779 14.856 37.3579 14.856C39.0379 14.856 39.8779 14.692 39.8779 14.364ZM53.9169 6V16.248H51.9969V11.688H51.0729V16.068H49.1769V6.048H51.0729V9.768H51.9969V6H53.9169ZM43.8609 6.24H48.3609V9.3C48.3609 10.692 48.1569 11.872 47.7489 12.84C47.3489 13.808 46.8089 14.532 46.1289 15.012C45.4489 15.5 44.6929 15.752 43.8609 15.768V13.872C44.6529 13.808 45.2769 13.396 45.7329 12.636C46.1889 11.868 46.4169 10.78 46.4169 9.372V8.064H43.8609V6.24ZM66.0839 11.712H64.8839V16.248H62.8559V6H64.8839V9.744H66.0839V11.712ZM60.0719 6.276C60.0719 7.78 59.9399 9.16 59.6759 10.416L62.6399 14.592L60.9839 15.756L58.9439 12.768C58.5199 13.736 57.9919 14.476 57.3599 14.988C56.7359 15.5 56.0359 15.76 55.2599 15.768V13.68C55.8039 13.616 56.2799 13.264 56.6879 12.624C57.1039 11.976 57.4279 11.1 57.6599 9.996C57.8919 8.884 58.0079 7.62 58.0079 6.204L60.0719 6.276Z" fill="#41414F"/>
</svg>
