<svg width="20" height="14" viewBox="0 0 20 14" fill="none" xmlns="http://www.w3.org/2000/svg">
<mask id="mask0_197_25" style="mask-type:luminance" maskUnits="userSpaceOnUse" x="1" y="1" width="18" height="12">
<path d="M19 1H1V13H19V1Z" fill="white"/>
</mask>
<g mask="url(#mask0_197_25)">
<path fill-rule="evenodd" clip-rule="evenodd" d="M17.8757 1H16.7129C16.5988 1.00093 16.486 1.0234 16.381 1.06611C16.2759 1.10883 16.1807 1.17096 16.1007 1.24897C16.0207 1.32697 15.9575 1.41931 15.9148 1.52072C15.872 1.62213 15.8505 1.73062 15.8515 1.84V12.1209C15.8498 12.3417 15.9396 12.554 16.1011 12.7114C16.2626 12.8687 16.4827 12.9581 16.7129 12.96H17.8757C18.1058 12.9579 18.3256 12.8684 18.4869 12.7111C18.6482 12.5537 18.7378 12.3415 18.7361 12.1209V1.84C18.7381 1.61925 18.6485 1.40678 18.4872 1.24928C18.3258 1.09177 18.1059 1.00211 17.8757 1ZM6.25385 2.008L1.23199 10.4924C0.572737 11.6071 1.39704 13 2.71555 13H10.3791L8.9669 10.6133H4.43091L7.55285 5.33688L10.6749 10.6133L12.087 13H15.3582L8.8519 2.008C8.72375 1.78527 8.53565 1.59957 8.30715 1.47024C8.0787 1.34092 7.8182 1.2727 7.55285 1.2727C7.28755 1.2727 7.02705 1.34092 6.7986 1.47024C6.5701 1.59957 6.382 1.78527 6.25385 2.008Z" fill="#FF8900"/>
</g>
</svg>
