<svg width="81" height="20" viewBox="0 0 81 20" fill="none" xmlns="http://www.w3.org/2000/svg">
<path d="M0 4C0 1.79086 1.79086 0 4 0H77.0028C79.2119 0 81.0028 1.79086 81.0028 4V16C81.0028 18.2091 79.2119 20 77.0028 20H4.00001C1.79087 20 0 18.2091 0 16V4Z" fill="#4184FF"/>
<path d="M70.7945 11.5358C68.8856 11.5358 67.3316 10.1314 67.3316 8.40655C67.3316 6.68168 68.8856 5.27734 70.7945 5.27734C72.7035 5.27734 74.2575 6.68168 74.2575 8.40655C74.2575 10.1314 72.7035 11.5358 70.7945 11.5358ZM70.7945 6.95196C69.9085 6.95196 69.1864 7.60388 69.1864 8.40655C69.1864 9.20923 69.9085 9.86114 70.7945 9.86114C71.6806 9.86114 72.4027 9.20923 72.4027 8.40655C72.4027 7.60388 71.6806 6.95196 70.7945 6.95196Z" fill="white"/>
<path d="M76.0761 5.0293C76.5876 5.0293 77.0028 5.40415 77.0028 5.86593V14.0475C77.0028 14.5093 76.5876 14.8841 76.0761 14.8841C75.5647 14.8841 75.1495 14.5093 75.1495 14.0475V5.86593C75.1495 5.40415 75.5647 5.0293 76.0761 5.0293Z" fill="white"/>
<path d="M58.9359 11.5358C57.0269 11.5358 55.473 10.1314 55.473 8.40655C55.473 6.68168 57.0269 5.27734 58.9359 5.27734C60.8449 5.27734 62.4003 6.68168 62.4003 8.40655C62.4003 10.1314 60.8464 11.5358 58.9359 11.5358ZM58.9359 6.95196C58.0499 6.95196 57.3278 7.60388 57.3278 8.40655C57.3278 9.20923 58.0499 9.86114 58.9359 9.86114C59.8219 9.86114 60.544 9.20923 60.544 8.40655C60.544 7.60388 59.8219 6.95196 58.9359 6.95196Z" fill="white"/>
<path d="M65.5549 7.56787C65.3533 7.56787 65.1653 7.62084 65.0058 7.71184V5.86202C65.0058 5.40024 64.5907 5.02539 64.0792 5.02539C63.5677 5.02539 63.1525 5.40024 63.1525 5.86202V14.0436C63.1525 14.5054 63.5677 14.8802 64.0792 14.8802C64.5907 14.8802 65.0058 14.5054 65.0058 14.0436V9.28187C65.1653 9.37287 65.3533 9.42584 65.5549 9.42584C66.1236 9.42584 66.5839 9.01024 66.5839 8.49686C66.5839 7.98347 66.1236 7.56787 65.5549 7.56787Z" fill="white"/>
<path d="M54.3267 12.6523H45.3429C44.851 12.6523 44.4509 13.0136 44.4509 13.4577C44.4509 13.9019 44.8495 14.2631 45.3429 14.2631H54.3267C54.8186 14.2631 55.2188 13.9019 55.2188 13.4577C55.2188 13.0136 54.8186 12.6523 54.3267 12.6523Z" fill="white"/>
<path d="M53.0239 9.92634H47.7438V9.12095H52.887C53.3413 9.12095 53.7114 8.7882 53.7114 8.37667C53.7114 7.96515 53.3429 7.6324 52.887 7.6324H47.7438V6.88813H52.8193C53.3113 6.88813 53.7114 6.52685 53.7114 6.08273C53.7114 5.63862 53.3128 5.27734 52.8193 5.27734H46.7855C46.2921 5.27734 45.8935 5.63862 45.892 6.08273V10.6068H45.904C45.8965 10.6475 45.892 10.6883 45.892 10.7304C45.892 11.1758 46.2921 11.5358 46.784 11.5358H53.0239C53.5174 11.5358 53.916 11.1745 53.916 10.7304C53.916 10.2849 53.5158 9.92498 53.0239 9.92498V9.92634Z" fill="white"/>
<path d="M43.2865 7.56787C43.0849 7.56787 42.8969 7.62084 42.7374 7.71184V5.86202C42.7374 5.40024 42.3222 5.02539 41.8108 5.02539C41.2993 5.02539 40.8841 5.40024 40.8841 5.86202V14.0436C40.8841 14.5054 41.2993 14.8802 41.8108 14.8802C42.3222 14.8802 42.7374 14.5054 42.7374 14.0436V9.28187C42.8969 9.37287 43.0849 9.42584 43.2865 9.42584C43.8551 9.42584 44.3154 9.01024 44.3154 8.49686C44.3154 7.98347 43.8551 7.56787 43.2865 7.56787Z" fill="white"/>
<path d="M39.2399 9.92498H38.399L38.9074 8.56953C39.0593 8.1648 38.8187 7.72475 38.3704 7.58758C37.9221 7.4504 37.4347 7.66771 37.2828 8.07244L36.5878 9.92498H35.7348L36.7999 6.88813H38.8984C39.3918 6.88813 39.7904 6.52685 39.7904 6.08273C39.7904 5.63862 39.3903 5.27734 38.8984 5.27734H34.0981C33.6047 5.27734 33.2061 5.63862 33.2061 6.08273C33.2061 6.52685 33.6062 6.88813 34.0981 6.88813H35.0007L33.9356 9.92498H33.6167C33.1233 9.92498 32.7247 10.2862 32.7247 10.7304C32.7247 11.1758 33.1248 11.5358 33.6167 11.5358H39.2399C39.7333 11.5358 40.1319 11.1745 40.1319 10.7304C40.1319 10.2849 39.7318 9.92498 39.2399 9.92498Z" fill="white"/>
<path d="M24.5277 11.5358C22.6173 11.5358 21.0633 10.1314 21.0633 8.40655C21.0633 6.68168 22.6173 5.27734 24.5277 5.27734C26.4382 5.27734 27.9907 6.68168 27.9907 8.40655C27.9907 10.1314 26.4367 11.5358 24.5277 11.5358ZM24.5277 6.95196C23.6402 6.95196 22.9196 7.60388 22.9196 8.40655C22.9196 9.20923 23.6417 9.86114 24.5277 9.86114C25.4138 9.86114 26.1359 9.20923 26.1359 8.40655C26.1359 7.60388 25.4138 6.95196 24.5277 6.95196Z" fill="white"/>
<path d="M31.1467 7.57042C30.9451 7.57042 30.7571 7.62339 30.5991 7.71439V5.86593C30.5991 5.40415 30.1839 5.0293 29.6724 5.0293C29.161 5.0293 28.7458 5.40415 28.7458 5.86593V14.0475C28.7458 14.5093 29.161 14.8841 29.6724 14.8841C30.1839 14.8841 30.5991 14.5093 30.5991 14.0475V9.28578C30.7586 9.37678 30.9451 9.42975 31.1467 9.42975C31.7153 9.42975 32.1756 9.01415 32.1756 8.50076C32.1756 7.98738 31.7153 7.57178 31.1467 7.57178V7.57042Z" fill="white"/>
<path fill-rule="evenodd" clip-rule="evenodd" d="M8.84813 14.8353L13.7808 7.38304C14.4863 6.31824 14.0696 4.95871 12.8496 4.34075L12.7609 4.29729C11.5409 3.68476 9.98239 4.04874 9.27686 5.11354L4.3412 12.5671C3.63868 13.6319 4.05538 14.9915 5.27538 15.6067L5.36414 15.6502C6.58414 16.2641 8.14261 15.9001 8.84813 14.8353ZM18.542 13.448C18.542 14.8578 17.2768 16 15.7153 16C14.1539 16 12.8887 14.8578 12.8887 13.448C12.8887 12.0382 14.1539 10.896 15.7153 10.896C17.2768 10.896 18.542 12.0382 18.542 13.448Z" fill="white"/>
</svg>
