<svg width="154" height="130" viewBox="0 0 154 130" fill="none" xmlns="http://www.w3.org/2000/svg">
<path d="M27.7046 51.1917L63.3308 7.95215L91.1369 30.2093L55.5107 73.4489L27.7046 51.1917Z" fill="#FFD363"/>
<path d="M34.5641 42.8639L46.0034 52.0131C51.9061 56.7396 60.5723 55.8475 65.3579 50.0295L85.4442 25.6475L91.135 30.2031L55.5074 73.4436L27.6985 51.1874L34.5641 42.8544V42.8639Z" fill="#F0BC37"/>
<rect x="24.5127" y="47.2754" width="45.2277" height="6.63668" rx="3.31834" transform="rotate(38.5835 24.5127 47.2754)" fill="#FFE39E"/>
<rect x="63.8345" y="0.00195312" width="45.2277" height="6.63668" rx="3.31834" transform="rotate(38.5835 63.8345 0.00195312)" fill="#FFE39E"/>
<path d="M70.2227 55.5026L76.4565 47.9365L87.811 57.0251L81.5771 64.5912L70.2227 55.5026Z" fill="#EF520E"/>
<path d="M150.971 113.853C154.611 109.436 153.77 102.922 149.126 99.5542L93.9139 59.0612L87.8108 57.0137L81.5788 64.5776L84.8579 70.0432L136.396 114.995C140.696 118.785 147.34 118.261 150.98 113.844L150.971 113.853Z" fill="#4E5DC4"/>
<path d="M84.8581 70.0528L81.5791 64.5872L83.2701 62.5312L84.5405 64.6464L136.079 109.598C140.379 113.389 147.023 112.864 150.663 108.448C151.693 107.195 152.354 105.774 152.68 104.302C153.787 107.441 153.281 111.07 150.98 113.854C147.341 118.271 140.705 118.795 136.396 115.005L84.8581 70.0528Z" fill="#3C4C99"/>
<path d="M93.9141 59.0615L84.858 70.052L81.5789 64.5864L87.8109 57.0225L93.9141 59.0615Z" fill="#43A1FF"/>
<path d="M22.2743 120.179L97.0302 117.815L95.0298 109.086C94.465 106.62 92.2025 104.891 89.643 104.976L28.7623 106.899C26.2034 106.977 24.0646 108.842 23.6658 111.339L22.2743 120.179Z" fill="#313960"/>
<path d="M28.7626 106.9L28.8056 108.146C28.9528 112.5 32.658 115.915 37.0675 115.77L96.1369 113.902L97.0304 117.816L22.2745 120.18L23.666 111.34C24.0572 108.843 26.196 106.977 28.7626 106.9Z" fill="#2B2A3F"/>
<path d="M80.3348 96.0857L38.1726 97.4169C35.6194 97.4975 33.6197 99.6037 33.7067 102.121L33.866 106.732L85.2825 105.108L85.1233 100.497C85.0363 97.9803 82.8957 96.0048 80.3425 96.0854L80.3348 96.0857Z" fill="#4E5DC4"/>
<path d="M38.1746 97.4198L43.2236 97.2598C40.6723 97.3379 38.6702 99.4484 38.7546 101.964L38.9144 106.576L33.8653 106.736L33.7056 102.124C33.6211 99.6085 35.6157 97.4974 38.1746 97.4198Z" fill="#3C4C99"/>
<path d="M16.3502 123.161L103.147 120.417C104.01 120.387 104.683 119.676 104.651 118.825C104.618 117.973 103.896 117.309 103.04 117.339L16.2439 120.083C15.3803 120.113 14.7073 120.824 14.7397 121.675C14.772 122.526 15.4944 123.191 16.3497 123.168L16.3502 123.161Z" fill="#4E5DC4"/>
<path d="M11.286 83.3885H3.48381C1.89464 83.3885 0.611816 82.1057 0.611816 80.5165C0.611816 78.9274 1.89464 77.6445 3.48381 77.6445H11.286C12.8752 77.6445 14.158 78.9274 14.158 80.5165C14.158 82.1057 12.8752 83.3885 11.286 83.3885Z" fill="#C9C9C9"/>
<path d="M16.8868 73.9698C16.1497 73.9698 15.4126 73.6921 14.8573 73.1273L9.00803 67.278C7.88795 66.158 7.88795 64.339 9.00803 63.219C10.1281 62.0989 11.947 62.0989 13.0671 63.219L18.9164 69.0682C20.0365 70.1883 20.0365 72.0072 18.9164 73.1273C18.3516 73.6921 17.624 73.9698 16.8868 73.9698Z" fill="#C9C9C9"/>
<path d="M11.0381 98.6602C10.3009 98.6602 9.56376 98.3826 9.00851 97.8178C7.88844 96.6977 7.88844 94.8788 9.00851 93.7587L14.8578 87.9094C15.9779 86.7893 17.7968 86.7893 18.9169 87.9094C20.037 89.0295 20.037 90.8484 18.9169 91.9685L13.0676 97.8178C12.5028 98.3826 11.7752 98.6602 11.0381 98.6602Z" fill="#C9C9C9"/>
</svg>
