<svg width="116" height="116" viewBox="0 0 116 116" fill="none" xmlns="http://www.w3.org/2000/svg">
<path d="M37.1868 19.8062C37.2811 17.6101 38.737 16.1882 40.2281 15.3707C41.6882 14.5702 43.5466 14.1153 45.4745 13.8533C49.3757 13.3231 54.4183 13.4773 59.407 14.0331C64.4198 14.5916 69.5488 15.5751 73.6645 16.7871C75.7164 17.3913 77.5871 18.0728 79.0882 18.8211C80.456 19.503 82.0036 20.4696 82.7915 21.8699C83.1452 22.4984 83.4161 23.3285 83.638 24.1271C83.8762 24.9844 84.1168 26.0305 84.3588 27.2198C84.8434 29.6017 85.3574 32.677 85.8821 36.2038C86.9326 43.2642 88.0428 52.2485 89.0599 61.3566C91.0875 79.5147 92.772 98.4094 92.8536 103.59C92.8881 105.782 91.8255 107.521 90.3448 108.77C88.9242 109.969 87.0482 110.794 85.0669 111.377C81.0847 112.549 75.9143 112.958 70.8269 112.834C65.7152 112.71 60.4727 112.042 56.2888 110.935C54.2048 110.384 52.2843 109.698 50.7493 108.857C49.3126 108.07 47.7435 106.896 47.1136 105.137C46.7191 104.037 46.2994 101.97 45.8646 99.443C45.4147 96.8277 44.9114 93.4814 44.3808 89.658C43.3192 82.0073 42.1392 72.3813 41.0475 62.7364C39.9556 53.0904 38.9502 43.4099 38.2382 35.6481C37.536 27.9927 37.0942 21.9639 37.1868 19.8062Z" fill="#417BE6" stroke="#242953" stroke-width="5.08218"/>
<path d="M79.1331 27.3394C77.1624 22.9788 47.0803 18.0088 46.9282 24.1997C46.7761 30.3905 55.2429 91.9275 56.836 97.389C58.4292 102.851 86.8034 102.327 86.6683 96.1585C86.5332 89.9903 81.1038 31.7 79.1331 27.3394Z" fill="#F8F8F9"/>
<ellipse cx="2.81398" cy="2.77913" rx="2.81398" ry="2.77913" transform="matrix(-0.995537 0.0943687 0.096773 0.995306 75.6619 46.5101)" fill="#417BE6"/>
<path d="M64.5624 54.9144C63.7421 53.7885 61.9154 53.9638 61.3243 55.2253L56.204 66.1527C55.6296 67.3787 56.6591 68.7188 58.0714 68.5832L73.445 67.1073L64.5624 54.9144Z" fill="#417BE6"/>
<path d="M76.1665 58.5703C75.3608 57.3529 73.4127 57.54 72.8533 58.8884L69.2777 67.5074L78.3198 66.6393C79.6966 66.5071 80.4614 65.0595 79.7346 63.9613L76.1665 58.5703Z" fill="#417BE6"/>
<path d="M84.6865 101.563C73.7313 102.653 56.9424 106.575 54.7005 98.5435C52.4586 90.5121 45.1362 22.9917 45.1362 22.9917" stroke="#242953" stroke-width="5.08218" stroke-linecap="round"/>
<ellipse cx="4.00001" cy="3.99999" rx="4.00001" ry="3.99999" transform="matrix(0.642648 -0.766159 -0.766166 -0.642645 109.324 72.5675)" fill="#4078FF"/>
<circle cx="3" cy="3" r="3" transform="matrix(0.827797 -0.561028 -0.561033 -0.827793 3.36621 54.2603)" fill="#FF5959"/>
<circle cx="5.5" cy="5.5" r="5.5" transform="matrix(0.827797 -0.561028 -0.561033 -0.827793 88.7894 15.277)" fill="#14BA85"/>
<path d="M13.7161 22.455C16.8843 19.2737 17.5358 15.2945 11.9686 8.13905C20.2312 17.991 29.7804 7.43252 23.84 13.3975C19.7474 17.5071 32.3277 30.089 25.6919 23.4524C19.0562 16.8158 10.5479 25.6363 13.7161 22.455Z" fill="#FFF171"/>
<path d="M102.072 38.012C104.261 38.5984 106.166 37.883 107.897 33.6476C105.664 39.7405 112.685 41.2643 108.581 40.1647C105.754 39.4071 103.411 48.0758 104.647 43.5033C105.882 38.9308 99.8833 37.4255 102.072 38.012Z" fill="#FFF171"/>
<path d="M21.2296 68.9385C23.192 67.8055 24.0332 65.9525 22.2626 61.7334C24.9915 67.6211 31.0339 63.7338 27.3545 65.8581C24.8195 67.3217 29.2927 75.1078 26.9332 71.0008C24.5737 66.8939 19.2673 70.0715 21.2296 68.9385Z" fill="#FFF171"/>
</svg>
