<svg width="180" height="120" viewBox="0 0 180 120" fill="none" xmlns="http://www.w3.org/2000/svg">
<path d="M67.7158 36.0007C67.7158 32.2136 70.7859 29.1436 74.5729 29.1436H152.573C156.36 29.1436 159.43 32.2136 159.43 36.0007V120H67.7158V36.0007Z" fill="#419EFF"/>
<path d="M38.5723 18.8581C38.5723 15.071 41.6423 12.001 45.4294 12.001H132C135.787 12.001 138.857 15.071 138.857 18.8581V120H38.5723V18.8581Z" fill="#AFDDFF"/>
<path d="M57.3844 19.0363V23.1209C57.3844 24.5535 58.5458 25.7149 59.9784 25.7149V25.7149C61.411 25.7149 62.5724 24.5535 62.5724 23.1209V9.42925C62.5724 7.06232 60.6536 5.14355 58.2867 5.14355V5.14355C55.9197 5.14355 54.001 7.06233 54.001 9.42925V12.0542" stroke="#C3C1C1" stroke-width="3.42855"/>
<rect x="48.8574" y="97.7148" width="29.1427" height="5.99997" rx="2.99998" fill="#7EC3FF"/>
<rect x="48.8574" y="72.001" width="79.7139" height="5.99997" rx="2.99998" fill="#7EC3FF"/>
<rect x="48.8574" y="84.8584" width="68.5711" height="5.99997" rx="2.99998" fill="#7EC3FF"/>
<rect x="12" y="33.4287" width="86.571" height="29.1427" rx="6.85711" fill="#36C055"/>
<path d="M22.2852 45.6087C22.2852 45.314 22.4366 45.0399 22.6861 44.883L29.5433 40.5729C29.8221 40.3976 30.1767 40.3976 30.4555 40.5729L37.3126 44.883C37.5622 45.0399 37.7136 45.314 37.7136 45.6087V54.8575C37.7136 55.3309 37.3299 55.7146 36.8565 55.7146H23.1423C22.6689 55.7146 22.2852 55.3309 22.2852 54.8575V45.6087Z" fill="white"/>
<path d="M44.5713 48.428C44.5713 47.2445 45.5307 46.2852 46.7141 46.2852H79.2854C80.4688 46.2852 81.4282 47.2445 81.4282 48.428C81.4282 49.6115 80.4688 50.5708 79.2854 50.5708H46.7141C45.5307 50.5708 44.5713 49.6115 44.5713 48.428Z" fill="white"/>
<circle cx="131.087" cy="91.9561" r="25.4346" fill="white"/>
<path d="M144.49 84.9886L144.318 85.1608C143.856 85.6227 143.107 85.6192 142.63 85.1722C133.222 76.3467 127.294 80.5652 123.233 82.916C128.521 79.9414 134.74 86.2991 137.668 90.4882C137.987 90.9443 137.919 91.56 137.525 91.9536L136.477 93.0013C135.732 93.7466 136.26 95.0208 137.314 95.0208L145.181 95.0208C145.826 95.0208 146.352 94.5042 146.364 93.8593L146.509 85.8467C146.529 84.7825 145.243 84.236 144.49 84.9886Z" fill="#1D9F35"/>
<path d="M117.123 97.5711L117.334 97.4494C117.9 97.1227 118.623 97.32 118.967 97.8751C125.77 108.835 132.588 106.295 137.119 105.075C131.241 106.579 126.88 98.8287 125.136 94.0246C124.946 93.5015 125.171 92.9244 125.653 92.6462L126.937 91.9053C127.849 91.3783 127.669 90.0109 126.651 89.7381L119.052 87.702C118.429 87.535 117.787 87.8979 117.609 88.5177L115.395 96.2197C115.101 97.2426 116.201 98.1033 117.123 97.5711Z" fill="#1D9F35"/>
</svg>
