<svg width="752" height="300" viewBox="0 0 752 300" fill="none" xmlns="http://www.w3.org/2000/svg">
<path d="M0 7.99999C0 3.58171 3.58172 0 8 0H744C748.418 0 752 3.58172 752 8V292C752 296.418 748.418 300 744 300H8C3.58172 300 0 296.418 0 292V7.99999Z" fill="#F5F5F5"/>
<rect x="48" y="29.9395" width="656" height="240.121" rx="7.06452" fill="white"/>
<path d="M65.4306 45.3924V43.1671H66.5009V48.7198H65.4306V46.2719H63.6716V45.3924H65.4306ZM59.3905 48.5291L58.5957 47.8403C59.1538 47.4235 59.5953 47.0455 59.9203 46.7064C60.2453 46.3673 60.4819 46.0318 60.6303 45.6997C60.7857 45.3677 60.8634 45.0039 60.8634 44.6083H58.9136V43.7181H63.8623V44.6083H61.9337V44.6718C61.9337 45.2511 61.803 45.7845 61.5416 46.2719L61.6052 46.3143L61.8277 46.1554C61.9266 46.0777 62.0255 46.0388 62.1244 46.0388C62.2304 46.0388 62.3328 46.0777 62.4317 46.1554L64.2226 47.6495L63.4278 48.3489L61.5734 46.7276C61.5239 46.6852 61.4639 46.664 61.3933 46.664C61.3438 46.664 61.2943 46.6817 61.2449 46.717C61.0471 46.9855 60.8034 47.261 60.5137 47.5436C60.2241 47.8191 59.8497 48.1476 59.3905 48.5291ZM66.5327 50.9239C66.5327 51.3195 66.4161 51.6692 66.183 51.973C65.9499 52.2839 65.6037 52.5276 65.1445 52.7042C64.6853 52.8808 64.1343 52.9691 63.4914 52.9691C62.8415 52.9691 62.2869 52.8808 61.8277 52.7042C61.3685 52.5276 61.0224 52.2839 60.7892 51.973C60.5561 51.6692 60.4395 51.3195 60.4395 50.9239C60.4395 50.5283 60.5561 50.1786 60.7892 49.8749C61.0224 49.564 61.3685 49.3238 61.8277 49.1543C62.2869 48.9777 62.8415 48.8894 63.4914 48.8894C64.1413 48.8894 64.6924 48.9777 65.1445 49.1543C65.6037 49.3238 65.9499 49.564 66.183 49.8749C66.4161 50.1786 66.5327 50.5283 66.5327 50.9239ZM65.4094 50.8498C65.4094 50.5319 65.2505 50.2669 64.9326 50.055C64.6147 49.836 64.1343 49.7265 63.4914 49.7265C62.8485 49.7265 62.3646 49.836 62.0397 50.055C61.7218 50.2669 61.5628 50.5319 61.5628 50.8498V51.0087C61.5628 51.3266 61.7218 51.5915 62.0397 51.8035C62.3646 52.0154 62.8485 52.1214 63.4914 52.1214C64.1343 52.1214 64.6147 52.0154 64.9326 51.8035C65.2505 51.5915 65.4094 51.3266 65.4094 51.0087V50.8498ZM76.0868 50.5213V51.422H67.3974V50.5213H71.2122V48.5609H68.5524V43.6545H69.6121V45.2547H73.8402V43.6545H74.8999V48.5609H72.2825V50.5213H76.0868ZM69.6121 47.6707H73.8402V46.1342H69.6121V47.6707ZM86.3119 43.1671V48.3489H85.2416V43.1671H86.3119ZM78.5551 45.7845C78.5551 45.3182 78.661 44.912 78.873 44.5659C79.0849 44.2126 79.3781 43.9442 79.7525 43.7605C80.134 43.5698 80.5649 43.4744 81.0453 43.4744C81.5257 43.4744 81.9531 43.5698 82.3275 43.7605C82.709 43.9442 83.0057 44.2126 83.2176 44.5659C83.4296 44.912 83.5355 45.3182 83.5355 45.7845C83.5355 46.2437 83.4296 46.6499 83.2176 47.0031C83.0057 47.3493 82.709 47.6177 82.3275 47.8085C81.9531 47.9922 81.5257 48.084 81.0453 48.084C80.5649 48.084 80.134 47.9922 79.7525 47.8085C79.3781 47.6177 79.0849 47.3493 78.873 47.0031C78.661 46.6499 78.5551 46.2437 78.5551 45.7845ZM82.4017 45.9646V45.5938C82.4017 45.2123 82.2781 44.912 82.0308 44.693C81.7835 44.467 81.455 44.3539 81.0453 44.3539C80.6356 44.3539 80.3071 44.467 80.0598 44.693C79.8125 44.912 79.6889 45.2123 79.6889 45.5938V45.9646C79.6889 46.3461 79.8125 46.6499 80.0598 46.876C80.3071 47.102 80.6356 47.2151 81.0453 47.2151C81.455 47.2151 81.7835 47.102 82.0308 46.876C82.2781 46.6499 82.4017 46.3461 82.4017 45.9646ZM80.3459 52.132V48.8894H81.4056V49.9384H85.2522V48.8894H86.3119V52.8314H81.0347C80.8086 52.8314 80.6356 52.7713 80.5155 52.6512C80.4024 52.5311 80.3459 52.358 80.3459 52.132ZM85.2522 50.8392H81.4056V51.92H85.2522V50.8392ZM95.2302 43.1671V48.9529H94.1599V47.3316H92.4644V46.4733H94.1599V45.3288H92.4644V44.4811H94.1599V43.1671H95.2302ZM92.4008 48.3489C91.3694 48.5679 90.1296 48.6774 88.6813 48.6774H87.7594V45.6997H90.6735V44.5553H87.7276V43.6863H91.712V46.5475H88.7979V47.8085H88.8827C90.1472 47.8085 91.274 47.7096 92.2631 47.5118L92.4008 48.3489ZM89.0628 49.4828H95.2302V52.9267H94.1811V50.3835H89.0628V49.4828Z" fill="#41414F"/>
<path d="M682.719 48.1893L686.84 44.0684L690.961 48.1893" stroke="#7A7A89" stroke-width="0.883064" stroke-linecap="round" stroke-linejoin="round"/>
<rect x="58.392" y="66.0717" width="635.218" height="189.565" rx="4.41532" fill="white"/>
<rect x="58.392" y="66.0717" width="635.218" height="189.565" rx="4.41532" stroke="#DEDFE5" stroke-width="0.58871"/>
<path d="M78.3944 80.9447V84.2827H79.6801V80.9447H78.3944ZM77.6031 84.9585V80.2689H80.4713V84.9585H77.6031ZM82.9027 79.4529H83.7104V86.8871H82.9027V83.0464H82.0538V86.541H81.2543V79.593H82.0538V82.3541H82.9027V79.4529ZM89.5533 81.3156V80.343H86.2153V81.3156H89.5533ZM90.3857 79.6837V81.9832H85.3746V79.6837H90.3857ZM91.2594 83.1783H88.3088V83.7964H90.4105V85.5684H86.1741V86.1783H90.6248V86.8294H85.3334V84.9668H89.578V84.4393H85.317V83.7964H87.4516V83.1783H84.5175V82.5024H91.2594V83.1783ZM92.322 82.4942L92.0252 81.8348C93.4016 81.6947 94.3495 81.1178 94.4731 80.4584H92.3137V79.7743H97.8111V80.4584H95.6352C95.7506 81.1178 96.7067 81.6947 98.0913 81.8348L97.7864 82.4942C96.4759 82.3541 95.4539 81.8266 95.0583 81.0601C94.6544 81.8266 93.6324 82.3541 92.322 82.4942ZM95.0418 86.2443C96.138 86.2443 96.7479 86.03 96.7479 85.5931C96.7479 85.1646 96.138 84.942 95.0418 84.942C93.9456 84.942 93.344 85.1646 93.344 85.5931C93.344 86.03 93.9456 86.2443 95.0418 86.2443ZM95.0418 84.2909C96.649 84.2909 97.605 84.7607 97.605 85.5931C97.605 86.4256 96.649 86.8954 95.0418 86.8954C93.4429 86.8954 92.4785 86.4256 92.4785 85.5931C92.4785 84.7607 93.4429 84.2909 95.0418 84.2909ZM95.4704 83.0958H98.421V83.7799H91.6873V83.0958H94.6214V82.0986H95.4704V83.0958ZM103.942 81.1013V80.3925H99.6566V79.7084H104.808V81.7359H100.53V82.5107H104.973V83.1947H99.6731V81.1013H103.942ZM105.607 83.8541L105.616 84.5382H103.942V86.9036H103.094V84.5382H101.371V86.9036H100.522V84.5382H98.8572V83.8541H105.607Z" fill="#4D4C61"/>
<g clip-path="url(#clip0_5308_111657)">
<path d="M107.551 79.1262C107.598 78.9838 107.7 78.8659 107.834 78.7981C107.968 78.7303 108.123 78.7181 108.266 78.7642L109.314 79.1073V78.0026C109.314 77.853 109.373 77.7095 109.479 77.6037C109.585 77.4979 109.728 77.4385 109.878 77.4385C110.028 77.4385 110.171 77.4979 110.277 77.6037C110.383 77.7095 110.442 77.853 110.442 78.0026V79.1073L111.49 78.7642C111.561 78.741 111.636 78.732 111.71 78.7377C111.784 78.7433 111.856 78.7636 111.923 78.7972C111.989 78.8308 112.048 78.8771 112.097 78.9336C112.145 78.99 112.182 79.0555 112.205 79.1262C112.228 79.1968 112.237 79.2714 112.231 79.3456C112.226 79.4197 112.206 79.492 112.172 79.5584C112.138 79.6248 112.092 79.6838 112.036 79.7323C111.979 79.7807 111.914 79.8176 111.843 79.8407L110.79 80.1792L111.439 81.0724C111.526 81.1937 111.563 81.3445 111.54 81.4924C111.517 81.6402 111.437 81.773 111.316 81.8622C111.219 81.9314 111.102 81.9691 110.983 81.9703C110.894 81.9692 110.806 81.9474 110.727 81.9066C110.648 81.8658 110.579 81.8071 110.527 81.7352L109.878 80.842L109.229 81.7352C109.177 81.8071 109.108 81.8658 109.029 81.9066C108.95 81.9474 108.862 81.9692 108.773 81.9703C108.654 81.9691 108.537 81.9314 108.439 81.8622C108.319 81.773 108.239 81.6402 108.216 81.4924C108.193 81.3445 108.23 81.1937 108.317 81.0724L108.966 80.1792L107.913 79.8407C107.771 79.7934 107.653 79.6918 107.585 79.558C107.517 79.4241 107.505 79.2689 107.551 79.1262Z" fill="#FF5959"/>
</g>
<path d="M159.779 78.4709V82.8886H158.8V78.4709H159.779ZM156.285 81.796V80.6751H154.165V81.796H156.285ZM157.255 78.8289V82.5684H153.205V78.8289H154.165V79.9404H156.285V78.8289H157.255ZM155.173 86.1571H160.034V86.9107H154.222V84.716H158.819V84.0472H154.203V83.3031H159.779V85.4224H155.173V86.1571ZM162.454 82.3988V84.1791C163.848 84.1696 164.912 84.1131 166.108 83.8965L166.212 84.6877C164.903 84.9232 163.763 84.9797 162.19 84.9797H161.493V81.617H164.404V80.0251H161.474V79.2339H165.364V82.3988H162.454ZM169.066 81.7865V82.5966H167.757V86.9955H166.777V78.4615H167.757V81.7865H169.066ZM169.169 87.9562L171.788 78.7347H172.541L169.923 87.9562H169.169ZM173.96 81.1649C173.96 81.9561 174.516 82.4836 175.26 82.4836C175.985 82.4836 176.541 81.9561 176.541 81.1649C176.541 80.3925 175.985 79.865 175.26 79.865C174.516 79.865 173.96 80.3925 173.96 81.1649ZM179 80.5338H177.37C177.436 80.7316 177.464 80.9388 177.464 81.1649C177.464 81.3909 177.436 81.5982 177.37 81.796H179V80.5338ZM179 82.5872H176.956C176.56 83.0487 175.957 83.3313 175.26 83.3219C173.998 83.3219 173.037 82.4176 173.037 81.1649C173.037 79.9121 173.998 79.0078 175.26 79.0078C175.957 79.0078 176.56 79.2904 176.956 79.7425H179V78.4898H179.97V84.7442H179V82.5872ZM175.43 86.0347H180.186V86.8259H174.459V84.1131H175.43V86.0347ZM186.459 81.9749L186.572 82.7662C185.234 82.9828 184.085 83.0205 182.456 83.0205H181.74V80.5526H184.66V79.6672H181.721V78.876H185.611V81.2873H182.701V82.2293C184.161 82.2293 185.225 82.1822 186.459 81.9749ZM187.354 86.1006V85.2152H183.708V86.1006H187.354ZM187.354 84.4522V83.5762H188.315V86.8824H182.738V83.5762H183.708V84.4522H187.354ZM187.344 78.4804H188.315V83.1806H187.344V78.4804Z" fill="#41414F"/>
<line x1="72.2266" y1="98.4508" x2="679.775" y2="98.4508" stroke="#DEDFE5" stroke-width="0.58871"/>
<path d="M83.8093 117.118L83.4549 117.827C82.2351 117.588 81.1801 116.846 80.7021 115.857C80.2076 116.846 79.1526 117.588 77.9411 117.827L77.5784 117.118C79.0537 116.87 80.2488 115.758 80.2488 114.612V114.052H81.1472V114.612C81.1472 115.766 82.3423 116.87 83.8093 117.118ZM81.1142 119.417H84.0978V120.118H77.3559V119.417H80.2653V117.678H81.1142V119.417ZM86.7923 115.115V115.527C86.7923 116.87 87.262 118.09 88.3417 118.651L87.8472 119.302C87.1384 118.914 86.6769 118.239 86.4049 117.414C86.1494 118.362 85.6714 119.121 84.9378 119.557L84.4186 118.923C85.4983 118.296 85.9681 117.002 85.9681 115.527V115.115H84.6246V114.414H88.0368V115.115H86.7923ZM90.1055 113.59H90.9132V121.041H90.1055V117.233H89.2896V120.695H88.4901V113.73H89.2896V116.533H90.1055V113.59ZM94.4401 115.041V115.75C94.4401 116.986 95.2066 118.272 96.3687 118.766L95.8989 119.434C95.0335 119.055 94.366 118.247 94.0198 117.283C93.6901 118.321 93.0225 119.203 92.1489 119.623L91.6626 118.947C92.8165 118.412 93.583 117.027 93.583 115.75V115.041H91.9263V114.34H96.0968V115.041H94.4401ZM96.9622 113.598H97.8193V121.041H96.9622V113.598Z" fill="#4D4C61"/>
<g clip-path="url(#clip1_5308_111657)">
<path d="M99.5509 113.272C99.5982 113.129 99.6999 113.011 99.8337 112.944C99.9675 112.876 100.123 112.864 100.266 112.91L101.314 113.253V112.148C101.314 111.998 101.373 111.855 101.479 111.749C101.585 111.643 101.728 111.584 101.878 111.584C102.028 111.584 102.171 111.643 102.277 111.749C102.383 111.855 102.442 111.998 102.442 112.148V113.253L103.49 112.91C103.561 112.887 103.636 112.878 103.71 112.883C103.784 112.889 103.856 112.909 103.923 112.943C103.989 112.976 104.048 113.023 104.097 113.079C104.145 113.136 104.182 113.201 104.205 113.272C104.228 113.342 104.237 113.417 104.231 113.491C104.226 113.565 104.206 113.638 104.172 113.704C104.138 113.77 104.092 113.829 104.036 113.878C103.979 113.926 103.914 113.963 103.843 113.986L102.79 114.325L103.439 115.218C103.526 115.339 103.563 115.49 103.54 115.638C103.517 115.786 103.437 115.919 103.316 116.008C103.219 116.077 103.102 116.115 102.983 116.116C102.894 116.115 102.806 116.093 102.727 116.052C102.648 116.011 102.579 115.953 102.527 115.881L101.878 114.988L101.229 115.881C101.177 115.953 101.108 116.011 101.029 116.052C100.95 116.093 100.862 116.115 100.773 116.116C100.654 116.115 100.537 116.077 100.439 116.008C100.319 115.919 100.239 115.786 100.216 115.638C100.193 115.49 100.23 115.339 100.317 115.218L100.966 114.325L99.9129 113.986C99.7706 113.939 99.6526 113.837 99.5848 113.703C99.517 113.57 99.5049 113.414 99.5509 113.272Z" fill="#FF5959"/>
</g>
<rect x="152.585" y="106.104" width="70.0564" height="20.6048" rx="3.2379" fill="white"/>
<rect x="152.585" y="106.104" width="70.0564" height="20.6048" rx="3.2379" stroke="#DEDFE5" stroke-width="0.58871"/>
<path d="M160.025 114.258V115.585C160.025 116.928 160.865 118.272 161.937 118.783L161.541 119.318C160.701 118.898 160.025 118.016 159.687 116.978C159.365 118.074 158.681 119.005 157.849 119.45L157.437 118.914C158.508 118.379 159.349 116.953 159.349 115.585V114.258H160.025ZM162.852 113.623H163.528V121.024H162.852V116.681H161.137V116.129H162.852V113.623ZM167.945 114.217C166.733 114.217 166.041 114.497 166.041 114.991C166.041 115.486 166.733 115.766 167.945 115.766C169.156 115.766 169.849 115.486 169.849 114.991C169.849 114.497 169.156 114.217 167.945 114.217ZM167.945 116.269C166.321 116.269 165.348 115.824 165.348 114.991C165.348 114.159 166.321 113.706 167.945 113.706C169.577 113.706 170.541 114.159 170.541 114.991C170.541 115.824 169.577 116.269 167.945 116.269ZM171.283 117.299H168.283V117.991H170.434V119.656H166.09V120.406H170.656V120.934H165.431V119.162H169.766V118.502H165.414V117.991H167.607V117.299H164.607V116.755H171.283V117.299ZM174.397 114.266V115.593C174.397 116.945 175.279 118.305 176.375 118.799L175.972 119.343C175.131 118.931 174.422 118.057 174.068 117.002C173.73 118.115 173.021 119.038 172.156 119.483L171.744 118.931C172.831 118.412 173.73 116.994 173.73 115.593V114.266H174.397ZM177.15 113.623H177.826V121.033H177.15V113.623Z" fill="#4D4C61"/>
<path d="M211.162 115.522L213.517 117.877L215.872 115.522" stroke="#9393A3" stroke-width="0.58871" stroke-linecap="round" stroke-linejoin="round"/>
<rect x="227.941" y="106.104" width="70.0564" height="20.6048" rx="3.2379" fill="white"/>
<rect x="227.941" y="106.104" width="70.0564" height="20.6048" rx="3.2379" stroke="#DEDFE5" stroke-width="0.58871"/>
<path d="M233.122 114.175H236.534C236.534 116.055 235.224 117.431 233.081 118.066L232.809 117.522C234.564 117.002 235.677 115.997 235.801 114.719H233.122V114.175ZM236.213 120.472C237.276 120.472 237.952 120.134 237.952 119.574C237.952 119.005 237.276 118.667 236.213 118.667C235.149 118.667 234.474 119.005 234.474 119.574C234.474 120.134 235.149 120.472 236.213 120.472ZM236.213 118.14C237.672 118.14 238.619 118.675 238.619 119.574C238.619 120.464 237.672 121.008 236.213 121.008C234.754 121.008 233.806 120.464 233.806 119.574C233.806 118.675 234.754 118.14 236.213 118.14ZM238.529 115.535H239.625V116.096H238.529V118.041H237.853V113.623H238.529V115.535ZM244.273 116.359L244.355 116.912C243.111 117.159 242.006 117.241 240.902 117.241H240.325V113.994H240.992V116.673C242.039 116.664 243.094 116.59 244.273 116.359ZM241.701 118.75V120.365H245.039V118.75H241.701ZM241.042 120.909V118.206H245.699V120.909H241.042ZM246.795 115.321V115.881H245.699V117.802H245.023V113.623H245.699V115.321H246.795ZM253.824 117.283V117.835H250.808V121.024H250.124V117.835H247.14V117.283H252.044C252.275 116.219 252.275 115.436 252.275 114.744V114.645H247.973V114.101H252.934V114.744C252.934 115.436 252.934 116.219 252.728 117.283H253.824Z" fill="#4D4C61"/>
<path d="M286.518 115.522L288.872 117.877L291.227 115.522" stroke="#9393A3" stroke-width="0.58871" stroke-linecap="round" stroke-linejoin="round"/>
<rect x="303.294" y="106.104" width="70.0564" height="20.6048" rx="3.2379" fill="white"/>
<rect x="303.294" y="106.104" width="70.0564" height="20.6048" rx="3.2379" stroke="#DEDFE5" stroke-width="0.58871"/>
<path d="M308.426 114.579H311.311C311.311 116.483 310.643 118.247 308.541 119.434L308.146 118.947C309.844 118 310.544 116.664 310.643 115.131H308.426V114.579ZM313.767 113.623H314.418V121.016H313.767V117.151H312.761V120.645H312.127V113.821H312.761V116.598H313.767V113.623ZM317.731 114.876V117.299H319.568V114.876H317.731ZM318.992 119.541H322.016V120.093H315.316V119.541H318.307V117.843H315.926V117.299H317.055V114.876H315.909V114.332H321.39V114.876H320.244V117.299H321.373V117.843H318.992V119.541ZM325.832 120.489C326.986 120.489 327.67 120.2 327.67 119.681C327.67 119.162 326.986 118.873 325.832 118.873C324.661 118.873 323.977 119.162 323.977 119.681C323.977 120.2 324.661 120.489 325.832 120.489ZM325.832 118.346C327.398 118.346 328.354 118.824 328.354 119.681C328.354 120.538 327.398 121.016 325.832 121.016C324.249 121.016 323.293 120.538 323.293 119.681C323.293 118.824 324.249 118.346 325.832 118.346ZM326.17 117.274H329.178V117.818H322.485V117.274H325.494V116.417H323.326V113.961H328.346V114.505H324.002V115.873H328.395V116.417H326.17V117.274Z" fill="#4D4C61"/>
<path d="M361.871 115.522L364.226 117.877L366.581 115.522" stroke="#9393A3" stroke-width="0.58871" stroke-linecap="round" stroke-linejoin="round"/>
<line x1="72.2266" y1="133.773" x2="679.775" y2="133.773" stroke="#DEDFE5" stroke-width="0.58871"/>
<path d="M81.617 152.095L81.6994 152.779C80.7351 152.985 79.8614 153.034 78.2625 153.034H77.6608V149.532H80.9741V150.224H78.5098V152.334C79.9191 152.326 80.7186 152.284 81.617 152.095ZM79.3092 153.76V155.532H83.4632V156.224H78.4521V153.76H79.3092ZM83.1664 151.048H84.2214V151.749H83.1664V154.304H82.3175V148.913H83.1664V151.048ZM87.2703 150.364V151.073C87.2703 152.309 88.0368 153.595 89.1989 154.089L88.7291 154.757C87.8637 154.378 87.1961 153.57 86.8499 152.606C86.5203 153.644 85.8527 154.526 84.979 154.947L84.4928 154.271C85.6466 153.735 86.4131 152.35 86.4131 151.073V150.364H84.7565V149.663H88.9269V150.364H87.2703ZM89.7923 148.922H90.6495V156.364H89.7923V148.922Z" fill="#4D4C61"/>
<g clip-path="url(#clip2_5308_111657)">
<path d="M92.5509 148.595C92.5982 148.453 92.6999 148.335 92.8337 148.267C92.9675 148.199 93.1227 148.187 93.2655 148.233L94.3138 148.576V147.471C94.3138 147.322 94.3733 147.178 94.4791 147.072C94.5849 146.967 94.7283 146.907 94.878 146.907C95.0276 146.907 95.1711 146.967 95.2769 147.072C95.3827 147.178 95.4421 147.322 95.4421 147.471V148.576L96.4904 148.233C96.5611 148.21 96.6357 148.201 96.7098 148.206C96.784 148.212 96.8563 148.232 96.9227 148.266C96.989 148.3 97.0481 148.346 97.0965 148.402C97.145 148.459 97.1818 148.524 97.205 148.595C97.2281 148.666 97.2371 148.74 97.2315 148.814C97.2258 148.888 97.2056 148.961 97.172 149.027C97.1384 149.094 97.092 149.153 97.0356 149.201C96.9791 149.249 96.9137 149.286 96.843 149.309L95.79 149.648L96.4387 150.541C96.5263 150.662 96.5625 150.813 96.5397 150.961C96.5168 151.109 96.4366 151.242 96.3165 151.331C96.2188 151.4 96.1024 151.438 95.9827 151.439C95.8937 151.438 95.8061 151.416 95.727 151.375C95.6478 151.335 95.5793 151.276 95.5267 151.204L94.878 150.311L94.2292 151.204C94.1767 151.276 94.1081 151.335 94.029 151.375C93.9498 151.416 93.8623 151.438 93.7732 151.439C93.6535 151.438 93.5371 151.4 93.4394 151.331C93.3193 151.242 93.2391 151.109 93.2163 150.961C93.1934 150.813 93.2297 150.662 93.3172 150.541L93.966 149.648L92.9129 149.309C92.7706 149.262 92.6526 149.161 92.5848 149.027C92.517 148.893 92.5049 148.738 92.5509 148.595Z" fill="#FF5959"/>
</g>
<rect x="152.585" y="141.427" width="140.702" height="20.6048" rx="3.2379" fill="white"/>
<rect x="152.585" y="141.427" width="140.702" height="20.6048" rx="3.2379" stroke="#DEDFE5" stroke-width="0.58871"/>
<path d="M161.714 152.185L161.789 152.729C160.775 152.935 159.901 152.985 158.352 152.985H157.775V149.589H161.047V150.133H158.451V152.433C159.909 152.433 160.75 152.375 161.714 152.185ZM159.25 153.76V155.622H163.503V156.175H158.574V153.76H159.25ZM163.173 151.139H164.269V151.699H163.173V154.295H162.497V148.946H163.173V151.139ZM167.244 150.265V151.205C167.244 152.457 168.134 153.735 169.222 154.196L168.843 154.74C167.986 154.345 167.261 153.496 166.906 152.482C166.568 153.562 165.843 154.493 165.002 154.922L164.607 154.378C165.67 153.875 166.568 152.482 166.568 151.205V150.265H164.854V149.705H168.983V150.265H167.244ZM169.98 148.955H170.656V156.339H169.98V148.955ZM172.881 152.268V153.999C174.092 153.999 175.18 153.941 176.474 153.735L176.54 154.287C175.205 154.51 174.084 154.559 172.815 154.559H172.205V151.724H174.925V150.183H172.18V149.63H175.609V152.268H172.881ZM177.167 148.938H177.843V156.348H177.167V148.938ZM185.317 152.663L185.012 153.224C183.891 152.968 182.738 152.177 182.268 151.089C181.798 152.169 180.644 152.96 179.532 153.224L179.227 152.663C180.521 152.408 181.913 151.295 181.913 150.034V149.466H182.622V150.034C182.622 151.295 184.023 152.416 185.317 152.663ZM178.946 154.79H185.647V155.35H178.946V154.79ZM192.05 152.935V153.479H186.973V149.589H191.976V150.133H187.657V151.229H191.811V151.765H187.657V152.935H192.05ZM186.108 154.831H192.817V155.383H186.108V154.831Z" fill="#4D4C61"/>
<path d="M281.809 150.846L284.163 153.201L286.518 150.846" stroke="#9393A3" stroke-width="0.58871" stroke-linecap="round" stroke-linejoin="round"/>
<path d="M308.89 151.532L308.553 151.287L309.035 150.491L308.208 150.147L308.339 149.757L309.211 149.971L309.288 149.045H309.701L309.777 149.963L310.65 149.757L310.78 150.147L309.946 150.491L310.435 151.287L310.099 151.532L309.494 150.805L308.89 151.532ZM316.607 151.846L316.676 152.351C315.735 152.542 314.924 152.588 313.485 152.588H312.949V149.435H315.987V149.94H313.577V152.075C314.931 152.075 315.712 152.022 316.607 151.846ZM314.319 153.308V155.037H318.268V155.55H313.691V153.308H314.319ZM317.962 150.874H318.98V151.394H317.962V153.805H317.334V148.838H317.962V150.874ZM321.742 150.063V150.935C321.742 152.098 322.569 153.285 323.579 153.713L323.227 154.218C322.431 153.851 321.757 153.063 321.428 152.121C321.114 153.124 320.441 153.989 319.66 154.387L319.293 153.882C320.28 153.415 321.114 152.121 321.114 150.935V150.063H319.523V149.542H323.357V150.063H321.742ZM324.283 148.846H324.91V155.703H324.283V148.846ZM326.318 149.573H329.456C329.456 151.524 328.56 153.292 326.341 154.402L325.997 153.912C327.749 153.032 328.691 151.716 328.836 150.093H326.318V149.573ZM332.333 151.624V152.144H331.231V155.703H330.604V148.838H331.231V151.624H332.333ZM336.516 155.121V154.195H335.307V155.121H336.516ZM336.516 153.729V152.864H337.098V155.611H334.718V152.864H335.307V153.729H336.516ZM335.812 151.785C336.493 151.785 336.983 151.341 336.983 150.721C336.983 150.101 336.493 149.665 335.812 149.665C335.131 149.665 334.641 150.101 334.641 150.721C334.641 151.341 335.131 151.785 335.812 151.785ZM338.958 150.966H337.565C337.442 151.769 336.754 152.305 335.812 152.305C334.787 152.305 334.044 151.662 334.044 150.721C334.044 149.779 334.787 149.144 335.812 149.144C336.738 149.144 337.427 149.665 337.557 150.453H338.958V148.846H339.593V152.473H338.958V150.966ZM339.042 152.818V153.399C339.042 154.126 339.471 154.877 340.289 155.198L339.976 155.672C339.356 155.412 338.942 154.945 338.736 154.379C338.514 154.938 338.101 155.412 337.504 155.672L337.182 155.198C338.001 154.846 338.43 154.104 338.43 153.399V152.818H339.042ZM340.893 149.58H344.024C344.024 151.532 343.212 153.269 340.932 154.394L340.587 153.905C342.432 153.001 343.281 151.693 343.396 150.086H340.893V149.58ZM345.615 148.846H346.243V155.703H345.615V152.106H344.008V151.593H345.615V148.846ZM348.148 149.504V153.438C349.135 153.438 350.153 153.354 351.263 153.132L351.339 153.652C350.169 153.889 349.12 153.966 348.072 153.966H347.528V149.504H348.148ZM353.635 151.578V152.098H352.533V155.703H351.906V148.838H352.533V151.578H353.635ZM358.346 155.213C359.418 155.213 360.053 154.945 360.053 154.463C360.053 153.981 359.418 153.713 358.346 153.713C357.26 153.713 356.624 153.981 356.624 154.463C356.624 154.945 357.26 155.213 358.346 155.213ZM358.346 153.223C359.801 153.223 360.688 153.667 360.688 154.463C360.688 155.259 359.801 155.703 358.346 155.703C356.877 155.703 355.989 155.259 355.989 154.463C355.989 153.667 356.877 153.223 358.346 153.223ZM358.66 152.228H361.454V152.734H355.239V152.228H358.033V151.433H356.02V149.152H360.681V149.657H356.647V150.927H360.727V151.433H358.66V152.228ZM361.575 156.507L363.871 149.06H364.377L362.088 156.507H361.575ZM370.389 149.841V150.353H364.817V149.841H367.305V148.945H367.932V149.841H370.389ZM365.996 152.121C365.996 152.634 366.616 152.94 367.618 152.94C368.606 152.94 369.218 152.634 369.218 152.121C369.218 151.616 368.606 151.31 367.618 151.31C366.616 151.31 365.996 151.616 365.996 152.121ZM367.932 154.387H370.733V154.899H364.511V154.387H367.305V153.422C366.095 153.354 365.361 152.887 365.361 152.121C365.361 151.295 366.226 150.82 367.618 150.82C368.988 150.82 369.853 151.295 369.853 152.121C369.853 152.887 369.126 153.346 367.932 153.422V154.387ZM378.406 151.456L378.146 151.961C377.082 151.777 376.049 151.18 375.605 150.353C375.176 151.188 374.143 151.777 373.072 151.961L372.819 151.456C374.067 151.272 375.276 150.445 375.276 149.466V149.083H375.934V149.466C375.934 150.422 377.159 151.272 378.406 151.456ZM378.705 152.703L378.712 153.223H375.903V155.711H375.276V153.223H372.505V152.703H378.705ZM382.821 150.621H384.176V148.846H384.811V152.933H384.176V151.134H382.821V150.621ZM383.204 152.183L382.89 152.672C382.125 152.397 381.536 151.831 381.237 151.126C380.946 151.922 380.311 152.565 379.508 152.871L379.178 152.374C380.204 151.999 380.908 151.073 380.908 150.086V149.848H379.377V149.343H383.043V149.848H381.536V150.086C381.536 150.966 382.209 151.831 383.204 152.183ZM382.546 155.213C383.579 155.213 384.207 154.922 384.207 154.425C384.207 153.928 383.579 153.629 382.546 153.629C381.513 153.629 380.885 153.928 380.885 154.425C380.885 154.922 381.513 155.213 382.546 155.213ZM382.546 153.147C383.954 153.147 384.834 153.614 384.834 154.425C384.834 155.236 383.954 155.703 382.546 155.703C381.138 155.703 380.258 155.236 380.258 154.425C380.258 153.614 381.138 153.147 382.546 153.147ZM390.803 148.838H391.431V155.718H390.803V148.838ZM387.811 149.366C388.829 149.366 389.556 150.3 389.556 151.762C389.556 153.223 388.829 154.157 387.811 154.157C386.793 154.157 386.066 153.223 386.066 151.762C386.066 150.3 386.793 149.366 387.811 149.366ZM387.811 149.933C387.137 149.933 386.663 150.652 386.663 151.762C386.663 152.879 387.137 153.598 387.811 153.598C388.477 153.598 388.951 152.879 388.951 151.762C388.951 150.652 388.477 149.933 387.811 149.933ZM399.44 148.838V152.405H398.813V148.838H399.44ZM395.392 149.795V151.624C395.759 151.616 396.134 151.601 396.509 151.578V149.795H395.392ZM398.124 151.448L398.154 151.907C396.792 152.114 395.193 152.16 393.983 152.167L393.922 151.647C394.19 151.647 394.481 151.647 394.779 151.639V149.795H394.106V149.297H397.787V149.795H397.114V151.54C397.458 151.517 397.795 151.478 398.124 151.448ZM395.598 155.129H399.7V155.627H394.978V153.912H398.82V153.223H394.955V152.734H399.44V154.379H395.598V155.129ZM402.608 152.688V154.303H404.521V152.688C404.231 152.757 403.901 152.795 403.557 152.795C403.22 152.795 402.891 152.757 402.608 152.688ZM403.557 149.764C402.455 149.764 401.667 150.269 401.667 151.035C401.667 151.8 402.455 152.305 403.557 152.305C404.659 152.305 405.455 151.8 405.455 151.035C405.455 150.269 404.659 149.764 403.557 149.764ZM405.149 154.303H406.687V154.823H400.45V154.303H401.98V152.45C401.407 152.152 401.062 151.655 401.062 151.035C401.062 149.963 402.103 149.274 403.557 149.274C405.019 149.274 406.052 149.963 406.052 151.035C406.052 151.655 405.715 152.144 405.149 152.443V154.303ZM411.187 149.68V150.185H407.138V149.68H408.845V148.838H409.472V149.68H411.187ZM408.118 151.838C408.118 152.32 408.539 152.626 409.159 152.626C409.779 152.626 410.207 152.32 410.207 151.838C410.207 151.364 409.779 151.058 409.159 151.058C408.539 151.058 408.118 151.364 408.118 151.838ZM410.804 151.838C410.804 152.611 410.131 153.116 409.159 153.116C408.187 153.116 407.521 152.611 407.521 151.838C407.521 151.073 408.187 150.568 409.159 150.568C410.131 150.568 410.804 151.073 410.804 151.838ZM408.799 153.583V155.037H412.748V155.55H408.171V153.583H408.799ZM412.442 151.103H413.452V151.632H412.442V153.989H411.814V148.838H412.442V151.103ZM420.122 150.614H418.408C417.964 151.716 416.923 152.519 415.446 152.948L415.194 152.45C416.831 151.961 417.849 151.05 417.964 149.864H415.546V149.359H418.645C418.645 149.611 418.615 149.864 418.569 150.101H420.122V148.846H420.757V152.948H420.122V152.045H418.324V151.532H420.122V150.614ZM418.515 155.183C419.525 155.183 420.168 154.869 420.168 154.348C420.168 153.836 419.525 153.522 418.515 153.522C417.505 153.522 416.862 153.836 416.862 154.348C416.862 154.869 417.505 155.183 418.515 155.183ZM418.515 153.024C419.9 153.024 420.788 153.522 420.788 154.348C420.788 155.175 419.9 155.672 418.515 155.672C417.13 155.672 416.242 155.175 416.242 154.348C416.242 153.522 417.13 153.024 418.515 153.024ZM424.851 149.619C423.811 149.619 423.099 150.009 423.099 150.614C423.099 151.226 423.811 151.616 424.851 151.616C425.9 151.616 426.612 151.226 426.612 150.614C426.612 150.009 425.9 149.619 424.851 149.619ZM424.851 152.121C423.428 152.121 422.456 151.54 422.456 150.614C422.456 149.695 423.428 149.114 424.851 149.114C426.283 149.114 427.254 149.695 427.254 150.614C427.254 151.54 426.283 152.121 424.851 152.121ZM427.974 152.772V153.292H425.165V155.711H424.538V153.292H421.759V152.772H427.974ZM430.144 156.438V149.083H431.667V149.473H430.672V156.04H431.667V156.438H430.144ZM436.143 152.19L435.837 152.688C435.049 152.412 434.421 151.846 434.108 151.126C433.817 151.907 433.181 152.519 432.37 152.818L432.041 152.328C433.082 151.961 433.778 151.065 433.778 150.101V149.825H432.21V149.32H435.975V149.825H434.421V150.101C434.421 151.019 435.133 151.853 436.143 152.19ZM432.99 153.859V153.354H437.582V155.703H436.955V153.859H432.99ZM436.955 148.838H437.582V152.994H436.955V148.838ZM442.656 152.03L442.342 152.527C441.576 152.244 440.987 151.677 440.681 150.973C440.39 151.762 439.763 152.382 438.959 152.688L438.63 152.19C439.648 151.831 440.36 150.92 440.36 149.94V149.764H438.829V149.251H442.495V149.764H440.987V149.94C440.987 150.82 441.661 151.677 442.656 152.03ZM443.635 155.098V154.234H440.482V155.098H443.635ZM443.635 153.744V152.894H444.255V155.611H439.862V152.894H440.482V153.744H443.635ZM443.628 148.846H444.255V152.565H443.628V151.019H442.273V150.507H443.628V148.846ZM450.752 150.943V151.448H446.045V149.114H450.706V149.619H446.673V150.943H450.752ZM448.364 155.206C449.436 155.206 450.079 154.938 450.079 154.456C450.079 153.973 449.443 153.706 448.364 153.706C447.285 153.706 446.65 153.973 446.65 154.456C446.65 154.938 447.285 155.206 448.364 155.206ZM448.364 153.216C449.826 153.216 450.714 153.66 450.714 154.456C450.714 155.252 449.826 155.695 448.364 155.695C446.903 155.695 446.015 155.252 446.015 154.456C446.015 153.66 446.903 153.216 448.364 153.216ZM445.265 152.106H451.479V152.626H445.265V152.106ZM452.611 154.165V153.652H457.387V155.642H456.759V154.165H452.611ZM455.351 152.611H458.145V153.124H451.915V152.611H454.716V151.892H452.718V150.216H456.729V149.504H452.703V149.014H457.349V150.683H453.338V151.402H457.494V151.892H455.351V152.611ZM458.435 156.438V156.04H459.43V149.473H458.435V149.083H459.958V156.438H458.435ZM463.883 149.427C462.758 149.427 462.115 149.688 462.115 150.147C462.115 150.606 462.758 150.866 463.883 150.866C465.008 150.866 465.651 150.606 465.651 150.147C465.651 149.688 465.008 149.427 463.883 149.427ZM463.883 151.333C462.375 151.333 461.472 150.92 461.472 150.147C461.472 149.374 462.375 148.953 463.883 148.953C465.391 148.953 466.294 149.374 466.294 150.147C466.294 150.92 465.391 151.333 463.883 151.333ZM462.161 154.44V155.137H466.401V155.627H461.549V153.981H465.574V153.369H461.526V152.894H466.194V154.44H462.161ZM460.776 151.8H466.99V152.305H460.776V151.8ZM473.791 153.973V150.973H472.29V150.453H473.791V148.846H474.426V153.973H473.791ZM472.78 152.351L472.451 152.833C471.694 152.535 471.104 151.945 470.813 151.203C470.523 152.022 469.91 152.672 469.107 152.994L468.778 152.496C469.803 152.121 470.492 151.149 470.492 150.101V149.251H471.12V150.124C471.12 151.081 471.793 151.984 472.78 152.351ZM470.637 155.037H474.586V155.55H470.01V153.407H470.637V155.037ZM478.642 151.945L478.703 152.45C477.915 152.611 477.264 152.642 476.162 152.642H475.726V149.343H478.374V149.848H476.331V150.713H478.298V151.195H476.331V152.129C477.31 152.129 477.923 152.091 478.642 151.945ZM476.606 153.866V153.361H481.221V155.703H480.594V153.866H476.606ZM480.617 148.846H481.221V153.001H480.617V151.142H479.698V152.956H479.101V148.968H479.698V150.629H480.617V148.846ZM483.784 153.591C484.313 153.591 484.695 153.155 484.695 152.542C484.695 151.945 484.313 151.509 483.784 151.509C483.249 151.509 482.874 151.945 482.874 152.542C482.874 153.155 483.249 153.591 483.784 153.591ZM483.784 150.981C484.634 150.981 485.254 151.624 485.254 152.542C485.254 153.476 484.634 154.111 483.784 154.111C482.935 154.111 482.315 153.476 482.315 152.542C482.315 151.624 482.935 150.981 483.784 150.981ZM484.091 149.037V150.009H485.483V150.522H482.078V150.009H483.471V149.037H484.091ZM487.297 148.83H487.902V155.695H487.297V152.244H486.417V155.366H485.828V148.991H486.417V151.731H487.297V148.83ZM489.355 152.175L489.118 151.677C490.312 151.501 491.498 150.713 491.498 149.81V149.772H489.332V149.267H494.345V149.772H492.195V149.81C492.195 150.713 493.381 151.501 494.59 151.677L494.345 152.175C493.281 151.991 492.264 151.417 491.85 150.606C491.429 151.417 490.419 151.991 489.355 152.175ZM494.95 152.749L494.958 153.262H492.149V155.703H491.521V153.262H488.751V152.749H494.95ZM497.437 149.489V150.774C497.437 151.876 497.949 153.04 498.852 153.591L498.493 154.081C497.842 153.683 497.383 152.956 497.138 152.121C496.893 153.032 496.396 153.805 495.715 154.226L495.324 153.759C496.266 153.208 496.832 151.976 496.832 150.797V149.489H497.437ZM499.243 151.302V148.991H499.832V155.366H499.243V151.823H498.11V151.302H499.243ZM500.636 148.838H501.233V155.703H500.636V148.838ZM504.209 152.688V154.303H506.122V152.688C505.832 152.757 505.502 152.795 505.158 152.795C504.821 152.795 504.492 152.757 504.209 152.688ZM505.158 149.764C504.056 149.764 503.268 150.269 503.268 151.035C503.268 151.8 504.056 152.305 505.158 152.305C506.26 152.305 507.056 151.8 507.056 151.035C507.056 150.269 506.26 149.764 505.158 149.764ZM506.75 154.303H508.288V154.823H502.051V154.303H503.582V152.45C503.008 152.152 502.663 151.655 502.663 151.035C502.663 149.963 503.704 149.274 505.158 149.274C506.62 149.274 507.653 149.963 507.653 151.035C507.653 151.655 507.316 152.144 506.75 152.443V154.303ZM509.374 155.236C509.099 155.236 508.869 155.022 508.869 154.708C508.869 154.387 509.099 154.165 509.374 154.165C509.65 154.165 509.88 154.387 509.88 154.708C509.88 155.022 509.65 155.236 509.374 155.236Z" fill="#FF5959"/>
<line x1="72.2266" y1="169.096" x2="679.775" y2="169.096" stroke="#DEDFE5" stroke-width="0.58871"/>
<path d="M80.7021 198.983C81.79 198.983 82.4082 198.744 82.4082 198.282C82.4082 197.829 81.79 197.581 80.7021 197.581C79.6142 197.581 79.0043 197.829 79.0043 198.282C79.0043 198.744 79.6142 198.983 80.7021 198.983ZM80.7021 196.93C82.301 196.93 83.2654 197.425 83.2654 198.282C83.2654 199.147 82.301 199.642 80.7021 199.642C79.1114 199.642 78.1389 199.147 78.1389 198.282C78.1389 197.425 79.1114 196.93 80.7021 196.93ZM81.1472 195.785H84.0895V196.477H77.3641V195.785H80.2983V195.043H78.1966V192.521H83.2654V193.197H79.0372V194.359H83.3148V195.043H81.1472V195.785ZM84.2043 200.483L86.4955 192.414H87.1549L84.8636 200.483H84.2043ZM93.7208 193.205V193.889H87.63V193.205H90.2592V192.29H91.1081V193.205H93.7208ZM89.0641 195.743C89.0641 196.238 89.6576 196.518 90.6713 196.518C91.6933 196.518 92.2867 196.238 92.2867 195.743C92.2867 195.257 91.6933 194.977 90.6713 194.977C89.6576 194.977 89.0641 195.257 89.0641 195.743ZM91.1081 198.125H94.067V198.826H87.3168V198.125H90.2592V197.169C88.9817 197.079 88.1987 196.568 88.1987 195.743C88.1987 194.845 89.1548 194.318 90.6713 194.318C92.1961 194.318 93.1521 194.845 93.1521 195.743C93.1521 196.568 92.3856 197.07 91.1081 197.169V198.125Z" fill="#4D4C61"/>
<g clip-path="url(#clip3_5308_111657)">
<path d="M95.5509 191.864C95.5982 191.722 95.6999 191.604 95.8337 191.536C95.9675 191.469 96.1227 191.456 96.2655 191.502L97.3138 191.846V190.741C97.3138 190.591 97.3733 190.448 97.4791 190.342C97.5849 190.236 97.7283 190.177 97.878 190.177C98.0276 190.177 98.1711 190.236 98.2769 190.342C98.3827 190.448 98.4421 190.591 98.4421 190.741V191.846L99.4904 191.502C99.5611 191.479 99.6357 191.47 99.7098 191.476C99.784 191.482 99.8563 191.502 99.9227 191.535C99.989 191.569 100.048 191.615 100.097 191.672C100.145 191.728 100.182 191.794 100.205 191.864C100.228 191.935 100.237 192.01 100.231 192.084C100.226 192.158 100.206 192.23 100.172 192.297C100.138 192.363 100.092 192.422 100.036 192.471C99.9791 192.519 99.9137 192.556 99.843 192.579L98.79 192.917L99.4387 193.811C99.5263 193.932 99.5625 194.083 99.5397 194.231C99.5168 194.378 99.4366 194.511 99.3165 194.6C99.2188 194.67 99.1024 194.707 98.9827 194.709C98.8937 194.707 98.8061 194.686 98.727 194.645C98.6478 194.604 98.5793 194.545 98.5267 194.474L97.878 193.58L97.2292 194.474C97.1767 194.545 97.1081 194.604 97.029 194.645C96.9498 194.686 96.8623 194.707 96.7732 194.709C96.6535 194.707 96.5371 194.67 96.4394 194.6C96.3193 194.511 96.2391 194.378 96.2163 194.231C96.1934 194.083 96.2297 193.932 96.3172 193.811L96.966 192.917L95.9129 192.579C95.7706 192.532 95.6526 192.43 95.5848 192.296C95.517 192.162 95.5049 192.007 95.5509 191.864Z" fill="#FF5959"/>
</g>
<rect x="152.585" y="176.749" width="58.2822" height="20.6048" rx="3.2379" fill="white"/>
<rect x="152.585" y="176.749" width="58.2822" height="20.6048" rx="3.2379" stroke="#DEDFE5" stroke-width="0.58871"/>
<path d="M160.783 191.134C161.937 191.134 162.621 190.846 162.621 190.326C162.621 189.807 161.937 189.519 160.783 189.519C159.613 189.519 158.929 189.807 158.929 190.326C158.929 190.846 159.613 191.134 160.783 191.134ZM160.783 188.991C162.349 188.991 163.305 189.469 163.305 190.326C163.305 191.184 162.349 191.662 160.783 191.662C159.201 191.662 158.245 191.184 158.245 190.326C158.245 189.469 159.201 188.991 160.783 188.991ZM161.121 187.92H164.129V188.464H157.437V187.92H160.445V187.063H158.277V184.607H163.297V185.151H158.953V186.519H163.346V187.063H161.121V187.92ZM170.013 189.799V186.568H168.398V186.008H170.013V184.277H170.697V189.799H170.013ZM168.925 188.052L168.571 188.571C167.755 188.25 167.12 187.615 166.807 186.815C166.494 187.697 165.835 188.398 164.969 188.744L164.615 188.208C165.719 187.804 166.461 186.758 166.461 185.629V184.714H167.137V185.653C167.137 186.684 167.862 187.656 168.925 188.052ZM166.618 190.945H170.871V191.497H165.942V189.189H166.618V190.945ZM175.238 187.615L175.304 188.159C174.455 188.332 173.755 188.365 172.568 188.365H172.098V184.813H174.95V185.357H172.749V186.288H174.867V186.807H172.749V187.813C173.804 187.813 174.463 187.771 175.238 187.615ZM173.046 189.684V189.14H178.016V191.662H177.34V189.684H173.046ZM177.365 184.277H178.016V188.752H177.365V186.749H176.375V188.703H175.733V184.409H176.375V186.197H177.365V184.277Z" fill="#4D4C61"/>
<path d="M199.389 186.168L201.744 188.523L204.098 186.168" stroke="#9393A3" stroke-width="0.58871" stroke-linecap="round" stroke-linejoin="round"/>
<rect x="232.062" y="176.749" width="58.2822" height="20.6048" rx="3.2379" fill="white"/>
<rect x="232.062" y="176.749" width="58.2822" height="20.6048" rx="3.2379" stroke="#DEDFE5" stroke-width="0.58871"/>
<path d="M242.32 189.799V186.568H240.705V186.008H242.32V184.277H243.004V189.799H242.32ZM241.232 188.052L240.878 188.571C240.062 188.25 239.427 187.615 239.114 186.815C238.801 187.697 238.141 188.398 237.276 188.744L236.922 188.208C238.026 187.804 238.768 186.758 238.768 185.629V184.714H239.444V185.653C239.444 186.684 240.169 187.656 241.232 188.052ZM238.924 190.945H243.177V191.497H238.249V189.189H238.924V190.945ZM247.545 187.615L247.611 188.159C246.762 188.332 246.061 188.365 244.874 188.365H244.405V184.813H247.256V185.357H245.056V186.288H247.174V186.807H245.056V187.813C246.111 187.813 246.77 187.771 247.545 187.615ZM245.352 189.684V189.14H250.322V191.662H249.647V189.684H245.352ZM249.671 184.277H250.322V188.752H249.671V186.749H248.682V188.703H248.039V184.409H248.682V186.197H249.671V184.277Z" fill="#4D4C61"/>
<path d="M278.865 186.168L281.22 188.523L283.575 186.168" stroke="#9393A3" stroke-width="0.58871" stroke-linecap="round" stroke-linejoin="round"/>
<path d="M218.476 191.836C219.63 191.836 220.314 191.548 220.314 191.029C220.314 190.509 219.63 190.221 218.476 190.221C217.306 190.221 216.622 190.509 216.622 191.029C216.622 191.548 217.306 191.836 218.476 191.836ZM218.476 189.693C220.042 189.693 220.998 190.171 220.998 191.029C220.998 191.886 220.042 192.364 218.476 192.364C216.894 192.364 215.938 191.886 215.938 191.029C215.938 190.171 216.894 189.693 218.476 189.693ZM218.814 188.622H221.823V189.166H215.13V188.622H218.138V187.765H215.971V185.309H220.99V185.853H216.647V187.221H221.04V187.765H218.814V188.622Z" fill="black"/>
<path d="M300.937 186.05V186.603H294.936V186.05H297.615V185.086H298.291V186.05H300.937ZM296.206 188.507C296.206 189.059 296.873 189.388 297.953 189.388C299.016 189.388 299.676 189.059 299.676 188.507C299.676 187.963 299.016 187.633 297.953 187.633C296.873 187.633 296.206 187.963 296.206 188.507ZM298.291 190.946H301.307V191.498H294.607V190.946H297.615V189.908C296.313 189.834 295.522 189.331 295.522 188.507C295.522 187.616 296.453 187.105 297.953 187.105C299.428 187.105 300.36 187.616 300.36 188.507C300.36 189.331 299.577 189.825 298.291 189.908V190.946Z" fill="black"/>
<rect x="321.008" y="176.455" width="75.3548" height="21.1935" rx="3.53226" fill="#FF951A"/>
<path d="M340.324 191.035C341.412 191.035 342.031 190.796 342.031 190.335C342.031 189.881 341.412 189.634 340.324 189.634C339.237 189.634 338.627 189.881 338.627 190.335C338.627 190.796 339.237 191.035 340.324 191.035ZM340.324 188.983C341.923 188.983 342.888 189.478 342.888 190.335C342.888 191.2 341.923 191.695 340.324 191.695C338.734 191.695 337.761 191.2 337.761 190.335C337.761 189.478 338.734 188.983 340.324 188.983ZM340.77 187.837H343.712V188.53H336.986V187.837H339.921V187.096H337.819V184.574H342.888V185.249H338.66V186.412H342.937V187.096H340.77V187.837ZM350.445 184.236V188.019H349.596V184.236H350.445ZM345.277 186.164C345.277 186.758 345.755 187.145 346.398 187.145C347.049 187.145 347.535 186.758 347.535 186.164C347.535 185.571 347.049 185.184 346.398 185.184C345.755 185.184 345.277 185.571 345.277 186.164ZM348.36 186.164C348.36 187.145 347.527 187.837 346.398 187.837C345.277 187.837 344.453 187.145 344.453 186.164C344.453 185.184 345.277 184.483 346.398 184.483C347.527 184.483 348.36 185.184 348.36 186.164ZM346.415 190.928H350.667V191.596H345.582V189.642H349.604V189.024H345.566V188.357H350.445V190.269H346.415V190.928ZM352.323 187.887L352.018 187.219C353.436 187.03 354.483 186.214 354.532 185.348H352.266V184.664H357.747V185.348H355.497C355.546 186.214 356.593 187.03 358.01 187.219L357.705 187.887C356.477 187.706 355.464 187.096 355.01 186.271C354.557 187.096 353.551 187.706 352.323 187.887ZM358.381 188.431L358.373 189.115H355.414V191.695H354.565V189.115H351.648V188.431H358.381ZM365.436 187.763L365.081 188.472C363.861 188.233 362.807 187.491 362.328 186.502C361.834 187.491 360.779 188.233 359.567 188.472L359.205 187.763C360.68 187.516 361.875 186.403 361.875 185.258V184.697H362.774V185.258C362.774 186.412 363.969 187.516 365.436 187.763ZM362.741 190.063H365.724V190.763H358.982V190.063H361.892V188.324H362.741V190.063ZM370.693 184.87V185.488H366.441V184.87H368.147V184.178H369.004V184.87H370.693ZM367.594 186.832C367.594 187.162 367.974 187.359 368.567 187.359C369.16 187.359 369.54 187.162 369.54 186.832C369.54 186.494 369.16 186.288 368.567 186.288C367.974 186.288 367.594 186.494 367.594 186.832ZM370.899 188.2L370.965 188.793C369.391 189.074 367.652 189.082 366.35 189.09L366.251 188.414C366.811 188.414 367.463 188.414 368.147 188.398V187.903C367.306 187.813 366.795 187.417 366.795 186.832C366.795 186.14 367.496 185.719 368.567 185.719C369.638 185.719 370.339 186.14 370.339 186.832C370.339 187.417 369.828 187.804 369.004 187.903V188.365C369.647 188.332 370.298 188.291 370.899 188.2ZM367.174 190.285V189.609H372.144V191.695H371.295V190.285H367.174ZM373.166 186.445V187.145H372.144V189.28H371.295V184.252H372.144V186.445H373.166ZM379.784 184.244V189.651H378.935V184.244H379.784ZM374.624 186.601C374.624 187.277 375.11 187.73 375.77 187.73C376.421 187.73 376.915 187.277 376.915 186.601C376.915 185.917 376.421 185.472 375.77 185.472C375.11 185.472 374.624 185.917 374.624 186.601ZM377.74 186.601C377.74 187.681 376.891 188.464 375.77 188.464C374.649 188.464 373.792 187.681 373.792 186.601C373.792 185.513 374.649 184.738 375.77 184.738C376.891 184.738 377.74 185.513 377.74 186.601ZM375.778 190.854H379.998V191.546H374.921V189.107H375.778V190.854Z" fill="white"/>
<path d="M153.47 207.754L153.133 207.509L153.615 206.713L152.788 206.368L152.919 205.978L153.791 206.192L153.868 205.266H154.281L154.357 206.185L155.23 205.978L155.36 206.368L154.526 206.713L155.016 207.509L154.679 207.754L154.074 207.027L153.47 207.754ZM160.323 211.435C161.394 211.435 162.029 211.167 162.029 210.685C162.029 210.203 161.394 209.935 160.323 209.935C159.236 209.935 158.601 210.203 158.601 210.685C158.601 211.167 159.236 211.435 160.323 211.435ZM160.323 209.445C161.777 209.445 162.664 209.889 162.664 210.685C162.664 211.481 161.777 211.925 160.323 211.925C158.853 211.925 157.965 211.481 157.965 210.685C157.965 209.889 158.853 209.445 160.323 209.445ZM160.636 208.45H163.43V208.955H157.215V208.45H160.009V207.654H157.996V205.374H162.657V205.879H158.624V207.149H162.703V207.654H160.636V208.45ZM163.552 212.728L165.848 205.282H166.353L164.064 212.728H163.552ZM172.365 206.062V206.575H166.794V206.062H169.281V205.167H169.908V206.062H172.365ZM167.972 208.343C167.972 208.856 168.592 209.162 169.595 209.162C170.582 209.162 171.194 208.856 171.194 208.343C171.194 207.838 170.582 207.532 169.595 207.532C168.592 207.532 167.972 207.838 167.972 208.343ZM169.908 210.608H172.709V211.121H166.487V210.608H169.281V209.644C168.072 209.575 167.337 209.108 167.337 208.343C167.337 207.516 168.202 207.042 169.595 207.042C170.965 207.042 171.829 207.516 171.829 208.343C171.829 209.108 171.102 209.568 169.908 209.644V210.608ZM177.951 206.261V205.703H173.926V205.259H178.571V206.69H174.561V207.279H178.694V207.731H173.941V206.261H177.951ZM174.523 210.746V211.381H178.808V211.833H173.903V210.31H177.974V209.736H173.887V209.284H178.594V210.746H174.523ZM173.145 208.251H179.367V208.726H173.145V208.251ZM186.152 210.195V207.195H184.652V206.675H186.152V205.067H186.787V210.195H186.152ZM185.142 208.573L184.813 209.055C184.055 208.756 183.466 208.167 183.175 207.425C182.884 208.244 182.272 208.894 181.468 209.215L181.139 208.718C182.165 208.343 182.854 207.371 182.854 206.323V205.473H183.481V206.346C183.481 207.302 184.155 208.205 185.142 208.573ZM182.999 211.259H186.948V211.772H182.371V209.629H182.999V211.259ZM191.004 208.167L191.065 208.672C190.277 208.833 189.626 208.863 188.524 208.863H188.088V205.565H190.736V206.07H188.692V206.935H190.659V207.417H188.692V208.351C189.672 208.351 190.284 208.312 191.004 208.167ZM188.968 210.088V209.583H193.583V211.925H192.955V210.088H188.968ZM192.978 205.067H193.583V209.223H192.978V207.363H192.06V209.177H191.463V205.19H192.06V206.851H192.978V205.067ZM196.46 209.874C197.087 209.874 197.539 209.43 197.539 208.818C197.539 208.198 197.087 207.754 196.46 207.754C195.84 207.754 195.388 208.198 195.388 208.818C195.388 209.43 195.84 209.874 196.46 209.874ZM196.46 207.233C197.439 207.233 198.136 207.891 198.136 208.818C198.136 209.751 197.439 210.394 196.46 210.394C195.496 210.394 194.799 209.751 194.799 208.818C194.799 207.891 195.496 207.233 196.46 207.233ZM196.766 205.144V206.162H198.457V206.667H194.409V206.162H196.138V205.144H196.766ZM200.86 207.884V208.412H199.735V211.925H199.108V205.067H199.735V207.884H200.86ZM203.539 205.657V206.889C203.539 208.144 204.357 209.407 205.375 209.866L205 210.371C204.22 209.988 203.561 209.177 203.232 208.198C202.919 209.231 202.26 210.088 201.457 210.501L201.074 209.988C202.084 209.506 202.919 208.19 202.919 206.889V205.657H203.539ZM206.095 205.06H206.722V211.94H206.095V205.06ZM210.594 208.366V206.162H208.696V208.366H210.594ZM212.783 206.782H211.206V207.738H212.783V206.782ZM211.206 208.251V208.863H208.076V205.664H211.206V206.269H212.783V205.067H213.418V210.073H212.783V208.251H211.206ZM209.63 211.259H213.579V211.772H209.002V209.629H209.63V211.259ZM218.581 208.366V206.162H216.683V208.366H218.581ZM220.77 206.782H219.193V207.738H220.77V206.782ZM219.193 208.251V208.863H216.063V205.664H219.193V206.269H220.77V205.067H221.405V210.073H220.77V208.251H219.193ZM217.616 211.259H221.565V211.772H216.989V209.629H217.616V211.259ZM226.455 208.412L226.142 208.902C225.376 208.626 224.787 208.06 224.481 207.348C224.19 208.136 223.562 208.764 222.759 209.062L222.43 208.565C223.448 208.205 224.159 207.287 224.159 206.315V206.039H222.629V205.527H226.295V206.039H224.787V206.315C224.787 207.195 225.46 208.06 226.455 208.412ZM223.471 210.05V209.545H228.062V211.932H227.427V210.05H223.471ZM227.427 205.06H228.062V209.17H227.427V207.363H226.088V206.851H227.427V205.06ZM234.054 205.06H234.682V211.94H234.054V205.06ZM231.062 205.588C232.08 205.588 232.807 206.522 232.807 207.983C232.807 209.445 232.08 210.379 231.062 210.379C230.044 210.379 229.317 209.445 229.317 207.983C229.317 206.522 230.044 205.588 231.062 205.588ZM231.062 206.154C230.388 206.154 229.914 206.874 229.914 207.983C229.914 209.101 230.388 209.82 231.062 209.82C231.728 209.82 232.202 209.101 232.202 207.983C232.202 206.874 231.728 206.154 231.062 206.154ZM239.362 206.284V207.157C239.362 208.251 240.143 209.468 241.138 209.935L240.778 210.44C240.013 210.057 239.37 209.254 239.056 208.335C238.742 209.338 238.077 210.21 237.304 210.608L236.936 210.111C237.916 209.621 238.742 208.32 238.742 207.157V206.284H237.173V205.764H240.885V206.284H239.362ZM243.464 207.83V208.358H242.332V211.925H241.704V205.067H242.332V207.83H243.464ZM246.816 211.435C247.887 211.435 248.523 211.167 248.523 210.685C248.523 210.203 247.887 209.935 246.816 209.935C245.729 209.935 245.094 210.203 245.094 210.685C245.094 211.167 245.729 211.435 246.816 211.435ZM246.816 209.445C248.27 209.445 249.158 209.889 249.158 210.685C249.158 211.481 248.27 211.925 246.816 211.925C245.347 211.925 244.459 211.481 244.459 210.685C244.459 209.889 245.347 209.445 246.816 209.445ZM247.13 208.45H249.923V208.955H243.709V208.45H246.502V207.654H244.489V205.374H249.15V205.879H245.117V207.149H249.196V207.654H247.13V208.45ZM253.466 205.488C254.889 205.488 255.961 206.246 255.961 207.386C255.961 208.534 254.889 209.284 253.466 209.284C252.042 209.284 250.971 208.534 250.971 207.386C250.971 206.246 252.042 205.488 253.466 205.488ZM253.466 206.001C252.387 206.001 251.568 206.56 251.568 207.386C251.568 208.221 252.387 208.772 253.466 208.772C254.553 208.772 255.364 208.221 255.364 207.386C255.364 206.56 254.553 206.001 253.466 206.001ZM250.359 210.494H256.596V211.014H250.359V210.494ZM260.445 210.562H263.254V211.075H257.016V210.562H259.81V209.269H257.797V207.149H261.869V206.078H257.782V205.565H262.481V207.654H258.417V208.764H262.642V209.269H260.445V210.562ZM270.016 205.067H270.643V208.749H270.016V205.067ZM266.22 209.085H266.84V209.927H270.024V209.085H270.643V211.833H266.22V209.085ZM266.84 210.417V211.328H270.024V210.417H266.84ZM266.955 205.389C267.995 205.389 268.753 206.032 268.753 206.965C268.753 207.914 267.995 208.55 266.955 208.55C265.921 208.55 265.171 207.914 265.171 206.965C265.171 206.032 265.921 205.389 266.955 205.389ZM266.955 205.909C266.273 205.909 265.784 206.346 265.784 206.965C265.784 207.593 266.273 208.029 266.955 208.029C267.651 208.029 268.141 207.593 268.141 206.965C268.141 206.346 267.651 205.909 266.955 205.909ZM275.296 208.297L275.357 208.802C274.515 208.948 273.819 208.971 272.449 208.971H271.959V206.935H274.286V205.986H271.936V205.473H274.898V207.417H272.571V208.458C273.842 208.458 274.5 208.427 275.296 208.297ZM272.725 210.164V209.652H277.324V211.932H276.689V210.164H272.725ZM276.689 205.067H277.324V209.284H276.689V208.014H275.35V207.509H276.689V206.59H275.35V206.078H276.689V205.067ZM282.773 208.113L282.811 208.565C281.319 208.818 279.673 208.84 278.441 208.848L278.349 208.343C278.923 208.343 279.597 208.343 280.285 208.312V207.578H278.969V205.404H282.199V205.917H279.589V207.065H282.268V207.578H280.913V208.289C281.548 208.251 282.176 208.205 282.773 208.113ZM283.339 211.328V210.532H280.086V211.328H283.339ZM283.339 210.042V209.323H283.959V211.833H279.459V209.323H280.086V210.042H283.339ZM283.331 205.067H283.959V209.017H283.331V205.067ZM286.04 205.726V209.613C287.073 209.613 288.137 209.522 289.277 209.292L289.346 209.828C288.152 210.073 287.073 210.149 285.979 210.149H285.412V205.726H286.04ZM289.981 205.06H290.609V211.917H289.981V205.06ZM292.56 206.238V209.69C293.777 209.69 294.657 209.636 295.652 209.46L295.721 209.981C294.672 210.18 293.769 210.226 292.476 210.226H291.932V205.718H295.124V206.238H292.56ZM298.055 207.769V208.289H296.922V211.94H296.295V205.06H296.922V207.769H298.055ZM298.957 211.458C298.682 211.458 298.452 211.244 298.452 210.93C298.452 210.608 298.682 210.386 298.957 210.386C299.233 210.386 299.463 210.608 299.463 210.93C299.463 211.244 299.233 211.458 298.957 211.458Z" fill="#FD3629"/>
<line x1="72.2266" y1="220.314" x2="679.775" y2="220.314" stroke="#DEDFE5" stroke-width="0.58871"/>
<path d="M81.3203 237.456H82.6719V235.47H83.5209V240.91H82.6719V238.157H81.3203V237.456ZM81.7818 239.195L81.3615 239.855C80.5373 239.574 79.9356 238.989 79.6224 238.256C79.2927 239.063 78.6664 239.715 77.7845 240.019L77.3476 239.352C78.5015 238.948 79.1774 237.967 79.1774 236.962V236.706H77.6031V236.022H81.584V236.706H80.0345V236.962C80.0345 237.877 80.6691 238.808 81.7818 239.195ZM79.5482 242.072H83.7104V242.764H78.6993V240.44H79.5482V242.072ZM87.8719 242.253C88.9599 242.253 89.578 242.022 89.578 241.569C89.578 241.124 88.9599 240.885 87.8719 240.885C86.784 240.885 86.1741 241.124 86.1741 241.569C86.1741 242.022 86.784 242.253 87.8719 242.253ZM87.8719 240.234C89.4791 240.234 90.4352 240.72 90.4352 241.569C90.4352 242.426 89.4791 242.904 87.8719 242.904C86.273 242.904 85.3087 242.426 85.3087 241.569C85.3087 240.72 86.273 240.234 87.8719 240.234ZM86.9653 238.322V239.08H88.795V238.322C88.5231 238.363 88.2181 238.388 87.8884 238.388C87.5588 238.388 87.2373 238.363 86.9653 238.322ZM87.8884 236.245C86.7758 236.245 86.1082 236.508 86.1082 236.986C86.1082 237.464 86.7758 237.736 87.8884 237.736C88.9929 237.736 89.6604 237.464 89.6604 236.986C89.6604 236.508 88.9929 236.245 87.8884 236.245ZM89.644 239.08H91.2511V239.756H84.5175V239.08H86.1164V238.091C85.556 237.852 85.2345 237.473 85.2345 236.986C85.2345 236.113 86.2565 235.585 87.8884 235.585C89.5121 235.585 90.5423 236.113 90.5423 236.986C90.5423 237.473 90.2127 237.852 89.644 238.099V239.08ZM94.6379 238.965V236.756H92.8494V238.965H94.6379ZM97.0116 237.399H95.4621V238.305H97.0116V237.399ZM95.4621 238.989V239.64H92.017V236.08H95.4621V236.706H97.0116V235.462H97.8605V240.893H97.0116V238.989H95.4621ZM93.8714 242.072H98.0336V242.764H93.0143V240.399H93.8714V242.072ZM103.291 238.989L102.871 239.649C102.047 239.36 101.453 238.775 101.132 238.058C100.802 238.857 100.176 239.5 99.294 239.805L98.8572 239.138C100.011 238.742 100.687 237.761 100.687 236.756V236.607H99.1127V235.923H103.094V236.607H101.544V236.747C101.544 237.671 102.179 238.602 103.291 238.989ZM100.011 240.959V240.275H105.03V242.904H104.181V240.959H100.011ZM104.181 235.453H105.03V239.904H104.181V238.025H102.879V237.324H104.181V235.453Z" fill="#4D4C61"/>
<g clip-path="url(#clip4_5308_111657)">
<path d="M107.551 235.135C107.598 234.993 107.7 234.875 107.834 234.807C107.968 234.739 108.123 234.727 108.266 234.773L109.314 235.116V234.011C109.314 233.862 109.373 233.718 109.479 233.612C109.585 233.507 109.728 233.447 109.878 233.447C110.028 233.447 110.171 233.507 110.277 233.612C110.383 233.718 110.442 233.862 110.442 234.011V235.116L111.49 234.773C111.561 234.75 111.636 234.741 111.71 234.746C111.784 234.752 111.856 234.772 111.923 234.806C111.989 234.84 112.048 234.886 112.097 234.942C112.145 234.999 112.182 235.064 112.205 235.135C112.228 235.206 112.237 235.28 112.231 235.354C112.226 235.429 112.206 235.501 112.172 235.567C112.138 235.634 112.092 235.693 112.036 235.741C111.979 235.79 111.914 235.826 111.843 235.85L110.79 236.188L111.439 237.081C111.526 237.202 111.563 237.353 111.54 237.501C111.517 237.649 111.437 237.782 111.316 237.871C111.219 237.94 111.102 237.978 110.983 237.979C110.894 237.978 110.806 237.956 110.727 237.915C110.648 237.875 110.579 237.816 110.527 237.744L109.878 236.851L109.229 237.744C109.177 237.816 109.108 237.875 109.029 237.915C108.95 237.956 108.862 237.978 108.773 237.979C108.654 237.978 108.537 237.94 108.439 237.871C108.319 237.782 108.239 237.649 108.216 237.501C108.193 237.353 108.23 237.202 108.317 237.081L108.966 236.188L107.913 235.85C107.771 235.802 107.653 235.701 107.585 235.567C107.517 235.433 107.505 235.278 107.551 235.135Z" fill="#FF5959"/>
</g>
<rect x="152.585" y="227.967" width="140.702" height="20.6048" rx="3.2379" fill="white"/>
<rect x="152.585" y="227.967" width="140.702" height="20.6048" rx="3.2379" stroke="#DEDFE5" stroke-width="0.58871"/>
<path d="M162.844 241.017V237.786H161.228V237.225H162.844V235.495H163.528V241.017H162.844ZM161.756 239.269L161.401 239.789C160.585 239.467 159.951 238.833 159.637 238.033C159.324 238.915 158.665 239.616 157.799 239.962L157.445 239.426C158.549 239.022 159.291 237.975 159.291 236.846V235.931H159.967V236.871C159.967 237.901 160.692 238.874 161.756 239.269ZM159.448 242.162H163.701V242.715H158.772V240.407H159.448V242.162ZM168.068 238.833L168.134 239.377C167.285 239.55 166.585 239.583 165.398 239.583H164.928V236.03H167.78V236.574H165.579V237.506H167.697V238.025H165.579V239.03C166.634 239.03 167.294 238.989 168.068 238.833ZM165.876 240.901V240.357H170.846V242.879H170.17V240.901H165.876ZM170.195 235.495H170.846V239.97H170.195V237.967H169.206V239.921H168.563V235.627H169.206V237.415H170.195V235.495Z" fill="#4D4C61"/>
<path d="M281.809 237.386L284.163 239.741L286.518 237.386" stroke="#9393A3" stroke-width="0.58871" stroke-linecap="round" stroke-linejoin="round"/>
<path d="M308.89 238.165L308.553 237.92L309.035 237.124L308.208 236.78L308.339 236.389L309.211 236.604L309.288 235.678H309.701L309.777 236.596L310.65 236.389L310.78 236.78L309.946 237.124L310.435 237.92L310.099 238.165L309.494 237.438L308.89 238.165ZM316.232 238.134L315.62 238.081C315.781 237.354 315.796 236.818 315.796 236.405H313.01V235.9H316.408V236.267C316.408 236.703 316.408 237.323 316.232 238.134ZM316.89 238.563L316.936 239.022C315.513 239.244 313.89 239.282 312.658 239.282L312.589 238.762C313.026 238.762 313.531 238.762 314.043 238.747V237.392H314.663V238.731C315.413 238.701 316.186 238.647 316.89 238.563ZM315.765 241.823C316.783 241.823 317.411 241.548 317.411 241.073C317.411 240.606 316.783 240.331 315.765 240.331C314.748 240.331 314.12 240.606 314.12 241.073C314.12 241.548 314.748 241.823 315.765 241.823ZM315.765 239.841C317.174 239.841 318.046 240.292 318.046 241.073C318.046 241.869 317.174 242.321 315.765 242.321C314.357 242.321 313.485 241.869 313.485 241.073C313.485 240.292 314.357 239.841 315.765 239.841ZM317.977 237.346H318.949V237.866H317.977V239.749H317.35V235.463H317.977V237.346ZM324.137 236.841V236.672H319.951V236.16H324.765V236.841C324.765 237.69 324.765 238.632 324.505 240.017L323.877 239.948C324.137 238.632 324.137 237.667 324.137 236.841ZM322.339 240.859H325.507V241.372H319.301V240.859H321.711V238.402H322.339V240.859ZM330.701 240.935H333.509V241.448H327.272V240.935H330.073V239.099H328.037V236.06H328.665V238.593H332.797V239.099H330.701V240.935ZM334.45 238.211L334.266 237.736C335.537 237.652 336.585 237.231 336.692 236.55H334.572V236.076H336.731V235.425H337.358V236.076H339.509V236.55H337.396C337.504 237.231 338.537 237.652 339.815 237.736L339.624 238.211C338.476 238.119 337.465 237.767 337.044 237.132C336.624 237.767 335.606 238.119 334.45 238.211ZM340.136 238.999H337.358V239.634H339.348V241.134H335.315V241.785H339.555V242.259H334.703V240.683H338.728V240.101H334.68V239.634H336.723V238.999H333.945V238.517H340.136V238.999ZM347.763 236.259V236.764H342.245V236.259H344.71V235.433H345.345V236.259H347.763ZM346.6 238.303C346.6 237.882 346.034 237.637 345.031 237.637C344.028 237.637 343.447 237.882 343.447 238.303C343.447 238.724 344.028 238.968 345.031 238.968C346.034 238.968 346.6 238.724 346.6 238.303ZM342.796 238.303C342.796 237.568 343.63 237.155 345.031 237.155C346.416 237.155 347.25 237.568 347.25 238.303C347.25 239.037 346.416 239.443 345.031 239.443C343.63 239.443 342.796 239.037 342.796 238.303ZM348.146 239.925V240.438H345.345V242.344H344.71V240.438H341.924V239.925H348.146ZM350.135 240.247C350.671 240.247 351.023 239.55 351.023 238.425C351.023 237.323 350.671 236.627 350.135 236.627C349.584 236.627 349.24 237.323 349.24 238.425C349.24 239.55 349.584 240.247 350.135 240.247ZM352.454 238.142V235.624H353.051V241.999H352.454V238.655H351.589C351.536 240.002 350.977 240.828 350.135 240.828C349.24 240.828 348.666 239.91 348.666 238.425C348.666 236.963 349.24 236.045 350.135 236.045C350.962 236.045 351.513 236.849 351.589 238.142H352.454ZM353.816 235.471H354.413V242.336H353.816V235.471ZM360.742 237.537V238.05H356.073V235.723H356.701V237.537H360.742ZM356.655 240.162V241.655H360.78V242.167H356.027V240.162H356.655ZM355.232 238.968H361.454V239.474H355.232V238.968ZM369.134 238.088L368.874 238.593C367.81 238.41 366.777 237.813 366.333 236.986C365.904 237.82 364.871 238.41 363.8 238.593L363.547 238.088C364.795 237.905 366.004 237.078 366.004 236.098V235.716H366.662V236.098C366.662 237.055 367.887 237.905 369.134 238.088ZM369.433 239.336L369.44 239.856H366.631V242.344H366.004V239.856H363.233V239.336H369.433ZM373.549 237.254H374.904V235.479H375.539V239.565H374.904V237.767H373.549V237.254ZM373.932 238.815L373.618 239.305C372.853 239.03 372.264 238.463 371.965 237.759C371.674 238.555 371.039 239.198 370.236 239.504L369.906 239.007C370.932 238.632 371.636 237.706 371.636 236.718V236.481H370.105V235.976H373.771V236.481H372.264V236.718C372.264 237.599 372.937 238.463 373.932 238.815ZM373.274 241.846C374.307 241.846 374.935 241.555 374.935 241.058C374.935 240.56 374.307 240.262 373.274 240.262C372.241 240.262 371.613 240.56 371.613 241.058C371.613 241.555 372.241 241.846 373.274 241.846ZM373.274 239.78C374.682 239.78 375.562 240.247 375.562 241.058C375.562 241.869 374.682 242.336 373.274 242.336C371.866 242.336 370.986 241.869 370.986 241.058C370.986 240.247 371.866 239.78 373.274 239.78ZM381.531 235.471H382.159V242.351H381.531V235.471ZM378.539 235.999C379.557 235.999 380.284 236.933 380.284 238.394C380.284 239.856 379.557 240.79 378.539 240.79C377.521 240.79 376.794 239.856 376.794 238.394C376.794 236.933 377.521 235.999 378.539 235.999ZM378.539 236.565C377.865 236.565 377.391 237.285 377.391 238.394C377.391 239.512 377.865 240.231 378.539 240.231C379.204 240.231 379.679 239.512 379.679 238.394C379.679 237.285 379.204 236.565 378.539 236.565ZM389.303 237.361V236.703H385.967V237.361H389.303ZM389.923 235.578V237.843H385.347V235.578H385.967V236.229H389.303V235.578H389.923ZM390.734 238.907H387.941V239.581H389.939V241.111H385.905V241.777H390.145V242.259H385.293V240.652H389.319V240.055H385.27V239.581H387.314V238.907H384.52V238.402H390.734V238.907ZM391.553 236.206H394.691C394.691 238.157 393.795 239.925 391.576 241.035L391.231 240.545C392.984 239.665 393.925 238.349 394.071 236.726H391.553V236.206ZM397.568 238.257V238.777H396.466V242.336H395.839V235.471H396.466V238.257H397.568ZM401.915 236.175V236.68H397.866V236.175H399.573V235.402H400.2V236.175H401.915ZM398.846 238.203C398.846 238.655 399.259 238.93 399.887 238.93C400.514 238.93 400.935 238.655 400.935 238.203C400.935 237.759 400.514 237.476 399.887 237.476C399.259 237.476 398.846 237.759 398.846 238.203ZM401.532 238.203C401.532 238.938 400.866 239.405 399.887 239.405C398.907 239.405 398.249 238.938 398.249 238.203C398.249 237.476 398.907 237.009 399.887 237.009C400.866 237.009 401.532 237.476 401.532 238.203ZM402.55 241.739V240.981H399.473V241.739H402.55ZM402.55 240.491V239.764H403.17V242.244H398.853V239.764H399.473V240.491H402.55ZM404.188 237.216V237.744H403.17V239.458H402.542V235.471H403.17V237.216H404.188ZM405.557 236.137V240.025C406.59 240.025 407.654 239.933 408.794 239.703L408.863 240.239C407.669 240.484 406.59 240.56 405.496 240.56H404.929V236.137H405.557ZM409.498 235.471H410.126V242.328H409.498V235.471ZM412.077 236.65V240.101C413.294 240.101 414.174 240.048 415.169 239.872L415.238 240.392C414.189 240.591 413.286 240.637 411.993 240.637H411.449V236.129H414.641V236.65H412.077ZM417.572 238.18V238.701H416.439V242.351H415.812V235.471H416.439V238.18H417.572ZM418.474 241.869C418.199 241.869 417.969 241.655 417.969 241.341C417.969 241.02 418.199 240.798 418.474 240.798C418.75 240.798 418.98 241.02 418.98 241.341C418.98 241.655 418.75 241.869 418.474 241.869Z" fill="#9393A3"/>
<line x1="72.2266" y1="255.636" x2="679.775" y2="255.636" stroke="#DEDFE5" stroke-width="0.58871"/>
<g filter="url(#filter0_d_5308_111657)">
<rect x="149" y="118.879" width="182.4" height="87.1467" rx="3.04" fill="white"/>
<rect x="149.253" y="119.132" width="181.893" height="86.64" rx="2.78667" stroke="#EAEBF0" stroke-width="0.506667"/>
<rect x="153.306" y="123.186" width="173.787" height="17.7333" rx="2.78667" fill="white"/>
<rect x="153.306" y="123.186" width="173.787" height="17.7333" rx="2.78667" stroke="#DEDFE5" stroke-width="0.506667"/>
<path d="M161.163 132.003L161.227 132.471C160.354 132.648 159.602 132.691 158.269 132.691H157.772V129.768H160.588V130.236H158.354V132.215C159.609 132.215 160.333 132.166 161.163 132.003ZM159.042 133.357V134.961H162.702V135.436H158.46V133.357H159.042ZM162.418 131.102H163.362V131.584H162.418V133.818H161.837V129.215H162.418V131.102ZM165.922 130.35V131.158C165.922 132.237 166.688 133.336 167.624 133.733L167.298 134.202C166.56 133.861 165.936 133.13 165.631 132.258C165.34 133.187 164.716 133.989 163.993 134.358L163.652 133.889C164.567 133.457 165.34 132.258 165.34 131.158V130.35H163.865V129.868H167.419V130.35H165.922ZM168.277 129.222H168.859V135.578H168.277V129.222ZM170.773 132.074V133.563C171.816 133.563 172.752 133.513 173.866 133.336L173.923 133.811C172.774 134.003 171.809 134.045 170.716 134.045H170.192V131.605H172.532V130.279H170.17V129.804H173.121V132.074H170.773ZM174.462 129.208H175.043V135.585H174.462V129.208ZM181.477 132.414L181.214 132.896C180.249 132.676 179.256 131.996 178.852 131.059C178.448 131.988 177.455 132.669 176.497 132.896L176.235 132.414C177.348 132.194 178.547 131.237 178.547 130.151V129.662H179.157V130.151C179.157 131.237 180.363 132.201 181.477 132.414ZM175.993 134.244H181.76V134.726H175.993V134.244ZM187.271 132.648V133.116H182.902V129.768H187.207V130.236H183.49V131.18H187.065V131.641H183.49V132.648H187.271ZM182.157 134.28H187.931V134.755H182.157V134.28Z" fill="#B6B6C2"/>
<line x1="320.536" y1="133.362" x2="321.945" y2="134.771" stroke="#4D4C61" stroke-width="0.506667" stroke-linecap="round"/>
<circle cx="318.744" cy="131.557" r="2.29144" stroke="#4D4C61" stroke-width="0.506667"/>
<path d="M160.241 149.762V150.23H156.489V149.762H158.071V148.982H158.652V149.762H160.241ZM157.397 151.762C157.397 152.209 157.787 152.493 158.362 152.493C158.936 152.493 159.333 152.209 159.333 151.762C159.333 151.322 158.936 151.039 158.362 151.039C157.787 151.039 157.397 151.322 157.397 151.762ZM159.887 151.762C159.887 152.479 159.263 152.947 158.362 152.947C157.461 152.947 156.844 152.479 156.844 151.762C156.844 151.053 157.461 150.585 158.362 150.585C159.263 150.585 159.887 151.053 159.887 151.762ZM158.028 153.379V154.727H161.688V155.202H157.447V153.379H158.028ZM161.405 151.081H162.341V151.571H161.405V153.755H160.823V148.982H161.405V151.081ZM167.994 148.989V152.67H167.412V148.989H167.994ZM165.518 151.627V150.677H163.688V151.627H165.518ZM166.093 149.251V152.095H163.114V149.251H163.688V150.223H165.518V149.251H166.093ZM168.143 153.578H166.284C166.32 154.174 167.292 154.77 168.37 154.904L168.164 155.337C167.206 155.209 166.362 154.77 165.986 154.181C165.603 154.784 164.731 155.217 163.773 155.344L163.575 154.904C164.653 154.784 165.653 154.195 165.681 153.578H163.823V153.124H165.689V152.507H166.27V153.124H168.143V153.578ZM170.788 153.394C171.398 153.394 171.831 152.727 171.831 151.691C171.831 150.663 171.398 149.996 170.788 149.996C170.171 149.996 169.738 150.663 169.738 151.691C169.738 152.727 170.171 153.394 170.788 153.394ZM170.788 149.471C171.724 149.471 172.384 150.336 172.384 151.691C172.384 153.046 171.724 153.911 170.788 153.911C169.852 153.911 169.185 153.046 169.185 151.691C169.185 150.336 169.852 149.471 170.788 149.471ZM175.037 151.521V152.01H173.987V155.344H173.406V148.989H173.987V151.521H175.037ZM180.512 152.415V152.883H176.143V149.535H180.449V150.003H176.732V150.946H180.307V151.407H176.732V152.415H180.512ZM175.398 154.046H181.172V154.521H175.398V154.046ZM186.931 148.989V152.308H186.35V148.989H186.931ZM184.456 151.556V150.606H182.626V151.556H184.456ZM185.03 149.237V152.025H182.051V149.237H182.626V150.159H184.456V149.237H185.03ZM183.406 154.819H187.151V155.273H182.831V153.713H186.364V153.089H182.817V152.635H186.938V154.138H183.406V154.819Z" fill="#4D4C61"/>
<path d="M304.886 154.819V154.319H305.96V150.716H305.104V150.334C305.532 150.255 305.841 150.143 306.105 149.985H306.566V154.319H307.534V154.819H304.886ZM308.342 154.819V154.319H309.416V150.716H308.56V150.334C308.988 150.255 309.297 150.143 309.561 149.985H310.022V154.319H310.99V154.819H308.342ZM311.798 154.819V154.319H312.872V150.716H312.016V150.334C312.444 150.255 312.753 150.143 313.017 149.985H313.478V154.319H314.446V154.819H311.798ZM315.254 154.819V154.319H316.328V150.716H315.471V150.334C315.9 150.255 316.209 150.143 316.473 149.985H316.934V154.319H317.902V154.819H315.254ZM318.433 153.206V152.745H320.12V153.206H318.433ZM320.506 154.819V154.464C322.021 153.14 322.719 152.178 322.719 151.348C322.719 150.795 322.429 150.393 321.83 150.393C321.435 150.393 321.092 150.637 320.829 150.953L320.48 150.61C320.875 150.182 321.29 149.899 321.902 149.899C322.765 149.899 323.305 150.466 323.305 151.328C323.305 152.29 322.548 153.271 321.415 154.345C321.665 154.325 321.962 154.299 322.205 154.299H323.543V154.819H320.506Z" fill="#417BE6"/>
<rect x="153.053" y="159.412" width="174.293" height="14.1867" rx="2.02667" fill="#F8F8F9"/>
<path d="M160.468 165.289V166.906H159.915V163.296H160.468V164.814H161.277V163.175H161.837V167.495H161.277V165.289H160.468ZM159.653 166.133L159.348 166.58C158.759 166.339 158.319 165.892 158.085 165.353C157.858 165.956 157.404 166.495 156.787 166.771L156.475 166.325C157.305 165.956 157.801 165.126 157.801 164.402V163.544H158.362V164.402C158.362 165.105 158.837 165.814 159.653 166.133ZM160.036 167.19V167.36C160.036 168.19 161.071 168.878 162.192 169.048L161.965 169.502C161.007 169.339 160.128 168.85 159.745 168.148C159.355 168.85 158.475 169.339 157.525 169.502L157.298 169.048C158.418 168.878 159.447 168.19 159.447 167.36V167.19H160.036ZM167.433 164.53H165.965V165.232H167.433V164.53ZM165.391 165.771V164.828H163.674V165.771H165.391ZM165.965 165.686V166.239H163.099V163.466H163.674V164.374H165.391V163.473H165.965V164.076H167.433V163.175H168.015V166.495H167.433V165.686H165.965ZM164.504 168.985H168.256V169.446H163.929V167.871H167.441V167.261H163.915V166.8H168.015V168.311H164.504V168.985ZM174.306 163.175V166.495H173.725V163.175H174.306ZM171.831 165.743V164.792H170.001V165.743H171.831ZM172.405 163.423V166.211H169.426V163.423H170.001V164.346H171.831V163.423H172.405ZM170.781 169.006H174.526V169.46H170.206V167.899H173.739V167.275H170.192V166.821H174.313V168.325H170.781V169.006ZM176.235 166.041V167.516C177.391 167.516 178.214 167.474 179.165 167.289L179.229 167.772C178.236 167.949 177.384 167.999 176.171 167.999H175.668V165.566H177.952V164.232H175.646V163.757H178.526V166.041H176.235ZM181.349 165.693V166.183H180.307V169.538H179.725V163.161H180.307V165.693H181.349Z" fill="#4D4C61"/>
<path d="M304.886 169.006V168.505H305.96V164.902H305.104V164.52C305.532 164.441 305.841 164.329 306.105 164.171H306.566V168.505H307.534V169.006H304.886ZM308.342 169.006V168.505H309.416V164.902H308.56V164.52C308.988 164.441 309.297 164.329 309.561 164.171H310.022V168.505H310.99V169.006H308.342ZM311.798 169.006V168.505H312.872V164.902H312.016V164.52C312.444 164.441 312.753 164.329 313.017 164.171H313.478V168.505H314.446V169.006H311.798ZM315.254 169.006V168.505H316.328V164.902H315.471V164.52C315.9 164.441 316.209 164.329 316.473 164.171H316.934V168.505H317.902V169.006H315.254ZM318.433 167.392V166.931H320.12V167.392H318.433ZM321.955 169.091C321.198 169.091 320.723 168.775 320.407 168.433L320.71 168.038C320.993 168.334 321.362 168.591 321.909 168.591C322.482 168.591 322.89 168.248 322.89 167.689C322.89 167.115 322.502 166.727 321.389 166.727V166.266C322.383 166.266 322.726 165.864 322.726 165.344C322.726 164.883 322.41 164.58 321.909 164.58C321.52 164.58 321.178 164.771 320.908 165.047L320.585 164.665C320.947 164.329 321.376 164.086 321.935 164.086C322.746 164.086 323.338 164.534 323.338 165.298C323.338 165.884 322.989 166.272 322.482 166.463V166.49C323.049 166.621 323.503 167.056 323.503 167.715C323.503 168.578 322.811 169.091 321.955 169.091Z" fill="#417BE6"/>
<path d="M160.241 178.135V178.603H156.489V178.135H158.071V177.355H158.652V178.135H160.241ZM157.397 180.135C157.397 180.582 157.787 180.866 158.362 180.866C158.936 180.866 159.333 180.582 159.333 180.135C159.333 179.695 158.936 179.412 158.362 179.412C157.787 179.412 157.397 179.695 157.397 180.135ZM159.887 180.135C159.887 180.852 159.263 181.32 158.362 181.32C157.461 181.32 156.844 180.852 156.844 180.135C156.844 179.426 157.461 178.958 158.362 178.958C159.263 178.958 159.887 179.426 159.887 180.135ZM158.028 181.752V183.1H161.688V183.575H157.447V181.752H158.028ZM161.405 179.454H162.341V179.944H161.405V182.128H160.823V177.355H161.405V179.454ZM163.064 177.83H166.001C166.001 179.447 164.873 180.632 163.029 181.178L162.794 180.71C164.305 180.263 165.263 179.397 165.369 178.298H163.064V177.83ZM165.724 183.249C166.639 183.249 167.221 182.958 167.221 182.476C167.221 181.987 166.639 181.696 165.724 181.696C164.809 181.696 164.227 181.987 164.227 182.476C164.227 182.958 164.809 183.249 165.724 183.249ZM165.724 181.242C166.98 181.242 167.795 181.703 167.795 182.476C167.795 183.242 166.98 183.71 165.724 183.71C164.468 183.71 163.653 183.242 163.653 182.476C163.653 181.703 164.468 181.242 165.724 181.242ZM167.717 179H168.661V179.483H167.717V181.157H167.136V177.355H167.717V179ZM174.306 177.362V180.681H173.725V177.362H174.306ZM171.831 179.929V178.979H170.001V179.929H171.831ZM172.405 177.61V180.398H169.426V177.61H170.001V178.532H171.831V177.61H172.405ZM170.781 183.192H174.526V183.646H170.206V182.086H173.739V181.462H170.192V181.008H174.313V182.511H170.781V183.192ZM176.235 180.227V181.703C177.391 181.703 178.214 181.66 179.165 181.476L179.229 181.958C178.236 182.135 177.384 182.185 176.171 182.185H175.668V179.752H177.952V178.419H175.646V177.943H178.526V180.227H176.235ZM181.349 179.88V180.369H180.307V183.724H179.725V177.347H180.307V179.88H181.349Z" fill="#4D4C61"/>
<path d="M304.886 183.192V182.692H305.96V179.089H305.104V178.707C305.532 178.628 305.841 178.516 306.105 178.358H306.566V182.692H307.534V183.192H304.886ZM308.342 183.192V182.692H309.416V179.089H308.56V178.707C308.988 178.628 309.297 178.516 309.561 178.358H310.022V182.692H310.99V183.192H308.342ZM311.508 183.192V182.837C313.023 181.513 313.721 180.551 313.721 179.721C313.721 179.168 313.432 178.766 312.832 178.766C312.437 178.766 312.095 179.01 311.831 179.326L311.482 178.984C311.877 178.555 312.292 178.272 312.905 178.272C313.768 178.272 314.308 178.839 314.308 179.701C314.308 180.663 313.55 181.645 312.417 182.718C312.668 182.698 312.964 182.672 313.208 182.672H314.545V183.192H311.508ZM314.964 183.192V182.837C316.479 181.513 317.177 180.551 317.177 179.721C317.177 179.168 316.888 178.766 316.288 178.766C315.893 178.766 315.55 179.01 315.287 179.326L314.938 178.984C315.333 178.555 315.748 178.272 316.361 178.272C317.224 178.272 317.764 178.839 317.764 179.701C317.764 180.663 317.006 181.645 315.873 182.718C316.124 182.698 316.42 182.672 316.664 182.672H318.001V183.192H314.964ZM318.433 181.579V181.118H320.12V181.579H318.433ZM320.796 183.192V182.692H321.87V179.089H321.013V178.707C321.441 178.628 321.751 178.516 322.014 178.358H322.475V182.692H323.444V183.192H320.796Z" fill="#417BE6"/>
<path d="M160.128 194.861V192.648H158.546V194.861H160.128ZM157.964 194.861V192.648H156.978V192.179H161.696V192.648H160.71V194.861H161.681V195.336H156.993V194.861H157.964ZM156.468 196.606H162.235V197.088H156.468V196.606ZM167.242 197.358V196.655H164.121V197.358H167.242ZM167.242 196.209V195.584H167.817V197.819H163.546V195.584H164.121V196.209H167.242ZM165.958 194.804H168.547V195.265H162.773V194.804H165.369V194.187H163.518V192.704H167.235V192.123H163.504V191.676H167.809V193.137H164.093V193.733H167.944V194.187H165.958V194.804ZM170.072 194.371V195.896C171.228 195.896 172.051 195.854 173.001 195.684L173.058 196.159C172.065 196.329 171.214 196.372 170.001 196.372H169.497V192.116H172.583V192.591H170.072V193.903H172.349V194.371H170.072ZM173.732 191.541H174.313V197.897H173.732V191.541ZM177.108 195.953C177.711 195.953 178.136 195.286 178.136 194.251C178.136 193.222 177.711 192.555 177.108 192.555C176.498 192.555 176.072 193.222 176.072 194.251C176.072 195.286 176.498 195.953 177.108 195.953ZM180.066 191.541H180.647V197.918H180.066V194.442H178.682C178.626 195.691 177.994 196.471 177.108 196.471C176.178 196.471 175.519 195.606 175.519 194.251C175.519 192.896 176.178 192.031 177.108 192.031C177.966 192.031 178.59 192.775 178.682 193.967H180.066V191.541ZM186.931 191.548V194.868H186.35V191.548H186.931ZM184.456 194.116V193.165H182.626V194.116H184.456ZM185.03 191.796V194.584H182.051V191.796H182.626V192.719H184.456V191.796H185.03ZM183.406 197.379H187.151V197.833H182.831V196.272H186.364V195.648H182.817V195.194H186.938V196.698H183.406V197.379ZM188.86 194.414V195.889C190.016 195.889 190.839 195.847 191.79 195.662L191.854 196.145C190.861 196.322 190.009 196.372 188.796 196.372H188.293V193.939H190.577V192.605H188.271V192.13H191.151V194.414H188.86ZM193.975 194.066V194.556H192.932V197.911H192.35V191.534H192.932V194.066H193.975Z" fill="#4D4C61"/>
<path d="M304.886 197.379V196.878H305.96V193.275H305.104V192.893C305.532 192.814 305.841 192.702 306.105 192.544H306.566V196.878H307.534V197.379H304.886ZM308.342 197.379V196.878H309.416V193.275H308.56V192.893C308.988 192.814 309.297 192.702 309.561 192.544H310.022V196.878H310.99V197.379H308.342ZM311.508 197.379V197.023C313.023 195.699 313.721 194.738 313.721 193.908C313.721 193.354 313.432 192.953 312.832 192.953C312.437 192.953 312.095 193.196 311.831 193.513L311.482 193.17C311.877 192.742 312.292 192.459 312.905 192.459C313.768 192.459 314.308 193.025 314.308 193.888C314.308 194.85 313.55 195.831 312.417 196.905C312.668 196.885 312.964 196.859 313.208 196.859H314.545V197.379H311.508ZM314.964 197.379V197.023C316.479 195.699 317.177 194.738 317.177 193.908C317.177 193.354 316.888 192.953 316.288 192.953C315.893 192.953 315.55 193.196 315.287 193.513L314.938 193.17C315.333 192.742 315.748 192.459 316.361 192.459C317.224 192.459 317.764 193.025 317.764 193.888C317.764 194.85 317.006 195.831 315.873 196.905C316.124 196.885 316.42 196.859 316.664 196.859H318.001V197.379H314.964ZM318.433 195.765V195.304H320.12V195.765H318.433ZM320.506 197.379V197.023C322.021 195.699 322.719 194.738 322.719 193.908C322.719 193.354 322.429 192.953 321.83 192.953C321.435 192.953 321.092 193.196 320.829 193.513L320.48 193.17C320.875 192.742 321.29 192.459 321.902 192.459C322.765 192.459 323.305 193.025 323.305 193.888C323.305 194.85 322.548 195.831 321.415 196.905C321.665 196.885 321.962 196.859 322.205 196.859H323.543V197.379H320.506Z" fill="#417BE6"/>
</g>
<ellipse opacity="0.4" cx="24.0204" cy="24.0196" rx="24.0204" ry="24.0196" transform="matrix(1 0 0 -1 274 193.918)" fill="#FF3434"/>
<ellipse opacity="0.5" cx="18.9634" cy="18.9628" rx="18.9634" ry="18.9628" transform="matrix(1 0 0 -1 279.057 188.881)" fill="#FF3434"/>
<ellipse opacity="0.7" cx="13.9065" cy="13.9061" rx="13.9065" ry="13.9061" transform="matrix(1 0 0 -1 284.111 183.813)" fill="#FF3434"/>
<ellipse cx="8.8496" cy="8.84932" rx="8.8496" ry="8.84932" transform="matrix(1 0 0 -1 289.172 178.756)" fill="#FF3434"/>
<g filter="url(#filter1_d_5308_111657)">
<path fill-rule="evenodd" clip-rule="evenodd" d="M297.389 170.259L299.864 168.83L306.802 180.845L308.068 180.114L305 174.8L307.884 173.135L310.952 178.448L312.227 177.713L309.871 173.632L312.369 172.19L315.084 176.891L315.081 176.892L315.428 177.493L316.708 176.754L314.361 172.689L315.928 171.785L316.848 173.378L318.113 172.648L323.41 181.823L322.147 182.553L324.318 186.313L322.789 187.196L324.431 190.039L323.112 190.801L323.115 190.806L313.962 196.09L312.314 193.236L311.072 193.953L309.621 191.439L308.346 192.175L306.887 189.648L305.602 190.39L303.97 187.562L302.418 188.458L301.676 187.173L300.387 187.918L298.918 185.374L301.757 183.735L302.499 185.02L303.788 184.275L305.08 186.513L305.088 186.509L306.022 188.127L307.285 187.398L297.389 170.259Z" fill="white"/>
<path fill-rule="evenodd" clip-rule="evenodd" d="M296.654 169.022L299.198 167.553L299.929 168.819L301.156 168.11L304.304 173.562L307.142 171.924L307.85 173.15L305.012 174.788L308.08 180.101L306.808 180.835L299.888 168.851L299.886 168.851L299.887 168.852L297.391 170.293L307.277 187.416L306.005 188.15L303.773 184.284L302.502 185.018L301.768 183.746L303.039 183.012L296.119 171.027L297.388 170.294L296.654 169.023L296.655 169.023L296.654 169.022ZM296.941 184.845L301.029 182.485L301.764 183.756L297.676 186.116L296.941 184.845ZM298.945 185.388L297.674 186.122L299.142 188.666L300.414 187.931L298.945 185.388ZM302.426 188.464L303.993 187.559L305.632 190.398L304.065 191.303L302.426 188.464ZM306.905 189.649L305.633 190.383L307.088 192.904L308.36 192.169L306.905 189.649ZM308.354 192.181L309.625 191.446L311.081 193.967L309.809 194.701L308.354 192.181ZM312.352 193.236L311.08 193.971L313.453 198.081L313.911 197.817L313.915 197.824L326.701 190.442L326.69 190.423L326.702 190.417L324.334 186.316L325.596 185.587L323.407 181.794L322.135 182.528L324.319 186.311L322.807 187.185L324.456 190.042L313.995 196.082L312.352 193.236ZM318.119 172.627L319.391 171.893L324.675 181.045L323.403 181.779L318.119 172.627ZM317.205 171.048L315.934 171.782L316.852 173.372L318.123 172.638L317.205 171.048ZM313.094 173.433L314.366 172.698L316.726 176.786L315.454 177.52L313.094 173.433ZM315.226 170.562L312.387 172.201L313.095 173.428L315.934 171.789L315.226 170.562ZM308.604 174.361L309.875 173.627L312.236 177.715L310.964 178.449L308.604 174.361ZM311.665 170.948L307.895 173.125L308.603 174.351L312.373 172.175L311.665 170.948ZM301.69 187.175L300.418 187.909L301.152 189.181L302.424 188.447L301.69 187.175Z" fill="#111111"/>
</g>
<defs>
<filter id="filter0_d_5308_111657" x="136.333" y="113.812" width="207.734" height="112.48" filterUnits="userSpaceOnUse" color-interpolation-filters="sRGB">
<feFlood flood-opacity="0" result="BackgroundImageFix"/>
<feColorMatrix in="SourceAlpha" type="matrix" values="0 0 0 0 0 0 0 0 0 0 0 0 0 0 0 0 0 0 127 0" result="hardAlpha"/>
<feMorphology radius="2.53333" operator="erode" in="SourceAlpha" result="effect1_dropShadow_5308_111657"/>
<feOffset dy="7.6"/>
<feGaussianBlur stdDeviation="7.6"/>
<feColorMatrix type="matrix" values="0 0 0 0 0 0 0 0 0 0 0 0 0 0 0 0 0 0 0.1 0"/>
<feBlend mode="normal" in2="BackgroundImageFix" result="effect1_dropShadow_5308_111657"/>
<feBlend mode="normal" in="SourceGraphic" in2="effect1_dropShadow_5308_111657" result="shape"/>
</filter>
<filter id="filter1_d_5308_111657" x="285.632" y="162.31" width="51.5561" height="51.5014" filterUnits="userSpaceOnUse" color-interpolation-filters="sRGB">
<feFlood flood-opacity="0" result="BackgroundImageFix"/>
<feColorMatrix in="SourceAlpha" type="matrix" values="0 0 0 0 0 0 0 0 0 0 0 0 0 0 0 0 0 0 127 0" result="hardAlpha"/>
<feOffset dy="5.24351"/>
<feGaussianBlur stdDeviation="5.24351"/>
<feComposite in2="hardAlpha" operator="out"/>
<feColorMatrix type="matrix" values="0 0 0 0 0 0 0 0 0 0 0 0 0 0 0 0 0 0 0.12 0"/>
<feBlend mode="normal" in2="BackgroundImageFix" result="effect1_dropShadow_5308_111657"/>
<feBlend mode="normal" in="SourceGraphic" in2="effect1_dropShadow_5308_111657" result="shape"/>
</filter>
<clipPath id="clip0_5308_111657">
<rect width="5.8871" height="6.29794" fill="white" transform="translate(106.936 76.2607)"/>
</clipPath>
<clipPath id="clip1_5308_111657">
<rect width="5.8871" height="6.29794" fill="white" transform="translate(98.9355 110.406)"/>
</clipPath>
<clipPath id="clip2_5308_111657">
<rect width="5.8871" height="6.29794" fill="white" transform="translate(91.9355 145.729)"/>
</clipPath>
<clipPath id="clip3_5308_111657">
<rect width="5.8871" height="6.29794" fill="white" transform="translate(94.9355 188.999)"/>
</clipPath>
<clipPath id="clip4_5308_111657">
<rect width="5.8871" height="6.29794" fill="white" transform="translate(106.936 232.27)"/>
</clipPath>
</defs>
</svg>
