<svg width="752" height="300" viewBox="0 0 752 300" fill="none" xmlns="http://www.w3.org/2000/svg">
<path d="M0 7.99999C0 3.58171 3.58172 0 8 0H744C748.418 0 752 3.58172 752 8V292C752 296.418 748.418 300 744 300H8C3.58172 300 0 296.418 0 292V7.99999Z" fill="#F5F5F5"/>
<rect x="48" y="29.9395" width="656" height="240.121" rx="7.06452" fill="white"/>
<path d="M65.4306 45.3929V43.1676H66.5009V48.7203H65.4306V46.2724H63.6716V45.3929H65.4306ZM59.3905 48.5295L58.5957 47.8408C59.1538 47.424 59.5953 47.046 59.9203 46.7069C60.2453 46.3678 60.4819 46.0322 60.6303 45.7002C60.7857 45.3682 60.8634 45.0044 60.8634 44.6087H58.9136V43.7186H63.8623V44.6087H61.9337V44.6723C61.9337 45.2516 61.803 45.785 61.5416 46.2724L61.6052 46.3148L61.8277 46.1559C61.9266 46.0782 62.0255 46.0393 62.1244 46.0393C62.2304 46.0393 62.3328 46.0782 62.4317 46.1559L64.2226 47.65L63.4278 48.3494L61.5734 46.7281C61.5239 46.6857 61.4639 46.6645 61.3933 46.6645C61.3438 46.6645 61.2943 46.6822 61.2449 46.7175C61.0471 46.986 60.8034 47.2615 60.5137 47.544C60.2241 47.8196 59.8497 48.1481 59.3905 48.5295ZM66.5327 50.9244C66.5327 51.32 66.4161 51.6697 66.183 51.9735C65.9499 52.2843 65.6037 52.5281 65.1445 52.7047C64.6853 52.8813 64.1343 52.9696 63.4914 52.9696C62.8415 52.9696 62.2869 52.8813 61.8277 52.7047C61.3685 52.5281 61.0224 52.2843 60.7892 51.9735C60.5561 51.6697 60.4395 51.32 60.4395 50.9244C60.4395 50.5288 60.5561 50.1791 60.7892 49.8753C61.0224 49.5645 61.3685 49.3243 61.8277 49.1548C62.2869 48.9781 62.8415 48.8898 63.4914 48.8898C64.1413 48.8898 64.6924 48.9781 65.1445 49.1548C65.6037 49.3243 65.9499 49.5645 66.183 49.8753C66.4161 50.1791 66.5327 50.5288 66.5327 50.9244ZM65.4094 50.8502C65.4094 50.5323 65.2505 50.2674 64.9326 50.0555C64.6147 49.8365 64.1343 49.727 63.4914 49.727C62.8485 49.727 62.3646 49.8365 62.0397 50.0555C61.7218 50.2674 61.5628 50.5323 61.5628 50.8502V51.0092C61.5628 51.3271 61.7218 51.592 62.0397 51.804C62.3646 52.0159 62.8485 52.1219 63.4914 52.1219C64.1343 52.1219 64.6147 52.0159 64.9326 51.804C65.2505 51.592 65.4094 51.3271 65.4094 51.0092V50.8502ZM76.0868 50.5217V51.4225H67.3974V50.5217H71.2122V48.5613H68.5524V43.655H69.6121V45.2551H73.8402V43.655H74.8999V48.5613H72.2825V50.5217H76.0868ZM69.6121 47.6712H73.8402V46.1347H69.6121V47.6712ZM86.3119 43.1676V48.3494H85.2416V43.1676H86.3119ZM78.5551 45.785C78.5551 45.3187 78.661 44.9125 78.873 44.5664C79.0849 44.2131 79.3781 43.9447 79.7525 43.761C80.134 43.5703 80.5649 43.4749 81.0453 43.4749C81.5257 43.4749 81.9531 43.5703 82.3275 43.761C82.709 43.9447 83.0057 44.2131 83.2176 44.5664C83.4296 44.9125 83.5355 45.3187 83.5355 45.785C83.5355 46.2442 83.4296 46.6504 83.2176 47.0036C83.0057 47.3498 82.709 47.6182 82.3275 47.809C81.9531 47.9926 81.5257 48.0845 81.0453 48.0845C80.5649 48.0845 80.134 47.9926 79.7525 47.809C79.3781 47.6182 79.0849 47.3498 78.873 47.0036C78.661 46.6504 78.5551 46.2442 78.5551 45.785ZM82.4017 45.9651V45.5942C82.4017 45.2128 82.2781 44.9125 82.0308 44.6935C81.7835 44.4675 81.455 44.3544 81.0453 44.3544C80.6356 44.3544 80.3071 44.4675 80.0598 44.6935C79.8125 44.9125 79.6889 45.2128 79.6889 45.5942V45.9651C79.6889 46.3466 79.8125 46.6504 80.0598 46.8765C80.3071 47.1025 80.6356 47.2155 81.0453 47.2155C81.455 47.2155 81.7835 47.1025 82.0308 46.8765C82.2781 46.6504 82.4017 46.3466 82.4017 45.9651ZM80.3459 52.1325V48.8898H81.4056V49.9389H85.2522V48.8898H86.3119V52.8318H81.0347C80.8086 52.8318 80.6356 52.7718 80.5155 52.6517C80.4024 52.5316 80.3459 52.3585 80.3459 52.1325ZM85.2522 50.8396H81.4056V51.9205H85.2522V50.8396ZM95.2302 43.1676V48.9534H94.1599V47.3321H92.4644V46.4738H94.1599V45.3293H92.4644V44.4816H94.1599V43.1676H95.2302ZM92.4008 48.3494C91.3694 48.5684 90.1296 48.6779 88.6813 48.6779H87.7594V45.7002H90.6735V44.5558H87.7276V43.6868H91.712V46.548H88.7979V47.809H88.8827C90.1472 47.809 91.274 47.7101 92.2631 47.5123L92.4008 48.3494ZM89.0628 49.4833H95.2302V52.9272H94.1811V50.384H89.0628V49.4833Z" fill="#41414F"/>
<path d="M682.719 48.1893L686.84 44.0684L690.961 48.1893" stroke="#7A7A89" stroke-width="0.883064" stroke-linecap="round" stroke-linejoin="round"/>
<rect x="58.392" y="66.0727" width="635.218" height="189.565" rx="4.41532" fill="white"/>
<rect x="58.392" y="66.0727" width="635.218" height="189.565" rx="4.41532" stroke="#DEDFE5" stroke-width="0.58871"/>
<path d="M78.3944 80.9462V84.2841H79.6801V80.9462H78.3944ZM77.6031 84.96V80.2703H80.4713V84.96H77.6031ZM82.9027 79.4544H83.7104V86.8886H82.9027V83.0479H82.0538V86.5424H81.2543V79.5945H82.0538V82.3555H82.9027V79.4544ZM89.5533 81.317V80.3445H86.2153V81.317H89.5533ZM90.3857 79.6851V81.9846H85.3746V79.6851H90.3857ZM91.2594 83.1797H88.3088V83.7979H90.4105V85.5699H86.1741V86.1798H90.6248V86.8309H85.3334V84.9682H89.578V84.4407H85.317V83.7979H87.4516V83.1797H84.5175V82.5039H91.2594V83.1797ZM92.322 82.4956L92.0252 81.8363C93.4016 81.6962 94.3495 81.1192 94.4731 80.4599H92.3137V79.7758H97.8111V80.4599H95.6352C95.7506 81.1192 96.7067 81.6962 98.0913 81.8363L97.7864 82.4956C96.4759 82.3555 95.4539 81.828 95.0583 81.0615C94.6544 81.828 93.6324 82.3555 92.322 82.4956ZM95.0418 86.2457C96.138 86.2457 96.7479 86.0314 96.7479 85.5946C96.7479 85.166 96.138 84.9435 95.0418 84.9435C93.9456 84.9435 93.344 85.166 93.344 85.5946C93.344 86.0314 93.9456 86.2457 95.0418 86.2457ZM95.0418 84.2924C96.649 84.2924 97.605 84.7622 97.605 85.5946C97.605 86.427 96.649 86.8968 95.0418 86.8968C93.4429 86.8968 92.4785 86.427 92.4785 85.5946C92.4785 84.7622 93.4429 84.2924 95.0418 84.2924ZM95.4704 83.0973H98.421V83.7814H91.6873V83.0973H94.6214V82.1H95.4704V83.0973ZM103.942 81.1028V80.394H99.6566V79.7099H104.808V81.7374H100.53V82.5121H104.973V83.1962H99.6731V81.1028H103.942ZM105.607 83.8556L105.616 84.5396H103.942V86.9051H103.094V84.5396H101.371V86.9051H100.522V84.5396H98.8572V83.8556H105.607Z" fill="#4D4C61"/>
<g clip-path="url(#clip0_5308_91751)">
<path d="M107.551 79.1271C107.598 78.9848 107.7 78.8668 107.834 78.799C107.968 78.7312 108.123 78.7191 108.266 78.7651L109.314 79.1083V78.0036C109.314 77.854 109.373 77.7105 109.479 77.6047C109.585 77.4989 109.728 77.4395 109.878 77.4395C110.028 77.4395 110.171 77.4989 110.277 77.6047C110.383 77.7105 110.442 77.854 110.442 78.0036V79.1083L111.49 78.7651C111.561 78.742 111.636 78.733 111.71 78.7387C111.784 78.7443 111.856 78.7645 111.923 78.7981C111.989 78.8318 112.048 78.8781 112.097 78.9346C112.145 78.991 112.182 79.0564 112.205 79.1271C112.228 79.1978 112.237 79.2724 112.231 79.3465C112.226 79.4207 112.206 79.493 112.172 79.5594C112.138 79.6257 112.092 79.6848 112.036 79.7333C111.979 79.7817 111.914 79.8185 111.843 79.8417L110.79 80.1802L111.439 81.0734C111.526 81.1946 111.563 81.3455 111.54 81.4933C111.517 81.6411 111.437 81.774 111.316 81.8631C111.219 81.9323 111.102 81.9701 110.983 81.9713C110.894 81.9702 110.806 81.9484 110.727 81.9076C110.648 81.8668 110.579 81.8081 110.527 81.7362L109.878 80.843L109.229 81.7362C109.177 81.8081 109.108 81.8668 109.029 81.9076C108.95 81.9484 108.862 81.9702 108.773 81.9713C108.654 81.9701 108.537 81.9323 108.439 81.8631C108.319 81.774 108.239 81.6411 108.216 81.4933C108.193 81.3455 108.23 81.1946 108.317 81.0734L108.966 80.1802L107.913 79.8417C107.771 79.7944 107.653 79.6928 107.585 79.5589C107.517 79.4251 107.505 79.2699 107.551 79.1271Z" fill="#FF5959"/>
</g>
<path d="M159.779 78.4724V82.8901H158.8V78.4724H159.779ZM156.285 81.7974V80.6765H154.165V81.7974H156.285ZM157.255 78.8303V82.5698H153.205V78.8303H154.165V79.9418H156.285V78.8303H157.255ZM155.173 86.1586H160.034V86.9121H154.222V84.7174H158.819V84.0487H154.203V83.3045H159.779V85.4239H155.173V86.1586ZM162.454 82.4003V84.1805C163.848 84.1711 164.912 84.1146 166.108 83.8979L166.212 84.6892C164.903 84.9247 163.763 84.9812 162.19 84.9812H161.493V81.6185H164.404V80.0266H161.474V79.2354H165.364V82.4003H162.454ZM169.066 81.788V82.5981H167.757V86.9969H166.777V78.463H167.757V81.788H169.066ZM169.169 87.9577L171.788 78.7361H172.541L169.923 87.9577H169.169ZM173.96 81.1663C173.96 81.9576 174.516 82.485 175.26 82.485C175.985 82.485 176.541 81.9576 176.541 81.1663C176.541 80.3939 175.985 79.8665 175.26 79.8665C174.516 79.8665 173.96 80.3939 173.96 81.1663ZM179 80.5352H177.37C177.436 80.733 177.464 80.9403 177.464 81.1663C177.464 81.3924 177.436 81.5996 177.37 81.7974H179V80.5352ZM179 82.5887H176.956C176.56 83.0502 175.957 83.3328 175.26 83.3234C173.998 83.3234 173.037 82.4191 173.037 81.1663C173.037 79.9136 173.998 79.0093 175.26 79.0093C175.957 79.0093 176.56 79.2919 176.956 79.744H179V78.4912H179.97V84.7457H179V82.5887ZM175.43 86.0361H180.186V86.8274H174.459V84.1146H175.43V86.0361ZM186.459 81.9764L186.572 82.7676C185.234 82.9843 184.085 83.0219 182.456 83.0219H181.74V80.5541H184.66V79.6687H181.721V78.8774H185.611V81.2888H182.701V82.2307C184.161 82.2307 185.225 82.1836 186.459 81.9764ZM187.354 86.1021V85.2167H183.708V86.1021H187.354ZM187.354 84.4537V83.5777H188.315V86.8839H182.738V83.5777H183.708V84.4537H187.354ZM187.344 78.4818H188.315V83.1821H187.344V78.4818Z" fill="#41414F"/>
<line x1="72.2266" y1="98.4517" x2="679.775" y2="98.4518" stroke="#DEDFE5" stroke-width="0.58871"/>
<path d="M83.8093 117.119L83.4549 117.828C82.2351 117.588 81.1801 116.847 80.7021 115.858C80.2076 116.847 79.1526 117.588 77.9411 117.828L77.5784 117.119C79.0537 116.871 80.2488 115.759 80.2488 114.613V114.053H81.1472V114.613C81.1472 115.767 82.3423 116.871 83.8093 117.119ZM81.1142 119.418H84.0978V120.119H77.3559V119.418H80.2653V117.679H81.1142V119.418ZM86.7923 115.116V115.528C86.7923 116.871 87.262 118.091 88.3417 118.652L87.8472 119.303C87.1384 118.915 86.6769 118.24 86.4049 117.415C86.1494 118.363 85.6714 119.121 84.9378 119.558L84.4186 118.924C85.4983 118.297 85.9681 117.003 85.9681 115.528V115.116H84.6246V114.415H88.0368V115.116H86.7923ZM90.1055 113.591H90.9132V121.042H90.1055V117.234H89.2896V120.696H88.4901V113.731H89.2896V116.534H90.1055V113.591ZM94.4401 115.042V115.751C94.4401 116.987 95.2066 118.273 96.3687 118.767L95.8989 119.435C95.0335 119.056 94.366 118.248 94.0198 117.284C93.6901 118.322 93.0225 119.204 92.1489 119.624L91.6626 118.948C92.8165 118.413 93.583 117.028 93.583 115.751V115.042H91.9263V114.341H96.0968V115.042H94.4401ZM96.9622 113.599H97.8193V121.042H96.9622V113.599Z" fill="#4D4C61"/>
<g clip-path="url(#clip1_5308_91751)">
<path d="M99.5509 113.272C99.5982 113.13 99.6999 113.012 99.8337 112.944C99.9675 112.876 100.123 112.864 100.266 112.91L101.314 113.253V112.149C101.314 111.999 101.373 111.855 101.479 111.75C101.585 111.644 101.728 111.584 101.878 111.584C102.028 111.584 102.171 111.644 102.277 111.75C102.383 111.855 102.442 111.999 102.442 112.149V113.253L103.49 112.91C103.561 112.887 103.636 112.878 103.71 112.884C103.784 112.889 103.856 112.91 103.923 112.943C103.989 112.977 104.048 113.023 104.097 113.08C104.145 113.136 104.182 113.201 104.205 113.272C104.228 113.343 104.237 113.417 104.231 113.492C104.226 113.566 104.206 113.638 104.172 113.704C104.138 113.771 104.092 113.83 104.036 113.878C103.979 113.927 103.914 113.964 103.843 113.987L102.79 114.325L103.439 115.218C103.526 115.34 103.563 115.491 103.54 115.638C103.517 115.786 103.437 115.919 103.316 116.008C103.219 116.077 103.102 116.115 102.983 116.116C102.894 116.115 102.806 116.093 102.727 116.053C102.648 116.012 102.579 115.953 102.527 115.881L101.878 114.988L101.229 115.881C101.177 115.953 101.108 116.012 101.029 116.053C100.95 116.093 100.862 116.115 100.773 116.116C100.654 116.115 100.537 116.077 100.439 116.008C100.319 115.919 100.239 115.786 100.216 115.638C100.193 115.491 100.23 115.34 100.317 115.218L100.966 114.325L99.9129 113.987C99.7706 113.939 99.6526 113.838 99.5848 113.704C99.517 113.57 99.5049 113.415 99.5509 113.272Z" fill="#FF5959"/>
</g>
<rect x="152.585" y="106.105" width="70.0564" height="20.6048" rx="3.2379" fill="white"/>
<rect x="152.585" y="106.105" width="70.0564" height="20.6048" rx="3.2379" stroke="#DEDFE5" stroke-width="0.58871"/>
<path d="M160.025 114.259V115.586C160.025 116.929 160.865 118.273 161.937 118.784L161.541 119.319C160.701 118.899 160.025 118.017 159.687 116.979C159.365 118.075 158.681 119.006 157.849 119.451L157.437 118.915C158.508 118.38 159.349 116.954 159.349 115.586V114.259H160.025ZM162.852 113.624H163.528V121.025H162.852V116.682H161.137V116.13H162.852V113.624ZM167.945 114.218C166.733 114.218 166.041 114.498 166.041 114.992C166.041 115.487 166.733 115.767 167.945 115.767C169.156 115.767 169.849 115.487 169.849 114.992C169.849 114.498 169.156 114.218 167.945 114.218ZM167.945 116.27C166.321 116.27 165.348 115.825 165.348 114.992C165.348 114.16 166.321 113.707 167.945 113.707C169.577 113.707 170.541 114.16 170.541 114.992C170.541 115.825 169.577 116.27 167.945 116.27ZM171.283 117.3H168.283V117.992H170.434V119.657H166.09V120.407H170.656V120.935H165.431V119.163H169.766V118.503H165.414V117.992H167.607V117.3H164.607V116.756H171.283V117.3ZM174.397 114.267V115.594C174.397 116.946 175.279 118.306 176.375 118.8L175.972 119.344C175.131 118.932 174.422 118.058 174.068 117.003C173.73 118.116 173.021 119.039 172.156 119.484L171.744 118.932C172.831 118.413 173.73 116.995 173.73 115.594V114.267H174.397ZM177.15 113.624H177.826V121.034H177.15V113.624Z" fill="#4D4C61"/>
<path d="M211.162 115.524L213.517 117.879L215.872 115.524" stroke="#9393A3" stroke-width="0.58871" stroke-linecap="round" stroke-linejoin="round"/>
<rect x="227.941" y="106.105" width="70.0564" height="20.6048" rx="3.2379" fill="white"/>
<rect x="227.941" y="106.105" width="70.0564" height="20.6048" rx="3.2379" stroke="#DEDFE5" stroke-width="0.58871"/>
<path d="M233.122 114.176H236.534C236.534 116.055 235.224 117.432 233.081 118.067L232.809 117.523C234.564 117.003 235.677 115.998 235.801 114.72H233.122V114.176ZM236.213 120.473C237.276 120.473 237.952 120.135 237.952 119.575C237.952 119.006 237.276 118.668 236.213 118.668C235.149 118.668 234.474 119.006 234.474 119.575C234.474 120.135 235.149 120.473 236.213 120.473ZM236.213 118.141C237.672 118.141 238.619 118.676 238.619 119.575C238.619 120.465 237.672 121.009 236.213 121.009C234.754 121.009 233.806 120.465 233.806 119.575C233.806 118.676 234.754 118.141 236.213 118.141ZM238.529 115.536H239.625V116.097H238.529V118.042H237.853V113.624H238.529V115.536ZM244.273 116.36L244.355 116.913C243.111 117.16 242.006 117.242 240.902 117.242H240.325V113.995H240.992V116.674C242.039 116.665 243.094 116.591 244.273 116.36ZM241.701 118.751V120.366H245.039V118.751H241.701ZM241.042 120.91V118.207H245.699V120.91H241.042ZM246.795 115.322V115.882H245.699V117.803H245.023V113.624H245.699V115.322H246.795ZM253.824 117.284V117.836H250.808V121.025H250.124V117.836H247.14V117.284H252.044C252.275 116.22 252.275 115.437 252.275 114.745V114.646H247.973V114.102H252.934V114.745C252.934 115.437 252.934 116.22 252.728 117.284H253.824Z" fill="#4D4C61"/>
<path d="M286.518 115.524L288.872 117.879L291.227 115.524" stroke="#9393A3" stroke-width="0.58871" stroke-linecap="round" stroke-linejoin="round"/>
<rect x="303.294" y="106.105" width="70.0564" height="20.6048" rx="3.2379" fill="white"/>
<rect x="303.294" y="106.105" width="70.0564" height="20.6048" rx="3.2379" stroke="#DEDFE5" stroke-width="0.58871"/>
<path d="M308.426 114.58H311.311C311.311 116.484 310.643 118.248 308.541 119.435L308.146 118.948C309.844 118.001 310.544 116.665 310.643 115.132H308.426V114.58ZM313.767 113.624H314.418V121.017H313.767V117.152H312.761V120.646H312.127V113.822H312.761V116.599H313.767V113.624ZM317.731 114.877V117.3H319.568V114.877H317.731ZM318.992 119.542H322.016V120.094H315.316V119.542H318.307V117.844H315.926V117.3H317.055V114.877H315.909V114.333H321.39V114.877H320.244V117.3H321.373V117.844H318.992V119.542ZM325.832 120.49C326.986 120.49 327.67 120.201 327.67 119.682C327.67 119.163 326.986 118.874 325.832 118.874C324.661 118.874 323.977 119.163 323.977 119.682C323.977 120.201 324.661 120.49 325.832 120.49ZM325.832 118.347C327.398 118.347 328.354 118.825 328.354 119.682C328.354 120.539 327.398 121.017 325.832 121.017C324.249 121.017 323.293 120.539 323.293 119.682C323.293 118.825 324.249 118.347 325.832 118.347ZM326.17 117.275H329.178V117.819H322.485V117.275H325.494V116.418H323.326V113.962H328.346V114.506H324.002V115.874H328.395V116.418H326.17V117.275Z" fill="#4D4C61"/>
<path d="M361.871 115.524L364.226 117.879L366.581 115.524" stroke="#9393A3" stroke-width="0.58871" stroke-linecap="round" stroke-linejoin="round"/>
<line x1="72.2266" y1="133.774" x2="679.775" y2="133.774" stroke="#DEDFE5" stroke-width="0.58871"/>
<path d="M81.617 152.095L81.6994 152.779C80.7351 152.985 79.8614 153.035 78.2625 153.035H77.6608V149.532H80.9741V150.224H78.5098V152.334C79.9191 152.326 80.7186 152.285 81.617 152.095ZM79.3092 153.76V155.532H83.4632V156.224H78.4521V153.76H79.3092ZM83.1664 151.049H84.2214V151.749H83.1664V154.304H82.3175V148.914H83.1664V151.049ZM87.2703 150.364V151.073C87.2703 152.31 88.0368 153.595 89.1989 154.09L88.7291 154.757C87.8637 154.378 87.1961 153.571 86.8499 152.606C86.5203 153.645 85.8527 154.527 84.979 154.947L84.4928 154.271C85.6466 153.735 86.4131 152.351 86.4131 151.073V150.364H84.7565V149.664H88.9269V150.364H87.2703ZM89.7923 148.922H90.6495V156.365H89.7923V148.922Z" fill="#4D4C61"/>
<g clip-path="url(#clip2_5308_91751)">
<path d="M92.5509 148.595C92.5982 148.453 92.6999 148.335 92.8337 148.267C92.9675 148.199 93.1227 148.187 93.2655 148.233L94.3138 148.576V147.471C94.3138 147.322 94.3733 147.178 94.4791 147.072C94.5849 146.967 94.7283 146.907 94.878 146.907C95.0276 146.907 95.1711 146.967 95.2769 147.072C95.3827 147.178 95.4421 147.322 95.4421 147.471V148.576L96.4904 148.233C96.5611 148.21 96.6357 148.201 96.7098 148.206C96.784 148.212 96.8563 148.232 96.9227 148.266C96.989 148.3 97.0481 148.346 97.0965 148.402C97.145 148.459 97.1818 148.524 97.205 148.595C97.2281 148.666 97.2371 148.74 97.2315 148.814C97.2258 148.888 97.2056 148.961 97.172 149.027C97.1384 149.094 97.092 149.153 97.0356 149.201C96.9791 149.249 96.9137 149.286 96.843 149.309L95.79 149.648L96.4387 150.541C96.5263 150.662 96.5625 150.813 96.5397 150.961C96.5168 151.109 96.4366 151.242 96.3165 151.331C96.2188 151.4 96.1024 151.438 95.9827 151.439C95.8937 151.438 95.8061 151.416 95.727 151.375C95.6478 151.335 95.5793 151.276 95.5267 151.204L94.878 150.311L94.2292 151.204C94.1767 151.276 94.1081 151.335 94.029 151.375C93.9498 151.416 93.8623 151.438 93.7732 151.439C93.6535 151.438 93.5371 151.4 93.4394 151.331C93.3193 151.242 93.2391 151.109 93.2163 150.961C93.1934 150.813 93.2297 150.662 93.3172 150.541L93.966 149.648L92.9129 149.309C92.7706 149.262 92.6526 149.161 92.5848 149.027C92.517 148.893 92.5049 148.738 92.5509 148.595Z" fill="#FF5959"/>
</g>
<rect x="152.585" y="141.428" width="140.702" height="20.6048" rx="3.2379" fill="white"/>
<rect x="152.585" y="141.428" width="140.702" height="20.6048" rx="3.2379" stroke="#DEDFE5" stroke-width="0.58871"/>
<path d="M161.714 152.186L161.789 152.73C160.775 152.936 159.901 152.985 158.352 152.985H157.775V149.59H161.047V150.134H158.451V152.433C159.909 152.433 160.75 152.376 161.714 152.186ZM159.25 153.76V155.623H163.503V156.175H158.574V153.76H159.25ZM163.173 151.139H164.269V151.7H163.173V154.296H162.497V148.947H163.173V151.139ZM167.244 150.266V151.205C167.244 152.458 168.134 153.735 169.222 154.197L168.843 154.741C167.986 154.345 167.261 153.496 166.906 152.483C166.568 153.562 165.843 154.494 165.002 154.922L164.607 154.378C165.67 153.876 166.568 152.483 166.568 151.205V150.266H164.854V149.705H168.983V150.266H167.244ZM169.98 148.955H170.656V156.34H169.98V148.955ZM172.881 152.268V153.999C174.092 153.999 175.18 153.941 176.474 153.735L176.54 154.288C175.205 154.51 174.084 154.56 172.815 154.56H172.205V151.724H174.925V150.183H172.18V149.631H175.609V152.268H172.881ZM177.167 148.939H177.843V156.348H177.167V148.939ZM185.317 152.664L185.012 153.224C183.891 152.969 182.738 152.178 182.268 151.09C181.798 152.169 180.644 152.961 179.532 153.224L179.227 152.664C180.521 152.408 181.913 151.296 181.913 150.035V149.466H182.622V150.035C182.622 151.296 184.023 152.417 185.317 152.664ZM178.946 154.79H185.647V155.351H178.946V154.79ZM192.05 152.936V153.48H186.973V149.59H191.976V150.134H187.657V151.23H191.811V151.766H187.657V152.936H192.05ZM186.108 154.832H192.817V155.384H186.108V154.832Z" fill="#4D4C61"/>
<path d="M281.809 150.847L284.163 153.202L286.518 150.847" stroke="#9393A3" stroke-width="0.58871" stroke-linecap="round" stroke-linejoin="round"/>
<path d="M308.89 151.533L308.553 151.288L309.035 150.492L308.208 150.147L308.339 149.757L309.211 149.971L309.288 149.045H309.701L309.777 149.964L310.65 149.757L310.78 150.147L309.946 150.492L310.435 151.288L310.099 151.533L309.494 150.805L308.89 151.533ZM316.607 151.846L316.676 152.351C315.735 152.543 314.924 152.589 313.485 152.589H312.949V149.436H315.987V149.941H313.577V152.076C314.931 152.076 315.712 152.022 316.607 151.846ZM314.319 153.308V155.038H318.268V155.55H313.691V153.308H314.319ZM317.962 150.874H318.98V151.395H317.962V153.806H317.334V148.839H317.962V150.874ZM321.742 150.063V150.936C321.742 152.099 322.569 153.285 323.579 153.714L323.227 154.219C322.431 153.851 321.757 153.063 321.428 152.122C321.114 153.124 320.441 153.989 319.66 154.387L319.293 153.882C320.28 153.415 321.114 152.122 321.114 150.936V150.063H319.523V149.543H323.357V150.063H321.742ZM324.283 148.846H324.91V155.704H324.283V148.846ZM326.318 149.573H329.456C329.456 151.525 328.56 153.293 326.341 154.402L325.997 153.913C327.749 153.033 328.691 151.716 328.836 150.094H326.318V149.573ZM332.333 151.624V152.145H331.231V155.704H330.604V148.839H331.231V151.624H332.333ZM336.516 155.122V154.196H335.307V155.122H336.516ZM336.516 153.729V152.864H337.098V155.612H334.718V152.864H335.307V153.729H336.516ZM335.812 151.785C336.493 151.785 336.983 151.341 336.983 150.721C336.983 150.101 336.493 149.665 335.812 149.665C335.131 149.665 334.641 150.101 334.641 150.721C334.641 151.341 335.131 151.785 335.812 151.785ZM338.958 150.966H337.565C337.442 151.77 336.754 152.306 335.812 152.306C334.787 152.306 334.044 151.663 334.044 150.721C334.044 149.78 334.787 149.145 335.812 149.145C336.738 149.145 337.427 149.665 337.557 150.453H338.958V148.846H339.593V152.474H338.958V150.966ZM339.042 152.818V153.4C339.042 154.127 339.471 154.877 340.289 155.198L339.976 155.673C339.356 155.413 338.942 154.946 338.736 154.38C338.514 154.938 338.101 155.413 337.504 155.673L337.182 155.198C338.001 154.846 338.43 154.104 338.43 153.4V152.818H339.042ZM340.893 149.581H344.024C344.024 151.533 343.212 153.27 340.932 154.395L340.587 153.905C342.432 153.002 343.281 151.693 343.396 150.086H340.893V149.581ZM345.615 148.846H346.243V155.704H345.615V152.107H344.008V151.594H345.615V148.846ZM348.148 149.504V153.438C349.135 153.438 350.153 153.354 351.263 153.132L351.339 153.652C350.169 153.89 349.12 153.966 348.072 153.966H347.528V149.504H348.148ZM353.635 151.578V152.099H352.533V155.704H351.906V148.839H352.533V151.578H353.635ZM358.346 155.214C359.418 155.214 360.053 154.946 360.053 154.464C360.053 153.982 359.418 153.714 358.346 153.714C357.26 153.714 356.624 153.982 356.624 154.464C356.624 154.946 357.26 155.214 358.346 155.214ZM358.346 153.224C359.801 153.224 360.688 153.668 360.688 154.464C360.688 155.26 359.801 155.704 358.346 155.704C356.877 155.704 355.989 155.26 355.989 154.464C355.989 153.668 356.877 153.224 358.346 153.224ZM358.66 152.229H361.454V152.734H355.239V152.229H358.033V151.433H356.02V149.152H360.681V149.657H356.647V150.928H360.727V151.433H358.66V152.229ZM361.575 156.507L363.871 149.061H364.377L362.088 156.507H361.575ZM370.389 149.841V150.354H364.817V149.841H367.305V148.946H367.932V149.841H370.389ZM365.996 152.122C365.996 152.635 366.616 152.941 367.618 152.941C368.606 152.941 369.218 152.635 369.218 152.122C369.218 151.617 368.606 151.311 367.618 151.311C366.616 151.311 365.996 151.617 365.996 152.122ZM367.932 154.387H370.733V154.9H364.511V154.387H367.305V153.423C366.095 153.354 365.361 152.887 365.361 152.122C365.361 151.295 366.226 150.821 367.618 150.821C368.988 150.821 369.853 151.295 369.853 152.122C369.853 152.887 369.126 153.346 367.932 153.423V154.387ZM378.406 151.456L378.146 151.961C377.082 151.777 376.049 151.18 375.605 150.354C375.176 151.188 374.143 151.777 373.072 151.961L372.819 151.456C374.067 151.272 375.276 150.446 375.276 149.466V149.084H375.934V149.466C375.934 150.423 377.159 151.272 378.406 151.456ZM378.705 152.703L378.712 153.224H375.903V155.711H375.276V153.224H372.505V152.703H378.705ZM382.821 150.622H384.176V148.846H384.811V152.933H384.176V151.135H382.821V150.622ZM383.204 152.183L382.89 152.673C382.125 152.397 381.536 151.831 381.237 151.127C380.946 151.923 380.311 152.566 379.508 152.872L379.178 152.374C380.204 151.999 380.908 151.073 380.908 150.086V149.849H379.377V149.344H383.043V149.849H381.536V150.086C381.536 150.966 382.209 151.831 383.204 152.183ZM382.546 155.214C383.579 155.214 384.207 154.923 384.207 154.425C384.207 153.928 383.579 153.63 382.546 153.63C381.513 153.63 380.885 153.928 380.885 154.425C380.885 154.923 381.513 155.214 382.546 155.214ZM382.546 153.147C383.954 153.147 384.834 153.614 384.834 154.425C384.834 155.237 383.954 155.704 382.546 155.704C381.138 155.704 380.258 155.237 380.258 154.425C380.258 153.614 381.138 153.147 382.546 153.147ZM390.803 148.839H391.431V155.719H390.803V148.839ZM387.811 149.367C388.829 149.367 389.556 150.3 389.556 151.762C389.556 153.224 388.829 154.158 387.811 154.158C386.793 154.158 386.066 153.224 386.066 151.762C386.066 150.3 386.793 149.367 387.811 149.367ZM387.811 149.933C387.137 149.933 386.663 150.652 386.663 151.762C386.663 152.88 387.137 153.599 387.811 153.599C388.477 153.599 388.951 152.88 388.951 151.762C388.951 150.652 388.477 149.933 387.811 149.933ZM399.44 148.839V152.405H398.813V148.839H399.44ZM395.392 149.795V151.624C395.759 151.617 396.134 151.601 396.509 151.578V149.795H395.392ZM398.124 151.448L398.154 151.908C396.792 152.114 395.193 152.16 393.983 152.168L393.922 151.647C394.19 151.647 394.481 151.647 394.779 151.64V149.795H394.106V149.298H397.787V149.795H397.114V151.54C397.458 151.517 397.795 151.479 398.124 151.448ZM395.598 155.13H399.7V155.627H394.978V153.913H398.82V153.224H394.955V152.734H399.44V154.38H395.598V155.13ZM402.608 152.688V154.303H404.521V152.688C404.231 152.757 403.901 152.795 403.557 152.795C403.22 152.795 402.891 152.757 402.608 152.688ZM403.557 149.765C402.455 149.765 401.667 150.27 401.667 151.035C401.667 151.8 402.455 152.306 403.557 152.306C404.659 152.306 405.455 151.8 405.455 151.035C405.455 150.27 404.659 149.765 403.557 149.765ZM405.149 154.303H406.687V154.823H400.45V154.303H401.98V152.451C401.407 152.152 401.062 151.655 401.062 151.035C401.062 149.964 402.103 149.275 403.557 149.275C405.019 149.275 406.052 149.964 406.052 151.035C406.052 151.655 405.715 152.145 405.149 152.443V154.303ZM411.187 149.68V150.186H407.138V149.68H408.845V148.839H409.472V149.68H411.187ZM408.118 151.839C408.118 152.321 408.539 152.627 409.159 152.627C409.779 152.627 410.207 152.321 410.207 151.839C410.207 151.364 409.779 151.058 409.159 151.058C408.539 151.058 408.118 151.364 408.118 151.839ZM410.804 151.839C410.804 152.612 410.131 153.117 409.159 153.117C408.187 153.117 407.521 152.612 407.521 151.839C407.521 151.073 408.187 150.568 409.159 150.568C410.131 150.568 410.804 151.073 410.804 151.839ZM408.799 153.584V155.038H412.748V155.55H408.171V153.584H408.799ZM412.442 151.104H413.452V151.632H412.442V153.989H411.814V148.839H412.442V151.104ZM420.122 150.614H418.408C417.964 151.716 416.923 152.52 415.446 152.948L415.194 152.451C416.831 151.961 417.849 151.05 417.964 149.864H415.546V149.359H418.645C418.645 149.612 418.615 149.864 418.569 150.101H420.122V148.846H420.757V152.948H420.122V152.045H418.324V151.533H420.122V150.614ZM418.515 155.183C419.525 155.183 420.168 154.869 420.168 154.349C420.168 153.836 419.525 153.522 418.515 153.522C417.505 153.522 416.862 153.836 416.862 154.349C416.862 154.869 417.505 155.183 418.515 155.183ZM418.515 153.025C419.9 153.025 420.788 153.522 420.788 154.349C420.788 155.175 419.9 155.673 418.515 155.673C417.13 155.673 416.242 155.175 416.242 154.349C416.242 153.522 417.13 153.025 418.515 153.025ZM424.851 149.619C423.811 149.619 423.099 150.01 423.099 150.614C423.099 151.226 423.811 151.617 424.851 151.617C425.9 151.617 426.612 151.226 426.612 150.614C426.612 150.01 425.9 149.619 424.851 149.619ZM424.851 152.122C423.428 152.122 422.456 151.54 422.456 150.614C422.456 149.696 423.428 149.114 424.851 149.114C426.283 149.114 427.254 149.696 427.254 150.614C427.254 151.54 426.283 152.122 424.851 152.122ZM427.974 152.772V153.293H425.165V155.711H424.538V153.293H421.759V152.772H427.974ZM430.144 156.438V149.084H431.667V149.474H430.672V156.04H431.667V156.438H430.144ZM436.143 152.191L435.837 152.688C435.049 152.413 434.421 151.846 434.108 151.127C433.817 151.908 433.181 152.52 432.37 152.818L432.041 152.328C433.082 151.961 433.778 151.066 433.778 150.101V149.826H432.21V149.321H435.975V149.826H434.421V150.101C434.421 151.02 435.133 151.854 436.143 152.191ZM432.99 153.859V153.354H437.582V155.704H436.955V153.859H432.99ZM436.955 148.839H437.582V152.994H436.955V148.839ZM442.656 152.03L442.342 152.527C441.576 152.244 440.987 151.678 440.681 150.974C440.39 151.762 439.763 152.382 438.959 152.688L438.63 152.191C439.648 151.831 440.36 150.92 440.36 149.941V149.765H438.829V149.252H442.495V149.765H440.987V149.941C440.987 150.821 441.661 151.678 442.656 152.03ZM443.635 155.099V154.234H440.482V155.099H443.635ZM443.635 153.744V152.895H444.255V155.612H439.862V152.895H440.482V153.744H443.635ZM443.628 148.846H444.255V152.566H443.628V151.02H442.273V150.507H443.628V148.846ZM450.752 150.943V151.448H446.045V149.114H450.706V149.619H446.673V150.943H450.752ZM448.364 155.206C449.436 155.206 450.079 154.938 450.079 154.456C450.079 153.974 449.443 153.706 448.364 153.706C447.285 153.706 446.65 153.974 446.65 154.456C446.65 154.938 447.285 155.206 448.364 155.206ZM448.364 153.216C449.826 153.216 450.714 153.66 450.714 154.456C450.714 155.252 449.826 155.696 448.364 155.696C446.903 155.696 446.015 155.252 446.015 154.456C446.015 153.66 446.903 153.216 448.364 153.216ZM445.265 152.107H451.479V152.627H445.265V152.107ZM452.611 154.165V153.652H457.387V155.642H456.759V154.165H452.611ZM455.351 152.612H458.145V153.124H451.915V152.612H454.716V151.892H452.718V150.216H456.729V149.504H452.703V149.015H457.349V150.683H453.338V151.402H457.494V151.892H455.351V152.612ZM458.435 156.438V156.04H459.43V149.474H458.435V149.084H459.958V156.438H458.435ZM463.883 149.428C462.758 149.428 462.115 149.688 462.115 150.147C462.115 150.606 462.758 150.867 463.883 150.867C465.008 150.867 465.651 150.606 465.651 150.147C465.651 149.688 465.008 149.428 463.883 149.428ZM463.883 151.334C462.375 151.334 461.472 150.92 461.472 150.147C461.472 149.374 462.375 148.953 463.883 148.953C465.391 148.953 466.294 149.374 466.294 150.147C466.294 150.92 465.391 151.334 463.883 151.334ZM462.161 154.441V155.137H466.401V155.627H461.549V153.982H465.574V153.369H461.526V152.895H466.194V154.441H462.161ZM460.776 151.8H466.99V152.306H460.776V151.8ZM473.791 153.974V150.974H472.29V150.453H473.791V148.846H474.426V153.974H473.791ZM472.78 152.351L472.451 152.834C471.694 152.535 471.104 151.946 470.813 151.203C470.523 152.022 469.91 152.673 469.107 152.994L468.778 152.497C469.803 152.122 470.492 151.15 470.492 150.101V149.252H471.12V150.124C471.12 151.081 471.793 151.984 472.78 152.351ZM470.637 155.038H474.586V155.55H470.01V153.408H470.637V155.038ZM478.642 151.946L478.703 152.451C477.915 152.612 477.264 152.642 476.162 152.642H475.726V149.344H478.374V149.849H476.331V150.714H478.298V151.196H476.331V152.129C477.31 152.129 477.923 152.091 478.642 151.946ZM476.606 153.867V153.362H481.221V155.704H480.594V153.867H476.606ZM480.617 148.846H481.221V153.002H480.617V151.142H479.698V152.956H479.101V148.969H479.698V150.629H480.617V148.846ZM483.784 153.591C484.313 153.591 484.695 153.155 484.695 152.543C484.695 151.946 484.313 151.51 483.784 151.51C483.249 151.51 482.874 151.946 482.874 152.543C482.874 153.155 483.249 153.591 483.784 153.591ZM483.784 150.982C484.634 150.982 485.254 151.624 485.254 152.543C485.254 153.476 484.634 154.112 483.784 154.112C482.935 154.112 482.315 153.476 482.315 152.543C482.315 151.624 482.935 150.982 483.784 150.982ZM484.091 149.038V150.01H485.483V150.522H482.078V150.01H483.471V149.038H484.091ZM487.297 148.831H487.902V155.696H487.297V152.244H486.417V155.367H485.828V148.992H486.417V151.732H487.297V148.831ZM489.355 152.175L489.118 151.678C490.312 151.502 491.498 150.714 491.498 149.811V149.772H489.332V149.267H494.345V149.772H492.195V149.811C492.195 150.714 493.381 151.502 494.59 151.678L494.345 152.175C493.281 151.992 492.264 151.418 491.85 150.606C491.429 151.418 490.419 151.992 489.355 152.175ZM494.95 152.749L494.958 153.262H492.149V155.704H491.521V153.262H488.751V152.749H494.95ZM497.437 149.489V150.775C497.437 151.877 497.949 153.04 498.852 153.591L498.493 154.081C497.842 153.683 497.383 152.956 497.138 152.122C496.893 153.033 496.396 153.806 495.715 154.226L495.324 153.76C496.266 153.209 496.832 151.976 496.832 150.798V149.489H497.437ZM499.243 151.303V148.992H499.832V155.367H499.243V151.823H498.11V151.303H499.243ZM500.636 148.839H501.233V155.704H500.636V148.839ZM504.209 152.688V154.303H506.122V152.688C505.832 152.757 505.502 152.795 505.158 152.795C504.821 152.795 504.492 152.757 504.209 152.688ZM505.158 149.765C504.056 149.765 503.268 150.27 503.268 151.035C503.268 151.8 504.056 152.306 505.158 152.306C506.26 152.306 507.056 151.8 507.056 151.035C507.056 150.27 506.26 149.765 505.158 149.765ZM506.75 154.303H508.288V154.823H502.051V154.303H503.582V152.451C503.008 152.152 502.663 151.655 502.663 151.035C502.663 149.964 503.704 149.275 505.158 149.275C506.62 149.275 507.653 149.964 507.653 151.035C507.653 151.655 507.316 152.145 506.75 152.443V154.303ZM509.374 155.237C509.099 155.237 508.869 155.022 508.869 154.709C508.869 154.387 509.099 154.165 509.374 154.165C509.65 154.165 509.88 154.387 509.88 154.709C509.88 155.022 509.65 155.237 509.374 155.237Z" fill="#FF5959"/>
<line x1="72.2266" y1="169.097" x2="679.775" y2="169.097" stroke="#DEDFE5" stroke-width="0.58871"/>
<path d="M80.7021 198.984C81.79 198.984 82.4082 198.745 82.4082 198.283C82.4082 197.83 81.79 197.582 80.7021 197.582C79.6142 197.582 79.0043 197.83 79.0043 198.283C79.0043 198.745 79.6142 198.984 80.7021 198.984ZM80.7021 196.931C82.301 196.931 83.2654 197.426 83.2654 198.283C83.2654 199.148 82.301 199.643 80.7021 199.643C79.1114 199.643 78.1389 199.148 78.1389 198.283C78.1389 197.426 79.1114 196.931 80.7021 196.931ZM81.1472 195.786H84.0895V196.478H77.3641V195.786H80.2983V195.044H78.1966V192.522H83.2654V193.198H79.0372V194.36H83.3148V195.044H81.1472V195.786ZM84.2043 200.484L86.4955 192.415H87.1549L84.8636 200.484H84.2043ZM93.7208 193.206V193.89H87.63V193.206H90.2592V192.291H91.1081V193.206H93.7208ZM89.0641 195.744C89.0641 196.239 89.6576 196.519 90.6713 196.519C91.6933 196.519 92.2867 196.239 92.2867 195.744C92.2867 195.258 91.6933 194.978 90.6713 194.978C89.6576 194.978 89.0641 195.258 89.0641 195.744ZM91.1081 198.126H94.067V198.827H87.3168V198.126H90.2592V197.17C88.9817 197.08 88.1987 196.569 88.1987 195.744C88.1987 194.846 89.1548 194.319 90.6713 194.319C92.1961 194.319 93.1521 194.846 93.1521 195.744C93.1521 196.569 92.3856 197.071 91.1081 197.17V198.126Z" fill="#4D4C61"/>
<g clip-path="url(#clip3_5308_91751)">
<path d="M95.5509 191.865C95.5982 191.723 95.6999 191.605 95.8337 191.537C95.9675 191.47 96.1227 191.457 96.2655 191.503L97.3138 191.847V190.742C97.3138 190.592 97.3733 190.449 97.4791 190.343C97.5849 190.237 97.7283 190.178 97.878 190.178C98.0276 190.178 98.1711 190.237 98.2769 190.343C98.3827 190.449 98.4421 190.592 98.4421 190.742V191.847L99.4904 191.503C99.5611 191.48 99.6357 191.471 99.7098 191.477C99.784 191.483 99.8563 191.503 99.9227 191.536C99.989 191.57 100.048 191.616 100.097 191.673C100.145 191.729 100.182 191.795 100.205 191.865C100.228 191.936 100.237 192.011 100.231 192.085C100.226 192.159 100.206 192.231 100.172 192.298C100.138 192.364 100.092 192.423 100.036 192.472C99.9791 192.52 99.9137 192.557 99.843 192.58L98.79 192.918L99.4387 193.812C99.5263 193.933 99.5625 194.084 99.5397 194.232C99.5168 194.379 99.4366 194.512 99.3165 194.601C99.2188 194.671 99.1024 194.708 98.9827 194.71C98.8937 194.708 98.8061 194.687 98.727 194.646C98.6478 194.605 98.5793 194.546 98.5267 194.474L97.878 193.581L97.2292 194.474C97.1767 194.546 97.1081 194.605 97.029 194.646C96.9498 194.687 96.8623 194.708 96.7732 194.71C96.6535 194.708 96.5371 194.671 96.4394 194.601C96.3193 194.512 96.2391 194.379 96.2163 194.232C96.1934 194.084 96.2297 193.933 96.3172 193.812L96.966 192.918L95.9129 192.58C95.7706 192.533 95.6526 192.431 95.5848 192.297C95.517 192.163 95.5049 192.008 95.5509 191.865Z" fill="#FF5959"/>
</g>
<rect x="152.585" y="176.75" width="58.2822" height="20.6048" rx="3.2379" fill="white"/>
<rect x="152.585" y="176.75" width="58.2822" height="20.6048" rx="3.2379" stroke="#DEDFE5" stroke-width="0.58871"/>
<path d="M160.783 191.135C161.937 191.135 162.621 190.847 162.621 190.327C162.621 189.808 161.937 189.52 160.783 189.52C159.613 189.52 158.929 189.808 158.929 190.327C158.929 190.847 159.613 191.135 160.783 191.135ZM160.783 188.992C162.349 188.992 163.305 189.47 163.305 190.327C163.305 191.185 162.349 191.663 160.783 191.663C159.201 191.663 158.245 191.185 158.245 190.327C158.245 189.47 159.201 188.992 160.783 188.992ZM161.121 187.921H164.129V188.465H157.437V187.921H160.445V187.064H158.277V184.608H163.297V185.152H158.953V186.52H163.346V187.064H161.121V187.921ZM170.013 189.8V186.569H168.398V186.009H170.013V184.278H170.697V189.8H170.013ZM168.925 188.053L168.571 188.572C167.755 188.25 167.12 187.616 166.807 186.816C166.494 187.698 165.835 188.399 164.969 188.745L164.615 188.209C165.719 187.805 166.461 186.759 166.461 185.63V184.715H167.137V185.654C167.137 186.685 167.862 187.657 168.925 188.053ZM166.618 190.946H170.871V191.498H165.942V189.19H166.618V190.946ZM175.238 187.616L175.304 188.16C174.455 188.333 173.755 188.366 172.568 188.366H172.098V184.814H174.95V185.358H172.749V186.289H174.867V186.808H172.749V187.814C173.804 187.814 174.463 187.772 175.238 187.616ZM173.046 189.685V189.141H178.016V191.663H177.34V189.685H173.046ZM177.365 184.278H178.016V188.753H177.365V186.75H176.375V188.704H175.733V184.41H176.375V186.198H177.365V184.278Z" fill="#4D4C61"/>
<path d="M199.389 186.169L201.744 188.524L204.098 186.169" stroke="#9393A3" stroke-width="0.58871" stroke-linecap="round" stroke-linejoin="round"/>
<rect x="232.062" y="176.75" width="58.2822" height="20.6048" rx="3.2379" fill="white"/>
<rect x="232.062" y="176.75" width="58.2822" height="20.6048" rx="3.2379" stroke="#DEDFE5" stroke-width="0.58871"/>
<path d="M242.32 189.8V186.569H240.705V186.009H242.32V184.278H243.004V189.8H242.32ZM241.232 188.053L240.878 188.572C240.062 188.25 239.427 187.616 239.114 186.816C238.801 187.698 238.141 188.399 237.276 188.745L236.922 188.209C238.026 187.805 238.768 186.759 238.768 185.63V184.715H239.444V185.654C239.444 186.685 240.169 187.657 241.232 188.053ZM238.924 190.946H243.177V191.498H238.249V189.19H238.924V190.946ZM247.545 187.616L247.611 188.16C246.762 188.333 246.061 188.366 244.874 188.366H244.405V184.814H247.256V185.358H245.056V186.289H247.174V186.808H245.056V187.814C246.111 187.814 246.77 187.772 247.545 187.616ZM245.352 189.685V189.141H250.322V191.663H249.647V189.685H245.352ZM249.671 184.278H250.322V188.753H249.671V186.75H248.682V188.704H248.039V184.41H248.682V186.198H249.671V184.278Z" fill="#4D4C61"/>
<path d="M278.865 186.169L281.22 188.524L283.575 186.169" stroke="#9393A3" stroke-width="0.58871" stroke-linecap="round" stroke-linejoin="round"/>
<path d="M218.476 191.837C219.63 191.837 220.314 191.549 220.314 191.03C220.314 190.51 219.63 190.222 218.476 190.222C217.306 190.222 216.622 190.51 216.622 191.03C216.622 191.549 217.306 191.837 218.476 191.837ZM218.476 189.694C220.042 189.694 220.998 190.172 220.998 191.03C220.998 191.887 220.042 192.365 218.476 192.365C216.894 192.365 215.938 191.887 215.938 191.03C215.938 190.172 216.894 189.694 218.476 189.694ZM218.814 188.623H221.823V189.167H215.13V188.623H218.138V187.766H215.971V185.31H220.99V185.854H216.647V187.222H221.04V187.766H218.814V188.623Z" fill="black"/>
<path d="M300.937 186.051V186.604H294.936V186.051H297.615V185.087H298.291V186.051H300.937ZM296.206 188.508C296.206 189.06 296.873 189.389 297.953 189.389C299.016 189.389 299.676 189.06 299.676 188.508C299.676 187.964 299.016 187.634 297.953 187.634C296.873 187.634 296.206 187.964 296.206 188.508ZM298.291 190.947H301.307V191.499H294.607V190.947H297.615V189.909C296.313 189.835 295.522 189.332 295.522 188.508C295.522 187.617 296.453 187.106 297.953 187.106C299.428 187.106 300.36 187.617 300.36 188.508C300.36 189.332 299.577 189.826 298.291 189.909V190.947Z" fill="black"/>
<rect x="321.008" y="176.456" width="75.3548" height="21.1935" rx="3.53226" fill="#FF951A"/>
<path d="M340.324 191.036C341.412 191.036 342.031 190.797 342.031 190.336C342.031 189.882 341.412 189.635 340.324 189.635C339.237 189.635 338.627 189.882 338.627 190.336C338.627 190.797 339.237 191.036 340.324 191.036ZM340.324 188.984C341.923 188.984 342.888 189.479 342.888 190.336C342.888 191.201 341.923 191.696 340.324 191.696C338.734 191.696 337.761 191.201 337.761 190.336C337.761 189.479 338.734 188.984 340.324 188.984ZM340.77 187.838H343.712V188.531H336.986V187.838H339.921V187.097H337.819V184.575H342.888V185.25H338.66V186.413H342.937V187.097H340.77V187.838ZM350.445 184.237V188.02H349.596V184.237H350.445ZM345.277 186.165C345.277 186.759 345.755 187.146 346.398 187.146C347.049 187.146 347.535 186.759 347.535 186.165C347.535 185.572 347.049 185.184 346.398 185.184C345.755 185.184 345.277 185.572 345.277 186.165ZM348.36 186.165C348.36 187.146 347.527 187.838 346.398 187.838C345.277 187.838 344.453 187.146 344.453 186.165C344.453 185.184 345.277 184.484 346.398 184.484C347.527 184.484 348.36 185.184 348.36 186.165ZM346.415 190.929H350.667V191.597H345.582V189.643H349.604V189.025H345.566V188.358H350.445V190.27H346.415V190.929ZM352.323 187.888L352.018 187.22C353.436 187.031 354.483 186.215 354.532 185.349H352.266V184.665H357.747V185.349H355.497C355.546 186.215 356.593 187.031 358.01 187.22L357.705 187.888C356.477 187.707 355.464 187.097 355.01 186.272C354.557 187.097 353.551 187.707 352.323 187.888ZM358.381 188.432L358.373 189.116H355.414V191.696H354.565V189.116H351.648V188.432H358.381ZM365.436 187.764L365.081 188.473C363.861 188.234 362.807 187.492 362.328 186.503C361.834 187.492 360.779 188.234 359.567 188.473L359.205 187.764C360.68 187.517 361.875 186.404 361.875 185.259V184.698H362.774V185.259C362.774 186.413 363.969 187.517 365.436 187.764ZM362.741 190.064H365.724V190.764H358.982V190.064H361.892V188.325H362.741V190.064ZM370.693 184.871V185.489H366.441V184.871H368.147V184.179H369.004V184.871H370.693ZM367.594 186.833C367.594 187.163 367.974 187.36 368.567 187.36C369.16 187.36 369.54 187.163 369.54 186.833C369.54 186.495 369.16 186.289 368.567 186.289C367.974 186.289 367.594 186.495 367.594 186.833ZM370.899 188.201L370.965 188.794C369.391 189.075 367.652 189.083 366.35 189.091L366.251 188.415C366.811 188.415 367.463 188.415 368.147 188.399V187.904C367.306 187.814 366.795 187.418 366.795 186.833C366.795 186.141 367.496 185.72 368.567 185.72C369.638 185.72 370.339 186.141 370.339 186.833C370.339 187.418 369.828 187.805 369.004 187.904V188.366C369.647 188.333 370.298 188.292 370.899 188.201ZM367.174 190.286V189.61H372.144V191.696H371.295V190.286H367.174ZM373.166 186.445V187.146H372.144V189.281H371.295V184.253H372.144V186.445H373.166ZM379.784 184.245V189.652H378.935V184.245H379.784ZM374.624 186.602C374.624 187.278 375.11 187.731 375.77 187.731C376.421 187.731 376.915 187.278 376.915 186.602C376.915 185.918 376.421 185.473 375.77 185.473C375.11 185.473 374.624 185.918 374.624 186.602ZM377.74 186.602C377.74 187.682 376.891 188.465 375.77 188.465C374.649 188.465 373.792 187.682 373.792 186.602C373.792 185.514 374.649 184.739 375.77 184.739C376.891 184.739 377.74 185.514 377.74 186.602ZM375.778 190.855H379.998V191.547H374.921V189.108H375.778V190.855Z" fill="white"/>
<path d="M153.47 207.755L153.133 207.51L153.615 206.714L152.788 206.369L152.919 205.979L153.791 206.193L153.868 205.267H154.281L154.357 206.186L155.23 205.979L155.36 206.369L154.526 206.714L155.016 207.51L154.679 207.755L154.074 207.028L153.47 207.755ZM160.323 211.436C161.394 211.436 162.029 211.168 162.029 210.686C162.029 210.204 161.394 209.936 160.323 209.936C159.236 209.936 158.601 210.204 158.601 210.686C158.601 211.168 159.236 211.436 160.323 211.436ZM160.323 209.446C161.777 209.446 162.664 209.89 162.664 210.686C162.664 211.482 161.777 211.926 160.323 211.926C158.853 211.926 157.965 211.482 157.965 210.686C157.965 209.89 158.853 209.446 160.323 209.446ZM160.636 208.451H163.43V208.956H157.215V208.451H160.009V207.655H157.996V205.375H162.657V205.88H158.624V207.15H162.703V207.655H160.636V208.451ZM163.552 212.729L165.848 205.283H166.353L164.064 212.729H163.552ZM172.365 206.063V206.576H166.794V206.063H169.281V205.168H169.908V206.063H172.365ZM167.972 208.344C167.972 208.857 168.592 209.163 169.595 209.163C170.582 209.163 171.194 208.857 171.194 208.344C171.194 207.839 170.582 207.533 169.595 207.533C168.592 207.533 167.972 207.839 167.972 208.344ZM169.908 210.609H172.709V211.122H166.487V210.609H169.281V209.645C168.072 209.576 167.337 209.109 167.337 208.344C167.337 207.517 168.202 207.043 169.595 207.043C170.965 207.043 171.829 207.517 171.829 208.344C171.829 209.109 171.102 209.569 169.908 209.645V210.609ZM177.951 206.262V205.704H173.926V205.26H178.571V206.691H174.561V207.28H178.694V207.732H173.941V206.262H177.951ZM174.523 210.747V211.382H178.808V211.834H173.903V210.311H177.974V209.737H173.887V209.285H178.594V210.747H174.523ZM173.145 208.252H179.367V208.727H173.145V208.252ZM186.152 210.196V207.196H184.652V206.676H186.152V205.068H186.787V210.196H186.152ZM185.142 208.574L184.813 209.056C184.055 208.757 183.466 208.168 183.175 207.426C182.884 208.245 182.272 208.895 181.468 209.216L181.139 208.719C182.165 208.344 182.854 207.372 182.854 206.324V205.474H183.481V206.347C183.481 207.303 184.155 208.206 185.142 208.574ZM182.999 211.26H186.948V211.773H182.371V209.63H182.999V211.26ZM191.004 208.168L191.065 208.673C190.277 208.834 189.626 208.864 188.524 208.864H188.088V205.566H190.736V206.071H188.692V206.936H190.659V207.418H188.692V208.352C189.672 208.352 190.284 208.313 191.004 208.168ZM188.968 210.089V209.584H193.583V211.926H192.955V210.089H188.968ZM192.978 205.068H193.583V209.224H192.978V207.364H192.06V209.178H191.463V205.191H192.06V206.852H192.978V205.068ZM196.46 209.875C197.087 209.875 197.539 209.431 197.539 208.819C197.539 208.199 197.087 207.755 196.46 207.755C195.84 207.755 195.388 208.199 195.388 208.819C195.388 209.431 195.84 209.875 196.46 209.875ZM196.46 207.234C197.439 207.234 198.136 207.892 198.136 208.819C198.136 209.752 197.439 210.395 196.46 210.395C195.496 210.395 194.799 209.752 194.799 208.819C194.799 207.892 195.496 207.234 196.46 207.234ZM196.766 205.145V206.163H198.457V206.668H194.409V206.163H196.138V205.145H196.766ZM200.86 207.885V208.413H199.735V211.926H199.108V205.068H199.735V207.885H200.86ZM203.539 205.658V206.89C203.539 208.145 204.357 209.408 205.375 209.867L205 210.372C204.22 209.989 203.561 209.178 203.232 208.199C202.919 209.232 202.26 210.089 201.457 210.502L201.074 209.989C202.084 209.507 202.919 208.191 202.919 206.89V205.658H203.539ZM206.095 205.061H206.722V211.941H206.095V205.061ZM210.594 208.367V206.163H208.696V208.367H210.594ZM212.783 206.783H211.206V207.739H212.783V206.783ZM211.206 208.252V208.864H208.076V205.665H211.206V206.27H212.783V205.068H213.418V210.074H212.783V208.252H211.206ZM209.63 211.26H213.579V211.773H209.002V209.63H209.63V211.26ZM218.581 208.367V206.163H216.683V208.367H218.581ZM220.77 206.783H219.193V207.739H220.77V206.783ZM219.193 208.252V208.864H216.063V205.665H219.193V206.27H220.77V205.068H221.405V210.074H220.77V208.252H219.193ZM217.616 211.26H221.565V211.773H216.989V209.63H217.616V211.26ZM226.455 208.413L226.142 208.903C225.376 208.627 224.787 208.061 224.481 207.349C224.19 208.137 223.562 208.765 222.759 209.063L222.43 208.566C223.448 208.206 224.159 207.288 224.159 206.316V206.04H222.629V205.528H226.295V206.04H224.787V206.316C224.787 207.196 225.46 208.061 226.455 208.413ZM223.471 210.051V209.546H228.062V211.933H227.427V210.051H223.471ZM227.427 205.061H228.062V209.171H227.427V207.364H226.088V206.852H227.427V205.061ZM234.054 205.061H234.682V211.941H234.054V205.061ZM231.062 205.589C232.08 205.589 232.807 206.523 232.807 207.984C232.807 209.446 232.08 210.38 231.062 210.38C230.044 210.38 229.317 209.446 229.317 207.984C229.317 206.523 230.044 205.589 231.062 205.589ZM231.062 206.155C230.388 206.155 229.914 206.875 229.914 207.984C229.914 209.102 230.388 209.821 231.062 209.821C231.728 209.821 232.202 209.102 232.202 207.984C232.202 206.875 231.728 206.155 231.062 206.155ZM239.362 206.285V207.158C239.362 208.252 240.143 209.469 241.138 209.936L240.778 210.441C240.013 210.058 239.37 209.255 239.056 208.336C238.742 209.339 238.077 210.211 237.304 210.609L236.936 210.112C237.916 209.622 238.742 208.321 238.742 207.158V206.285H237.173V205.765H240.885V206.285H239.362ZM243.464 207.831V208.359H242.332V211.926H241.704V205.068H242.332V207.831H243.464ZM246.816 211.436C247.887 211.436 248.523 211.168 248.523 210.686C248.523 210.204 247.887 209.936 246.816 209.936C245.729 209.936 245.094 210.204 245.094 210.686C245.094 211.168 245.729 211.436 246.816 211.436ZM246.816 209.446C248.27 209.446 249.158 209.89 249.158 210.686C249.158 211.482 248.27 211.926 246.816 211.926C245.347 211.926 244.459 211.482 244.459 210.686C244.459 209.89 245.347 209.446 246.816 209.446ZM247.13 208.451H249.923V208.956H243.709V208.451H246.502V207.655H244.489V205.375H249.15V205.88H245.117V207.15H249.196V207.655H247.13V208.451ZM253.466 205.489C254.889 205.489 255.961 206.247 255.961 207.387C255.961 208.535 254.889 209.285 253.466 209.285C252.042 209.285 250.971 208.535 250.971 207.387C250.971 206.247 252.042 205.489 253.466 205.489ZM253.466 206.002C252.387 206.002 251.568 206.561 251.568 207.387C251.568 208.222 252.387 208.773 253.466 208.773C254.553 208.773 255.364 208.222 255.364 207.387C255.364 206.561 254.553 206.002 253.466 206.002ZM250.359 210.495H256.596V211.015H250.359V210.495ZM260.445 210.563H263.254V211.076H257.016V210.563H259.81V209.27H257.797V207.15H261.869V206.079H257.782V205.566H262.481V207.655H258.417V208.765H262.642V209.27H260.445V210.563ZM270.016 205.068H270.643V208.75H270.016V205.068ZM266.22 209.086H266.84V209.928H270.024V209.086H270.643V211.834H266.22V209.086ZM266.84 210.418V211.329H270.024V210.418H266.84ZM266.955 205.39C267.995 205.39 268.753 206.033 268.753 206.966C268.753 207.915 267.995 208.551 266.955 208.551C265.921 208.551 265.171 207.915 265.171 206.966C265.171 206.033 265.921 205.39 266.955 205.39ZM266.955 205.91C266.273 205.91 265.784 206.347 265.784 206.966C265.784 207.594 266.273 208.03 266.955 208.03C267.651 208.03 268.141 207.594 268.141 206.966C268.141 206.347 267.651 205.91 266.955 205.91ZM275.296 208.298L275.357 208.803C274.515 208.949 273.819 208.972 272.449 208.972H271.959V206.936H274.286V205.987H271.936V205.474H274.898V207.418H272.571V208.459C273.842 208.459 274.5 208.428 275.296 208.298ZM272.725 210.165V209.653H277.324V211.933H276.689V210.165H272.725ZM276.689 205.068H277.324V209.285H276.689V208.015H275.35V207.51H276.689V206.591H275.35V206.079H276.689V205.068ZM282.773 208.114L282.811 208.566C281.319 208.819 279.673 208.841 278.441 208.849L278.349 208.344C278.923 208.344 279.597 208.344 280.285 208.313V207.579H278.969V205.405H282.199V205.918H279.589V207.066H282.268V207.579H280.913V208.29C281.548 208.252 282.176 208.206 282.773 208.114ZM283.339 211.329V210.533H280.086V211.329H283.339ZM283.339 210.043V209.324H283.959V211.834H279.459V209.324H280.086V210.043H283.339ZM283.331 205.068H283.959V209.017H283.331V205.068ZM286.04 205.727V209.614C287.073 209.614 288.137 209.523 289.277 209.293L289.346 209.829C288.152 210.074 287.073 210.15 285.979 210.15H285.412V205.727H286.04ZM289.981 205.061H290.609V211.918H289.981V205.061ZM292.56 206.239V209.691C293.777 209.691 294.657 209.637 295.652 209.461L295.721 209.982C294.672 210.181 293.769 210.227 292.476 210.227H291.932V205.719H295.124V206.239H292.56ZM298.055 207.77V208.29H296.922V211.941H296.295V205.061H296.922V207.77H298.055ZM298.957 211.459C298.682 211.459 298.452 211.245 298.452 210.931C298.452 210.609 298.682 210.387 298.957 210.387C299.233 210.387 299.463 210.609 299.463 210.931C299.463 211.245 299.233 211.459 298.957 211.459Z" fill="#FD3629"/>
<line x1="72.2266" y1="220.315" x2="679.775" y2="220.315" stroke="#DEDFE5" stroke-width="0.58871"/>
<path d="M81.3203 237.457H82.6719V235.471H83.5209V240.911H82.6719V238.158H81.3203V237.457ZM81.7818 239.196L81.3615 239.856C80.5373 239.575 79.9356 238.99 79.6224 238.257C79.2927 239.064 78.6664 239.716 77.7845 240.02L77.3476 239.353C78.5015 238.949 79.1774 237.968 79.1774 236.963V236.707H77.6031V236.023H81.584V236.707H80.0345V236.963C80.0345 237.878 80.6691 238.809 81.7818 239.196ZM79.5482 242.073H83.7104V242.765H78.6993V240.441H79.5482V242.073ZM87.8719 242.254C88.9599 242.254 89.578 242.023 89.578 241.57C89.578 241.125 88.9599 240.886 87.8719 240.886C86.784 240.886 86.1741 241.125 86.1741 241.57C86.1741 242.023 86.784 242.254 87.8719 242.254ZM87.8719 240.235C89.4791 240.235 90.4352 240.721 90.4352 241.57C90.4352 242.427 89.4791 242.905 87.8719 242.905C86.273 242.905 85.3087 242.427 85.3087 241.57C85.3087 240.721 86.273 240.235 87.8719 240.235ZM86.9653 238.323V239.081H88.795V238.323C88.5231 238.364 88.2181 238.389 87.8884 238.389C87.5588 238.389 87.2373 238.364 86.9653 238.323ZM87.8884 236.246C86.7758 236.246 86.1082 236.509 86.1082 236.987C86.1082 237.465 86.7758 237.737 87.8884 237.737C88.9929 237.737 89.6604 237.465 89.6604 236.987C89.6604 236.509 88.9929 236.246 87.8884 236.246ZM89.644 239.081H91.2511V239.757H84.5175V239.081H86.1164V238.092C85.556 237.853 85.2345 237.474 85.2345 236.987C85.2345 236.114 86.2565 235.586 87.8884 235.586C89.5121 235.586 90.5423 236.114 90.5423 236.987C90.5423 237.474 90.2127 237.853 89.644 238.1V239.081ZM94.6379 238.965V236.757H92.8494V238.965H94.6379ZM97.0116 237.4H95.4621V238.306H97.0116V237.4ZM95.4621 238.99V239.641H92.017V236.081H95.4621V236.707H97.0116V235.463H97.8605V240.894H97.0116V238.99H95.4621ZM93.8714 242.073H98.0336V242.765H93.0143V240.4H93.8714V242.073ZM103.291 238.99L102.871 239.65C102.047 239.361 101.453 238.776 101.132 238.059C100.802 238.858 100.176 239.501 99.294 239.806L98.8572 239.139C100.011 238.743 100.687 237.762 100.687 236.757V236.608H99.1127V235.924H103.094V236.608H101.544V236.748C101.544 237.672 102.179 238.603 103.291 238.99ZM100.011 240.96V240.276H105.03V242.905H104.181V240.96H100.011ZM104.181 235.454H105.03V239.905H104.181V238.026H102.879V237.325H104.181V235.454Z" fill="#4D4C61"/>
<g clip-path="url(#clip4_5308_91751)">
<path d="M107.551 235.136C107.598 234.994 107.7 234.876 107.834 234.808C107.968 234.74 108.123 234.728 108.266 234.774L109.314 235.117V234.012C109.314 233.863 109.373 233.719 109.479 233.613C109.585 233.508 109.728 233.448 109.878 233.448C110.028 233.448 110.171 233.508 110.277 233.613C110.383 233.719 110.442 233.863 110.442 234.012V235.117L111.49 234.774C111.561 234.751 111.636 234.742 111.71 234.747C111.784 234.753 111.856 234.773 111.923 234.807C111.989 234.841 112.048 234.887 112.097 234.943C112.145 235 112.182 235.065 112.205 235.136C112.228 235.207 112.237 235.281 112.231 235.355C112.226 235.429 112.206 235.502 112.172 235.568C112.138 235.635 112.092 235.694 112.036 235.742C111.979 235.79 111.914 235.827 111.843 235.85L110.79 236.189L111.439 237.082C111.526 237.203 111.563 237.354 111.54 237.502C111.517 237.65 111.437 237.783 111.316 237.872C111.219 237.941 111.102 237.979 110.983 237.98C110.894 237.979 110.806 237.957 110.727 237.916C110.648 237.876 110.579 237.817 110.527 237.745L109.878 236.852L109.229 237.745C109.177 237.817 109.108 237.876 109.029 237.916C108.95 237.957 108.862 237.979 108.773 237.98C108.654 237.979 108.537 237.941 108.439 237.872C108.319 237.783 108.239 237.65 108.216 237.502C108.193 237.354 108.23 237.203 108.317 237.082L108.966 236.189L107.913 235.85C107.771 235.803 107.653 235.702 107.585 235.568C107.517 235.434 107.505 235.279 107.551 235.136Z" fill="#FF5959"/>
</g>
<rect x="152.585" y="227.968" width="140.702" height="20.6048" rx="3.2379" fill="white"/>
<rect x="152.585" y="227.968" width="140.702" height="20.6048" rx="3.2379" stroke="#DEDFE5" stroke-width="0.58871"/>
<path d="M162.844 241.018V237.787H161.228V237.226H162.844V235.496H163.528V241.018H162.844ZM161.756 239.27L161.401 239.79C160.585 239.468 159.951 238.834 159.637 238.034C159.324 238.916 158.665 239.617 157.799 239.963L157.445 239.427C158.549 239.023 159.291 237.976 159.291 236.847V235.932H159.967V236.872C159.967 237.902 160.692 238.875 161.756 239.27ZM159.448 242.163H163.701V242.716H158.772V240.408H159.448V242.163ZM168.068 238.834L168.134 239.378C167.285 239.551 166.585 239.584 165.398 239.584H164.928V236.031H167.78V236.575H165.579V237.507H167.697V238.026H165.579V239.031C166.634 239.031 167.294 238.99 168.068 238.834ZM165.876 240.902V240.358H170.846V242.88H170.17V240.902H165.876ZM170.195 235.496H170.846V239.971H170.195V237.968H169.206V239.922H168.563V235.628H169.206V237.416H170.195V235.496Z" fill="#4D4C61"/>
<path d="M281.809 237.387L284.163 239.742L286.518 237.387" stroke="#9393A3" stroke-width="0.58871" stroke-linecap="round" stroke-linejoin="round"/>
<path d="M308.89 238.166L308.553 237.921L309.035 237.125L308.208 236.781L308.339 236.39L309.211 236.605L309.288 235.679H309.701L309.777 236.597L310.65 236.39L310.78 236.781L309.946 237.125L310.435 237.921L310.099 238.166L309.494 237.439L308.89 238.166ZM316.232 238.135L315.62 238.082C315.781 237.355 315.796 236.819 315.796 236.406H313.01V235.9H316.408V236.268C316.408 236.704 316.408 237.324 316.232 238.135ZM316.89 238.564L316.936 239.023C315.513 239.245 313.89 239.283 312.658 239.283L312.589 238.763C313.026 238.763 313.531 238.763 314.043 238.747V237.393H314.663V238.732C315.413 238.702 316.186 238.648 316.89 238.564ZM315.765 241.824C316.783 241.824 317.411 241.549 317.411 241.074C317.411 240.607 316.783 240.332 315.765 240.332C314.748 240.332 314.12 240.607 314.12 241.074C314.12 241.549 314.748 241.824 315.765 241.824ZM315.765 239.842C317.174 239.842 318.046 240.293 318.046 241.074C318.046 241.87 317.174 242.322 315.765 242.322C314.357 242.322 313.485 241.87 313.485 241.074C313.485 240.293 314.357 239.842 315.765 239.842ZM317.977 237.347H318.949V237.867H317.977V239.75H317.35V235.464H317.977V237.347ZM324.137 236.842V236.673H319.951V236.161H324.765V236.842C324.765 237.691 324.765 238.633 324.505 240.018L323.877 239.949C324.137 238.633 324.137 237.668 324.137 236.842ZM322.339 240.86H325.507V241.373H319.301V240.86H321.711V238.403H322.339V240.86ZM330.701 240.936H333.509V241.449H327.272V240.936H330.073V239.1H328.037V236.061H328.665V238.594H332.797V239.1H330.701V240.936ZM334.45 238.212L334.266 237.737C335.537 237.653 336.585 237.232 336.692 236.551H334.572V236.077H336.731V235.426H337.358V236.077H339.509V236.551H337.396C337.504 237.232 338.537 237.653 339.815 237.737L339.624 238.212C338.476 238.12 337.465 237.768 337.044 237.133C336.624 237.768 335.606 238.12 334.45 238.212ZM340.136 239H337.358V239.635H339.348V241.135H335.315V241.786H339.555V242.26H334.703V240.684H338.728V240.102H334.68V239.635H336.723V239H333.945V238.518H340.136V239ZM347.763 236.26V236.765H342.245V236.26H344.71V235.434H345.345V236.26H347.763ZM346.6 238.304C346.6 237.883 346.034 237.638 345.031 237.638C344.028 237.638 343.447 237.883 343.447 238.304C343.447 238.725 344.028 238.969 345.031 238.969C346.034 238.969 346.6 238.725 346.6 238.304ZM342.796 238.304C342.796 237.569 343.63 237.156 345.031 237.156C346.416 237.156 347.25 237.569 347.25 238.304C347.25 239.038 346.416 239.444 345.031 239.444C343.63 239.444 342.796 239.038 342.796 238.304ZM348.146 239.926V240.439H345.345V242.344H344.71V240.439H341.924V239.926H348.146ZM350.135 240.248C350.671 240.248 351.023 239.551 351.023 238.426C351.023 237.324 350.671 236.628 350.135 236.628C349.584 236.628 349.24 237.324 349.24 238.426C349.24 239.551 349.584 240.248 350.135 240.248ZM352.454 238.143V235.625H353.051V242H352.454V238.656H351.589C351.536 240.003 350.977 240.829 350.135 240.829C349.24 240.829 348.666 239.911 348.666 238.426C348.666 236.964 349.24 236.046 350.135 236.046C350.962 236.046 351.513 236.849 351.589 238.143H352.454ZM353.816 235.472H354.413V242.337H353.816V235.472ZM360.742 237.538V238.051H356.073V235.724H356.701V237.538H360.742ZM356.655 240.163V241.656H360.78V242.168H356.027V240.163H356.655ZM355.232 238.969H361.454V239.475H355.232V238.969ZM369.134 238.089L368.874 238.594C367.81 238.411 366.777 237.814 366.333 236.987C365.904 237.821 364.871 238.411 363.8 238.594L363.547 238.089C364.795 237.906 366.004 237.079 366.004 236.099V235.717H366.662V236.099C366.662 237.056 367.887 237.906 369.134 238.089ZM369.433 239.337L369.44 239.857H366.631V242.344H366.004V239.857H363.233V239.337H369.433ZM373.549 237.255H374.904V235.48H375.539V239.566H374.904V237.768H373.549V237.255ZM373.932 238.816L373.618 239.306C372.853 239.031 372.264 238.464 371.965 237.76C371.674 238.556 371.039 239.199 370.236 239.505L369.906 239.008C370.932 238.633 371.636 237.707 371.636 236.719V236.482H370.105V235.977H373.771V236.482H372.264V236.719C372.264 237.6 372.937 238.464 373.932 238.816ZM373.274 241.847C374.307 241.847 374.935 241.556 374.935 241.059C374.935 240.561 374.307 240.263 373.274 240.263C372.241 240.263 371.613 240.561 371.613 241.059C371.613 241.556 372.241 241.847 373.274 241.847ZM373.274 239.781C374.682 239.781 375.562 240.248 375.562 241.059C375.562 241.87 374.682 242.337 373.274 242.337C371.866 242.337 370.986 241.87 370.986 241.059C370.986 240.248 371.866 239.781 373.274 239.781ZM381.531 235.472H382.159V242.352H381.531V235.472ZM378.539 236C379.557 236 380.284 236.934 380.284 238.395C380.284 239.857 379.557 240.791 378.539 240.791C377.521 240.791 376.794 239.857 376.794 238.395C376.794 236.934 377.521 236 378.539 236ZM378.539 236.566C377.865 236.566 377.391 237.286 377.391 238.395C377.391 239.513 377.865 240.232 378.539 240.232C379.204 240.232 379.679 239.513 379.679 238.395C379.679 237.286 379.204 236.566 378.539 236.566ZM389.303 237.362V236.704H385.967V237.362H389.303ZM389.923 235.579V237.844H385.347V235.579H385.967V236.23H389.303V235.579H389.923ZM390.734 238.908H387.941V239.582H389.939V241.112H385.905V241.778H390.145V242.26H385.293V240.653H389.319V240.056H385.27V239.582H387.314V238.908H384.52V238.403H390.734V238.908ZM391.553 236.207H394.691C394.691 238.158 393.795 239.926 391.576 241.036L391.231 240.546C392.984 239.666 393.925 238.35 394.071 236.727H391.553V236.207ZM397.568 238.258V238.778H396.466V242.337H395.839V235.472H396.466V238.258H397.568ZM401.915 236.176V236.681H397.866V236.176H399.573V235.403H400.2V236.176H401.915ZM398.846 238.204C398.846 238.656 399.259 238.931 399.887 238.931C400.514 238.931 400.935 238.656 400.935 238.204C400.935 237.76 400.514 237.477 399.887 237.477C399.259 237.477 398.846 237.76 398.846 238.204ZM401.532 238.204C401.532 238.939 400.866 239.406 399.887 239.406C398.907 239.406 398.249 238.939 398.249 238.204C398.249 237.477 398.907 237.01 399.887 237.01C400.866 237.01 401.532 237.477 401.532 238.204ZM402.55 241.74V240.982H399.473V241.74H402.55ZM402.55 240.492V239.765H403.17V242.245H398.853V239.765H399.473V240.492H402.55ZM404.188 237.217V237.745H403.17V239.459H402.542V235.472H403.17V237.217H404.188ZM405.557 236.138V240.026C406.59 240.026 407.654 239.934 408.794 239.704L408.863 240.24C407.669 240.485 406.59 240.561 405.496 240.561H404.929V236.138H405.557ZM409.498 235.472H410.126V242.329H409.498V235.472ZM412.077 236.651V240.102C413.294 240.102 414.174 240.049 415.169 239.873L415.238 240.393C414.189 240.592 413.286 240.638 411.993 240.638H411.449V236.13H414.641V236.651H412.077ZM417.572 238.181V238.702H416.439V242.352H415.812V235.472H416.439V238.181H417.572ZM418.474 241.87C418.199 241.87 417.969 241.656 417.969 241.342C417.969 241.02 418.199 240.799 418.474 240.799C418.75 240.799 418.98 241.02 418.98 241.342C418.98 241.656 418.75 241.87 418.474 241.87Z" fill="#9393A3"/>
<line x1="72.2266" y1="255.637" x2="679.775" y2="255.637" stroke="#DEDFE5" stroke-width="0.58871"/>
<defs>
<clipPath id="clip0_5308_91751">
<rect width="5.8871" height="6.29794" fill="white" transform="translate(106.936 76.2622)"/>
</clipPath>
<clipPath id="clip1_5308_91751">
<rect width="5.8871" height="6.29794" fill="white" transform="translate(98.9355 110.407)"/>
</clipPath>
<clipPath id="clip2_5308_91751">
<rect width="5.8871" height="6.29794" fill="white" transform="translate(91.9355 145.73)"/>
</clipPath>
<clipPath id="clip3_5308_91751">
<rect width="5.8871" height="6.29794" fill="white" transform="translate(94.9355 189)"/>
</clipPath>
<clipPath id="clip4_5308_91751">
<rect width="5.8871" height="6.29794" fill="white" transform="translate(106.936 232.271)"/>
</clipPath>
</defs>
</svg>
